<svg width="101" height="111" viewBox="0 0 101 111" fill="none" xmlns="http://www.w3.org/2000/svg">
    <path d="M50.2324 100.188C77.8467 100.188 100.232 77.8017 100.232 50.1875C100.232 22.5733 77.8467 0.1875 50.2324 0.1875C22.6182 0.1875 0.232422 22.5733 0.232422 50.1875C0.232422 77.8017 22.6182 100.188 50.2324 100.188Z" fill="url(#paint0_linear_8966_85488)"/>
    <path d="M18.5993 35.4675L20.4479 36.4792L18.5993 37.4909L17.5876 39.3421L16.5732 37.4909L14.7246 36.4792L16.5732 35.4675L17.5876 33.6162L18.5993 35.4675Z" fill="url(#paint1_linear_8966_85488)"/>
    <path d="M50.0717 14.5212L50.951 15.0032L50.0717 15.4826L49.5923 16.3592L49.113 15.4826L48.2363 15.0032L49.113 14.5212L49.5923 13.6445L50.0717 14.5212Z" fill="url(#paint2_linear_8966_85488)"/>
    <path opacity="0.72" d="M88.775 88.3008C88.775 89.0291 72.1136 89.625 51.559 89.625C31.0044 89.625 14.3457 89.0318 14.3457 88.3008C14.3457 87.5698 31.0071 86.9766 51.559 86.9766C72.111 86.9766 88.775 87.5698 88.775 88.3008Z" fill="url(#paint3_radial_8966_85488)"/>
    <path d="M38.4816 22.4609L23.502 36.8791V92.5176H76.357V29.9216C76.3563 27.9427 75.5697 26.045 74.1701 24.646C72.7705 23.2469 70.8726 22.4609 68.8937 22.4609H38.4816Z" fill="url(#paint4_linear_8966_85488)"/>
    <path opacity="0.77" d="M38.7823 22.6992L51.8604 47.7562L41.9658 50.7198L23.8027 37.0008L38.7823 22.6992Z" fill="url(#paint5_linear_8966_85488)"/>
    <path d="M24.7997 36.8791H38.4816V22.5775V22.4609L23.502 36.8791H24.7997Z" fill="white"/>
    <path d="M66.7606 78.2926L68.257 79.1083L66.7606 79.9266L65.9449 81.4204L65.1265 79.9266L63.6328 79.1083L65.1265 78.2926L65.9449 76.7988L66.7606 78.2926Z" fill="url(#paint6_linear_8966_85488)"/>
    <path d="M51.0167 110.101C76.5787 110.101 97.3009 102.617 97.3009 93.384C97.3009 84.1514 76.5787 76.667 51.0167 76.667C25.4546 76.667 4.73242 84.1514 4.73242 93.384C4.73242 102.617 25.4546 110.101 51.0167 110.101Z" fill="url(#paint7_linear_8966_85488)"/>
    <path d="M82.3063 43.2985L84.1576 44.3102L82.3063 45.3219L81.2946 47.1732L80.2829 45.3219L78.4316 44.3102L80.2829 43.2985L81.2946 41.4473L82.3063 43.2985Z" fill="url(#paint8_linear_8966_85488)"/>
    <path opacity="0.72" d="M88.4272 86.874C88.4272 87.605 71.7632 88.1982 51.2112 88.1982C30.6593 88.1982 14.0059 87.605 14.0059 86.874C14.0059 86.1431 30.6672 85.5498 51.2218 85.5498C71.7764 85.5498 88.4272 86.1431 88.4272 86.874Z" fill="url(#paint9_radial_8966_85488)"/>
    <path d="M56.0632 36.2059H54.9747V32.2835C54.9509 31.4617 54.6077 30.6816 54.018 30.1087C53.4283 29.5359 52.6385 29.2154 51.8164 29.2154C50.9943 29.2154 50.2045 29.5359 49.6148 30.1087C49.0251 30.6816 48.6819 31.4617 48.6581 32.2835V35.4431H47.5723V32.2835C47.5723 31.1576 48.0196 30.0777 48.8157 29.2816C49.6119 28.4854 50.6918 28.0381 51.8177 28.0381C52.9437 28.0381 54.0235 28.4854 54.8197 29.2816C55.6159 30.0777 56.0632 31.1576 56.0632 32.2835V36.2059Z" fill="url(#paint10_linear_8966_85488)"/>
    <path d="M55.6881 45.1373H47.9599C47.242 45.1352 46.5543 44.8486 46.0474 44.3402C45.5405 43.8318 45.2559 43.1432 45.2559 42.4253V36.2862C45.2566 35.5672 45.5425 34.8778 46.051 34.3693C46.5594 33.8609 47.2488 33.5749 47.9679 33.5742H55.696C56.4153 33.5742 57.1051 33.8599 57.6137 34.3685C58.1223 34.8771 58.408 35.567 58.408 36.2862V42.4253C58.4084 42.7822 58.3382 43.1357 58.2016 43.4654C58.0649 43.7951 57.8644 44.0946 57.6117 44.3466C57.3589 44.5986 57.0589 44.7982 56.7288 44.9339C56.3987 45.0696 56.045 45.1387 55.6881 45.1373Z" fill="url(#paint11_linear_8966_85488)"/>
    <path d="M53.1837 37.795C53.1837 38.0113 53.1196 38.2228 52.9994 38.4027C52.8792 38.5825 52.7084 38.7227 52.5085 38.8055C52.3086 38.8883 52.0887 38.91 51.8765 38.8678C51.6643 38.8256 51.4694 38.7214 51.3165 38.5684C51.1635 38.4154 51.0593 38.2206 51.0171 38.0084C50.9749 37.7962 50.9966 37.5763 51.0794 37.3764C51.1621 37.1765 51.3023 37.0057 51.4822 36.8855C51.6621 36.7653 51.8736 36.7012 52.0899 36.7012C52.38 36.7012 52.6582 36.8164 52.8633 37.0215C53.0685 37.2267 53.1837 37.5049 53.1837 37.795Z" fill="white"/>
    <path d="M52.088 37.2656L51.2643 40.7086C51.2532 40.7566 51.253 40.8065 51.2638 40.8545C51.2746 40.9026 51.296 40.9476 51.3265 40.9863C51.357 41.0249 51.3958 41.0562 51.4401 41.0778C51.4844 41.0995 51.5329 41.1109 51.5822 41.1112H52.5992C52.6483 41.111 52.6969 41.0996 52.741 41.078C52.7852 41.0563 52.8239 41.025 52.8542 40.9862C52.8846 40.9475 52.9057 40.9024 52.9161 40.8543C52.9265 40.8062 52.9259 40.7564 52.9143 40.7086L52.088 37.2656Z" fill="white"/>
    <path d="M21.3023 59.3193H19.1836V62.0817H21.3023V59.3193Z" fill="#FF9E3C"/>
    <path d="M54.8245 49.5596H54.1836V71.7615H54.8245V49.5596Z" fill="#FFC55F"/>
    <path d="M27.5374 49.5596H26.8965V71.7615H27.5374V49.5596Z" fill="#FFC55F"/>
    <path d="M34.471 49.5596H33.8301V71.7615H34.471V49.5596Z" fill="#FFC55F"/>
    <path d="M41.4085 49.5596H40.7676V71.7615H41.4085V49.5596Z" fill="#FFC55F"/>
    <path d="M48.344 49.5596H47.7031V71.7615H48.344V49.5596Z" fill="#FFC55F"/>
    <path d="M62.204 49.5596H61.5684V71.7615H62.204V49.5596Z" fill="#FFC55F"/>
    <path d="M69.1468 49.5596H68.5059V71.7615H69.1468V49.5596Z" fill="#FFC55F"/>
    <path d="M76.0802 49.5596H75.4473V71.7615H76.0882L76.0802 49.5596Z" fill="#FFC55F"/>
    <path d="M81.9621 80.6421H80.8683V54.1126C80.8662 53.0501 80.443 52.0317 79.6914 51.2806C78.9398 50.5295 77.9211 50.1069 76.8586 50.1055H25.5052C24.4427 50.1062 23.4239 50.5286 22.6725 51.28C21.9212 52.0313 21.4988 53.0501 21.4981 54.1126V80.6421H20.4043V54.1126C20.4064 52.7604 20.9445 51.4642 21.9006 50.5081C22.8568 49.5519 24.153 49.0138 25.5052 49.0117H76.8586C78.211 49.0138 79.5075 49.5518 80.4641 50.5079C81.4206 51.464 81.9593 52.7602 81.9621 54.1126V80.6421Z" fill="#FFC55F"/>
    <path d="M81.4152 71.2139H20.9512V72.3077H81.4152V71.2139Z" fill="#FFB748"/>
    <path d="M81.3008 60.6592H84.4789V63.5089" stroke="#FFB748" stroke-width="2.5566" stroke-miterlimit="10"/>
    <path d="M33.0724 64.8389L32.7439 63.5332H30.8741L30.5457 64.8389L26.3691 79.1802H37.2569L33.0724 64.8389Z" fill="#FFFBF3"/>
    <path d="M33.0726 64.8389L32.7442 63.5332H31.8066L30.4824 79.1802H37.2571L33.0726 64.8389Z" fill="#C9C9C9"/>
    <path d="M39.3559 79.1797H24.2598V80.9012H39.3559V79.1797Z" fill="#F95B03"/>
    <path d="M39.3579 79.1797H31.8125V80.9012H39.3579V79.1797Z" fill="#DF5437"/>
    <path d="M33.0728 64.8389L32.7444 63.5332H30.8746L30.5461 64.8389L29.8496 67.2225H33.7746L33.0728 64.8389Z" fill="#F95B03"/>
    <path d="M35.7799 74.1162H27.8346L26.3594 79.18H37.2577L35.7799 74.1162Z" fill="#F95B03"/>
    <path d="M34.424 69.46H29.2013L28.4941 71.8886H35.1338L34.424 69.46Z" fill="#F95B03"/>
    <path d="M35.78 74.1162H30.9095L30.4805 79.18H37.2578L35.78 74.1162Z" fill="#DF5437"/>
    <path d="M31.0996 71.8886H35.1332L34.4234 69.46H31.3088L31.0996 71.8886Z" fill="#DF5437"/>
    <path d="M33.7738 67.2303L33.0772 64.8467L32.7488 63.541H31.8113L31.4961 67.2488L33.7738 67.2303Z" fill="#DF5437"/>
    <path opacity="0.2" d="M28.0527 76.6483L30.4787 66.2188H31.0984L29.5756 76.6483H28.0527Z" fill="white"/>
    <defs>
        <linearGradient id="paint0_linear_8966_85488" x1="48.1309" y1="90.1178" x2="54.1308" y2="-9.87956" gradientUnits="userSpaceOnUse">
            <stop stop-color="#FEFEFD"/>
            <stop offset="1" stop-color="#EBF3FF"/>
        </linearGradient>
        <linearGradient id="paint1_linear_8966_85488" x1="14.722" y1="36.4792" x2="20.4505" y2="36.4792" gradientUnits="userSpaceOnUse">
            <stop stop-color="#FF8E00"/>
            <stop offset="1" stop-color="#FFCF01"/>
        </linearGradient>
        <linearGradient id="paint2_linear_8966_85488" x1="48.2363" y1="15.0032" x2="50.951" y2="15.0032" gradientUnits="userSpaceOnUse">
            <stop stop-color="#5278FF"/>
            <stop offset="1" stop-color="#30B8FC"/>
        </linearGradient>
        <radialGradient id="paint3_radial_8966_85488" cx="0" cy="0" r="1" gradientUnits="userSpaceOnUse" gradientTransform="translate(51.9575 89.6071) scale(38.6805 58.4101)">
            <stop stop-color="#D0DFF3"/>
            <stop offset="0.99" stop-color="#D0DFF3"/>
        </radialGradient>
        <linearGradient id="paint4_linear_8966_85488" x1="52.423" y1="70.411" x2="29.7284" y2="-17.573" gradientUnits="userSpaceOnUse">
            <stop stop-color="#FEFEFD"/>
            <stop offset="1" stop-color="#C1D3FD"/>
        </linearGradient>
        <linearGradient id="paint5_linear_8966_85488" x1="8.47883" y1="9.57881" x2="55.3563" y2="50.6297" gradientUnits="userSpaceOnUse">
            <stop stop-color="#7AA3FF"/>
            <stop offset="1" stop-color="#E4ECFE" stop-opacity="0"/>
        </linearGradient>
        <linearGradient id="paint6_linear_8966_85488" x1="1170.62" y1="1453.97" x2="1251.31" y2="1453.97" gradientUnits="userSpaceOnUse">
            <stop stop-color="#5278FF"/>
            <stop offset="1" stop-color="#30B8FC"/>
        </linearGradient>
        <linearGradient id="paint7_linear_8966_85488" x1="51.0167" y1="83.9502" x2="51.0167" y2="78.3541" gradientUnits="userSpaceOnUse">
            <stop stop-color="#FEFEFD"/>
            <stop offset="0.84" stop-color="#EBF3FF"/>
        </linearGradient>
        <linearGradient id="paint8_linear_8966_85488" x1="1769.13" y1="995.39" x2="1892.93" y2="995.39" gradientUnits="userSpaceOnUse">
            <stop stop-color="#5278FF"/>
            <stop offset="1" stop-color="#30B8FC"/>
        </linearGradient>
        <radialGradient id="paint9_radial_8966_85488" cx="0" cy="0" r="1" gradientUnits="userSpaceOnUse" gradientTransform="translate(23841.5 -7028.76) scale(7294.78 259.601)">
            <stop stop-color="#D0DFF3"/>
            <stop offset="0.99" stop-color="#D0DFF3"/>
        </radialGradient>
        <linearGradient id="paint10_linear_8966_85488" x1="49.4368" y1="32.1246" x2="62.0699" y2="32.1246" gradientUnits="userSpaceOnUse">
            <stop stop-color="#8BB4F2"/>
            <stop offset="1" stop-color="white"/>
        </linearGradient>
        <linearGradient id="paint11_linear_8966_85488" x1="2272.05" y1="1996.3" x2="3230.04" y2="1062.33" gradientUnits="userSpaceOnUse">
            <stop stop-color="#8BB4F2"/>
            <stop offset="1" stop-color="white"/>
        </linearGradient>
    </defs>
</svg>
