<svg width="138" height="100" viewBox="0 0 138 100" fill="none" xmlns="http://www.w3.org/2000/svg">
<path d="M24.5166 73.6406C24.216 71.8972 23.3444 70.3342 22.7432 68.6811C21.9617 66.547 22.3525 64.8337 22.8935 62.7297C23.7351 59.5436 23.7652 55.9968 22.112 53.0813C21.6612 52.2998 21.06 51.6085 20.6091 50.7969C20.0982 49.9252 19.8878 48.7831 19.7675 47.7912C19.6774 46.8594 19.8577 45.8975 19.7976 44.9357C19.7675 44.1242 19.6173 43.3126 19.4069 42.5011C18.8057 40.2768 17.2127 37.4213 14.5676 37.4514C11.4416 37.4815 10.6301 41.2687 10.7503 43.7334C10.8104 45.4467 11.111 47.2501 10.5099 48.9033C9.84859 50.6767 8.10526 51.7587 7.11337 53.3518C5.64055 55.6662 5.33998 58.702 6.36193 61.2569C6.93302 62.6996 8.19543 63.9921 8.25555 65.6152C8.31566 67.4788 6.27176 68.5909 5.30992 70.0036C3.74693 72.3481 3.65676 75.4139 4.73883 77.9388C7.47405 83.6497 14.9884 85.6335 20.3086 82.4173C20.3987 82.4173 20.4889 82.4173 20.549 82.3572C23.2542 80.3133 25.1178 77.0972 24.5166 73.6406Z" fill="#BFEAFF"/>
<path d="M14.8081 87.9781C14.8682 85.2128 14.8982 82.4776 14.9283 79.7123C13.2451 77.8488 11.8624 75.8048 10.7503 73.5505C10.6 73.25 11.0809 73.0696 11.2312 73.3702C12.2231 75.384 13.4855 77.2777 14.9583 78.9609C14.9884 76.6164 15.0185 74.302 15.0485 71.9575C15.0185 71.9575 15.0185 71.9274 14.9884 71.8974C13.2751 69.9737 11.8023 67.8697 10.6 65.5853C10.4497 65.2847 10.9307 65.1044 11.0809 65.405C12.1931 67.509 13.5156 69.4327 15.0786 71.2061C15.1086 69.0119 15.1387 66.8177 15.1387 64.6535C13.9965 63.2408 12.9746 61.738 12.0728 60.175C11.9225 59.9045 12.3133 59.5738 12.4636 59.8744C13.2451 61.257 14.1468 62.6096 15.1086 63.872C15.1387 61.6778 15.1387 59.5137 15.1688 57.3195C15.1387 57.3195 15.1086 57.2895 15.0786 57.2594C14.2971 56.3577 13.5757 55.4259 12.9144 54.4641C12.7341 54.1935 13.1248 53.893 13.3052 54.1635C13.9063 55.0051 14.5075 55.8167 15.1688 56.5981C15.1688 55.1253 15.1988 53.6826 15.1988 52.2098C15.1988 51.8791 15.7098 51.819 15.7098 52.1496C15.7098 54.1635 15.6797 56.1773 15.6497 58.1912C16.1907 57.2594 16.7618 56.3276 17.3329 55.4259C17.5132 55.1554 17.904 55.456 17.7236 55.7265C16.9722 56.8687 16.2809 58.0108 15.6196 59.2131C15.5896 60.9865 15.5896 62.7599 15.5595 64.5333C15.5595 64.5634 15.5595 64.5634 15.5595 64.5934C15.5595 65.5853 15.5294 66.5772 15.5294 67.5691C17.0023 65.9159 18.2947 64.1125 19.3768 62.1287C19.5271 61.8582 20.008 62.0686 19.8277 62.3391C18.6254 64.5032 17.1826 66.5171 15.4994 68.3205C15.4693 70.8454 15.4393 73.3702 15.4092 75.9251C16.6115 74.6326 17.8138 73.3401 19.0161 72.0477C19.2265 71.8072 19.6473 72.1078 19.4068 72.3482C18.0543 73.791 16.7317 75.2338 15.3792 76.6465C15.319 80.4337 15.2589 84.2209 15.1988 88.0382C15.289 88.3688 14.778 88.3087 14.8081 87.9781Z" fill="#49A6D6"/>
<path d="M14.4475 17.5537H114.809" stroke="#BFEAFF" stroke-width="1.9411" stroke-miterlimit="10"/>
<path d="M108.677 91.6756H20.5491C17.1827 91.6756 14.4174 88.9403 14.4174 85.5438V13.5262C14.4174 10.1598 17.1526 7.39453 20.5491 7.39453H108.677C112.044 7.39453 114.809 10.1298 114.809 13.5262V85.5438C114.809 88.9403 112.074 91.6756 108.677 91.6756Z" stroke="#BFEAFF" stroke-width="1.9411" stroke-miterlimit="10"/>
<path d="M24.3363 12.5943C24.3363 13.3758 23.7051 14.007 22.9237 14.007C22.1422 14.007 21.511 13.3758 21.511 12.5943C21.511 11.8128 22.1422 11.1816 22.9237 11.1816C23.7051 11.1816 24.3363 11.8128 24.3363 12.5943Z" stroke="#BFEAFF" stroke-width="1.9411" stroke-miterlimit="10"/>
<path d="M29.8368 12.5943C29.8368 13.3758 29.2056 14.007 28.4241 14.007C27.6427 14.007 27.0114 13.3758 27.0114 12.5943C27.0114 11.8128 27.6427 11.1816 28.4241 11.1816C29.2056 11.1816 29.8368 11.8128 29.8368 12.5943Z" stroke="#BFEAFF" stroke-width="1.9411" stroke-miterlimit="10"/>
<path d="M35.3373 12.5943C35.3373 13.3758 34.7061 14.007 33.9246 14.007C33.1431 14.007 32.5119 13.3758 32.5119 12.5943C32.5119 11.8128 33.1431 11.1816 33.9246 11.1816C34.7061 11.1816 35.3373 11.8128 35.3373 12.5943Z" stroke="#BFEAFF" stroke-width="1.9411" stroke-miterlimit="10"/>
<path d="M61.9682 98.1672C76.7565 96.8447 123.796 100.121 119.949 94.0193C119.348 93.1176 116.282 91.8852 118.807 90.9835C120.67 90.2922 124.067 89.8113 127.373 89.4807C136 88.5789 139.156 87.1963 136.931 85.4229C130.95 80.6738 99.1493 82.6877 82.4674 84.6113C70.6248 86.024 56.5879 86.5951 44.2644 85.994C34.616 85.5131 28.5444 84.1004 17.2428 84.8819C7.20359 85.5431 5.76084 87.4367 8.73652 89.0598C10.4197 90.0818 11.622 90.5026 8.34578 91.6147C5.58049 92.6968 0.71119 93.5985 0.380559 94.8008C0.320444 96.0933 3.41636 97.2956 9.33767 97.6262C14.1769 97.8967 18.5653 97.6262 23.3444 97.7464C33.9848 98.047 40.898 101.053 54.0631 99.61C57.3394 99.2193 59.1729 98.4678 62.7497 98.1672" fill="#EEEEEE"/>
<path opacity="0.5" d="M121.121 89.1505C127.764 89.1505 133.144 88.5493 133.144 87.7979C133.144 87.0465 127.764 86.4453 121.121 86.4453C114.479 86.4453 109.098 87.0465 109.098 87.7979C109.098 88.5493 114.479 89.1505 121.121 89.1505Z" fill="#A3A8AF"/>
<path d="M80.4837 94.5908H74.5924C74.4421 94.5908 74.3219 94.711 74.3219 94.8613C74.3219 95.0116 74.4421 95.1319 74.5924 95.1319H80.4837C80.634 95.1319 80.7542 95.0116 80.7542 94.8613C80.7542 94.681 80.634 94.5908 80.4837 94.5908Z" fill="#49A6D6"/>
<path d="M72.6987 94.5908H71.5566C71.4063 94.5908 71.286 94.711 71.286 94.8613C71.286 95.0116 71.4063 95.1319 71.5566 95.1319H72.6987C72.849 95.1319 72.9693 95.0116 72.9693 94.8613C72.9693 94.711 72.849 94.5908 72.6987 94.5908Z" fill="#49A6D6"/>
<path d="M77.7182 96.6348C77.7182 96.7851 77.598 96.9053 77.4477 96.9053H76.6962C76.546 96.9053 76.4257 96.7851 76.4257 96.6348C76.4257 96.4845 76.546 96.3643 76.6962 96.3643H77.4477C77.598 96.3943 77.7182 96.4845 77.7182 96.6348ZM75.6743 96.6348C75.6743 96.7851 75.5541 96.9053 75.4038 96.9053H74.1113C73.961 96.9053 73.8408 96.7851 73.8408 96.6348C73.8408 96.4845 73.961 96.3643 74.1113 96.3643H75.4038C75.5541 96.3943 75.6743 96.4845 75.6743 96.6348ZM73.0894 96.6348C73.0894 96.7851 72.9691 96.9053 72.8188 96.9053H71.5264C71.3761 96.9053 71.2559 96.7851 71.2559 96.6348C71.2559 96.4845 71.3761 96.3643 71.5264 96.3643H72.8188C72.9691 96.3943 73.0894 96.4845 73.0894 96.6348Z" fill="#49A6D6"/>
<path d="M102.936 92.3965C102.786 92.3965 102.666 92.5167 102.666 92.667V93.2681C102.666 93.4184 102.786 93.5387 102.936 93.5387C103.087 93.5387 103.207 93.4184 103.207 93.2681V92.667C103.177 92.5167 103.057 92.3965 102.936 92.3965Z" fill="#49A6D6"/>
<path d="M102.245 91.7949H101.644C101.494 91.7949 101.373 91.9151 101.373 92.0654C101.373 92.2157 101.494 92.336 101.644 92.336H102.245C102.395 92.336 102.516 92.2157 102.516 92.0654C102.516 91.9151 102.395 91.7949 102.245 91.7949Z" fill="#49A6D6"/>
<path d="M102.936 90.5625C102.786 90.5625 102.666 90.6827 102.666 90.833V91.4342C102.666 91.5845 102.786 91.7047 102.936 91.7047C103.087 91.7047 103.207 91.5845 103.207 91.4342V90.833C103.177 90.6527 103.057 90.5625 102.936 90.5625Z" fill="#49A6D6"/>
<path d="M104.199 91.7656H103.598C103.447 91.7656 103.327 91.8859 103.327 92.0361C103.327 92.1864 103.447 92.3067 103.598 92.3067H104.199C104.349 92.3067 104.469 92.1864 104.469 92.0361C104.469 91.8558 104.349 91.7656 104.199 91.7656Z" fill="#49A6D6"/>
<path d="M14.3272 5.44043C14.1769 5.44043 14.0566 5.56066 14.0566 5.71095V6.31209C14.0566 6.46238 14.1769 6.58261 14.3272 6.58261C14.4774 6.58261 14.5977 6.46238 14.5977 6.31209V5.71095C14.5977 5.56066 14.4774 5.44043 14.3272 5.44043Z" fill="#49A6D6"/>
<path d="M13.6359 4.83887H13.0348C12.8845 4.83887 12.7643 4.9591 12.7643 5.10938C12.7643 5.25967 12.8845 5.3799 13.0348 5.3799H13.6359C13.7862 5.3799 13.9065 5.25967 13.9065 5.10938C13.9065 4.9591 13.7862 4.83887 13.6359 4.83887Z" fill="#49A6D6"/>
<path d="M14.3272 3.60645C14.1769 3.60645 14.0566 3.72667 14.0566 3.87696V4.47811C14.0566 4.6284 14.1769 4.74863 14.3272 4.74863C14.4774 4.74863 14.5977 4.6284 14.5977 4.47811V3.87696C14.5977 3.72667 14.4774 3.60645 14.3272 3.60645Z" fill="#49A6D6"/>
<path d="M15.5897 4.80957H14.9885C14.8382 4.80957 14.718 4.9298 14.718 5.08009C14.718 5.23037 14.8382 5.3506 14.9885 5.3506H15.5897C15.7399 5.3506 15.8602 5.23037 15.8602 5.08009C15.8602 4.9298 15.7399 4.80957 15.5897 4.80957Z" fill="#49A6D6"/>
<path d="M52.2898 2.7051H58.181C58.3313 2.7051 58.4515 2.58487 58.4515 2.43458C58.4515 2.28429 58.3313 2.16406 58.181 2.16406H52.2898C52.1395 2.16406 52.0193 2.28429 52.0193 2.43458C52.0193 2.61492 52.1395 2.7051 52.2898 2.7051Z" fill="#49A6D6"/>
<path d="M60.0745 2.7051H61.2167C61.367 2.7051 61.4872 2.58487 61.4872 2.43458C61.4872 2.28429 61.367 2.16406 61.2167 2.16406H60.0745C59.9242 2.16406 59.804 2.28429 59.804 2.43458C59.804 2.61492 59.9242 2.7051 60.0745 2.7051Z" fill="#49A6D6"/>
<path d="M55.055 0.661142C55.055 0.510855 55.1752 0.390625 55.3255 0.390625H56.0769C56.2272 0.390625 56.3475 0.510855 56.3475 0.661142C56.3475 0.811429 56.2272 0.931659 56.0769 0.931659H55.3255C55.1752 0.931659 55.055 0.811429 55.055 0.661142ZM57.0989 0.661142C57.0989 0.510855 57.2191 0.390625 57.3694 0.390625H58.6619C58.8122 0.390625 58.9324 0.510855 58.9324 0.661142C58.9324 0.811429 58.8122 0.931659 58.6619 0.931659H57.3694C57.2191 0.931659 57.0989 0.811429 57.0989 0.661142ZM59.6838 0.661142C59.6838 0.510855 59.8041 0.390625 59.9544 0.390625H61.2468C61.3971 0.390625 61.5173 0.510855 61.5173 0.661142C61.5173 0.811429 61.3971 0.931659 61.2468 0.931659H59.9544C59.8041 0.931659 59.6838 0.811429 59.6838 0.661142Z" fill="#49A6D6"/>
<path d="M4.31809 25.5186H10.2093C10.3596 25.5186 10.4799 25.3983 10.4799 25.2481C10.4799 25.0978 10.3596 24.9775 10.2093 24.9775H4.31809C4.16781 24.9775 4.04758 25.0978 4.04758 25.2481C4.07763 25.3983 4.19786 25.5186 4.31809 25.5186Z" fill="#49A6D6"/>
<path d="M1.28224 25.5186H2.42442C2.57471 25.5186 2.69493 25.3983 2.69493 25.2481C2.69493 25.0978 2.57471 24.9775 2.42442 24.9775H1.28224C1.13195 24.9775 1.01172 25.0978 1.01172 25.2481C1.04178 25.3983 1.16201 25.5186 1.28224 25.5186Z" fill="#49A6D6"/>
<path d="M46.0078 0C46.0078 0 46.128 0.871665 45.1061 0.871665C45.1061 0.871665 45.9777 0.871665 45.9777 1.71327C45.9777 1.71327 46.0679 1.05201 46.8795 0.93178C46.8494 0.901723 46.1581 1.05201 46.0078 0Z" fill="#49A6D6"/>
<path d="M8.19548 37.2412C8.19548 37.2412 8.31571 38.1129 7.29376 38.1129C7.29376 38.1129 8.16543 38.1129 8.16543 38.9545C8.16543 38.9545 8.2556 38.2932 9.06715 38.173C9.03709 38.1429 8.34577 38.2932 8.19548 37.2412Z" fill="#49A6D6"/>
<path d="M5.24982 66.0963C5.24982 65.6154 5.64056 65.2246 6.12148 65.2246C6.6024 65.2246 6.99315 65.6154 6.99315 66.0963C6.99315 66.5772 6.6024 66.9679 6.12148 66.9679C5.64056 66.9679 5.24982 66.5772 5.24982 66.0963ZM5.67062 66.0963C5.67062 66.3367 5.88102 66.5471 6.12148 66.5471C6.36194 66.5471 6.57234 66.3367 6.57234 66.0963C6.57234 65.8558 6.36194 65.6454 6.12148 65.6454C5.88102 65.6755 5.67062 65.8558 5.67062 66.0963Z" fill="#49A6D6"/>
<path d="M69.723 12.4736H68.7612C68.641 12.4736 68.5508 12.5638 68.5508 12.684C68.5508 12.8043 68.641 12.8944 68.7612 12.8944H69.723C69.8432 12.8944 69.9334 12.8043 69.9334 12.684C69.9334 12.5638 69.8432 12.4736 69.723 12.4736Z" fill="#49A6D6"/>
<path d="M76.1854 12.4736H71.286C71.1658 12.4736 71.0756 12.5638 71.0756 12.684C71.0756 12.8043 71.1658 12.8944 71.286 12.8944H76.1854C76.3056 12.8944 76.3958 12.8043 76.3958 12.684C76.3958 12.5939 76.3056 12.4736 76.1854 12.4736Z" fill="#49A6D6"/>
<path d="M73.8709 14.187C73.8709 14.3072 73.7808 14.3974 73.6605 14.3974H73.0594C72.9392 14.3974 72.849 14.3072 72.849 14.187C72.849 14.0667 72.9392 13.9766 73.0594 13.9766H73.6605C73.7808 13.9766 73.8709 14.0667 73.8709 14.187ZM72.1877 14.187C72.1877 14.3072 72.0976 14.3974 71.9773 14.3974H70.8953C70.775 14.3974 70.6849 14.3072 70.6849 14.187C70.6849 14.0667 70.775 13.9766 70.8953 13.9766H71.9773C72.0976 13.9766 72.1877 14.0667 72.1877 14.187ZM70.0537 14.187C70.0537 14.3072 69.9635 14.3974 69.8433 14.3974H68.7612C68.641 14.3974 68.5508 14.3072 68.5508 14.187C68.5508 14.0667 68.641 13.9766 68.7612 13.9766H69.8433C69.9334 13.9766 70.0537 14.0667 70.0537 14.187Z" fill="#49A6D6"/>
<path d="M37.2911 45.3867C37.1709 45.3867 37.0807 45.4769 37.0807 45.5971V46.1081C37.0807 46.2283 37.1709 46.3185 37.2911 46.3185C37.4113 46.3185 37.5015 46.2283 37.5015 46.1081V45.5971C37.5015 45.4769 37.4113 45.3867 37.2911 45.3867Z" fill="#49A6D6"/>
<path d="M36.72 44.876H36.2091C36.0888 44.876 35.9987 44.9661 35.9987 45.0864C35.9987 45.2066 36.0888 45.2968 36.2091 45.2968H36.72C36.8403 45.2968 36.9304 45.2066 36.9304 45.0864C36.9304 44.9661 36.8403 44.876 36.72 44.876Z" fill="#49A6D6"/>
<path d="M37.2911 43.8535C37.1709 43.8535 37.0807 43.9437 37.0807 44.0639V44.5749C37.0807 44.6951 37.1709 44.7853 37.2911 44.7853C37.4113 44.7853 37.5015 44.6951 37.5015 44.5749V44.0639C37.5015 43.9437 37.4113 43.8535 37.2911 43.8535Z" fill="#49A6D6"/>
<path d="M38.3432 44.8457H37.8322C37.712 44.8457 37.6218 44.9359 37.6218 45.0561C37.6218 45.1763 37.712 45.2665 37.8322 45.2665H38.3432C38.4634 45.2665 38.5536 45.1763 38.5536 45.0561C38.5536 44.9359 38.4634 44.8457 38.3432 44.8457Z" fill="#49A6D6"/>
<path d="M118.266 28.3145C118.146 28.3145 118.055 28.4046 118.055 28.5249V29.0358C118.055 29.1561 118.146 29.2462 118.266 29.2462C118.386 29.2462 118.476 29.1561 118.476 29.0358V28.5249C118.506 28.4046 118.386 28.3145 118.266 28.3145Z" fill="#49A6D6"/>
<path d="M117.725 27.8027H117.214C117.094 27.8027 117.003 27.8929 117.003 28.0131C117.003 28.1334 117.094 28.2235 117.214 28.2235H117.725C117.845 28.2235 117.935 28.1334 117.935 28.0131C117.935 27.8929 117.845 27.8027 117.725 27.8027Z" fill="#49A6D6"/>
<path d="M118.266 26.7812C118.146 26.7812 118.055 26.8714 118.055 26.9917V27.5026C118.055 27.6229 118.146 27.713 118.266 27.713C118.386 27.713 118.476 27.6229 118.476 27.5026V26.9917C118.506 26.8714 118.386 26.7812 118.266 26.7812Z" fill="#49A6D6"/>
<path d="M119.348 27.7734H118.837C118.717 27.7734 118.627 27.8636 118.627 27.9838C118.627 28.1041 118.717 28.1942 118.837 28.1942H119.348C119.468 28.1942 119.558 28.1041 119.558 27.9838C119.558 27.8636 119.468 27.7734 119.348 27.7734Z" fill="#49A6D6"/>
<path d="M114.418 12.414H119.318C119.438 12.414 119.528 12.3238 119.528 12.2036C119.528 12.0833 119.438 11.9932 119.318 11.9932H114.418C114.298 11.9932 114.208 12.0833 114.208 12.2036C114.208 12.3238 114.298 12.414 114.418 12.414Z" fill="#49A6D6"/>
<path d="M111.894 12.414H112.855C112.976 12.414 113.066 12.3238 113.066 12.2036C113.066 12.0833 112.976 11.9932 112.855 11.9932H111.894C111.773 11.9932 111.683 12.0833 111.683 12.2036C111.683 12.3238 111.773 12.414 111.894 12.414Z" fill="#49A6D6"/>
<path d="M134.497 67.9603C134.076 65.4054 132.783 63.121 131.912 60.7164C130.8 57.6205 131.311 55.1257 132.152 52.0298C133.385 47.401 133.415 42.201 131.01 37.9329C130.349 36.7607 129.477 35.7688 128.816 34.5965C128.094 33.3341 127.764 31.6509 127.614 30.2081C127.463 28.8255 127.734 27.4428 127.674 26.0602C127.614 24.8579 127.433 23.6857 127.133 22.5134C126.261 19.2672 123.947 15.0892 120.069 15.1193C115.5 15.1794 114.328 20.6799 114.478 24.2868C114.569 26.7816 115.02 29.4266 114.118 31.8613C113.126 34.4763 110.601 36.0393 109.128 38.3537C106.994 41.7502 106.543 46.1686 108.046 49.8957C108.888 51.9998 110.751 53.8934 110.811 56.2379C110.902 58.9731 107.896 60.5962 106.543 62.61C104.259 66.0366 104.139 70.4851 105.732 74.2122C109.699 82.5381 120.7 85.4236 128.485 80.7647C128.605 80.7948 128.726 80.7647 128.846 80.6746C132.633 77.6688 135.338 72.9799 134.497 67.9603Z" fill="#8FD8FC"/>
<path d="M120.28 88.8496C120.34 84.8219 120.4 80.8242 120.46 76.7965C117.995 74.0914 115.981 71.0856 114.358 67.8394C114.148 67.4186 114.839 67.1481 115.05 67.5689C116.522 70.5145 118.326 73.2498 120.49 75.7145C120.55 72.318 120.58 68.9215 120.61 65.4949C120.58 65.4649 120.55 65.4649 120.52 65.4348C117.995 62.6395 115.861 59.5736 114.088 56.2373C113.877 55.8165 114.569 55.5459 114.779 55.9667C116.402 59.0025 118.356 61.8279 120.61 64.4429C120.64 61.2569 120.67 58.0708 120.7 54.8847C119.047 52.8107 117.544 50.6466 116.252 48.3322C116.012 47.9114 116.613 47.4605 116.853 47.8813C117.995 49.9252 119.288 51.8489 120.731 53.6824C120.761 50.4963 120.791 47.3403 120.821 44.1542C120.791 44.1241 120.731 44.0941 120.7 44.064C119.588 42.7415 118.536 41.3889 117.544 39.9762C117.274 39.5855 117.875 39.1346 118.146 39.5253C118.987 40.7276 119.919 41.9299 120.851 43.0721C120.881 40.938 120.881 38.804 120.911 36.6999C120.911 36.219 121.662 36.1289 121.632 36.6098C121.602 39.5554 121.602 42.501 121.572 45.4166C122.354 44.064 123.165 42.7114 124.037 41.419C124.307 41.0282 124.878 41.4791 124.638 41.8698C123.556 43.523 122.534 45.2062 121.572 46.9495C121.542 49.5345 121.512 52.1194 121.512 54.7043C121.512 54.7344 121.512 54.7645 121.512 54.7945C121.512 56.2373 121.482 57.68 121.482 59.1228C123.646 56.6881 125.54 54.0731 127.103 51.2177C127.343 50.7969 128.004 51.0974 127.764 51.5182C126.021 54.6743 123.917 57.5898 121.452 60.2349C121.422 63.932 121.362 67.599 121.302 71.296C123.075 69.4024 124.818 67.5389 126.592 65.6452C126.922 65.3146 127.493 65.7354 127.163 66.0961C125.209 68.2001 123.255 70.2741 121.272 72.3781C121.211 77.9087 121.121 83.4392 121.031 88.9698C121.001 89.4507 120.28 89.3305 120.28 88.8496Z" fill="#49A6D6"/>
<path d="M52.6372 43.8984L38.2698 44.0788C36.9773 44.1088 36.0155 45.221 36.1658 46.5134L39.2918 74.8576L89.4576 74.2564L91.3813 49.7596C91.4714 48.918 90.8102 48.1666 89.9385 48.1666L56.154 48.5573L54.9517 45.1909C54.4708 44.3794 53.5991 43.8984 52.6372 43.8984Z" fill="#BFBFBF"/>
<path d="M41.413 31.4687C41.3601 31.3607 41.2665 31.2781 41.1527 31.2392C41.0389 31.2002 40.9143 31.208 40.8063 31.2609L36.3262 33.4545C36.2182 33.5074 36.1356 33.601 36.0966 33.7148C36.0576 33.8286 36.0655 33.9532 36.1183 34.0612L46.2888 54.8325C46.3198 54.8957 46.365 54.9509 46.421 54.9936C46.477 55.0363 46.5421 55.0654 46.6113 55.0785L48.2448 55.3896L47.4887 56.8706C47.4567 56.9333 47.4398 57.0026 47.4392 57.073C47.4386 57.1434 47.4544 57.2129 47.4854 57.2762L51.6732 65.829C51.7261 65.9371 51.8197 66.0196 51.9335 66.0586C52.0473 66.0976 52.1719 66.0898 52.2799 66.0369L56.76 63.8433C56.868 63.7904 56.9506 63.6968 56.9896 63.583C57.0285 63.4692 57.0207 63.3446 56.9678 63.2366C56.4918 62.2644 56.4215 61.143 56.7723 60.119C57.1232 59.095 57.8664 58.2523 58.8386 57.7763C59.8107 57.3003 60.9322 57.2299 61.9562 57.5808C62.9802 57.9316 63.8229 58.6748 64.2989 59.647C64.3518 59.755 64.4454 59.8376 64.5592 59.8766C64.673 59.9156 64.7976 59.9077 64.9056 59.8549L69.3857 57.6612C69.4937 57.6083 69.5763 57.5147 69.6152 57.4009C69.6542 57.2871 69.6464 57.1625 69.5935 57.0545L65.4057 48.5016C65.3747 48.4384 65.3295 48.3833 65.2735 48.3406C65.2175 48.2978 65.1524 48.2688 65.0832 48.2556L63.4497 47.9446L64.2058 46.4636C64.2378 46.4008 64.2547 46.3316 64.2553 46.2612C64.2559 46.1908 64.2401 46.1212 64.2091 46.058L54.0387 25.2867C53.9858 25.1787 53.8921 25.0961 53.7784 25.0571C53.6646 25.0181 53.54 25.0259 53.432 25.0788L48.9519 27.2725C48.8439 27.3254 48.7613 27.419 48.7223 27.5328C48.6833 27.6465 48.6911 27.7711 48.744 27.8792C49.22 28.8513 49.2904 29.9728 48.9395 30.9968C48.5887 32.0208 47.8455 32.8635 46.8733 33.3395C45.9011 33.8155 44.7797 33.8858 43.7557 33.535C42.7317 33.1841 41.889 32.4409 41.413 31.4687Z" fill="#E6E8EA"/>
<path d="M50.7142 41.9679C50.2737 41.0682 49.1872 40.6959 48.2874 41.1365C47.3877 41.577 47.0155 42.6635 47.456 43.5633C47.8966 44.463 48.9831 44.8352 49.8828 44.3947C50.7826 43.9541 51.1548 42.8676 50.7142 41.9679Z" fill="white"/>
<path d="M52.7929 35.9015C52.3523 35.0017 51.2658 34.6295 50.3661 35.0701C49.4663 35.5106 49.0941 36.5971 49.5346 37.4969C49.9752 38.3966 51.0617 38.7688 51.9614 38.3283C52.8612 37.8877 53.2334 36.8012 52.7929 35.9015Z" fill="white"/>
<path d="M45.4485 38.1302C45.4292 38.1866 45.4212 38.2461 45.4249 38.3056C45.4286 38.365 45.444 38.4231 45.4702 38.4766C45.4963 38.5301 45.5328 38.5779 45.5775 38.6173C45.6222 38.6567 45.6742 38.6869 45.7305 38.7061L54.2243 41.6162C54.2809 41.6367 54.3411 41.6457 54.4012 41.6427C54.4613 41.6397 54.5203 41.6248 54.5746 41.5988C54.6289 41.5728 54.6775 41.5362 54.7175 41.4912C54.7575 41.4462 54.7882 41.3937 54.8077 41.3367C54.8272 41.2798 54.8352 41.2195 54.8312 41.1594C54.8272 41.0993 54.8112 41.0407 54.7843 40.9868C54.7573 40.933 54.7199 40.885 54.6742 40.8458C54.6286 40.8065 54.5755 40.7768 54.5182 40.7583L46.0244 37.8483C45.9681 37.8289 45.9085 37.8209 45.8491 37.8246C45.7896 37.8283 45.7315 37.8437 45.678 37.8699C45.6245 37.8961 45.5767 37.9326 45.5374 37.9772C45.498 38.0219 45.4678 38.0739 45.4485 38.1302Z" fill="white"/>
<path d="M50.4389 50.6866C50.4917 50.7947 50.4996 50.9193 50.4606 51.033C50.4216 51.1468 50.339 51.2404 50.231 51.2933L49.4164 51.6922C49.3084 51.7451 49.1838 51.7529 49.07 51.7139C48.9563 51.6749 48.8626 51.5923 48.8097 51.4843C48.7568 51.3763 48.749 51.2517 48.788 51.1379C48.827 51.0241 48.9096 50.9305 49.0176 50.8776L49.8322 50.4788C49.9402 50.4259 50.0648 50.4181 50.1786 50.4571C50.2923 50.496 50.386 50.5786 50.4389 50.6866Z" fill="white"/>
<path d="M53.6971 49.0909C53.75 49.1989 53.7578 49.3236 53.7188 49.4373C53.6798 49.5511 53.5972 49.6447 53.4892 49.6976L52.6746 50.0965C52.5666 50.1494 52.442 50.1572 52.3282 50.1182C52.2145 50.0792 52.1208 49.9966 52.0679 49.8886C52.0151 49.7806 52.0072 49.656 52.0462 49.5422C52.0852 49.4284 52.1678 49.3348 52.2758 49.2819L53.0904 48.8831C53.1984 48.8302 53.323 48.8224 53.4368 48.8613C53.5505 48.9003 53.6442 48.9829 53.6971 49.0909Z" fill="white"/>
<path d="M56.9554 47.4962C57.0083 47.6042 57.0161 47.7288 56.9771 47.8426C56.9381 47.9564 56.8555 48.05 56.7475 48.1029L55.9329 48.5018C55.8249 48.5546 55.7003 48.5625 55.5865 48.5235C55.4728 48.4845 55.3791 48.4019 55.3262 48.2939C55.2734 48.1859 55.2655 48.0613 55.3045 47.9475C55.3435 47.8337 55.4261 47.7401 55.5341 47.6872L56.3487 47.2883C56.4567 47.2355 56.5813 47.2276 56.6951 47.2666C56.8088 47.3056 56.9025 47.3882 56.9554 47.4962Z" fill="white"/>
<path d="M60.2137 45.9005C60.2666 46.0085 60.2744 46.1331 60.2354 46.2469C60.1964 46.3607 60.1138 46.4543 60.0058 46.5072L59.1912 46.906C59.0832 46.9589 58.9586 46.9668 58.8448 46.9278C58.7311 46.8888 58.6374 46.8062 58.5845 46.6982C58.5317 46.5902 58.5238 46.4656 58.5628 46.3518C58.6018 46.238 58.6844 46.1444 58.7924 46.0915L59.607 45.6926C59.715 45.6398 59.8396 45.6319 59.9534 45.6709C60.0671 45.7099 60.1608 45.7925 60.2137 45.9005Z" fill="white"/>
<path d="M68.3593 31.4339L67.5184 32.6374L52.9549 61.3998L59.169 64.5401L63.3755 63.8402L68.3593 31.4339Z" fill="#CACDD0"/>
<path d="M70.6612 63.4835C70.618 63.5957 70.6211 63.7205 70.6698 63.8305C70.7186 63.9404 70.809 64.0265 70.9213 64.0697L75.5757 65.864C75.6879 65.9073 75.8127 65.9042 75.9227 65.8554C76.0326 65.8067 76.1187 65.7162 76.1619 65.604L84.4808 44.0244C84.5062 43.9587 84.5159 43.888 84.5091 43.8179C84.5024 43.7479 84.4794 43.6803 84.4421 43.6206L83.5597 42.2113L85.1598 41.7589C85.2275 41.7397 85.2899 41.7051 85.3419 41.6576C85.3939 41.6102 85.4342 41.5513 85.4595 41.4856L88.885 32.5999C88.9282 32.4877 88.9252 32.3629 88.8764 32.2529C88.8276 32.143 88.7372 32.0569 88.625 32.0136L83.9705 30.2194C83.8583 30.1761 83.7335 30.1792 83.6236 30.228C83.5136 30.2767 83.4276 30.3672 83.3843 30.4794C82.9949 31.4894 82.2203 32.3033 81.2308 32.7422C80.2414 33.181 79.1181 33.2089 78.1081 32.8195C77.0981 32.4302 76.2841 31.6555 75.8453 30.6661C75.4064 29.6766 75.3786 28.5533 75.768 27.5433C75.8112 27.4311 75.8081 27.3063 75.7594 27.1963C75.7106 27.0864 75.6202 27.0003 75.5079 26.957L70.8535 25.1628C70.7413 25.1195 70.6165 25.1226 70.5065 25.1714C70.3966 25.2201 70.3105 25.3106 70.2673 25.4228L66.8418 34.3085C66.8165 34.3742 66.8068 34.4449 66.8136 34.515C66.8203 34.585 66.8432 34.6526 66.8806 34.7123L67.763 36.1216L66.1629 36.574C66.0951 36.5932 66.0328 36.6278 65.9808 36.6753C65.9287 36.7227 65.8885 36.7816 65.8631 36.8473L57.5442 58.4269C57.501 58.5391 57.504 58.6639 57.5528 58.7739C57.6016 58.8838 57.692 58.9699 57.8042 59.0131L62.4587 60.8074C62.5709 60.8507 62.6957 60.8476 62.8056 60.7988C62.9156 60.7501 63.0016 60.6596 63.0449 60.5474C63.4343 59.5374 64.2089 58.7235 65.1984 58.2846C66.1878 57.8458 67.3111 57.8179 68.3211 58.2073C69.3311 58.5966 70.1451 59.3713 70.5839 60.3607C71.0228 61.3502 71.0506 62.4735 70.6612 63.4835Z" fill="#E6E8EA"/>
<path d="M73.3115 46.5233C72.9512 47.4581 73.4168 48.508 74.3516 48.8683C75.2863 49.2287 76.3362 48.763 76.6965 47.8283C77.0569 46.8935 76.5912 45.8436 75.6565 45.4833C74.7217 45.1229 73.6718 45.5886 73.3115 46.5233Z" fill="white"/>
<path d="M67.4491 49.1229C67.0887 50.0577 67.5544 51.1076 68.4892 51.4679C69.4239 51.8283 70.4738 51.3626 70.8341 50.4279C71.1945 49.4931 70.7288 48.4432 69.7941 48.0829C68.8593 47.7225 67.8094 48.1882 67.4491 49.1229Z" fill="white"/>
<path d="M74.0767 52.9941C74.1311 52.97 74.1803 52.9354 74.2214 52.8923C74.2624 52.8491 74.2946 52.7983 74.316 52.7428C74.3374 52.6872 74.3477 52.628 74.3462 52.5684C74.3447 52.5089 74.3315 52.4502 74.3073 52.3958L70.6671 44.1884C70.6437 44.1329 70.6094 44.0827 70.5663 44.0406C70.5233 43.9985 70.4722 43.9655 70.4162 43.9433C70.3603 43.9212 70.3004 43.9104 70.2402 43.9116C70.18 43.9128 70.1206 43.9261 70.0656 43.9505C70.0106 43.9749 69.9609 44.01 69.9196 44.0538C69.8783 44.0976 69.8461 44.1492 69.8249 44.2056C69.8038 44.2619 69.794 44.322 69.7963 44.3821C69.7986 44.4423 69.8128 44.5014 69.8382 44.556L73.4784 52.7635C73.5025 52.8179 73.5371 52.8671 73.5802 52.9082C73.6234 52.9492 73.6742 52.9814 73.7297 53.0028C73.7853 53.0242 73.8445 53.0345 73.9041 53.033C73.9636 53.0315 74.0223 53.0183 74.0767 52.9941Z" fill="white"/>
<path d="M79.8927 40.798C79.9359 40.6858 80.022 40.5954 80.1319 40.5466C80.2419 40.4978 80.3667 40.4947 80.4789 40.538L81.3252 40.8642C81.4374 40.9075 81.5278 40.9936 81.5766 41.1035C81.6253 41.2134 81.6284 41.3383 81.5852 41.4505C81.5419 41.5627 81.4558 41.6531 81.3459 41.7019C81.236 41.7507 81.1112 41.7537 80.9989 41.7105L80.1527 41.3843C80.0405 41.341 79.95 41.2549 79.9013 41.145C79.8525 41.035 79.8494 40.9102 79.8927 40.798Z" fill="white"/>
<path d="M76.5076 39.4933C76.5509 39.3811 76.6369 39.2907 76.7469 39.2419C76.8568 39.1931 76.9816 39.19 77.0939 39.2333L77.9401 39.5595C78.0523 39.6028 78.1428 39.6889 78.1915 39.7988C78.2403 39.9088 78.2434 40.0336 78.2001 40.1458C78.1569 40.258 78.0708 40.3484 77.9609 40.3972C77.8509 40.446 77.7261 40.4491 77.6139 40.4058L76.7676 40.0796C76.6554 40.0363 76.565 39.9502 76.5162 39.8403C76.4674 39.7304 76.4644 39.6055 76.5076 39.4933Z" fill="white"/>
<path d="M73.1227 38.1886C73.1659 38.0764 73.252 37.986 73.3619 37.9372C73.4719 37.8885 73.5967 37.8854 73.7089 37.9286L74.5552 38.2549C74.6674 38.2981 74.7578 38.3842 74.8066 38.4941C74.8554 38.6041 74.8584 38.7289 74.8152 38.8411C74.7719 38.9533 74.6859 39.0438 74.5759 39.0925C74.466 39.1413 74.3412 39.1444 74.2289 39.1011L73.3827 38.7749C73.2705 38.7316 73.18 38.6456 73.1313 38.5356C73.0825 38.4257 73.0794 38.3009 73.1227 38.1886Z" fill="white"/>
<path d="M69.7376 36.883C69.7809 36.7707 69.8669 36.6803 69.9769 36.6315C70.0868 36.5828 70.2116 36.5797 70.3238 36.623L71.1701 36.9492C71.2823 36.9924 71.3728 37.0785 71.4215 37.1885C71.4703 37.2984 71.4734 37.4232 71.4301 37.5354C71.3869 37.6477 71.3008 37.7381 71.1908 37.7869C71.0809 37.8356 70.9561 37.8387 70.8439 37.7954L69.9976 37.4692C69.8854 37.426 69.795 37.3399 69.7462 37.2299C69.6974 37.12 69.6943 36.9952 69.7376 36.883Z" fill="white"/>
<path d="M86.4219 88.5036L42.5681 89.0146C40.1034 89.0446 37.9993 87.2412 37.6386 84.7765L34.0919 58.9872C33.7011 56.0717 35.9254 53.4567 38.9011 53.4266L89.2773 52.8255C92.2229 52.7954 94.5374 55.3503 94.2067 58.2959L91.2611 84.1753C90.9605 86.61 88.8866 88.4736 86.4219 88.5036Z" fill="white"/>
<path d="M86.1513 89.195L40.3137 89.736C39.1415 89.736 38.1496 88.8944 37.9692 87.7222L34.182 60.2196C33.7311 57.0035 36.2259 54.118 39.4721 54.0879L88.7062 53.5168C91.9524 53.4868 94.5073 56.3122 94.1466 59.5283L91.2911 84.5662C90.9905 87.1812 88.7663 89.1649 86.1513 89.195Z" fill="#E6E8EA"/>
<path opacity="0.5" d="M46.2944 95.4253C52.1556 95.4253 56.8747 94.3733 56.8747 93.0808C56.8747 91.7883 52.1256 90.7363 46.2944 90.7363C40.4332 90.7363 35.7142 91.7883 35.7142 93.0808C35.7142 94.3733 40.4332 95.4253 46.2944 95.4253Z" fill="#A3A8AF"/>
<path d="M72.3843 71.8905L68.8977 68.4039L72.3543 64.9473C73.0756 64.2259 73.0756 63.0236 72.3543 62.3022L72.1439 62.0918C71.4225 61.3704 70.2202 61.3704 69.4988 62.0918L66.0422 65.5484L62.5856 62.0918C61.8642 61.3704 60.6619 61.3704 59.9406 62.0918L59.7301 62.3022C59.0088 63.0236 59.0088 64.2259 59.7301 64.9473L63.1867 68.4039L59.7001 71.8605C58.9787 72.5819 58.9787 73.7841 59.7001 74.5055L59.9105 74.7159C60.6319 75.4373 61.8342 75.4373 62.5555 74.7159L66.0121 71.2593L69.4687 74.7159C70.1901 75.4373 71.3924 75.4373 72.1138 74.7159L72.3242 74.5055C73.1057 73.7841 73.1057 72.6119 72.3843 71.8905Z" fill="#A3A8AF"/>
<path d="M59.3995 77.3911L57.025 75.0166L47.6771 84.3344L50.0517 86.7089L59.3995 77.3911Z" fill="#1E5B89"/>
<path opacity="0.2" d="M58.9787 77.5116C58.2874 76.8203 57.7464 76.0989 57.2955 75.3174L57.025 75.0469L55.3117 76.7601C55.8527 77.6318 56.4839 78.5035 57.2654 79.2549C57.3256 79.315 57.3556 79.3451 57.4157 79.4052L59.129 77.6919C59.0689 77.6018 59.0388 77.5416 58.9787 77.5116Z" fill="black"/>
<path d="M41.7558 93.5015L40.9443 92.6899C40.1027 91.8483 40.1027 90.4957 40.9443 89.6241L51.0436 79.5248C51.8852 78.6832 53.2378 78.6832 54.1094 79.5248L54.921 80.3363C55.7626 81.1779 55.7626 82.5305 54.921 83.4022L44.8217 93.5015C43.95 94.313 42.5974 94.313 41.7558 93.5015Z" fill="#F95B03"/>
<path opacity="0.2" d="M55.2516 80.7277L54.0493 79.5254C54.7105 80.1867 54.7105 81.2086 54.0493 81.8098L43.2286 92.6304C42.5673 93.2917 41.5454 93.2917 40.9442 92.6304L42.1465 93.8327C42.8078 94.494 43.8297 94.494 44.4309 93.8327L55.2516 83.0121C55.9128 82.4109 55.9128 81.389 55.2516 80.7277Z" fill="white"/>
<path d="M75.0295 59.3866C70.07 54.4271 62.0146 54.4271 57.0551 59.3866C52.0957 64.3461 52.0957 72.4015 57.0551 77.3609C62.0146 82.2903 70.07 82.3204 75.0295 77.3609C79.989 72.4015 79.989 64.3461 75.0295 59.3866ZM58.7684 75.6477C54.7407 71.62 54.7407 65.1276 58.7684 61.1299C62.7961 57.1022 69.2885 57.1022 73.2862 61.1299C77.3138 65.1576 77.3138 71.65 73.2862 75.6477C69.2885 79.6754 62.7961 79.6754 58.7684 75.6477Z" fill="#1E5B89"/>
<path opacity="0.2" d="M73.8873 60.5587C69.559 56.2304 62.5556 56.2304 58.2273 60.5587C53.8991 64.887 53.8991 71.8904 58.2273 76.2186C62.5556 80.5469 69.559 80.5469 73.8873 76.2186C78.1855 71.8904 78.1855 64.887 73.8873 60.5587ZM58.7684 75.6475C54.7407 71.6198 54.7407 65.1274 58.7684 61.1298C62.7961 57.1021 69.2885 57.1021 73.2861 61.1298C77.3138 65.1575 77.3138 71.6499 73.2861 75.6475C69.2885 79.6752 62.7961 79.6752 58.7684 75.6475Z" fill="black"/>
<g clip-path="url(#clip0_50_25976)">
<path d="M33.0886 49.8327C33.2249 49.925 33.4102 49.8893 33.5025 49.7531L34.3942 48.4369C34.4865 48.3006 34.4508 48.1153 34.3145 48.0229L28.8853 44.345L28.0494 45.5789C27.9571 45.7152 27.7717 45.7508 27.6354 45.6585C27.4992 45.5662 27.4635 45.3808 27.5558 45.2445L28.3917 44.0106L26.2529 42.5617C26.1166 42.4694 25.9313 42.505 25.839 42.6413L24.9473 43.9575C24.855 44.0938 24.8907 44.2791 25.0269 44.3714C25.4352 44.648 25.5423 45.2051 25.2658 45.6134C24.9892 46.0216 24.4321 46.1287 24.0238 45.8522C23.8876 45.7598 23.7022 45.7955 23.6099 45.9318L22.7183 47.2479C22.6259 47.3842 22.6616 47.5696 22.7979 47.6619L24.9367 49.1108L25.7726 47.8769C25.8649 47.7406 26.0502 47.705 26.1865 47.7973C26.3228 47.8896 26.3584 48.075 26.2661 48.2112L25.4302 49.4452L30.8595 53.1231C30.9958 53.2154 31.1811 53.1798 31.2734 53.0435L32.1651 51.7273C32.2574 51.591 32.2217 51.4057 32.0855 51.3134C31.6772 51.0368 31.5701 50.4797 31.8467 50.0715C32.1232 49.6632 32.6803 49.5561 33.0886 49.8327ZM26.9349 47.2241C26.8425 47.3604 26.6572 47.396 26.5209 47.3037C26.3846 47.2114 26.349 47.026 26.4413 46.8898L26.8871 46.2317C26.9795 46.0954 27.1648 46.0597 27.3011 46.1521C27.4374 46.2444 27.473 46.4297 27.3807 46.566L26.9349 47.2241Z" fill="#D4E4FB"/>
</g>
<g clip-path="url(#clip1_50_25976)">
<path d="M98.161 35.8058C98.26 35.6743 98.2335 35.4874 98.1019 35.3885L96.8313 34.433C96.6998 34.334 96.5129 34.3605 96.414 34.4921L92.4726 39.7333L93.6638 40.629C93.7954 40.728 93.8218 40.9148 93.7229 41.0464C93.624 41.178 93.4371 41.2044 93.3055 41.1055L92.1143 40.2097L90.5617 42.2744C90.4627 42.406 90.4892 42.5929 90.6208 42.6918L91.8913 43.6473C92.0229 43.7463 92.2098 43.7198 92.3087 43.5882C92.6051 43.1941 93.1668 43.1146 93.5609 43.411C93.955 43.7073 94.0345 44.269 93.7381 44.6631C93.6392 44.7947 93.6657 44.9816 93.7972 45.0805L95.0678 46.036C95.1994 46.1349 95.3863 46.1085 95.4852 45.9769L97.0378 43.9122L95.8467 43.0165C95.7151 42.9175 95.6887 42.7306 95.7876 42.5991C95.8865 42.4675 96.0734 42.4411 96.205 42.54L97.3961 43.4357L101.337 38.1945C101.436 38.063 101.41 37.8761 101.278 37.7772L100.008 36.8217C99.8762 36.7228 99.6894 36.7492 99.5904 36.8808C99.2941 37.2749 98.7324 37.3544 98.3383 37.058C97.9442 36.7617 97.8647 36.1999 98.161 35.8058ZM95.252 41.8234C95.3836 41.9223 95.4101 42.1092 95.3111 42.2407C95.2122 42.3723 95.0253 42.3988 94.8937 42.2998L94.2584 41.8221C94.1269 41.7231 94.1004 41.5363 94.1994 41.4047C94.2983 41.2731 94.4852 41.2467 94.6167 41.3456L95.252 41.8234Z" fill="#D4E4FB"/>
</g>
<defs>
<clipPath id="clip0_50_25976">
<rect width="10.3334" height="10.3334" fill="white" transform="translate(27.1764 40.667) rotate(34.115)"/>
</clipPath>
<clipPath id="clip1_50_25976">
<rect width="10.3334" height="10.3334" fill="white" transform="translate(88.7149 41.2588) rotate(-53.0571)"/>
</clipPath>
</defs>
</svg>
