<svg width="80" height="81" viewBox="0 0 80 81" fill="none" xmlns="http://www.w3.org/2000/svg">
<circle cx="41.119" cy="42.2697" r="33.2303" fill="#CFE2FF"/>
<circle cx="41.119" cy="42.2697" r="33.2303" fill="#F3F8FF"/>
<path d="M66.1885 45.1375H56.0009C54.2837 45.1301 52.6188 45.7274 51.2979 46.8245L51.2932 46.8278C50.5441 46.6674 49.7803 46.5862 49.0143 46.5856H34.1521C33.3858 46.5862 32.6217 46.6674 31.8724 46.8278L31.8688 46.8245C30.5475 45.728 28.8828 45.1309 27.1658 45.1375H16.9782C13.1104 45.1375 9.94629 48.0754 9.94629 51.6633V60.5756H23.8989V69.1051H59.2677V60.5756H73.2204V51.6633C73.2204 48.0754 70.0562 45.1375 66.1885 45.1375Z" fill="#6193FF"/>
<path d="M41.5828 24.3135C42.8388 24.3136 44.0826 24.5611 45.2429 25.042C46.4033 25.5228 47.4576 26.2276 48.3456 27.1159C49.2335 28.0043 49.9378 29.0589 50.4181 30.2194C50.8985 31.38 51.1455 32.6238 51.1451 33.8799C51.1451 39.4795 48.1044 46.5858 41.5828 46.5858C34.8595 46.5858 32.0205 39.1589 32.0205 33.8799C32.0201 32.6238 32.2671 31.38 32.7474 30.2194C33.2278 29.0589 33.9321 28.0043 34.82 27.1159C35.708 26.2276 36.7623 25.5228 37.9226 25.042C39.083 24.5611 40.3267 24.3136 41.5828 24.3135Z" fill="#FFD886"/>
<path d="M61.0943 29.8683C62.8336 29.8687 64.5016 30.5599 65.7315 31.7897C66.9614 33.0196 67.6525 34.6875 67.653 36.4269C67.653 40.2658 65.5669 45.1375 61.0943 45.1375C56.4861 45.1375 54.54 40.0478 54.54 36.4269C54.5396 34.688 55.2298 33.0202 56.459 31.7903C57.6881 30.5603 59.3555 29.869 61.0943 29.8683Z" fill="#FFD886"/>
<path d="M22.0714 29.8683C20.3321 29.8687 18.6641 30.5599 17.4342 31.7897C16.2044 33.0196 15.5132 34.6875 15.5127 36.4269C15.5127 40.2658 17.5988 45.1375 22.0714 45.1375C26.6796 45.1375 28.6257 40.0478 28.6257 36.4269C28.6261 34.688 27.9359 33.0202 26.7067 31.7903C25.4776 30.5603 23.8102 29.869 22.0714 29.8683Z" fill="#FFD886"/>
<path d="M39.4638 30.9298C43.8453 34.3609 46.9887 34.9621 51.078 35.3405C51.1224 34.8464 51.1451 34.3574 51.1451 33.8799C51.1451 32.6242 50.8977 31.3807 50.4172 30.2206C49.9366 29.0604 49.2323 28.0063 48.3443 27.1184C47.4564 26.2304 46.4023 25.5261 45.2421 25.0455C44.082 24.565 42.8385 24.3176 41.5828 24.3176C40.3271 24.3176 39.0836 24.565 37.9235 25.0455C36.7633 25.5261 35.7092 26.2304 34.8212 27.1184C33.9333 28.0063 33.2289 29.0604 32.7484 30.2206C32.2678 31.3807 32.0205 32.6242 32.0205 33.8799C32.0205 34.3681 32.0449 34.8746 32.0943 35.3918L39.4638 30.9298Z" fill="#19416C"/>
<path d="M20.6012 34.18C23.7173 36.4786 25.9528 36.8813 28.8611 37.1349C28.8927 36.8038 28.9089 36.4762 28.9089 36.1564C28.9089 35.3151 28.733 34.4821 28.3912 33.7049C28.0494 32.9277 27.5485 32.2215 26.917 31.6266C26.2855 31.0318 25.5358 30.5599 24.7107 30.238C23.8856 29.9161 23.0013 29.7504 22.1082 29.7504C21.2152 29.7504 20.3308 29.9161 19.5058 30.238C18.6807 30.5599 17.931 31.0318 17.2995 31.6266C16.668 32.2215 16.167 32.9277 15.8253 33.7049C15.4835 34.4821 15.3076 35.3151 15.3076 36.1564C15.3076 36.4834 15.3249 36.8227 15.3601 37.1692L20.6012 34.18Z" fill="#19416C"/>
<path d="M59.7387 34.18C62.784 36.4786 64.9687 36.8813 67.8109 37.1349C67.8418 36.8038 67.8575 36.4762 67.8575 36.1564C67.8575 35.3151 67.6856 34.4821 67.3516 33.7049C67.0177 32.9277 66.5281 32.2215 65.911 31.6266C65.2938 31.0318 64.5612 30.5599 63.7548 30.238C62.9485 29.9161 62.0843 29.7504 61.2115 29.7504C60.3387 29.7504 59.4745 29.9161 58.6682 30.238C57.8618 30.5599 57.1292 31.0318 56.512 31.6266C55.8949 32.2215 55.4053 32.9277 55.0713 33.7049C54.7373 34.4821 54.5654 35.3151 54.5654 36.1564C54.5654 36.4834 54.5824 36.8227 54.6167 37.1692L59.7387 34.18Z" fill="#19416C"/>
<path d="M33.2492 69.1051V60.7855C33.2492 60.4825 33.1288 60.192 32.9146 59.9778C32.7004 59.7636 32.4099 59.6433 32.107 59.6433C31.8041 59.6433 31.5136 59.7636 31.2994 59.9778C31.0852 60.192 30.9648 60.4825 30.9648 60.7855V69.1051H33.2492Z" fill="#518BF2"/>
<path d="M52.2003 69.1051V60.7855C52.2003 60.4825 52.08 60.192 51.8658 59.9778C51.6516 59.7636 51.3611 59.6433 51.0582 59.6433C50.7553 59.6433 50.4647 59.7636 50.2505 59.9778C50.0363 60.192 49.916 60.4825 49.916 60.7855V69.1051H52.2003Z" fill="#518BF2"/>
<path d="M48.5155 10.8511C48.5533 10.9669 48.5586 11.0908 48.5308 11.2095C48.5031 11.3281 48.4434 11.4369 48.3582 11.5242L45.3463 14.6096L45.9625 18.8693C45.98 18.9899 45.9641 19.113 45.9165 19.2252C45.869 19.3375 45.7915 19.4346 45.6926 19.5062C45.5937 19.5778 45.477 19.6212 45.3551 19.6315C45.2333 19.6419 45.1109 19.6189 45.0013 19.5651L41.1269 17.6643L37.2496 19.5652C37.1399 19.619 37.0175 19.6419 36.8957 19.6315C36.7739 19.6211 36.6572 19.5777 36.5583 19.506C36.4594 19.4344 36.382 19.3372 36.3345 19.2249C36.287 19.1126 36.2711 18.9895 36.2886 18.869L36.9074 14.6094L33.8957 11.5241C33.8106 11.4368 33.751 11.328 33.7233 11.2095C33.6956 11.0909 33.7009 10.967 33.7387 10.8513C33.7764 10.7355 33.8451 10.6322 33.9374 10.5524C34.0297 10.4727 34.1421 10.4195 34.2625 10.3987L38.5172 9.66435L40.5334 5.85698C40.5904 5.74931 40.6758 5.65917 40.7803 5.59627C40.8849 5.53336 41.0047 5.50008 41.1269 5.5C41.2491 5.50013 41.3689 5.53346 41.4735 5.59642C41.578 5.65937 41.6634 5.74956 41.7203 5.85727L43.7334 9.66416L47.9907 10.3985C48.1113 10.4192 48.2239 10.4723 48.3163 10.552C48.4088 10.6318 48.4777 10.7352 48.5155 10.8511ZM30.5804 12.6596L27.6356 12.1511L26.2389 9.51681C26.1819 9.40922 26.0965 9.31917 25.992 9.25633C25.8874 9.1935 25.7676 9.16027 25.6455 9.16021C25.5233 9.16032 25.4035 9.19363 25.299 9.25655C25.1944 9.31947 25.109 9.40962 25.052 9.51729L23.6573 12.1511L20.7103 12.6596C20.5898 12.6804 20.4773 12.7335 20.385 12.8133C20.2926 12.8931 20.2238 12.9965 20.1861 13.1124C20.1484 13.2283 20.1431 13.3522 20.1709 13.4709C20.1987 13.5895 20.2584 13.6983 20.3437 13.7856L22.4295 15.9209L22.0038 18.8695C21.9864 18.9901 22.0024 19.1132 22.05 19.2254C22.0976 19.3377 22.1751 19.4348 22.2741 19.5064C22.373 19.5779 22.4897 19.6212 22.6116 19.6316C22.7334 19.6419 22.8558 19.6189 22.9655 19.565L25.6456 18.2488L28.3285 19.5656C28.4381 19.6194 28.5605 19.6423 28.6823 19.632C28.8041 19.6216 28.9208 19.5783 29.0197 19.5067C29.1186 19.4351 29.1961 19.338 29.2437 19.2258C29.2913 19.1136 29.3073 18.9906 29.2899 18.87L28.8642 15.9211L30.9473 13.7853C31.0324 13.698 31.092 13.5892 31.1196 13.4706C31.1473 13.3521 31.1419 13.2282 31.1042 13.1125C31.0665 12.9967 30.9977 12.8934 30.9055 12.8136C30.8132 12.7339 30.7008 12.6807 30.5804 12.6599V12.6596ZM62.0679 13.1124C62.0302 12.9965 61.9614 12.893 61.8689 12.8133C61.7765 12.7335 61.664 12.6804 61.5435 12.6596L58.596 12.151L57.1994 9.51681C57.1424 9.40924 57.057 9.31919 56.9524 9.25636C56.8479 9.19353 56.7281 9.16029 56.606 9.16021C56.4838 9.16033 56.364 9.19364 56.2594 9.25656C56.1549 9.31948 56.0695 9.40962 56.0125 9.51729L54.6179 12.1511L51.6707 12.6596C51.5502 12.6804 51.4377 12.7336 51.3454 12.8134C51.253 12.8932 51.1842 12.9966 51.1465 13.1124C51.1088 13.2283 51.1035 13.3522 51.1313 13.4708C51.159 13.5895 51.2187 13.6983 51.304 13.7856L53.3898 15.9209L52.9642 18.8695C52.9468 18.9901 52.9627 19.1132 53.0103 19.2254C53.0579 19.3377 53.1354 19.4348 53.2344 19.5064C53.3333 19.578 53.45 19.6213 53.5719 19.6316C53.6937 19.6419 53.8161 19.6189 53.9258 19.565L56.6059 18.2488L59.2887 19.5656C59.3983 19.6194 59.5207 19.6424 59.6425 19.632C59.7644 19.6217 59.881 19.5784 59.98 19.5068C60.0789 19.4352 60.1564 19.3381 60.204 19.2259C60.2515 19.1136 60.2675 18.9906 60.25 18.87L59.8245 15.9214L61.9103 13.7861C61.9956 13.6987 62.0554 13.5898 62.0832 13.4711C62.111 13.3524 62.1057 13.2283 62.0679 13.1124Z" fill="#FFA833"/>
<path d="M23.898 60.5756H9.94531V51.6633C9.94531 48.0754 13.1095 45.1375 16.9772 45.1375H27.1649C28.8819 45.1309 30.5466 45.728 31.8678 46.8245L31.8714 46.8278C27.3193 47.7977 23.8978 51.6002 23.8978 56.1071L23.898 60.5756ZM66.1874 45.1375H55.9997C54.2826 45.1301 52.6177 45.7274 51.2968 46.8245L51.2921 46.8278C55.8423 47.7978 59.2668 51.6002 59.2668 56.1071V60.5756H73.2199V51.6633C73.2199 48.0754 70.0557 45.1375 66.188 45.1375H66.1874Z" fill="#5072F1"/>
<path opacity="0.9" d="M10.2177 29.7945L12.2166 30.8323L10.2177 31.87L9.12537 33.7689L8.03302 31.87L6.03418 30.8323L8.03302 29.7945L9.12537 27.8956L10.2177 29.7945Z" fill="url(#paint0_linear_1_12972)"/>
<path opacity="0.9" d="M65.8165 63.1898L68.0277 64.3176L65.8165 65.4455L64.6081 67.5093L63.3997 65.4455L61.1885 64.3176L63.3997 63.1898L64.6081 61.126L65.8165 63.1898Z" fill="url(#paint1_linear_1_12972)"/>
<path opacity="0.9" d="M15.0286 16.2215L15.9256 16.7674L15.0286 17.3163L14.5346 18.313L14.0433 17.3163L13.1436 16.7674L14.0433 16.2215L14.5346 15.2218L15.0286 16.2215Z" fill="#FF9F1C"/>
<defs>
<linearGradient id="paint0_linear_1_12972" x1="6.03418" y1="30.8323" x2="12.2166" y2="30.8323" gradientUnits="userSpaceOnUse">
<stop stop-color="#5278FF"/>
<stop offset="1" stop-color="#30B8FC"/>
</linearGradient>
<linearGradient id="paint1_linear_1_12972" x1="61.1885" y1="64.3176" x2="68.0277" y2="64.3176" gradientUnits="userSpaceOnUse">
<stop stop-color="#5278FF"/>
<stop offset="1" stop-color="#30B8FC"/>
</linearGradient>
</defs>
</svg>
