<svg width="80" height="80" viewBox="0 0 80 80" fill="none" xmlns="http://www.w3.org/2000/svg">
<circle cx="41.119" cy="41.7696" r="33.2303" fill="#CFE2FF"/>
<circle cx="41.119" cy="41.7696" r="33.2303" fill="#F3F8FF"/>
<path d="M66.188 44.6375H56.0004C54.2832 44.6301 52.6183 45.2274 51.2974 46.3245L51.2927 46.3278C50.5436 46.1674 49.7798 46.0862 49.0138 46.0856H34.1516C33.3853 46.0862 32.6212 46.1674 31.8719 46.3278L31.8683 46.3245C30.5471 45.228 28.8823 44.6309 27.1653 44.6375H16.9777C13.11 44.6375 9.9458 47.5754 9.9458 51.1633V60.0756H23.8985V68.6051H59.2673V60.0756H73.2199V51.1633C73.2199 47.5754 70.0558 44.6375 66.188 44.6375Z" fill="#6193FF"/>
<path d="M41.5825 23.8135C42.8386 23.8136 44.0823 24.0611 45.2427 24.542C46.4031 25.0228 47.4573 25.7276 48.3453 26.6159C49.2333 27.5043 49.9375 28.5589 50.4179 29.7194C50.8982 30.88 51.1453 32.1238 51.1448 33.3799C51.1448 38.9795 48.1042 46.0858 41.5825 46.0858C34.8593 46.0858 32.0203 38.6589 32.0203 33.3799C32.0198 32.1238 32.2668 30.88 32.7472 29.7194C33.2275 28.5589 33.9318 27.5043 34.8198 26.6159C35.7078 25.7276 36.762 25.0228 37.9224 24.542C39.0828 24.0611 40.3265 23.8136 41.5825 23.8135Z" fill="#FFD886"/>
<path d="M61.0943 29.3682C62.8336 29.3686 64.5016 30.0597 65.7315 31.2896C66.9614 32.5195 67.6525 34.1874 67.653 35.9267C67.653 39.7657 65.5669 44.6374 61.0943 44.6374C56.4861 44.6374 54.54 39.5477 54.54 35.9267C54.5396 34.1879 55.2298 32.5201 56.459 31.2901C57.6881 30.0602 59.3555 29.3688 61.0943 29.3682Z" fill="#FFD886"/>
<path d="M22.0712 29.3682C20.3318 29.3686 18.6639 30.0597 17.434 31.2896C16.2041 32.5195 15.5129 34.1874 15.5125 35.9267C15.5125 39.7657 17.5986 44.6374 22.0712 44.6374C26.6794 44.6374 28.6254 39.5477 28.6254 35.9267C28.6259 34.1879 27.9356 32.5201 26.7065 31.2901C25.4774 30.0602 23.81 29.3688 22.0712 29.3682Z" fill="#FFD886"/>
<path d="M39.4635 30.4298C43.8451 33.8609 46.9884 34.4621 51.0777 34.8405C51.1222 34.3464 51.1448 33.8574 51.1448 33.3799C51.1448 32.1242 50.8975 30.8807 50.4169 29.7206C49.9364 28.5604 49.232 27.5063 48.3441 26.6184C47.4562 25.7304 46.402 25.0261 45.2419 24.5455C44.0817 24.065 42.8383 23.8176 41.5825 23.8176C40.3268 23.8176 39.0834 24.065 37.9232 24.5455C36.7631 25.0261 35.7089 25.7304 34.821 26.6184C33.933 27.5063 33.2287 28.5604 32.7481 29.7206C32.2676 30.8807 32.0203 32.1242 32.0203 33.3799C32.0203 33.8681 32.0446 34.3746 32.0941 34.8918L39.4635 30.4298Z" fill="#19416C"/>
<path d="M20.6012 33.6801C23.7173 35.9787 25.9528 36.3815 28.8611 36.635C28.8927 36.3039 28.9089 35.9763 28.9089 35.6565C28.9089 34.8152 28.733 33.9822 28.3912 33.205C28.0494 32.4278 27.5485 31.7216 26.917 31.1268C26.2855 30.5319 25.5358 30.06 24.7107 29.7381C23.8856 29.4162 23.0013 29.2505 22.1082 29.2505C21.2152 29.2505 20.3308 29.4162 19.5058 29.7381C18.6807 30.06 17.931 30.5319 17.2995 31.1268C16.668 31.7216 16.167 32.4278 15.8253 33.205C15.4835 33.9822 15.3076 34.8152 15.3076 35.6565C15.3076 35.9835 15.3249 36.3228 15.3601 36.6693L20.6012 33.6801Z" fill="#19416C"/>
<path d="M59.7389 33.6801C62.7842 35.9787 64.969 36.3815 67.8112 36.635C67.842 36.3039 67.8578 35.9763 67.8578 35.6565C67.8578 34.8152 67.6859 33.9822 67.3519 33.205C67.0179 32.4278 66.5284 31.7216 65.9112 31.1268C65.2941 30.5319 64.5614 30.06 63.7551 29.7381C62.9487 29.4162 62.0845 29.2505 61.2117 29.2505C60.339 29.2505 59.4747 29.4162 58.6684 29.7381C57.8621 30.06 57.1294 30.5319 56.5123 31.1268C55.8951 31.7216 55.4056 32.4278 55.0716 33.205C54.7376 33.9822 54.5657 34.8152 54.5657 35.6565C54.5657 35.9835 54.5826 36.3228 54.617 36.6693L59.7389 33.6801Z" fill="#19416C"/>
<path d="M33.2489 68.6051V60.2855C33.2489 59.9825 33.1286 59.692 32.9144 59.4778C32.7002 59.2636 32.4097 59.1433 32.1068 59.1433C31.8038 59.1433 31.5133 59.2636 31.2991 59.4778C31.0849 59.692 30.9646 59.9825 30.9646 60.2855V68.6051H33.2489Z" fill="#518BF2"/>
<path d="M52.2006 68.6051V60.2855C52.2006 59.9825 52.0802 59.692 51.866 59.4778C51.6518 59.2636 51.3613 59.1433 51.0584 59.1433C50.7555 59.1433 50.465 59.2636 50.2508 59.4778C50.0366 59.692 49.9163 59.9825 49.9163 60.2855V68.6051H52.2006Z" fill="#518BF2"/>
<path d="M48.5153 10.3511C48.553 10.4669 48.5583 10.5908 48.5306 10.7095C48.5029 10.8281 48.4432 10.9369 48.3579 11.0242L45.3461 14.1096L45.9623 18.3693C45.9798 18.4899 45.9639 18.613 45.9163 18.7252C45.8687 18.8375 45.7913 18.9346 45.6923 19.0062C45.5934 19.0778 45.4767 19.1212 45.3549 19.1315C45.2331 19.1419 45.1107 19.1189 45.001 19.0651L41.1266 17.1643L37.2494 19.0652C37.1397 19.119 37.0173 19.1419 36.8955 19.1315C36.7736 19.1211 36.657 19.0777 36.5581 19.006C36.4591 18.9344 36.3818 18.8372 36.3342 18.7249C36.2867 18.6126 36.2709 18.4895 36.2884 18.369L36.9071 14.1094L33.8955 11.0241C33.8103 10.9368 33.7507 10.828 33.723 10.7095C33.6954 10.5909 33.7007 10.467 33.7384 10.3513C33.7762 10.2355 33.8449 10.1322 33.9372 10.0524C34.0295 9.97267 34.1419 9.91953 34.2622 9.89872L38.517 9.16435L40.5332 5.35698C40.5902 5.24931 40.6755 5.15917 40.7801 5.09627C40.8847 5.03336 41.0045 5.00008 41.1266 5C41.2488 5.00013 41.3687 5.03346 41.4732 5.09642C41.5778 5.15937 41.6632 5.24956 41.7201 5.35727L43.7331 9.16416L47.9905 9.89853C48.111 9.91919 48.2236 9.97226 48.3161 10.052C48.4086 10.1318 48.4775 10.2352 48.5153 10.3511ZM30.5802 12.1596L27.6353 11.6511L26.2387 9.01681C26.1817 8.90922 26.0963 8.81917 25.9917 8.75633C25.8872 8.6935 25.7674 8.66027 25.6453 8.66021C25.5231 8.66032 25.4033 8.69363 25.2987 8.75655C25.1941 8.81947 25.1088 8.90962 25.0518 9.01729L23.657 11.6511L20.71 12.1596C20.5896 12.1804 20.4771 12.2335 20.3847 12.3133C20.2923 12.3931 20.2236 12.4965 20.1858 12.6124C20.1481 12.7283 20.1429 12.8522 20.1706 12.9709C20.1984 13.0895 20.2582 13.1983 20.3434 13.2856L22.4292 15.4209L22.0036 18.3695C21.9862 18.4901 22.0021 18.6132 22.0498 18.7254C22.0974 18.8377 22.1749 18.9348 22.2738 19.0064C22.3728 19.0779 22.4895 19.1212 22.6114 19.1316C22.7332 19.1419 22.8556 19.1189 22.9653 19.065L25.6454 17.7488L28.3282 19.0656C28.4379 19.1194 28.5602 19.1423 28.6821 19.132C28.8039 19.1216 28.9205 19.0783 29.0195 19.0067C29.1184 18.9351 29.1958 18.838 29.2434 18.7258C29.2911 18.6136 29.307 18.4906 29.2896 18.37L28.864 15.4211L30.9471 13.2853C31.0322 13.198 31.0917 13.0892 31.1194 12.9706C31.147 12.8521 31.1417 12.7282 31.104 12.6125C31.0662 12.4967 30.9975 12.3934 30.9052 12.3136C30.8129 12.2339 30.7005 12.1807 30.5802 12.1599V12.1596ZM62.0677 12.6124C62.0299 12.4965 61.9611 12.393 61.8687 12.3133C61.7763 12.2335 61.6637 12.1804 61.5432 12.1596L58.5957 11.651L57.1992 9.01681C57.1421 8.90924 57.0567 8.81919 56.9522 8.75636C56.8476 8.69353 56.7278 8.66029 56.6057 8.66021C56.4836 8.66033 56.3638 8.69364 56.2592 8.75656C56.1546 8.81948 56.0693 8.90962 56.0123 9.01729L54.6177 11.6511L51.6704 12.1596C51.55 12.1804 51.4375 12.2336 51.3451 12.3134C51.2528 12.3932 51.184 12.4966 51.1463 12.6124C51.1085 12.7283 51.1033 12.8522 51.131 12.9708C51.1588 13.0895 51.2185 13.1983 51.3037 13.2856L53.3895 15.4209L52.964 18.3695C52.9465 18.4901 52.9625 18.6132 53.0101 18.7254C53.0577 18.8377 53.1352 18.9348 53.2341 19.0064C53.3331 19.078 53.4498 19.1213 53.5716 19.1316C53.6935 19.1419 53.8159 19.1189 53.9255 19.065L56.6056 17.7488L59.2884 19.0656C59.3981 19.1194 59.5205 19.1424 59.6423 19.132C59.7641 19.1217 59.8808 19.0784 59.9797 19.0068C60.0787 18.9352 60.1561 18.8381 60.2037 18.7259C60.2513 18.6136 60.2672 18.4906 60.2498 18.37L59.8242 15.4214L61.91 13.2861C61.9954 13.1987 62.0552 13.0898 62.083 12.9711C62.1108 12.8524 62.1055 12.7283 62.0677 12.6124Z" fill="#FFA833"/>
<path d="M23.898 60.0756H9.94531V51.1633C9.94531 47.5754 13.1095 44.6375 16.9772 44.6375H27.1649C28.8819 44.6309 30.5466 45.228 31.8678 46.3245L31.8714 46.3278C27.3193 47.2977 23.8978 51.1002 23.8978 55.6071L23.898 60.0756ZM66.1874 44.6375H55.9997C54.2826 44.6301 52.6177 45.2274 51.2968 46.3245L51.2921 46.3278C55.8423 47.2978 59.2668 51.1002 59.2668 55.6071V60.0756H73.2199V51.1633C73.2199 47.5754 70.0557 44.6375 66.188 44.6375H66.1874Z" fill="#5072F1"/>
<path opacity="0.9" d="M10.2177 29.2946L12.2166 30.3324L10.2177 31.3701L9.12537 33.269L8.03302 31.3701L6.03418 30.3324L8.03302 29.2946L9.12537 27.3958L10.2177 29.2946Z" fill="url(#paint0_linear_1071_20266)"/>
<path opacity="0.9" d="M65.8168 62.6898L68.028 63.8176L65.8168 64.9455L64.6084 67.0093L63.3999 64.9455L61.1887 63.8176L63.3999 62.6898L64.6084 60.626L65.8168 62.6898Z" fill="url(#paint1_linear_1071_20266)"/>
<path opacity="0.9" d="M15.0289 15.7214L15.9259 16.2673L15.0289 16.8162L14.5348 17.8129L14.0436 16.8162L13.1438 16.2673L14.0436 15.7214L14.5348 14.7217L15.0289 15.7214Z" fill="#FF9F1C"/>
<defs>
<linearGradient id="paint0_linear_1071_20266" x1="6.03418" y1="30.3324" x2="12.2166" y2="30.3324" gradientUnits="userSpaceOnUse">
<stop stop-color="#5278FF"/>
<stop offset="1" stop-color="#30B8FC"/>
</linearGradient>
<linearGradient id="paint1_linear_1071_20266" x1="61.1887" y1="63.8176" x2="68.028" y2="63.8176" gradientUnits="userSpaceOnUse">
<stop stop-color="#5278FF"/>
<stop offset="1" stop-color="#30B8FC"/>
</linearGradient>
</defs>
</svg>
