<svg width="80" height="81" viewBox="0 0 80 81" fill="none" xmlns="http://www.w3.org/2000/svg">
<ellipse cx="38.9428" cy="39.4428" rx="33.9428" ry="33.9428" fill="#CFE2FF"/>
<ellipse cx="38.9428" cy="39.4428" rx="33.9428" ry="33.9428" fill="#F3F8FF"/>
<g clip-path="url(#clip0_9613_21536)">
<path d="M64.0682 16.4639H26.5344C24.5991 16.4639 23.0156 18.0464 23.0156 19.9807V30.5313H67.587V19.9807C67.587 18.0464 66.0036 16.4639 64.0682 16.4639Z" fill="#FD9D1A"/>
<path d="M23.0156 29.359H67.587V59.8386H23.0156V29.359Z" fill="#FECB6F"/>
<path d="M74.0382 52.7462C72.5721 50.5423 69.8391 49.6748 67.376 50.6361C61.8984 52.7814 51.3303 56.8961 49.7585 57.494L38.7564 57.6933L42.0641 56.1576C43.6476 55.419 44.844 54.0943 45.4187 52.4414C45.9934 50.7885 45.8761 49.0066 45.102 47.4475C43.542 44.3409 39.8473 43.0279 36.6804 44.4698L31.6367 46.7558C29.5724 47.6936 27.3907 48.3853 25.1622 48.819L15.7553 50.6361C15.204 50.7416 14.8052 51.2222 14.8052 51.7849V71.5614C14.8052 72.2062 15.333 72.7337 15.9781 72.7337H40.5628C44.8791 72.7337 49.09 71.8662 53.0545 70.143C53.0779 70.1313 53.0897 70.1313 53.1131 70.1195L71.9856 60.7412C74.9179 59.3345 75.9384 55.4542 74.0382 52.7462Z" fill="#FFDBCF"/>
<path d="M8.94067 46.9434H13.6324C15.5795 46.9434 17.1512 48.5142 17.1512 50.4602V71.5614C17.1512 73.5074 15.5795 75.0783 13.6324 75.0783H8.94067C6.9936 75.0783 5.42188 73.5074 5.42188 71.5614V50.4602C5.42188 48.5142 6.9936 46.9434 8.94067 46.9434Z" fill="#5072F1"/>
<path opacity="0.9" d="M17.2925 36.0834L19.3375 37.1265L17.2925 38.1696L16.1749 40.0783L15.0573 38.1696L13.0122 37.1265L15.0573 36.0834L16.1749 34.1747L17.2925 36.0834Z" fill="url(#paint0_linear_9613_21536)"/>
<path opacity="0.9" d="M66.9531 65.9851L70.3615 67.6988L66.9531 69.4125L65.0904 72.5482L63.2277 69.4125L59.8193 67.6988L63.2277 65.9851L65.0904 62.8494L66.9531 65.9851Z" fill="url(#paint1_linear_9613_21536)"/>
<path opacity="0.9" d="M12.0606 19.5269L13.0124 20.0482L12.0606 20.5724L11.5365 21.5241L11.0152 20.5724L10.0605 20.0482L11.0152 19.5269L11.5365 18.5723L12.0606 19.5269Z" fill="#FF9F1C"/>
<rect x="37.8916" y="16.4639" width="13.494" height="19.8193" fill="#F7E8D5"/>
</g>
<defs>
<linearGradient id="paint0_linear_9613_21536" x1="13.0122" y1="37.1265" x2="19.3375" y2="37.1265" gradientUnits="userSpaceOnUse">
<stop stop-color="#5278FF"/>
<stop offset="1" stop-color="#30B8FC"/>
</linearGradient>
<linearGradient id="paint1_linear_9613_21536" x1="59.8193" y1="67.6988" x2="70.3615" y2="67.6988" gradientUnits="userSpaceOnUse">
<stop stop-color="#5278FF"/>
<stop offset="1" stop-color="#30B8FC"/>
</linearGradient>
<clipPath id="clip0_9613_21536">
<rect width="69.5783" height="58.6145" fill="white" transform="translate(5.42188 16.4639)"/>
</clipPath>
</defs>
</svg>
