<svg width="120" height="120" viewBox="0 0 120 120" fill="none" xmlns="http://www.w3.org/2000/svg">
<path d="M60.004 120.003C93.142 120.003 120.006 93.1395 120.006 60.0016C120.006 26.8636 93.142 0 60.004 0C26.8661 0 0.00244141 26.8636 0.00244141 60.0016C0.00244141 93.1395 26.8661 120.003 60.004 120.003Z" fill="url(#paint0_linear_9121_84011)"/>
<path d="M46.4032 26.9895L28.4336 44.2917V111.063H91.8518V35.9457C91.8518 33.5709 90.9086 31.2934 89.2297 29.6138C87.5508 27.9343 85.2735 26.9903 82.8987 26.9895H46.4032Z" fill="#E0E9F3"/>
<path d="M44.8791 26.9895L26.9062 44.2917V111.063H90.3308V35.9457C90.3308 34.7688 90.0988 33.6034 89.6481 32.5161C89.1974 31.4289 88.5369 30.4411 87.7042 29.6094C86.8715 28.7776 85.8831 28.1181 84.7953 27.6685C83.7076 27.219 82.542 26.9883 81.365 26.9895H44.8791Z" fill="url(#paint1_linear_9121_84011)"/>
<path d="M28.4636 44.2917H44.8791V27.1293V26.9895L26.9062 44.2917H28.4636Z" fill="white"/>
<path d="M75.5037 36.4522H74.2751V36.0751C74.2751 35.8992 74.2593 35.7871 74.2279 35.7389C74.1965 35.6907 74.1441 35.6666 74.0708 35.6666C73.9912 35.6666 73.9305 35.6991 73.8886 35.764C73.8488 35.829 73.8289 35.9274 73.8289 36.0594C73.8289 36.2291 73.8519 36.3569 73.898 36.4428C73.942 36.5287 74.0666 36.6324 74.2719 36.7539C74.8606 37.1037 75.2314 37.3907 75.3843 37.6148C75.5372 37.839 75.6137 38.2003 75.6137 38.6989C75.6137 39.0613 75.5707 39.3284 75.4848 39.5002C75.401 39.672 75.2376 39.8165 74.9946 39.9338C74.7516 40.049 74.4688 40.1066 74.1462 40.1066C73.7922 40.1066 73.4895 40.0396 73.2381 39.9055C72.9888 39.7715 72.8254 39.6007 72.7479 39.3933C72.6704 39.186 72.6317 38.8916 72.6317 38.5104V38.1773H73.8603V38.7963C73.8603 38.9869 73.877 39.1095 73.9106 39.164C73.9462 39.2184 74.008 39.2457 74.096 39.2457C74.1839 39.2457 74.2489 39.2111 74.2908 39.142C74.3348 39.0728 74.3568 38.9702 74.3568 38.834C74.3568 38.5345 74.3159 38.3386 74.2342 38.2464C74.1504 38.1543 73.9441 38.0003 73.6152 37.7845C73.2863 37.5667 73.0684 37.4085 72.9616 37.31C72.8548 37.2116 72.7657 37.0754 72.6945 36.9015C72.6254 36.7277 72.5908 36.5056 72.5908 36.2354C72.5908 35.8457 72.64 35.5609 72.7385 35.3807C72.8391 35.2005 73.0004 35.0602 73.2224 34.9596C73.4445 34.857 73.7126 34.8057 74.0268 34.8057C74.3704 34.8057 74.6626 34.8612 74.9035 34.9722C75.1465 35.0832 75.3068 35.2236 75.3843 35.3933C75.4639 35.5609 75.5037 35.8468 75.5037 36.2511V36.4522Z" fill="#699AE2"/>
<path d="M72.3992 34.9126V35.9307H71.6136V39.9999H70.2907V35.9307H69.5083V34.9126H72.3992Z" fill="#699AE2"/>
<path d="M66.5044 34.9126H67.8367C68.197 34.9126 68.4735 34.9409 68.6663 34.9974C68.8611 35.054 69.0067 35.1357 69.103 35.2425C69.2015 35.3494 69.2675 35.4792 69.301 35.6322C69.3366 35.783 69.3544 36.0176 69.3544 36.336V36.7791C69.3544 37.1038 69.3209 37.3405 69.2539 37.4892C69.1868 37.638 69.0632 37.7521 68.8831 37.8317C68.705 37.9113 68.4714 37.9511 68.1824 37.9511H67.8273V39.9999H66.5044V34.9126ZM67.8273 35.783V37.0776C67.865 37.0797 67.8975 37.0807 67.9247 37.0807C68.0462 37.0807 68.13 37.0514 68.1761 36.9928C68.2243 36.932 68.2483 36.8074 68.2483 36.6188V36.2009C68.2483 36.027 68.2211 35.9139 68.1666 35.8616C68.1122 35.8092 67.9991 35.783 67.8273 35.783Z" fill="#699AE2"/>
<path d="M65.9733 34.9126V39.9999H64.6504V34.9126H65.9733Z" fill="#699AE2"/>
<path d="M61.9731 34.9126H64.179V35.9307H63.296V36.8954H64.1224V37.8632H63.296V38.9818H64.267V39.9999H61.9731V34.9126Z" fill="#699AE2"/>
<path d="M61.4986 37.1309H60.1757V36.2448C60.1757 35.9871 60.1611 35.8269 60.1317 35.764C60.1045 35.6991 60.0427 35.6666 59.9463 35.6666C59.8374 35.6666 59.7683 35.7054 59.7389 35.7829C59.7096 35.8604 59.695 36.028 59.695 36.2857V38.6486C59.695 38.8958 59.7096 39.0571 59.7389 39.1325C59.7683 39.208 59.8343 39.2457 59.9369 39.2457C60.0354 39.2457 60.0993 39.208 60.1286 39.1325C60.16 39.0571 60.1757 38.8801 60.1757 38.6015V37.9636H61.4986V38.1616C61.4986 38.6874 61.4609 39.0603 61.3855 39.2802C61.3122 39.5002 61.1477 39.6929 60.8922 39.8584C60.6387 40.0239 60.3255 40.1066 59.9526 40.1066C59.5651 40.1066 59.2456 40.0365 58.9942 39.8961C58.7429 39.7557 58.5763 39.562 58.4946 39.3148C58.4129 39.0655 58.3721 38.6916 58.3721 38.193V36.7067C58.3721 36.3401 58.3846 36.0657 58.4098 35.8835C58.4349 35.6991 58.5093 35.5221 58.6329 35.3524C58.7586 35.1827 58.9314 35.0497 59.1513 34.9533C59.3734 34.8549 59.6279 34.8057 59.9149 34.8057C60.3046 34.8057 60.6261 34.8811 60.8796 35.0319C61.1331 35.1827 61.2996 35.3713 61.3792 35.5975C61.4588 35.8217 61.4986 36.1715 61.4986 36.647V37.1309Z" fill="#699AE2"/>
<path d="M55.7329 34.9126H57.9388V35.9307H57.0558V36.8954H57.8822V37.8632H57.0558V38.9818H58.0267V39.9999H55.7329V34.9126Z" fill="#699AE2"/>
<path d="M52.2637 34.9126H53.2001C53.8243 34.9126 54.2464 34.9367 54.4664 34.9849C54.6884 35.0331 54.8686 35.1566 55.0069 35.3557C55.1472 35.5526 55.2174 35.8678 55.2174 36.3015C55.2174 36.6974 55.1682 36.9634 55.0697 37.0996C54.9712 37.2358 54.7775 37.3175 54.4884 37.3447C54.7502 37.4096 54.9262 37.4966 55.0163 37.6055C55.1064 37.7144 55.1619 37.815 55.1828 37.9072C55.2059 37.9972 55.2174 38.2476 55.2174 38.6582V39.9999H53.9888V38.3094C53.9888 38.037 53.9668 37.8684 53.9228 37.8035C53.8809 37.7385 53.7688 37.7061 53.5866 37.7061V39.9999H52.2637V34.9126ZM53.5866 35.783V36.9142C53.7353 36.9142 53.839 36.8943 53.8976 36.8545C53.9584 36.8126 53.9888 36.6796 53.9888 36.4554V36.1758C53.9888 36.0145 53.9594 35.9087 53.9008 35.8584C53.8442 35.8081 53.7395 35.783 53.5866 35.783Z" fill="#699AE2"/>
<path d="M33.7119 50.6609H53.8237" stroke="#D8DFEF" stroke-width="1.99415" stroke-linecap="round" stroke-linejoin="round"/>
<path d="M33.7119 54.4207H42.5346" stroke="#D8DFEF" stroke-width="1.99415" stroke-linecap="round" stroke-linejoin="round"/>
<path d="M33.7119 59.3882H52.6827" stroke="#D8DFEF" stroke-width="1.99415" stroke-linecap="round" stroke-linejoin="round"/>
<path d="M33.7119 63.1479H42.5346" stroke="#D8DFEF" stroke-width="1.99415" stroke-linecap="round" stroke-linejoin="round"/>
<path d="M51.4985 77.8027H69.6525" stroke="#D8DFEF" stroke-width="1.99415" stroke-linecap="round" stroke-linejoin="round"/>
<path d="M51.4985 81.5625H60.3213" stroke="#D8DFEF" stroke-width="1.99415" stroke-linecap="round" stroke-linejoin="round"/>
<path d="M77.8359 77.8027H81.5386" stroke="#D8DFEF" stroke-width="1.99415" stroke-linecap="round" stroke-linejoin="round"/>
<path d="M77.8359 81.5625H79.638" stroke="#D8DFEF" stroke-width="1.99415" stroke-linecap="round" stroke-linejoin="round"/>
<g opacity="0.18">
<g opacity="0.18">
<path opacity="0.11" d="M24.0679 80.8985L46.5983 70.8108L49.4364 75.7497L29.3914 90.1502L24.0679 80.8985Z" fill="url(#paint2_linear_9121_84011)"/>
</g>
<g opacity="0.18">
<path opacity="0.22" d="M24.5454 80.8445L46.2685 71.116L49.0082 75.8801L29.6751 89.7658L24.5454 80.8445Z" fill="url(#paint3_linear_9121_84011)"/>
</g>
<g opacity="0.18">
<path opacity="0.33" d="M25.0195 80.7937L45.9417 71.4211L48.5797 76.0105L29.9617 89.3844L25.0195 80.7937Z" fill="url(#paint4_linear_9121_84011)"/>
</g>
<g opacity="0.18">
<path opacity="0.44" d="M25.4922 80.7397L45.6135 71.7295L48.1497 76.1409L30.2436 89.0031L25.4922 80.7397Z" fill="url(#paint5_linear_9121_84011)"/>
</g>
<g opacity="0.18">
<path opacity="0.56" d="M25.9648 80.6858L45.2821 72.0347L47.7197 76.2681L30.5288 88.6186L25.9648 80.6858Z" fill="url(#paint6_linear_9121_84011)"/>
</g>
<g opacity="0.18">
<path opacity="0.67" d="M26.439 80.6318L44.9553 72.3398L47.2913 76.3984L30.8122 88.2373L26.439 80.6318Z" fill="url(#paint7_linear_9121_84011)"/>
</g>
<g opacity="0.18">
<path opacity="0.78" d="M26.9116 80.5808L44.627 72.6448L46.8613 76.5286L31.0942 87.8557L26.9116 80.5808Z" fill="url(#paint8_linear_9121_84011)"/>
</g>
<g opacity="0.18">
<path opacity="0.89" d="M27.3867 80.5268L44.3012 72.95L46.4338 76.6589L31.3817 87.4712L27.3867 80.5268Z" fill="url(#paint9_linear_9121_84011)"/>
</g>
<g opacity="0.18">
<path opacity="0.18" d="M27.8608 80.4729L43.9712 73.2583L46.0053 76.7893L31.6652 87.0899L27.8608 80.4729Z" fill="url(#paint10_linear_9121_84011)"/>
</g>
</g>
<path d="M21.2546 87.1085C21.1942 86.9496 21.1465 86.7907 21.102 86.6254C21.0798 86.5333 21.0575 86.4411 21.0416 86.3489C20.9774 86.0351 20.9433 85.7158 20.9399 85.3955C20.9399 85.316 20.9399 85.2366 20.9399 85.1571C20.9465 84.8764 20.9774 84.5967 21.0321 84.3212C21.0448 84.2513 21.0607 84.1814 21.0798 84.1115C21.14 83.8547 21.2196 83.6029 21.3182 83.3582C21.3436 83.2947 21.3722 83.2279 21.4008 83.1644C21.506 82.9295 21.6293 82.7032 21.7695 82.4874C21.8076 82.427 21.8457 82.3698 21.8871 82.3126C22.0371 82.0983 22.2028 81.8954 22.3829 81.7056C22.4305 81.6515 22.4814 81.6007 22.5354 81.5498C22.7336 81.3591 22.9461 81.1838 23.1711 81.0254C23.2346 80.9809 23.2982 80.9364 23.3649 80.8951C23.6261 80.7298 23.9016 80.5883 24.1881 80.4724C24.2516 80.4438 24.3184 80.4184 24.3883 80.393H24.4423C24.8024 80.2653 25.1754 80.1779 25.5547 80.1323C25.6787 80.1165 25.8026 80.1069 25.9266 80.1006C26.909 80.0562 27.8841 80.2889 28.7406 80.7722C29.597 81.2555 30.3003 81.9699 30.7702 82.8338C30.8306 82.9419 30.8846 83.0531 30.9354 83.1675C30.9863 83.282 31.0435 83.4186 31.0912 83.5521C31.1754 83.7812 31.2434 84.0159 31.2946 84.2545C31.3136 84.3435 31.3295 84.4325 31.3423 84.5215C31.5333 85.7208 31.3014 86.9493 30.6862 87.9965C30.071 89.0437 29.1108 89.8443 27.9702 90.2613C27.5019 90.4375 27.0105 90.5446 26.5114 90.5792C26.3747 90.5792 26.238 90.5792 26.1045 90.5792C25.2324 90.5646 24.3777 90.3325 23.6179 89.9041C22.8582 89.4756 22.2173 88.8643 21.7536 88.1256C21.6805 88.0112 21.6137 87.8936 21.5502 87.7728C21.4354 87.5589 21.3366 87.3369 21.2546 87.1085Z" fill="url(#paint11_linear_9121_84011)"/>
<path d="M25.561 80.126C25.685 80.1101 25.8089 80.1006 25.9329 80.0942L30.7765 82.8275C30.8369 82.9356 30.8909 83.0468 30.9418 83.1612L25.561 80.126Z" fill="url(#paint12_linear_9121_84011)"/>
<path d="M24.1938 80.482C24.2574 80.4534 24.3242 80.428 24.3941 80.4026H24.4481L31.3003 84.2641L31.6182 84.4516L31.5165 84.636L31.3321 84.5311L24.1938 80.482Z" fill="url(#paint13_linear_9121_84011)"/>
<path d="M23.1768 81.0446C23.2403 81.0001 23.3039 80.9556 23.3706 80.9143L31.0397 85.2399L30.938 85.421L23.1768 81.0446Z" fill="url(#paint14_linear_9121_84011)"/>
<path d="M22.3867 81.7153C22.4344 81.6613 22.4852 81.6104 22.5393 81.5596L30.4499 86.0091L30.345 86.1902L22.3867 81.7153Z" fill="url(#paint15_linear_9121_84011)"/>
<path d="M21.7734 82.4971C21.8116 82.4367 21.8497 82.3795 21.891 82.3223L29.8556 86.8131L29.7539 86.9942L21.7734 82.4971Z" fill="url(#paint16_linear_9121_84011)"/>
<path d="M21.3213 83.3677C21.3467 83.3041 21.3753 83.2374 21.4039 83.1738L29.2637 87.6043L29.1588 87.7886L21.3213 83.3677Z" fill="url(#paint17_linear_9121_84011)"/>
<path d="M21.0352 84.3309C21.0479 84.2609 21.0638 84.191 21.0828 84.1211L28.6692 88.399L28.5675 88.5801L21.0352 84.3309Z" fill="url(#paint18_linear_9121_84011)"/>
<path d="M20.9399 85.4051C20.9399 85.3257 20.9399 85.2462 20.9399 85.1667L28.0719 89.1904L27.9702 89.3715L20.9399 85.4051Z" fill="url(#paint19_linear_9121_84011)"/>
<path d="M21.1019 86.6256C21.0796 86.5335 21.0574 86.4413 21.0415 86.3491L27.4838 89.9818L27.3821 90.163L21.1019 86.6256Z" fill="url(#paint20_linear_9121_84011)"/>
<path d="M21.5376 87.7571L26.4988 90.5539L26.8897 90.7732L26.788 90.9544L26.092 90.5793L21.741 88.1099C21.6679 87.9955 21.6139 87.8779 21.5376 87.7571Z" fill="url(#paint21_linear_9121_84011)"/>
<path d="M29.3624 90.3444C31.9399 89.0351 32.9679 85.8842 31.6586 83.3068C30.3493 80.7293 27.1985 79.7013 24.621 81.0106C22.0435 82.3199 21.0155 85.4708 22.3248 88.0482C23.6341 90.6257 26.785 91.6537 29.3624 90.3444Z" fill="url(#paint22_linear_9121_84011)"/>
<path d="M25.4596 81.4354C26.2977 81.1325 27.2068 81.0848 28.0719 81.2984C28.9371 81.512 29.7195 81.9773 30.3203 82.6355C30.921 83.2937 31.3132 84.1152 31.4472 84.9962C31.5811 85.8772 31.4509 86.7782 31.0729 87.5852C30.695 88.3922 30.0862 89.069 29.3237 89.5302C28.5611 89.9913 27.6789 90.216 26.7887 90.1759C25.8985 90.1357 25.0401 89.8326 24.3221 89.3047C23.6042 88.7768 23.0588 88.048 22.755 87.2102C22.3481 86.0858 22.4044 84.8457 22.9116 83.7628C23.4188 82.6799 24.3353 81.8427 25.4596 81.4354ZM28.4344 89.6511C29.2228 89.3689 29.9097 88.8592 30.4081 88.1863C30.9065 87.5135 31.1941 86.7079 31.2343 85.8716C31.2745 85.0352 31.0656 84.2057 30.6341 83.4882C30.2026 82.7706 29.5678 82.1972 28.8102 81.8407C28.0525 81.4842 27.2062 81.3605 26.3782 81.4854C25.5502 81.6102 24.7779 81.978 24.1591 82.5421C23.5403 83.1062 23.1029 83.8412 22.9021 84.6541C22.7014 85.467 22.7464 86.3212 23.0315 87.1085C23.4132 88.1603 24.1959 89.0182 25.2083 89.4947C26.2208 89.9711 27.3807 90.0274 28.4344 89.6511Z" fill="url(#paint23_linear_9121_84011)"/>
<path d="M27.6529 84.8997C27.6194 84.7996 27.5688 84.7061 27.5035 84.6232C27.4463 84.5532 27.3761 84.495 27.2969 84.4516C27.2214 84.4103 27.1399 84.3814 27.0553 84.3658C26.9647 84.353 26.8727 84.353 26.782 84.3658L27.2079 85.494H27.335C27.4463 85.494 27.5575 85.494 27.6529 85.494C27.759 85.4917 27.8652 85.497 27.9707 85.5099C28.0786 85.5215 28.185 85.5439 28.2885 85.5767C28.3857 85.6075 28.4778 85.6525 28.5618 85.7101C28.6503 85.7719 28.7277 85.8482 28.7907 85.9358C28.8658 86.0315 28.9249 86.1389 28.9655 86.2536C29.0124 86.3745 29.0393 86.5023 29.0449 86.6318C29.0523 86.7504 29.0416 86.8693 29.0131 86.9846C28.9849 87.0957 28.9422 87.2025 28.886 87.3024C28.8275 87.4019 28.7583 87.4947 28.6794 87.5789C28.5991 87.6645 28.5108 87.7422 28.4156 87.811C28.3155 87.8819 28.2091 87.9436 28.0978 87.9953L28.2504 88.4116L27.7037 88.6087L27.548 88.1764C27.3701 88.2111 27.1887 88.2239 27.0077 88.2146C26.8355 88.2042 26.6666 88.1633 26.5087 88.0938C26.3497 88.023 26.2069 87.9202 26.0892 87.7919C25.9574 87.6441 25.8568 87.4711 25.7936 87.2834L26.6517 86.9655C26.6839 87.0398 26.7245 87.1102 26.7725 87.1753C26.8147 87.2283 26.8638 87.2754 26.9187 87.3152C26.9698 87.3499 27.0269 87.3747 27.0871 87.3882C27.1473 87.4036 27.2093 87.4111 27.2715 87.4105L26.9123 86.4125L26.6994 86.4475L26.4864 86.4666C26.3912 86.4715 26.2957 86.4715 26.2004 86.4666C26.0934 86.4603 25.9872 86.4454 25.8826 86.4221C25.7712 86.3948 25.6642 86.352 25.5648 86.2949C25.4555 86.2313 25.3577 86.1496 25.2755 86.0534C25.1795 85.9362 25.1053 85.8027 25.0562 85.6593C24.9938 85.4917 24.9647 85.3136 24.9704 85.1349C24.9738 84.9607 25.015 84.7894 25.0912 84.6327C25.1726 84.4587 25.287 84.3022 25.4281 84.1719C25.5916 84.0211 25.7783 83.8977 25.9811 83.8064L25.7936 83.2947L26.3402 83.0977L26.5246 83.6094C26.6591 83.5768 26.7964 83.5566 26.9346 83.549C27.0682 83.5398 27.2025 83.5452 27.335 83.5649C27.4639 83.5858 27.5898 83.6221 27.7101 83.6729C27.8254 83.7247 27.9325 83.7933 28.0279 83.8763C28.1353 83.9628 28.2296 84.0645 28.3076 84.1782C28.3948 84.3044 28.4633 84.4425 28.511 84.5882L27.6529 84.8997ZM28.1232 86.6287C28.1053 86.5815 28.0818 86.5367 28.0533 86.4952C28.0239 86.4594 27.9855 86.432 27.9421 86.4157C27.8872 86.3942 27.8293 86.3814 27.7704 86.3776C27.6847 86.3725 27.5987 86.3725 27.513 86.3776L27.8308 87.2548C27.885 87.2224 27.936 87.1852 27.9834 87.1435C28.0286 87.1032 28.0672 87.056 28.0978 87.0037C28.1253 86.9499 28.1435 86.8919 28.1518 86.8321C28.1617 86.7639 28.1563 86.6944 28.1359 86.6287H28.1232ZM25.873 85.2525C25.8953 85.3154 25.9324 85.3721 25.9811 85.4178C26.0296 85.4598 26.0857 85.4922 26.1464 85.5131C26.2143 85.5357 26.2848 85.5496 26.3561 85.5544H26.6009L26.2481 84.5406C26.1865 84.5783 26.1281 84.6208 26.0733 84.6677C26.017 84.7122 25.9686 84.7659 25.9303 84.8266C25.894 84.8846 25.8701 84.9496 25.8603 85.0173C25.8476 85.0966 25.8564 85.1778 25.8858 85.2525H25.873Z" fill="url(#paint24_linear_9121_84011)"/>
<path style="mix-blend-mode:screen" d="M29.7396 88.2812C30.7929 86.3445 30.0767 83.9206 28.14 82.8673C26.2033 81.814 23.7794 82.5301 22.726 84.4669C21.6727 86.4036 22.3889 88.8275 24.3256 89.8808C26.2624 90.9341 28.6863 90.218 29.7396 88.2812Z" fill="url(#paint25_radial_9121_84011)"/>
<g opacity="0.21">
<g opacity="0.21">
<path opacity="0.11" d="M25.0439 28.5212L48.7057 36.5335L47.8921 39.4384L23.5151 33.9624L25.0439 28.5212Z" fill="url(#paint26_linear_9121_84011)"/>
</g>
<g opacity="0.21">
<path opacity="0.22" d="M25.443 28.7375L48.2626 36.4638L47.4775 39.267L23.9683 33.9848L25.443 28.7375Z" fill="url(#paint27_linear_9121_84011)"/>
</g>
<g opacity="0.21">
<path opacity="0.33" d="M25.845 28.9536L47.8224 36.397L47.0659 39.0953L24.4243 34.007L25.845 28.9536Z" fill="url(#paint28_linear_9121_84011)"/>
</g>
<g opacity="0.21">
<path opacity="0.44" d="M26.2448 29.1697L47.38 36.327L46.6521 38.9236L24.8813 34.0324L26.2448 29.1697Z" fill="url(#paint29_linear_9121_84011)"/>
</g>
<g opacity="0.21">
<path opacity="0.56" d="M26.6439 29.3892L46.9368 36.2605L46.2376 38.7522L25.3345 34.0548L26.6439 29.3892Z" fill="url(#paint30_linear_9121_84011)"/>
</g>
<g opacity="0.21">
<path opacity="0.67" d="M27.0469 29.605L46.4976 36.1903L45.827 38.5803L25.7915 34.0767L27.0469 29.605Z" fill="url(#paint31_linear_9121_84011)"/>
</g>
<g opacity="0.21">
<path opacity="0.78" d="M27.4445 29.8215L46.053 36.1239L45.411 38.4059L26.2432 34.1026L27.4445 29.8215Z" fill="url(#paint32_linear_9121_84011)"/>
</g>
<g opacity="0.21">
<path opacity="0.89" d="M27.8461 30.0405L45.6123 36.0537L44.9989 38.2372L26.6987 34.1245L27.8461 30.0405Z" fill="url(#paint33_linear_9121_84011)"/>
</g>
<g opacity="0.21">
<path opacity="0.21" d="M28.2466 30.2566L45.1706 35.9869L44.5858 38.0623L27.1533 34.1467L28.2466 30.2566Z" fill="url(#paint34_linear_9121_84011)"/>
</g>
</g>
<path d="M20.8445 31.0606L21.2227 30.0499C21.377 29.7074 21.6439 29.4281 21.9791 29.2586C23.8511 28.1875 27.4997 28.82 29.0284 30.603C29.1872 30.763 29.3126 30.953 29.3972 31.162C29.4818 31.371 29.5239 31.5948 29.521 31.8202C29.5132 31.944 29.4842 32.0654 29.4352 32.1794L29.2858 32.815C29.2191 33.6795 28.2434 34.3056 26.8958 34.4581C25.2251 34.6098 23.5506 34.2102 22.1285 33.3203C21.1591 32.6656 20.6442 31.8043 20.8572 31.0733L20.8445 31.0606Z" fill="url(#paint35_linear_9121_84011)"/>
<path d="M29.0735 30.9935L28.1182 34.0188L28.2299 34.0541L29.1853 31.0287L29.0735 30.9935Z" fill="url(#paint36_linear_9121_84011)"/>
<path d="M28.6614 30.2708L27.3682 34.3452L27.4802 34.3808L28.7735 30.3064L28.6614 30.2708Z" fill="url(#paint37_linear_9121_84011)"/>
<path d="M28.006 29.7671L26.5166 34.4595L26.6287 34.495L28.1181 29.8027L28.006 29.7671Z" fill="url(#paint38_linear_9121_84011)"/>
<path d="M27.3127 29.3908L25.7041 34.4587L25.8162 34.4943L27.4248 29.4263L27.3127 29.3908Z" fill="url(#paint39_linear_9121_84011)"/>
<path d="M26.4125 29.1114L24.7563 34.356L24.8681 34.3912L26.5242 29.1467L26.4125 29.1114Z" fill="url(#paint40_linear_9121_84011)"/>
<path d="M25.836 28.8976L24.1523 34.2019L24.2644 34.2375L25.9481 28.9332L25.836 28.8976Z" fill="url(#paint41_linear_9121_84011)"/>
<path d="M25.0621 28.7667L23.4111 33.968L23.5232 34.0036L25.1742 28.8023L25.0621 28.7667Z" fill="url(#paint42_linear_9121_84011)"/>
<path d="M24.2626 28.7217L22.6953 33.6594L22.8074 33.695L24.3747 28.7573L24.2626 28.7217Z" fill="url(#paint43_linear_9121_84011)"/>
<path d="M23.4323 28.7674L22.0093 33.2507L22.1214 33.2863L23.5444 28.803L23.4323 28.7674Z" fill="url(#paint44_linear_9121_84011)"/>
<path d="M22.5552 28.9646L21.3696 32.6997L21.4817 32.7353L22.6673 29.0002L22.5552 28.9646Z" fill="url(#paint45_linear_9121_84011)"/>
<path d="M21.4177 29.4841L20.6797 31.821L20.7914 31.8563L21.5294 29.5194L21.4177 29.4841Z" fill="url(#paint46_linear_9121_84011)"/>
<path d="M21.6354 30.1931C23.5423 29.0997 27.229 29.764 28.7705 31.6137C29.9973 33.0852 28.8372 34.2993 26.8635 34.525C25.1923 34.6722 23.5186 34.2705 22.0962 33.3808C20.6596 32.4178 20.2338 31.0067 21.6354 30.1931Z" fill="url(#paint47_linear_9121_84011)"/>
<path d="M28.0587 31.8077C29.152 33.0281 28.2685 34.0896 26.6031 34.3057C25.129 34.4571 23.6471 34.1054 22.3983 33.3078C21.1683 32.456 20.8696 31.2483 22.125 30.6031C23.7427 29.7736 26.7397 30.3361 28.0587 31.8077ZM22.5159 33.276C23.6954 34.0394 25.1008 34.3759 26.4982 34.2295C28.0523 34.0165 28.8374 33.0154 27.8013 31.8839C26.5681 30.5427 23.8158 30.0151 22.3029 30.762C21.1111 31.3405 21.3622 32.4719 22.5159 33.276Z" fill="url(#paint48_linear_9121_84011)"/>
<path d="M25.4009 32.9869C25.4632 32.9752 25.5233 32.9537 25.5789 32.9233C25.6162 32.9011 25.6469 32.8692 25.6679 32.8312C25.6791 32.796 25.6791 32.7582 25.6679 32.7231C25.658 32.6787 25.6397 32.6366 25.6139 32.5992L24.8352 32.7962L24.867 32.8471C24.8988 32.8947 24.9305 32.9424 24.956 32.9869C24.9835 33.0281 25.005 33.073 25.0195 33.1204C25.0358 33.1585 25.0434 33.1997 25.0418 33.2411C25.0425 33.2786 25.0314 33.3153 25.01 33.346C24.9829 33.3823 24.9467 33.4108 24.9051 33.4287C24.8487 33.4593 24.7874 33.4797 24.724 33.4891C24.6477 33.5053 24.5699 33.5139 24.4919 33.5145C24.3341 33.5145 24.1769 33.4931 24.0247 33.4509C23.947 33.4303 23.8705 33.4048 23.7959 33.3746C23.7228 33.346 23.6529 33.3142 23.583 33.2793C23.5165 33.2455 23.4518 33.2084 23.3891 33.1681L23.1762 33.2221L22.8997 33.0219L23.119 32.9615C23.0503 32.8971 22.9885 32.8257 22.9346 32.7485C22.8905 32.6881 22.8641 32.6165 22.8583 32.5419C22.8564 32.5083 22.8612 32.4746 22.8727 32.4429C22.8842 32.4112 22.902 32.3822 22.9251 32.3576C22.9936 32.2881 23.079 32.2377 23.173 32.2114L23.6465 32.5864C23.6079 32.5985 23.5714 32.6168 23.5385 32.6405C23.5153 32.6558 23.4976 32.6781 23.4876 32.704C23.483 32.7145 23.4806 32.7259 23.4806 32.7374C23.4806 32.7489 23.483 32.7603 23.4876 32.7708C23.4952 32.7985 23.5081 32.8244 23.5258 32.8471L24.101 32.6881L24.0311 32.596L23.958 32.5038C23.9272 32.463 23.8986 32.4205 23.8722 32.3767C23.8461 32.3295 23.8259 32.2793 23.8118 32.2273C23.7975 32.1753 23.7975 32.1204 23.8118 32.0684C23.8279 32.0109 23.8598 31.9592 23.904 31.919C23.9762 31.855 24.0621 31.8082 24.1551 31.7823C24.2835 31.7403 24.4173 31.7168 24.5523 31.7124C24.7029 31.7061 24.8536 31.72 25.0005 31.7537C25.1619 31.788 25.3188 31.8413 25.4677 31.9127C25.626 31.985 25.7754 32.0757 25.9126 32.1828L26.3226 32.0716L26.6055 32.3449L26.1955 32.4498C26.2483 32.5089 26.2942 32.574 26.3321 32.6436C26.3632 32.701 26.3836 32.7634 26.3925 32.828C26.401 32.8838 26.3944 32.9408 26.3735 32.9932C26.3545 33.0491 26.3204 33.0987 26.2749 33.1363C26.2208 33.1851 26.1584 33.2239 26.0906 33.2507C26.0045 33.2892 25.9136 33.3159 25.8204 33.3301L25.4009 32.9869ZM24.2854 33.1776C24.3116 33.1737 24.3366 33.1639 24.3585 33.149C24.3661 33.1447 24.3726 33.1388 24.3775 33.1316C24.3825 33.1245 24.3858 33.1163 24.3871 33.1077C24.3859 33.0842 24.3794 33.0614 24.368 33.0409C24.3499 33.0042 24.3286 32.9691 24.3044 32.936L23.7991 33.0663L23.9135 33.1236C23.9527 33.1412 23.993 33.156 24.0343 33.1681C24.0761 33.1777 24.1186 33.1841 24.1614 33.1871C24.203 33.1903 24.2448 33.187 24.2854 33.1776ZM24.6985 32.1892C24.6612 32.1991 24.6271 32.2188 24.6 32.2464C24.5817 32.2688 24.5716 32.2969 24.5714 32.3258C24.5727 32.3601 24.5814 32.3937 24.5968 32.4243C24.6139 32.464 24.634 32.5023 24.6572 32.5388L25.3501 32.3449C25.3039 32.3148 25.2562 32.2872 25.207 32.2623C25.1539 32.2364 25.0986 32.2152 25.0418 32.1987C24.9858 32.1828 24.9283 32.1732 24.8702 32.1701C24.8123 32.1666 24.7542 32.1731 24.6985 32.1892Z" fill="url(#paint49_linear_9121_84011)"/>
<path style="mix-blend-mode:screen" d="M25.0362 34.5059C26.4123 34.5059 27.5279 33.3903 27.5279 32.0142C27.5279 30.638 26.4123 29.5225 25.0362 29.5225C23.66 29.5225 22.5444 30.638 22.5444 32.0142C22.5444 33.3903 23.66 34.5059 25.0362 34.5059Z" fill="url(#paint50_radial_9121_84011)"/>
<path style="mix-blend-mode:screen" opacity="0.39" d="M23.4038 31.6829C23.652 30.9459 23.2558 30.1471 22.5187 29.8989C21.7817 29.6506 20.983 30.0468 20.7347 30.7839C20.4864 31.5209 20.8826 32.3197 21.6197 32.5679C22.3567 32.8162 23.1555 32.42 23.4038 31.6829Z" fill="url(#paint51_radial_9121_84011)"/>
<path d="M60.002 115.96C89.101 115.96 112.69 109.311 112.69 101.109C112.69 92.9062 89.101 86.2568 60.002 86.2568C30.9029 86.2568 7.31348 92.9062 7.31348 101.109C7.31348 109.311 30.9029 115.96 60.002 115.96Z" fill="url(#paint52_linear_9121_84011)"/>
<path d="M13.5467 58.7875L15.7683 60.0016L13.5467 61.2157L12.3326 63.4372L11.1185 61.2157L8.89697 60.0016L11.1185 58.7875L12.3326 56.5659L13.5467 58.7875Z" fill="url(#paint53_linear_9121_84011)"/>
<path d="M57.1464 12.2202L58.7324 13.0879L57.1464 13.9555L56.2788 15.5414L55.4111 13.9555L53.8252 13.0879L55.4111 12.2202L56.2788 10.6343L57.1464 12.2202Z" fill="url(#paint54_linear_9121_84011)"/>
<path d="M108.569 23.9448L109.605 24.5105L108.569 25.0794L108 26.1155L107.435 25.0794L106.398 24.5105L107.435 23.9448L108 22.9087L108.569 23.9448Z" fill="url(#paint55_linear_9121_84011)"/>
<path d="M91.8522 45.3087L92.9995 45.938L91.8522 46.5641L91.2229 47.7146L90.5936 46.5641L89.4463 45.938L90.5936 45.3087L91.2229 44.1614L91.8522 45.3087Z" fill="#FFC400"/>
<path opacity="0.72" d="M104.661 103.655C104.661 104.532 84.6671 105.244 60.0041 105.244C35.3411 105.244 15.3438 104.535 15.3438 103.655C15.3438 102.774 35.3379 102.065 60.0041 102.065C84.6702 102.065 104.661 102.777 104.661 103.655Z" fill="url(#paint56_radial_9121_84011)"/>
<path opacity="0.21" d="M89.1181 77.1766C92.1256 74.165 94.1728 70.3293 95.001 66.1545C95.8293 61.9797 95.4013 57.653 93.7711 53.7213C92.141 49.7897 89.3819 46.4295 85.8426 44.0655C82.3033 41.7014 78.1426 40.4397 73.8864 40.4397C69.6302 40.4397 65.4696 41.7014 61.9302 44.0655C58.3909 46.4295 55.6319 49.7897 54.0017 53.7213C52.3716 57.653 51.9436 61.9797 52.7718 66.1545C53.6 70.3293 55.6473 74.165 58.6548 77.1766C60.6517 79.1828 63.0253 80.7747 65.6392 81.861C68.2531 82.9472 71.0558 83.5064 73.8864 83.5064C76.7171 83.5064 79.5198 82.9472 82.1337 81.861C84.7476 80.7747 87.1211 79.1828 89.1181 77.1766Z" fill="white"/>
<path d="M73.8854 84.1591C68.737 84.1639 63.7463 82.3829 59.7641 79.1198C55.7818 75.8567 53.0546 71.3135 52.0472 66.2646C51.0399 61.2157 51.8148 55.9737 54.2399 51.4322C56.665 46.8907 60.5901 43.3309 65.3461 41.3596C70.1022 39.3882 75.3947 39.1274 80.3215 40.6216C85.2483 42.1158 89.5044 45.2725 92.3642 49.5535C95.2241 53.8346 96.5106 58.975 96.0045 64.0985C95.4985 69.2219 93.2311 74.0113 89.589 77.6501C85.4236 81.8147 79.7756 84.1557 73.8854 84.1591ZM73.8854 41.1388C69.0559 41.1357 64.3747 42.8076 60.6399 45.8695C56.905 48.9314 54.3476 53.1938 53.4035 57.9302C52.4595 62.6666 53.1872 67.5838 55.4626 71.8437C57.738 76.1036 61.4204 79.4425 65.882 81.2914C70.3436 83.1403 75.3083 83.3848 79.93 81.983C84.5516 80.5813 88.5441 77.6202 91.227 73.6043C93.9098 69.5885 95.117 64.7666 94.6427 59.9604C94.1684 55.1542 92.042 50.6612 88.626 47.2473C84.715 43.3397 79.4139 41.1429 73.8854 41.1388Z" fill="#4C65BA"/>
<path d="M93.682 77.3802L93.7837 77.2976C97.7052 72.2343 99.5526 65.8682 98.9508 59.4922C98.3489 53.1162 95.3429 47.2082 90.5433 42.9681C85.7436 38.728 79.51 36.4735 73.1085 36.6626C66.7069 36.8517 60.6173 39.4701 56.0762 43.9861C51.5352 48.5021 48.8831 54.5771 48.6586 60.9775C48.4341 67.3779 50.654 73.6239 54.8675 78.447C59.081 83.27 64.9722 86.3087 71.3447 86.9458C77.7173 87.583 84.0935 85.7708 89.1785 81.8774L92.0865 78.9757L93.682 77.3802ZM73.8849 83.4792C68.9042 83.4769 64.0784 81.7478 60.2296 78.5864C56.3809 75.4251 53.7473 71.027 52.7775 66.1417C51.8078 61.2563 52.5619 56.1858 54.9114 51.7941C57.261 47.4024 61.0605 43.9612 65.6627 42.0567C70.2649 40.1523 75.385 39.9024 80.1508 41.3497C84.9166 42.797 89.0331 45.8519 91.7991 49.994C94.565 54.1361 95.8093 59.109 95.3198 64.0656C94.8304 69.0222 92.6376 73.6557 89.1149 77.1768C85.0721 81.21 79.5955 83.4763 73.8849 83.4792Z" fill="#3E479B"/>
<path d="M73.8866 87.401C68.8601 87.391 63.9493 85.8912 59.7747 83.0913C55.6002 80.2914 52.3492 76.3169 50.4326 71.6701C48.516 67.0233 48.0197 61.9126 49.0065 56.9839C49.9933 52.0551 52.4189 47.5294 55.9767 43.9787C59.5346 40.4279 64.0651 38.0114 68.9958 37.0344C73.9266 36.0575 79.0362 36.5639 83.6792 38.4898C88.3222 40.4157 92.2901 43.6746 95.0817 47.8548C97.8733 52.0349 99.3632 56.9487 99.3632 61.9753C99.3838 67.5963 97.5233 73.0627 94.0779 77.504L94.0143 77.5676L93.9475 77.6185L89.409 82.1474C84.9632 85.5762 79.5011 87.4249 73.8866 87.401ZM73.8866 37.2042C69.9521 37.2046 66.0744 38.1425 62.5747 39.9403C59.0749 41.7381 56.054 44.344 53.7621 47.542C51.4703 50.7401 49.9735 54.4382 49.3958 58.3301C48.8181 62.2219 49.1761 66.1954 50.4402 69.9212C51.7043 73.6471 53.8381 77.0181 56.6647 79.755C59.4913 82.4918 62.9294 84.5157 66.6942 85.6589C70.4589 86.8021 74.4419 87.0318 78.313 86.3288C82.1842 85.6258 85.8321 84.0105 88.9546 81.6167L93.4422 77.1417C93.4728 77.1097 93.5057 77.0799 93.5407 77.0527C96.8876 72.7404 98.6986 67.434 98.6863 61.9753C98.6778 55.406 96.0623 49.1087 91.4142 44.4666C86.7661 39.8244 80.4654 37.2169 73.8962 37.2169L73.8866 37.2042ZM73.8866 83.8128C68.8229 83.8145 63.9153 82.0602 60.0001 78.8488C56.0849 75.6374 53.4045 71.1678 52.4156 66.2016C51.4267 61.2353 52.1905 56.0798 54.5769 51.6137C56.9633 47.1475 60.8246 43.6471 65.5027 41.7089C70.1809 39.7708 75.3863 39.5148 80.2321 40.9847C85.0778 42.4545 89.2638 45.5593 92.0769 49.7697C94.8899 53.9802 96.1559 59.0359 95.659 64.0752C95.1621 69.1145 92.9331 73.8256 89.3518 77.4055C85.2478 81.5046 79.687 83.8107 73.8866 83.8192V83.8128ZM73.8866 40.7956C68.9796 40.7949 64.2241 42.4957 60.4305 45.6084C56.637 48.721 54.0402 53.0528 53.0827 57.8655C52.1252 62.6783 52.8662 67.6741 55.1795 72.0017C57.4927 76.3293 61.2351 79.7209 65.7688 81.5984C70.3025 83.4759 75.3469 83.7232 80.0425 82.2981C84.7381 80.873 88.7942 77.8637 91.5196 73.7831C94.245 69.7025 95.4711 64.8031 94.9889 59.9197C94.5067 55.0364 92.346 50.4714 88.8751 47.0027C84.8972 43.0326 79.5068 40.8026 73.8866 40.802V40.7956Z" fill="#3E479B"/>
<path d="M93.0638 81.3052L92.088 80.3327C91.9975 80.2419 91.9261 80.1338 91.8783 80.0149C91.8303 79.8979 91.8055 79.7727 91.8052 79.6462C91.8053 79.5208 91.8301 79.3965 91.8783 79.2807C91.9261 79.1617 91.9975 79.0536 92.088 78.9629L89.18 81.8646L89.1323 81.9155C89.0429 82.0065 88.9726 82.1146 88.9257 82.2333C88.8768 82.35 88.8516 82.4754 88.8516 82.602C88.8516 82.7285 88.8768 82.8539 88.9257 82.9706C88.973 83.0891 89.0432 83.1971 89.1323 83.2884L90.3178 84.4676C90.7055 83.8097 91.8529 82.532 93.0638 81.3052Z" fill="#4C65BA"/>
<path d="M92.0875 78.9755C91.997 79.0662 91.9256 79.1743 91.8778 79.2933C91.8296 79.4091 91.8048 79.5333 91.8047 79.6588C91.805 79.7853 91.8298 79.9105 91.8778 80.0275C91.9256 80.1464 91.997 80.2545 92.0875 80.3453L93.0633 81.3178C94.024 80.2981 95.0644 79.3564 96.1747 78.5019L95.0306 77.38C94.8654 77.218 94.648 77.12 94.4172 77.1035C94.1889 77.0898 93.9633 77.1586 93.7815 77.2974L93.6798 77.38L92.0875 78.9755Z" fill="#4C65BA"/>
<path opacity="0.43" d="M92.0875 78.9755C91.997 79.0662 91.9256 79.1743 91.8778 79.2933C91.8296 79.4091 91.8048 79.5333 91.8047 79.6588C91.805 79.7853 91.8298 79.9105 91.8778 80.0275C91.9256 80.1464 91.997 80.2545 92.0875 80.3453L93.0633 81.3178C94.024 80.2981 95.0644 79.3564 96.1747 78.5019L95.0306 77.38C94.8654 77.218 94.648 77.12 94.4172 77.1035C94.1889 77.0898 93.9633 77.1586 93.7815 77.2974L93.6798 77.38L92.0875 78.9755Z" fill="#3E479B"/>
<path d="M113.146 94.5806L96.718 78.3017C96.6544 78.2382 96.4606 78.324 96.1809 78.5147C95.0723 79.3631 94.0319 80.2972 93.0694 81.3083C91.8521 82.5351 90.7112 83.8128 90.3107 84.4675C90.1836 84.6804 90.1359 84.8266 90.1899 84.8902L106.618 101.169C107.044 101.6 107.551 101.943 108.11 102.177C108.67 102.411 109.27 102.531 109.876 102.531C110.482 102.531 111.082 102.411 111.641 102.177C112.201 101.943 112.708 101.6 113.133 101.169C114.001 100.292 114.487 99.1083 114.487 97.8748C114.487 96.6413 114.001 95.4576 113.133 94.5806H113.146Z" fill="url(#paint57_linear_9121_84011)"/>
<path opacity="0.14" d="M113.146 94.5807L96.718 78.3018C96.4796 78.0635 94.4615 79.8655 92.7293 81.6485C91.2578 83.1677 111.347 102.974 113.146 101.16C114.01 100.283 114.494 99.101 114.494 97.8701C114.494 96.6392 114.01 95.4577 113.146 94.5807Z" fill="#3E479B"/>
<path d="M67.5324 70.6803C67.3299 70.6802 67.1292 70.6413 66.9413 70.5659C66.5594 70.4076 66.2556 70.1049 66.0959 69.7237C65.9751 69.441 65.9408 69.129 65.9974 68.8269C66.054 68.5248 66.1989 68.2463 66.4137 68.0265L71.7531 62.6934L66.4264 57.3604C66.1337 57.068 65.9691 56.6713 65.9688 56.2575C65.969 55.9491 66.0606 55.6476 66.2321 55.3912C66.4036 55.1348 66.6472 54.935 66.9322 54.817C67.2172 54.699 67.5308 54.668 67.8334 54.7282C68.1359 54.7883 68.4139 54.9367 68.6321 55.1547L73.9747 60.4878L79.3141 55.1547C79.5332 54.9416 79.8099 54.7974 80.11 54.7399C80.4102 54.6823 80.7206 54.714 81.0029 54.831C81.2853 54.948 81.5272 55.1452 81.6986 55.3981C81.8701 55.6511 81.9637 55.9488 81.9679 56.2544C81.9645 56.6675 81.8003 57.0631 81.5102 57.3572L76.1708 62.6871L81.5261 68.0138C81.6714 68.1584 81.7866 68.3302 81.8651 68.5195C81.9436 68.7088 81.984 68.9117 81.9838 69.1166C81.9835 69.3215 81.9435 69.5244 81.8662 69.7141C81.7873 69.9043 81.6717 70.0771 81.5261 70.2226C81.3813 70.3673 81.2093 70.4819 81.02 70.5599C80.8308 70.6379 80.628 70.6777 80.4233 70.6771C80.2181 70.677 80.0149 70.6359 79.8258 70.5564C79.6361 70.4797 79.4642 70.365 79.3204 70.2195L73.9779 64.8864L68.6512 70.2385C68.5085 70.3847 68.3377 70.5004 68.149 70.5786C67.9607 70.6569 67.7586 70.6969 67.5547 70.6962L67.5324 70.6803Z" fill="url(#paint58_linear_9121_84011)"/>
<defs>
<linearGradient id="paint0_linear_9121_84011" x1="60.004" y1="108.078" x2="60.004" y2="-11.9215" gradientUnits="userSpaceOnUse">
<stop stop-color="#FEFEFD"/>
<stop offset="1" stop-color="#EBF3FF"/>
</linearGradient>
<linearGradient id="paint1_linear_9121_84011" x1="61.6124" y1="84.5343" x2="34.3751" y2="-21.0524" gradientUnits="userSpaceOnUse">
<stop stop-color="#FEFEFD"/>
<stop offset="1" stop-color="#C1D3FD"/>
</linearGradient>
<linearGradient id="paint2_linear_9121_84011" x1="47.93" y1="76.177" x2="22.9125" y2="82.7992" gradientUnits="userSpaceOnUse">
<stop offset="0.07" stop-color="#FFFFFE"/>
<stop offset="0.45" stop-color="#FEDC0B"/>
<stop offset="1" stop-color="#FEB813"/>
</linearGradient>
<linearGradient id="paint3_linear_9121_84011" x1="-63479.1" y1="51509.2" x2="-65303.5" y2="52082.6" gradientUnits="userSpaceOnUse">
<stop offset="0.07" stop-color="#FFFFFE"/>
<stop offset="0.45" stop-color="#FEDC0B"/>
<stop offset="1" stop-color="#FEB813"/>
</linearGradient>
<linearGradient id="paint4_linear_9121_84011" x1="-64784.2" y1="51389.6" x2="-66449.2" y2="51980.8" gradientUnits="userSpaceOnUse">
<stop offset="0.07" stop-color="#FFFFFE"/>
<stop offset="0.45" stop-color="#FEDC0B"/>
<stop offset="1" stop-color="#FEB813"/>
</linearGradient>
<linearGradient id="paint5_linear_9121_84011" x1="-65699.7" y1="50756.9" x2="-67210.1" y2="51347.3" gradientUnits="userSpaceOnUse">
<stop offset="0.07" stop-color="#FFFFFE"/>
<stop offset="0.45" stop-color="#FEDC0B"/>
<stop offset="1" stop-color="#FEB813"/>
</linearGradient>
<linearGradient id="paint6_linear_9121_84011" x1="48.5505" y1="80.5815" x2="28.6158" y2="89.2258" gradientUnits="userSpaceOnUse">
<stop offset="0.07" stop-color="white"/>
<stop offset="0.45" stop-color="#FEDC0B"/>
<stop offset="1" stop-color="#FEB813"/>
</linearGradient>
<linearGradient id="paint7_linear_9121_84011" x1="-66405" y1="49602.2" x2="-67630.8" y2="50177.8" gradientUnits="userSpaceOnUse">
<stop offset="0.07" stop-color="white"/>
<stop offset="0.45" stop-color="#FEDC0B"/>
<stop offset="1" stop-color="#FEB813"/>
</linearGradient>
<linearGradient id="paint8_linear_9121_84011" x1="-66216.9" y1="48588.7" x2="-67311.4" y2="49145.3" gradientUnits="userSpaceOnUse">
<stop offset="0.07" stop-color="white"/>
<stop offset="0.45" stop-color="#FEDC0B"/>
<stop offset="1" stop-color="#FEB813"/>
</linearGradient>
<linearGradient id="paint9_linear_9121_84011" x1="-65843.9" y1="48005" x2="-66821.9" y2="48534.7" gradientUnits="userSpaceOnUse">
<stop offset="0.07" stop-color="white"/>
<stop offset="0.45" stop-color="#FEDC0B"/>
<stop offset="1" stop-color="#FEB813"/>
</linearGradient>
<linearGradient id="paint10_linear_9121_84011" x1="49.1157" y1="71.5316" x2="33.9585" y2="80.2808" gradientUnits="userSpaceOnUse">
<stop offset="0.07" stop-color="white"/>
<stop offset="0.45" stop-color="#FEDC0B"/>
<stop offset="1" stop-color="#FEB813"/>
</linearGradient>
<linearGradient id="paint11_linear_9121_84011" x1="34.0648" y1="90.0277" x2="19.9737" y2="81.7996" gradientUnits="userSpaceOnUse">
<stop stop-color="#E0C895"/>
<stop offset="1" stop-color="#E08D3F"/>
</linearGradient>
<linearGradient id="paint12_linear_9121_84011" x1="30.1287" y1="81.0455" x2="26.3425" y2="82.4168" gradientUnits="userSpaceOnUse">
<stop stop-color="#FFE672"/>
<stop offset="1" stop-color="#FFAC0F"/>
</linearGradient>
<linearGradient id="paint13_linear_9121_84011" x1="36228.4" y1="-8614.98" x2="36360.3" y2="-8614.98" gradientUnits="userSpaceOnUse">
<stop stop-color="#FFE672"/>
<stop offset="1" stop-color="#FFAC0F"/>
</linearGradient>
<linearGradient id="paint14_linear_9121_84011" x1="38386.6" y1="-9180.61" x2="38534.2" y2="-9180.61" gradientUnits="userSpaceOnUse">
<stop stop-color="#FFE672"/>
<stop offset="1" stop-color="#FFAC0F"/>
</linearGradient>
<linearGradient id="paint15_linear_9121_84011" x1="39383.7" y1="-9441.09" x2="39538.8" y2="-9441.09" gradientUnits="userSpaceOnUse">
<stop stop-color="#FFE672"/>
<stop offset="1" stop-color="#FFAC0F"/>
</linearGradient>
<linearGradient id="paint16_linear_9121_84011" x1="39497.2" y1="-9532.9" x2="39653.1" y2="-9532.9" gradientUnits="userSpaceOnUse">
<stop stop-color="#FFE672"/>
<stop offset="1" stop-color="#FFAC0F"/>
</linearGradient>
<linearGradient id="paint17_linear_9121_84011" x1="38834.4" y1="-9422.88" x2="38985" y2="-9422.88" gradientUnits="userSpaceOnUse">
<stop stop-color="#FFE672"/>
<stop offset="1" stop-color="#FFAC0F"/>
</linearGradient>
<linearGradient id="paint18_linear_9121_84011" x1="37347.4" y1="-9110.41" x2="37486.6" y2="-9110.41" gradientUnits="userSpaceOnUse">
<stop stop-color="#FFE672"/>
<stop offset="1" stop-color="#FFAC0F"/>
</linearGradient>
<linearGradient id="paint19_linear_9121_84011" x1="34910.7" y1="-8594.85" x2="35032.3" y2="-8594.85" gradientUnits="userSpaceOnUse">
<stop stop-color="#FFE672"/>
<stop offset="1" stop-color="#FFAC0F"/>
</linearGradient>
<linearGradient id="paint20_linear_9121_84011" x1="31553.6" y1="-7796.82" x2="31652" y2="-7796.82" gradientUnits="userSpaceOnUse">
<stop stop-color="#FFE672"/>
<stop offset="1" stop-color="#FFAC0F"/>
</linearGradient>
<linearGradient id="paint21_linear_9121_84011" x1="26232.2" y1="-6531.21" x2="26299.6" y2="-6531.21" gradientUnits="userSpaceOnUse">
<stop stop-color="#FFE672"/>
<stop offset="1" stop-color="#FFAC0F"/>
</linearGradient>
<linearGradient id="paint22_linear_9121_84011" x1="32.665" y1="90.038" x2="13.7137" y2="75.0431" gradientUnits="userSpaceOnUse">
<stop stop-color="#FEDC0B"/>
<stop offset="1" stop-color="#FEB813"/>
</linearGradient>
<linearGradient id="paint23_linear_9121_84011" x1="35.1594" y1="89.7846" x2="20.9955" y2="82.652" gradientUnits="userSpaceOnUse">
<stop stop-color="#DBC354"/>
<stop offset="1" stop-color="#DB9000"/>
</linearGradient>
<linearGradient id="paint24_linear_9121_84011" x1="5563.93" y1="-6998.35" x2="5699.16" y2="-6839.82" gradientUnits="userSpaceOnUse">
<stop stop-color="#DBC354"/>
<stop offset="1" stop-color="#DB9000"/>
</linearGradient>
<radialGradient id="paint25_radial_9121_84011" cx="0" cy="0" r="1" gradientUnits="userSpaceOnUse" gradientTransform="translate(26.2218 86.3729) rotate(163.54) scale(3.99184)">
<stop stop-color="#FBB03B"/>
<stop offset="1"/>
</radialGradient>
<linearGradient id="paint26_linear_9121_84011" x1="5158.8" y1="-3866.15" x2="3762.31" y2="-5167.42" gradientUnits="userSpaceOnUse">
<stop offset="0.07" stop-color="#FFFFFE"/>
<stop offset="0.45" stop-color="#FEDC0B"/>
<stop offset="1" stop-color="#FEB813"/>
</linearGradient>
<linearGradient id="paint27_linear_9121_84011" x1="1987.57" y1="-4824.17" x2="576.055" y2="-5965.39" gradientUnits="userSpaceOnUse">
<stop offset="0.07" stop-color="#FFFFFE"/>
<stop offset="0.45" stop-color="#FEDC0B"/>
<stop offset="1" stop-color="#FEB813"/>
</linearGradient>
<linearGradient id="paint28_linear_9121_84011" x1="-927.508" y1="-5793.97" x2="-2324.87" y2="-6780.34" gradientUnits="userSpaceOnUse">
<stop offset="0.07" stop-color="#FFFFFE"/>
<stop offset="0.45" stop-color="#FEDC0B"/>
<stop offset="1" stop-color="#FEB813"/>
</linearGradient>
<linearGradient id="paint29_linear_9121_84011" x1="-3696.88" y1="-6553.63" x2="-5053.15" y2="-7382.46" gradientUnits="userSpaceOnUse">
<stop offset="0.07" stop-color="#FFFFFE"/>
<stop offset="0.45" stop-color="#FEDC0B"/>
<stop offset="1" stop-color="#FEB813"/>
</linearGradient>
<linearGradient id="paint30_linear_9121_84011" x1="-6310.53" y1="-7239.09" x2="-7616.52" y2="-7926.46" gradientUnits="userSpaceOnUse">
<stop offset="0.07" stop-color="white"/>
<stop offset="0.45" stop-color="#FEDC0B"/>
<stop offset="1" stop-color="#FEB813"/>
</linearGradient>
<linearGradient id="paint31_linear_9121_84011" x1="-8645.62" y1="-7893.81" x2="-9880.83" y2="-8460.8" gradientUnits="userSpaceOnUse">
<stop offset="0.07" stop-color="white"/>
<stop offset="0.45" stop-color="#FEDC0B"/>
<stop offset="1" stop-color="#FEB813"/>
</linearGradient>
<linearGradient id="paint32_linear_9121_84011" x1="-10839.7" y1="-8260.47" x2="-11995" y2="-8711.77" gradientUnits="userSpaceOnUse">
<stop offset="0.07" stop-color="white"/>
<stop offset="0.45" stop-color="#FEDC0B"/>
<stop offset="1" stop-color="#FEB813"/>
</linearGradient>
<linearGradient id="paint33_linear_9121_84011" x1="-12658.2" y1="-8713" x2="-13718.5" y2="-9071.64" gradientUnits="userSpaceOnUse">
<stop offset="0.07" stop-color="white"/>
<stop offset="0.45" stop-color="#FEDC0B"/>
<stop offset="1" stop-color="#FEB813"/>
</linearGradient>
<linearGradient id="paint34_linear_9121_84011" x1="-14390.1" y1="-8981.67" x2="-15363" y2="-9255.72" gradientUnits="userSpaceOnUse">
<stop offset="0.07" stop-color="white"/>
<stop offset="0.45" stop-color="#FEDC0B"/>
<stop offset="1" stop-color="#FEB813"/>
</linearGradient>
<linearGradient id="paint35_linear_9121_84011" x1="11053.8" y1="-9351.88" x2="11092.2" y2="-9449.32" gradientUnits="userSpaceOnUse">
<stop stop-color="#E0C895"/>
<stop offset="1" stop-color="#E08D3F"/>
</linearGradient>
<linearGradient id="paint36_linear_9121_84011" x1="2407.15" y1="1223.12" x2="2407.46" y2="1222.14" gradientUnits="userSpaceOnUse">
<stop stop-color="#FFE672"/>
<stop offset="1" stop-color="#FFAC0F"/>
</linearGradient>
<linearGradient id="paint37_linear_9121_84011" x1="3371.19" y1="1534.99" x2="3371.51" y2="1534.01" gradientUnits="userSpaceOnUse">
<stop stop-color="#FFE672"/>
<stop offset="1" stop-color="#FFAC0F"/>
</linearGradient>
<linearGradient id="paint38_linear_9121_84011" x1="3933.37" y1="1713.65" x2="3933.68" y2="1712.66" gradientUnits="userSpaceOnUse">
<stop stop-color="#FFE672"/>
<stop offset="1" stop-color="#FFAC0F"/>
</linearGradient>
<linearGradient id="paint39_linear_9121_84011" x1="4269.07" y1="1820.41" x2="4269.39" y2="1819.43" gradientUnits="userSpaceOnUse">
<stop stop-color="#FFE672"/>
<stop offset="1" stop-color="#FFAC0F"/>
</linearGradient>
<linearGradient id="paint40_linear_9121_84011" x1="4421.68" y1="1860.12" x2="4421.99" y2="1859.14" gradientUnits="userSpaceOnUse">
<stop stop-color="#FFE672"/>
<stop offset="1" stop-color="#FFAC0F"/>
</linearGradient>
<linearGradient id="paint41_linear_9121_84011" x1="4462.39" y1="1882.2" x2="4462.7" y2="1881.21" gradientUnits="userSpaceOnUse">
<stop stop-color="#FFE672"/>
<stop offset="1" stop-color="#FFAC0F"/>
</linearGradient>
<linearGradient id="paint42_linear_9121_84011" x1="4355.82" y1="1848.57" x2="4356.13" y2="1847.59" gradientUnits="userSpaceOnUse">
<stop stop-color="#FFE672"/>
<stop offset="1" stop-color="#FFAC0F"/>
</linearGradient>
<linearGradient id="paint43_linear_9121_84011" x1="4103.23" y1="1768.6" x2="4103.54" y2="1767.62" gradientUnits="userSpaceOnUse">
<stop stop-color="#FFE672"/>
<stop offset="1" stop-color="#FFAC0F"/>
</linearGradient>
<linearGradient id="paint44_linear_9121_84011" x1="3678.18" y1="1633.89" x2="3678.49" y2="1632.9" gradientUnits="userSpaceOnUse">
<stop stop-color="#FFE672"/>
<stop offset="1" stop-color="#FFAC0F"/>
</linearGradient>
<linearGradient id="paint45_linear_9121_84011" x1="2988.78" y1="1415.26" x2="2989.09" y2="1414.27" gradientUnits="userSpaceOnUse">
<stop stop-color="#FFE672"/>
<stop offset="1" stop-color="#FFAC0F"/>
</linearGradient>
<linearGradient id="paint46_linear_9121_84011" x1="1716.53" y1="1007.05" x2="1716.84" y2="1006.07" gradientUnits="userSpaceOnUse">
<stop stop-color="#FFE672"/>
<stop offset="1" stop-color="#FFAC0F"/>
</linearGradient>
<linearGradient id="paint47_linear_9121_84011" x1="2295.7" y1="-29162" x2="2439.75" y2="-29339" gradientUnits="userSpaceOnUse">
<stop stop-color="#FEDC0B"/>
<stop offset="1" stop-color="#FEB813"/>
</linearGradient>
<linearGradient id="paint48_linear_9121_84011" x1="8729.57" y1="-6204.3" x2="8691.31" y2="-6361.57" gradientUnits="userSpaceOnUse">
<stop stop-color="#DBC354"/>
<stop offset="1" stop-color="#DB9000"/>
</linearGradient>
<linearGradient id="paint49_linear_9121_84011" x1="4039.09" y1="-2234.16" x2="4039.49" y2="-2265.76" gradientUnits="userSpaceOnUse">
<stop stop-color="#DBC354"/>
<stop offset="1" stop-color="#DB9000"/>
</linearGradient>
<radialGradient id="paint50_radial_9121_84011" cx="0" cy="0" r="1" gradientUnits="userSpaceOnUse" gradientTransform="translate(6563.24 -8533.65) rotate(-162.93) scale(39.0702 39.0702)">
<stop stop-color="#FBB03B"/>
<stop offset="1"/>
</radialGradient>
<radialGradient id="paint51_radial_9121_84011" cx="0" cy="0" r="1" gradientUnits="userSpaceOnUse" gradientTransform="translate(3482.68 -4588.3) rotate(-163.103) scale(12.4542 12.4542)">
<stop stop-color="#FBB03B"/>
<stop offset="1"/>
</radialGradient>
<linearGradient id="paint52_linear_9121_84011" x1="60.002" y1="99.777" x2="60.002" y2="80.4979" gradientUnits="userSpaceOnUse">
<stop stop-color="#FEFEFD"/>
<stop offset="0.84" stop-color="#EBF3FF"/>
</linearGradient>
<linearGradient id="paint53_linear_9121_84011" x1="8.89697" y1="60.0016" x2="15.7683" y2="60.0016" gradientUnits="userSpaceOnUse">
<stop stop-color="#5278FF"/>
<stop offset="1" stop-color="#30B8FC"/>
</linearGradient>
<linearGradient id="paint54_linear_9121_84011" x1="53.8252" y1="13.0879" x2="58.7324" y2="13.0879" gradientUnits="userSpaceOnUse">
<stop stop-color="#FF8E00"/>
<stop offset="1" stop-color="#FFCF01"/>
</linearGradient>
<linearGradient id="paint55_linear_9121_84011" x1="1179.94" y1="270.219" x2="1212.3" y2="270.219" gradientUnits="userSpaceOnUse">
<stop stop-color="#5278FF"/>
<stop offset="1" stop-color="#30B8FC"/>
</linearGradient>
<radialGradient id="paint56_radial_9121_84011" cx="0" cy="0" r="1" gradientUnits="userSpaceOnUse" gradientTransform="translate(60.2504 104.432) scale(46.4178 70.0939)">
<stop stop-color="#D0DFF3"/>
<stop offset="0.99" stop-color="#D0DFF3"/>
</radialGradient>
<linearGradient id="paint57_linear_9121_84011" x1="8782.4" y1="5030.88" x2="7732.29" y2="7541.7" gradientUnits="userSpaceOnUse">
<stop stop-color="#5278FF"/>
<stop offset="1" stop-color="#30B8FC"/>
</linearGradient>
<linearGradient id="paint58_linear_9121_84011" x1="3793.15" y1="3827.66" x2="3793.15" y2="2288.17" gradientUnits="userSpaceOnUse">
<stop stop-color="#FF8E00"/>
<stop offset="1" stop-color="#FFCF01"/>
</linearGradient>
</defs>
</svg>
