<svg width="80" height="81" viewBox="0 0 80 81" fill="none" xmlns="http://www.w3.org/2000/svg">
<circle cx="47.3779" cy="40.122" r="27.622" fill="#CFE2FF"/>
<circle cx="47.3779" cy="40.122" r="27.622" fill="#F3F8FF"/>
<path opacity="0.9" d="M29.4158 16.7994L31.08 17.6482L29.4158 18.4971L28.5063 20.0503L27.5968 18.4971L25.9326 17.6482L27.5968 16.7994L28.5063 15.2461L29.4158 16.7994Z" fill="url(#paint0_linear_9609_93854)"/>
<path opacity="0.9" d="M17.6091 41.7593L18.3836 42.1835L17.6091 42.6101L17.1825 43.3845L16.7583 42.6101L15.9814 42.1835L16.7583 41.7593L17.1825 40.9824L17.6091 41.7593Z" fill="#FF9F1C"/>
<g clip-path="url(#clip0_9609_93854)">
<path d="M40.2041 65.3478H63.1433C66.2157 65.3478 68.707 62.8659 68.707 59.8051V29.9316H40.2041V65.3478Z" fill="#FFA833"/>
<path d="M24.5713 29.9316V60.3975C24.5713 63.131 26.7965 65.3478 29.5404 65.3478H40.2021V29.9316H24.5713Z" fill="#FD9D1A"/>
<path d="M68.7084 24.168H40.2041V34.8422H68.7084V24.168Z" fill="#B87E36"/>
<path d="M40.2021 24.168H24.5713V34.8422H40.2021V24.168Z" fill="#CC9349"/>
<path d="M70.5439 24.168H40.2041V32.7133H70.5439V24.168Z" fill="#FECA6F"/>
<path d="M42.0569 24.168H22.501V32.7133H42.0569V24.168Z" fill="#FD9200"/>
<path d="M33.9486 24.168H29.5742V31.1755H33.9486V24.168Z" fill="#F7E8D5"/>
<path d="M58.8334 24.168H54.459V31.1755H58.8334V24.168Z" fill="#F7E8D5"/>
<path d="M59.1265 38.9785H45.2471V45.7642H59.1265V38.9785Z" fill="#DAC4AE"/>
<path d="M52.3857 40.1641H46.3848V40.582H52.3857V40.1641Z" fill="#998376"/>
<path d="M53.8603 42.6406H47.8594V43.0586H53.8603V42.6406Z" fill="#998376"/>
<path d="M50.1089 41.3496H46.3848V41.7675H50.1089V41.3496Z" fill="#8A766A"/>
<path d="M54.6002 40.1816H53.0742V40.5996H54.6002V40.1816Z" fill="#998376"/>
<path d="M56.0944 42.625H54.5684V43.0429H56.0944V42.625Z" fill="#7F6D62"/>
<path d="M50.1089 43.9297H46.3848V44.3476H50.1089V43.9297Z" fill="#7F6D62"/>
<path d="M52.36 43.9297H50.834V44.3476H52.36V43.9297Z" fill="#7F6D62"/>
<path d="M53.6783 41.3496H52.9805V41.7675H53.6783V41.3496Z" fill="#7F6D62"/>
<path d="M47.108 42.6406H46.4102V43.0586H47.108V42.6406Z" fill="#7F6D62"/>
<path d="M60.5088 49.2949H45.6328V52.7493H60.5088V49.2949Z" fill="#F7E8D5"/>
<path d="M46.6927 49.7773H46.3818V52.2565H46.6927V49.7773Z" fill="#474646"/>
<path d="M47.9147 49.7773H47.1992V52.2565H47.9147V49.7773Z" fill="#474646"/>
<path d="M48.5981 49.7773H48.3252V52.2565H48.5981V49.7773Z" fill="#474646"/>
<path d="M49.3302 49.7773H49.041V52.2565H49.3302V49.7773Z" fill="#474646"/>
<path d="M50.8473 49.7773H49.9268V52.2565H50.8473V49.7773Z" fill="#474646"/>
<path d="M51.5986 49.7773H51.3936V52.2565H51.5986V49.7773Z" fill="#474646"/>
<path d="M53.1668 49.7773H51.9395V52.2565H53.1668V49.7773Z" fill="#474646"/>
<path d="M53.8478 49.7773H53.541V52.2565H53.8478V49.7773Z" fill="#474646"/>
<path d="M55.143 49.7773H54.5293V52.2565H55.143V49.7773Z" fill="#474646"/>
<path d="M55.8156 49.7773H55.4844V52.2565H55.8156V49.7773Z" fill="#474646"/>
<path d="M57.3928 49.7773H56.9502V52.2565H57.3928V49.7773Z" fill="#474646"/>
<path d="M57.8412 49.7773H57.666V52.2565H57.8412V49.7773Z" fill="#474646"/>
<path d="M59.0624 49.7773H58.3809V52.2565H59.0624V49.7773Z" fill="#474646"/>
<path d="M59.78 49.7773H59.541V52.2565H59.78V49.7773Z" fill="#474646"/>
</g>
<g clip-path="url(#clip1_9609_93854)">
<path d="M9.89781 36.1777C9.06908 36.1777 8.39648 36.8529 8.39648 37.6849C8.39648 38.5168 9.06908 39.192 9.89781 39.192H26.6196V36.1777H9.89781Z" fill="#F2994A"/>
<path d="M14.6087 55.4688C13.78 55.4688 13.1074 56.1439 13.1074 56.9759C13.1074 57.8078 13.78 58.483 14.6087 58.483H26.6194V55.4688H14.6087Z" fill="#F2994A"/>
<path d="M18.6127 44.6172C17.7839 44.6172 17.1113 45.2924 17.1113 46.1243C17.1113 46.9562 17.7839 47.6314 18.6127 47.6314H26.6192V44.6172H18.6127Z" fill="#F2994A"/>
<path d="M8.65273 55.4688H6.50133C5.67259 55.4688 5 56.1439 5 56.9759C5 57.8078 5.67259 58.483 6.50133 58.483H8.65273C9.48146 58.483 10.1541 57.8078 10.1541 56.9759C10.1541 56.1439 9.48297 55.4688 8.65273 55.4688Z" fill="#F2994A"/>
<path d="M14.1081 46.1243C14.1081 45.7279 13.9475 45.3391 13.6682 45.0588C13.389 44.7784 13.0016 44.6172 12.6068 44.6172C12.2119 44.6172 11.8246 44.7784 11.5454 45.0588C11.2646 45.3391 11.1055 45.7279 11.1055 46.1243C11.1055 46.5207 11.2646 46.9095 11.5454 47.1898C11.8246 47.4702 12.2119 47.6314 12.6068 47.6314C13.0016 47.6314 13.389 47.4702 13.6682 47.1898C13.9475 46.9095 14.1081 46.5207 14.1081 46.1243Z" fill="#F2994A"/>
</g>
<defs>
<linearGradient id="paint0_linear_9609_93854" x1="25.9326" y1="17.6482" x2="31.08" y2="17.6482" gradientUnits="userSpaceOnUse">
<stop stop-color="#5278FF"/>
<stop offset="1" stop-color="#30B8FC"/>
</linearGradient>
<clipPath id="clip0_9609_93854">
<rect width="48.0425" height="41.1793" fill="white" transform="translate(22.501 24.168)"/>
</clipPath>
<clipPath id="clip1_9609_93854">
<rect width="21.6191" height="22.3054" fill="white" transform="translate(5 36.1777)"/>
</clipPath>
</defs>
</svg>
