<svg width="275" height="200" viewBox="0 0 275 200" fill="none" xmlns="http://www.w3.org/2000/svg">
<g clip-path="url(#clip0_1_6009)">
<path d="M48.5312 147.28C47.9301 143.793 46.1868 140.667 44.9845 137.361C43.4215 133.093 44.203 129.666 45.285 125.458C46.9682 119.086 47.0284 111.993 43.7221 106.162C42.8204 104.599 41.6181 103.216 40.7164 101.593C39.6944 99.8497 39.2736 97.5654 39.0332 95.5816C38.8528 93.718 39.2135 91.7944 39.0933 89.8707C39.0332 88.2477 38.7326 86.6246 38.3118 85.0015C37.1095 80.553 33.9235 74.8422 28.6334 74.9023C22.3815 74.9624 20.7584 82.5368 20.9989 87.4662C21.1191 90.8927 21.7203 94.4995 20.518 97.8058C19.1955 101.353 15.7088 103.517 13.7251 106.703C10.7795 111.332 10.1783 117.403 12.2222 122.513C13.3644 125.398 15.8892 127.983 16.0094 131.229C16.1296 134.956 12.0419 137.181 10.1182 140.006C6.99229 144.695 6.81194 150.827 8.97606 155.876C14.4464 167.298 29.475 171.265 40.1152 164.833C40.2956 164.833 40.4759 164.833 40.5961 164.713C46.0064 160.625 49.7335 154.193 48.5312 147.28Z" fill="#BFEAFF"/>
<path d="M29.1141 175.954C29.2343 170.424 29.2944 164.953 29.3545 159.423C25.9881 155.696 23.2229 151.608 20.9987 147.099C20.6981 146.498 21.6599 146.138 21.9605 146.739C23.9443 150.766 26.4691 154.554 29.4146 157.92C29.4748 153.231 29.5349 148.602 29.595 143.913C29.5349 143.913 29.5349 143.853 29.4748 143.793C26.0483 139.946 23.1027 135.738 20.6981 131.169C20.3975 130.568 21.3593 130.207 21.6599 130.809C23.8841 135.017 26.5292 138.864 29.6551 142.411C29.7152 138.022 29.7753 133.634 29.7753 129.306C27.491 126.48 25.4471 123.475 23.6437 120.349C23.3431 119.808 24.1246 119.146 24.4252 119.748C25.9881 122.513 27.7916 125.218 29.7152 127.743C29.7753 123.354 29.7753 119.026 29.8354 114.638C29.7753 114.638 29.7152 114.578 29.6551 114.518C28.0921 112.714 26.6494 110.851 25.3269 108.927C24.9662 108.386 25.7477 107.785 26.1084 108.326C27.3107 110.009 28.5129 111.632 29.8354 113.195C29.8354 110.249 29.8956 107.364 29.8956 104.418C29.8956 103.757 30.9175 103.637 30.9175 104.298C30.9175 108.326 30.8574 112.353 30.7973 116.381C31.8793 114.518 33.0215 112.654 34.1637 110.851C34.5244 110.31 35.3058 110.911 34.9452 111.452C33.4423 113.736 32.0597 116.02 30.7372 118.425C30.677 121.972 30.677 125.518 30.6169 129.065C30.6169 129.125 30.6169 129.125 30.6169 129.185C30.6169 131.169 30.5568 133.153 30.5568 135.137C33.5024 131.83 36.0873 128.224 38.2514 124.256C38.552 123.715 39.5138 124.136 39.1532 124.677C36.7486 129.005 33.8631 133.033 30.4967 136.64C30.4366 141.689 30.3765 146.739 30.3164 151.849C32.7209 149.264 35.1255 146.679 37.5301 144.094C37.9509 143.613 38.7925 144.214 38.3116 144.695C35.6064 147.58 32.9614 150.466 30.2562 153.291C30.136 160.866 30.0158 168.44 29.8956 176.075C30.0759 176.736 29.054 176.616 29.1141 175.954Z" fill="#49A6D6"/>
<path d="M28.3926 35.1067H229.114" stroke="#BFEAFF" stroke-width="1.9411" stroke-miterlimit="10"/>
<path d="M216.851 183.348H40.5958C33.863 183.348 28.3325 177.878 28.3325 171.085V27.0514C28.3325 20.3186 33.8029 14.7881 40.5958 14.7881H216.851C223.583 14.7881 229.114 20.2585 229.114 27.0514V171.085C229.114 177.878 223.644 183.348 216.851 183.348Z" stroke="#BFEAFF" stroke-width="1.9411" stroke-miterlimit="10"/>
<path d="M48.1703 25.1879C48.1703 26.7508 46.9079 28.0132 45.3449 28.0132C43.7819 28.0132 42.5195 26.7508 42.5195 25.1879C42.5195 23.6249 43.7819 22.3625 45.3449 22.3625C46.9079 22.3625 48.1703 23.6249 48.1703 25.1879Z" stroke="#BFEAFF" stroke-width="1.9411" stroke-miterlimit="10"/>
<path d="M59.1712 25.1879C59.1712 26.7508 57.9088 28.0132 56.3459 28.0132C54.7829 28.0132 53.5205 26.7508 53.5205 25.1879C53.5205 23.6249 54.7829 22.3625 56.3459 22.3625C57.9088 22.3625 59.1712 23.6249 59.1712 25.1879Z" stroke="#BFEAFF" stroke-width="1.9411" stroke-miterlimit="10"/>
<path d="M70.1722 25.1879C70.1722 26.7508 68.9098 28.0132 67.3469 28.0132C65.7839 28.0132 64.5215 26.7508 64.5215 25.1879C64.5215 23.6249 65.7839 22.3625 67.3469 22.3625C68.9098 22.3625 70.1722 23.6249 70.1722 25.1879Z" stroke="#BFEAFF" stroke-width="1.9411" stroke-miterlimit="10"/>
<path d="M123.433 196.333C153.009 193.688 247.088 200.24 239.393 188.037C238.191 186.234 232.059 183.769 237.109 181.966C240.836 180.583 247.629 179.621 254.242 178.96C271.494 177.157 277.806 174.391 273.358 170.845C261.395 161.347 197.794 165.374 164.431 169.222C140.746 172.047 112.673 173.189 88.0258 171.987C68.7291 171.025 56.586 168.2 33.9831 169.763C13.905 171.085 11.0195 174.872 16.9708 178.118C20.3372 180.162 22.7418 181.004 16.1893 183.228C10.6588 185.392 0.920299 187.196 0.259042 189.6C0.138814 192.185 6.33058 194.59 18.1731 195.251C27.8515 195.792 36.6281 195.251 46.1863 195.491C67.4667 196.093 81.293 202.104 107.623 199.219C114.175 198.437 117.842 196.934 124.996 196.333" fill="#EEEEEE"/>
<path opacity="0.5" d="M241.738 178.299C255.023 178.299 265.784 177.096 265.784 175.594C265.784 174.091 255.023 172.888 241.738 172.888C228.453 172.888 217.692 174.091 217.692 175.594C217.692 177.096 228.453 178.299 241.738 178.299Z" fill="#A3A8AF"/>
<path d="M160.464 189.179H148.681C148.381 189.179 148.14 189.42 148.14 189.72C148.14 190.021 148.381 190.261 148.681 190.261H160.464C160.764 190.261 161.005 190.021 161.005 189.72C161.005 189.36 160.764 189.179 160.464 189.179Z" fill="#49A6D6"/>
<path d="M144.894 189.179H142.61C142.309 189.179 142.069 189.42 142.069 189.72C142.069 190.021 142.309 190.261 142.61 190.261H144.894C145.195 190.261 145.435 190.021 145.435 189.72C145.435 189.42 145.195 189.179 144.894 189.179Z" fill="#49A6D6"/>
<path d="M205.369 184.791C205.069 184.791 204.828 185.032 204.828 185.332V186.534C204.828 186.835 205.069 187.075 205.369 187.075C205.67 187.075 205.91 186.835 205.91 186.534V185.332C205.85 185.032 205.61 184.791 205.369 184.791Z" fill="#49A6D6"/>
<path d="M203.986 183.589H202.784C202.484 183.589 202.243 183.829 202.243 184.13C202.243 184.43 202.484 184.671 202.784 184.671H203.986C204.287 184.671 204.527 184.43 204.527 184.13C204.527 183.829 204.287 183.589 203.986 183.589Z" fill="#49A6D6"/>
<path d="M205.369 181.124C205.069 181.124 204.828 181.365 204.828 181.665V182.867C204.828 183.168 205.069 183.408 205.369 183.408C205.67 183.408 205.91 183.168 205.91 182.867V181.665C205.85 181.305 205.61 181.124 205.369 181.124Z" fill="#49A6D6"/>
<path d="M207.894 183.529H206.691C206.391 183.529 206.15 183.769 206.15 184.07C206.15 184.37 206.391 184.611 206.691 184.611H207.894C208.194 184.611 208.435 184.37 208.435 184.07C208.435 183.709 208.194 183.529 207.894 183.529Z" fill="#49A6D6"/>
<path d="M28.1524 10.8807C27.8518 10.8807 27.6113 11.1211 27.6113 11.4217V12.624C27.6113 12.9246 27.8518 13.165 28.1524 13.165C28.4529 13.165 28.6934 12.9246 28.6934 12.624V11.4217C28.6934 11.1211 28.4529 10.8807 28.1524 10.8807Z" fill="#49A6D6"/>
<path d="M26.7697 9.67839H25.5674C25.2668 9.67839 25.0264 9.91885 25.0264 10.2194C25.0264 10.52 25.2668 10.7604 25.5674 10.7604H26.7697C27.0702 10.7604 27.3107 10.52 27.3107 10.2194C27.3107 9.91885 27.0702 9.67839 26.7697 9.67839Z" fill="#49A6D6"/>
<path d="M28.1524 7.21371C27.8518 7.21371 27.6113 7.45416 27.6113 7.75473V8.95702C27.6113 9.25759 27.8518 9.49805 28.1524 9.49805C28.4529 9.49805 28.6934 9.25759 28.6934 8.95702V7.75473C28.6934 7.45416 28.4529 7.21371 28.1524 7.21371Z" fill="#49A6D6"/>
<path d="M30.6769 9.61827H29.4746C29.174 9.61827 28.9336 9.85873 28.9336 10.1593C28.9336 10.4599 29.174 10.7003 29.4746 10.7003H30.6769C30.9775 10.7003 31.2179 10.4599 31.2179 10.1593C31.2179 9.85873 30.9775 9.61827 30.6769 9.61827Z" fill="#49A6D6"/>
<path d="M104.077 5.41028H115.859C116.16 5.41028 116.4 5.16982 116.4 4.86925C116.4 4.56868 116.16 4.32822 115.859 4.32822H104.077C103.776 4.32822 103.536 4.56868 103.536 4.86925C103.536 5.22994 103.776 5.41028 104.077 5.41028Z" fill="#49A6D6"/>
<path d="M119.646 5.41028H121.93C122.231 5.41028 122.471 5.16982 122.471 4.86925C122.471 4.56868 122.231 4.32822 121.93 4.32822H119.646C119.345 4.32822 119.105 4.56868 119.105 4.86925C119.105 5.22994 119.345 5.41028 119.646 5.41028Z" fill="#49A6D6"/>
<path d="M109.607 1.32251C109.607 1.02194 109.847 0.781487 110.148 0.781487H111.651C111.951 0.781487 112.192 1.02194 112.192 1.32251C112.192 1.62309 111.951 1.86354 111.651 1.86354H110.148C109.847 1.86354 109.607 1.62309 109.607 1.32251ZM113.695 1.32251C113.695 1.02194 113.935 0.781487 114.236 0.781487H116.821C117.121 0.781487 117.362 1.02194 117.362 1.32251C117.362 1.62309 117.121 1.86354 116.821 1.86354H114.236C113.935 1.86354 113.695 1.62309 113.695 1.32251ZM118.865 1.32251C118.865 1.02194 119.105 0.781487 119.406 0.781487H121.99C122.291 0.781487 122.531 1.02194 122.531 1.32251C122.531 1.62309 122.291 1.86354 121.99 1.86354H119.406C119.105 1.86354 118.865 1.62309 118.865 1.32251Z" fill="#49A6D6"/>
<path d="M8.13429 51.037H19.9167C20.2172 51.037 20.4577 50.7965 20.4577 50.4959C20.4577 50.1954 20.2172 49.9549 19.9167 49.9549H8.13429C7.83372 49.9549 7.59326 50.1954 7.59326 50.4959C7.65338 50.7965 7.89383 51.037 8.13429 51.037Z" fill="#49A6D6"/>
<path d="M2.06251 51.037H4.34685C4.64742 51.037 4.88788 50.7965 4.88788 50.4959C4.88788 50.1954 4.64742 49.9549 4.34685 49.9549H2.06251C1.76194 49.9549 1.52148 50.1954 1.52148 50.4959C1.5816 50.7965 1.82206 51.037 2.06251 51.037Z" fill="#49A6D6"/>
<path d="M91.5124 0C91.5124 0 91.7529 1.74331 89.709 1.74331C89.709 1.74331 91.4523 1.74331 91.4523 3.42651C91.4523 3.42651 91.6326 2.104 93.2557 1.86354C93.1956 1.80343 91.813 2.104 91.5124 0Z" fill="#49A6D6"/>
<path d="M15.8889 74.4815C15.8889 74.4815 16.1293 76.2248 14.0854 76.2248C14.0854 76.2248 15.8288 76.2248 15.8288 77.908C15.8288 77.908 16.0091 76.5855 17.6322 76.345C17.5721 76.2849 16.1894 76.5855 15.8889 74.4815Z" fill="#49A6D6"/>
<path d="M9.99756 132.191C9.99756 131.229 10.779 130.448 11.7409 130.448C12.7027 130.448 13.4842 131.229 13.4842 132.191C13.4842 133.153 12.7027 133.934 11.7409 133.934C10.779 133.934 9.99756 133.153 9.99756 132.191ZM10.8392 132.191C10.8392 132.672 11.26 133.093 11.7409 133.093C12.2218 133.093 12.6426 132.672 12.6426 132.191C12.6426 131.71 12.2218 131.289 11.7409 131.289C11.26 131.35 10.8392 131.71 10.8392 132.191Z" fill="#49A6D6"/>
<path d="M138.943 24.9474H137.019C136.778 24.9474 136.598 25.1277 136.598 25.3682C136.598 25.6087 136.778 25.789 137.019 25.789H138.943C139.183 25.789 139.363 25.6087 139.363 25.3682C139.363 25.1277 139.183 24.9474 138.943 24.9474Z" fill="#49A6D6"/>
<path d="M151.867 24.9474H142.069C141.828 24.9474 141.648 25.1277 141.648 25.3682C141.648 25.6087 141.828 25.789 142.069 25.789H151.867C152.108 25.789 152.288 25.6087 152.288 25.3682C152.288 25.1879 152.108 24.9474 151.867 24.9474Z" fill="#49A6D6"/>
<path d="M147.238 28.3739C147.238 28.6144 147.058 28.7947 146.818 28.7947H145.615C145.375 28.7947 145.194 28.6144 145.194 28.3739C145.194 28.1335 145.375 27.9531 145.615 27.9531H146.818C147.058 27.9531 147.238 28.1335 147.238 28.3739ZM143.872 28.3739C143.872 28.6144 143.692 28.7947 143.451 28.7947H141.287C141.047 28.7947 140.866 28.6144 140.866 28.3739C140.866 28.1335 141.047 27.9531 141.287 27.9531H143.451C143.692 27.9531 143.872 28.1335 143.872 28.3739ZM139.604 28.3739C139.604 28.6144 139.424 28.7947 139.183 28.7947H137.019C136.778 28.7947 136.598 28.6144 136.598 28.3739C136.598 28.1335 136.778 27.9531 137.019 27.9531H139.183C139.363 27.9531 139.604 28.1335 139.604 28.3739Z" fill="#49A6D6"/>
<path d="M74.0795 90.7725C73.839 90.7725 73.6587 90.9528 73.6587 91.1933V92.2152C73.6587 92.4557 73.839 92.636 74.0795 92.636C74.32 92.636 74.5003 92.4557 74.5003 92.2152V91.1933C74.5003 90.9528 74.32 90.7725 74.0795 90.7725Z" fill="#49A6D6"/>
<path d="M72.9374 89.7505H71.9154C71.675 89.7505 71.4946 89.9309 71.4946 90.1713C71.4946 90.4118 71.675 90.5921 71.9154 90.5921H72.9374C73.1778 90.5921 73.3582 90.4118 73.3582 90.1713C73.3582 89.9309 73.1778 89.7505 72.9374 89.7505Z" fill="#49A6D6"/>
<path d="M74.0795 87.7066C73.839 87.7066 73.6587 87.887 73.6587 88.1274V89.1494C73.6587 89.3898 73.839 89.5702 74.0795 89.5702C74.32 89.5702 74.5003 89.3898 74.5003 89.1494V88.1274C74.5003 87.887 74.32 87.7066 74.0795 87.7066Z" fill="#49A6D6"/>
<path d="M76.1835 89.6904H75.1615C74.9211 89.6904 74.7407 89.8707 74.7407 90.1112C74.7407 90.3517 74.9211 90.532 75.1615 90.532H76.1835C76.4239 90.532 76.6043 90.3517 76.6043 90.1112C76.6043 89.8707 76.4239 89.6904 76.1835 89.6904Z" fill="#49A6D6"/>
<path d="M236.027 56.6276C235.787 56.6276 235.606 56.8079 235.606 57.0484V58.0703C235.606 58.3108 235.787 58.4911 236.027 58.4911C236.268 58.4911 236.448 58.3108 236.448 58.0703V57.0484C236.508 56.8079 236.268 56.6276 236.027 56.6276Z" fill="#49A6D6"/>
<path d="M234.945 55.6057H233.923C233.683 55.6057 233.502 55.786 233.502 56.0264C233.502 56.2669 233.683 56.4473 233.923 56.4473H234.945C235.186 56.4473 235.366 56.2669 235.366 56.0264C235.366 55.786 235.186 55.6057 234.945 55.6057Z" fill="#49A6D6"/>
<path d="M236.027 53.5618C235.787 53.5618 235.606 53.7421 235.606 53.9826V55.0045C235.606 55.245 235.787 55.4253 236.027 55.4253C236.268 55.4253 236.448 55.245 236.448 55.0045V53.9826C236.508 53.7421 236.268 53.5618 236.027 53.5618Z" fill="#49A6D6"/>
<path d="M238.191 55.5455H237.169C236.929 55.5455 236.749 55.7259 236.749 55.9663C236.749 56.2068 236.929 56.3871 237.169 56.3871H238.191C238.432 56.3871 238.612 56.2068 238.612 55.9663C238.612 55.7259 238.432 55.5455 238.191 55.5455Z" fill="#49A6D6"/>
<g opacity="0.6">
<path d="M206.62 175.387L219.065 173.785L218.787 138.474L206.342 139.24L206.62 175.387Z" fill="#A3A8AF"/>
<path d="M179.09 137.778L191.326 138.474L194.733 138.613L206.343 139.24L218.788 138.474L205.161 137.708L200.573 137.499L191.604 137.012L179.09 137.778Z" fill="#B4BAC1"/>
<path d="M179.438 173.716L206.622 175.387L206.343 139.24L204.397 139.101L179.16 137.778L179.438 173.716Z" fill="#CBCFD3"/>
<path d="M218.787 138.474C218.787 138.474 212.67 138.335 206.273 139.24L218.787 138.474Z" fill="#696E72"/>
<path d="M191.048 143.419L194.664 143.767V138.613L191.048 138.474V143.419Z" fill="#C0C3C9"/>
<path d="M191.048 138.474L194.664 138.614H194.733L205.161 137.708L200.573 137.499L191.326 138.474H191.048Z" fill="#E5E5E5"/>
<path d="M212.74 165.776L213.157 165.01L214.269 165.08L214.547 165.637L214.686 165.498L214.408 166.124L213.783 166.055L213.922 165.915L213.783 165.637H213.644L213.296 166.194L212.74 165.776Z" fill="#696E72"/>
<path d="M214.826 166.194L215.173 166.821L214.686 167.796L214.2 167.866V168.075L213.783 167.587L214.2 166.96V167.169H214.478L214.547 167.03L214.269 166.473L214.826 166.194Z" fill="#696E72"/>
<path d="M213.504 167.935L212.67 168.075L211.975 167.03L212.322 166.473L212.114 166.334L212.878 166.264L213.226 166.891L213.017 166.821L212.878 167.169V167.239H213.574L213.504 167.935Z" fill="#696E72"/>
<path d="M104.771 171.139L88.2242 170.094L86.9033 122.525L103.45 123.57L104.771 171.139Z" fill="#CBCFD3"/>
<path d="M139.462 121.689L123.333 122.525L118.744 122.734L103.449 123.57L86.9028 122.525L104.909 121.55L111.027 121.271L122.916 120.644L139.462 121.689Z" fill="#A3A8AF"/>
<path d="M140.852 169.258L104.77 171.139L103.449 123.57L106.022 123.43L139.462 121.689L139.949 138.962L140.852 169.258Z" fill="#7A8187"/>
<path d="M86.9033 122.525C86.9033 122.525 95.0375 122.316 103.45 123.57L86.9033 122.525Z" fill="#696E72"/>
<path d="M123.611 129.142L118.883 129.49V122.734L123.611 122.525V129.142Z" fill="#A3A8AF"/>
<path d="M123.612 122.525L118.884 122.734H118.745L104.91 121.55L111.028 121.272L123.334 122.525H123.612Z" fill="#898E93"/>
<path opacity="0.22" d="M100.321 122.246L106.022 123.43L137.029 121.758L125.21 121.062L100.321 122.246Z" fill="#757B7F"/>
<path opacity="0.22" d="M139.948 146.831L106.021 123.43L139.462 121.689L139.948 146.831Z" fill="#757B7F"/>
<path d="M95.0376 129.698C95.0376 129.698 103.172 127.33 108.525 126.564L95.0376 129.698Z" fill="#623533"/>
<path d="M95.1073 129.698H95.0378H94.9683L96.0806 181.028L96.2197 181.097L96.2892 181.028L95.1073 129.698Z" fill="#E1C0A7"/>
<path opacity="0.22" d="M139.185 165.497L119.996 143.28L119.927 128.375L139.115 130.743L139.185 165.497Z" fill="#623533"/>
<path opacity="0.22" d="M119.927 128.375L129.59 128.027L150.239 130.325L139.115 130.743L119.927 128.375Z" fill="#623533"/>
<path opacity="0.22" d="M146.832 129.211L154.688 130.186L186.598 128.862L168.105 127.33L146.832 129.211Z" fill="#623533"/>
<path d="M139.185 180.819L120.205 174.62L119.996 143.279L119.927 128.375L139.115 130.743L139.185 165.496V180.819Z" fill="#CBCFD3"/>
<path d="M186.599 128.862L164.491 129.768L159.347 129.977H158.512L139.115 130.743L119.927 128.375L144.608 127.469L151.143 127.26L165.117 126.773L186.599 128.862Z" fill="#898E93"/>
<path d="M186.599 128.862L186.042 175.735L139.184 180.819L139.115 130.743L186.599 128.862Z" fill="#A3A8AF"/>
<path d="M119.927 128.305C119.927 128.305 130.008 128.514 139.115 130.743L119.927 128.305Z" fill="#696E72"/>
<path d="M164.56 137.15L158.512 137.707V129.976L164.56 129.767V137.15Z" fill="#C0C3C9"/>
<path d="M164.561 129.767L159.347 129.976H158.512L144.608 127.469L151.143 127.26L164.491 129.767H164.561Z" fill="#B4BAC1"/>
<path d="M179.298 172.392C178.672 172.392 178.186 171.974 178.186 171.347C178.186 170.72 178.603 170.232 179.228 170.232C179.854 170.232 180.341 170.65 180.341 171.277C180.341 171.904 179.924 172.392 179.298 172.392ZM179.228 170.65C178.881 170.65 178.533 170.999 178.533 171.347C178.533 171.695 178.881 172.043 179.228 172.043C179.576 172.043 179.924 171.695 179.924 171.347C179.924 170.929 179.576 170.581 179.228 170.65Z" fill="#868A8E"/>
<path d="M181.435 171.043L176.989 171.216L177.005 171.633L181.451 171.46L181.435 171.043Z" fill="#868A8E"/>
<path d="M179.342 169.103L178.925 169.119L179.098 173.573L179.515 173.557L179.342 169.103Z" fill="#868A8E"/>
<path d="M181.523 174.412L177.212 174.551C176.656 174.551 176.169 174.133 176.169 173.576L176.03 169.258C176.03 168.701 176.447 168.213 177.004 168.213L181.314 168.074C181.87 168.074 182.357 168.492 182.357 169.049L182.496 173.367C182.565 173.924 182.079 174.412 181.523 174.412ZM177.004 168.492C176.586 168.492 176.239 168.84 176.308 169.258L176.447 173.576C176.447 173.994 176.795 174.342 177.212 174.273L181.523 174.133C181.94 174.133 182.287 173.785 182.218 173.367L182.079 169.049C182.079 168.631 181.731 168.283 181.314 168.353L177.004 168.492Z" fill="#868A8E"/>
<path d="M146.345 129.211L135.986 128.097L135.777 92.0196L146.067 90.9749L146.345 129.211Z" fill="#CBCFD3"/>
<path d="M180.759 91.3228L181.037 128.375L146.345 129.211L146.067 90.9745L180.759 91.3228Z" fill="#A3A8AF"/>
<path d="M161.571 91.1138V97.4517L162.475 97.0338L163.17 97.4517L164.074 97.0338L164.977 97.4517L166.159 97.0338L167.063 97.4517V91.1835L161.571 91.1138Z" fill="#C0C3C9"/>
<path d="M146.345 90.9745H146.067H145.72L146.067 129.141L146.345 129.211H146.832L146.345 90.9745Z" fill="#E5E5E5"/>
<path d="M169.635 126.146H169.843V125.45H169.982L169.774 125.032L169.496 125.45H169.635V126.146Z" fill="#A3A8AF"/>
<path d="M170.191 126.146H170.469V125.45H170.608L170.33 125.032L170.121 125.45H170.191V126.146Z" fill="#A3A8AF"/>
<path d="M170.608 126.216H169.426V126.425H170.608V126.216Z" fill="#A3A8AF"/>
<path d="M170.886 126.982H169.217C169.009 126.982 168.8 126.774 168.8 126.565V124.893C168.8 124.684 169.009 124.475 169.217 124.475H170.886C171.095 124.475 171.303 124.684 171.303 124.893V126.565C171.303 126.774 171.095 126.982 170.886 126.982ZM169.217 124.614C169.078 124.614 168.939 124.754 168.939 124.893V126.565C168.939 126.704 169.078 126.843 169.217 126.843H170.886C171.025 126.843 171.164 126.704 171.164 126.565V124.893C171.164 124.754 171.025 124.614 170.886 124.614H169.217Z" fill="#A3A8AF"/>
<path d="M174.085 125.38V124.962H173.528L173.598 125.101H173.528L173.598 125.31L173.389 125.032H173.528L173.459 124.892H173.32V125.31C173.32 125.519 173.459 125.728 173.667 125.728V126.355C173.598 126.355 173.459 126.355 173.389 126.425H174.015C173.946 126.355 173.876 126.355 173.737 126.355V125.728C173.946 125.728 174.085 125.589 174.085 125.38Z" fill="#A3A8AF"/>
<path d="M174.502 126.982H172.833C172.625 126.982 172.416 126.773 172.416 126.564V124.893C172.416 124.684 172.625 124.475 172.833 124.475H174.502C174.71 124.475 174.919 124.684 174.919 124.893V126.564C174.919 126.773 174.71 126.982 174.502 126.982ZM172.833 124.614C172.694 124.614 172.555 124.753 172.555 124.893V126.564C172.555 126.703 172.694 126.843 172.833 126.843H174.502C174.641 126.843 174.78 126.703 174.78 126.564V124.893C174.78 124.753 174.641 124.614 174.502 124.614H172.833Z" fill="#A3A8AF"/>
<path d="M178.117 126.982H176.448C176.24 126.982 176.031 126.773 176.031 126.564V124.893C176.031 124.684 176.24 124.475 176.448 124.475H178.117C178.326 124.475 178.534 124.684 178.534 124.893V126.564C178.534 126.773 178.395 126.982 178.117 126.982ZM176.448 124.614C176.309 124.614 176.17 124.753 176.17 124.893V126.564C176.17 126.703 176.309 126.843 176.448 126.843H178.117C178.256 126.843 178.395 126.703 178.395 126.564V124.893C178.395 124.753 178.256 124.614 178.117 124.614H176.448Z" fill="#A3A8AF"/>
<path d="M178.048 125.589H176.657L176.727 125.449C176.866 125.24 177.074 125.171 177.352 125.171C177.561 125.171 177.839 125.31 177.978 125.449L178.048 125.589Z" fill="#A3A8AF"/>
<path d="M177.213 126.494C177.074 126.494 177.005 126.355 177.005 126.285C177.005 126.285 177.005 126.215 177.074 126.215C177.144 126.215 177.144 126.215 177.144 126.285C177.144 126.355 177.213 126.424 177.283 126.424C177.352 126.424 177.422 126.355 177.422 126.285V125.519C177.422 125.519 177.422 125.449 177.492 125.449C177.561 125.449 177.561 125.449 177.561 125.519V126.285C177.422 126.355 177.352 126.494 177.213 126.494Z" fill="#A3A8AF"/>
<path d="M177.562 124.893H177.492V124.823L177.562 124.753L177.632 124.823C177.562 124.823 177.562 124.893 177.562 124.893Z" fill="#A3A8AF"/>
<path d="M177.839 124.962H177.77V124.892L177.839 124.823L177.909 124.892C177.909 124.892 177.909 124.962 177.839 124.962Z" fill="#A3A8AF"/>
<path d="M177.701 125.031H177.631V124.962L177.701 124.892L177.771 124.962C177.701 124.962 177.701 125.031 177.701 125.031Z" fill="#A3A8AF"/>
<path d="M106.856 122.943L100.321 122.316L100.182 99.6807L106.648 98.9842L106.856 122.943Z" fill="#CBCFD3"/>
<path d="M128.409 99.1928L128.617 121.898L106.857 122.942L106.648 98.9838L128.409 99.1928Z" fill="#A3A8AF"/>
<path d="M116.381 99.0534V103.093L116.937 102.814L117.354 103.093L117.91 102.814L118.536 103.093L119.231 102.814L119.787 103.093V99.1231L116.381 99.0534Z" fill="#C0C3C9"/>
<path d="M106.857 98.9838H106.648H106.439L106.648 122.942H106.857H107.135L106.857 98.9838Z" fill="#E5E5E5"/>
<path d="M68.8281 129.211C68.8281 129.211 76.4756 127.887 83.5669 126.146L68.8281 129.211Z" fill="#623533"/>
<path d="M108.525 126.564L95.0379 129.698L68.8279 129.211L63.6833 129.071L42.3398 128.723L57.4262 125.728L78.7001 126.077L83.4972 126.146L108.525 126.564Z" fill="#A3A8AF"/>
<path d="M95.0374 129.698L96.2193 181.098L43.9384 178.242L42.3394 128.723L95.0374 129.698Z" fill="#CBCFD3"/>
<path d="M95.0376 129.698L108.525 126.564L109.568 175.874L96.2195 181.098L95.0376 129.698Z" fill="#A3A8AF"/>
<path d="M68.8273 136.733L67.993 136.176L67.0197 136.733L65.9769 136.176L65.1426 136.733L64.4474 136.176L63.6826 136.733V129.072L68.8273 129.211V136.733Z" fill="#D9DEE2"/>
<path d="M83.4965 126.146L68.8273 129.211L63.6826 129.071L78.6995 126.076L83.4965 126.146Z" fill="#B4BAC1"/>
<path d="M50.6127 173.576C49.987 173.576 49.5698 173.019 49.5698 172.392C49.5698 171.765 50.126 171.347 50.7517 171.347C51.3774 171.347 51.7945 171.904 51.7945 172.531C51.725 173.158 51.2384 173.576 50.6127 173.576ZM50.6822 171.765C50.3346 171.765 49.987 172.044 49.987 172.462C49.987 172.81 50.265 173.158 50.6822 173.158C51.0298 173.158 51.3774 172.879 51.3774 172.462C51.3774 172.113 51.0993 171.765 50.6822 171.765Z" fill="#A3A8AF"/>
<path d="M48.4458 172.125L48.4268 172.543L52.8718 172.746L52.8908 172.328L48.4458 172.125Z" fill="#A3A8AF"/>
<path d="M50.5524 170.2L50.3491 174.653L50.7658 174.672L50.9692 170.219L50.5524 170.2Z" fill="#A3A8AF"/>
<path d="M52.6976 175.805L48.3872 175.596C47.831 175.596 47.3443 175.108 47.4139 174.481L47.6224 170.163C47.6224 169.606 48.1091 169.118 48.7348 169.188L53.0452 169.397C53.6014 169.397 54.088 169.885 54.0185 170.511L53.8099 174.829C53.7404 175.387 53.2538 175.805 52.6976 175.805ZM48.5957 169.467C48.1786 169.467 47.831 169.745 47.831 170.163L47.6224 174.481C47.6224 174.899 47.9005 175.247 48.3177 175.247L52.6281 175.456C53.0452 175.456 53.3928 175.178 53.3928 174.76L53.6014 170.442C53.6014 170.024 53.3233 169.676 52.9062 169.676L48.5957 169.467Z" fill="#A3A8AF"/>
<path d="M58.5386 174.69L60.0681 171.069L61.3195 174.83L59.929 174.064L58.5386 174.69Z" fill="#A3A8AF"/>
<path d="M62.014 176.223L57.7036 176.014C57.1474 176.014 56.6608 175.526 56.7303 174.899L56.9388 170.581C56.9388 170.024 57.4255 169.537 58.0512 169.606L62.3616 169.815C62.9178 169.815 63.4044 170.303 63.3349 170.929L63.1263 175.248C63.0568 175.805 62.5702 176.223 62.014 176.223ZM57.9817 169.885C57.5645 169.885 57.2169 170.163 57.2169 170.581L57.0084 174.899C57.0084 175.317 57.2865 175.665 57.7036 175.665L62.014 175.874C62.4311 175.874 62.7787 175.596 62.7787 175.178L62.9873 170.86C62.9873 170.442 62.7092 170.094 62.2921 170.094L57.9817 169.885Z" fill="#A3A8AF"/>
<path d="M68.2012 172.392L68.7573 171.556L70.0088 171.625L70.3564 172.252L70.5649 172.113L70.2173 172.809L69.3831 172.74L69.5916 172.601L69.4526 172.252H69.3135L68.8964 172.879L68.2012 172.392Z" fill="#A3A8AF"/>
<path d="M70.7032 172.949L71.1899 173.785L70.4947 174.899L69.7995 174.829V175.038L69.3823 174.411L69.869 173.785V173.993H70.2166L70.2861 173.924L70.008 173.227L70.7032 172.949Z" fill="#A3A8AF"/>
<path d="M69.0351 174.83L68.0617 174.76L67.436 173.646L67.8532 173.088L67.6446 172.949L68.4093 172.879L68.6874 173.646L68.5484 173.506L68.3398 173.854V173.994L69.1046 174.063L69.0351 174.83Z" fill="#A3A8AF"/>
<path d="M71.3299 176.64L67.0195 176.431C66.4633 176.431 65.9767 175.944 66.0462 175.317L66.2548 170.999C66.2548 170.442 66.7414 169.954 67.3671 170.024L71.6775 170.233C72.2337 170.233 72.7204 170.72 72.6508 171.347L72.4423 175.665C72.3727 176.223 71.8861 176.64 71.3299 176.64ZM67.2976 170.303C66.8805 170.303 66.5328 170.581 66.5328 170.999L66.3243 175.317C66.3243 175.735 66.6024 176.083 67.0195 176.083L71.3299 176.292C71.747 176.292 72.0947 176.014 72.0947 175.596L72.3032 171.278C72.3032 170.86 72.0251 170.511 71.608 170.511L67.2976 170.303Z" fill="#A3A8AF"/>
<path d="M77.5867 174.76L78.1429 174.83L78.2819 172.949H78.56L78.0038 171.835L77.3086 172.88L77.6562 172.949L77.5867 174.76Z" fill="#A3A8AF"/>
<path d="M79.0465 174.83L79.6722 174.899L79.7417 173.019H80.0893L79.4636 171.904L78.8379 172.949L79.1855 173.019L79.0465 174.83Z" fill="#A3A8AF"/>
<path d="M77.0718 175.016L77.0464 175.573L80.1718 175.715L80.1972 175.159L77.0718 175.016Z" fill="#A3A8AF"/>
<path d="M80.7147 177.059L76.4043 176.85C75.8481 176.85 75.3614 176.362 75.431 175.735L75.6395 171.417C75.6395 170.86 76.1262 170.372 76.7519 170.442L81.0623 170.651C81.6185 170.651 82.1051 171.139 82.0356 171.765L81.827 176.084C81.7575 176.641 81.2709 177.059 80.7147 177.059ZM76.6128 170.721C76.1957 170.721 75.8481 170.999 75.8481 171.417L75.6395 175.735C75.6395 176.153 75.9176 176.501 76.3348 176.501L80.6452 176.71C81.0623 176.71 81.4099 176.432 81.4099 176.014L81.6185 171.696C81.6185 171.278 81.3404 170.93 80.9232 170.93L76.6128 170.721Z" fill="#A3A8AF"/>
<path d="M53.1846 128.305L96.5666 129.35L108.525 126.564L95.0371 126.355L53.1846 128.305Z" fill="#898E93"/>
<path d="M97.1234 91.5319L102.546 85.8209H60.8327L52.7681 90.8355L97.1234 91.5319Z" fill="#E5E5E5"/>
<path d="M102.546 85.8206V86.2385L97.4014 91.5317L97.1929 91.3227L102.546 85.8206Z" fill="#A3A8AF"/>
<path d="M52.7678 90.6259L46.8584 87.1436H57.1477L62.2924 90.6259H52.7678Z" fill="#CBCFD3"/>
<path d="M46.8584 87.1436V87.4222L52.7678 90.8349L52.8373 90.6259L46.8584 87.1436Z" fill="#CBCFD3"/>
<path d="M87.2515 128.723L97.4018 126.634V91.5315L87.46 90.4171L87.2515 128.723Z" fill="#A3A8AF"/>
<path d="M52.7681 90.8353L53.1157 128.305L87.2513 128.723L87.4598 90.4174L52.7681 90.8353Z" fill="#CBCFD3"/>
<path d="M71.956 90.6264V96.9643L71.1217 96.5464L70.3569 96.9643L69.5227 96.5464L68.6189 96.9643L67.437 96.5464L66.5332 96.9643V90.696L71.956 90.6264Z" fill="#D9DEE2"/>
<path d="M87.2503 90.4171H87.4589L87.876 90.4868L87.5284 128.653L87.2503 128.723H86.7637L87.2503 90.4171Z" fill="#E5E5E5"/>
<path d="M52.7679 90.8352L46.0938 82.1989L83.5664 81.5025L87.4597 90.4173L52.7679 90.8352Z" fill="#A3A8AF"/>
<path d="M87.4595 90.4172L90.6575 81.1542L100.877 83.4525L97.4012 91.5316L87.4595 90.4172Z" fill="#898E93"/>
<path d="M46.0938 82.1989V81.8506L83.6359 81.2935L83.5664 81.5024L46.0938 82.1989Z" fill="#CBCFD3"/>
<path d="M87.4597 90.4169L83.5664 81.502L83.6359 81.2931L87.5987 90.2079L87.4597 90.4169Z" fill="#898E93"/>
<path d="M90.6575 81.1542H90.3794L87.4595 89.9994L87.5985 90.2083L90.6575 81.1542Z" fill="#CBCFD3"/>
<path d="M66.5335 90.6959L61.8755 81.9901H67.2982L71.9563 90.6263L66.5335 90.6959Z" fill="#B4BAC1"/>
<path d="M73.417 124.962L73.6951 124.475H74.3903L74.5294 124.823L74.6684 124.754L74.4598 125.102H74.0427L74.1817 125.032L74.0427 124.823H73.9732L73.7646 125.171L73.417 124.962Z" fill="#A3A8AF"/>
<path d="M74.7375 125.171L75.0156 125.659L74.668 126.286H74.3204V126.425L74.1118 126.077L74.3204 125.659V125.798H74.5289L74.5985 125.728L74.3899 125.38L74.7375 125.171Z" fill="#A3A8AF"/>
<path d="M73.9031 126.286H73.4165L73.0688 125.659L73.2079 125.311L73.1384 125.241H73.5555L73.6945 125.659L73.625 125.589L73.486 125.729L73.5555 125.798L73.9726 125.868L73.9031 126.286Z" fill="#A3A8AF"/>
<path d="M75.1541 127.261H72.8599C72.5818 127.261 72.3037 126.982 72.3037 126.704V124.196C72.3037 123.848 72.5818 123.639 72.8599 123.639H75.1541C75.4322 123.639 75.7103 123.918 75.7103 124.196V126.634C75.7103 126.982 75.5018 127.261 75.1541 127.261ZM72.9294 123.779C72.7208 123.779 72.5123 123.988 72.5123 124.196V126.634C72.5123 126.843 72.7208 127.052 72.9294 127.052H75.2237C75.4322 127.052 75.6408 126.843 75.6408 126.634V124.196C75.6408 123.988 75.4322 123.779 75.2237 123.779H72.9294Z" fill="#A3A8AF"/>
<path d="M78.4222 126.078H78.7699V124.963H78.9089L78.5613 124.336L78.2832 124.963H78.4222V126.078Z" fill="#A3A8AF"/>
<path d="M79.1874 126.077H79.535V124.963H79.674L79.396 124.336L79.0483 124.963H79.1874V126.077Z" fill="#A3A8AF"/>
<path d="M79.8126 126.147H78.144V126.495H79.8126V126.147Z" fill="#A3A8AF"/>
<path d="M80.0905 127.261H77.8658C77.5877 127.261 77.3096 126.982 77.3096 126.704V124.196C77.3096 123.848 77.5877 123.639 77.8658 123.639H80.16C80.4381 123.639 80.7162 123.918 80.7162 124.196V126.634C80.6467 126.982 80.4381 127.261 80.0905 127.261ZM77.8658 123.778C77.6572 123.778 77.4486 123.987 77.4486 124.196V126.634C77.4486 126.843 77.6572 127.052 77.8658 127.052H80.16C80.3686 127.052 80.5771 126.843 80.5771 126.634V124.196C80.5771 123.987 80.3686 123.778 80.16 123.778H77.8658Z" fill="#A3A8AF"/>
<path d="M84.4698 124.893V124.336H83.705L83.7746 124.614H83.6355L83.705 124.963L83.4269 124.545H83.6355L83.566 124.405H83.3574V124.963C83.3574 125.241 83.566 125.52 83.8441 125.589V126.495C83.705 126.495 83.6355 126.564 83.4965 126.564H84.4003C84.2612 126.495 84.1917 126.495 84.0526 126.495V125.589C84.2612 125.45 84.4698 125.241 84.4698 124.893Z" fill="#A3A8AF"/>
<path d="M85.0267 127.261H82.7325C82.4544 127.261 82.1763 126.982 82.1763 126.704V124.196C82.1763 123.848 82.4544 123.639 82.7325 123.639H85.0267C85.3048 123.639 85.5829 123.918 85.5829 124.196V126.634C85.5829 126.982 85.3743 127.261 85.0267 127.261ZM82.7325 123.778C82.5239 123.778 82.3153 123.987 82.3153 124.196V126.634C82.3153 126.843 82.5239 127.052 82.7325 127.052H85.0267C85.2353 127.052 85.4438 126.843 85.4438 126.634V124.196C85.4438 123.987 85.2353 123.778 85.0267 123.778H82.7325Z" fill="#A3A8AF"/>
</g>
<path d="M228.332 24.8272H238.131C238.371 24.8272 238.552 24.6468 238.552 24.4064C238.552 24.1659 238.371 23.9856 238.131 23.9856H228.332C228.092 23.9856 227.912 24.1659 227.912 24.4064C227.912 24.6468 228.092 24.8272 228.332 24.8272Z" fill="#49A6D6"/>
<path d="M223.283 24.8272H225.207C225.447 24.8272 225.628 24.6468 225.628 24.4064C225.628 24.1659 225.447 23.9856 225.207 23.9856H223.283C223.043 23.9856 222.862 24.1659 222.862 24.4064C222.862 24.6468 223.043 24.8272 223.283 24.8272Z" fill="#49A6D6"/>
<path d="M268.489 135.918C267.647 130.809 265.062 126.24 263.319 121.431C261.095 115.239 262.117 110.249 263.8 104.058C266.265 94.8001 266.325 84.4004 261.516 75.8641C260.193 73.5197 258.45 71.5359 257.127 69.1915C255.684 66.6667 255.023 63.3003 254.723 60.4148C254.422 57.6495 254.963 54.8843 254.843 52.119C254.723 49.7145 254.362 47.37 253.761 45.0255C252.017 38.5332 247.389 30.1773 239.634 30.2374C230.497 30.3577 228.152 41.3586 228.453 48.5723C228.633 53.5618 229.535 58.8518 227.731 63.7211C225.748 68.951 220.698 72.0769 217.752 76.7057C213.484 83.4986 212.583 92.3354 215.588 99.7896C217.271 103.998 220.999 107.785 221.119 112.474C221.299 117.944 215.288 121.19 212.583 125.218C208.014 132.071 207.773 140.968 210.959 148.422C218.895 165.074 240.896 170.845 256.466 161.527C256.706 161.587 256.947 161.527 257.187 161.347C264.762 155.335 270.172 145.957 268.489 135.918Z" fill="#8FD8FC"/>
<path d="M240.055 177.698C240.175 169.642 240.296 161.647 240.416 153.592C235.486 148.182 231.459 142.17 228.213 135.678C227.792 134.836 229.174 134.295 229.595 135.137C232.541 141.028 236.148 146.498 240.476 151.428C240.596 144.635 240.656 137.842 240.716 130.989C240.656 130.929 240.596 130.929 240.536 130.869C235.486 125.278 231.218 119.146 227.672 112.474C227.251 111.632 228.633 111.091 229.054 111.933C232.3 118.004 236.208 123.655 240.716 128.885C240.776 122.513 240.837 116.141 240.897 109.769C237.59 105.621 234.585 101.292 232 96.6637C231.519 95.8221 232.721 94.9203 233.202 95.7619C235.486 99.8497 238.071 103.697 240.957 107.364C241.017 100.992 241.077 94.6799 241.137 88.3078C241.077 88.2477 240.957 88.1875 240.897 88.1274C238.672 85.4824 236.568 82.7773 234.585 79.9519C234.044 79.1704 235.246 78.2687 235.787 79.0502C237.47 81.4548 239.334 83.8593 241.197 86.1437C241.257 81.8756 241.257 77.6074 241.317 73.3994C241.317 72.4376 242.82 72.2573 242.76 73.2191C242.7 79.1103 242.7 85.0015 242.64 90.8326C244.203 88.1274 245.826 85.4223 247.569 82.8374C248.11 82.0559 249.253 82.9576 248.772 83.7391C246.608 87.0454 244.564 90.4118 242.64 93.8984C242.58 99.0682 242.52 104.238 242.52 109.408C242.52 109.468 242.52 109.528 242.52 109.588C242.52 112.474 242.46 115.359 242.46 118.245C246.788 113.375 250.575 108.145 253.701 102.435C254.182 101.593 255.504 102.194 255.023 103.036C251.537 109.348 247.329 115.179 242.4 120.469C242.339 127.863 242.219 135.197 242.099 142.591C245.646 138.804 249.132 135.077 252.679 131.289C253.34 130.628 254.482 131.47 253.821 132.191C249.914 136.399 246.006 140.547 242.039 144.755C241.919 155.816 241.738 166.877 241.558 177.938C241.498 178.9 240.055 178.659 240.055 177.698Z" fill="#49A6D6"/>
</g>
<defs>
<clipPath id="clip0_1_6009">
<rect width="274.482" height="200" fill="white" transform="translate(0.259277)"/>
</clipPath>
</defs>
</svg>
