<svg width="80" height="80" viewBox="0 0 80 80" fill="none" xmlns="http://www.w3.org/2000/svg">
  <circle cx="38.1442" cy="40.1442" r="33.1442" fill="#CFE2FF"/>
  <circle cx="38.1442" cy="40.1442" r="33.1442" fill="#F3F8FF"/>
  <path opacity="0.9" d="M21.9442 12.1577L23.9411 13.1763L21.9442 14.1949L20.8529 16.0587L19.7616 14.1949L17.7646 13.1763L19.7616 12.1577L20.8529 10.2939L21.9442 12.1577Z" fill="url(#paint0_linear_9601_73594)"/>
  <path opacity="0.9" d="M71.672 37.6498L75.0002 39.3232L71.672 40.9965L69.8531 44.0585L68.0343 40.9965L64.7061 39.3232L68.0343 37.6498L69.8531 34.5879L71.672 37.6498Z" fill="url(#paint1_linear_9601_73594)"/>
  <path opacity="0.9" d="M7.77675 42.109L8.70608 42.6179L7.77675 43.1298L7.26491 44.0591L6.75592 43.1298L5.82373 42.6179L6.75592 42.109L7.26491 41.1768L7.77675 42.109Z" fill="#FF9F1C"/>
  <path d="M51.5295 63.7921V22.679C51.5295 20.6233 49.845 18.9414 47.7862 18.9414H14.0963C12.0375 18.9414 10.353 20.6233 10.353 22.679V63.7921C10.353 65.8477 12.0375 67.5296 14.0963 67.5296H47.7862C49.8534 67.5296 51.5295 65.8562 51.5295 63.7921Z" fill="#5072F1"/>
  <path d="M46.8854 22.6475H14.9965C14.4785 22.6475 14.0586 23.0664 14.0586 23.5833V62.8881C14.0586 63.4049 14.4785 63.8239 14.9965 63.8239H46.8854C47.4034 63.8239 47.8233 63.4049 47.8233 62.8881V23.5833C47.8233 23.0664 47.4034 22.6475 46.8854 22.6475Z" fill="#F8F8FF"/>
  <path d="M38.7646 19.0785V21.9608C38.7646 23.0177 37.9076 23.8824 36.8602 23.8824H25.4337C24.3863 23.8824 23.5293 23.0177 23.5293 21.9608V19.0785C23.5293 18.5501 23.9578 18.1177 24.4815 18.1177H27.4619C27.8809 16.4555 29.3758 15.2354 31.1469 15.2354C32.918 15.2354 34.413 16.4555 34.832 18.1177H37.8124C38.3361 18.1177 38.7646 18.5501 38.7646 19.0785Z" fill="#A2C1FA"/>
  <path d="M64.706 42V67.3048C64.706 68.3342 63.8559 69.1765 62.8168 69.1765H34.4777C33.4386 69.1765 32.5884 68.3342 32.5884 67.3048V42H64.706Z" fill="#FFA833"/>
  <path d="M64.4172 41.6016L58.8116 36.104C58.6284 35.9242 58.3809 35.8232 58.122 35.8232H39.1714C38.9126 35.8232 38.6642 35.9242 38.4818 36.104L32.8763 41.6016C32.2613 42.2048 32.6968 43.235 33.5659 43.235H63.7285C64.5976 43.235 65.0321 42.2048 64.4172 41.6016Z" fill="#FECA6F"/>
  <path d="M53.5883 43.0526V47.5363C53.5883 47.8899 53.164 48.1768 52.6412 48.1768H45.0647C44.542 48.1768 44.1177 47.8899 44.1177 47.5363V43.0526L45.0647 42.4121H52.6412L53.5883 43.0526Z" fill="#EBD7BD"/>
  <path d="M53.5883 43.235L50.7471 35.8232H46.9589L44.1177 43.235H53.5883Z" fill="#F7E8D5"/>
  <path d="M22.5736 35.7108C22.3268 35.7108 22.0884 35.614 21.9127 35.4381L20.0432 33.5767C19.6777 33.2128 19.6777 32.6246 20.0432 32.2607C20.4087 31.8968 20.9994 31.8968 21.3649 32.2607L22.4287 33.3199L25.5349 28.6803C25.8209 28.2522 26.4005 28.1368 26.8314 28.4225C27.2614 28.7082 27.3773 29.2853 27.0904 29.7134L23.3513 35.2976C23.1961 35.5294 22.9437 35.6801 22.6661 35.7071C22.6353 35.7099 22.6044 35.7108 22.5736 35.7108Z" fill="#4DE78D"/>
  <path d="M22.5736 46.8788C22.3268 46.8788 22.0884 46.782 21.9127 46.6061L20.0432 44.7447C19.6777 44.3808 19.6777 43.7926 20.0432 43.4287C20.4087 43.0648 20.9994 43.0648 21.3649 43.4287L22.4287 44.4878L25.5349 39.8483C25.8209 39.4202 26.4005 39.3048 26.8314 39.5905C27.2614 39.8762 27.3773 40.4532 27.0904 40.8814L23.3513 46.4656C23.1961 46.6973 22.9437 46.8481 22.6661 46.8751C22.6353 46.8779 22.6044 46.8788 22.5736 46.8788Z" fill="#4DE78D"/>
  <path d="M22.5736 58.0473C22.3268 58.0473 22.0884 57.9506 21.9127 57.7746L20.0432 55.9132C19.6777 55.5493 19.6777 54.9611 20.0432 54.5972C20.4087 54.2333 20.9994 54.2333 21.3649 54.5972L22.4287 55.6564L25.5349 51.0168C25.8209 50.5887 26.4005 50.4742 26.8314 50.759C27.2614 51.0447 27.3773 51.6218 27.0904 52.0499L23.3513 57.6341C23.1961 57.8659 22.9437 58.0166 22.6661 58.0436C22.6353 58.0464 22.6044 58.0473 22.5736 58.0473Z" fill="#4DE78D"/>
  <path d="M46.7316 56.4121H35.8818V61.7166H46.7316V56.4121Z" fill="#DAC4AE"/>
  <path d="M41.4625 57.3379H36.7715V57.6646H41.4625V57.3379Z" fill="#998376"/>
  <path d="M42.6148 59.2744H37.9238V59.6011H42.6148V59.2744Z" fill="#998376"/>
  <path d="M39.6827 58.2656H36.7715V58.5923H39.6827V58.2656Z" fill="#8A766A"/>
  <path d="M43.1929 57.3516H42V57.6783H43.1929V57.3516Z" fill="#998376"/>
  <path d="M44.3619 59.2627H43.1689V59.5894H44.3619V59.2627Z" fill="#7F6D62"/>
  <path d="M39.6827 60.2832H36.7715V60.6099H39.6827V60.2832Z" fill="#7F6D62"/>
  <path d="M41.4419 60.2832H40.249V60.6099H41.4419V60.2832Z" fill="#7F6D62"/>
  <path d="M42.4728 58.2656H41.9272V58.5923H42.4728V58.2656Z" fill="#7F6D62"/>
  <path d="M37.337 59.2744H36.7915V59.6011H37.337V59.2744Z" fill="#7F6D62"/>
  <path d="M47.8129 64.4766H36.1841V67.1769H47.8129V64.4766Z" fill="#F7E8D5"/>
  <path d="M37.0131 64.8545H36.77V66.7925H37.0131V64.8545Z" fill="#474646"/>
  <path d="M37.968 64.8545H37.4087V66.7925H37.968V64.8545Z" fill="#474646"/>
  <path d="M38.5019 64.8545H38.2886V66.7925H38.5019V64.8545Z" fill="#474646"/>
  <path d="M39.0742 64.8545H38.8481V66.7925H39.0742V64.8545Z" fill="#474646"/>
  <path d="M40.2606 64.8545H39.541V66.7925H40.2606V64.8545Z" fill="#474646"/>
  <path d="M40.8478 64.8545H40.6875V66.7925H40.8478V64.8545Z" fill="#474646"/>
  <path d="M42.0732 64.8545H41.1138V66.7925H42.0732V64.8545Z" fill="#474646"/>
  <path d="M42.6061 64.8545H42.3662V66.7925H42.6061V64.8545Z" fill="#474646"/>
  <path d="M43.6184 64.8545H43.1387V66.7925H43.6184V64.8545Z" fill="#474646"/>
  <path d="M44.1437 64.8545H43.8848V66.7925H44.1437V64.8545Z" fill="#474646"/>
  <path d="M45.3767 64.8545H45.0308V66.7925H45.3767V64.8545Z" fill="#474646"/>
  <path d="M45.7272 64.8545H45.5903V66.7925H45.7272V64.8545Z" fill="#474646"/>
  <path d="M46.6827 64.8545H46.1499V66.7925H46.6827V64.8545Z" fill="#474646"/>
  <path d="M47.2429 64.8545H47.0562V66.7925H47.2429V64.8545Z" fill="#474646"/>
  <defs>
  <linearGradient id="paint0_linear_9601_73594" x1="17.7646" y1="13.1763" x2="23.9411" y2="13.1763" gradientUnits="userSpaceOnUse">
  <stop stop-color="#5278FF"/>
  <stop offset="1" stop-color="#30B8FC"/>
  </linearGradient>
  <linearGradient id="paint1_linear_9601_73594" x1="64.7061" y1="39.3232" x2="75.0002" y2="39.3232" gradientUnits="userSpaceOnUse">
  <stop stop-color="#5278FF"/>
  <stop offset="1" stop-color="#30B8FC"/>
  </linearGradient>
  </defs>
  </svg>
