<svg width="80" height="81" viewBox="0 0 80 81" fill="none" xmlns="http://www.w3.org/2000/svg">
<circle cx="42.2386" cy="40.2614" r="32.7614" fill="#CFE2FF"/>
<circle cx="42.2386" cy="40.2614" r="32.7614" fill="#F3F8FF"/>
<path opacity="0.9" d="M20.9346 12.5984L22.9084 13.6052L20.9346 14.612L19.8559 16.4542L18.7772 14.612L16.8033 13.6052L18.7772 12.5984L19.8559 10.7561L20.9346 12.5984Z" fill="url(#paint0_linear_9599_61605)"/>
<path opacity="0.9" d="M6.93047 42.2033L7.84907 42.7064L6.93047 43.2123L6.42453 44.1309L5.92143 43.2123L5 42.7064L5.92143 42.2033L6.42453 41.2819L6.93047 42.2033Z" fill="#FF9F1C"/>
<g clip-path="url(#clip0_9599_61605)">
<path d="M11.9753 61.6676V26.7457L40.2063 13.3892L68.4373 26.7457V61.111C68.4373 63.6474 66.5069 65.7024 64.1243 65.7024H15.7656C13.6718 65.7024 11.9753 63.8964 11.9753 61.6676Z" fill="#5072F1"/>
<path d="M17.2032 35.6501H38.1151V65.7024H17.2032V35.6501Z" fill="#89A8F5"/>
<path d="M42.2975 43.4414H63.2094V65.7023H42.2975V43.4414Z" fill="#3D44D1"/>
<path d="M68.4373 31.1979H11.9753V26.7457L40.2063 13.3892L68.4373 26.7457V31.1979Z" fill="#6E8BEB"/>
<path d="M40.2063 57.911H48.5711V65.7023H40.2063V57.911Z" fill="#F7C04A"/>
<path d="M43.3431 59.024H45.4343V62.3632H43.3431V59.024Z" fill="#F7DFA1"/>
<path d="M48.571 57.911H56.9358V65.7023H48.571V57.911Z" fill="#FECA6F"/>
<path d="M51.7078 59.024H53.799V62.3632H51.7078V59.024Z" fill="#F7DFA1"/>
<path d="M56.9358 57.911H65.3005V65.7023H56.9358V57.911Z" fill="#FECA6F"/>
<path d="M60.0726 59.024H62.1638V62.3632H60.0726V59.024Z" fill="#F7DFA1"/>
<path d="M40.2063 50.1198H48.5711V57.9111H40.2063V50.1198Z" fill="#FECA6F"/>
<path d="M43.3431 50.1198H45.4343V53.4589H43.3431V50.1198Z" fill="#F7DFA1"/>
<path d="M48.571 50.1198H56.9358V57.9111H48.571V50.1198Z" fill="#FECA6F"/>
<path d="M51.7078 50.1198H53.799V53.4589H51.7078V50.1198Z" fill="#F7DFA1"/>
<path d="M56.9358 50.1198H65.3005V57.9111H56.9358V50.1198Z" fill="#FECA6F"/>
<path d="M60.0726 50.1198H62.1638V53.4589H60.0726V50.1198Z" fill="#F7DFA1"/>
<path d="M42.2975 35.6501H63.2094V43.4415H42.2975V35.6501Z" fill="#89A8F5"/>
<path d="M45.4343 38.9893H47.5255V41.2154H45.4343V38.9893Z" fill="#6E8BEB"/>
<path d="M49.6166 38.9893H60.0726V41.2154H49.6166V38.9893Z" fill="#6E8BEB"/>
<path d="M20.34 38.9893H22.4312V41.2154H20.34V38.9893Z" fill="#6E8BEB"/>
<path d="M24.5224 38.9893H34.9783V41.2154H24.5224V38.9893Z" fill="#6E8BEB"/>
<path d="M39.1607 15.6152H41.2519V27.8588H39.1607V15.6152Z" fill="#5771E5"/>
<path d="M34.9783 16.7283H37.0695V27.8587H34.9783V16.7283Z" fill="#5771E5"/>
<path d="M43.3431 16.7283H45.4343V27.8587H43.3431V16.7283Z" fill="#5771E5"/>
<path d="M30.796 17.8413H32.8871V27.8587H30.796V17.8413Z" fill="#5771E5"/>
<path d="M26.6136 20.0674H28.7048V27.8587H26.6136V20.0674Z" fill="#5771E5"/>
<path d="M22.4312 22.2935H24.5224V27.8587H22.4312V22.2935Z" fill="#5771E5"/>
<path d="M18.2488 23.4066H20.34V27.8588H18.2488V23.4066Z" fill="#5771E5"/>
<path d="M47.5255 17.8413H49.6166V27.8587H47.5255V17.8413Z" fill="#5771E5"/>
<path d="M51.7078 20.0674H53.799V27.8587H51.7078V20.0674Z" fill="#5771E5"/>
<path d="M55.8902 22.2935H57.9814V27.8587H55.8902V22.2935Z" fill="#5771E5"/>
<path d="M60.0726 23.4066H62.1638V27.8588H60.0726V23.4066Z" fill="#5771E5"/>
<path d="M40.2063 15.6153L67.3918 27.8588H70.5285V24.5196L40.2063 11.1631L9.88409 24.5196V27.8588H13.0209L40.2063 15.6153Z" fill="#A2C1FA"/>
<path d="M57.9814 56.798V50.1198H55.8902V56.798H49.6166V50.1198H47.5255V56.798H40.2063V59.0241H47.5255V65.7024H49.6166V59.0241H55.8902V65.7024H57.9814V59.0241H65.3006V56.798H57.9814Z" fill="#FD9D1A"/>
</g>
<defs>
<linearGradient id="paint0_linear_9599_61605" x1="16.8033" y1="13.6052" x2="22.9084" y2="13.6052" gradientUnits="userSpaceOnUse">
<stop stop-color="#5278FF"/>
<stop offset="1" stop-color="#30B8FC"/>
</linearGradient>
<clipPath id="clip0_9599_61605">
<rect width="60.6444" height="54.5393" fill="white" transform="translate(9.88409 11.1631)"/>
</clipPath>
</defs>
</svg>
