<svg version="1.1" xmlns="http://www.w3.org/2000/svg" xmlns:xlink="http://www.w3.org/1999/xlink" x="0px" y="0px"
	 width="1303.01px" height="804.08px" viewBox="0 0 1303.01 804.08" enable-background="new 0 0 1303.01 804.08"
	 xml:space="preserve">
<g id="Layer_1">
	<path fill="#F6D2B0" d="M452.104,27.719c0.084,0.057,0.158,0.1,0.241,0.154c0.152,0.041,0.244,0.06,0.244,0.06
		s-0.781-0.396-1.727-0.617c0.602,0.288,1.129,0.46,1.438,0.545C452.185,27.777,452.104,27.719,452.104,27.719z"/>
	<path fill="#F6D2B0" d="M454.352,17.432c0.203,0.154,0.325,0.232,0.325,0.232S454.557,17.57,454.352,17.432z"/>
	<path fill="#E9B88E" d="M452.3,27.86c0.016,0.004,0.031,0.009,0.045,0.013c-0.083-0.055-0.157-0.098-0.241-0.154
		C452.104,27.719,452.185,27.777,452.3,27.86z"/>
	<g>
		<g>
			<path fill="#EAEAEA" d="M32.052,527.432c-1.057,0-1.911-0.857-1.911-1.909l0,0c0-1.058,0.854-1.911,1.911-1.911l0,0h1248.752
				c1.055,0,1.91,0.854,1.91,1.911l0,0c0,1.052-0.855,1.909-1.91,1.909l0,0H32.052L32.052,527.432z"/>
			<g>
				<path fill="#EAEAEA" d="M205.054,509.396c-0.504,0-0.993-0.206-1.349-0.561l0,0c-0.356-0.356-0.561-0.849-0.561-1.35l0,0
					V324.133c0-0.503,0.204-0.995,0.561-1.348l0,0c0.355-0.354,0.845-0.561,1.349-0.561l0,0H1107.8c0.514,0,0.991,0.2,1.354,0.561
					l0,0c0.358,0.357,0.556,0.842,0.556,1.348l0,0v183.353c0,0.511-0.197,0.986-0.556,1.35l0,0
					c-0.363,0.361-0.841,0.561-1.354,0.561l0,0H205.054L205.054,509.396z M1107.8,507.485v-1.912V507.485L1107.8,507.485z
					 M206.966,505.573h898.923V326.045H206.966V505.573L206.966,505.573z"/>
				<path fill="#EAEAEA" d="M205.056,527.431c-0.504,0-0.995-0.202-1.351-0.559l0,0c-0.356-0.356-0.561-0.849-0.561-1.35l0,0
					v-18.037c0-0.503,0.204-0.995,0.561-1.351l0,0c0.354-0.356,0.845-0.564,1.351-0.564l0,0h902.747
					c0.502,0,0.993,0.208,1.352,0.564l0,0c0.353,0.355,0.556,0.848,0.556,1.351l0,0v18.037c0,0.501-0.203,0.993-0.556,1.35l0,0
					c-0.358,0.356-0.85,0.559-1.352,0.559l0,0H205.056L205.056,527.431z M1107.803,525.522v-1.912V525.522L1107.803,525.522z
					 M206.966,523.61h898.923v-14.215H206.966V523.61L206.966,523.61z"/>
			</g>
			<g>
				<g>
					<g>
						<rect x="205.056" y="284.662" fill="#EAEAEA" width="287.76" height="73.85"/>
						<rect x="205.056" y="358.512" fill="#EAEAEA" width="287.76" height="73.852"/>
					</g>
					<g>
						<path fill="#EAEAEA" d="M205.054,360.418c-0.511,0-0.988-0.196-1.349-0.555l0,0c-0.362-0.363-0.561-0.842-0.561-1.352l0,0
							v-73.85c0-0.503,0.204-0.996,0.561-1.351l0,0c0.352-0.356,0.845-0.558,1.349-0.558l0,0h287.762
							c0.509,0,0.987,0.197,1.351,0.558l0,0c0.358,0.361,0.556,0.84,0.556,1.351l0,0v73.85c0,0.51-0.197,0.988-0.559,1.352l0,0
							c-0.36,0.358-0.839,0.555-1.348,0.555l0,0H205.054L205.054,360.418z M492.815,358.512v-1.909V358.512L492.815,358.512z
							 M206.966,356.603h283.938l-0.003-70.03H206.966V356.603L206.966,356.603z"/>
						<path fill="#EAEAEA" d="M205.054,434.273c-0.508,0-0.988-0.199-1.349-0.562l0,0c-0.362-0.361-0.561-0.839-0.561-1.349l0,0
							v-73.852c0-0.503,0.204-0.996,0.561-1.35l0,0c0.355-0.357,0.845-0.563,1.349-0.563l0,0h287.758c0.508,0,0.991,0.2,1.354,0.563
							l0,0c0.358,0.36,0.556,0.838,0.556,1.35l0,0v73.852c0,0.51-0.197,0.987-0.559,1.349l0,0c-0.36,0.362-0.844,0.562-1.352,0.562
							l0,0H205.054L205.054,434.273z M492.812,432.363v-1.912V432.363L492.812,432.363z M206.962,430.451h283.941V360.42H206.962
							V430.451L206.962,430.451z"/>
					</g>
				</g>
				<g>
					<g>
						<rect x="820.043" y="284.662" fill="#EAEAEA" width="287.76" height="73.85"/>
						<rect x="820.043" y="358.512" fill="#EAEAEA" width="287.76" height="73.852"/>
					</g>
					<g>
						<path fill="#EAEAEA" d="M820.04,360.42c-0.509,0-0.987-0.197-1.347-0.557l0,0c-0.362-0.361-0.562-0.84-0.562-1.352l0,0v-73.85
							c0-0.503,0.203-0.996,0.562-1.351l0,0c0.352-0.356,0.847-0.56,1.347-0.56l0,0h287.76c0.514,0,0.991,0.199,1.354,0.56l0,0
							c0.358,0.363,0.556,0.84,0.556,1.351l0,0v73.85c0,0.512-0.197,0.988-0.556,1.352l0,0c-0.364,0.359-0.841,0.557-1.354,0.557
							l0,0H820.04L820.04,360.42z M1107.8,358.512V356.6V358.512L1107.8,358.512z M821.948,356.6h283.94v-70.027h-283.94V356.6
							L821.948,356.6z"/>
						<path fill="#EAEAEA" d="M820.04,434.271c-0.509,0-0.987-0.197-1.347-0.56l0,0c-0.362-0.363-0.562-0.842-0.562-1.349l0,0
							v-73.852c0-0.505,0.203-0.994,0.562-1.35l0,0c0.352-0.357,0.847-0.563,1.347-0.563l0,0h287.76
							c0.514,0,0.991,0.202,1.354,0.563l0,0c0.358,0.36,0.556,0.839,0.556,1.35l0,0v73.852c0,0.507-0.197,0.985-0.556,1.349l0,0
							c-0.364,0.362-0.841,0.56-1.354,0.56l0,0H820.04L820.04,434.271z M1107.8,432.363v-1.912V432.363L1107.8,432.363z
							 M821.948,430.451h283.94V360.42h-283.94V430.451L821.948,430.451z"/>
					</g>
				</g>
			</g>
			<path fill="#EAEAEA" d="M492.815,344.081c-0.506,0-0.999-0.204-1.351-0.559l0,0c-0.358-0.356-0.562-0.849-0.562-1.35l0,0v-18.04
				c0-0.504,0.203-0.996,0.559-1.348l0,0c0.354-0.356,0.848-0.562,1.354-0.562l0,0h327.228c0.503,0,0.994,0.205,1.349,0.562l0,0
				c0.358,0.354,0.561,0.848,0.561,1.348l0,0v18.04c0,0.501-0.202,0.993-0.561,1.35l0,0c-0.354,0.354-0.846,0.559-1.349,0.559l0,0
				H492.815L492.815,344.081z M820.043,342.173v-1.913V342.173L820.043,342.173z M494.722,340.26h323.41v-14.215h-323.41V340.26
				L494.722,340.26z"/>
			<g>
				<g>
					<path fill="#FFFFFF" d="M230.19,416.14c-0.745-0.748-0.745-1.958,0-2.705l0,0l24.31-24.31c0.743-0.741,1.953-0.741,2.699,0l0,0
						c0.747,0.747,0.747,1.957,0,2.703l0,0l-24.307,24.312c-0.376,0.371-0.863,0.557-1.352,0.557l0,0
						C231.052,416.696,230.564,416.511,230.19,416.14L230.19,416.14z"/>
					<path fill="#FFFFFF" d="M436.587,403.916c-0.747-0.747-0.747-1.957,0-2.704l0,0l24.308-24.31c0.745-0.741,1.955-0.741,2.7,0
						l0,0c0.746,0.749,0.746,1.957,0,2.702l0,0l-24.309,24.312c-0.374,0.372-0.861,0.558-1.352,0.558l0,0
						C437.448,404.474,436.959,404.288,436.587,403.916L436.587,403.916z"/>
					<path fill="#FFFFFF" d="M332.203,396.889c-0.744-0.749-0.744-1.957,0-2.703l0,0l21.16-21.158c0.744-0.747,1.954-0.747,2.699,0
						l0,0c0.747,0.748,0.747,1.958,0,2.703l0,0l-21.159,21.158c-0.374,0.373-0.86,0.559-1.349,0.559l0,0
						C333.065,397.447,332.575,397.262,332.203,396.889L332.203,396.889z"/>
					<path fill="#FFFFFF" d="M332.203,409.619c-0.746-0.744-0.746-1.954,0-2.7l0,0l21.16-21.158c0.744-0.746,1.954-0.746,2.699,0
						l0,0c0.747,0.747,0.747,1.956,0,2.7l0,0l-21.159,21.158c-0.374,0.373-0.86,0.56-1.349,0.56l0,0
						C333.065,410.179,332.575,409.992,332.203,409.619L332.203,409.619z"/>
					<path fill="#FFFFFF" d="M432.984,420.888c-0.746-0.743-0.746-1.956,0-2.701l0,0l21.157-21.16c0.748-0.745,1.957-0.745,2.703,0
						l0,0c0.746,0.747,0.746,1.956,0,2.704l0,0l-21.16,21.157c-0.37,0.374-0.857,0.558-1.349,0.558l0,0
						C433.847,421.445,433.358,421.262,432.984,420.888L432.984,420.888z"/>
					<path fill="#FFFFFF" d="M279.535,410.085c-0.747-0.748-0.747-1.958,0-2.704l0,0l37.817-37.816c0.744-0.742,1.955-0.742,2.699,0
						l0,0c0.745,0.749,0.745,1.957,0,2.705l0,0l-37.813,37.815c-0.376,0.372-0.861,0.558-1.353,0.558l0,0
						C280.397,410.643,279.91,410.457,279.535,410.085L279.535,410.085z"/>
					<g>
						<path fill="#FFFFFF" d="M375.903,419.395c-0.742-0.744-0.742-1.953,0-2.699l0,0l19.359-19.359c0.745-0.743,1.953-0.743,2.7,0
							l0,0c0.746,0.749,0.746,1.958,0,2.704l0,0l-19.358,19.354c-0.371,0.374-0.859,0.561-1.348,0.561l0,0
							C376.769,419.955,376.278,419.769,375.903,419.395L375.903,419.395z"/>
						<path fill="#FFFFFF" d="M403.815,391.483c-0.746-0.745-0.746-1.954,0-2.7l0,0l4.502-4.501c0.746-0.745,1.956-0.745,2.701,0
							l0,0c0.748,0.746,0.748,1.954,0,2.702l0,0l-4.5,4.499c-0.376,0.372-0.865,0.562-1.354,0.562l0,0
							C404.678,392.045,404.187,391.855,403.815,391.483L403.815,391.483z"/>
					</g>
					<g>
						<path fill="#FFFFFF" d="M249.718,410.618c-0.746-0.747-0.746-1.958,0-2.7l0,0l19.355-19.357c0.748-0.748,1.955-0.748,2.704,0
							l0,0c0.742,0.743,0.742,1.953,0,2.699l0,0l-19.358,19.358c-0.375,0.37-0.861,0.558-1.352,0.558l0,0
							C250.579,411.176,250.091,410.988,249.718,410.618L249.718,410.618z"/>
						<path fill="#FFFFFF" d="M277.629,382.706c-0.746-0.747-0.746-1.954,0-2.7l0,0l4.497-4.504c0.748-0.744,1.958-0.744,2.703,0
							l0,0c0.747,0.744,0.747,1.958,0,2.704l0,0l-4.501,4.5c-0.371,0.371-0.861,0.56-1.351,0.56l0,0
							C278.491,383.266,278,383.077,277.629,382.706L277.629,382.706z"/>
					</g>
				</g>
				<g>
					<path fill="#FFFFFF" d="M436.585,328.116c-0.745-0.749-0.745-1.958,0-2.705l0,0l24.31-24.306c0.75-0.745,1.955-0.745,2.7,0l0,0
						c0.746,0.744,0.746,1.951,0,2.699l0,0l-24.306,24.312c-0.374,0.371-0.863,0.561-1.35,0.561l0,0
						C437.448,328.677,436.959,328.487,436.585,328.116L436.585,328.116z"/>
					<path fill="#FFFFFF" d="M230.191,340.336c-0.745-0.748-0.745-1.957,0-2.699l0,0l24.309-24.309c0.743-0.746,1.953-0.746,2.699,0
						l0,0c0.747,0.742,0.747,1.954,0,2.699l0,0l-24.307,24.309c-0.376,0.369-0.863,0.559-1.352,0.559l0,0
						C231.052,340.895,230.564,340.705,230.191,340.336L230.191,340.336z"/>
					<path fill="#FFFFFF" d="M337.724,344.21c-0.744-0.745-0.744-1.954,0-2.699l0,0l21.156-21.159c0.746-0.744,1.957-0.744,2.702,0
						l0,0c0.747,0.749,0.747,1.957,0,2.705l0,0l-21.156,21.153c-0.376,0.374-0.862,0.561-1.351,0.561l0,0
						C338.584,344.771,338.098,344.584,337.724,344.21L337.724,344.21z"/>
					<path fill="#FFFFFF" d="M337.724,331.482c-0.746-0.746-0.746-1.959,0-2.703l0,0l21.156-21.16c0.749-0.744,1.957-0.744,2.702,0
						l0,0c0.747,0.746,0.747,1.956,0,2.704l0,0l-21.159,21.159c-0.373,0.373-0.859,0.558-1.348,0.558l0,0
						C338.584,332.04,338.098,331.855,337.724,331.482L337.724,331.482z"/>
					<path fill="#FFFFFF" d="M236.941,320.215c-0.746-0.745-0.746-1.955,0-2.703l0,0l21.16-21.158c0.744-0.745,1.954-0.745,2.698,0
						l0,0c0.748,0.747,0.748,1.957,0,2.701l0,0l-21.156,21.16c-0.375,0.371-0.861,0.559-1.35,0.559l0,0
						C237.804,320.773,237.315,320.586,236.941,320.215L236.941,320.215z"/>
					<path fill="#FFFFFF" d="M373.733,347.674c-0.743-0.748-0.743-1.955,0-2.698l0,0l37.815-37.816c0.746-0.745,1.954-0.745,2.703,0
						l0,0c0.744,0.745,0.744,1.953,0,2.7l0,0l-37.816,37.814c-0.372,0.373-0.861,0.561-1.353,0.561l0,0
						C374.597,348.234,374.106,348.047,373.733,347.674L373.733,347.674z"/>
					<g>
						<path fill="#FFFFFF" d="M295.823,319.902c-0.746-0.744-0.746-1.953,0-2.701l0,0l19.358-19.358
							c0.744-0.742,1.954-0.742,2.702,0l0,0c0.741,0.749,0.741,1.954,0,2.703l0,0l-19.358,19.356
							c-0.376,0.375-0.862,0.559-1.351,0.559l0,0C296.685,320.461,296.195,320.277,295.823,319.902L295.823,319.902z"/>
						<path fill="#FFFFFF" d="M282.77,332.961c-0.745-0.748-0.745-1.957,0-2.705l0,0l4.503-4.5c0.743-0.745,1.953-0.745,2.697,0l0,0
							c0.747,0.748,0.747,1.956,0,2.704l0,0l-4.502,4.501c-0.372,0.371-0.859,0.56-1.351,0.56l0,0
							C283.631,333.521,283.142,333.332,282.77,332.961L282.77,332.961z"/>
					</g>
					<g>
						<path fill="#FFFFFF" d="M422.011,328.684c-0.747-0.747-0.747-1.955,0-2.703l0,0l19.357-19.356
							c0.746-0.747,1.956-0.747,2.702,0l0,0c0.745,0.745,0.745,1.953,0,2.702l0,0l-19.358,19.357
							c-0.373,0.371-0.863,0.559-1.35,0.559l0,0C422.872,329.242,422.385,329.055,422.011,328.684L422.011,328.684z"/>
						<path fill="#FFFFFF" d="M408.957,341.737c-0.746-0.748-0.746-1.959,0-2.702l0,0l4.499-4.501c0.749-0.745,1.958-0.745,2.705,0
							l0,0c0.745,0.745,0.745,1.955,0,2.703l0,0l-4.505,4.5c-0.374,0.372-0.862,0.56-1.349,0.56l0,0
							C409.817,342.297,409.33,342.109,408.957,341.737L408.957,341.737z"/>
					</g>
				</g>
				<g>
					<path fill="#FFFFFF" d="M848.999,414.179c-0.746-0.747-0.746-1.958,0-2.7l0,0l24.308-24.311c0.746-0.744,1.956-0.744,2.704,0
						l0,0c0.744,0.744,0.744,1.957,0,2.702l0,0l-24.309,24.309c-0.374,0.37-0.865,0.558-1.352,0.558l0,0
						C849.859,414.736,849.373,414.549,848.999,414.179L848.999,414.179z"/>
					<path fill="#FFFFFF" d="M1055.393,401.957c-0.744-0.746-0.744-1.954,0-2.701l0,0l24.308-24.309
						c0.746-0.746,1.956-0.746,2.703,0l0,0c0.744,0.744,0.744,1.954,0,2.699l0,0l-24.309,24.311
						c-0.373,0.373-0.863,0.562-1.352,0.562l0,0C1056.256,402.519,1055.766,402.33,1055.393,401.957L1055.393,401.957z"/>
					<path fill="#FFFFFF" d="M951.012,394.93c-0.745-0.744-0.745-1.956,0-2.701l0,0l21.157-21.158c0.748-0.744,1.957-0.744,2.703,0
						l0,0c0.742,0.743,0.742,1.954,0,2.702l0,0l-21.158,21.157c-0.375,0.371-0.86,0.559-1.35,0.559l0,0
						C951.872,395.488,951.387,395.301,951.012,394.93L951.012,394.93z"/>
					<path fill="#FFFFFF" d="M951.012,407.663c-0.745-0.746-0.745-1.959,0-2.705l0,0l21.157-21.156c0.748-0.743,1.957-0.743,2.703,0
						l0,0c0.742,0.746,0.742,1.956,0,2.704l0,0l-21.158,21.157c-0.375,0.37-0.86,0.558-1.35,0.558l0,0
						C951.872,408.221,951.387,408.033,951.012,407.663L951.012,407.663z"/>
					<path fill="#FFFFFF" d="M1051.788,418.928c-0.739-0.741-0.739-1.954,0-2.7l0,0l21.163-21.159c0.744-0.745,1.956-0.745,2.701,0
						l0,0c0.741,0.746,0.741,1.955,0,2.702l0,0l-21.156,21.157c-0.376,0.373-0.864,0.557-1.354,0.557l0,0
						C1052.653,419.484,1052.165,419.301,1051.788,418.928L1051.788,418.928z"/>
					<path fill="#FFFFFF" d="M898.347,408.124c-0.748-0.745-0.748-1.956,0-2.7l0,0l37.812-37.816c0.745-0.742,1.956-0.742,2.7,0l0,0
						c0.746,0.747,0.746,1.956,0,2.701l0,0l-37.812,37.815c-0.373,0.372-0.86,0.561-1.35,0.561l0,0
						C899.208,408.685,898.718,408.496,898.347,408.124L898.347,408.124z"/>
					<g>
						<path fill="#FFFFFF" d="M994.718,417.438c-0.75-0.744-0.75-1.956,0-2.701l0,0l19.354-19.359c0.744-0.744,1.955-0.744,2.701,0
							l0,0c0.747,0.749,0.747,1.958,0,2.703l0,0l-19.358,19.357c-0.372,0.373-0.86,0.559-1.35,0.559l0,0
							C995.575,417.996,995.086,417.811,994.718,417.438L994.718,417.438z"/>
						<path fill="#FFFFFF" d="M1022.624,389.527c-0.747-0.746-0.747-1.957,0-2.702l0,0l4.498-4.499c0.747-0.748,1.957-0.748,2.705,0
							l0,0c0.743,0.742,0.743,1.956,0,2.7l0,0l-4.503,4.501c-0.372,0.371-0.862,0.558-1.351,0.558l0,0
							C1023.484,390.085,1022.994,389.898,1022.624,389.527L1022.624,389.527z"/>
					</g>
					<g>
						<path fill="#FFFFFF" d="M868.524,408.658c-0.743-0.745-0.743-1.953,0-2.699l0,0l19.358-19.356
							c0.747-0.749,1.955-0.749,2.702,0l0,0c0.744,0.743,0.744,1.954,0,2.696l0,0l-19.359,19.359
							c-0.374,0.373-0.86,0.561-1.35,0.561l0,0C869.388,409.219,868.9,409.031,868.524,408.658L868.524,408.658z"/>
						<path fill="#FFFFFF" d="M896.435,380.748c-0.745-0.746-0.745-1.957,0-2.7l0,0l4.5-4.501c0.748-0.747,1.957-0.747,2.705,0l0,0
							c0.741,0.744,0.741,1.953,0,2.699l0,0l-4.504,4.502c-0.371,0.371-0.861,0.559-1.351,0.559l0,0
							C897.298,381.307,896.807,381.119,896.435,380.748L896.435,380.748z"/>
					</g>
				</g>
				<g>
					<path fill="#FFFFFF" d="M1055.395,326.155c-0.746-0.746-0.746-1.954,0-2.7l0,0l24.308-24.311c0.747-0.744,1.957-0.744,2.704,0
						l0,0c0.744,0.746,0.744,1.959,0,2.703l0,0l-24.311,24.308c-0.373,0.373-0.863,0.558-1.351,0.558l0,0
						C1056.259,326.713,1055.77,326.528,1055.395,326.155L1055.395,326.155z"/>
					<path fill="#FFFFFF" d="M848.999,338.375c-0.746-0.741-0.746-1.954,0-2.697l0,0l24.308-24.312c0.746-0.745,1.956-0.745,2.704,0
						l0,0c0.744,0.747,0.744,1.957,0,2.702l0,0l-24.309,24.307c-0.374,0.374-0.865,0.563-1.352,0.563l0,0
						C849.859,338.938,849.373,338.749,848.999,338.375L848.999,338.375z"/>
					<path fill="#FFFFFF" d="M956.53,342.256c-0.745-0.747-0.745-1.955,0-2.703l0,0l21.158-21.157c0.746-0.743,1.958-0.743,2.701,0
						l0,0c0.745,0.747,0.745,1.954,0,2.703l0,0l-21.158,21.157c-0.373,0.371-0.862,0.556-1.35,0.556l0,0
						C957.392,342.812,956.903,342.627,956.53,342.256L956.53,342.256z"/>
					<path fill="#FFFFFF" d="M956.53,329.522c-0.745-0.747-0.745-1.954,0-2.702l0,0l21.158-21.156c0.746-0.745,1.958-0.745,2.701,0
						l0,0c0.745,0.744,0.745,1.951,0,2.7l0,0l-21.158,21.158c-0.373,0.374-0.862,0.559-1.35,0.559l0,0
						C957.392,330.081,956.903,329.896,956.53,329.522L956.53,329.522z"/>
					<path fill="#FFFFFF" d="M855.752,318.257c-0.747-0.749-0.747-1.958,0-2.702l0,0l21.155-21.16c0.747-0.745,1.955-0.745,2.703,0
						l0,0c0.745,0.748,0.745,1.957,0,2.701l0,0l-21.158,21.161c-0.373,0.37-0.861,0.56-1.352,0.56l0,0
						C856.612,318.816,856.123,318.627,855.752,318.257L855.752,318.257z"/>
					<path fill="#FFFFFF" d="M992.543,345.716c-0.747-0.744-0.747-1.957,0-2.702l0,0l37.815-37.813c0.744-0.746,1.955-0.746,2.701,0
						l0,0c0.745,0.747,0.745,1.954,0,2.699l0,0l-37.816,37.816c-0.373,0.372-0.859,0.556-1.351,0.556l0,0
						C993.403,346.271,992.913,346.088,992.543,345.716L992.543,345.716z"/>
					<g>
						<path fill="#FFFFFF" d="M914.628,317.945c-0.743-0.746-0.743-1.955,0-2.702l0,0l19.357-19.356
							c0.747-0.744,1.959-0.744,2.701,0l0,0c0.747,0.744,0.747,1.953,0,2.702l0,0l-19.356,19.356
							c-0.375,0.374-0.863,0.561-1.35,0.561l0,0C915.489,318.506,915,318.319,914.628,317.945L914.628,317.945z"/>
						<path fill="#FFFFFF" d="M901.578,331.001c-0.747-0.747-0.747-1.954,0-2.702l0,0l4.499-4.5c0.746-0.746,1.955-0.746,2.701,0
							l0,0c0.743,0.743,0.743,1.952,0,2.7l0,0l-4.502,4.502c-0.372,0.371-0.862,0.56-1.35,0.56l0,0
							C902.437,331.561,901.948,331.372,901.578,331.001L901.578,331.001z"/>
					</g>
					<g>
						<path fill="#FFFFFF" d="M1040.819,326.724c-0.746-0.745-0.746-1.954,0-2.703l0,0l19.356-19.354
							c0.747-0.746,1.959-0.746,2.706,0l0,0c0.742,0.746,0.742,1.955,0,2.699l0,0l-19.359,19.358c-0.374,0.372-0.86,0.56-1.353,0.56
							l0,0C1041.681,327.283,1041.192,327.096,1040.819,326.724L1040.819,326.724z"/>
						<path fill="#FFFFFF" d="M1027.765,339.778c-0.745-0.743-0.745-1.954,0-2.7l0,0l4.499-4.501c0.747-0.745,1.956-0.745,2.705,0
							l0,0c0.742,0.746,0.742,1.953,0,2.699l0,0l-4.504,4.502c-0.373,0.372-0.863,0.561-1.352,0.561l0,0
							C1028.627,340.339,1028.139,340.15,1027.765,339.778L1027.765,339.778z"/>
					</g>
				</g>
			</g>
			<g>
				<g>
					<path fill="#EAEAEA" d="M517.691,326.045c-0.507,0-0.991-0.198-1.35-0.561l0,0c-0.362-0.359-0.563-0.843-0.563-1.354l0,0
						v-37.559c0-0.504,0.206-0.993,0.563-1.35l0,0c0.353-0.356,0.849-0.561,1.35-0.561l0,0h57.297c0.509,0,0.987,0.202,1.348,0.561
						l0,0c0.36,0.362,0.563,0.838,0.563,1.35l0,0v37.559c0,0.511-0.203,0.994-0.563,1.354l0,0c-0.36,0.362-0.839,0.561-1.348,0.561
						l0,0H517.691L517.691,326.045z M574.988,324.131v-1.906V324.131L574.988,324.131z M519.601,322.225h53.477v-33.743h-53.477
						V322.225L519.601,322.225z"/>
					<path fill="#EAEAEA" d="M517.691,300.274c-1.055,0-1.91-0.855-1.91-1.909l0,0c0-1.055,0.855-1.909,1.91-1.909l0,0h57.296
						c1.056,0,1.912,0.854,1.912,1.909l0,0c0,1.054-0.856,1.909-1.912,1.909l0,0H517.691L517.691,300.274z"/>
					<path fill="#EAEAEA" d="M535.835,307.7c-0.512,0-0.989-0.198-1.351-0.562l0,0c-0.361-0.357-0.56-0.838-0.56-1.348l0,0v-7.426
						c0-0.502,0.204-0.995,0.56-1.35l0,0c0.355-0.354,0.848-0.56,1.351-0.56l0,0h21.01c0.509,0,0.987,0.199,1.35,0.56l0,0
						c0.361,0.358,0.561,0.84,0.561,1.35l0,0v7.426c0,0.51-0.199,0.99-0.561,1.348l0,0c-0.362,0.363-0.841,0.562-1.35,0.562l0,0
						H535.835L535.835,307.7z M556.845,305.791v-1.91V305.791L556.845,305.791z M537.743,303.881h17.191v-3.606h-17.191V303.881
						L537.743,303.881z"/>
				</g>
				<g>
					<path fill="#EAEAEA" d="M690.528,269.932c-0.504,0-0.996-0.202-1.35-0.559l0,0c-0.359-0.354-0.563-0.847-0.563-1.347l0,0
						v-78.858c0-0.505,0.204-0.993,0.563-1.352l0,0c0.354-0.357,0.846-0.561,1.35-0.561l0,0h104.634
						c0.507,0,0.995,0.206,1.353,0.563l0,0c0.354,0.356,0.558,0.845,0.558,1.35l0,0v78.858c0,0.499-0.203,0.993-0.558,1.347l0,0
						c-0.357,0.356-0.846,0.559-1.353,0.559l0,0H690.528L690.528,269.932z M795.162,268.026v-1.912V268.026L795.162,268.026z
						 M692.437,266.114h100.816v-75.035H692.437V266.114L692.437,266.114z"/>
					<g>
						<path fill="#EAEAEA" d="M759.906,290.268h-34.119c0-37.829,7.639-61.417,17.06-61.417
							C752.271,228.851,759.906,252.438,759.906,290.268z"/>
						<path fill="#EAEAEA" d="M725.784,292.176c-0.502,0-0.994-0.205-1.348-0.559l0,0c-0.357-0.357-0.561-0.848-0.561-1.35l0,0
							c0.055-28.604,4.188-49.066,10.787-58.267l0,0c2.208-3.052,4.965-5.049,8.182-5.063l0,0c3.219,0.014,5.975,2.011,8.186,5.063
							l0,0c2.24,3.084,4.123,7.39,5.711,12.837l0,0c3.158,10.891,5.07,26.382,5.075,45.43l0,0c0,0.508-0.2,0.989-0.562,1.348l0,0
							c-0.361,0.361-0.837,0.561-1.349,0.561l0,0H725.784L725.784,292.176z M759.906,290.268v-1.912V290.268L759.906,290.268z
							 M757.991,288.355c-0.145-27.148-4.53-46.665-10.047-54.106l0,0c-1.873-2.552-3.604-3.502-5.1-3.489l0,0
							c-1.493-0.013-3.229,0.938-5.096,3.489l0,0c-1.843,2.523-3.632,6.478-5.135,11.655l0,0
							c-2.91,10.008-4.789,24.547-4.912,42.451l0,0H757.991L757.991,288.355z"/>
					</g>
					<g>
						<path fill="#EAEAEA" d="M690.528,326.047c-0.504,0-0.996-0.206-1.35-0.56l0,0c-0.359-0.358-0.563-0.852-0.563-1.354l0,0
							v-33.865c0-0.506,0.204-0.997,0.563-1.35l0,0c0.354-0.357,0.846-0.563,1.35-0.563l0,0h104.634
							c0.507,0,0.995,0.205,1.353,0.563l0,0c0.354,0.353,0.558,0.848,0.558,1.35l0,0v33.865c0,0.503-0.203,0.996-0.558,1.354l0,0
							c-0.357,0.354-0.846,0.56-1.353,0.56l0,0H690.528L690.528,326.047z M795.162,324.133v-1.909V324.133L795.162,324.133z
							 M692.437,322.224h100.816v-30.048H692.437V322.224L692.437,322.224z"/>
						<g>
							<g>
								<path fill="#EAEAEA" d="M763.572,298.747c-1.057,0-1.913-0.856-1.913-1.909l0,0c0-1.057,0.856-1.909,1.913-1.909l0,0h3.03
									c1.055,0,1.912,0.853,1.912,1.909l0,0c0,1.053-0.857,1.909-1.912,1.909l0,0H763.572L763.572,298.747z"/>
								<path fill="#EAEAEA" d="M773.05,298.748c-1.058,0-1.912-0.859-1.912-1.91l0,0c0-1.058,0.854-1.91,1.912-1.91l0,0h3.032
									c1.053,0,1.907,0.853,1.907,1.91l0,0c0,1.051-0.854,1.91-1.907,1.91l0,0H773.05L773.05,298.748z"/>
								<path fill="#EAEAEA" d="M782.529,298.748c-1.057,0-1.909-0.857-1.909-1.91l0,0c0-1.058,0.853-1.91,1.909-1.91l0,0h3.029
									c1.058,0,1.911,0.853,1.911,1.91l0,0c0,1.053-0.854,1.91-1.911,1.91l0,0H782.529L782.529,298.748z"/>
							</g>
							<g>
								<path fill="#EAEAEA" d="M700.131,298.747c-1.056,0-1.911-0.858-1.911-1.909l0,0c0-1.058,0.855-1.91,1.911-1.91l0,0h3.034
									c1.054,0,1.91,0.853,1.91,1.91l0,0c0,1.051-0.856,1.909-1.91,1.909l0,0H700.131L700.131,298.747z"/>
								<path fill="#EAEAEA" d="M709.737,298.748c-1.053,0-1.908-0.857-1.908-1.91l0,0c0-1.057,0.855-1.909,1.908-1.909l0,0h4.547
									c1.056,0,1.91,0.853,1.91,1.909l0,0c0,1.053-0.854,1.91-1.91,1.91l0,0H709.737L709.737,298.748z"/>
							</g>
							<path fill="#EAEAEA" d="M700.131,305.317c-1.056,0-1.911-0.856-1.911-1.907l0,0c0-1.057,0.855-1.911,1.911-1.911l0,0h21.737
								c1.057,0,1.912,0.854,1.912,1.911l0,0c0,1.051-0.855,1.907-1.912,1.907l0,0H700.131L700.131,305.317z"/>
						</g>
					</g>
				</g>
			</g>
			<g>
				<g>
					<g>
						<path fill="#EAEAEA" d="M284.084,286.572v-1.91v-1.91h16.067l-16.067-6.023l-16.073,6.023h16.073v1.91V286.572h-26.604
							c-0.924,0-1.715-0.662-1.879-1.568l0,0c-0.167-0.911,0.344-1.805,1.209-2.129l0,0l26.603-9.974
							c0.435-0.165,0.904-0.165,1.339,0l0,0l26.605,9.974c0.862,0.324,1.376,1.218,1.206,2.126l0,0
							c-0.165,0.909-0.958,1.571-1.876,1.571l0,0H284.084L284.084,286.572z"/>
						<path fill="#EAEAEA" d="M283.412,254.459l-51.781-19.416c-0.865-0.324-1.372-1.22-1.207-2.128l0,0
							c0.164-0.909,0.956-1.572,1.879-1.572l0,0h51.781v1.911v1.912h-41.247l41.244,15.461l41.245-15.461h-41.242v-1.912v-1.911
							h51.779c0.923,0,1.714,0.663,1.877,1.572l0,0c0.167,0.909-0.347,1.804-1.207,2.128l0,0l-51.782,19.416
							c-0.216,0.08-0.442,0.119-0.667,0.119l0,0C283.856,254.578,283.631,254.539,283.412,254.459L283.412,254.459z"/>
						<path fill="#EAEAEA" d="M282.173,274.688V252.67c0-1.055,0.854-1.91,1.911-1.91l0,0c1.053,0,1.909,0.855,1.909,1.91l0,0
							v22.018c0,1.057-0.856,1.909-1.909,1.909l0,0C283.027,276.597,282.173,275.744,282.173,274.688L282.173,274.688z"/>
					</g>
					<g>
						<path fill="#EAEAEA" d="M328.329,233.254c-0.002-12.223-4.949-23.272-12.961-31.286l0,0
							c-8.013-8.01-19.062-12.96-31.284-12.96l0,0c-12.229,0-23.274,4.95-31.286,12.96l0,0
							c-8.013,8.014-12.963,19.063-12.963,31.286l0,0c0,1.055-0.852,1.912-1.908,1.912l0,0c-1.057,0-1.911-0.857-1.911-1.912l0,0
							c0.002-26.546,21.521-48.066,48.068-48.066l0,0c26.546,0,48.062,21.521,48.067,48.066l0,0c0,1.055-0.859,1.912-1.912,1.912
							l0,0C329.183,235.166,328.329,234.309,328.329,233.254L328.329,233.254z"/>
						<path fill="#EAEAEA" d="M291.724,187.976c-0.007-4.22-3.422-7.632-7.64-7.64l0,0c-4.221,0.008-7.633,3.42-7.642,7.64l0,0
							h0.002c0,1.056-0.855,1.913-1.912,1.913l0,0c-1.055,0-1.908-0.857-1.908-1.913l0,0c0-6.329,5.128-11.458,11.46-11.46l0,0
							c6.328,0.002,11.456,5.129,11.46,11.46l0,0c0,1.056-0.859,1.913-1.914,1.913l0,0
							C292.578,189.889,291.724,189.031,291.724,187.976L291.724,187.976z"/>
					</g>
					<g>
						<path fill="#EAEAEA" d="M267.936,213.33c-0.008-2.177-1.77-3.945-3.95-3.95l0,0c-2.181,0.005-3.945,1.77-3.95,3.95l0,0l0,0
							c0,1.057-0.854,1.912-1.909,1.912l0,0c-1.057,0-1.911-0.855-1.911-1.912l0,0c0-4.291,3.479-7.766,7.771-7.77l0,0
							c4.293,0.004,7.768,3.479,7.771,7.77l0,0c0,1.057-0.855,1.912-1.91,1.912l0,0C268.788,215.242,267.936,214.387,267.936,213.33
							L267.936,213.33z"/>
						<path fill="#EAEAEA" d="M276.333,213.33c0-2.181-1.767-3.945-3.949-3.95l0,0c-1.098,0.002-2.07,0.439-2.793,1.158l0,0
							c-0.746,0.746-1.957,0.746-2.699,0l0,0c-0.748-0.746-0.748-1.958,0-2.701l0,0c1.396-1.402,3.353-2.276,5.492-2.276l0,0
							c4.293,0.004,7.768,3.479,7.771,7.77l0,0c0,1.057-0.854,1.912-1.91,1.912l0,0C277.189,215.242,276.333,214.387,276.333,213.33
							L276.333,213.33z"/>
						<path fill="#EAEAEA" d="M288.836,213.33c0.001-4.291,3.478-7.766,7.771-7.77l0,0c2.137,0,4.09,0.874,5.494,2.276l0,0
							c0.743,0.748,0.743,1.955,0,2.701l0,0c-0.748,0.746-1.958,0.746-2.701,0l0,0c-0.723-0.719-1.697-1.156-2.793-1.158l0,0
							c-2.185,0.005-3.947,1.773-3.954,3.95l0,0c0,1.057-0.851,1.912-1.904,1.912l0,0
							C289.688,215.242,288.836,214.387,288.836,213.33L288.836,213.33z"/>
						<path fill="#EAEAEA" d="M309.15,213.33c-0.006-2.181-1.771-3.945-3.948-3.95l0,0c-2.185,0.005-3.947,1.773-3.955,3.95l0,0
							h0.005c0,1.057-0.856,1.912-1.911,1.912l0,0c-1.056,0-1.911-0.855-1.911-1.912l0,0c0.003-4.291,3.478-7.766,7.772-7.77l0,0
							c4.291,0.004,7.766,3.479,7.766,7.77l0,0c0,1.057-0.854,1.912-1.91,1.912l0,0C310.001,215.242,309.15,214.387,309.15,213.33
							L309.15,213.33z"/>
						<path fill="#EAEAEA" d="M267.501,235.166c-6.234,0-11.286-5.054-11.286-11.285l0,0V213.33c0-1.055,0.854-1.91,1.911-1.91l0,0
							c1.053,0,1.909,0.855,1.909,1.91l0,0v10.551c0.007,4.122,3.343,7.456,7.466,7.464l0,0h34.182
							c4.123-0.008,7.457-3.342,7.467-7.464l0,0V213.33h0.003c0-1.055,0.851-1.91,1.91-1.91l0,0c1.052,0,1.909,0.855,1.909,1.91l0,0
							v10.551c-0.004,6.231-5.056,11.285-11.289,11.285l0,0H267.501L267.501,235.166z"/>
						<path fill="#EAEAEA" d="M269.847,215.242c-1.057,0-1.914-0.857-1.914-1.912l0,0c0-1.055,0.857-1.91,1.914-1.91l0,0h29.492
							c1.055,0,1.913,0.855,1.913,1.91l0,0c0,1.055-0.858,1.912-1.913,1.912l0,0H269.847L269.847,215.242z"/>
						<path fill="#EAEAEA" d="M288.543,213.33c-0.006-2.177-1.769-3.945-3.951-3.95l0,0c-2.182,0.005-3.946,1.77-3.949,3.95l0,0
							h0.001c0,1.057-0.855,1.912-1.91,1.912l0,0c-1.055,0-1.911-0.855-1.911-1.912l0,0c0.003-4.291,3.479-7.766,7.77-7.77l0,0
							c4.292,0.004,7.769,3.479,7.771,7.77l0,0c0,1.057-0.857,1.912-1.912,1.912l0,0
							C289.396,215.242,288.543,214.387,288.543,213.33L288.543,213.33z"/>
						<path fill="#EAEAEA" d="M258.124,223.973c-1.055,0-1.909-0.857-1.909-1.914l0,0c0-1.055,0.854-1.908,1.909-1.908l0,0h52.938
							c1.052,0,1.909,0.854,1.909,1.908l0,0c0,1.057-0.857,1.914-1.909,1.914l0,0H258.124L258.124,223.973z"/>
					</g>
				</g>
				<g>
					<g>
						<path fill="#EAEAEA" d="M441.882,228.965c-1.058,0-1.912-0.854-1.912-1.911l0,0c0-1.053,0.854-1.909,1.912-1.909l0,0h25.987
							c1.052,0,1.912,0.856,1.912,1.909l0,0c0,1.057-0.86,1.911-1.912,1.911l0,0H441.882L441.882,228.965z"/>
						<path fill="#EAEAEA" d="M439.577,235.746c-1.021-0.271-1.627-1.316-1.355-2.336l0,0l1.813-6.844
							c0.268-1.02,1.314-1.629,2.334-1.358l0,0c1.017,0.269,1.622,1.317,1.357,2.336l0,0l-1.814,6.845
							c-0.226,0.855-0.997,1.421-1.842,1.421l0,0C439.904,235.81,439.74,235.787,439.577,235.746L439.577,235.746z"/>
						<path fill="#EAEAEA" d="M467.836,234.389l-1.812-6.845c-0.272-1.019,0.336-2.067,1.354-2.336l0,0
							c1.021-0.271,2.065,0.339,2.335,1.358l0,0l1.814,6.844c0.271,1.02-0.337,2.065-1.356,2.336l0,0
							c-0.165,0.044-0.334,0.065-0.495,0.065l0,0C468.833,235.81,468.063,235.244,467.836,234.389L467.836,234.389z"/>
					</g>
					<g>
						<path fill="#EAEAEA" d="M434.172,242.59c-1.018-0.27-1.627-1.313-1.356-2.336l0,0l1.814-6.844
							c0.269-1.021,1.314-1.626,2.332-1.358l0,0c1.021,0.271,1.628,1.317,1.359,2.339l0,0l-1.816,6.842
							c-0.225,0.857-0.997,1.422-1.843,1.422l0,0C434.501,242.654,434.336,242.634,434.172,242.59L434.172,242.59z"/>
						<path fill="#EAEAEA" d="M473.239,241.232l-1.811-6.842c-0.271-1.021,0.336-2.067,1.359-2.339l0,0
							c1.018-0.268,2.063,0.337,2.332,1.358l0,0l1.813,6.844c0.271,1.023-0.336,2.066-1.354,2.336l0,0
							c-0.164,0.044-0.329,0.064-0.491,0.064l0,0C474.242,242.654,473.468,242.09,473.239,241.232L473.239,241.232z"/>
						<path fill="#EAEAEA" d="M436.476,235.81c-1.057,0-1.909-0.856-1.909-1.911l0,0c0-1.055,0.853-1.909,1.909-1.909l0,0h36.8
							c1.055,0,1.907,0.854,1.907,1.909l0,0c0,1.055-0.853,1.911-1.907,1.911l0,0H436.476L436.476,235.81z"/>
					</g>
					<path fill="#EAEAEA" d="M434.662,242.656c-1.054,0-1.91-0.859-1.91-1.913l0,0c0-1.055,0.856-1.909,1.91-1.909l0,0h40.425
						c1.054,0,1.91,0.854,1.91,1.909l0,0c0,1.054-0.856,1.913-1.91,1.913l0,0H434.662L434.662,242.656z"/>
					<g>
						<path fill="#EAEAEA" d="M440.425,284.91l-5.776-43.92c-0.14-1.042,0.597-2.005,1.645-2.138l0,0
							c1.043-0.14,2.005,0.595,2.139,1.644l0,0l5.778,43.916c0.141,1.047-0.599,2.007-1.643,2.141l0,0
							c-0.087,0.011-0.174,0.019-0.257,0.019l0,0C441.37,286.571,440.549,285.873,440.425,284.91L440.425,284.91z"/>
						<path fill="#EAEAEA" d="M467.184,286.553c-1.045-0.134-1.784-1.094-1.647-2.141l0,0l5.777-43.916
							c0.137-1.049,1.099-1.783,2.142-1.644l0,0c1.048,0.133,1.784,1.096,1.646,2.138l0,0l-5.776,43.92
							c-0.124,0.963-0.944,1.661-1.888,1.661l0,0C467.351,286.571,467.269,286.563,467.184,286.553L467.184,286.553z"/>
						<path fill="#EAEAEA" d="M442.315,286.572c-1.055,0-1.909-0.856-1.909-1.91l0,0c0-1.056,0.854-1.91,1.909-1.91l0,0h25.117
							c1.055,0,1.911,0.854,1.911,1.91l0,0c0,1.054-0.856,1.91-1.911,1.91l0,0H442.315L442.315,286.572z"/>
					</g>
					<path fill="#EAEAEA" d="M438.184,255.148c-1.055,0-1.908-0.854-1.908-1.909l0,0c0-1.056,0.854-1.911,1.908-1.911l0,0h33.312
						c1.056,0,1.914,0.855,1.914,1.911l0,0c0,1.055-0.858,1.909-1.914,1.909l0,0H438.184L438.184,255.148z"/>
					<path fill="#EAEAEA" d="M439.962,268.693c-1.052,0-1.905-0.854-1.905-1.91l0,0c0-1.057,0.854-1.911,1.905-1.911l0,0h29.819
						c1.054,0,1.907,0.854,1.907,1.911l0,0c0,1.056-0.854,1.91-1.907,1.91l0,0H439.962L439.962,268.693z"/>
				</g>
				<g>
					<g>
						<path fill="#EAEAEA" d="M385.204,228.965c-1.054,0-1.91-0.854-1.91-1.911l0,0c0-1.053,0.856-1.909,1.91-1.909l0,0h25.992
							c1.055,0,1.906,0.856,1.906,1.909l0,0c0,1.057-0.852,1.911-1.906,1.911l0,0H385.204L385.204,228.965z"/>
						<path fill="#EAEAEA" d="M382.901,235.746c-1.019-0.271-1.623-1.316-1.354-2.336l0,0l1.81-6.844
							c0.271-1.02,1.315-1.629,2.335-1.358l0,0c1.021,0.269,1.627,1.317,1.359,2.336l0,0l-1.812,6.845
							c-0.229,0.855-0.999,1.421-1.847,1.421l0,0C383.229,235.81,383.063,235.787,382.901,235.746L382.901,235.746z"/>
						<path fill="#EAEAEA" d="M411.163,234.389l-1.815-6.845c-0.272-1.019,0.341-2.067,1.358-2.336l0,0
							c1.02-0.271,2.063,0.339,2.336,1.358l0,0l1.81,6.844c0.272,1.02-0.337,2.065-1.354,2.336l0,0
							c-0.166,0.044-0.33,0.065-0.494,0.065l0,0C412.159,235.81,411.388,235.244,411.163,234.389L411.163,234.389z"/>
					</g>
					<g>
						<path fill="#EAEAEA" d="M377.499,242.59c-1.02-0.27-1.63-1.313-1.361-2.336l0,0l1.813-6.844
							c0.271-1.021,1.317-1.626,2.34-1.358l0,0c1.017,0.271,1.625,1.317,1.353,2.339l0,0l-1.811,6.842
							c-0.229,0.857-1.001,1.422-1.846,1.422l0,0C377.826,242.654,377.66,242.634,377.499,242.59L377.499,242.59z"/>
						<path fill="#EAEAEA" d="M416.567,241.232l-1.816-6.842c-0.266-1.021,0.339-2.067,1.357-2.339l0,0
							c1.021-0.268,2.069,0.337,2.338,1.358l0,0l1.815,6.844c0.268,1.023-0.337,2.066-1.357,2.336l0,0
							c-0.167,0.044-0.329,0.064-0.491,0.064l0,0C417.565,242.654,416.792,242.09,416.567,241.232L416.567,241.232z"/>
						<path fill="#EAEAEA" d="M379.8,235.81c-1.055,0-1.911-0.856-1.911-1.911l0,0c0-1.055,0.856-1.909,1.911-1.909l0,0h36.801
							c1.053,0,1.912,0.854,1.912,1.909l0,0c0,1.055-0.859,1.911-1.912,1.911l0,0H379.8L379.8,235.81z"/>
					</g>
					<path fill="#EAEAEA" d="M377.987,242.656c-1.057,0-1.912-0.859-1.912-1.913l0,0c0-1.055,0.855-1.909,1.912-1.909l0,0h40.426
						c1.056,0,1.909,0.854,1.909,1.909l0,0c0,1.054-0.854,1.913-1.909,1.913l0,0H377.987L377.987,242.656z"/>
					<g>
						<path fill="#EAEAEA" d="M383.748,284.91l-5.776-43.92c-0.137-1.042,0.601-2.005,1.649-2.138l0,0
							c1.041-0.14,2.001,0.595,2.138,1.644l0,0l5.775,43.916c0.14,1.047-0.6,2.007-1.643,2.141l0,0
							c-0.085,0.011-0.171,0.019-0.25,0.019l0,0C384.694,286.571,383.875,285.873,383.748,284.91L383.748,284.91z"/>
						<path fill="#EAEAEA" d="M410.508,286.553c-1.046-0.134-1.78-1.094-1.646-2.141l0,0l5.775-43.916
							c0.142-1.049,1.099-1.783,2.146-1.644l0,0c1.045,0.133,1.781,1.096,1.646,2.138l0,0l-5.776,43.92
							c-0.127,0.963-0.946,1.661-1.891,1.661l0,0C410.681,286.571,410.596,286.563,410.508,286.553L410.508,286.553z"/>
						<path fill="#EAEAEA" d="M385.642,286.572c-1.055,0-1.91-0.856-1.91-1.91l0,0c0-1.056,0.855-1.91,1.91-1.91l0,0h25.115
							c1.058,0,1.909,0.854,1.909,1.91l0,0c0,1.054-0.852,1.91-1.909,1.91l0,0H385.642L385.642,286.572z"/>
					</g>
					<path fill="#EAEAEA" d="M381.512,255.148c-1.058,0-1.911-0.854-1.911-1.909l0,0c0-1.056,0.854-1.911,1.911-1.911l0,0h33.31
						c1.056,0,1.912,0.855,1.912,1.911l0,0c0,1.055-0.856,1.909-1.912,1.909l0,0H381.512L381.512,255.148z"/>
					<path fill="#EAEAEA" d="M383.292,268.693c-1.054,0-1.911-0.854-1.911-1.91l0,0c0-1.057,0.857-1.911,1.911-1.911l0,0h29.814
						c1.052,0,1.909,0.854,1.909,1.911l0,0c0,1.056-0.857,1.91-1.909,1.91l0,0H383.292L383.292,268.693z"/>
				</g>
			</g>
			<g>
				<defs>
					<path id="SVGID_4_" d="M342.735,251.025v12.458c0,0.921,0.133,1.673,0.367,2.273c-0.15-6.602-0.355-14.731-0.355-14.731
						H342.735z"/>
				</defs>
				<clipPath id="SVGID_2_">
					<use xlink:href="#SVGID_4_"  overflow="visible"/>
				</clipPath>

					<linearGradient id="SVGID_3_" gradientUnits="userSpaceOnUse" x1="-1889.4399" y1="-1898.4531" x2="-1884.6299" y2="-1898.4531" gradientTransform="matrix(0.7568 16.5409 -16.5409 0.7568 -29631.5195 32899.082)">
					<stop  offset="0" style="stop-color:#FFFFFF"/>
					<stop  offset="1" style="stop-color:#B3B2B2"/>
				</linearGradient>
				<polygon clip-path="url(#SVGID_2_)" fill="url(#SVGID_3_)" points="342.062,251.062 342.735,265.776 343.774,265.729
					343.103,251.006 				"/>
			</g>
			<g>
				<defs>
					<path id="SVGID_7_" d="M759.874,277.109c3.677,0.056,7.34,0.084,11.013,0.084c3.54,0,7.085-0.028,10.624-0.074
						c-3.617-0.049-7.313-0.066-11.064-0.066C766.858,277.053,763.333,277.07,759.874,277.109"/>
				</defs>
				<clipPath id="SVGID_5_">
					<use xlink:href="#SVGID_7_"  overflow="visible"/>
				</clipPath>

					<linearGradient id="SVGID_6_" gradientUnits="userSpaceOnUse" x1="-2099.2754" y1="-1815.916" x2="-2094.4539" y2="-1815.916" gradientTransform="matrix(-40.7706 -3.3057 3.3057 -40.7706 -78735.2188 -80691.9063)">
					<stop  offset="0" style="stop-color:#AA1F23"/>
					<stop  offset="0.098" style="stop-color:#7E1C1C"/>
					<stop  offset="0.1319" style="stop-color:#6F1919"/>
					<stop  offset="0.4286" style="stop-color:#921D1D"/>
					<stop  offset="0.8297" style="stop-color:#AF2024"/>
					<stop  offset="1" style="stop-color:#C92127"/>
				</linearGradient>
				<polygon clip-path="url(#SVGID_5_)" fill="url(#SVGID_6_)" points="781.521,277.053 760.018,275.315 759.863,277.193
					781.371,278.94 				"/>
			</g>
		</g>
		<g>
			<g>
				<rect x="643.052" y="443.046" fill="#574E48" width="125.68" height="88.343"/>
				<rect x="756.642" y="443.046" fill="#342F2C" width="89.211" height="88.343"/>
			</g>
			<g>
				<rect x="643.052" y="354.695" fill="#F9DEC1" width="125.68" height="88.343"/>
				<rect x="756.642" y="354.695" fill="#C3AB8B" width="89.211" height="88.343"/>
				<rect x="798.448" y="354.695" fill="#B97A54" width="14.552" height="21.49"/>
				<rect x="798.448" y="443.046" opacity="0.2" fill="#C3AB8B" width="14.552" height="19.618"/>
			</g>
			<g>
				<rect x="975.396" y="372.927" fill="#D3BCA1" width="83.611" height="158.455"/>
				<polygon opacity="0.8" fill="#7F7077" points="1049.735,426.204 1049.735,527.877 981.021,527.877 981.021,372.927
					1021.495,372.927 				"/>
				<rect x="1046.915" y="372.92" fill="#C3AB8B" width="117.263" height="158.469"/>
				<g>
					<path fill="#515963" d="M1033.608,399.266c0,1.447-1.184,2.63-2.629,2.63h-21.627c-1.445,0-2.629-1.183-2.629-2.63v-3.199
						c0-1.445,1.184-2.629,2.629-2.629h21.627c1.445,0,2.629,1.184,2.629,2.629V399.266z"/>
				</g>
				<rect x="1010.931" y="495.342" opacity="0.3" fill="#515963" width="26.883" height="14.542"/>
			</g>
			<g>
				<rect x="823.956" y="372.92" fill="#F9DEC1" width="83.607" height="158.469"/>
				<rect x="895.474" y="372.92" fill="#C3AB8B" width="117.262" height="158.469"/>
			</g>
			<rect x="677.213" y="463.37" fill="#FFFFFF" width="46.394" height="9.466"/>
			<rect x="677.213" y="480.256" fill="#FFFFFF" width="16.926" height="9.466"/>
			<rect x="661.631" y="480.256" fill="#FDD501" width="10.068" height="9.466"/>
			<rect x="661.631" y="463.37" fill="#FDD501" width="10.068" height="9.466"/>
			<rect x="859.009" y="495.342" opacity="0.4" fill="#515963" width="26.883" height="14.542"/>
			<g>
				<path fill="#515963" d="M871.398,399.266c0,1.447-1.183,2.63-2.63,2.63h-21.623c-1.445,0-2.629-1.183-2.629-2.63v-3.199
					c0-1.445,1.184-2.629,2.629-2.629h21.623c1.447,0,2.63,1.184,2.63,2.629V399.266z"/>
			</g>
		</g>

			<path fill="none" stroke="#A9BEDB" stroke-width="0.159" stroke-linecap="round" stroke-miterlimit="10" stroke-dasharray="0.264,0.264,0.264,0.264,0.264,0.264" d="
			M446.233,653.123c0,0-7.773,7.571-11.459,15.646"/>
		<path fill="#FFFFFF" d="M596.271,210.451l-0.166,0.603h-0.111c-0.389,0-0.684,0.014-0.873,0.049
			c-0.194,0.033-0.34,0.092-0.423,0.174c-0.097,0.083-0.164,0.18-0.208,0.286c-0.054,0.107-0.103,0.244-0.141,0.408l-0.893,3.44
			h-1.689l1.083-4.207c0.01-0.029,0.01-0.039,0.01-0.039c0.009-0.049,0-0.072-0.016-0.088c-0.02-0.014-0.039-0.023-0.067-0.023
			h-0.039h-1.688l0.476-0.603H596.271z"/>
		<g opacity="0.3">
			<g>
				<defs>
					<rect id="SVGID_10_" x="333.034" y="604.43" width="591.101" height="160.383"/>
				</defs>
				<clipPath id="SVGID_8_">
					<use xlink:href="#SVGID_10_"  overflow="visible"/>
				</clipPath>
				<path clip-path="url(#SVGID_8_)" fill="#EAEAEA" d="M336.397,617.542c0,0,29.514-29.505,142.023,0
					c112.511,29.515,178.912,23.061,191.824,22.138c12.908-0.921,143.863-12.297,165.07,1.233
					c21.217,13.52,12.913,43.033,47.037,54.099c34.121,11.063,81.158,43.305-16.601,62.706
					c-97.753,19.411-211.191-2.755-304.334-45.179C468.274,670.117,307.81,652.589,336.397,617.542"/>
			</g>
		</g>
		<path fill="#0E3B5E" d="M616.573,356.592l-23.816,37.682c0,0-30.466,38.53-33.703,42.422
			c-3.245,3.893-11.782,12.802-11.782,12.802s-15.571,29.724-15.62,31.771c-0.039,2.049,8.007,9.521,14.044,9.162
			c6.047-0.35,9.816,3.96,30.708-13.131c20.905-17.102,66.026-64.823,67.535-65.367c4.284-1.558,21.444-16.44,32.605-24.278
			c11.156-7.836,12.35-8.37,17.432-22.195c3.251-8.871,0.592-11.846-10.837-16.476c-11.433-4.634-44.824-3.882-46.222-3.761"/>
		<path fill="#5C6C8E" d="M482.027,394.21l0.937,3.523c0,0,0.131,1.577-0.428,1.067c-0.558-0.519-2.887-1.883-2.887-1.883
			l-1.441-2.17"/>
		<path fill="#F6D2B0" d="M705.816,169.528c0,0,20.789-24.457,22.676-27.466c3.179-5.057,5.702-12.918,8.113-15.869
			c2.418-2.945,24.26-31.59,24.26-31.59l6.789,8.782c0,0-12.06,30.319-14.477,35.939c-2.426,5.629-8.899,10.978-10.686,15.306
			c-1.781,4.328-18.449,34.338-20.653,36.852"/>
		<path fill="#F6D2B0" d="M599.512,157.708c0,0-39.947-23.353-46.102-25.962c-1.251-0.534-7.589-8.051-9.725-9.202
			c-8.308-4.503-34.274-15.038-64.463-32.688c0,0-3.873,0.116-5.979-0.989c0,0-9.9,4.26-8.289,5.891
			c1.606,1.631,60.587,55.689,68.642,57.477c8.061,1.795,48.61,26.797,48.61,26.797l24.317-8.188"/>
		<path fill="#FFFFFF" d="M489.398,347.721c0,0-8.342-5.444-17.116-2.402c-8.773,3.033-14.999,11.244-18.576,14.5
			c-3.581,3.261-13.5,7.905-17.382,14.195c-3.887,6.293-21.478,30.519-7.278,38.686c6.803,3.911,19.589-6.756,23.739-10.293
			c10.199-8.687,9.753-23.871,9.046-24.336"/>
		<path fill="#606161" d="M488.618,371.742c0.96-1.213,0.227,0.18,1.349-0.864c2.911-2.718,5.667-8.366,5.667-12.316
			c0-4.168-3.867-10.225-7.371-11.724c-3.246-1.379-6.983-1.626-10.429-1.02c-1.911,0.34-3.979,0.864-5.75,1.66
			c-1.839,0.829-4.091,2.092-5.489,3.576c-2.232,2.383-11.462,9.981-17.076,14.228c-5.052,3.82-9.604,8.284-13.165,13.544
			c-2.796,4.141-9.269,12.89-10.628,17.728c-0.709,2.519-1.47,5.862-0.748,8.429c0.894,3.169,3.587,6.58,6.853,7.464
			c3.087,0.845,9.735-3.329,12.53-4.668c2.067-0.98,4.464-3.174,6.405-4.382c8.279-5.13,12.753-11.826,14.52-14.103
			s16.154-12.418,16.718-12.485"/>
		<path fill="#E9B88E" d="M497.478,375.439c-1.785-2.538-7.045-9.54-6.348-13.889c1.49-9.205-10.83-9.846-17.4-5.623
			c-1.641,1.052-3.707,2.6-4.349,4.313c-0.989,2.631-3.775,9.58,0.049,10.564c5.017,1.307,6.386,3.048,6.886,3.363l8.672,12.85"/>
		<path fill="#0E3B5E" d="M496.604,375.431c0,0-13.389,2.11-19.77,11.433l22.953,43.422c0,0,28.068,52.419,33.906,54.089
			c0,0,21.57-22.4,22.705-23.837c1.136-1.437-26.137-41.607-26.137-41.607L496.604,375.431z"/>
		<path fill="#444544" d="M475.787,374.344c0,0-0.637,3.144-1.351,4.076c-3.065,3.998-12.878,11.112-18.361,15.679
			c-6.766,5.634-8.9,3.329-12.05,0.835c-3.149-2.49-0.509-8.109,2.373-10.788c2.878-2.679,20.974-18.527,20.974-18.527l4.625,3.057
			L475.787,374.344z"/>
		<path fill="#FFFFFF" d="M467.042,367.812c0,0,2.397,3.411,2.174,3.367c-0.224-0.049-5.279-2.679-6.425-2.542
			c-1.155,0.125-1.198,0.786-0.505,1.678c0.698,0.889,4.105,3.169,5.6,3.558c1.485,0.388,2.455,0.665,2.455,0.665l1.472,7.493
			c0,0,2.023-0.068,2.11-1.312c0.093-1.247-1.641-8.821-2.028-9.792c-0.389-0.976-2.615-4.009-2.615-4.009L467.042,367.812z"/>
		<path fill="#FFFFFF" d="M464.349,372.18c0,0,2.625,4.716,2.878,5.366c0.262,0.65,0.747,0.232,0.679,1.179
			c-0.067,0.956-0.79,1.549-0.79,1.549l1.173,4.643c0,0-1.844,2.438-1.965,1.967c-0.115-0.467-0.921-7.119-0.921-7.119
			s-5.614-2.228-6.97-3.479c-1.358-1.252-0.523-1.087-0.35-1.49c0.186-0.413,0.612-0.761,2.383-0.093
			c1.781,0.675,3.84,1.33,3.84,1.33l-1.02-2.814L464.349,372.18z"/>
		<path fill="#FFFFFF" d="M458.768,376.557c0,0,2.937,4.434,3.237,5.609c0.291,1.179,1.11,1.767,1.485,1.911
			c0.368,0.155,2.571,2.563,2.571,2.563s-0.102,0.775-0.659,1.105c-0.554,0.33-2.728-2.242-2.728-2.242l0.159,5.164
			c0,0-1.814,1.601-1.762,0.863c0.049-0.729-0.247-5.668-0.247-5.668s-5.304-2.232-6.537-3.164
			c-1.222-0.932-3.144-1.703-2.707-2.426c0.428-0.738,2.164-0.593,4.309,0.232c2.146,0.825,3.674,1.742,3.674,1.742l-2.519-4.562
			L458.768,376.557z"/>
		<path fill="#FFFFFF" d="M460.384,388.969l-2.911-0.776c0,0-0.496-2.592-0.835-3.741c-0.34-1.15-1.495-2.8-1.495-2.8l-2.096,2.043
			l1.271,3.586c0,0-4.828-2.427-6.172-2.626c-1.335-0.197-2.873-0.023-1.786,1.282c1.097,1.305,8.414,4.508,8.414,4.508l1.272,5.828
			c0,0,2.096-0.806,2.139-1.46c0.049-0.651-0.416-3.65-0.416-3.65s1.315-0.641,1.762-0.96
			C459.976,389.882,460.384,388.969,460.384,388.969"/>
		<path fill="#FFFFFF" d="M456.38,394.768l-3.823-1.801c0,0-0.733-1.648-1.397-2.95c-0.67-1.304-5.033-5.886-5.033-5.886
			l-0.781,1.141l3.567,6.513l-5.779-3.814c0,0-0.451,1.558-0.709,1.586c-0.257,0.024,1.509,0.763,0.743,0.85
			c-0.768,0.088-1.732,0.548-0.99,2.028c0.737,1.485,2.009,2.746,3.736,4.523c1.742,1.775,2.796,3.658,3.625,3.834
			c0.84,0.174,1.752-0.71,2.203-1.117c0.451-0.402-0.219-1.708-0.219-1.708l-3.648-3.503l1.106-0.01c0,0,0.825,1.417,2.149,1.863
			c1.324,0.441,1.994,0.582,2.053-0.233s2.232,0.718,2.863,0.185C456.676,395.743,456.38,394.768,456.38,394.768"/>
		<path fill="#FFFFFF" d="M467.469,377.876c0,0,4.019,1.174,4.145,2.358c0.116,1.184-0.325,1.893-0.753,1.684
			c-0.422-0.208-4.498-2.023-4.498-2.023"/>
		<path fill="#062F49" d="M554.188,449.55c-0.059-5.022-25.05-34.183-25.05-34.183l-29.224-35.997l-3.319,1.282
			c0,0,25.39,29.193,26.36,31.513c0.97,2.314,27.69,40.511,27.69,40.511S552.266,448.876,554.188,449.55"/>
		<path fill="#5C6C8E" d="M498.526,373.052c0,0-8.677,1.112-11.996,2.543c-3.329,1.446-9.04,5.367-9.842,7.435
			c-0.795,2.057-2.751,1.834-1.46,3.688c1.296,1.854,1.849,7.008,3.257,8.057c1.407,1.058,1.912-0.146,4.027-1.738
			c2.125-1.596,8.627-7.847,14.859-8.104c6.23-0.262,10.724,0.116,10.117-2.096c-0.51-1.874-4.596-6.145-7.007-8.551
			C500.041,373.848,498.755,373.329,498.526,373.052"/>
		<polyline fill-rule="evenodd" clip-rule="evenodd" fill="#E9B88E" points="825.047,649.386 836.485,675.192 852.495,660.722
			842.823,639.477 		"/>
		<path fill="#4DA1D8" d="M703.302,184.961l17.291,30.601c0,0,6.639-14.276,9.088-20.062c2.446-5.784-17.294-33.59-23.078-32.92"/>
		<path fill="#0E3B5E" d="M674.632,387.164c1.577-0.568,19.828,18.547,24.808,22.459c-0.02,0.159,7.226,8.671,7.212,8.831
			c2.25,1.825,9.151,11.753,10.938,14.063c5.075,2.698,7.609,13.67,30.469,40.82c1.549,1.836,7.261,18.461,8.789,20.314
			c5.266,6.396,24.633,53.816,27.486,60.813c3.692,9.026,9.355,24.594,13.199,33.203c3.844,8.608,12.573,37.53,13.763,42.51
			c0.878,3.659,11.171,22.643,8.157,17.111c-0.927-1.708,0.641,1.329-1.451-2.563c0,0,19.993-17.218,26.865-17.906l0.228,0.515
			c0,0-0.054-0.186-0.155-0.524c0.519-0.049,0.956-0.049,1.306,0.019c0,0-0.35-1.203-0.912-3.105
			c-1.845-6.279-1.005-3.795-2.854-8.512c-2.406-6.162-17.771-54.438-20.561-58.358c-0.979-1.378-10.885-38.366-11.263-39.958
			c-0.884-3.766-3.431-11.16-4.402-14.908c-1.295-4.997-1.984-10.461-3.727-15.323c-1.829-5.087-1.829-5.087-5.59-12.007
			c-3.14-5.773-9.206-19.522-12.807-25.351c-7.313-11.85-14.412-23.292-20.701-35.765c-8.435-16.703-15.854-25.899-25.399-41.762
			c-0.33-0.651-0.67-1.311-1.005-1.971l-3.091-6.134c0,0-0.02,0.01-0.059,0.029c-4.805-9.167-9.865-17.901-13.612-20.644
			c0,0-6.449-11.443-10.04-8.599c0,0-13.471-19.81-26.33-11.134c-0.098-0.121,3.114,27.846,3.027,27.759
			c0,0-1.854,1.358-3.513,2.261c0,0,0.087,0.166,0.232,0.438c-5.227,3.426-10.768,6.803-16.165,9.651
			c0.104,0.161,0.209,0.325,0.307,0.481c2.338,4.6,5.936,13.626,8.25,18.236"/>
		<path fill-rule="evenodd" clip-rule="evenodd" fill="#606161" d="M830.986,670.33c0,0-1.62,4.514-0.354,6.939
			c1.268,2.437,4.237,12.607,5.092,14.878c0.854,2.271,0.611,9.095,6.425,11.229c5.813,2.137,43.685-30.262,43.685-30.262
			l15.538-19.974c0,0,0.427-8.492-9.622-7.89c-10.051,0.602-19.155,8.026-24.318,7.395c-5.163-0.631-12.797-3.901-14.893-0.941
			c-2.102,2.951-4.479,4.873-5.867,8.891C845.293,664.604,845.293,671.845,830.986,670.33"/>
		<path fill="#4DA1D8" d="M735.737,336.395c-1.489-2.961-8.715-6.58-9.511-9.016c2.785-2.01,3.921-3.713,3.474-7.071
			c-0.805-6.003-5.648-25.03-5.648-25.035c1.402-10.346,4.466-15.044,4.893-17.335c1.028-5.561-1.67-35.53-2.786-38.194
			c-0.583-1.394-1.091-3.587-2.213-9.177c-1.019-5.12,4.445-15.384,4.125-18.896c-0.669-7.343-15.208-33.97-20.993-35.745
			c-1.533-0.476-1.805-11.007-6.891-12.113c-14.131-3.058-40.229,2.116-40.229,2.116s-12.907,1.864-13.572,2.087
			c-0.675,0.224-23.148-7.964-29.374-8.187c-6.227-0.224-21.129-6.673-21.129-6.673s-16.896,20.459-19.79,37.813
			c0,0,31.801,18.672,37.361,23.792c0,0,4.45,28.462,5.11,29.577c0.669,1.116-2.543,30.611-2.543,35.279s-0.154,31.088,1.85,36.648
			c2.004,5.562-6.479,17.256-5.592,19.256c0.89,1.998-3.003,2.328-1.674,7.453c1.34,5.109,3.514,12.181-2.271,14.142
			c-3.609,1.222-3.935,6.26-3.935,6.26s21.948-7.513,27.956-8.453c6.004-0.942,24.468,0.271,31.359,0
			c6.896-0.277,27.402-3.222,33.493-2.927c31.862,1.559,33.668,12.631,37.225,8.41c0,0-3.746-8.434-5.59-17.698
			C732.885,340.528,737.427,339.758,735.737,336.395"/>
		<path fill="#65BAE8" d="M728.459,259.653c-0.719-5.426-1.087-13.063-1.358-16.004c-0.524-5.813-6.702-15.479-13.395-23.556
			c0.087,0.223-0.602-1.698,1.922,5.231c1.854,5.114,3.805,10.569,4.993,14.209c2.839,8.677,7.003,15.374,7.828,20.1
			C728.449,259.644,728.459,259.644,728.459,259.653"/>
		<path fill-rule="evenodd" clip-rule="evenodd" fill="#FFFFFF" d="M681.29,157.571c0,0-9.336-1.335-10.181-1.407
			c-3.911-0.306-8.809,4.145-9.046,5.483c-0.223,1.339-1.232,3.785-1.932,4.771c-0.709,0.995-0.432,2.461-0.49,3.208
			c-0.053,0.737,7.76,29.489,7.76,29.489s11.074-15.276,16.111-15.232c0,0-12.957-6.658-14.505-9.948
			c-1.558-3.3-1.319-5.356-1.319-5.356l17.435,0.324l-2.747-0.219l11.163,0.913c0,0,7.943,3.663,5.891,6.678
			c-2.059,3.003-2.165,8.167-2.165,8.167c8.716-1.917,8.25,11.262,8.25,11.262s4.717-22.865,4.775-23.612
			c0.063-0.737-0.815-3.571-1.354-4.658c-0.539-1.097-2.238-1.729-2.252-3.087c-0.02-1.359-4.246-4.921-8.139-5.241
			c-0.854-0.058-10.588-0.999-10.588-0.999L681.29,157.571z"/>
		<path fill="#FFFFFF" d="M901.273,655.248c0,0,0.534-5.949-0.636-7.221c-1.179-1.262-3.965-3.339-6.139-3.067
			c-2.164,0.272-6.754,0.845-14.034,7.026c-7.278,6.174-10.782,12.627-12.072,15.549c-1.296,2.922-2,5.609-5.062,7.716
			c-3.067,2.116-18.727,8.512-23.26,15.102c0,0-4.396,4.989-3.514,7.483c0.888,2.484,3.873,6.075,4.62,6.317
			c0.737,0.224,3.522,0.962,3.522,0.962"/>
		<path fill-rule="evenodd" clip-rule="evenodd" fill="#6E6D73" d="M841.799,698.689c-0.524,2.311,0.669,5.581,2.825,6.6
			c3.377,1.602,9.117-0.698,12.213-2.203c6.324-3.066,9.521-8.677,14.51-13.268c3.781-3.464,7.036-7.298,11.337-10.2
			c5.11-3.445,9.429-7.163,12.933-12.336c1.751-2.581,3.251-5.327,4.541-8.172c1.272-2.804,3.252-6.327,2-9.423
			c-1.621-4.019-5.382-2.223-8.309-1.001c-3.988,1.66-7.259,4.94-10.277,7.921c-3.262,3.231-6.256,6.726-9.002,10.403
			c-3.309,4.426-4.076,10.142-9.186,12.977c-4.736,2.62-9.706,4.475-14.307,7.396C846.919,690.022,842.938,693.701,841.799,698.689"
			/>
		<path fill-rule="evenodd" clip-rule="evenodd" fill="#FFFFFF" d="M858.968,649.289c0,0-4.901,2.281-4.154,6.183
			c0.752,3.892,2.088-1.058,3.747-2.883c1.659-1.835,6.274-2.077,4.581-2.882C861.452,648.892,858.968,649.289,858.968,649.289"/>
		<path fill-rule="evenodd" clip-rule="evenodd" fill="#FFFFFF" d="M863.161,651.143c0,0,0.406-1.388-2.408-0.572
			c-2.804,0.815-4.755,4.503-3.707,5.475c1.048,0.97,5.29-3.854,6.221-4.213C864.194,651.463,863.567,651.618,863.161,651.143"/>
		<path fill-rule="evenodd" clip-rule="evenodd" fill="#FFFFFF" d="M867.188,652.113c-0.505-0.32-1.98-1.271-2.796-0.35
			c-0.815,0.932-3.153,3.63-2.318,5.173c0.835,1.554,2.047-3.367,3.513-3.854C867.042,652.589,867.901,652.55,867.188,652.113"/>
		<path fill-rule="evenodd" clip-rule="evenodd" fill="#FFFFFF" d="M869.333,651.861c0,0-1.476-0.933-1.965,1.116
			c-0.48,2.037,0.669,5.579,1.441,4.6c0.775-0.97,0.426-3.368,0.999-4.299C870.381,652.346,870.692,651.842,869.333,651.861"/>
		<path fill-rule="evenodd" clip-rule="evenodd" fill="#FFFFFF" d="M873.517,650.842c0,0-0.84-0.408-1.534-0.059
			c-0.688,0.341-0.835,0.495-0.731,1.311c0.102,0.815-0.428,4.619,0.839,3.659C873.36,654.782,874.244,651.764,873.517,650.842"/>
		<path fill-rule="evenodd" clip-rule="evenodd" fill="#FFFFFF" d="M876.874,649.386c0,0-2.28,0.321-2.101,1.504
			c0.18,1.194,1.11,3.844,1.557,2.894c0.447-0.952,1.106-1.807,0.724-2.835C876.67,649.92,877.351,649.678,876.874,649.386"/>
		<path fill="#FFFFFF" d="M707.971,159.474c0,0,23.497,14.044,23.826,31.94l-2.81,5.28c0,0-1.539-18.605-21.07-30.718
			c-7.726-4.785-1.567-4.261-1.567-4.261"/>
		<path fill="#3E92C1" d="M652.367,324.642c10.234-8.454,23.575-19.566,18.115-17.344c-5.459,2.223-27.897,14.228-30.12,14.228
			s-9.338-22.235-11.967-26.253c-2.616-4.018,42.442-32.009,42.442-32.009c-3.553,1.33-30.476,14.006-42.442,10.676
			c-11.957-3.339,0-39.143,0-39.143c-0.835-9.787-14.946-20.041-14.946-20.041s4.45,28.471,5.114,29.582
			c0.669,1.111-2.537,30.611-2.537,35.279s-0.16,31.088,1.844,36.648c2.004,5.562-6.479,17.256-5.592,19.256
			c0.89,1.998-3.003,2.338-1.668,7.448c1.33,5.12-5.362,7.857-8.697,12.972c-3.333,5.114,6.586,11.831,6.586,11.831
			s17.854-11.909,23.855-12.85c5.271-0.825,20.14,0.01,28.354,0.039c-0.141-0.739-1.198-1.583-3.668-2.524
			c-11.118-4.222,4.673-0.66,9.118-2.484c4.444-1.824,7.561-1.737,3.582-1.737c-3.99,0-13.812,0-24.041-2.223
			C635.471,343.771,642.139,333.096,652.367,324.642"/>
		<path fill="#3E92C1" d="M590.515,179.031c0,0,20.882,33.396,25.646,37.903c0,0-27.199-19.464-32.44-21.425
			C578.48,193.539,588.369,180.03,590.515,179.031"/>
		<path fill="#FFFFFF" d="M605.111,156.79l-10.151-4.614c0,0-16.495,15.13-21.013,37.385l9.773,5.945
			C583.721,195.506,595.31,163.172,605.111,156.79"/>
		<path fill="#062F49" d="M682.101,393.608c0,0,13.224,6.036,37.137-11.583c23.905-17.625-8.957,13.718-8.627,15.62
			c0.34,1.893,20.557,0.194,21.43-0.02c0.873-0.204-5.877,4.174-11.53,7.726c-5.644,3.548-4.63,4.475,0.524,6.396
			c5.153,1.936,2.805,2.892,1.174,5.289c-1.635,2.398,22.905,40.2,26.681,48.217c3.78,8.018,3.809,18.684,3.809,18.684
			s-13.402-26.167-22.375-37.114c-8.968-10.948-20.401-27.515-28.127-36.453C694.46,401.431,692.771,399.49,682.101,393.608"/>
		<path fill="#0E3B5E" d="M796.936,586.698c0,0,4.833,11.86,3.955,15.529c-0.884,3.658,0.291,6.579,2.193,8.046
			c1.902,1.475,3.373,3.96,2.785,5.862c-0.587,1.911-1.174,1.173-1.465,3.658c-0.292,2.494-0.433,3.077,2.785,4.406
			c3.217,1.31,1.465,1.602,1.902,2.63c0.437,1.029-0.15,0.176,1.028,1.757c1.175,1.592,1.02,3.077,2.484,1.319
			c1.465-1.756,2.932-6.152,5.426-6.734c2.484-0.593,8.638-2.049,9.084-2.203c0.438-0.146,7.172-2.63,8.493-2.776
			c1.319-0.146,3.513-0.301,3.959-0.437c0.437-0.155,2.917-2.553,2.917-2.553s-1.456-3.902-0.724-7.124
			c0.733-3.222-4.833-7.909-6.299-10.549c-1.466-2.631,0.442-5.271-0.728-9.813c-1.175-4.543-9.084-12.016-13.772-20.799
			c-4.692-8.784-13.771-6.59-13.917,0.146"/>
		<path fill-rule="evenodd" clip-rule="evenodd" fill="#5C6C8E" d="M810.654,632.761c0,0,3.339,19.964,7.216,19.478
			c6.987-0.872,6.73,4.059,25.254-6.88c13.951-8.24,12.544-7.095,10.151-12.578c-2.392-5.483-7.818-17.111-9.157-15.606
			c-1.34,1.504-2.319,5.474-14.373,8.773C817.69,629.248,811.12,627.617,810.654,632.761"/>

			<path fill="none" stroke="#A9BEDB" stroke-width="0.21" stroke-linecap="round" stroke-miterlimit="10" stroke-dasharray="0.351,0.351,0.351,0.351,0.351,0.351" d="
			M843.799,620.104c-0.462-1.155,5.192,6.988,8.772,18.479"/>
		<path fill="#F6D2B0" d="M694.499,133.881c0,0-4.892,11.598-1.52,38.928c0,0,0.874,3.175,7.227,1.811
			c6.348-1.363,1.466,7.323,1.466,7.323s-2.248,7.327-2.248,8.695c0,1.364-0.393,6.444-0.78,8.008
			c-0.389,1.562-1.369,4.299-2.15,5.667c-0.78,1.363-0.684,1.66-1.174,1.752c-0.486,0.102-5.464-11.325-5.663-11.816
			c-0.194-0.484-2.932-5.76-4.396-7.909c-1.466-2.145-5.368-4.489-6.931-4.979c-1.562-0.49-4.003-0.883-4.688-0.883
			c-0.684,0-1.131,2.193-1.131,2.193c-0.16-2.368-11.719-9.182-11.859-11.859c0,0,11.642,2.26,11.884-0.972
			c0.772-10.248,1.757-32.571-3.513-40.276"/>
		<path fill="#E9B88E" d="M673.002,164.385c-0.059,0.131-0.111,0.232-0.166,0.359c0.622-11.259,0.767-28.996-3.813-35.688
			l14.549,2.461c3.585,1.538,8.026,4.391,9.733,6.158c-0.485,2.242-0.979,5.376-1.261,9.511l-0.204,0.835
			C691.84,148.021,678.054,152.277,673.002,164.385"/>
		<path fill="#E9B88E" d="M695.197,133.939c0,0-8.952,0.096-12.307-0.874C679.533,132.104,689.006,137.82,695.197,133.939"/>
		<path fill="#0E3B5E" d="M656.162,390.914c0,0,4.115,0.496,7.774,0.938c3.664,0.437,14.65-1.174,18.164,1.757
			c3.519,2.931,5.857-7.619,5.857-7.619s-8.804-22.904-9.24-23.061c-0.438-0.141-6.299-0.728-9.084,0.156
			c-2.78,0.874-12.452,9.085-14.064,10.248"/>
		<path fill-rule="evenodd" clip-rule="evenodd" fill="#FFFFFF" d="M670.721,168.854c-0.724-1.528-1.975-4.109-2.311-5.274
			l-8.453,3.465c-0.378,7.42,7.761,29.494,7.761,29.494s11.068-15.276,16.105-15.237
			C683.823,181.301,672.273,172.154,670.721,168.854"/>
		<path fill-rule="evenodd" clip-rule="evenodd" fill="#FFFFFF" d="M695.256,201.096c-0.291,1-3.532,8.4-4.571,11.244
			c-0.33,0.883-0.641,2.795-0.907,4.988l-0.16,2.3l5.833,0.466c0,0,0.398-2.649,1.102-4.882c7.939-25.104,5.436-33.348,5.436-33.348
			l-4.407,2.514C697.153,188.144,697.343,193.812,695.256,201.096"/>
		<path fill-rule="evenodd" clip-rule="evenodd" fill="#FFFFFF" d="M683.828,181.301c0,0,7.313,6.813,8.012,9.943
			c0.704,3.136,3.344,13.739,3.775,15.16c0.432,1.428-0.165,13.689-0.165,13.689l-5.833-0.466c0,0,0.97-12.325-0.088-16.285
			c-1.048-3.95-3.188-12.699-4.823-14.112c-1.63-1.417-6.59-5.513-6.59-5.513l-0.835-3.411"/>
		<path fill-rule="evenodd" clip-rule="evenodd" fill="#FFFFFF" d="M705.807,164.957L705.807,164.957l-5.183-1.223
			c-0.433,0.994-0.025,7.774-0.719,8.92c-1.932,3.202-2.476,14.067-2.476,14.067c8.085-1.067,8.026,9.594,8.026,9.594
			s0.797-18.227,1.059-26.641L705.807,164.957z"/>
		<path fill-rule="evenodd" clip-rule="evenodd" fill="#F6D2B0" d="M804.346,76.139c-0.733-0.16-4.708,1.149-5.542,1.411
			c-0.835,0.263-2.979,1.097-4.231,1.252c-1.253,0.155-2.771,1.155-3.708,1.097c-0.917-0.048-4.27,0.641-4.464,0.68
			c-0.35-0.262-0.665-0.475-0.768-0.572c-0.204-0.199-0.146-0.753-0.072-1.126c0.072-0.204,0.189-0.442,0.306-0.669
			c0.732-0.87,1.189-1.52,1.747-2.689c1.757-2.358,4.158-5.203,5.765-7.871c2.049-2.776,1.049-2.086,1.505-2.591
			c0.476-0.524,3.295-2.718,2.669-6.115s-3.296-1.514-3.922-1.407c-0.625,0.098-1.989,2.611-2.348,3.077
			c-0.369,0.476-2.039,2.824-2.669,3.712c-0.631,0.888-2.402,2.402-3.136,3.818c-0.732,1.408-1.149,1.67-2.145,2.559
			c-0.83,0.742-2.945,2.702-3.63,3.334c-0.311,0.154-0.587,0.262-0.835,0.311c-0.416-0.121-0.795-0.281-1.087-0.457
			c-0.262-0.388-0.427-0.96-0.515-1.664c0.137-0.684,0.389-1.441,0.253-1.994c-0.233-0.98-0.155-3.523,0.039-4.271
			c0.193-0.747,0.437-2.862,0.437-4.115c0-1.256,0.428-3.766,1.131-5.454c0.704-1.678,0.237-6.541-1.646-7.134
			c-1.878-0.581-3.883,1.573-3.722,3.611c0.15,2.038-0.276,2.586-1.102,5.493c-0.825,2.893-0.389,3.368-1.015,5.13
			c-0.626,1.761-0.907,1.722-1.296,2.586c-0.266,0.582-1.252,3.814-1.863,5.824c-0.039,0.082-0.076,0.184-0.115,0.266
			c-0.985,2.121-1.34,2.281-2.193,3.718c-0.947,1.605-1.932,2.237-2.933,2.257l0.02-0.121c0,0-2.61-2.616-4.178-3.034
			c-1.567-0.417-2.198-3.236-3.032-3.867c-0.835-0.626-3.971-2.402-5.436-2.402c-1.461,0-4.504-0.165-5.115,0.107
			c-1.883,0.835-2.615,3.862-1.048,4.697c1.111,0.601,3.679,1.494,5.086,1.975c0.358,0.286,0.757,0.567,1.218,0.854
			c0.141,0.092,0.296,0.237,0.437,0.354c0.989,1.297,2.79,3.723,3.557,5.179c0.049,0.092,0.088,0.179,0.137,0.267
			c0.097,0.219,0.193,0.428,0.229,0.572c0.314,1.467,1.46,4.29,1.877,5.019c0.359,0.626,0.486,5.017,2.111,6.493
			c0.296,0.912,0.917,1.577,0.917,1.577l8.852,7.147c0,0,4.289-0.039,9.03-1.66c4.741-1.616,9.93-4.813,13.981-4.756
			c1.029,0.01,1.756-0.01,2.251-0.048c2.437,0.796,3.858,1.223,6.081,1.067c2.349-0.15,1.363-2.402,1.098-3.027
			c-0.263-0.626-2.039-1.098-2.665-1.146c-0.631-0.059-2.354-1.204-4.309-1.364c-1.961-0.155-2.354-0.703-3.3-0.703
			c-0.938,0-4.115-0.224-4.115-0.224l0,0c-2.32-3.076,5.308-5.435,10.928-7.443c0.252-0.088,0.466-0.166,0.688-0.258
			c0.321-0.043,0.681-0.092,1.097-0.15c3.136-0.417,4.076-0.835,5.746-3.087C807.063,77.919,805.073,76.299,804.346,76.139"/>
		<path fill-rule="evenodd" clip-rule="evenodd" fill="#F6D2B0" d="M765.917,107.457c0,0,2.159-4.615,3.663-4.682
			c1.5-0.078,4.393-3.961,2.781-5.572c-1.606-1.61-1.394-2.416-3.043-2.455c-1.641-0.039-2.116-0.688-3.805,0.145
			c0,0-3.586,2.719-3.63,3.077c-0.029,0.369-0.029,3.228-0.029,3.228"/>
		<path fill-rule="evenodd" clip-rule="evenodd" fill="#FFFFFF" d="M701.594,188.503c0,0,1.99,0.528,2.105,1.232
			c0.117,0.703,0.825,5.921,1.116,6.328c0.291,0.412,0.467,0.801,0.641,0.252c0.18-0.544,0.524-7.22,0.524-7.22
			s2.213-1.369-0.698-2.35c-4.048-1.359-4.339-1.814-4.339-1.814l-0.99,1.169"/>
		<path fill="#5C6C8E" d="M503.874,384.719c0,0,0.544-0.029,0.912,0.805c0.359,0.835,2.445,2.834,2.654,0.573
			c0.209-2.262,0.685-2.577-0.266-3.747"/>
		<path fill="#625E5C" d="M659.72,125.18c1.437,0.305,2.868,0.781,3.28,1.048c0.407,0.277,1.306,1.665,2.043,2.558
			s2.31,7.123,2.62,8.075c0.301,0.95-0.688,1.62-0.688,1.62s-0.175,1.078-1.868-1.62c-1.693-2.704-6.241-8.289-6.241-8.289"/>
		<path fill="#F6D2B0" d="M661.937,128.256c0,0,8.391,11.438,10.765,36.6c4.949,1.262,10.666,2.45,14.664,2.45
			c0.815,0,1.543,0,2.271-0.005c0.131-5.585,0.985-9.808,0.985-9.808l1.169-4.706c-4.202-5.333-21.178-1.762-31.125-49.344
			c-0.854-1.145-1.965-1.805-3.231-2.096c-0.442,5.494-0.262,9.487-0.262,9.487s-12.346-9.987-10.765,4.188
			C648.845,128.775,661.937,128.256,661.937,128.256"/>
		<path fill="#F6D2B0" d="M654.299,104.852c8.633,38.569,31.02,43.422,42.82,52.182c2.523,1.877,9.915,2.679,14.335-0.825
			c1.719-1.354,4.076-7.964,5.553-13.642c1.349-5.178,4.1-11.821,4.172-17.188c0.02-1.33,0.146-4.154-0.426-6.115
			c-2.01-6.842-0.103-12.18-0.729-16.393c-0.165-1.126-0.66-3.377-1.291-6.07c-1.732-7.343-4.498-17.97-4.498-17.97l-35.653-13.433
			l-8.201-0.291c0,0-16.422,2.713-17.436,3.105c-1.01,0.394-3.392,15.685-3.392,15.685l2.727,19.353
			C653.032,103.619,653.735,104.095,654.299,104.852"/>
		<path fill="#625E5C" d="M714.987,81.753c0,0,10.928-6.134,12.918-11.415c0,0-8.279,1.941-11.797-0.926
			c-3.518-2.868-12.351,4.062-12.351,4.062l-2.824,3.251"/>
		<path fill="#625E5C" d="M672.079,104.668c0,0,8.469-9.503,20.566-2.85c1.146,0.636,1.146,3.572,1.146,3.572
			S685.6,99.872,672.079,104.668"/>
		<path fill="#E9B88E" d="M707.917,108.84c0,0-0.335-3.163,4.372-3.019c4.702,0.15,6.309,6.164,3.814,8.104
			c-2.494,1.932-6.571,1.203-7.347-0.276C707.98,112.169,707.563,110.433,707.917,108.84"/>
		<path fill="#FDFBE5" d="M708.077,109.85c0,0-0.325-3.125,4.319-2.979c4.644,0.145,6.221,6.084,3.766,7.996
			c-2.466,1.912-6.484,1.194-7.261-0.271C708.135,113.141,707.732,111.422,708.077,109.85"/>
		<path fill="#515251" d="M708.815,110.578c0-1.34,1.062-2.417,2.377-2.407c1.311,0.01,2.368,1.106,2.368,2.44
			c-0.01,1.345-1.067,2.422-2.378,2.412C709.873,113.014,708.815,111.922,708.815,110.578"/>
		<path d="M709.931,110.588c0-0.709,0.563-1.277,1.262-1.271c0.688,0.004,1.252,0.582,1.252,1.291c0,0.707-0.573,1.28-1.262,1.271
			C710.493,111.878,709.931,111.295,709.931,110.588"/>
		<path fill="#FFFFFF" d="M711.459,109.665c0,0.306,0.243,0.554,0.539,0.554c0.301,0.005,0.544-0.243,0.544-0.554
			c0-0.301-0.238-0.548-0.544-0.554C711.702,109.111,711.459,109.355,711.459,109.665"/>
		<path fill="#E9B88E" d="M692.077,110.433c0,0,0.486-3.358-5.652-3.224c-6.135,0.137-8.318,6.532-5.101,8.6
			c3.217,2.067,8.546,1.311,9.584-0.262S692.515,112.13,692.077,110.433"/>
		<path fill="#FDFBE5" d="M691.85,111.51c0,0,0.485-3.319-5.581-3.184c-6.057,0.136-8.211,6.444-5.036,8.492
			c3.177,2.038,8.434,1.29,9.462-0.263C691.724,115.004,692.276,113.18,691.85,111.51"/>
		<path fill="#515251" d="M690.112,112.476c0.005-1.364-1.092-2.476-2.455-2.48c-1.369-0.005-2.476,1.093-2.485,2.456
			c0,1.368,1.097,2.475,2.461,2.484C688.996,114.936,690.107,113.839,690.112,112.476"/>
		<path d="M688.947,112.47c0.01-0.718-0.573-1.31-1.3-1.31c-0.719,0-1.307,0.582-1.307,1.301c-0.004,0.719,0.578,1.305,1.297,1.31
			C688.354,113.771,688.947,113.188,688.947,112.47"/>
		<path fill="#FFFFFF" d="M687.365,111.51c0,0.314-0.252,0.563-0.563,0.563c-0.315,0-0.563-0.252-0.563-0.563
			c0-0.32,0.252-0.563,0.563-0.563C687.118,110.947,687.365,111.199,687.365,111.51"/>
		<path fill="#E9B88E" d="M703.447,112.723c-0.039,0.34-0.437,0.824-0.577,1.154c-0.699,1.664-1.044,3.529-0.422,5.281
			c0.475,1.333,1.45,2.484,2.688,3.183c0.942,0.524,2.136,0.806,2.849,1.669c1.214,1.467-0.314,3.174-1.401,4.12
			c-0.636,0.559-1.379,1.015-2.184,1.433c0.911-0.01,1.824-0.244,2.688-0.642c0.437-0.193,0.835-0.446,1.232-0.733
			c0.195-0.141,0.389-0.295,0.563-0.461c0.186-0.18,0.346-0.33,0.534-0.576l0.039-0.063c0.402-0.68,0.815-1.388,0.894-2.422
			c0.097-1.345-0.98-2.281-2.106-2.8c-0.961-0.438-2.009-0.68-2.912-1.223c-1.164-0.709-1.97-1.941-2.231-3.271
			C702.792,115.848,703.263,114.237,703.447,112.723"/>
		<path fill="#E0A579" d="M709.455,134.608c0,0-11.578,2.752-20.761-2.349c0,0-2.648-1.659-2.959-2.174c0,0,0.291,4.503,11.025,6.59
			c10.733,2.087,15.46-0.428,15.46-0.428L709.455,134.608z"/>
		<path fill="#E9B88E" d="M691.907,139.898c0,0,10.967,3.979,18.83,0.649c0,0-1.253,3.097-7.067,3.329
			C697.857,144.1,691.907,139.898,691.907,139.898"/>
		<path fill="#625E5C" d="M719.397,99.795c-3.595-0.553-8.865-1.621-13.388,1.994c-0.786,0.627,0.325,3.819,0.325,3.819
			s3.984-3.838,13.34-4.411L719.397,99.795z"/>
		<path fill="#F8DBC2" d="M638.479,111.631c0,0-1.68,4.236,6.609,12.253c0,0,1.893,1.485,2.562,5.761
			c0.67,4.285,6.202,3.761,7.901,1.693c1.693-2.058-2.941-12.763-2.941-12.763l-6.309-5.396"/>
		<path fill="#F6D2B0" d="M662.539,121.613c0.014-0.496-1.98-3.941-1.878-4.01c-0.093-0.066-0.132-0.17-0.175-0.262
			c-0.029-0.066-0.054-0.141-0.092-0.203c-0.253-0.495-0.511-0.995-0.815-1.476c-0.127-0.194-0.242-0.407-0.383-0.601
			c-0.18-0.253-0.354-0.506-0.544-0.743c-0.263-0.335-0.529-0.685-0.825-0.999c-0.346-0.365-0.67-0.753-1.043-1.093
			c-1.806-1.635-3.752-3.077-6.062-3.911c-2.028-0.738-4.207-1.107-6.367-0.932c-1.873,0.154-4.285,0.649-5.366,2.378
			c-0.268,0.432-0.447,0.912-0.539,1.411c-0.111,0.617-0.073,1.219,0.098,1.82c0.096,0.326,0.218,0.631,0.357,0.937
			c0.137,0.297,0.301,0.568,0.462,0.85c0.131,0.126,0.189,0.292,0.286,0.437c0.112,0.156,0.224,0.311,0.33,0.466
			c0.054,0.038,0.067,0.097,0.097,0.155c0.117,0.121,0.204,0.271,0.316,0.407c0.121,0.156,0.257,0.307,0.378,0.457
			c0.102,0.141,0.213,0.271,0.324,0.397c0.132,0.141,0.264,0.287,0.389,0.428c0.199,0.232,0.408,0.445,0.616,0.674
			c0.238,0.257,0.501,0.495,0.749,0.752c0.236,0.243,0.484,0.477,0.731,0.713c0.136,0.132,0.271,0.258,0.418,0.384
			c0.213,0.204,0.437,0.418,0.64,0.631c0.156,0.156,0.316,0.312,0.471,0.462c0.229,0.213,0.451,0.432,0.67,0.654
			c0.354,0.359,0.714,0.708,1.049,1.097c0.213,0.233,0.422,0.485,0.631,0.728c0.145,0.176,0.286,0.359,0.402,0.554
			s0.253,0.389,0.349,0.602c0.104,0.243,0.219,0.481,0.292,0.737c0.155,0.496,0.262,0.995,0.32,1.505
			c0.029,0.282,0.01,0.573,0.029,0.854c0.029,0.485,0.063,0.97,0.098,1.455c0.039,0.428,0.121,0.854,0.252,1.263
			c0.121,0.397,0.33,0.767,0.602,1.101c0.175,0.229,0.378,0.438,0.611,0.607c0.224,0.155,0.456,0.3,0.719,0.402
			c1.11,0.456,3.576-0.209,4.299-1.193c0.815-1.111,2.854-4.377,6.508-3.247c0.325,0.098-3.654-1.13-3.319-1.223
			c0.252-0.063-1.272,0.708-1.009,0.679c-0.016,0.035-0.035,0.059-0.01,0.088c0.092-0.049,0.121-0.154,0.207-0.223
			c0.253-0.199,0.505-0.398,0.812-0.544c0.384-0.175,0.772-0.276,1.193-0.213c0.18,0.02,0.224,0.092,0.16,0.262
			c0,0.024-0.01,0.044-0.02,0.063c0.039,0.028,0.078,0.01,0.116,0c0.321-0.083,0.636-0.103,0.961-0.034
			c0.146,0.028,0.277,0.067,0.418,0.087c-0.107-0.039-0.131-0.087-0.049-0.185c0.039-0.053,0.088-0.121,0.111-0.193
			c0.121-0.316,0.229-0.632,0.336-0.952c0.019-0.059,0.047-0.117,0.063-0.184c0.043-0.195,0.072-0.389,0.121-0.578
			c0.097-0.345,0.175-0.694,0.233-1.048c0.063-0.364,0.126-0.724,0.154-1.092C662.451,122.515,662.529,122.068,662.539,121.613"/>
		<path fill="#F8D1AC" d="M652.989,132.948c0.043-0.058,0.097-0.058,0.154-0.02C653.091,132.938,653.042,132.944,652.989,132.948"/>
		<path fill="#F8D1AC" d="M655.552,116.022c0.096,0.039,0.193,0.078,0.291,0.116c0.058,0,0.115,0.01,0.154,0.067
			c-0.102,0.02-0.203,0.02-0.291-0.048c-0.127-0.087-0.262-0.049-0.402,0.097c-0.014,0.02-0.029,0.044-0.049,0.068
			c0.17,0.039,0.297,0.15,0.428,0.242c0.121,0.078,0.247,0.166,0.354,0.263c0.093,0.088,0.146,0.203,0.247,0.271
			c0.054,0.039,0.02,0.078-0.033,0.107c0.102,0.029,0.193-0.01,0.271,0.059c0.024,0.023,0.049-0.01,0.068-0.02
			c0.092-0.039,0.155-0.111,0.213-0.186c0.02-0.02,0.049-0.039,0.073-0.029c0.034,0.029,0.005,0.059-0.005,0.074
			c-0.068,0.111-0.136,0.203-0.271,0.227c-0.029,0.006-0.059,0.02-0.073,0.049c-0.083,0.117-0.204,0.189-0.296,0.291
			c-0.194,0.214-0.427,0.379-0.642,0.573c-0.066,0.059-0.141,0.116-0.232,0.131c0,0-0.076,0.01-0.105-0.02
			c-0.016-0.014-0.025-0.033-0.025-0.049c0-0.023,0.025-0.023,0.045-0.023c0.203-0.02,0.318-0.093,0.318-0.282
			c0.01-0.229,0.132-0.35,0.282-0.461c0.024-0.023,0.054-0.039,0.063-0.072c-0.209-0.029-0.412,0.029-0.631-0.029
			c-0.121-0.029-0.277,0-0.422-0.02c-0.068,0-0.155,0.039-0.204-0.049c-0.015-0.029-0.034,0.01-0.044,0.029
			c-0.044,0.039-0.092,0.127-0.111-0.02c-0.01-0.039-0.048-0.033-0.077-0.033c-0.186-0.006-0.359-0.045-0.534-0.121
			c-0.078-0.039-0.195-0.01-0.277-0.049c-0.219-0.098-0.465-0.137-0.669-0.277c-0.093-0.063-0.194-0.121-0.258-0.213
			c-0.092-0.141-0.028-0.286,0.117-0.389c0.141-0.093,0.29-0.17,0.446-0.218c0.203-0.059,0.407-0.127,0.631-0.117
			c0.306,0.02,0.611,0.059,0.893,0.175c0.098,0.039,0.229,0.02,0.301,0.132c0.029,0.038,0.059,0.004,0.078-0.016
			c0.078-0.067,0.154-0.126,0.242-0.189C655.458,116.037,655.503,116.022,655.552,116.022"/>
		<path fill="#EAB785" d="M655.317,122.481c-0.027,0.369-0.102,0.733-0.252,1.063c-0.145,0.334-0.432,0.426-0.796,0.291
			c-0.349-0.137-0.592-0.389-0.825-0.66c-0.01-0.088,0.059-0.088,0.107-0.093c0.271-0.038,0.534-0.111,0.786-0.237
			c0.213-0.106,0.437-0.194,0.621-0.35c0.077-0.059,0.165-0.103,0.233-0.175c0.029-0.029,0.063-0.054,0.115-0.054
			C655.327,122.341,655.274,122.413,655.317,122.481"/>
		<path fill="#F8D1AC" d="M647.642,107.598h0.023c0.121-0.02,0.229,0.024,0.345,0.054c0.029,0.02,0.068,0.034,0.107,0.054
			c0.077,0.159,0.125,0.319,0.038,0.495c-0.126,0.252-0.48,0.281-0.646,0.111C647.325,108.127,647.296,107.792,647.642,107.598"/>
		<path fill="#F8D1AC" d="M648.005,107.646c-0.121,0.024-0.223-0.059-0.345-0.049C647.782,107.578,647.903,107.568,648.005,107.646"
			/>
		<path fill="#E9B88E" d="M648.738,114.532c-0.088-0.053-0.189-0.053-0.281-0.063c-0.263-0.029-0.535-0.059-0.807-0.059
			c-0.243,0-0.485,0-0.718,0.049c-0.34,0.063-0.688,0.111-1.01,0.243c-0.155,0.067-0.32,0.106-0.475,0.174
			c-0.516,0.232-0.99,0.529-1.437,0.873c-0.01,0.016-0.02,0.025-0.035,0.034c-0.033,0.015-0.072,0.073-0.102,0.044
			c-0.039-0.034,0.029-0.063,0.039-0.098c0.01-0.038,0.024-0.086-0.01-0.131c0.137-0.324,0.291-0.631,0.5-0.916
			c0.111-0.151,0.237-0.292,0.369-0.418c0.131-0.122,0.247-0.253,0.397-0.345c0.141-0.092,0.258-0.198,0.393-0.296
			c0.243-0.155,0.485-0.301,0.738-0.445c0.271-0.156,0.553-0.277,0.844-0.379c0.379-0.146,0.776-0.253,1.185-0.315
			c0.737-0.112,1.456-0.093,2.174,0.111c0.268,0.072,0.534,0.165,0.786,0.291c0.039,0.02,0.092,0.028,0.111,0.087
			C650.213,112.984,649.339,113.527,648.738,114.532"/>
		<path fill="#E9B88E" d="M650.641,115.207c-0.189-0.02-0.35-0.125-0.506-0.209c-0.116-0.058-0.232-0.111-0.354-0.15
			c-0.063-0.028-0.083-0.053-0.093-0.111c0.165-0.208,0.369-0.378,0.593-0.499c0.708-0.389,1.417-0.37,2.135-0.049
			c0,0,0.015,0.01,0.02,0.01c-0.427,0.106-0.829,0.271-1.204,0.495c-0.179,0.106-0.339,0.242-0.475,0.407
			C650.718,115.139,650.688,115.184,650.641,115.207"/>
		<path fill="#E9B88E" d="M655.562,120.264c-0.563-0.165-1.126-0.34-1.68-0.563c-0.33-0.131-0.654-0.271-0.971-0.447
			c-0.354-0.184-0.708-0.378-1.039-0.61c-0.135-0.107-0.291-0.205-0.416-0.326c-0.137-0.131-0.281-0.257-0.408-0.402
			c-0.121-0.126-0.232-0.272-0.325-0.423c-0.131-0.223-0.258-0.461-0.306-0.732c-0.067-0.3-0.112-0.602-0.048-0.912
			c0.048-0.232,0.184-0.428,0.271-0.641c-0.029-0.078-0.103-0.043-0.15-0.068c-0.205-0.076-0.385-0.213-0.588-0.281
			c-0.077-0.029-0.155-0.063-0.218-0.116c-0.093,0.059-0.122,0.165-0.189,0.247c-0.229,0.287-0.359,0.621-0.477,0.956
			c-0.164,0.457-0.232,0.937-0.3,1.417c-0.005,0.039,0.02,0.098-0.039,0.107c-0.049,0.004-0.087-0.039-0.097-0.078
			c-0.039-0.082-0.059-0.16-0.088-0.242c-0.077-0.223-0.136-0.456-0.146-0.698c0-0.176-0.01-0.35-0.02-0.525
			c0.02-0.038,0.01-0.082,0.02-0.121c0.01-0.179,0.029-0.364,0.078-0.538c0.048-0.098,0.053-0.213,0.097-0.32
			c0.068-0.141,0.155-0.271,0.214-0.417c0.009-0.049-0.029-0.049-0.054-0.049c-0.111-0.02-0.224-0.049-0.345-0.059
			c-0.258-0.014-0.515-0.039-0.776-0.043c-0.242-0.006-0.475,0.02-0.719,0.063c-0.349,0.068-0.698,0.15-1.038,0.271
			c-0.397,0.146-0.776,0.325-1.136,0.544c-0.252,0.154-0.495,0.334-0.742,0.523c0.005-0.067,0.063-0.135-0.02-0.18
			c-0.054,0.063-0.058,0.141-0.083,0.224c-0.067,0.277-0.159,0.559-0.169,0.854c-0.01,0.121,0.023,0.238,0.014,0.354
			c0.059,0.029,0.088,0.098,0.127,0.137c0.286,0.291,0.592,0.543,0.912,0.786c0.379,0.281,0.757,0.567,1.165,0.815
			c0.379,0.242,0.757,0.494,1.165,0.689c0.262,0.131,0.504,0.285,0.771,0.416c0.219,0.112,0.447,0.204,0.675,0.296
			c0.17,0.073,0.335,0.15,0.506,0.205c0.426,0.131,0.853,0.252,1.29,0.334c0.232,0.049,0.466,0.093,0.704,0.117
			c0.236,0.028,0.471,0.067,0.713,0.087c0.786,0.044,1.582,0.146,2.378,0.165c0.174,0,0.344-0.034,0.514-0.063
			c0.185-0.029,0.359-0.072,0.54-0.102c0.154-0.039,0.305-0.082,0.459-0.131c0.088-0.024,0.166-0.093,0.263-0.083
			c0.103-0.072,0.155-0.184,0.248-0.276C655.91,120.37,655.735,120.312,655.562,120.264"/>
		<path fill="#E9B88E" d="M653.444,123.17c0,0,1.752-0.014,2.154-1.922c0.403-1.906,0.534-0.989,0.617-0.674
			c0.083,0.311-0.242,3.096-1.509,3.29"/>
		<path fill="#E9B88E" d="M691.907,153.66c-0.713-0.529-17.367-10.385-20.861-13.18c-3.566-2.854-8.798-11.899-8.798-11.899
			s-0.389-0.786-0.078,0c0.029,0,0.078,0,0.078,0s2.188,2.995,4.645,9.229c4.353,7.091,13.368,17.538,25.132,24.157
			c-0.233-1.945-0.233-4.746-0.233-4.746L691.907,153.66z"/>
		<path fill="#625E5C" d="M657.269,106.177c0,0,7.153-8.508,7.979-10.391c0.834-1.883,2.475-8.599,1.927-11.296
			c-0.549-2.704-3.077-5.781-5.14-5.893c-2.063-0.106-9.716,5.251-11.346,7.11c-1.631,1.857-3.799,8.808-3.799,8.808"/>
		<path fill="#625E5C" d="M725.546,65.695c0.326-1.098,0.282-0.568,0.651-1.549c0.776-2.105,0.505-3.096,0.776-5.318
			c0.398-3.266-2.3-11.666-3.169-14.791c-0.476-1.698-0.956-3.406-1.427-5.109c-0.083-0.297-0.122-0.86-0.315-1.112
			c-0.927,1.161-1.854,2.32-2.79,3.485c-1.198,1.484-2.17,3.075-3.713,4.256c-0.814,0.625-1.713,1.14-2.658,1.518
			c-0.438,0.18-1.524,0.404-2.209,0.535c0.326-0.903,0.588-1.864,0.762-2.873c0.642-3.727-0.268-11.852-0.268-11.852
			c-3.726,5.867-8.797,7.702-11.616,8.299c-0.423-8.365-7.013-11.171-7.013-11.171s1.607,1.523,0.782,5.134
			c-0.812,3.514-7.843,5.571-8.207,5.678c-0.61,0.098-1.202,0.17-1.674,0.146c-0.66-0.029-1.335-0.01-2.004,0.023
			c-4.236-0.247-8.366,0.607-12.19,2.098c-0.524,0.184-1.067,0.334-1.576,0.557c-0.442,0.194-0.831,0.437-1.229,0.665
			c-8.415,4.072-14.84,10.662-16.427,13.243c-0.335,0.543-0.646,1.019-0.927,1.471c-4.256,4.818-11.05,12.622-12.559,14.951
			c-2.223,3.445,2.35,22.623,2.35,22.623l5.464,10.783c0,0,3.532-0.461,5.706,1.116c2.175,1.572,1.999,2.62,3.164,3.975
			c1.262,1.586,1.582,2.45,2.766,3.73l3.965-2.231c-1.567-4.93-1.577-7.647-1.703-12.375c-0.185-6.803,7.891-11.102,8.454-13.471
			c0.029-0.136,0.058-0.563,0.092-1.097c1.615-0.358,2.829-0.737,2.993-1.432c0.554-2.363,23.789-1.567,26.147-1.005
			c13.093-4.736,17.455-6.027,19.692-7.769l0.063-0.01c-0.015-0.005-0.023-0.005-0.038-0.015c0.539-0.428,0.966-0.883,1.354-1.417
			c0.262-0.117,0.993-0.466,1.949-0.942l-3.979,7.31c0,0,6.1-2.737,7.852-4.213c1.752-1.47,6.953-5.401,7.628-13.679
			C730.467,63.861,727.565,66.277,725.546,65.695"/>
		<polygon fill="#625E5C" points="656.177,116.547 660.205,114.251 660.181,114.896 656.289,117.1 		"/>
		<polygon fill="#625E5C" points="656.604,117.332 660.5,114.906 660.49,115.285 656.871,117.716 		"/>
		<path fill="#43413E" d="M650.34,61.177c0,0,7.501-11.346,11.606-14.306c-6.133,3.882-10.621,8.594-11.913,10.686
			c-0.335,0.549-0.64,1.024-0.927,1.476c-4.256,4.813-11.05,12.617-12.554,14.946c-2.232,3.44,2.345,22.613,2.345,22.613
			l5.464,10.797c0,0,0.659-0.082,1.581-0.053l-3.271-13.563c0,0-0.523-14.32,0.669-19.222
			C644.535,69.66,650.34,61.177,650.34,61.177"/>
		<path fill="#062F49" d="M547.937,448.799c0,0-8.259,10.282-8.914,14.145c0,0,3.684-15.334,8.278-16.834"/>
		<path fill="#062F49" d="M548.489,446.527c0,0-6.695-1.446-18.727,2.645c0,0,14.011-3.64,15.32,0.136"/>
		<path fill="#062F49" d="M674.491,391.822c0,0,13.34-13.598,40.069-14.063c26.729-0.461,0.62,0,0.62,0s1.971,0.312-5.376,3.213
			c-7.356,2.893-10.326,8.608-8.662,9.425c1.665,0.819,8.356,0.237,4.75,2.027c-3.609,1.786-7.491,3.767-7.491,3.767
			s0.266,1.445-1.078,1.96c-1.349,0.52-2.902-0.928-3.319,0c-0.407,0.938,0.364,4.246,0.753,4.562
			c0.388,0.306,1.422,4.058,1.688,3.95C696.444,406.662,682.722,391.716,674.491,391.822"/>
		<path fill="#F6D2B0" d="M471.118,75.512c0,0,4.538,6.144,4.741,7.696c0.209,1.554,3.571,6.794,5.954,8.157
			c2.388,1.363,3.984,6.547,3.984,6.547s-4.552,3.309-5.275,3.411c-0.728,0.103-3.625-0.519-5.804-1.344
			c-2.169-0.825-9.769-5.222-9.769-5.222s-6.721-3.785-8.826-3.994c-2.107-0.209,0-5.653,0-5.653s2.343-1.801,2.658-1.902"/>
		<path fill="#F6D2B0" d="M476.272,82.297l-11.986,13.47c0,0-16.994,0.69-18.756-4.474c-1.306-3.824,1.596-4.091,1.596-4.091
			s-5.842,0.771-6.891-7.255c-0.719-5.547,4.979-2.64,4.979-2.64s-6.051-1.214-5.227-6.911c1.195-8.205,7.314-3.357,7.314-3.357
			s-7.805-4.969-2.456-14.577c3.169-5.697,19.848,12.549,19.848,12.549s3.3-0.18,3.145-6.697c-0.155-6.526,5.124-14.136,8.23-14.602
			c3.105-0.462,2.378,2.179,1.965,4.192c-0.412,2.02-3.411,8.23-3.261,11.336c0.155,3.105,1.896,6.678,1.883,7.92
			c-0.02,1.242,2.149,10.875,0.907,14.306c-0.52,1.446,0.593,4.31,1.485,6.305c0.902,1.998,7.036,9.429,6.755,9.36
			c-0.297-0.063-1.243-0.461-3.106,0"/>
		<path fill="#F6D2B0" d="M464.286,95.767c0,0,5.289,2.379,7.996,1.98c2.723-0.384,5.286-1.159,6.609-2.485
			c1.316-1.31,2.17-1.465,2.17-2.484c0-1.004-1.111-3.009-1.111-3.009s-1.873-4.367-3.678-7.472
			c-1.801-3.106-6.158,3.498-6.236,3.813"/>
		<path fill="#E9B88E" d="M444.729,77.094c0,0,7.294,5.357,10.012,5.057c2.718-0.32,4.115-2.344,2.096-5.057
			c-2.014-2.717-8.225-8.163-11.801-9.938c0,0,10.186,8.24,10.874,10.259c0.694,2.015,1.01,3.571-1.087,3.727
			C452.721,81.292,449.466,80.268,444.729,77.094"/>
		<path fill="#E9B88E" d="M447.829,87.114c0,0,6.751,1.548,8.697-0.15c1.945-1.713,1.863-3.523,0-5.377c0,0,1.839,3.824-1.708,4.95
			C451.271,87.653,447.829,87.114,447.829,87.114"/>
		<path fill="#E9B88E" d="M454.507,87.761c0,0,2.791,0.193,4.349,1.873c1.548,1.679,1.411,4.552-2.94,4.163
			c0,0,2.785-0.66,2.857-2.412C458.855,89.634,454.507,87.761,454.507,87.761"/>
		<g>
			<path fill="#21100E" d="M433.38,192.248c0.313,0.949,25.657,6.705,25.657,6.705s34.051-2.515,34.108-3.033
				c0.06-0.521-15.678-53.563-15.678-53.563s-23.874-7.886-26.347-5.369S433.38,192.248,433.38,192.248z"/>
			<path fill="#38526F" d="M411.168,212.857l7.582,12.999c0,0,76.065-1.561,77.334-2.227c1.267-0.665,1.609-12.587,3.762-15.709
				c2.154-3.126-1.587-6.969-2.345-12.001c-0.757-5.033-4.616-12.254-11.681-8.872c-7.063,3.378-8.755,8.872-12.807,8.872
				s-9.188-4.973-13.977-5.232c-4.79-0.262-14.061,3.029-14.061,3.029s-12.197,5.838-14.773,5.289
				c-2.577-0.55-12.594-1.688-13.406,0.781C415.985,202.258,410.348,206.551,411.168,212.857z"/>
			<path fill="#4D769E" d="M457.231,192.962c-4.126,1.11-13.113,3.088-8.895,6.825c4.218,3.739,23.532,15.369,24.677,13.07
				c1.143-2.301,6.16-13.07,6.16-13.07S470.11,189.492,457.231,192.962z"/>
			<path fill="#4D769E" d="M483.828,192.248c-3.248,1.955-11.133,4.081-8.405,6.903c2.73,2.826,16.051,13.8,16.051,13.8
				s5.877-9.718,5.032-13.164C495.66,196.342,487.521,190.023,483.828,192.248z"/>
			<path fill="#4D769E" d="M464.002,209.279c-1.363,0.374-13.98,4.563-10.179,6.801c3.804,2.236,23.597,8.451,25.351,3.473
				c1.754-4.98,7.667-11.451,1.332-10.273C474.169,210.455,467.893,208.209,464.002,209.279z"/>
			<polygon fill="#314161" points="426.567,213.155 431.429,225.856 461.515,241.166 457.206,227.011 			"/>
			<polygon fill="#CD5C55" points="426.567,213.155 455.796,228.881 480.506,212.857 453.111,195.92 			"/>
			<path fill="#E6DACD" d="M440.726,199.006c1.253-0.387,17.325,1.141,21.813,9.975c0,0-9.001,5.264-23.527,1.638
				C433.984,209.364,433.84,201.116,440.726,199.006z"/>
			<path fill="#E6DACD" d="M429.461,201.902l31.639,8.021l-0.689,4.197c-2.339,0.408-9.113,1.465-16.354,1.465
				c-7.549,0-13.305-1.11-17.113-3.306c-0.115-0.066-0.233-0.136-0.346-0.204c-1.732-1.065-3.766-2.705-3.607-4.473
				C423.214,205.091,427.517,202.74,429.461,201.902L429.461,201.902z M429.366,200.57c0,0-14.631,5.704-3.433,12.585
				c0.125,0.077,0.254,0.153,0.383,0.228c4.651,2.68,11.396,3.473,17.74,3.473c9.145,0,17.458-1.646,17.458-1.646l1.024-6.229
				L429.366,200.57L429.366,200.57z"/>
			<polygon fill="#764B38" points="455.796,228.881 461.515,241.166 485.975,225.856 480.506,212.857 			"/>
			<path opacity="0.49" fill="#DFE1F1" d="M452.484,66.271c-6.552,2.282-21.004,34.292-22.596,47.451l-14.995,2.232
				c0,0-47.49,71.398-50.028,88.161c0,0,25.92,17.478,43.811,23.034c17.889,5.561,43.025,21.122,55.39,18.835
				c12.364-2.286,34.306-10.04,34.306-10.04s6.389-26.52,1.521-50.375c-4.867-23.853-8.978-51.859-8.978-51.859l-26.849-9.046
				C464.065,124.665,469.864,60.209,452.484,66.271z"/>
			<g>
				<path fill="#CDDAE2" d="M460.189,250.184h-0.002c-7.638,0-18.438-5.711-29.873-11.755c-8.078-4.271-16.431-8.687-23.519-10.889
					c-17.804-5.532-40.208-24.046-40.431-24.231l-0.154-0.128l-0.052-0.191c-6.517-23.569,47.845-86.097,50.161-88.747l0.153-0.175
					l14.756-2.197c2.095-13.65,24.235-39.866,31.193-41.168c6.249-1.166,11.186,0.413,14.614,4.678
					c10.504,13.057,3.909,47.057,2.874,52.018l13.454,4.532l0.072,0.357c0,0,5.791,28.008,10.658,51.862
					c4.829,23.659,3.619,50.017,3.607,50.281l-0.021,0.407l-0.382,0.15c-0.323,0.127-32.528,12.726-44.811,14.998
					C461.776,250.117,461.002,250.184,460.189,250.184L460.189,250.184z M367.33,202.461c2.011,1.646,23.053,18.65,39.843,23.868
					c7.202,2.238,15.604,6.682,23.734,10.979c11.292,5.97,21.958,11.608,29.28,11.61h0.002c0.736,0,1.434-0.062,2.07-0.178
					c11.438-2.116,40.501-13.346,44.193-14.781c0.133-3.429,0.867-27.665-3.599-49.557c-4.548-22.28-9.897-48.184-10.584-51.501
					l-13.837-4.663l0.12-0.555c0.084-0.381,8.218-38.181-2.505-51.51c-3.127-3.885-7.629-5.303-13.395-4.226
					c-6.619,1.239-28.689,27.8-30.232,40.555l-0.057,0.481l-15.244,2.267C413.881,118.994,361.506,179.982,367.33,202.461
					L367.33,202.461z"/>
			</g>
			<g>
				<path fill="#BA7559" d="M407.777,83.159l-13.258,28.535c0,0,8.168,1.384,9.31,0.663c1.144-0.725,11.915-13.184,11.682-14.74
					C415.275,96.06,407.777,83.159,407.777,83.159z"/>
				<g>
					<polygon fill="#764B38" points="398.242,83.703 411.735,92.463 407.777,83.159 460.492,126.495 445.095,143.734 					"/>
					<polygon fill="#9A6149" points="420.299,95.513 415.449,102.435 422.52,111.377 427.513,101.103 					"/>
					<polygon fill="#9A6149" points="439.27,111.086 430.203,125.587 442.111,130.511 449.382,119.055 					"/>
					<polygon fill="#9A6149" points="393.182,99.104 357.611,158.893 415.105,204.958 439.012,219.553 460.492,126.495
						451.825,123.369 					"/>
					<polygon fill="#EC956F" points="398.242,83.703 342.835,161.555 394.585,214.244 448.337,123.582 					"/>
					<polygon fill="#BA7559" points="448.337,123.582 451.825,123.369 418.432,207.426 394.585,214.244 					"/>
				</g>
				<g>
					<path fill="#504339" d="M411.902,97.322L410.432,96c1.043-1.159,25.614-28.243,43.856-28.243c0.095,0,0.188,0.001,0.28,0.002
						c4.553,0.069,8.343,1.856,11.262,5.309l-1.51,1.278c-2.569-3.041-5.77-4.548-9.782-4.61c-0.083-0.002-0.168-0.002-0.252-0.002
						C436.918,69.733,412.152,97.046,411.902,97.322L411.902,97.322z"/>
				</g>
				<g>
					<path fill="#504339" d="M445.779,115.884l-1.44-1.354c7.137-7.588,25.023-28.813,22.125-35.792
						c-1.335-3.218-5.297-6.546-11.146-6.729c-6.191-0.201-18.404,3.16-30.479,27.792l-1.774-0.871
						c12.564-25.632,25.64-29.084,32.314-28.898c6.729,0.211,11.332,4.144,12.91,7.949
						C472.201,87.398,448.496,112.996,445.779,115.884L445.779,115.884z"/>
				</g>
				<path fill="#EC956F" d="M439.012,219.553c-7.611-11.545-17.218-20.547-17.218-20.547l-27.209,15.238
					C394.585,214.244,420.019,212.472,439.012,219.553z"/>
				<g>
					<path fill="#504339" d="M435.666,116.981l-1.302-1.486c12.921-11.338,31.869-30.132,31.115-35.44
						c-0.056-0.392-0.231-0.623-0.607-0.801l0.839-1.791c0.98,0.46,1.577,1.26,1.728,2.314
						C468.58,87.839,439.041,114.021,435.666,116.981L435.666,116.981z"/>
				</g>
			</g>
			<path opacity="0.5" fill="#CDDAE2" d="M480.506,143.734c0,0-5.128,60.849-7.03,71.625c-1.901,10.775-5.918,24.511-4.015,21.975
				c1.902-2.535,16.268-31.695,16.48-35.285c0.21-3.593-0.634-50.578-1.902-53.074C482.772,146.48,480.506,143.734,480.506,143.734z
				"/>
			<path opacity="0.5" fill="#CDDAE2" d="M491.474,212.951c-4.941,2.442-19.316,26.045-18.421,27.976
				c0.897,1.929,34.085-8.435,34.085-8.435S494.883,211.268,491.474,212.951z"/>
			<path opacity="0.5" fill="#CDDAE2" d="M493.421,136.419c-1.163,2.536,1.632,47.074,3.323,54.468
				c1.689,7.395,1.445,27.368,5.467,31.338c4.022,3.971,5.633-0.772,3.165-10.458C502.906,202.08,493.421,136.419,493.421,136.419z"
				/>
			<path opacity="0.5" fill="#CDDAE2" d="M473.686,140.324c0,0-1.842,41.65-4.724,55.596c0,0,2.823-45.48,2.823-47.858
				c0-2.377,0.207-8.657,0.207-8.657L473.686,140.324z"/>
			<path fill="#F9AC88" d="M401.208,87.505c0,0-47.34,66.157-30.858,87.711c16.479,21.55,73.691-55.067,73.691-55.067
				S412.627,94.453,401.208,87.505z"/>
		</g>
		<path fill="#E9B88E" d="M449.61,69.097c1.049,0.743,2.098,1.484,3.136,2.232c1.771,1.261,3.532,2.882,5.43,3.92
			c0.689,0.374,1.485,0.598,2.261,0.477c1.423-0.214,2.296-1.688,2.441-3.019c0.315-2.941-1.814-5.522-3.552-7.647
			c-1.306-1.597-2.737-3.097-4.271-4.475c-0.932-0.835-1.893-1.621-2.902-2.349c-1.023-0.748-2.266-1.311-3.236-2.102
			c0.005,0.005,10.187,8.342,12.535,13.379c2.344,5.027-0.952,5.581-3.106,4.479C456.2,72.892,449.61,69.097,449.61,69.097"/>
		<path fill="#E9B88E" d="M454.865,82.775c0.694-0.082,1.3-0.275,1.786-0.563v-0.001v0.001c1.421-0.837,1.813-2.474,0.31-4.494
			c-2.014-2.717-8.225-8.163-11.801-9.938c0,0,10.186,8.24,10.874,10.259c0.694,2.015,1.01,3.571-1.087,3.727
			c-2.064,0.148-5.25-0.85-9.853-3.893c-0.014-0.004-0.029-0.009-0.045-0.013C446.182,78.674,452.399,83.049,454.865,82.775z"/>
		<path fill="#E9B88E" d="M454.943,87.162c-3.548,1.116-6.989,0.577-6.989,0.577s6.751,1.548,8.697-0.15
			c1.945-1.713,1.863-3.522,0-5.376C456.656,82.222,458.485,86.037,454.943,87.162z"/>
		<path fill="#E9B88E" d="M454.298,88.469c0,0,4.349,1.873,4.266,3.624c-0.072,1.752-2.857,2.412-2.857,2.412
			c4.352,0.389,4.488-2.484,2.94-4.163C457.089,88.662,454.298,88.469,454.298,88.469z"/>
		<path fill="#E9B88E" d="M455.181,61.21c-0.932-0.835-1.893-1.621-2.902-2.349c-1.023-0.748-2.266-1.311-3.236-2.102
			c0.005,0.005,10.187,8.342,12.535,13.379c2.344,5.027-0.952,5.581-3.106,4.479c-2.146-1.101-8.735-4.896-8.735-4.896
			c1.049,0.743,2.098,1.484,3.136,2.232c1.771,1.261,3.532,2.882,5.43,3.92c0.689,0.374,1.485,0.598,2.261,0.477
			c1.423-0.214,2.296-1.688,2.441-3.019c0.315-2.941-1.814-5.522-3.552-7.647C458.146,64.088,456.714,62.588,455.181,61.21z"/>
		<path fill="#F6D2B0" d="M447.928,55.814c0,0,14.583,10.668,14.583,16.084c0,0,1,10.499-17.25-7.084"/>
		<path fill="#F6D2B0" d="M441.178,76.814c0,0,15.916,3.751,16.416,7.084c0,0,0.333,6.332-10.75,3.666c0,0-6.584-0.999-6.75-8.666"
			/>
		<path fill="#F6D2B0" d="M442.761,66.064c0,0,11.666,8.501,13.416,12.584c0,0,1.333,2.834-0.75,3.25
			c0,0-18.332-5.917-15.416-10.667C440.011,71.231,440.011,66.564,442.761,66.064z"/>
		<path fill="#F6D2B0" d="M446.428,87.231c0,0,9.083,0.417,11.083,2.75c0,0,4.5,4.25-2.5,5.5
			C455.011,95.481,441.595,94.564,446.428,87.231z"/>
	</g>
</g>
</svg>
