<svg width="120" height="120" viewBox="0 0 120 120" fill="none" xmlns="http://www.w3.org/2000/svg">
<path d="M60.0001 120.003C93.1381 120.003 120.002 93.1395 120.002 60.0016C120.002 26.8636 93.1381 0 60.0001 0C26.8622 0 -0.00146484 26.8636 -0.00146484 60.0016C-0.00146484 93.1395 26.8622 120.003 60.0001 120.003Z" fill="url(#paint0_linear_994_26416)"/>
<path d="M29.8079 25.4043H92.1677C93.9505 25.4043 95.6602 26.1125 96.9208 27.3731C98.1814 28.6337 98.8896 30.3435 98.8896 32.1262V97.9598H23.0859V32.1262C23.0876 30.344 23.7964 28.6352 25.0566 27.375C26.3168 26.1147 28.0256 25.406 29.8079 25.4043Z" fill="white"/>
<path d="M99.4773 97.8392C99.3092 97.8318 99.151 97.758 99.0372 97.6341C98.9234 97.5102 98.8634 97.3462 98.8703 97.1781V32.0787C98.8703 28.9831 96.5629 26.4659 93.7279 26.4659H28.2566C25.4153 26.4659 23.1142 28.9831 23.1142 32.0787V98.0108C23.1229 98.0957 23.1137 98.1816 23.0872 98.2627C23.0606 98.3439 23.0173 98.4185 22.9601 98.4819C22.9029 98.5453 22.833 98.596 22.755 98.6306C22.677 98.6653 22.5926 98.6832 22.5072 98.6832C22.4218 98.6832 22.3374 98.6653 22.2594 98.6306C22.1813 98.596 22.1115 98.5453 22.0542 98.4819C21.997 98.4185 21.9538 98.3439 21.9272 98.2627C21.9007 98.1816 21.8914 98.0957 21.9002 98.0108V32.0787C21.9002 28.2648 24.7605 25.1406 28.2566 25.1406H93.7279C97.2462 25.1406 100.084 28.2553 100.084 32.0787V97.1781C100.091 97.3462 100.031 97.5102 99.9174 97.6341C99.8036 97.758 99.6454 97.8318 99.4773 97.8392Z" fill="#E0E9F3"/>
<path d="M59.741 119.886C89.4281 119.886 113.494 112.184 113.494 102.682C113.494 93.1809 89.4281 85.4785 59.741 85.4785C30.0539 85.4785 5.98779 93.1809 5.98779 102.682C5.98779 112.184 30.0539 119.886 59.741 119.886Z" fill="url(#paint1_linear_994_26416)"/>
<path d="M26.175 45.0415C28.7963 45.0415 31.3586 44.2642 33.5381 42.8079C35.7176 41.3517 37.4163 39.2818 38.4194 36.8601C39.4225 34.4384 39.6849 31.7736 39.1736 29.2028C38.6622 26.6319 37.3999 24.2704 35.5465 22.4169C33.693 20.5634 31.3315 19.3012 28.7606 18.7898C26.1898 18.2784 23.525 18.5409 21.1033 19.544C18.6816 20.5471 16.6117 22.2458 15.1554 24.4253C13.6992 26.6047 12.9219 29.1671 12.9219 31.7883C12.9219 35.3033 14.3182 38.6743 16.8036 41.1597C19.2891 43.6452 22.6601 45.0415 26.175 45.0415Z" fill="url(#paint2_linear_994_26416)" stroke="white" stroke-width="1.53396" stroke-miterlimit="10"/>
<path d="M27.2177 31.7892L31.8452 27.1617C31.9276 27.0972 31.9953 27.0159 32.0439 26.9232C32.0924 26.8305 32.1207 26.7285 32.1268 26.6241C32.1329 26.5196 32.1167 26.415 32.0792 26.3173C32.0418 26.2196 31.984 26.131 31.9096 26.0573C31.8353 25.9837 31.7462 25.9267 31.6481 25.8901C31.55 25.8536 31.4453 25.8384 31.3409 25.8454C31.2365 25.8525 31.1348 25.8817 31.0426 25.9311C30.9503 25.9805 30.8696 26.049 30.8059 26.132L26.1752 30.7499L21.5446 26.132C21.4759 26.0644 21.395 26.0105 21.3062 25.973C21.2172 25.9354 21.1216 25.916 21.0249 25.916C20.9283 25.916 20.8326 25.9354 20.7437 25.973C20.6549 26.0105 20.574 26.0644 20.5053 26.132C20.4365 26.2003 20.3815 26.2812 20.3432 26.3703C20.271 26.552 20.271 26.7544 20.3432 26.936C20.3815 27.0252 20.4365 27.1061 20.5053 27.1744L25.136 31.7892L20.5053 36.4199C20.4357 36.4888 20.3806 36.5709 20.3432 36.6614C20.2712 36.842 20.2712 37.0433 20.3432 37.2239C20.3815 37.3131 20.4365 37.394 20.5053 37.4623C20.6434 37.5995 20.8302 37.6765 21.0249 37.6765C21.2196 37.6765 21.4064 37.5995 21.5446 37.4623L26.1752 32.8316L30.8059 37.4623C30.9444 37.5988 31.1311 37.6752 31.3255 37.6752C31.52 37.6752 31.7066 37.5988 31.8452 37.4623C31.914 37.394 31.969 37.3131 32.0073 37.2239C32.0439 37.1341 32.0633 37.0381 32.0645 36.9411C32.0627 36.8441 32.0433 36.7483 32.0073 36.6582C31.969 36.5691 31.914 36.4882 31.8452 36.4199L27.2177 31.7892Z" fill="white"/>
<path d="M57.1425 12.2207L58.7285 13.0884L57.1425 13.956L56.2749 15.5419L55.4072 13.956L53.8213 13.0884L55.4072 12.2207L56.2749 10.6348L57.1425 12.2207Z" fill="url(#paint3_linear_994_26416)"/>
<path d="M108.568 33.6631L109.604 34.2288L108.568 34.7945L107.999 35.8306L107.433 34.7945L106.397 34.2288L107.433 33.6631L107.999 32.627L108.568 33.6631Z" fill="url(#paint4_linear_994_26416)"/>
<path opacity="0.72" d="M104.658 103.654C104.658 104.531 84.6641 105.243 60.0011 105.243C35.3382 105.243 15.3408 104.534 15.3408 103.654C15.3408 102.773 35.335 102.064 60.0011 102.064C84.6673 102.064 104.658 102.776 104.658 103.654Z" fill="url(#paint5_radial_994_26416)"/>
<path d="M33.9528 65.8596C35.3767 66.0662 34.7061 68.1384 34.9444 69.4764C35.1828 70.8144 36.5081 74.3677 35.2909 75.2766C34.0736 76.1856 32.3065 77.8796 32.5449 79.2145C32.7833 80.5493 32.7483 82.2814 31.531 83.1904C30.3138 84.0994 28.9885 84.3346 29.1569 85.3389C29.3253 86.3432 30.0659 86.5561 29.9101 87.6177C29.7544 88.6792 29.1442 89.1337 29.5383 89.407L20.8522 90.9675C20.8522 90.9675 18.7037 88.5934 18.7387 86.8612C18.7737 85.1291 20.4454 84.8335 20.5408 83.4351C20.6361 82.0367 22.2475 81.4074 22.0059 80.0694C21.7644 78.7314 22.079 76.6083 22.9594 75.7597C23.8397 74.9111 25.966 75.2226 26.395 73.767C26.8241 72.3114 25.9183 71.0941 26.8018 70.2455C27.6854 69.3969 29.8688 70.0421 30.692 68.863C31.5151 67.6839 32.8913 65.7102 33.9528 65.8596Z" fill="#3FB790"/>
<path d="M33.8256 72.9077C33.8051 72.8675 33.7696 72.8369 33.7268 72.8226C33.684 72.8083 33.6372 72.8115 33.5967 72.8315C32.7874 73.2284 31.934 73.5282 31.0542 73.7245C31.2989 70.7402 32.8085 69.8598 32.8276 69.8503C32.8662 69.8282 32.8947 69.792 32.9072 69.7493C32.9196 69.7067 32.915 69.6608 32.8943 69.6214C32.8728 69.5815 32.8363 69.5517 32.7928 69.5386C32.7493 69.5254 32.7024 69.5301 32.6623 69.5515C32.5829 69.596 30.6887 70.6703 30.6791 74.5223C30.6791 75.4185 30.2628 76.337 29.643 77.2587C28.8866 76.7343 28.3209 74.7161 28.162 73.9629C28.1521 73.9201 28.1261 73.8827 28.0894 73.8584C28.0528 73.8342 28.0082 73.8249 27.9649 73.8326C27.9429 73.8368 27.9219 73.8453 27.9033 73.8577C27.8846 73.87 27.8685 73.886 27.8561 73.9047C27.8437 73.9233 27.8351 73.9442 27.8309 73.9663C27.8266 73.9883 27.8268 74.0109 27.8314 74.0328C27.8569 74.1536 28.4226 76.8138 29.4555 77.5289C28.6836 78.5519 27.8494 79.5262 26.9574 80.4465C26.0397 81.3882 25.19 82.394 24.4149 83.4562C24.2242 83.1384 24.0049 82.0832 23.9095 80.9454C23.9047 80.9008 23.8829 80.8597 23.8485 80.8307C23.8142 80.8017 23.77 80.787 23.7252 80.7897C23.6808 80.7953 23.6402 80.8173 23.6113 80.8515C23.5825 80.8856 23.5675 80.9294 23.5695 80.974C23.6298 81.6955 23.8078 83.2719 24.2242 83.7423C23.8003 84.3577 23.5201 85.0604 23.4042 85.7986C23.3997 85.8431 23.4128 85.8877 23.4407 85.9227C23.4686 85.9578 23.5091 85.9805 23.5536 85.9861H23.6012C23.6375 85.9795 23.6707 85.9614 23.6959 85.9345C23.721 85.9076 23.7369 85.8733 23.7411 85.8367C23.9063 84.4002 25.1903 82.881 26.6619 81.2792C27.7488 81.9815 30.2946 81.6796 30.409 81.6637C30.452 81.6567 30.4907 81.6332 30.5168 81.5982C30.5428 81.5632 30.5543 81.5195 30.5488 81.4762C30.5425 81.4315 30.5191 81.391 30.4835 81.3631C30.448 81.3353 30.4031 81.3223 30.3581 81.3268C30.3327 81.3268 27.8918 81.6224 26.8875 81.0249L27.2053 80.6753C29.0773 78.6603 31.0192 76.5754 31.0192 74.5159C31.0192 74.357 31.0192 74.1981 31.0192 74.0614L31.1654 74.0392C32.0562 73.8369 32.9203 73.5307 33.7398 73.127C33.7793 73.1083 33.8103 73.0752 33.8262 73.0344C33.8422 72.9937 33.8419 72.9483 33.8256 72.9077Z" fill="#34916F"/>
<path d="M14.0501 70.1114C12.461 71.2937 14.886 74.7898 14.7906 76.185C14.6953 77.5802 13.8721 78.7625 14.4442 80.0402C15.0163 81.3178 15.8649 82.2014 16.1064 83.5362C16.348 84.8711 14.5777 86.5651 15.3309 88.847C16.0842 91.129 17.2029 91.6152 17.2029 91.6152L24.5573 90.3026C24.9234 89.6579 25.0367 88.9 24.8751 88.1764C24.6368 86.8384 22.7266 85.8023 22.9428 85.0745C23.1589 84.3467 24.2554 82.7703 23.5021 80.4915C22.7489 78.2127 21.7478 78.3907 21.1757 77.113C20.6036 75.8354 21.1502 75.0472 20.6354 74.1064C20.1205 73.1657 18.274 72.457 17.8195 71.8499C17.365 71.2429 15.8903 68.7511 14.0501 70.1114Z" fill="#90DAD8"/>
<path d="M21.7706 80.842C21.7313 80.8201 21.685 80.8145 21.6416 80.8264C21.5982 80.8383 21.5612 80.8667 21.5386 80.9056C21.1242 81.6469 20.6524 82.3547 20.1275 83.0223C20.0988 82.7871 20.0671 82.5551 20.0257 82.3263C19.8414 81.287 19.6507 80.2286 19.4187 79.2211C19.4187 79.2211 19.4187 79.2211 19.4187 79.2021C19.2318 78.3375 18.9822 77.4878 18.6718 76.6595C18.0362 75.0323 15.9958 73.03 15.91 72.9473C15.8941 72.9317 15.8753 72.9193 15.8547 72.9109C15.834 72.9025 15.8119 72.8983 15.7896 72.8984C15.7674 72.8986 15.7453 72.9031 15.7248 72.9118C15.7043 72.9205 15.6857 72.9331 15.67 72.9489C15.6543 72.9648 15.642 72.9836 15.6336 73.0042C15.6252 73.0249 15.6209 73.047 15.6211 73.0692C15.6212 73.0915 15.6258 73.1136 15.6344 73.1341C15.6431 73.1546 15.6557 73.1732 15.6716 73.1889C15.6938 73.208 17.7438 75.2229 18.354 76.7834C18.5977 77.4182 18.8005 78.0679 18.961 78.7285C18.3741 78.352 17.7377 78.0589 17.07 77.8577C17.0319 77.8557 16.9942 77.8665 16.9628 77.8883C16.9315 77.9101 16.9084 77.9418 16.8971 77.9783C16.8858 78.0147 16.8869 78.0539 16.9004 78.0897C16.9139 78.1254 16.9389 78.1556 16.9715 78.1755C16.9905 78.1755 18.5924 78.6618 19.0977 79.3006C19.3234 80.2922 19.5109 81.3347 19.6952 82.3612C19.8332 83.2651 19.9107 84.1771 19.9272 85.0913C19.927 85.7564 19.9866 86.4201 20.1052 87.0745C19.5049 86.8787 18.8937 86.7185 18.2745 86.5946C18.2516 86.5827 18.2262 86.5763 18.2004 86.5757C18.1746 86.5752 18.149 86.5806 18.1256 86.5916C18.1022 86.6026 18.0816 86.6188 18.0655 86.6389C18.0493 86.6591 18.0381 86.6827 18.0325 86.708C18.027 86.7332 18.0273 86.7594 18.0335 86.7845C18.0397 86.8095 18.0515 86.8329 18.0682 86.8526C18.0848 86.8724 18.1058 86.8881 18.1294 86.8984C18.1531 86.9088 18.1788 86.9136 18.2046 86.9124C18.6877 87.0141 19.9813 87.3129 20.3086 87.5195C20.8203 88.2123 21.6975 89.6743 21.9454 90.7485C21.9546 90.7911 21.9799 90.8285 22.0161 90.8528C22.0522 90.8771 22.0964 90.8864 22.1393 90.8788C22.161 90.874 22.1816 90.8648 22.1999 90.8519C22.2181 90.839 22.2335 90.8226 22.2454 90.8037C22.2572 90.7848 22.2651 90.7637 22.2688 90.7417C22.2724 90.7197 22.2716 90.6971 22.2664 90.6754C22.0058 89.5376 21.0746 87.9962 20.5502 87.2938C20.3309 86.9982 20.2959 86.0607 20.2546 85.0691C20.2355 84.5478 20.2101 83.9885 20.1624 83.4291C20.7599 82.9015 21.7801 81.1249 21.8278 81.0454C21.8418 81.0099 21.8437 80.9708 21.8334 80.9341C21.8231 80.8974 21.801 80.8651 21.7706 80.842Z" fill="white"/>
<path d="M64.4694 77.5488H100.428C103.849 77.5488 106.622 74.7755 106.622 71.3545V55.5174C106.622 52.0964 103.849 49.3231 100.428 49.3231H64.4694C61.0483 49.3231 58.275 52.0964 58.275 55.5174V71.3545C58.275 74.7755 61.0483 77.5488 64.4694 77.5488Z" fill="url(#paint6_linear_994_26416)"/>
<path d="M55.4125 76.5781H99.8345C103.052 76.5781 105.66 73.9699 105.66 70.7524V56.1199C105.66 52.9025 103.052 50.2943 99.8345 50.2943L55.4125 50.2943C52.1951 50.2943 49.5868 52.9025 49.5868 56.1199V70.7524C49.5868 73.9699 52.1951 76.5781 55.4125 76.5781Z" fill="white"/>
<path d="M14.139 58.9091L16.3606 60.1232L14.139 61.3372L12.9217 63.5588L11.7077 61.3372L9.48926 60.1232L11.7077 58.9091L12.9217 56.6875L14.139 58.9091Z" fill="url(#paint7_linear_994_26416)"/>
<path d="M49.5884 34.0352H79.9563" stroke="#D8DFEF" stroke-width="1.99415" stroke-linecap="round" stroke-linejoin="round"/>
<path d="M49.5884 37.7949H58.5255" stroke="#D8DFEF" stroke-width="1.99415" stroke-linecap="round" stroke-linejoin="round"/>
<path d="M50.6858 75.6411C57.4261 75.6411 62.8902 70.1771 62.8902 63.4368C62.8902 56.6965 57.4261 51.2324 50.6858 51.2324C43.9455 51.2324 38.4814 56.6965 38.4814 63.4368C38.4814 70.1771 43.9455 75.6411 50.6858 75.6411Z" fill="url(#paint8_linear_994_26416)"/>
<path d="M50.6859 63.1706C52.9713 63.1706 54.8239 61.3179 54.8239 59.0326C54.8239 56.7472 52.9713 54.8945 50.6859 54.8945C48.4005 54.8945 46.5479 56.7472 46.5479 59.0326C46.5479 61.3179 48.4005 63.1706 50.6859 63.1706Z" fill="white"/>
<path d="M56.5716 65.4174C55.6348 64.9397 54.652 64.5585 53.6381 64.2796C53.5542 64.2569 53.4649 64.2665 53.3878 64.3065C53.3106 64.3465 53.2514 64.4141 53.2217 64.4957L51.8043 68.4399L51.3784 66.301L52.0394 64.3178C52.0563 64.2666 52.0609 64.2123 52.0531 64.159C52.0452 64.1058 52.0251 64.0551 51.9943 64.011C51.9634 63.9669 51.9227 63.9306 51.8754 63.9049C51.8281 63.8793 51.7754 63.865 51.7216 63.8633H49.6494C49.5956 63.865 49.543 63.8793 49.4956 63.9049C49.4483 63.9306 49.4076 63.9669 49.3768 64.011C49.3459 64.0551 49.3258 64.1058 49.318 64.159C49.3101 64.2123 49.3148 64.2666 49.3316 64.3178L49.9927 66.301L49.5668 68.4399L48.1525 64.4957C48.1228 64.4141 48.0636 64.3465 47.9865 64.3065C47.9093 64.2665 47.82 64.2569 47.7361 64.2796C46.7224 64.5591 45.7396 64.9403 44.8026 65.4174C44.292 65.6784 43.8634 66.0752 43.5639 66.5642C43.2645 67.0532 43.1058 67.6154 43.1055 68.1888V68.6942C43.1063 69.0597 43.2519 69.4101 43.5104 69.6686C43.7689 69.9271 44.1192 70.0727 44.4848 70.0735H56.8894C57.255 70.0727 57.6053 69.9271 57.8638 69.6686C58.1223 69.4101 58.2679 69.0597 58.2687 68.6942V68.1888C58.2684 67.6154 58.1097 67.0532 57.8103 66.5642C57.5108 66.0752 57.0822 65.6784 56.5716 65.4174Z" fill="white"/>
<path d="M70.6665 61.832H94.8782" stroke="#D8DFEF" stroke-width="1.99415" stroke-linecap="round" stroke-linejoin="round"/>
<path d="M70.6665 65.5918H82.0191" stroke="#D8DFEF" stroke-width="1.99415" stroke-linecap="round" stroke-linejoin="round"/>
<defs>
<linearGradient id="paint0_linear_994_26416" x1="60.0001" y1="108.078" x2="60.0001" y2="-11.9215" gradientUnits="userSpaceOnUse">
<stop stop-color="#FEFEFD"/>
<stop offset="1" stop-color="#EBF3FF"/>
</linearGradient>
<linearGradient id="paint1_linear_994_26416" x1="59.741" y1="101.141" x2="59.741" y2="78.8106" gradientUnits="userSpaceOnUse">
<stop stop-color="#FEFEFD"/>
<stop offset="0.84" stop-color="#EBF3FF"/>
</linearGradient>
<linearGradient id="paint2_linear_994_26416" x1="26.175" y1="64.0981" x2="26.175" y2="22.1202" gradientUnits="userSpaceOnUse">
<stop stop-color="#FF8E00"/>
<stop offset="1" stop-color="#FFCF01"/>
</linearGradient>
<linearGradient id="paint3_linear_994_26416" x1="884.85" y1="212.712" x2="960.616" y2="212.712" gradientUnits="userSpaceOnUse">
<stop stop-color="#FF8E00"/>
<stop offset="1" stop-color="#FFCF01"/>
</linearGradient>
<linearGradient id="paint4_linear_994_26416" x1="106.397" y1="34.2288" x2="109.604" y2="34.2288" gradientUnits="userSpaceOnUse">
<stop stop-color="#5278FF"/>
<stop offset="1" stop-color="#30B8FC"/>
</linearGradient>
<radialGradient id="paint5_radial_994_26416" cx="0" cy="0" r="1" gradientUnits="userSpaceOnUse" gradientTransform="translate(60.4804 103.972) scale(46.4178 70.0939)">
<stop stop-color="#D0DFF3"/>
<stop offset="0.99" stop-color="#D0DFF3"/>
</radialGradient>
<linearGradient id="paint6_linear_994_26416" x1="10593.1" y1="5282.66" x2="14924.3" y2="8135.9" gradientUnits="userSpaceOnUse">
<stop offset="0.59375" stop-color="#F0F6FF"/>
<stop offset="1" stop-color="#EBF3FF"/>
</linearGradient>
<linearGradient id="paint7_linear_994_26416" x1="214.598" y1="1356.53" x2="363.224" y2="1356.53" gradientUnits="userSpaceOnUse">
<stop stop-color="#5278FF"/>
<stop offset="1" stop-color="#30B8FC"/>
</linearGradient>
<linearGradient id="paint8_linear_994_26416" x1="33.3963" y1="79.0387" x2="72.7808" y2="45.607" gradientUnits="userSpaceOnUse">
<stop stop-color="#D8DFEF"/>
<stop offset="1" stop-color="#F8FBFF"/>
</linearGradient>
</defs>
</svg>
