<svg width="80" height="80" viewBox="0 0 80 80" fill="none" xmlns="http://www.w3.org/2000/svg">
<g clip-path="url(#clip0_11270_7803)">
<path d="M40.1864 79.9928C62.2773 79.9928 80.1854 62.0846 80.1854 39.9938C80.1854 17.903 62.2773 -0.00512695 40.1864 -0.00512695C18.0956 -0.00512695 0.1875 17.903 0.1875 39.9938C0.1875 62.0846 18.0956 79.9928 40.1864 79.9928Z" fill="url(#paint0_linear_11270_7803)"/>
<path d="M14.8809 28.218L16.3598 29.0274L14.8809 29.8367L14.0716 31.3177L13.2601 29.8367L11.7812 29.0274L13.2601 28.218L14.0716 26.7371L14.8809 28.218Z" fill="url(#paint1_linear_11270_7803)"/>
<path d="M40.0581 11.4613L40.7615 11.8469L40.0581 12.2304L39.6746 12.9317L39.2911 12.2304L38.5898 11.8469L39.2911 11.4613L39.6746 10.76L40.0581 11.4613Z" fill="url(#paint2_linear_11270_7803)"/>
<path d="M30.7861 17.8132L18.8027 29.3474V73.8571H61.0856V23.7816C61.0851 22.1985 60.4558 20.6804 59.3362 19.5612C58.2165 18.442 56.6982 17.8132 55.1151 17.8132H30.7861Z" fill="url(#paint3_linear_11270_7803)"/>
<path opacity="0.77" d="M30.7861 17.9064L41.2482 37.9514L33.3328 40.3222L18.8027 29.3474L30.7861 17.9064Z" fill="url(#paint4_linear_11270_7803)"/>
<path d="M19.8409 29.3474H30.7861V17.9065V17.8132L18.8027 29.3474H19.8409Z" fill="white"/>
<path d="M53.4084 62.4774L54.6055 63.13L53.4084 63.7847L52.7559 64.9796L52.1012 63.7847L50.9062 63.13L52.1012 62.4774L52.7559 61.2825L53.4084 62.4774Z" fill="url(#paint5_linear_11270_7803)"/>
<path d="M65.8458 28.218L67.3267 29.0274L65.8458 29.8367L65.0364 31.3177L64.2271 29.8367L62.7461 29.0274L64.2271 28.218L65.0364 26.7371L65.8458 28.218Z" fill="url(#paint6_linear_11270_7803)"/>
<path d="M21.6459 43.6401C21.6271 43.6395 21.6084 43.6428 21.5909 43.6497C21.5734 43.6567 21.5575 43.6671 21.5442 43.6804C21.5309 43.6937 21.5205 43.7096 21.5136 43.7271C21.5067 43.7445 21.5034 43.7633 21.504 43.7821V44.1126C21.508 44.1476 21.5246 44.1799 21.5506 44.2037C21.5769 44.2269 21.6108 44.2398 21.6459 44.2398C21.681 44.2398 21.7149 44.2269 21.7413 44.2037C21.7681 44.1806 21.7848 44.1479 21.7879 44.1126V43.7821C21.792 43.7639 21.792 43.7451 21.7879 43.727C21.7813 43.7096 21.7712 43.6937 21.7582 43.6804C21.7441 43.6673 21.7275 43.6573 21.7095 43.6507C21.6897 43.6414 21.6677 43.6377 21.6459 43.6401Z" fill="#49A6D6"/>
<path d="M21.2693 43.299H20.9494C20.9144 43.3036 20.8822 43.3207 20.8588 43.3472C20.8355 43.3737 20.8225 43.4077 20.8223 43.443C20.8226 43.4781 20.8354 43.5118 20.8583 43.5384C20.882 43.5644 20.9144 43.5809 20.9494 43.585H21.2778C21.2982 43.588 21.3189 43.588 21.3392 43.585C21.3583 43.5785 21.3758 43.5682 21.3907 43.5547C21.4057 43.5412 21.4177 43.5249 21.4261 43.5066C21.4343 43.4879 21.4386 43.4677 21.4388 43.4473C21.4389 43.4268 21.4346 43.4066 21.4261 43.3879C21.4186 43.3688 21.4062 43.352 21.3901 43.3392C21.375 43.3255 21.3572 43.3152 21.3378 43.309C21.3185 43.3028 21.298 43.3008 21.2778 43.3032L21.2693 43.299Z" fill="#49A6D6"/>
<path d="M21.6443 42.6147C21.6254 42.6149 21.6068 42.6185 21.5892 42.6253C21.5716 42.6326 21.5558 42.6434 21.5426 42.657C21.5296 42.6696 21.5195 42.6848 21.5129 42.7015C21.5087 42.7197 21.5087 42.7385 21.5129 42.7566V43.0871C21.5169 43.1221 21.5335 43.1545 21.5595 43.1782C21.5858 43.2015 21.6197 43.2143 21.6548 43.2143C21.69 43.2143 21.7239 43.2015 21.7502 43.1782C21.777 43.1551 21.7938 43.1224 21.7968 43.0871V42.7566C21.801 42.7385 21.801 42.7197 21.7968 42.7015C21.7902 42.6841 21.7801 42.6683 21.7671 42.6549C21.753 42.6419 21.7365 42.6318 21.7184 42.6253C21.6949 42.6158 21.6695 42.6122 21.6443 42.6147Z" fill="#49A6D6"/>
<path d="M22.3471 43.2756H22.0102C21.9752 43.2797 21.9429 43.2962 21.9191 43.3222C21.8957 43.3489 21.8828 43.3832 21.8828 43.4186C21.8828 43.4541 21.8957 43.4884 21.9191 43.515C21.9429 43.5411 21.9752 43.5576 22.0102 43.5617H22.3386C22.3589 43.5659 22.3798 43.5659 22.4 43.5617C22.4191 43.556 22.4366 43.5459 22.4509 43.532C22.467 43.5192 22.4794 43.5024 22.4869 43.4833C22.4956 43.4647 22.4999 43.4444 22.4996 43.4239C22.4997 43.4042 22.4953 43.3846 22.4869 43.3667C22.4794 43.3476 22.467 43.3308 22.4509 43.318C22.4366 43.3041 22.4191 43.294 22.4 43.2883C22.3833 43.2809 22.3654 43.2766 22.3471 43.2756Z" fill="#49A6D6"/>
<path d="M33.545 30.5147C33.451 30.4175 33.3984 30.2876 33.3984 30.1524C33.3984 30.0172 33.451 29.8873 33.545 29.7901C33.5924 29.7423 33.6489 29.7044 33.711 29.6785C33.7732 29.6526 33.8399 29.6393 33.9073 29.6393C33.9746 29.6393 34.0413 29.6526 34.1035 29.6785C34.1656 29.7044 34.2221 29.7423 34.2695 29.7901L37.0239 32.5444C37.0716 32.5919 37.1096 32.6483 37.1355 32.7105C37.1613 32.7727 37.1747 32.8393 37.1747 32.9067C37.1747 32.974 37.1613 33.0407 37.1355 33.1029C37.1096 33.1651 37.0716 33.2215 37.0239 33.269C36.9262 33.362 36.7964 33.4139 36.6616 33.4139C36.5267 33.4139 36.397 33.362 36.2993 33.269L33.545 30.5147Z" fill="url(#paint7_linear_11270_7803)"/>
<path d="M37.0232 30.5147C37.1162 30.417 37.1681 30.2873 37.1681 30.1524C37.1681 30.0175 37.1162 29.8878 37.0232 29.7901C36.9757 29.7423 36.9193 29.7044 36.8571 29.6785C36.7949 29.6526 36.7282 29.6393 36.6609 29.6393C36.5935 29.6393 36.5268 29.6526 36.4647 29.6785C36.4025 29.7044 36.346 29.7423 36.2986 29.7901L33.5443 32.5444C33.4962 32.5917 33.4581 32.6481 33.432 32.7103C33.406 32.7725 33.3926 32.8393 33.3926 32.9067C33.3926 32.9741 33.406 33.0409 33.432 33.1031C33.4581 33.1653 33.4962 33.2217 33.5443 33.269C33.642 33.362 33.7717 33.4139 33.9066 33.4139C34.0415 33.4139 34.1712 33.362 34.2689 33.269L37.0232 30.5147Z" fill="url(#paint8_linear_11270_7803)"/>
<path d="M45.475 30.5148C45.382 30.4171 45.3301 30.2874 45.3301 30.1525C45.3301 30.0176 45.382 29.8879 45.475 29.7902C45.5224 29.7424 45.5789 29.7045 45.641 29.6786C45.7032 29.6527 45.7699 29.6394 45.8373 29.6394C45.9046 29.6394 45.9713 29.6527 46.0335 29.6786C46.0956 29.7045 46.1521 29.7424 46.1996 29.7902L48.9539 32.5445C49.0016 32.592 49.0396 32.6484 49.0655 32.7106C49.0913 32.7728 49.1047 32.8395 49.1047 32.9068C49.1047 32.9742 49.0913 33.0409 49.0655 33.103C49.0396 33.1652 49.0016 33.2217 48.9539 33.2691C48.8562 33.3621 48.7264 33.414 48.5916 33.414C48.4567 33.414 48.327 33.3621 48.2293 33.2691L45.475 30.5148Z" fill="url(#paint9_linear_11270_7803)"/>
<path d="M48.9349 30.5148C49.0288 30.4176 49.0814 30.2877 49.0814 30.1525C49.0814 30.0173 49.0288 29.8874 48.9349 29.7902C48.8874 29.7424 48.831 29.7045 48.7688 29.6786C48.7066 29.6527 48.6399 29.6394 48.5726 29.6394C48.5052 29.6394 48.4385 29.6527 48.3763 29.6786C48.3142 29.7045 48.2577 29.7424 48.2103 29.7902L45.475 32.5276C45.4272 32.575 45.3893 32.6315 45.3634 32.6937C45.3375 32.7558 45.3242 32.8225 45.3242 32.8899C45.3242 32.9572 45.3375 33.0239 45.3634 33.0861C45.3893 33.1483 45.4272 33.2047 45.475 33.2522C45.5727 33.3452 45.7024 33.397 45.8373 33.397C45.9722 33.397 46.1019 33.3452 46.1996 33.2522L48.9349 30.5148Z" fill="url(#paint10_linear_11270_7803)"/>
<path d="M43.1976 37.017C43.3341 37.017 43.4651 36.9628 43.5616 36.8662C43.6582 36.7696 43.7124 36.6387 43.7124 36.5021C43.7124 36.3656 43.6582 36.2347 43.5616 36.1381C43.4651 36.0415 43.3341 35.9873 43.1976 35.9873H39.3098C39.1732 35.9873 39.0423 36.0415 38.9457 36.1381C38.8492 36.2347 38.7949 36.3656 38.7949 36.5021C38.7949 36.6387 38.8492 36.7696 38.9457 36.8662C39.0423 36.9628 39.1732 37.017 39.3098 37.017H43.1976Z" fill="url(#paint11_linear_11270_7803)"/>
<path d="M40.8135 87.923C61.2626 87.923 77.8399 81.9356 77.8399 74.5498C77.8399 67.1639 61.2626 61.1765 40.8135 61.1765C20.3644 61.1765 3.78711 67.1639 3.78711 74.5498C3.78711 81.9356 20.3644 87.923 40.8135 87.923Z" fill="url(#paint12_linear_11270_7803)"/>
<path d="M59.9468 66.5598C61.6943 66.5598 63.4025 66.0416 64.8555 65.0708C66.3085 64.0999 67.4409 62.72 68.1097 61.1055C68.7784 59.4911 68.9534 57.7146 68.6125 56.0007C68.2715 54.2867 67.43 52.7124 66.1944 51.4768C64.9587 50.2411 63.3844 49.3996 61.6705 49.0587C59.9566 48.7178 58.1801 48.8927 56.5656 49.5615C54.9511 50.2302 53.5712 51.3627 52.6004 52.8157C51.6295 54.2686 51.1113 55.9769 51.1113 57.7244C51.1113 60.0677 52.0422 62.315 53.6992 63.972C55.3561 65.6289 57.6035 66.5598 59.9468 66.5598Z" fill="url(#paint13_linear_11270_7803)" stroke="white" stroke-width="1.53396" stroke-miterlimit="10"/>
<path d="M60.6425 57.7242L63.7275 54.6393C63.7824 54.5963 63.8276 54.5421 63.86 54.4803C63.8923 54.4185 63.9112 54.3505 63.9152 54.2808C63.9193 54.2112 63.9085 54.1415 63.8835 54.0763C63.8586 54.0112 63.82 53.9521 63.7705 53.903C63.7209 53.8539 63.6615 53.8159 63.5961 53.7916C63.5308 53.7672 63.4609 53.757 63.3913 53.7617C63.3217 53.7664 63.2539 53.7859 63.1924 53.8189C63.1309 53.8518 63.0772 53.8974 63.0347 53.9528L59.9476 57.0314L56.8604 53.9528C56.8146 53.9077 56.7607 53.8718 56.7015 53.8468C56.6422 53.8217 56.5784 53.8088 56.514 53.8088C56.4496 53.8088 56.3858 53.8217 56.3265 53.8468C56.2673 53.8718 56.2134 53.9077 56.1676 53.9528C56.1217 53.9983 56.085 54.0523 56.0595 54.1117C56.0114 54.2328 56.0114 54.3677 56.0595 54.4888C56.085 54.5482 56.1217 54.6022 56.1676 54.6477L59.2547 57.7242L56.1676 60.8114C56.1212 60.8573 56.0845 60.912 56.0595 60.9724C56.0115 61.0928 56.0115 61.227 56.0595 61.3474C56.085 61.4068 56.1217 61.4608 56.1676 61.5063C56.2597 61.5978 56.3842 61.6491 56.514 61.6491C56.6438 61.6491 56.7684 61.5978 56.8604 61.5063L59.9476 58.4192L63.0347 61.5063C63.127 61.5973 63.2515 61.6483 63.3811 61.6483C63.5107 61.6483 63.6352 61.5973 63.7275 61.5063C63.7734 61.4608 63.8101 61.4068 63.8356 61.3474C63.86 61.2875 63.8729 61.2235 63.8737 61.1588C63.8725 61.0942 63.8596 61.0303 63.8356 60.9703C63.8101 60.9109 63.7734 60.8569 63.7275 60.8114L60.6425 57.7242Z" fill="white"/>
</g>
<defs>
<linearGradient id="paint0_linear_11270_7803" x1="38.4811" y1="71.8958" x2="43.2808" y2="-8.1" gradientUnits="userSpaceOnUse">
<stop stop-color="#FEFEFD"/>
<stop offset="1" stop-color="#EBF3FF"/>
</linearGradient>
<linearGradient id="paint1_linear_11270_7803" x1="11.7791" y1="29.0274" x2="16.3619" y2="29.0274" gradientUnits="userSpaceOnUse">
<stop stop-color="#FF8E00"/>
<stop offset="1" stop-color="#FFCF01"/>
</linearGradient>
<linearGradient id="paint2_linear_11270_7803" x1="38.5898" y1="11.8469" x2="40.7615" y2="11.8469" gradientUnits="userSpaceOnUse">
<stop stop-color="#5278FF"/>
<stop offset="1" stop-color="#30B8FC"/>
</linearGradient>
<linearGradient id="paint3_linear_11270_7803" x1="46.446" y1="70.4445" x2="23.7838" y2="-14.213" gradientUnits="userSpaceOnUse">
<stop stop-color="#FEFEFD"/>
<stop offset="1" stop-color="#C1D3FD"/>
</linearGradient>
<linearGradient id="paint4_linear_11270_7803" x1="6.54394" y1="7.41032" x2="44.0449" y2="40.2502" gradientUnits="userSpaceOnUse">
<stop stop-color="#7AA3FF"/>
<stop offset="1" stop-color="#E4ECFE" stop-opacity="0"/>
</linearGradient>
<linearGradient id="paint5_linear_11270_7803" x1="936.47" y1="1162.99" x2="1001.02" y2="1162.99" gradientUnits="userSpaceOnUse">
<stop stop-color="#5278FF"/>
<stop offset="1" stop-color="#30B8FC"/>
</linearGradient>
<linearGradient id="paint6_linear_11270_7803" x1="1415.27" y1="654.421" x2="1514.3" y2="654.421" gradientUnits="userSpaceOnUse">
<stop stop-color="#5278FF"/>
<stop offset="1" stop-color="#30B8FC"/>
</linearGradient>
<linearGradient id="paint7_linear_11270_7803" x1="57.9227" y1="9.48022" x2="-9.60449" y2="75.2426" gradientUnits="userSpaceOnUse">
<stop stop-color="#8BB4F2"/>
<stop offset="1" stop-color="white"/>
</linearGradient>
<linearGradient id="paint8_linear_11270_7803" x1="1062.25" y1="198.628" x2="-140.796" y2="1370.51" gradientUnits="userSpaceOnUse">
<stop stop-color="#8BB4F2"/>
<stop offset="1" stop-color="white"/>
</linearGradient>
<linearGradient id="paint9_linear_11270_7803" x1="1177.36" y1="304.845" x2="-25.6338" y2="1476.44" gradientUnits="userSpaceOnUse">
<stop stop-color="#8BB4F2"/>
<stop offset="1" stop-color="white"/>
</linearGradient>
<linearGradient id="paint10_linear_11270_7803" x1="1172.02" y1="303.459" x2="-25.6114" y2="1469.67" gradientUnits="userSpaceOnUse">
<stop stop-color="#8BB4F2"/>
<stop offset="1" stop-color="white"/>
</linearGradient>
<linearGradient id="paint11_linear_11270_7803" x1="1503.96" y1="108.982" x2="1369.03" y2="736.564" gradientUnits="userSpaceOnUse">
<stop stop-color="#8BB4F2"/>
<stop offset="1" stop-color="white"/>
</linearGradient>
<linearGradient id="paint12_linear_11270_7803" x1="40.8135" y1="67.0029" x2="40.8135" y2="62.5261" gradientUnits="userSpaceOnUse">
<stop stop-color="#FEFEFD"/>
<stop offset="0.84" stop-color="#EBF3FF"/>
</linearGradient>
<linearGradient id="paint13_linear_11270_7803" x1="59.9468" y1="79.2642" x2="59.9468" y2="51.2789" gradientUnits="userSpaceOnUse">
<stop stop-color="#FF8E00"/>
<stop offset="1" stop-color="#FFCF01"/>
</linearGradient>
<clipPath id="clip0_11270_7803">
<rect width="80" height="80" fill="white"/>
</clipPath>
</defs>
</svg>
