<svg width="275" height="200" viewBox="0 0 275 200" fill="none" xmlns="http://www.w3.org/2000/svg">
<g clip-path="url(#clip0_3464_7292)">
<path d="M48.2714 147.28C47.6703 143.793 45.927 140.667 44.7247 137.361C43.1617 133.093 43.9432 129.666 45.0253 125.458C46.7085 119.086 46.7686 111.993 43.4623 106.162C42.5606 104.599 41.3583 103.216 40.4566 101.593C39.4347 99.8497 39.0139 97.5654 38.7734 95.5816C38.5931 93.7181 38.9537 91.7944 38.8335 89.8708C38.7734 88.2477 38.4728 86.6246 38.052 85.0015C36.8497 80.5531 33.6637 74.8422 28.3736 74.9023C22.1218 74.9624 20.4987 82.5368 20.7391 87.4662C20.8594 90.8927 21.4605 94.4996 20.2582 97.8058C18.9357 101.353 15.4491 103.517 13.4653 106.703C10.5197 111.332 9.91857 117.403 11.9625 122.513C13.1046 125.398 15.6294 127.983 15.7497 131.229C15.8699 134.956 11.7821 137.181 9.85846 140.006C6.73252 144.695 6.55218 150.827 8.71629 155.876C14.1867 167.298 29.2152 171.265 39.8555 164.833C40.0358 164.833 40.2161 164.833 40.3364 164.713C45.7466 160.625 49.4737 154.193 48.2714 147.28Z" fill="#BFEAFF"/>
<path d="M28.8553 175.954C28.9755 170.424 29.0356 164.953 29.0957 159.423C25.7294 155.696 22.9641 151.608 20.7399 147.1C20.4393 146.498 21.4011 146.138 21.7017 146.739C23.6855 150.766 26.2103 154.554 29.1559 157.92C29.216 153.231 29.2761 148.602 29.3362 143.913C29.2761 143.913 29.2761 143.853 29.216 143.793C25.7895 139.946 22.8439 135.738 20.4393 131.169C20.1387 130.568 21.1006 130.207 21.4011 130.809C23.6254 135.017 26.2704 138.864 29.3963 142.411C29.4564 138.022 29.5165 133.634 29.5165 129.306C27.2322 126.48 25.1883 123.475 23.3849 120.349C23.0843 119.808 23.8658 119.146 24.1664 119.748C25.7293 122.513 27.5328 125.218 29.4564 127.743C29.5165 123.354 29.5165 119.026 29.5767 114.638C29.5165 114.638 29.4564 114.578 29.3963 114.518C27.8333 112.714 26.3906 110.851 25.0681 108.927C24.7074 108.386 25.4889 107.785 25.8496 108.326C27.0519 110.009 28.2541 111.632 29.5767 113.195C29.5767 110.249 29.6368 107.364 29.6368 104.418C29.6368 103.757 30.6587 103.637 30.6587 104.298C30.6587 108.326 30.5986 112.353 30.5385 116.381C31.6205 114.518 32.7627 112.654 33.9049 110.851C34.2656 110.31 35.0471 110.911 34.6864 111.452C33.1835 113.736 31.8009 116.02 30.4784 118.425C30.4183 121.972 30.4183 125.519 30.3581 129.065C30.3581 129.125 30.3581 129.125 30.3581 129.185C30.3581 131.169 30.298 133.153 30.298 135.137C33.2436 131.83 35.8285 128.224 37.9926 124.256C38.2932 123.715 39.255 124.136 38.8944 124.677C36.4898 129.005 33.6043 133.033 30.2379 136.64C30.1778 141.689 30.1177 146.739 30.0576 151.849C32.4621 149.264 34.8667 146.679 37.2713 144.094C37.6921 143.613 38.5337 144.214 38.0528 144.695C35.3476 147.58 32.7026 150.466 29.9975 153.291C29.8772 160.866 29.757 168.44 29.6368 176.075C29.8171 176.736 28.7952 176.616 28.8553 175.954Z" fill="#49A6D6"/>
<path d="M28.1338 35.1067H228.855" stroke="#BFEAFF" stroke-width="1.9411" stroke-miterlimit="10"/>
<path d="M216.591 183.348H40.3365C33.6037 183.348 28.0732 177.878 28.0732 171.085V27.0514C28.0732 20.3186 33.5436 14.7881 40.3365 14.7881H216.591C223.324 14.7881 228.855 20.2585 228.855 27.0514V171.085C228.855 177.878 223.384 183.348 216.591 183.348Z" stroke="#BFEAFF" stroke-width="1.9411" stroke-miterlimit="10"/>
<path d="M47.9115 25.1879C47.9115 26.7509 46.6491 28.0133 45.0861 28.0133C43.5231 28.0133 42.2607 26.7509 42.2607 25.1879C42.2607 23.6249 43.5231 22.3625 45.0861 22.3625C46.6491 22.3625 47.9115 23.6249 47.9115 25.1879Z" stroke="#BFEAFF" stroke-width="1.9411" stroke-miterlimit="10"/>
<path d="M58.9115 25.1879C58.9115 26.7509 57.6491 28.0133 56.0861 28.0133C54.5231 28.0133 53.2607 26.7509 53.2607 25.1879C53.2607 23.6249 54.5231 22.3625 56.0861 22.3625C57.6491 22.3625 58.9115 23.6249 58.9115 25.1879Z" stroke="#BFEAFF" stroke-width="1.9411" stroke-miterlimit="10"/>
<path d="M69.9125 25.1879C69.9125 26.7509 68.6501 28.0133 67.0871 28.0133C65.5241 28.0133 64.2617 26.7509 64.2617 25.1879C64.2617 23.6249 65.5241 22.3625 67.0871 22.3625C68.6501 22.3625 69.9125 23.6249 69.9125 25.1879Z" stroke="#BFEAFF" stroke-width="1.9411" stroke-miterlimit="10"/>
<path d="M123.174 196.333C152.75 193.688 246.829 200.24 239.134 188.037C237.932 186.234 231.8 183.769 236.85 181.966C240.577 180.583 247.37 179.621 253.982 178.96C271.235 177.157 277.547 174.391 273.099 170.845C261.136 161.347 197.535 165.374 164.172 169.222C140.487 172.047 112.413 173.189 87.7665 171.987C68.4698 171.025 56.3268 168.2 33.7238 169.763C13.6457 171.085 10.7602 174.872 16.7115 178.118C20.0779 180.162 22.4825 181.004 15.93 183.228C10.3995 185.392 0.661021 187.196 -0.000235004 189.6C-0.120463 192.185 6.0713 194.59 17.9138 195.251C27.5922 195.792 36.3689 195.251 45.927 195.491C67.2075 196.093 81.0337 202.104 107.364 199.219C113.916 198.437 117.583 196.934 124.737 196.333" fill="#EEEEEE"/>
<path opacity="0.5" d="M241.479 178.299C254.765 178.299 265.525 177.096 265.525 175.594C265.525 174.091 254.765 172.888 241.479 172.888C228.194 172.888 217.434 174.091 217.434 175.594C217.434 177.096 228.194 178.299 241.479 178.299Z" fill="#A3A8AF"/>
<path d="M160.204 189.179H148.422C148.121 189.179 147.881 189.42 147.881 189.72C147.881 190.021 148.121 190.261 148.422 190.261H160.204C160.505 190.261 160.745 190.021 160.745 189.72C160.745 189.36 160.505 189.179 160.204 189.179Z" fill="#49A6D6"/>
<path d="M144.635 189.179H142.351C142.05 189.179 141.81 189.42 141.81 189.72C141.81 190.021 142.05 190.261 142.351 190.261H144.635C144.936 190.261 145.176 190.021 145.176 189.72C145.176 189.42 144.936 189.179 144.635 189.179Z" fill="#49A6D6"/>
<path d="M205.109 184.791C204.809 184.791 204.568 185.032 204.568 185.332V186.534C204.568 186.835 204.809 187.075 205.109 187.075C205.41 187.075 205.65 186.835 205.65 186.534V185.332C205.59 185.032 205.35 184.791 205.109 184.791Z" fill="#49A6D6"/>
<path d="M203.727 183.589H202.524C202.224 183.589 201.983 183.829 201.983 184.13C201.983 184.43 202.224 184.671 202.524 184.671H203.727C204.027 184.671 204.268 184.43 204.268 184.13C204.268 183.829 204.027 183.589 203.727 183.589Z" fill="#49A6D6"/>
<path d="M205.109 181.124C204.809 181.124 204.568 181.365 204.568 181.665V182.867C204.568 183.168 204.809 183.408 205.109 183.408C205.41 183.408 205.65 183.168 205.65 182.867V181.665C205.59 181.305 205.35 181.124 205.109 181.124Z" fill="#49A6D6"/>
<path d="M207.635 183.529H206.433C206.132 183.529 205.892 183.769 205.892 184.07C205.892 184.37 206.132 184.611 206.433 184.611H207.635C207.935 184.611 208.176 184.37 208.176 184.07C208.176 183.709 207.935 183.529 207.635 183.529Z" fill="#49A6D6"/>
<path d="M27.8926 10.8806C27.592 10.8806 27.3516 11.1211 27.3516 11.4216V12.6239C27.3516 12.9245 27.592 13.165 27.8926 13.165C28.1932 13.165 28.4336 12.9245 28.4336 12.6239V11.4216C28.4336 11.1211 28.1932 10.8806 27.8926 10.8806Z" fill="#49A6D6"/>
<path d="M26.5099 9.67834H25.3076C25.0071 9.67834 24.7666 9.9188 24.7666 10.2194C24.7666 10.5199 25.0071 10.7604 25.3076 10.7604H26.5099C26.8105 10.7604 27.0509 10.5199 27.0509 10.2194C27.0509 9.9188 26.8105 9.67834 26.5099 9.67834Z" fill="#49A6D6"/>
<path d="M27.8926 7.21375C27.592 7.21375 27.3516 7.4542 27.3516 7.75477V8.95706C27.3516 9.25763 27.592 9.49809 27.8926 9.49809C28.1932 9.49809 28.4336 9.25763 28.4336 8.95706V7.75477C28.4336 7.4542 28.1932 7.21375 27.8926 7.21375Z" fill="#49A6D6"/>
<path d="M30.4181 9.61829H29.2158C28.9153 9.61829 28.6748 9.85874 28.6748 10.1593C28.6748 10.4599 28.9153 10.7003 29.2158 10.7003H30.4181C30.7187 10.7003 30.9591 10.4599 30.9591 10.1593C30.9591 9.85874 30.7187 9.61829 30.4181 9.61829Z" fill="#49A6D6"/>
<path d="M103.817 5.4103H115.6C115.9 5.4103 116.141 5.16985 116.141 4.86928C116.141 4.5687 115.9 4.32825 115.6 4.32825H103.817C103.517 4.32825 103.276 4.5687 103.276 4.86928C103.276 5.22996 103.517 5.4103 103.817 5.4103Z" fill="#49A6D6"/>
<path d="M119.387 5.4103H121.671C121.972 5.4103 122.212 5.16985 122.212 4.86928C122.212 4.5687 121.972 4.32825 121.671 4.32825H119.387C119.086 4.32825 118.846 4.5687 118.846 4.86928C118.846 5.22996 119.086 5.4103 119.387 5.4103Z" fill="#49A6D6"/>
<path d="M109.348 1.32252C109.348 1.02195 109.588 0.781494 109.889 0.781494H111.392C111.692 0.781494 111.933 1.02195 111.933 1.32252C111.933 1.62309 111.692 1.86355 111.392 1.86355H109.889C109.588 1.86355 109.348 1.62309 109.348 1.32252ZM113.435 1.32252C113.435 1.02195 113.676 0.781494 113.976 0.781494H116.561C116.862 0.781494 117.102 1.02195 117.102 1.32252C117.102 1.62309 116.862 1.86355 116.561 1.86355H113.976C113.676 1.86355 113.435 1.62309 113.435 1.32252ZM118.605 1.32252C118.605 1.02195 118.846 0.781494 119.146 0.781494H121.731C122.032 0.781494 122.272 1.02195 122.272 1.32252C122.272 1.62309 122.032 1.86355 121.731 1.86355H119.146C118.846 1.86355 118.605 1.62309 118.605 1.32252Z" fill="#49A6D6"/>
<path d="M7.87501 51.037H19.6574C19.958 51.037 20.1984 50.7966 20.1984 50.496C20.1984 50.1954 19.958 49.955 19.6574 49.955H7.87501C7.57444 49.955 7.33398 50.1954 7.33398 50.496C7.3941 50.7966 7.63456 51.037 7.87501 51.037Z" fill="#49A6D6"/>
<path d="M1.80372 51.037H4.08806C4.38863 51.037 4.62909 50.7966 4.62909 50.496C4.62909 50.1954 4.38863 49.955 4.08806 49.955H1.80372C1.50315 49.955 1.2627 50.1954 1.2627 50.496C1.32281 50.7966 1.56327 51.037 1.80372 51.037Z" fill="#49A6D6"/>
<path d="M91.2536 0C91.2536 0 91.4941 1.74331 89.4502 1.74331C89.4502 1.74331 91.1935 1.74331 91.1935 3.42651C91.1935 3.42651 91.3738 2.104 92.9969 1.86354C92.9368 1.80343 91.5542 2.104 91.2536 0Z" fill="#49A6D6"/>
<path d="M15.6296 74.4816C15.6296 74.4816 15.8701 76.2249 13.8262 76.2249C13.8262 76.2249 15.5695 76.2249 15.5695 77.9081C15.5695 77.9081 15.7498 76.5856 17.3729 76.3451C17.3128 76.285 15.9302 76.5856 15.6296 74.4816Z" fill="#49A6D6"/>
<path d="M9.73828 132.191C9.73828 131.229 10.5198 130.448 11.4816 130.448C12.4434 130.448 13.2249 131.229 13.2249 132.191C13.2249 133.153 12.4434 133.935 11.4816 133.935C10.5198 133.935 9.73828 133.153 9.73828 132.191ZM10.5799 132.191C10.5799 132.672 11.0007 133.093 11.4816 133.093C11.9625 133.093 12.3833 132.672 12.3833 132.191C12.3833 131.71 11.9625 131.289 11.4816 131.289C11.0007 131.35 10.5799 131.71 10.5799 132.191Z" fill="#49A6D6"/>
<path d="M138.683 24.9474H136.76C136.519 24.9474 136.339 25.1277 136.339 25.3682C136.339 25.6086 136.519 25.789 136.76 25.789H138.683C138.924 25.789 139.104 25.6086 139.104 25.3682C139.104 25.1277 138.924 24.9474 138.683 24.9474Z" fill="#49A6D6"/>
<path d="M151.608 24.9474H141.809C141.569 24.9474 141.389 25.1277 141.389 25.3682C141.389 25.6086 141.569 25.789 141.809 25.789H151.608C151.849 25.789 152.029 25.6086 152.029 25.3682C152.029 25.1878 151.849 24.9474 151.608 24.9474Z" fill="#49A6D6"/>
<path d="M146.979 28.3739C146.979 28.6144 146.799 28.7947 146.558 28.7947H145.356C145.116 28.7947 144.935 28.6144 144.935 28.3739C144.935 28.1335 145.116 27.9531 145.356 27.9531H146.558C146.799 27.9531 146.979 28.1335 146.979 28.3739ZM143.613 28.3739C143.613 28.6144 143.432 28.7947 143.192 28.7947H141.028C140.787 28.7947 140.607 28.6144 140.607 28.3739C140.607 28.1335 140.787 27.9531 141.028 27.9531H143.192C143.432 27.9531 143.613 28.1335 143.613 28.3739ZM139.345 28.3739C139.345 28.6144 139.164 28.7947 138.924 28.7947H136.76C136.519 28.7947 136.339 28.6144 136.339 28.3739C136.339 28.1335 136.519 27.9531 136.76 27.9531H138.924C139.104 27.9531 139.345 28.1335 139.345 28.3739Z" fill="#49A6D6"/>
<path d="M73.8202 90.7725C73.5798 90.7725 73.3994 90.9528 73.3994 91.1933V92.2152C73.3994 92.4557 73.5798 92.636 73.8202 92.636C74.0607 92.636 74.241 92.4557 74.241 92.2152V91.1933C74.241 90.9528 74.0607 90.7725 73.8202 90.7725Z" fill="#49A6D6"/>
<path d="M72.6781 89.7505H71.6562C71.4157 89.7505 71.2354 89.9308 71.2354 90.1713C71.2354 90.4118 71.4157 90.5921 71.6562 90.5921H72.6781C72.9186 90.5921 73.0989 90.4118 73.0989 90.1713C73.0989 89.9308 72.9186 89.7505 72.6781 89.7505Z" fill="#49A6D6"/>
<path d="M73.8202 87.7067C73.5798 87.7067 73.3994 87.887 73.3994 88.1275V89.1494C73.3994 89.3899 73.5798 89.5702 73.8202 89.5702C74.0607 89.5702 74.241 89.3899 74.241 89.1494V88.1275C74.241 87.887 74.0607 87.7067 73.8202 87.7067Z" fill="#49A6D6"/>
<path d="M75.9242 89.6904H74.9022C74.6618 89.6904 74.4814 89.8708 74.4814 90.1112C74.4814 90.3517 74.6618 90.532 74.9022 90.532H75.9242C76.1646 90.532 76.345 90.3517 76.345 90.1112C76.345 89.8708 76.1646 89.6904 75.9242 89.6904Z" fill="#49A6D6"/>
<path d="M235.767 56.6276C235.527 56.6276 235.347 56.8079 235.347 57.0484V58.0703C235.347 58.3108 235.527 58.4911 235.767 58.4911C236.008 58.4911 236.188 58.3108 236.188 58.0703V57.0484C236.248 56.8079 236.008 56.6276 235.767 56.6276Z" fill="#49A6D6"/>
<path d="M234.686 55.6057H233.664C233.424 55.6057 233.243 55.7861 233.243 56.0265C233.243 56.267 233.424 56.4473 233.664 56.4473H234.686C234.926 56.4473 235.107 56.267 235.107 56.0265C235.107 55.7861 234.926 55.6057 234.686 55.6057Z" fill="#49A6D6"/>
<path d="M235.767 53.5618C235.527 53.5618 235.347 53.7421 235.347 53.9826V55.0045C235.347 55.245 235.527 55.4253 235.767 55.4253C236.008 55.4253 236.188 55.245 236.188 55.0045V53.9826C236.248 53.7421 236.008 53.5618 235.767 53.5618Z" fill="#49A6D6"/>
<path d="M237.932 55.5455H236.91C236.67 55.5455 236.489 55.7259 236.489 55.9663C236.489 56.2068 236.67 56.3871 236.91 56.3871H237.932C238.172 56.3871 238.353 56.2068 238.353 55.9663C238.353 55.7259 238.172 55.5455 237.932 55.5455Z" fill="#49A6D6"/>
<path d="M228.073 24.8272H237.872C238.112 24.8272 238.293 24.6469 238.293 24.4064C238.293 24.1659 238.112 23.9856 237.872 23.9856H228.073C227.833 23.9856 227.652 24.1659 227.652 24.4064C227.652 24.6469 227.833 24.8272 228.073 24.8272Z" fill="#49A6D6"/>
<path d="M223.023 24.8272H224.947C225.187 24.8272 225.368 24.6469 225.368 24.4064C225.368 24.1659 225.187 23.9856 224.947 23.9856H223.023C222.783 23.9856 222.603 24.1659 222.603 24.4064C222.603 24.6469 222.783 24.8272 223.023 24.8272Z" fill="#49A6D6"/>
<path d="M268.23 135.918C267.388 130.809 264.803 126.24 263.06 121.431C260.835 115.239 261.857 110.25 263.541 104.058C266.005 94.8002 266.065 84.4004 261.256 75.8642C259.934 73.5197 258.19 71.536 256.868 69.1915C255.425 66.6667 254.764 63.3003 254.463 60.4148C254.163 57.6496 254.704 54.8843 254.584 52.1191C254.463 49.7145 254.103 47.3701 253.502 45.0256C251.758 38.5333 247.129 30.1774 239.375 30.2375C230.237 30.3577 227.893 41.3586 228.193 48.5723C228.374 53.5618 229.275 58.8519 227.472 63.7211C225.488 68.9511 220.439 72.077 217.493 76.7058C213.225 83.4987 212.323 92.3355 215.329 99.7897C217.012 103.998 220.739 107.785 220.859 112.474C221.04 117.944 215.028 121.19 212.323 125.218C207.755 132.071 207.514 140.968 210.7 148.422C218.635 165.074 240.637 170.845 256.207 161.527C256.447 161.587 256.688 161.527 256.928 161.347C264.502 155.335 269.913 145.957 268.23 135.918Z" fill="#8FD8FC"/>
<path d="M239.795 177.698C239.916 169.642 240.036 161.647 240.156 153.592C235.227 148.182 231.199 142.17 227.953 135.678C227.532 134.836 228.915 134.295 229.335 135.137C232.281 141.028 235.888 146.498 240.216 151.428C240.336 144.635 240.396 137.842 240.457 130.989C240.396 130.929 240.336 130.929 240.276 130.869C235.227 125.278 230.959 119.146 227.412 112.474C226.991 111.632 228.374 111.091 228.794 111.933C232.041 118.004 235.948 123.655 240.457 128.885C240.517 122.513 240.577 116.141 240.637 109.769C237.331 105.621 234.325 101.293 231.74 96.6637C231.259 95.8221 232.461 94.9204 232.942 95.762C235.227 99.8498 237.812 103.697 240.697 107.364C240.757 100.992 240.817 94.6799 240.877 88.3078C240.817 88.2477 240.697 88.1876 240.637 88.1275C238.413 85.4825 236.309 82.7773 234.325 79.952C233.784 79.1705 234.986 78.2688 235.527 79.0502C237.21 81.4548 239.074 83.8594 240.937 86.1437C240.998 81.8756 240.998 77.6075 241.058 73.3995C241.058 72.4377 242.561 72.2573 242.5 73.2192C242.44 79.1104 242.44 85.0016 242.38 90.8326C243.943 88.1275 245.566 85.4224 247.31 82.8374C247.851 82.056 248.993 82.9577 248.512 83.7392C246.348 87.0454 244.304 90.4118 242.38 93.8985C242.32 99.0683 242.26 104.238 242.26 109.408C242.26 109.468 242.26 109.528 242.26 109.588C242.26 112.474 242.2 115.359 242.2 118.245C246.528 113.375 250.315 108.146 253.441 102.435C253.922 101.593 255.245 102.194 254.764 103.036C251.277 109.348 247.069 115.179 242.14 120.469C242.08 127.863 241.959 135.197 241.839 142.591C245.386 138.804 248.873 135.077 252.419 131.289C253.081 130.628 254.223 131.47 253.561 132.191C249.654 136.399 245.747 140.547 241.779 144.755C241.659 155.816 241.479 166.877 241.298 177.938C241.238 178.9 239.795 178.659 239.795 177.698Z" fill="#49A6D6"/>
<g opacity="0.7">
<path opacity="0.7" d="M196.633 142.952C196.513 143.012 196.333 143.072 196.212 143.252C196.152 143.252 196.152 143.312 196.092 143.312C195.972 143.372 195.852 143.433 195.732 143.553C189.901 146.438 182.807 144.214 179.621 138.443C176.615 132.973 178.238 126.18 183.168 122.513C183.528 122.212 184.009 121.972 184.43 121.671C184.55 121.611 184.731 121.551 184.851 121.431C184.971 121.371 185.151 121.31 185.272 121.19C185.693 120.95 186.234 120.83 186.775 120.649C187.496 120.409 188.277 120.289 188.999 120.228C191.283 119.988 193.688 120.349 195.732 121.431C197.956 122.453 199.819 124.256 201.082 126.54C204.148 132.311 202.224 139.525 196.633 142.952Z" fill="url(#paint0_linear_3464_7292)"/>
<g opacity="0.7">
<path opacity="0.7" d="M190.322 143.733C186.234 143.733 182.507 141.509 180.463 137.962C178.96 135.377 178.66 132.311 179.501 129.426C180.343 126.54 182.266 124.196 184.851 122.753C186.474 121.852 188.398 121.371 190.262 121.371C194.349 121.371 198.076 123.595 200.12 127.142C201.623 129.726 201.924 132.792 201.082 135.678C200.241 138.563 198.317 140.908 195.732 142.35C194.049 143.252 192.185 143.733 190.322 143.733ZM190.322 122.032C188.518 122.032 186.775 122.453 185.212 123.354C182.747 124.677 181.004 126.961 180.162 129.666C179.321 132.371 179.742 135.197 181.064 137.662C182.928 140.968 186.474 143.132 190.322 143.132C192.125 143.132 193.868 142.711 195.431 141.809C197.896 140.487 199.639 138.203 200.481 135.497C201.323 132.852 200.902 129.967 199.579 127.502C197.656 124.136 194.169 122.032 190.322 122.032Z" fill="#49A6D6"/>
</g>
<path opacity="0.7" d="M190.321 124.316L192.786 129.366L198.316 130.207L194.349 134.055L195.251 139.585L190.381 137L185.452 139.585L186.414 134.055L182.446 130.207L187.917 129.366L190.321 124.316Z" fill="#49A6D6"/>
</g>
<g opacity="0.7">
<path opacity="0.7" d="M204.028 113.135C203.967 113.195 203.907 113.195 203.727 113.255C203.727 113.255 203.667 113.255 203.667 113.315C203.607 113.315 203.547 113.375 203.426 113.375C200.12 114.998 196.092 113.736 194.349 110.49C192.666 107.364 193.508 103.517 196.333 101.533C196.573 101.413 196.754 101.232 197.054 101.112C197.114 101.052 197.174 101.052 197.355 100.992C197.415 100.932 197.475 100.932 197.655 100.872C197.956 100.751 198.196 100.631 198.497 100.571C198.918 100.451 199.339 100.331 199.759 100.331C201.082 100.21 202.344 100.391 203.547 100.992C204.809 101.593 205.831 102.555 206.552 103.877C208.236 107.123 207.093 111.211 204.028 113.135Z" fill="url(#paint1_linear_3464_7292)"/>
<g opacity="0.7">
<path opacity="0.7" d="M200.48 113.556C198.196 113.556 196.032 112.293 194.95 110.31C194.108 108.807 193.928 107.123 194.409 105.5C194.83 103.877 195.972 102.555 197.415 101.713C198.376 101.172 199.398 100.872 200.42 100.872C202.705 100.872 204.869 102.134 205.951 104.118C206.792 105.621 206.973 107.304 206.492 108.927C206.071 110.55 204.929 111.872 203.486 112.714C202.524 113.255 201.502 113.556 200.48 113.556ZM200.36 101.292C199.398 101.292 198.376 101.533 197.475 102.014C196.092 102.735 195.13 103.998 194.649 105.56C194.228 107.123 194.349 108.686 195.19 110.069C196.212 111.993 198.196 113.195 200.36 113.195C201.322 113.195 202.344 112.955 203.246 112.474C204.628 111.752 205.59 110.49 206.071 108.927C206.492 107.364 206.372 105.801 205.53 104.418C204.628 102.495 202.584 101.292 200.36 101.292Z" fill="#49A6D6"/>
</g>
<path opacity="0.7" d="M200.361 102.615L201.743 105.44L204.869 105.861L202.645 108.085L203.186 111.211L200.361 109.708L197.595 111.211L198.136 108.085L195.912 105.861L199.038 105.44L200.361 102.615Z" fill="#49A6D6"/>
</g>
<g opacity="0.7">
<path opacity="0.7" d="M73.8806 87.1656C73.8205 87.2858 73.6402 87.4061 73.5801 87.5263C73.5801 87.5864 73.52 87.5864 73.52 87.6465C73.4598 87.7066 73.3997 87.7667 73.2795 87.887C69.3721 91.8545 62.8196 92.1551 58.6116 88.428C54.5239 84.8211 53.9227 78.8097 56.9885 74.4214C57.229 74.0607 57.5296 73.7601 57.8301 73.3994C57.8902 73.2792 58.0706 73.159 58.1307 73.0388C58.1908 72.9786 58.3712 72.7983 58.4313 72.7382C58.7318 72.4376 59.0925 72.137 59.4532 71.8365C59.9943 71.4758 60.5353 71.1151 61.1364 70.8145C63 69.9128 64.9837 69.6122 66.9675 69.8527C69.0114 70.0932 71.1154 70.9348 72.7986 72.4376C77.0066 76.345 77.4875 82.7773 73.8806 87.1656Z" fill="#CDE0FB"/>
<g opacity="0.7">
<path opacity="0.7" d="M65.7649 90.2314C63.4204 90.2314 61.076 89.3297 59.3326 87.7667C57.409 86.0835 56.2067 83.6789 56.0865 81.094C55.9663 78.5091 56.8079 75.9843 58.5512 74.0607C60.2344 72.137 62.6389 70.9347 65.2238 70.8145C67.8088 70.6943 70.3335 71.5359 72.2572 73.2792C74.1809 74.9624 75.3831 77.367 75.5034 79.9519C75.6236 82.5368 74.782 85.0616 73.0387 86.9852C71.3555 88.9089 68.9509 90.1112 66.366 90.2314C66.1256 90.1713 65.9452 90.2314 65.7649 90.2314ZM65.7649 71.4157C65.6446 71.4157 65.4042 71.4157 65.2238 71.4157C62.7592 71.5359 60.5349 72.6179 58.9118 74.4214C57.2888 76.2849 56.4472 78.5692 56.6275 81.0339C56.7477 83.4986 57.8298 85.7228 59.6332 87.3459C61.4968 88.969 63.7811 89.8106 66.2458 89.6303C68.7105 89.51 70.9347 88.428 72.5578 86.6246C74.1809 84.761 75.0225 82.4767 74.8421 80.012C74.7219 77.5473 73.6398 75.3231 71.8364 73.7C70.1532 72.1971 67.9891 71.4157 65.7649 71.4157Z" fill="#AFCDFB"/>
</g>
<path opacity="0.7" d="M63.4206 73.8202L66.9072 77.1265L71.6562 76.2248L69.4921 80.4929L71.7765 84.7009L67.0274 84.0396L63.7813 87.5863L62.9397 82.7772L58.4912 80.7934L62.7593 78.5091L63.4206 73.8202Z" fill="#AFCDFB"/>
</g>
<g opacity="0.7">
<path opacity="0.7" d="M196.633 142.952C196.513 143.012 196.333 143.072 196.212 143.252C196.152 143.252 196.152 143.312 196.092 143.312C195.972 143.372 195.852 143.433 195.732 143.553C189.9 146.438 182.807 144.214 179.621 138.443C176.615 132.973 178.238 126.18 183.168 122.513C183.528 122.212 184.009 121.972 184.43 121.671C184.55 121.611 184.731 121.551 184.851 121.431C184.971 121.371 185.151 121.31 185.272 121.19C185.693 120.95 186.234 120.83 186.775 120.649C187.496 120.409 188.277 120.289 188.999 120.228C191.283 119.988 193.688 120.349 195.732 121.431C197.956 122.453 199.819 124.256 201.082 126.54C204.148 132.311 202.224 139.525 196.633 142.952Z" fill="url(#paint2_linear_3464_7292)"/>
<g opacity="0.7">
<path opacity="0.7" d="M190.322 143.733C186.234 143.733 182.507 141.509 180.463 137.962C178.96 135.377 178.66 132.311 179.501 129.426C180.343 126.54 182.266 124.196 184.851 122.753C186.474 121.852 188.398 121.371 190.262 121.371C194.349 121.371 198.076 123.595 200.12 127.142C201.623 129.726 201.924 132.792 201.082 135.678C200.241 138.563 198.317 140.908 195.732 142.35C194.049 143.252 192.185 143.733 190.322 143.733ZM190.322 122.032C188.518 122.032 186.775 122.453 185.212 123.354C182.747 124.677 181.004 126.961 180.162 129.666C179.321 132.372 179.742 135.197 181.064 137.662C182.928 140.968 186.474 143.132 190.322 143.132C192.125 143.132 193.868 142.711 195.431 141.809C197.896 140.487 199.639 138.203 200.481 135.497C201.323 132.852 200.902 129.967 199.579 127.502C197.656 124.136 194.169 122.032 190.322 122.032Z" fill="#49A6D6"/>
</g>
<path opacity="0.7" d="M190.321 124.316L192.786 129.366L198.316 130.207L194.349 134.055L195.251 139.585L190.381 137L185.452 139.585L186.414 134.055L182.446 130.207L187.917 129.366L190.321 124.316Z" fill="#49A6D6"/>
</g>
<g opacity="0.7">
<path opacity="0.7" d="M204.028 113.135C203.967 113.195 203.907 113.195 203.727 113.255C203.727 113.255 203.667 113.255 203.667 113.315C203.607 113.315 203.547 113.375 203.426 113.375C200.12 114.998 196.092 113.736 194.349 110.49C192.666 107.364 193.508 103.517 196.333 101.533C196.573 101.413 196.754 101.232 197.054 101.112C197.114 101.052 197.174 101.052 197.355 100.992C197.415 100.932 197.475 100.932 197.655 100.872C197.956 100.751 198.196 100.631 198.497 100.571C198.918 100.451 199.339 100.331 199.759 100.331C201.082 100.21 202.344 100.391 203.547 100.992C204.809 101.593 205.831 102.555 206.552 103.877C208.236 107.123 207.093 111.211 204.028 113.135Z" fill="url(#paint3_linear_3464_7292)"/>
<g opacity="0.7">
<path opacity="0.7" d="M200.48 113.556C198.196 113.556 196.032 112.293 194.95 110.31C194.108 108.807 193.928 107.123 194.409 105.5C194.83 103.877 195.972 102.555 197.415 101.713C198.376 101.172 199.398 100.872 200.42 100.872C202.705 100.872 204.869 102.134 205.951 104.118C206.792 105.621 206.973 107.304 206.492 108.927C206.071 110.55 204.929 111.872 203.486 112.714C202.524 113.255 201.502 113.556 200.48 113.556ZM200.36 101.292C199.398 101.292 198.376 101.533 197.475 102.014C196.092 102.735 195.13 103.998 194.649 105.56C194.228 107.123 194.349 108.686 195.19 110.069C196.212 111.993 198.196 113.195 200.36 113.195C201.322 113.195 202.344 112.955 203.246 112.474C204.628 111.752 205.59 110.49 206.071 108.927C206.492 107.364 206.372 105.801 205.53 104.418C204.628 102.495 202.584 101.292 200.36 101.292Z" fill="#49A6D6"/>
</g>
<path opacity="0.7" d="M200.361 102.615L201.743 105.44L204.869 105.861L202.645 108.085L203.186 111.211L200.361 109.708L197.595 111.211L198.136 108.085L195.912 105.861L199.038 105.44L200.361 102.615Z" fill="#49A6D6"/>
</g>
<g opacity="0.7">
<path opacity="0.7" d="M194.667 62.7347C194.607 62.7949 194.547 62.855 194.426 62.9752L194.366 63.0353C194.306 63.0954 194.306 63.0954 194.246 63.1555C191.721 65.6803 187.633 65.8006 184.988 63.4561C182.404 61.1718 182.043 57.3846 183.967 54.6794C184.087 54.439 184.267 54.2586 184.508 54.0182C184.568 53.9581 184.628 53.898 184.748 53.7777C184.808 53.7176 184.868 53.6575 184.988 53.5373C185.229 53.2968 185.409 53.1766 185.65 52.9962C186.01 52.7558 186.311 52.5754 186.672 52.335C187.754 51.794 189.136 51.6136 190.399 51.7338C191.721 51.8541 192.984 52.3951 194.126 53.3569C196.591 55.9418 196.951 60.0296 194.667 62.7347Z" fill="#CDE0FB"/>
<g opacity="0.7">
<path opacity="0.7" d="M189.557 64.6584C188.054 64.6584 186.611 64.1173 185.469 63.0954C184.267 62.0133 183.546 60.5105 183.485 58.8874C183.425 57.2643 183.906 55.7014 185.048 54.439C186.13 53.2367 187.633 52.5153 189.256 52.4552C190.88 52.3951 192.442 52.876 193.705 54.0182C194.907 55.1002 195.629 56.6031 195.689 58.2262C195.749 59.8492 195.268 61.4122 194.126 62.6746C193.044 63.8769 191.541 64.5983 189.918 64.6584C189.797 64.6584 189.677 64.6584 189.557 64.6584ZM189.557 52.8159C189.437 52.8159 189.317 52.8159 189.196 52.8159C187.633 52.876 186.251 53.5372 185.289 54.7395C184.267 55.8216 183.726 57.3244 183.786 58.8874C183.846 60.4504 184.507 61.833 185.71 62.7948C186.792 63.8168 188.295 64.3578 189.858 64.2977C191.421 64.2376 192.803 63.5763 193.765 62.374C194.787 61.292 195.328 59.7891 195.268 58.2262C195.208 56.6632 194.546 55.2806 193.344 54.3187C192.322 53.3569 191 52.8159 189.557 52.8159Z" fill="#AFCDFB"/>
</g>
<path opacity="0.7" d="M187.934 54.0182L190.099 56.0621L193.044 55.4609L191.722 58.2262L193.224 60.8712L190.219 60.4504L188.175 62.6746L187.754 59.729L184.929 58.4666L187.694 56.9638L187.934 54.0182Z" fill="#AFCDFB"/>
</g>
<g opacity="0.7">
<path opacity="0.7" d="M73.8806 87.1656C73.8205 87.2858 73.6402 87.4061 73.5801 87.5263C73.5801 87.5864 73.52 87.5864 73.52 87.6465C73.4598 87.7066 73.3997 87.7667 73.2795 87.887C69.3721 91.8545 62.8196 92.1551 58.6116 88.428C54.5239 84.8211 53.9227 78.8097 56.9885 74.4214C57.229 74.0607 57.5296 73.7601 57.8301 73.3994C57.8902 73.2792 58.0706 73.159 58.1307 73.0388C58.1908 72.9786 58.3712 72.7983 58.4313 72.7382C58.7318 72.4376 59.0925 72.137 59.4532 71.8365C59.9943 71.4758 60.5353 71.1151 61.1364 70.8145C63 69.9128 64.9837 69.6122 66.9675 69.8527C69.0114 70.0932 71.1154 70.9348 72.7986 72.4376C77.0066 76.345 77.4875 82.7773 73.8806 87.1656Z" fill="#CDE0FB"/>
<g opacity="0.7">
<path opacity="0.7" d="M65.7649 90.2314C63.4204 90.2314 61.076 89.3297 59.3326 87.7667C57.409 86.0835 56.2067 83.6789 56.0865 81.094C55.9663 78.5091 56.8079 75.9843 58.5512 74.0607C60.2344 72.137 62.6389 70.9347 65.2238 70.8145C67.8087 70.6943 70.3335 71.5359 72.2572 73.2792C74.1809 74.9624 75.3831 77.367 75.5034 79.9519C75.6236 82.5368 74.782 85.0616 73.0387 86.9852C71.3555 88.9089 68.9509 90.1112 66.366 90.2314C66.1256 90.1713 65.9452 90.2314 65.7649 90.2314ZM65.7649 71.4157C65.6446 71.4157 65.4042 71.4157 65.2238 71.4157C62.7592 71.5359 60.5349 72.6179 58.9118 74.4214C57.2888 76.2849 56.4472 78.5692 56.6275 81.0339C56.7477 83.4986 57.8298 85.7228 59.6332 87.3459C61.4968 88.969 63.7811 89.8106 66.2458 89.6303C68.7105 89.51 70.9347 88.428 72.5578 86.6246C74.1809 84.761 75.0225 82.4767 74.8421 80.012C74.7219 77.5473 73.6398 75.3231 71.8364 73.7C70.1532 72.1971 67.9891 71.4157 65.7649 71.4157Z" fill="#AFCDFB"/>
</g>
<path opacity="0.7" d="M63.4206 73.8202L66.9072 77.1265L71.6562 76.2248L69.4921 80.4929L71.7765 84.7008L67.0274 84.0396L63.7813 87.5863L62.9397 82.7772L58.4912 80.7934L62.7593 78.5091L63.4206 73.8202Z" fill="#AFCDFB"/>
</g>
<g opacity="0.7">
<path opacity="0.7" d="M196.633 142.952C196.513 143.012 196.333 143.072 196.212 143.252C196.152 143.252 196.152 143.312 196.092 143.312C195.972 143.372 195.852 143.433 195.732 143.553C189.9 146.438 182.807 144.214 179.621 138.443C176.615 132.973 178.238 126.18 183.168 122.513C183.528 122.212 184.009 121.972 184.43 121.671C184.55 121.611 184.731 121.551 184.851 121.431C184.971 121.371 185.151 121.31 185.272 121.19C185.693 120.95 186.234 120.83 186.775 120.649C187.496 120.409 188.277 120.289 188.999 120.228C191.283 119.988 193.688 120.349 195.732 121.431C197.956 122.453 199.819 124.256 201.082 126.54C204.148 132.311 202.224 139.525 196.633 142.952Z" fill="url(#paint4_linear_3464_7292)"/>
<g opacity="0.7">
<path opacity="0.7" d="M190.322 143.733C186.234 143.733 182.507 141.509 180.463 137.962C178.96 135.377 178.66 132.311 179.501 129.426C180.343 126.54 182.266 124.196 184.851 122.753C186.474 121.852 188.398 121.371 190.262 121.371C194.349 121.371 198.076 123.595 200.12 127.142C201.623 129.726 201.924 132.792 201.082 135.678C200.241 138.563 198.317 140.908 195.732 142.35C194.049 143.252 192.185 143.733 190.322 143.733ZM190.322 122.032C188.518 122.032 186.775 122.453 185.212 123.354C182.747 124.677 181.004 126.961 180.162 129.666C179.321 132.372 179.742 135.197 181.064 137.662C182.928 140.968 186.474 143.132 190.322 143.132C192.125 143.132 193.868 142.711 195.431 141.809C197.896 140.487 199.639 138.203 200.481 135.497C201.323 132.852 200.902 129.967 199.579 127.502C197.656 124.136 194.169 122.032 190.322 122.032Z" fill="#49A6D6"/>
</g>
<path opacity="0.7" d="M190.321 124.316L192.786 129.366L198.316 130.207L194.349 134.055L195.251 139.585L190.381 137L185.452 139.585L186.414 134.055L182.446 130.207L187.917 129.366L190.321 124.316Z" fill="#49A6D6"/>
</g>
<g opacity="0.7">
<path opacity="0.7" d="M204.028 113.135C203.967 113.195 203.907 113.195 203.727 113.255C203.727 113.255 203.667 113.255 203.667 113.315C203.607 113.315 203.547 113.375 203.426 113.375C200.12 114.998 196.092 113.736 194.349 110.49C192.666 107.364 193.508 103.517 196.333 101.533C196.573 101.413 196.754 101.232 197.054 101.112C197.114 101.052 197.174 101.052 197.355 100.992C197.415 100.932 197.475 100.932 197.655 100.872C197.956 100.751 198.196 100.631 198.497 100.571C198.918 100.451 199.339 100.331 199.759 100.331C201.082 100.21 202.344 100.391 203.547 100.992C204.809 101.593 205.831 102.555 206.552 103.877C208.236 107.123 207.093 111.211 204.028 113.135Z" fill="url(#paint5_linear_3464_7292)"/>
<g opacity="0.7">
<path opacity="0.7" d="M200.48 113.556C198.196 113.556 196.032 112.293 194.95 110.31C194.108 108.807 193.928 107.123 194.409 105.5C194.83 103.877 195.972 102.555 197.415 101.713C198.376 101.172 199.398 100.872 200.42 100.872C202.705 100.872 204.869 102.134 205.951 104.118C206.792 105.621 206.973 107.304 206.492 108.927C206.071 110.55 204.929 111.872 203.486 112.714C202.524 113.255 201.502 113.556 200.48 113.556ZM200.36 101.292C199.398 101.292 198.376 101.533 197.475 102.014C196.092 102.735 195.13 103.998 194.649 105.56C194.228 107.123 194.349 108.686 195.19 110.069C196.212 111.993 198.196 113.195 200.36 113.195C201.322 113.195 202.344 112.955 203.246 112.474C204.628 111.752 205.59 110.49 206.071 108.927C206.492 107.364 206.372 105.801 205.53 104.418C204.628 102.495 202.584 101.292 200.36 101.292Z" fill="#49A6D6"/>
</g>
<path opacity="0.7" d="M200.361 102.615L201.743 105.44L204.869 105.861L202.645 108.085L203.186 111.211L200.361 109.708L197.595 111.211L198.136 108.085L195.912 105.861L199.038 105.44L200.361 102.615Z" fill="#49A6D6"/>
</g>
<g opacity="0.7">
<path opacity="0.7" d="M73.8806 87.1656C73.8205 87.2858 73.6402 87.4061 73.5801 87.5263C73.5801 87.5864 73.52 87.5864 73.52 87.6465C73.4598 87.7066 73.3997 87.7667 73.2795 87.887C69.3721 91.8545 62.8196 92.1551 58.6116 88.428C54.5239 84.8211 53.9227 78.8097 56.9885 74.4214C57.229 74.0607 57.5296 73.7601 57.8301 73.3994C57.8902 73.2792 58.0706 73.159 58.1307 73.0388C58.1908 72.9786 58.3712 72.7983 58.4313 72.7382C58.7318 72.4376 59.0925 72.137 59.4532 71.8365C59.9943 71.4758 60.5353 71.1151 61.1364 70.8145C63 69.9128 64.9837 69.6122 66.9675 69.8527C69.0114 70.0932 71.1154 70.9348 72.7986 72.4376C77.0066 76.345 77.4875 82.7773 73.8806 87.1656Z" fill="#CDE0FB"/>
<g opacity="0.7">
<path opacity="0.7" d="M65.7649 90.2314C63.4204 90.2314 61.076 89.3297 59.3326 87.7667C57.409 86.0835 56.2067 83.6789 56.0865 81.094C55.9663 78.5091 56.8079 75.9843 58.5512 74.0607C60.2344 72.137 62.6389 70.9347 65.2238 70.8145C67.8087 70.6943 70.3335 71.5359 72.2572 73.2792C74.1809 74.9624 75.3831 77.367 75.5034 79.9519C75.6236 82.5368 74.782 85.0616 73.0387 86.9852C71.3555 88.9089 68.9509 90.1112 66.366 90.2314C66.1256 90.1713 65.9452 90.2314 65.7649 90.2314ZM65.7649 71.4157C65.6446 71.4157 65.4042 71.4157 65.2238 71.4157C62.7592 71.5359 60.5349 72.6179 58.9118 74.4214C57.2888 76.2849 56.4472 78.5692 56.6275 81.0339C56.7477 83.4986 57.8298 85.7228 59.6332 87.3459C61.4968 88.969 63.7811 89.8106 66.2458 89.6303C68.7105 89.51 70.9347 88.428 72.5578 86.6246C74.1809 84.761 75.0225 82.4767 74.8421 80.012C74.7219 77.5473 73.6398 75.3231 71.8364 73.7C70.1532 72.1971 67.9891 71.4157 65.7649 71.4157Z" fill="#AFCDFB"/>
</g>
<path opacity="0.7" d="M63.4206 73.8202L66.9072 77.1265L71.6562 76.2248L69.4921 80.4929L71.7765 84.7008L67.0274 84.0396L63.7813 87.5863L62.9397 82.7772L58.4912 80.7934L62.7593 78.5091L63.4206 73.8202Z" fill="#AFCDFB"/>
</g>
<g clip-path="url(#clip1_3464_7292)">
<path opacity="0.2" d="M168.302 58.948H92.0348C89.0136 58.948 86.5645 61.3972 86.5645 64.4184V177.349C86.5645 180.37 89.0136 182.819 92.0348 182.819H168.302C171.323 182.819 173.772 180.37 173.772 177.349V64.4184C173.772 61.3972 171.323 58.948 168.302 58.948Z" fill="#CBCFD3"/>
<path d="M168.302 56.5614H92.0348C89.0136 56.5614 86.5645 59.0106 86.5645 62.0318V174.962C86.5645 177.984 89.0136 180.433 92.0348 180.433H168.302C171.323 180.433 173.772 177.984 173.772 174.962V62.0318C173.772 59.0106 171.323 56.5614 168.302 56.5614Z" fill="#CBCFD3"/>
<path d="M168.723 61.0339H91.6143V175.954H168.723V61.0339Z" fill="white"/>
<path d="M161.046 81.7072H114.223V85.5845H161.046V81.7072Z" fill="#CBCFD3"/>
<path d="M161.046 88.7526H114.223V92.6299H161.046V88.7526Z" fill="#CBCFD3"/>
<path d="M161.046 95.798H98.8877V99.6753H161.046V95.798Z" fill="#CBCFD3"/>
<path d="M114.259 61.0339C114.27 61.5559 114.485 62.0528 114.858 62.418C115.231 62.7833 115.732 62.9878 116.255 62.9876H144.087C144.609 62.9877 145.11 62.7831 145.482 62.4177C145.854 62.0523 146.068 61.5554 146.077 61.0339H114.259Z" fill="#CBCFD3"/>
<path d="M144.088 51.1933H134.469C134.491 50.6149 134.396 50.0381 134.189 49.4974C133.983 48.9567 133.67 48.4632 133.268 48.0463C132.866 47.6295 132.385 47.2979 131.852 47.0715C131.32 46.845 130.747 46.7283 130.168 46.7283C129.589 46.7283 129.017 46.845 128.484 47.0715C127.951 47.2979 127.47 47.6295 127.068 48.0463C126.667 48.4632 126.353 48.9567 126.147 49.4974C125.941 50.0381 125.845 50.6149 125.867 51.1933H116.249C115.719 51.1933 115.212 51.4035 114.837 51.7778C114.463 52.1521 114.253 52.6597 114.253 53.1891V59.9339C114.253 60.4632 114.463 60.9708 114.837 61.3451C115.212 61.7194 115.719 61.9297 116.249 61.9297H144.082C144.611 61.9297 145.119 61.7194 145.493 61.3451C145.867 60.9708 146.077 60.4632 146.077 59.9339V53.1891C146.077 52.6608 145.868 52.1541 145.495 51.7799C145.122 51.4058 144.616 51.1949 144.088 51.1933ZM130.171 52.8825C129.837 52.8825 129.51 52.7834 129.233 52.5978C128.955 52.4122 128.738 52.1484 128.611 51.8397C128.483 51.531 128.449 51.1914 128.514 50.8637C128.58 50.5361 128.74 50.2351 128.977 49.9988C129.213 49.7626 129.514 49.6017 129.842 49.5365C130.169 49.4713 130.509 49.5048 130.818 49.6326C131.126 49.7605 131.39 49.977 131.576 50.2548C131.761 50.5326 131.86 50.8592 131.86 51.1933C131.86 51.6413 131.682 52.0709 131.366 52.3877C131.049 52.7045 130.619 52.8825 130.171 52.8825Z" fill="#CBCFD3"/>
<path d="M114.259 58.1484V59.9519C114.259 60.4812 114.469 60.9888 114.843 61.3631C115.218 61.7374 115.725 61.9477 116.255 61.9477H144.087C144.617 61.9477 145.124 61.7374 145.499 61.3631C145.873 60.9888 146.083 60.4812 146.083 59.9519V58.1484H114.259Z" fill="#A3A8AF"/>
<path d="M110.73 81.7072H98.8877V92.6239H110.73V81.7072Z" stroke="#CBCFD3" stroke-width="4" stroke-miterlimit="10"/>
<path d="M161.046 106.186H114.223V110.063H161.046V106.186Z" fill="#CBCFD3"/>
<path d="M161.046 113.225H114.223V117.102H161.046V113.225Z" fill="#CBCFD3"/>
<path d="M161.046 120.271H98.8877V124.148H161.046V120.271Z" fill="#CBCFD3"/>
<path d="M126.534 150.851H98.8877V154.728H126.534V150.851Z" fill="#CBCFD3"/>
<path d="M114.024 157.65H98.8877V161.527H114.024V157.65Z" fill="#CBCFD3"/>
<path d="M161.16 150.851H133.514V154.728H161.16V150.851Z" fill="#CBCFD3"/>
<path d="M148.65 157.65H133.514V161.527H148.65V157.65Z" fill="#CBCFD3"/>
<path d="M110.73 106.186H98.8877V117.102H110.73V106.186Z" stroke="#CBCFD3" stroke-width="4" stroke-miterlimit="10"/>
<path d="M161.046 130.658H98.8877V134.469H161.046V130.658Z" fill="#CBCFD3"/>
<path d="M126.618 137.175H98.8877V148.091H126.618V137.175Z" fill="#CBCFD3"/>
<path d="M161.046 137.175H133.315V148.091H161.046V137.175Z" fill="#CBCFD3"/>
<path d="M111.765 82.0919L104.785 89.0712L101.143 85.4343" stroke="#B3B3B3" stroke-width="4" stroke-linecap="round" stroke-linejoin="round"/>
<path d="M111.765 106.186L104.785 113.165L101.143 109.522" stroke="#B3B3B3" stroke-width="4" stroke-linecap="round" stroke-linejoin="round"/>
</g>
</g>
<defs>
<linearGradient id="paint0_linear_3464_7292" x1="177.956" y1="132.518" x2="202.518" y2="132.518" gradientUnits="userSpaceOnUse">
<stop stop-color="#8FD8FC"/>
<stop offset="1" stop-color="#8FD8FC" stop-opacity="0"/>
</linearGradient>
<linearGradient id="paint1_linear_3464_7292" x1="193.456" y1="107.216" x2="207.321" y2="107.216" gradientUnits="userSpaceOnUse">
<stop stop-color="#8FD8FC"/>
<stop offset="1" stop-color="#8FD8FC" stop-opacity="0"/>
</linearGradient>
<linearGradient id="paint2_linear_3464_7292" x1="177.956" y1="132.518" x2="202.518" y2="132.518" gradientUnits="userSpaceOnUse">
<stop stop-color="#8FD8FC"/>
<stop offset="1" stop-color="#8FD8FC" stop-opacity="0"/>
</linearGradient>
<linearGradient id="paint3_linear_3464_7292" x1="193.456" y1="107.216" x2="207.321" y2="107.216" gradientUnits="userSpaceOnUse">
<stop stop-color="#8FD8FC"/>
<stop offset="1" stop-color="#8FD8FC" stop-opacity="0"/>
</linearGradient>
<linearGradient id="paint4_linear_3464_7292" x1="177.956" y1="132.518" x2="202.518" y2="132.518" gradientUnits="userSpaceOnUse">
<stop stop-color="#8FD8FC"/>
<stop offset="1" stop-color="#8FD8FC" stop-opacity="0"/>
</linearGradient>
<linearGradient id="paint5_linear_3464_7292" x1="193.456" y1="107.216" x2="207.321" y2="107.216" gradientUnits="userSpaceOnUse">
<stop stop-color="#8FD8FC"/>
<stop offset="1" stop-color="#8FD8FC" stop-opacity="0"/>
</linearGradient>
<clipPath id="clip0_3464_7292">
<rect width="274.482" height="200" fill="white"/>
</clipPath>
<clipPath id="clip1_3464_7292">
<rect width="87.2077" height="135.924" fill="white" transform="translate(86.5645 46.889)"/>
</clipPath>
</defs>
</svg>
