<svg width="80" height="80" viewBox="0 0 80 80" fill="none" xmlns="http://www.w3.org/2000/svg">
<circle cx="41.9277" cy="40.0725" r="33.0725" fill="#CFE2FF"/>
<circle cx="41.9277" cy="40.0725" r="33.0725" fill="#F3F8FF"/>
<path d="M63.1696 62.6609L44.5968 44.3085L40.9191 48.0303L59.4919 66.3828L63.1696 62.6609Z" fill="#A5C3FF"/>
<path opacity="0.9" d="M70.2649 67.5915L55.8152 53.3133C55.7347 53.2338 55.6051 53.2345 55.5256 53.315L50.0565 58.8498C49.977 58.9302 49.9778 59.0599 50.0582 59.1394L64.5079 73.4176C64.5884 73.4971 64.718 73.4964 64.7975 73.4159L70.2667 67.8811C70.3462 67.8007 70.3454 67.671 70.2649 67.5915Z" fill="#5072F1"/>
<path opacity="0.9" d="M28.1358 53.538C40.9133 53.538 51.2716 43.1797 51.2716 30.4022C51.2716 17.6246 40.9133 7.26636 28.1358 7.26636C15.3582 7.26636 5 17.6246 5 30.4022C5 43.1797 15.3582 53.538 28.1358 53.538Z" fill="#5072F1"/>
<path d="M28.1357 49.7622C38.8283 49.7622 47.4964 41.0941 47.4964 30.4014C47.4964 19.7088 38.8283 11.0406 28.1357 11.0406C17.443 11.0406 8.77491 19.7088 8.77491 30.4014C8.77491 41.0941 17.443 49.7622 28.1357 49.7622Z" fill="#F8FCFF"/>
<path opacity="0.9" d="M36.4114 34.9351L31.8905 30.4142L36.3724 25.9322C37.3078 24.9969 37.3078 23.4379 36.3724 22.5025L36.0996 22.2297C35.1643 21.2944 33.6053 21.2944 32.67 22.2297L28.188 26.7117L23.706 22.2297C22.7707 21.2944 21.2117 21.2944 20.2763 22.2297L20.0035 22.5025C19.0682 23.4379 19.0682 24.9969 20.0035 25.9322L24.4855 30.4142L19.9646 34.8962C19.0292 35.8315 19.0292 37.3905 19.9646 38.3258L20.2374 38.5987C21.1727 39.534 22.7317 39.534 23.6671 38.5987L28.149 34.1167L32.631 38.5987C33.5663 39.534 35.1253 39.534 36.0607 38.5987L36.3335 38.3258C37.3468 37.3905 37.3468 35.8705 36.4114 34.9351Z" fill="#FF9F1C"/>
<path opacity="0.9" d="M62.5841 32.2796L64.5768 33.2959L62.5841 34.3123L61.4952 36.172L60.4062 34.3123L58.4136 33.2959L60.4062 32.2796L61.4952 30.4198L62.5841 32.2796Z" fill="url(#paint0_linear_3865_25292)"/>
<path opacity="0.9" d="M63.6494 15.7368L64.5768 16.2447L63.6494 16.7554L63.1387 17.6828L62.6308 16.7554L61.7006 16.2447L62.6308 15.7368L63.1387 14.8066L63.6494 15.7368Z" fill="#FF9F1C"/>
<defs>
<linearGradient id="paint0_linear_3865_25292" x1="58.4136" y1="33.2959" x2="64.5768" y2="33.2959" gradientUnits="userSpaceOnUse">
<stop stop-color="#5278FF"/>
<stop offset="1" stop-color="#30B8FC"/>
</linearGradient>
</defs>
</svg>
