<svg width="180" height="181" viewBox="0 0 180 181" fill="none" xmlns="http://www.w3.org/2000/svg">
  <g clip-path="url(#clip0_291_6986)">
    <path
      d="M90.4175 180.484C140.122 180.484 180.415 140.19 180.415 90.486C180.415 40.7817 140.122 0.488403 90.4175 0.488403C40.7132 0.488403 0.419922 40.7817 0.419922 90.486C0.419922 140.19 40.7132 180.484 90.4175 180.484Z"
      fill="url(#paint0_linear_291_6986)"
    />
    <path
      d="M33.4784 63.9905L36.8058 65.8116L33.4784 67.6326L31.6573 70.9648L29.8315 67.6326L26.5041 65.8116L29.8315 63.9905L31.6573 60.6584L33.4784 63.9905Z"
      fill="url(#paint1_linear_291_6986)"
    />
    <path
      d="M90.1299 26.2879L91.7126 27.1555L90.1299 28.0183L89.2671 29.5962L88.4043 28.0183L86.8264 27.1555L88.4043 26.2879L89.2671 24.71L90.1299 26.2879Z"
      fill="url(#paint2_linear_291_6986)"
    />
    <path
      d="M69.2653 40.5796L42.3027 66.5315V166.678H137.439V54.0084C137.438 50.4465 136.022 47.0308 133.503 44.5125C130.984 41.9943 127.568 40.5796 124.006 40.5796H69.2653Z"
      fill="url(#paint3_linear_291_6986)"
    />
    <path
      opacity="0.77"
      d="M69.2653 40.7893L92.8051 85.8906L74.9953 91.225L42.3027 66.5315L69.2653 40.7893Z"
      fill="url(#paint4_linear_291_6986)"
    />
    <path d="M44.6386 66.5315H69.2653V40.7893V40.5796L42.3027 66.5315H44.6386Z" fill="white" />
    <path
      d="M120.169 141.074L122.862 142.542L120.169 144.015L118.701 146.704L117.228 144.015L114.539 142.542L117.228 141.074L118.701 138.385L120.169 141.074Z"
      fill="url(#paint5_linear_291_6986)"
    />
    <path
      d="M148.15 63.9905L151.482 65.8115L148.15 67.6326L146.329 70.9647L144.508 67.6326L141.176 65.8115L144.508 63.9905L146.329 60.6583L148.15 63.9905Z"
      fill="url(#paint6_linear_291_6986)"
    />
    <path
      d="M48.7004 98.6901C48.6581 98.6888 48.616 98.6961 48.5766 98.7117C48.5373 98.7273 48.5015 98.7508 48.4716 98.7807C48.4417 98.8106 48.4182 98.8464 48.4026 98.8857C48.387 98.9251 48.3797 98.9672 48.381 99.0095V99.7531C48.3901 99.8319 48.4274 99.9047 48.4859 99.9581C48.5451 100.01 48.6214 100.039 48.7004 100.039C48.7794 100.039 48.8557 100.01 48.9149 99.9581C48.9753 99.9061 49.013 99.8325 49.0198 99.7531V99.0095C49.0292 98.9687 49.0292 98.9263 49.0198 98.8855C49.005 98.8464 48.9823 98.8107 48.9531 98.7807C48.9213 98.7513 48.884 98.7286 48.8434 98.7139C48.7989 98.6929 48.7494 98.6847 48.7004 98.6901Z"
      fill="#49A6D6"
    />
    <path
      d="M47.8555 97.9226H47.1356C47.0568 97.933 46.9845 97.9715 46.9319 98.0311C46.8793 98.0907 46.8501 98.1673 46.8496 98.2468C46.8504 98.3256 46.8791 98.4016 46.9306 98.4613C46.9841 98.5198 47.0569 98.557 47.1356 98.5662H47.8745C47.9204 98.5729 47.9669 98.5729 48.0128 98.5662C48.0556 98.5516 48.095 98.5284 48.1286 98.4981C48.1622 98.4677 48.1893 98.4309 48.2082 98.3898C48.2267 98.3477 48.2365 98.3023 48.2368 98.2563C48.237 98.2103 48.2273 98.1647 48.2082 98.1228C48.1914 98.0798 48.1634 98.0419 48.1272 98.0132C48.0933 97.9824 48.0533 97.9592 48.0097 97.9452C47.9661 97.9312 47.92 97.9268 47.8745 97.9321L47.8555 97.9226Z"
      fill="#49A6D6"
    />
    <path
      d="M48.6991 96.3828C48.6567 96.3834 48.6147 96.3914 48.5751 96.4067C48.5357 96.4231 48.5 96.4475 48.4703 96.4782C48.4412 96.5064 48.4184 96.5406 48.4035 96.5783C48.3941 96.6191 48.3941 96.6615 48.4035 96.7022V97.4459C48.4126 97.5246 48.4499 97.5974 48.5084 97.6509C48.5676 97.7032 48.6439 97.732 48.7229 97.732C48.8019 97.732 48.8782 97.7032 48.9374 97.6509C48.9978 97.5989 49.0355 97.5253 49.0423 97.4459V96.7022C49.0517 96.6615 49.0517 96.6191 49.0423 96.5783C49.0275 96.5391 49.0048 96.5034 48.9756 96.4734C48.9438 96.4441 48.9066 96.4214 48.8659 96.4067C48.813 96.3854 48.7558 96.3772 48.6991 96.3828Z"
      fill="#49A6D6"
    />
    <path
      d="M50.2768 97.8702H49.5189C49.4401 97.8793 49.3673 97.9166 49.3139 97.9751C49.2613 98.0351 49.2322 98.1122 49.2322 98.192C49.2322 98.2718 49.2613 98.3489 49.3139 98.4089C49.3673 98.4674 49.4401 98.5046 49.5189 98.5138H50.2578C50.3033 98.5234 50.3504 98.5234 50.396 98.5138C50.439 98.5011 50.4783 98.4782 50.5104 98.447C50.5466 98.4183 50.5746 98.3804 50.5915 98.3374C50.611 98.2956 50.6207 98.25 50.6201 98.2039C50.6202 98.1594 50.6104 98.1154 50.5915 98.0752C50.5746 98.0321 50.5466 97.9943 50.5104 97.9655C50.4783 97.9344 50.439 97.9115 50.396 97.8988C50.3584 97.882 50.318 97.8723 50.2768 97.8702Z"
      fill="#49A6D6"
    />
    <path
      d="M136.9 122.368C134.493 117.029 129.673 106.022 134.04 101.541C133.251 101.616 132.481 101.824 131.761 102.156C124.572 105.402 130.193 118.269 132.862 124.175C137.763 135.035 142.525 141.704 148.57 138.977C149.231 138.685 149.829 138.269 150.334 137.752C145.338 138.119 141.176 131.836 136.9 122.368Z"
      fill="#FFC55F"
    />
    <path
      d="M25.5411 85.1851L60.3837 91.859L57.4757 106.99L33.8882 102.456L30.3034 111.561C34.241 109.368 38.1166 109.559 42.2211 110.346C52.6276 112.348 59.3206 121.196 56.9085 133.738C53.5715 151.08 40.5145 154.479 28.1201 152.091C16.2453 149.808 9.7144 142.19 8.85156 130.034L25.3266 131.264C25.2932 131.44 25.3933 131.74 25.3599 131.917C25.6555 135.387 28.3966 137.756 31.3236 138.319C36.0287 139.225 39.8137 136.174 40.7004 131.545C41.6919 126.382 40.2809 122.058 35.4566 121.124C33.0731 120.647 30.0746 120.828 28.306 123.346L13.2897 119.813L25.5411 85.1851Z"
      fill="#FFC55F"
    />
    <g opacity="0.25">
      <path
        opacity="0.25"
        d="M60.4419 91.8303L50.1879 99.4147L31.2149 96.0777L23.7401 115.728L30.2663 111.633L33.9512 102.404L57.5339 106.942L60.4419 91.8303Z"
        fill="black"
      />
    </g>
    <path
      d="M129.334 88.8746C142.43 82.9635 155.672 89.0177 164.391 108.334C171.881 124.928 172.848 141.78 156.535 149.145C140.222 156.51 128.233 144.821 120.706 128.132C111.124 106.732 117.817 94.0708 129.334 88.8746ZM149.928 115.961C147.168 109.85 142.391 98.4946 135.017 101.817C128.295 104.854 133.553 116.886 136.046 122.411C140.632 132.57 145.104 138.8 150.739 136.236C156.02 133.852 154.314 125.681 149.919 115.942L149.928 115.961Z"
      fill="#FFC55F"
    />
    <g opacity="0.25">
      <path
        opacity="0.25"
        d="M129.335 88.8747C128.697 89.1654 128.077 89.4801 127.467 89.8281C139.933 85.3041 152.332 91.6634 160.627 110.05C167.82 125.991 168.998 142.171 154.62 149.946C155.249 149.712 155.888 149.469 156.527 149.164C172.84 141.799 171.872 124.947 164.383 108.353C155.674 89.0177 142.431 82.9587 129.335 88.8747Z"
        fill="black"
      />
    </g>
    <path
      d="M89.7062 95.0147C104.055 95.7774 113.036 107.233 111.906 128.384C110.953 146.566 104.065 162.006 86.1928 161.029C68.3211 160.052 63.0344 144.201 64.0021 125.929C65.3321 102.504 77.0877 94.3425 89.7062 95.0147ZM95.5458 128.522C95.9034 121.849 96.8711 109.545 88.8004 109.116C81.4305 108.725 80.5725 121.83 80.2531 127.888C79.6619 139.015 80.7298 146.599 86.927 146.933C92.7428 147.238 94.9786 139.21 95.5458 128.522Z"
      fill="#FFC55F"
    />
    <g opacity="0.25">
      <path
        opacity="0.25"
        d="M89.9065 95.0244C89.2057 94.9863 88.5097 94.9815 87.809 94.9958C100.961 96.7024 109.051 108.024 107.978 128.198C107.049 145.66 100.666 160.557 84.3242 160.877C84.9916 160.963 85.6781 161.025 86.3884 161.063C104.26 162.016 111.134 146.595 112.102 128.418C113.237 107.242 104.255 95.7872 89.9065 95.0244Z"
        fill="black"
      />
    </g>
    <path
      d="M75.4761 69.1581C75.2647 68.9394 75.1465 68.6471 75.1465 68.3429C75.1465 68.0387 75.2647 67.7464 75.4761 67.5277C75.5829 67.4202 75.7099 67.3349 75.8498 67.2766C75.9897 67.2184 76.1397 67.1884 76.2913 67.1884C76.4428 67.1884 76.5929 67.2184 76.7328 67.2766C76.8727 67.3349 76.9997 67.4202 77.1064 67.5277L83.3036 73.7249C83.4112 73.8317 83.4965 73.9587 83.5547 74.0986C83.613 74.2385 83.643 74.3886 83.643 74.5401C83.643 74.6916 83.613 74.8417 83.5547 74.9816C83.4965 75.1215 83.4112 75.2485 83.3036 75.3553C83.0838 75.5645 82.792 75.6813 82.4885 75.6813C82.185 75.6813 81.8931 75.5645 81.6733 75.3553L75.4761 69.1581Z"
      fill="url(#paint7_linear_291_6986)"
    />
    <path
      d="M83.2999 69.1581C83.5092 68.9383 83.6259 68.6464 83.6259 68.3429C83.6259 68.0394 83.5092 67.7476 83.2999 67.5277C83.1931 67.4202 83.0661 67.3349 82.9262 67.2766C82.7863 67.2184 82.6363 67.1884 82.4847 67.1884C82.3332 67.1884 82.1832 67.2184 82.0433 67.2766C81.9033 67.3349 81.7763 67.4202 81.6696 67.5277L75.4724 73.7249C75.3643 73.8314 75.2784 73.9583 75.2198 74.0982C75.1612 74.2382 75.1311 74.3884 75.1311 74.5401C75.1311 74.6918 75.1612 74.842 75.2198 74.982C75.2784 75.1219 75.3643 75.2488 75.4724 75.3553C75.6922 75.5645 75.984 75.6813 76.2875 75.6813C76.591 75.6813 76.8829 75.5645 77.1027 75.3553L83.2999 69.1581Z"
      fill="url(#paint8_linear_291_6986)"
    />
    <path
      d="M102.316 69.1581C102.107 68.9383 101.99 68.6464 101.99 68.343C101.99 68.0395 102.107 67.7476 102.316 67.5278C102.423 67.4203 102.55 67.3349 102.69 67.2767C102.83 67.2185 102.98 67.1885 103.131 67.1885C103.283 67.1885 103.433 67.2185 103.573 67.2767C103.713 67.3349 103.84 67.4203 103.947 67.5278L110.144 73.725C110.251 73.8318 110.337 73.9588 110.395 74.0987C110.453 74.2386 110.483 74.3886 110.483 74.5402C110.483 74.6917 110.453 74.8417 110.395 74.9816C110.337 75.1215 110.251 75.2485 110.144 75.3553C109.924 75.5646 109.632 75.6813 109.329 75.6813C109.025 75.6813 108.733 75.5646 108.513 75.3553L102.316 69.1581Z"
      fill="url(#paint9_linear_291_6986)"
    />
    <path
      d="M110.101 69.1581C110.312 68.9394 110.43 68.6471 110.43 68.343C110.43 68.0388 110.312 67.7465 110.101 67.5278C109.994 67.4203 109.867 67.3349 109.727 67.2767C109.587 67.2185 109.437 67.1885 109.285 67.1885C109.134 67.1885 108.984 67.2185 108.844 67.2767C108.704 67.3349 108.577 67.4203 108.47 67.5278L102.316 73.6868C102.208 73.7936 102.123 73.9206 102.065 74.0605C102.007 74.2004 101.977 74.3505 101.977 74.502C101.977 74.6536 102.007 74.8036 102.065 74.9435C102.123 75.0834 102.208 75.2104 102.316 75.3172C102.536 75.5264 102.828 75.6432 103.131 75.6432C103.435 75.6432 103.726 75.5264 103.946 75.3172L110.101 69.1581Z"
      fill="url(#paint10_linear_291_6986)"
    />
    <path
      d="M97.1911 83.7882C97.4984 83.7882 97.793 83.6662 98.0103 83.4489C98.2275 83.2317 98.3495 82.9371 98.3495 82.6298C98.3495 82.3226 98.2275 82.028 98.0103 81.8107C97.793 81.5935 97.4984 81.4714 97.1911 81.4714H88.4436C88.1363 81.4714 87.8417 81.5935 87.6244 81.8107C87.4072 82.028 87.2852 82.3226 87.2852 82.6298C87.2852 82.9371 87.4072 83.2317 87.6244 83.4489C87.8417 83.6662 88.1363 83.7882 88.4436 83.7882H97.1911Z"
      fill="url(#paint11_linear_291_6986)"
    />
    <path
      d="M91.8289 198.327C137.839 198.327 175.138 184.855 175.138 168.237C175.138 151.619 137.839 138.147 91.8289 138.147C45.8184 138.147 8.51953 151.619 8.51953 168.237C8.51953 184.855 45.8184 198.327 91.8289 198.327Z"
      fill="url(#paint12_linear_291_6986)"
    />
  </g>
  <defs>
    <linearGradient
      id="paint0_linear_291_6986"
      x1="86.5805"
      y1="162.265"
      x2="97.38"
      y2="-17.7251"
      gradientUnits="userSpaceOnUse"
    >
      <stop stop-color="#FEFEFD" />
      <stop offset="1" stop-color="#EBF3FF" />
    </linearGradient>
    <linearGradient
      id="paint1_linear_291_6986"
      x1="26.4994"
      y1="65.8116"
      x2="36.8105"
      y2="65.8116"
      gradientUnits="userSpaceOnUse"
    >
      <stop stop-color="#FF8E00" />
      <stop offset="1" stop-color="#FFCF01" />
    </linearGradient>
    <linearGradient
      id="paint2_linear_291_6986"
      x1="86.8264"
      y1="27.1555"
      x2="91.7126"
      y2="27.1555"
      gradientUnits="userSpaceOnUse"
    >
      <stop stop-color="#5278FF" />
      <stop offset="1" stop-color="#30B8FC" />
    </linearGradient>
    <linearGradient
      id="paint3_linear_291_6986"
      x1="94.3592"
      y1="126.887"
      x2="53.5101"
      y2="-31.4795"
      gradientUnits="userSpaceOnUse"
    >
      <stop stop-color="#FEFEFD" />
      <stop offset="1" stop-color="#C1D3FD" />
    </linearGradient>
    <linearGradient
      id="paint4_linear_291_6986"
      x1="14.7204"
      y1="17.1732"
      x2="99.0977"
      y2="91.0629"
      gradientUnits="userSpaceOnUse"
    >
      <stop stop-color="#7AA3FF" />
      <stop offset="1" stop-color="#E4ECFE" stop-opacity="0" />
    </linearGradient>
    <linearGradient
      id="paint5_linear_291_6986"
      x1="2107.06"
      y1="2617.23"
      x2="2252.3"
      y2="2617.23"
      gradientUnits="userSpaceOnUse"
    >
      <stop stop-color="#5278FF" />
      <stop offset="1" stop-color="#30B8FC" />
    </linearGradient>
    <linearGradient
      id="paint6_linear_291_6986"
      x1="3184.36"
      y1="1472.95"
      x2="3407.18"
      y2="1472.95"
      gradientUnits="userSpaceOnUse"
    >
      <stop stop-color="#5278FF" />
      <stop offset="1" stop-color="#30B8FC" />
    </linearGradient>
    <linearGradient
      id="paint7_linear_291_6986"
      x1="130.326"
      y1="21.8305"
      x2="-21.6102"
      y2="169.796"
      gradientUnits="userSpaceOnUse"
    >
      <stop stop-color="#8BB4F2" />
      <stop offset="1" stop-color="white" />
    </linearGradient>
    <linearGradient
      id="paint8_linear_291_6986"
      x1="2390.06"
      y1="447.412"
      x2="-316.792"
      y2="3084.14"
      gradientUnits="userSpaceOnUse"
    >
      <stop stop-color="#8BB4F2" />
      <stop offset="1" stop-color="white" />
    </linearGradient>
    <linearGradient
      id="paint9_linear_291_6986"
      x1="2649.07"
      y1="686.4"
      x2="-57.677"
      y2="3322.49"
      gradientUnits="userSpaceOnUse"
    >
      <stop stop-color="#8BB4F2" />
      <stop offset="1" stop-color="white" />
    </linearGradient>
    <linearGradient
      id="paint10_linear_291_6986"
      x1="2637.04"
      y1="683.282"
      x2="-57.6275"
      y2="3307.27"
      gradientUnits="userSpaceOnUse"
    >
      <stop stop-color="#8BB4F2" />
      <stop offset="1" stop-color="white" />
    </linearGradient>
    <linearGradient
      id="paint11_linear_291_6986"
      x1="3383.92"
      y1="245.709"
      x2="3080.31"
      y2="1657.77"
      gradientUnits="userSpaceOnUse"
    >
      <stop stop-color="#8BB4F2" />
      <stop offset="1" stop-color="white" />
    </linearGradient>
    <linearGradient
      id="paint12_linear_291_6986"
      x1="91.8289"
      y1="151.257"
      x2="91.8289"
      y2="141.184"
      gradientUnits="userSpaceOnUse"
    >
      <stop stop-color="#FEFEFD" />
      <stop offset="0.84" stop-color="#EBF3FF" />
    </linearGradient>
    <clipPath id="clip0_291_6986">
      <rect width="180" height="180" fill="white" transform="translate(0 0.5)" />
    </clipPath>
  </defs>
</svg>
