<svg width="180" height="181" viewBox="0 0 180 181" fill="none" xmlns="http://www.w3.org/2000/svg">
  <g clip-path="url(#clip0_1124_7564)">
    <path
      d="M90.0484 180.484C139.753 180.484 180.046 140.19 180.046 90.486C180.046 40.7817 139.753 0.488403 90.0484 0.488403C40.3441 0.488403 0.0507812 40.7817 0.0507812 90.486C0.0507812 140.19 40.3441 180.484 90.0484 180.484Z"
      fill="url(#paint0_linear_1124_7564)"
    />
    <path
      d="M33.1109 63.9906L36.4384 65.8117L33.1109 67.6327L31.2899 70.9649L29.4641 67.6327L26.1367 65.8117L29.4641 63.9906L31.2899 60.6584L33.1109 63.9906Z"
      fill="url(#paint1_linear_1124_7564)"
    />
    <path
      d="M89.7626 26.2879L91.3452 27.1555L89.7626 28.0183L88.8997 29.5962L88.0369 28.0183L86.459 27.1555L88.0369 26.2879L88.8997 24.71L89.7626 26.2879Z"
      fill="url(#paint2_linear_1124_7564)"
    />
    <path
      d="M68.8942 40.5796L41.9316 66.5315V166.678H137.068V54.0084C137.067 50.4465 135.651 47.0308 133.132 44.5125C130.613 41.9943 127.197 40.5796 123.635 40.5796H68.8942Z"
      fill="url(#paint3_linear_1124_7564)"
    />
    <path
      opacity="0.77"
      d="M68.9626 41.0085L92.5024 86.1098L74.6926 91.4442L42 66.7508L68.9626 41.0085Z"
      fill="url(#paint4_linear_1124_7564)"
    />
    <path d="M44.2675 66.5315H68.8942V40.7893V40.5796L41.9316 66.5315H44.2675Z" fill="white" />
    <path
      d="M119.798 141.075L122.491 142.543L119.798 144.016L118.33 146.704L116.857 144.016L114.168 142.543L116.857 141.075L118.33 138.386L119.798 141.075Z"
      fill="url(#paint5_linear_1124_7564)"
    />
    <path
      d="M147.781 63.9906L151.113 65.8117L147.781 67.6327L145.96 70.9649L144.139 67.6327L140.807 65.8117L144.139 63.9906L145.96 60.6584L147.781 63.9906Z"
      fill="url(#paint6_linear_1124_7564)"
    />
    <path
      d="M157.362 130.105L156.862 118.073L150.016 118.364L148.286 77.3673L132.707 78.0252V78.1634L122.353 96.531L107.604 122.664L108.943 132.136L123.649 131.512L129.003 131.288L134.967 131.035L135.543 145.336L151.122 144.678L150.517 130.377L157.362 130.105ZM132.626 119.113L129.094 119.26L122.324 119.551L132.655 99.9442L133.546 98.3234L134.418 119.032L132.626 119.113Z"
      fill="#FFC55F"
    />
    <g opacity="0.25">
      <path
        opacity="0.25"
        d="M150.499 130.396L151.1 144.697L143.22 138.185L144.088 82.0054L133.529 98.3279L128.113 107.748L122.316 96.5497L132.69 78.1917V78.0535L148.268 77.4004L149.999 118.397L156.844 118.106L157.364 130.105L150.499 130.396Z"
        fill="black"
      />
    </g>
    <path
      d="M105.88 120.766L105.575 109.178C105.365 100.622 103.274 94.0485 99.3013 89.4562C95.3287 84.8639 89.8148 82.6536 82.7595 82.8252C75.7138 82.9968 70.319 85.4598 66.5753 90.2142C62.8316 94.9685 61.0662 101.642 61.2791 110.236L61.5603 121.853C61.7701 130.383 63.8644 136.943 67.8433 141.532C69.472 143.428 71.4704 144.972 73.7164 146.07C76.7705 147.561 80.3426 148.256 84.4328 148.158C86.4235 148.125 88.4037 147.862 90.3344 147.376C94.3908 146.39 97.9966 144.066 100.569 140.779C104.304 136.021 106.074 129.35 105.88 120.766ZM89.6336 133.461C89.1378 134.483 88.3589 135.34 87.3895 135.932C86.4201 136.524 85.3012 136.824 84.1658 136.798C81.5725 136.858 79.6546 135.806 78.412 133.642C77.5571 132.161 76.9739 130.083 76.6624 127.407C76.5147 126.163 76.4193 124.795 76.3859 123.293L75.9855 107.051C75.9664 102.799 76.5099 99.6117 77.6159 97.4887C78.7218 95.3658 80.5317 94.2662 83.0456 94.1899C83.9069 94.1299 84.771 94.2574 85.5783 94.5635C86.3857 94.8697 87.1171 95.3472 87.7221 95.9633C88.1438 96.4052 88.506 96.9004 88.7994 97.4363C90.0484 99.6609 90.7285 103.06 90.8397 107.633L91.2211 123.364C91.3005 127.928 90.7634 131.294 89.6098 133.461H89.6336Z"
      fill="#FFC55F"
    />
    <path
      d="M54.1927 81.1237L39.2432 78.6925V78.8212L6.5744 116.233L5.97852 125.519L10.6932 126.287L18.8925 127.627L29.9092 129.4L30.958 129.572L30.2048 134.157L29.8568 136.274L28.727 143.282L38.4614 144.864L43.7052 145.713L45.9361 132.031L52.4861 133.099L54.3643 121.563L47.7953 120.495L54.1927 81.1237ZM35.7203 100.311L32.8315 118.049L29.1894 117.454L21.2093 116.157L25.576 110.851L26.5723 109.655L34.8956 99.5437L36.0731 98.1851L35.7203 100.311Z"
      fill="#FFC55F"
    />
    <g opacity="0.25">
      <path
        opacity="0.25"
        d="M47.7933 120.485L54.3623 121.572L52.4889 133.089L45.9103 132.016L43.6793 145.731L38.4355 144.883L47.1212 87.6398L54.1955 81.1232L47.7933 120.485Z"
        fill="black"
      />
    </g>
    <path
      d="M49.2617 95.5723C49.1863 95.5733 49.1143 95.6042 49.0615 95.6581C49.0355 95.6845 49.0149 95.7157 49.001 95.7501C48.9871 95.7845 48.9801 95.8212 48.9805 95.8583V96.5162C48.9907 96.5843 49.0245 96.6466 49.0758 96.6925C49.1285 96.739 49.1963 96.7644 49.2665 96.764C49.3374 96.7636 49.4055 96.7363 49.4572 96.6878C49.4832 96.6658 49.5046 96.6389 49.5201 96.6086C49.5357 96.5784 49.5451 96.5453 49.5478 96.5114V95.8535C49.555 95.8173 49.555 95.7801 49.5478 95.7439C49.5344 95.7093 49.5132 95.6783 49.4858 95.6533C49.46 95.6269 49.4292 95.6058 49.3952 95.5913C49.3526 95.5754 49.3071 95.5689 49.2617 95.5723Z"
      fill="#49A6D6"
    />
    <path
      d="M48.5173 94.9099H47.8594C47.7909 94.9189 47.7281 94.9529 47.683 95.0053C47.6366 95.0579 47.6112 95.1258 47.6115 95.1959C47.6101 95.2661 47.6354 95.3343 47.6823 95.3865C47.7292 95.4387 47.7942 95.4712 47.8642 95.4772H48.522C48.5919 95.468 48.6561 95.4342 48.7032 95.3818C48.7468 95.3279 48.7704 95.2605 48.7699 95.1912C48.771 95.1223 48.7454 95.0557 48.6984 95.0053C48.6513 94.9529 48.5871 94.9191 48.5173 94.9099Z"
      fill="#49A6D6"
    />
    <path
      d="M91.4598 198.327C137.47 198.327 174.769 184.855 174.769 168.237C174.769 151.619 137.47 138.147 91.4598 138.147C45.4493 138.147 8.15039 151.619 8.15039 168.237C8.15039 184.855 45.4493 198.327 91.4598 198.327Z"
      fill="url(#paint7_linear_1124_7564)"
    />
    <path
      opacity="0.21"
      d="M107.867 120.838C111.722 116.974 114.346 112.054 115.407 106.7C116.467 101.346 115.917 95.797 113.825 90.7552C111.734 85.7135 108.195 81.4048 103.655 78.3735C99.1161 75.3422 93.7802 73.7244 88.3219 73.7244C82.8635 73.7244 77.5276 75.3422 72.9883 78.3735C68.449 81.4048 64.91 85.7135 62.8184 90.7552C60.7269 95.797 60.1766 101.346 61.2371 106.7C62.2976 112.054 64.9214 116.974 68.7768 120.838C71.3386 123.413 74.3842 125.457 77.7384 126.852C81.0926 128.246 84.6893 128.964 88.3219 128.964C91.9544 128.964 95.5511 128.246 98.9053 126.852C102.26 125.457 105.305 123.413 107.867 120.838Z"
      fill="white"
    />
    <path
      d="M88.3268 129.795C81.7273 129.8 75.3303 127.516 70.2262 123.332C65.1222 119.149 61.6269 113.325 60.3361 106.852C59.0453 100.38 60.0388 93.6609 63.1475 87.8394C66.2561 82.0178 71.2874 77.4544 77.3838 74.927C83.4802 72.3996 90.2644 72.0645 96.5802 73.979C102.896 75.8934 108.352 79.9388 112.02 85.4257C115.687 90.9127 117.338 97.5015 116.691 104.069C116.044 110.637 113.14 116.777 108.472 121.443C103.127 126.784 95.8827 129.787 88.3268 129.795ZM88.3268 74.6117C82.1358 74.6106 76.136 76.7564 71.3498 80.6834C66.5636 84.6103 63.2873 90.0754 62.0791 96.1474C60.8708 102.219 61.8055 108.522 64.7239 113.982C67.6422 119.442 72.3636 123.722 78.0835 126.091C83.8033 128.459 90.1676 128.772 96.0919 126.974C102.016 125.176 107.134 121.38 110.572 116.232C114.011 111.084 115.558 104.902 114.95 98.7413C114.342 92.5802 111.617 86.8206 107.238 82.444C102.22 77.4314 95.4191 74.6145 88.3268 74.6117Z"
      fill="#4C65BA"
    />
    <path
      d="M113.722 121.095C113.765 121.056 113.809 121.02 113.856 120.986C118.887 114.49 121.258 106.322 120.486 98.1415C119.714 89.961 115.857 82.381 109.699 76.9406C103.542 71.5003 95.5441 68.6075 87.3308 68.8496C79.1176 69.0918 71.3044 72.4508 65.4778 78.2445C59.6512 84.0381 56.2481 91.8322 55.9594 100.044C55.6708 108.256 58.5183 116.269 63.9237 122.458C69.3291 128.646 76.8872 132.546 85.0631 133.364C93.2391 134.182 101.42 131.858 107.945 126.864L111.672 123.141L113.722 121.095ZM88.3281 128.918C81.9388 128.918 75.7472 126.703 70.8079 122.65C65.8686 118.597 62.4871 112.957 61.2395 106.691C59.992 100.425 60.9554 93.9197 63.9658 88.2841C66.9762 82.6485 71.8472 78.2308 77.7493 75.7836C83.6513 73.3364 90.2192 73.0111 96.3342 74.8631C102.449 76.715 107.733 80.6297 111.286 85.9402C114.838 91.2508 116.44 97.6287 115.817 103.988C115.195 110.347 112.388 116.293 107.873 120.814C102.691 126.002 95.6606 128.919 88.3281 128.923V128.918Z"
      fill="#3E479B"
    />
    <path
      d="M88.3256 133.967C81.8766 133.955 75.5756 132.033 70.2189 128.442C64.8621 124.851 60.6899 119.753 58.2293 113.792C55.7688 107.83 55.1304 101.274 56.3948 94.9499C57.6592 88.626 60.7696 82.8188 65.333 78.262C69.8965 73.7052 75.7082 70.6033 82.0339 69.3482C88.3596 68.093 94.9153 68.741 100.873 71.2102C106.83 73.6795 111.922 77.8591 115.506 83.2211C119.089 88.5832 121.002 94.8869 121.004 101.336C121.027 108.551 118.634 115.566 114.206 121.262L114.125 121.343L114.039 121.41L108.219 127.221C102.521 131.617 95.5218 133.991 88.3256 133.967ZM88.3256 69.5729C83.2788 69.5738 78.3049 70.7774 73.8159 73.0838C69.327 75.3902 65.4522 78.733 62.5127 82.8354C59.5732 86.9377 57.6535 91.6815 56.9127 96.6736C56.1719 101.666 56.6313 106.763 58.2529 111.542C59.8745 116.321 62.6116 120.645 66.2373 124.155C69.8631 127.666 74.2732 130.262 79.1022 131.728C83.9313 133.195 89.0402 133.49 94.0058 132.588C98.9715 131.686 103.651 129.615 107.656 126.544L113.415 120.795L113.539 120.685C117.832 115.151 120.154 108.341 120.136 101.336C120.119 92.909 116.76 84.833 110.797 78.8787C104.834 72.9245 96.7525 69.5779 88.3256 69.5729ZM88.3256 129.362C81.8287 129.365 75.5318 127.114 70.5081 122.995C65.4844 118.875 62.0448 113.141 60.7756 106.769C59.5063 100.397 60.486 93.7825 63.5475 88.0521C66.6091 82.3218 71.5631 77.8305 77.5652 75.3437C83.5673 72.8569 90.2461 72.5285 96.4632 74.4144C102.68 76.3003 108.051 80.2839 111.66 85.6862C115.269 91.0885 116.893 97.5752 116.255 104.041C115.617 110.506 112.757 116.55 108.161 121.143C102.897 126.399 95.7641 129.353 88.3256 129.357V129.362ZM88.3256 74.1826C82.0308 74.1816 75.9304 76.3635 71.064 80.3564C66.1977 84.3494 62.8666 89.9063 61.6384 96.0801C60.4102 102.254 61.3609 108.663 64.3285 114.214C67.2961 119.765 72.0969 124.116 77.9128 126.524C83.7287 128.933 90.1998 129.25 96.2233 127.421C102.247 125.593 107.45 121.732 110.946 116.497C114.442 111.263 116.014 104.978 115.395 98.7132C114.776 92.4489 112.004 86.5931 107.551 82.1436C102.449 77.0489 95.5357 74.1845 88.3256 74.1779V74.1826Z"
      fill="#3E479B"
    />
    <path
      d="M112.925 126.134L111.671 124.909C111.556 124.795 111.465 124.659 111.404 124.509C111.342 124.357 111.311 124.195 111.313 124.032C111.311 123.871 111.342 123.711 111.403 123.561C111.465 123.412 111.556 123.277 111.671 123.164L107.943 126.887L107.886 126.949C107.771 127.064 107.68 127.2 107.619 127.35C107.555 127.501 107.523 127.663 107.523 127.827C107.526 128.152 107.656 128.463 107.886 128.694L109.402 130.21C110.449 128.747 111.628 127.382 112.925 126.134Z"
      fill="#4C65BA"
    />
    <path
      d="M111.672 123.145C111.502 123.318 111.386 123.537 111.338 123.775C111.291 124.013 111.314 124.26 111.405 124.485C111.466 124.635 111.557 124.771 111.672 124.885L112.926 126.134C114.159 124.834 115.495 123.635 116.921 122.549L115.491 121.119C115.28 120.909 115.001 120.782 114.704 120.762C114.408 120.744 114.116 120.831 113.879 121.01C113.833 121.044 113.788 121.08 113.746 121.119L111.672 123.145Z"
      fill="#4C65BA"
    />
    <path
      opacity="0.43"
      d="M111.672 123.145C111.502 123.318 111.386 123.537 111.338 123.775C111.291 124.013 111.314 124.26 111.405 124.485C111.466 124.635 111.557 124.771 111.672 124.885L112.926 126.134C114.159 124.834 115.495 123.635 116.921 122.549L115.491 121.119C115.28 120.909 115.001 120.782 114.704 120.762C114.408 120.744 114.116 120.831 113.879 121.01C113.833 121.044 113.788 121.08 113.746 121.119L111.672 123.145Z"
      fill="#3E479B"
    />
    <path
      d="M138.678 143.162L117.607 122.277C117.526 122.196 117.278 122.306 116.921 122.554C115.498 123.643 114.162 124.841 112.926 126.139C111.631 127.384 110.448 128.74 109.389 130.191C109.227 130.463 109.165 130.668 109.236 130.734L130.307 151.614C131.129 152.449 132.182 153.019 133.331 153.249C134.48 153.479 135.672 153.36 136.752 152.906C137.467 152.607 138.116 152.167 138.659 151.614C139.775 150.491 140.401 148.971 140.401 147.388C140.401 145.805 139.775 144.285 138.659 143.162H138.678Z"
      fill="url(#paint8_linear_1124_7564)"
    />
    <path
      opacity="0.14"
      d="M138.675 143.162L117.604 122.278C117.299 121.973 114.711 124.289 112.489 126.568C110.582 128.518 136.372 153.926 138.675 151.595C139.786 150.472 140.41 148.956 140.41 147.376C140.41 145.796 139.786 144.28 138.675 143.157V143.162Z"
      fill="#3E479B"
    />
  </g>
  <defs>
    <linearGradient
      id="paint0_linear_1124_7564"
      x1="86.1745"
      y1="162.242"
      x2="96.9739"
      y2="-17.7486"
      gradientUnits="userSpaceOnUse"
    >
      <stop stop-color="#FEFEFD" />
      <stop offset="1" stop-color="#EBF3FF" />
    </linearGradient>
    <linearGradient
      id="paint1_linear_1124_7564"
      x1="26.132"
      y1="65.8117"
      x2="36.4431"
      y2="65.8117"
      gradientUnits="userSpaceOnUse"
    >
      <stop stop-color="#FF8E00" />
      <stop offset="1" stop-color="#FFCF01" />
    </linearGradient>
    <linearGradient
      id="paint2_linear_1124_7564"
      x1="86.459"
      y1="27.1555"
      x2="91.3452"
      y2="27.1555"
      gradientUnits="userSpaceOnUse"
    >
      <stop stop-color="#5278FF" />
      <stop offset="1" stop-color="#30B8FC" />
    </linearGradient>
    <linearGradient
      id="paint3_linear_1124_7564"
      x1="93.9881"
      y1="126.887"
      x2="53.139"
      y2="-31.4795"
      gradientUnits="userSpaceOnUse"
    >
      <stop stop-color="#FEFEFD" />
      <stop offset="1" stop-color="#C1D3FD" />
    </linearGradient>
    <linearGradient
      id="paint4_linear_1124_7564"
      x1="14.4177"
      y1="17.3924"
      x2="98.795"
      y2="91.2821"
      gradientUnits="userSpaceOnUse"
    >
      <stop stop-color="#7AA3FF" />
      <stop offset="1" stop-color="#E4ECFE" stop-opacity="0" />
    </linearGradient>
    <linearGradient
      id="paint5_linear_1124_7564"
      x1="2106.69"
      y1="2617.23"
      x2="2251.93"
      y2="2617.23"
      gradientUnits="userSpaceOnUse"
    >
      <stop stop-color="#5278FF" />
      <stop offset="1" stop-color="#30B8FC" />
    </linearGradient>
    <linearGradient
      id="paint6_linear_1124_7564"
      x1="3183.99"
      y1="1472.95"
      x2="3406.81"
      y2="1472.95"
      gradientUnits="userSpaceOnUse"
    >
      <stop stop-color="#5278FF" />
      <stop offset="1" stop-color="#30B8FC" />
    </linearGradient>
    <linearGradient
      id="paint7_linear_1124_7564"
      x1="91.4598"
      y1="151.257"
      x2="91.4598"
      y2="141.184"
      gradientUnits="userSpaceOnUse"
    >
      <stop stop-color="#FEFEFD" />
      <stop offset="0.84" stop-color="#EBF3FF" />
    </linearGradient>
    <linearGradient
      id="paint8_linear_1124_7564"
      x1="9219.06"
      y1="6949.82"
      x2="8066.6"
      y2="9704.47"
      gradientUnits="userSpaceOnUse"
    >
      <stop stop-color="#5278FF" />
      <stop offset="1" stop-color="#30B8FC" />
    </linearGradient>
    <clipPath id="clip0_1124_7564">
      <rect width="180" height="180" fill="white" transform="translate(0 0.5)" />
    </clipPath>
  </defs>
</svg>
