<svg width="690" height="362" viewBox="0 0 690 362" fill="none" xmlns="http://www.w3.org/2000/svg">
<path d="M35.9087 240.67V343.999H75.9249V240.67H35.9087ZM67.0002 289.207H44.8334V254.228H67.0002V289.207Z" fill="#F2F9FF"/>
<path d="M506.469 240.67V343.999H546.485V240.67H506.469ZM649.983 240.67V343.999H690V240.67H649.983ZM537.56 289.207H515.393V254.228H537.56V289.207Z" fill="#F2F9FF"/>
<path d="M40.0062 344.001H31.5912C14.1416 344.001 0 329.863 0 312.418C0 294.974 14.1416 280.836 31.5912 280.836H40.0062V344.001Z" fill="#F2F9FF"/>
<path d="M586.492 280.836H546.485V344.001H586.492V280.836Z" fill="#F2F9FF"/>
<path d="M112.633 254.229H72.627V344.01H112.633V254.229Z" fill="#F2F9FF"/>
<path d="M171.748 247.645H131.742V344.01H171.748V247.645Z" fill="#F2F9FF"/>
<path d="M465.744 247.645H425.737V344.01H465.744V247.645Z" fill="#F2F9FF"/>
<path d="M653.761 247.645H613.755V344.01H653.761V247.645Z" fill="#F2F9FF"/>
<path d="M259.536 133.055H161.234V344H259.536V133.055Z" fill="#F2F9FF"/>
<path d="M438.769 173.629H340.468V344.01H438.769V173.629Z" fill="#F2F9FF"/>
<path d="M141.836 229.301H92.6348V344H141.836V229.301Z" fill="#F2F9FF"/>
<path d="M620.741 229.301H571.54V344H620.741V229.301Z" fill="#F2F9FF"/>
<path d="M508.967 229.301H459.767V344H508.967V229.301Z" fill="#F2F9FF"/>
<path d="M155.397 167.086C155.357 169.903 154.198 172.441 152.349 174.289C150.46 176.158 147.872 177.327 144.994 177.327H26.7139C20.9673 177.327 16.3101 172.681 16.3101 166.926C16.3101 164.048 17.4794 161.46 19.3582 159.572C21.2471 157.684 23.8356 156.525 26.7139 156.525H34.979C38.277 156.525 40.9554 153.847 40.9554 150.55C40.9554 147.253 38.277 144.575 34.979 144.575H31.8508C27.4734 144.575 23.6157 141.328 23.2659 136.972C23.056 134.434 24.0155 132.076 25.6645 130.438C27.1636 128.939 29.2424 128.01 31.531 128.01H105.537C110.114 128.01 113.832 131.717 113.832 136.283C113.832 138.571 112.903 140.639 111.404 142.147C109.904 143.646 107.826 144.575 105.537 144.575H102.869C99.5706 144.575 96.8922 147.253 96.8922 150.55C96.8922 153.847 99.5706 156.525 102.869 156.525H144.614C150.43 156.525 155.477 161.281 155.397 167.086Z" fill="#F2F9FF"/>
<path d="M668.773 149.411C668.743 151.639 667.824 153.647 666.355 155.116C664.865 156.594 662.817 157.524 660.538 157.524H566.964C562.416 157.524 558.729 153.847 558.729 149.291C558.729 147.013 559.648 144.965 561.147 143.476C562.636 141.987 564.685 141.058 566.964 141.058H573.51C576.118 141.058 578.237 138.94 578.237 136.332C578.237 133.724 576.118 131.606 573.51 131.606H571.041C567.583 131.606 564.525 129.039 564.245 125.592C564.085 123.583 564.835 121.715 566.144 120.426C567.333 119.237 568.972 118.508 570.781 118.508H629.337C632.954 118.508 635.893 121.445 635.893 125.052C635.893 126.861 635.163 128.499 633.974 129.688C632.784 130.877 631.146 131.606 629.337 131.606H627.228C624.619 131.606 622.501 133.724 622.501 136.332C622.501 138.94 624.619 141.058 627.228 141.058H660.258C664.845 141.058 668.843 144.815 668.773 149.411Z" fill="#F2F9FF"/>
<path d="M329.805 33.2319C329.865 35.6263 331.557 37.7921 334.254 39.3659C337.004 40.96 340.78 41.9554 344.982 41.9554H517.5C525.884 41.9554 532.683 38.0006 532.683 33.1041C532.683 30.6558 530.978 28.4497 528.228 26.8489C525.478 25.2482 521.702 24.2527 517.5 24.2527H505.434C500.619 24.2527 496.724 21.9793 496.724 19.1746C496.724 16.3699 500.626 14.0965 505.434 14.0965H509.995C516.375 14.0965 522.009 11.3322 522.521 7.62615C522.821 5.46039 521.429 3.46278 519.019 2.06378C516.821 0.779125 513.804 -0.0078125 510.462 -0.0078125H402.517C395.838 -0.0078125 390.424 3.14666 390.424 7.03427C390.424 8.98479 391.775 10.7403 393.966 12.0182C396.157 13.2961 399.18 14.0831 402.517 14.0831H406.406C411.22 14.0831 415.116 16.3564 415.116 19.1612C415.116 21.9659 411.214 24.2393 406.406 24.2393H345.514C337.037 24.246 329.679 28.2883 329.805 33.2319Z" fill="#F2F9FF"/>
<path d="M545.066 361.052H98.1598C93.3996 361.052 89.5488 357.205 89.5488 352.45C89.5488 347.694 93.3996 343.848 98.1598 343.848H545.066C549.826 343.848 553.677 347.694 553.677 352.45C553.677 357.205 549.815 361.052 545.066 361.052Z" fill="#99CFFF"/>
<path d="M502.067 257.85H221.16C207.452 257.85 196.338 246.747 196.338 233.053V45.7583C196.338 32.0757 207.452 20.9727 221.16 20.9727H502.067C515.775 20.9727 526.889 32.0757 526.889 45.7695V233.064C526.889 246.758 515.775 257.85 502.067 257.85Z" fill="#F5F5F5"/>
<path opacity="0.5" d="M526.889 56.9736H196.338V45.7695C196.338 32.0757 207.452 20.9727 221.16 20.9727H502.067C515.775 20.9727 526.889 32.0757 526.889 45.7695V56.9736Z" fill="#D6D6D6"/>
<path d="M471.574 44.412H276.037C273.028 44.412 270.592 41.9783 270.592 38.9726C270.592 35.9669 273.028 33.5332 276.037 33.5332H471.574C474.583 33.5332 477.019 35.9669 477.019 38.9726C477.019 41.9783 474.583 44.412 471.574 44.412Z" fill="#F5F5F5"/>
<path d="M220.071 38.9725C220.071 41.4286 218.084 43.4137 215.626 43.4137C213.167 43.4137 211.18 41.4286 211.18 38.9725C211.18 36.5163 213.167 34.5312 215.626 34.5312C218.084 34.5312 220.071 36.5163 220.071 38.9725Z" fill="#F5F5F5"/>
<path d="M236.676 38.9725C236.676 41.4286 234.689 43.4137 232.23 43.4137C229.771 43.4137 227.784 41.4286 227.784 38.9725C227.784 36.5163 229.771 34.5312 232.23 34.5312C234.689 34.5312 236.676 36.5163 236.676 38.9725Z" fill="#F5F5F5"/>
<path d="M253 38.9725C253 41.4286 251.013 43.4137 248.554 43.4137C246.096 43.4137 244.108 41.4286 244.108 38.9725C244.108 36.5163 246.096 34.5312 248.554 34.5312C251.013 34.5312 253 36.5163 253 38.9725Z" fill="#F5F5F5"/>
<path d="M393.246 97.0098L365.303 124.924L337.348 97.0098L320.485 113.855L348.44 141.77L320.485 169.696L337.348 186.541L365.303 158.626L393.246 186.541L410.109 169.696L382.166 141.77L410.109 113.855L393.246 97.0098Z" fill="#D6D6D6"/>
<path d="M473.281 343.848H358.812L367.85 214.492C368.389 206.776 375.091 200.518 382.815 200.518H469.307C477.031 200.518 482.858 206.776 482.319 214.492L473.281 343.848Z" fill="#0DB473"/>
<path d="M456.441 343.848H341.973L351.01 214.492C351.549 206.776 358.252 200.518 365.976 200.518H452.467C460.191 200.518 466.018 206.776 465.479 214.492L456.441 343.848Z" fill="#3FDA9E"/>
<path d="M410.052 200.517C414.329 204.487 416.002 208.267 416.709 211.138C418.146 217.003 416.922 224.865 416.911 224.933C419.123 227.557 421.93 231.079 424.961 235.419C424.961 235.419 431.719 245.131 436.48 255.214C442.419 267.775 452.04 288.13 447.549 309.798C444.103 326.397 432.359 343.859 432.359 343.859H367.232L375.215 200.506L410.052 200.517Z" fill="#1282D6"/>
<path d="M288.196 119.364C288.522 118.344 293.754 102.25 306.058 96.7655C311.952 94.1411 318.587 93.8944 318.587 93.8944C319.272 93.872 322.101 93.7823 325.93 94.4103C325.93 94.4103 334.743 95.4757 341.165 100.029C352.47 108.037 359.015 128.078 357.814 145.518C357.387 151.72 355.917 158.079 359.947 162.846C362.125 165.414 365.729 166.266 370.86 167.836C381.503 171.089 399.005 175.205 406.044 189.437C413.084 203.669 413.937 223.722 409.3 229.206C404.664 234.69 294.079 234.175 290.161 229.89C286.243 225.606 279.035 204.858 278.182 188.405C277.419 173.769 287.68 167.713 290.161 149.679C291.879 137.129 290.026 126.419 288.196 119.364Z" fill="#262626"/>
<path d="M351.279 117.771C353.401 121.899 356.444 128.561 358.655 137.185C362.158 150.812 359.396 152.976 362.607 158.225C369.736 169.877 385.218 162.756 400.015 176.057C408.323 183.515 411.197 192.7 412.162 195.942C416.372 210.006 412.443 222.073 410.781 226.425" stroke="#262626" stroke-miterlimit="10" stroke-linecap="round" stroke-linejoin="round"/>
<path d="M292.237 145.035C290.16 149.701 286.826 157.092 282.459 166.12C274.476 182.617 272.253 185.612 272.86 191.489C273.904 201.672 282.605 212.349 282.605 212.349" stroke="#262626" stroke-miterlimit="10" stroke-linecap="round" stroke-linejoin="round"/>
<path d="M309.157 180.801C309.157 180.801 337.538 180.801 337.662 180.801C360.205 180.801 384.893 196.917 399.712 212.663C411.568 225.258 420.246 240.567 426.836 256.56C435.414 277.386 443.811 306.243 433.325 327.799C431.765 331.018 428.206 338.072 420.684 341.885C412.399 346.08 403.743 343.579 401.06 343.579C383.557 343.579 228.413 343.624 228.413 343.624C224.271 303.361 232.253 273.035 238.024 256.481C243.379 241.105 249.655 223.744 266.012 207.258C281.673 191.466 298.94 184.188 309.157 180.801Z" fill="#FFCE6A"/>
<path d="M307.854 180.801L287.949 344.308L275.083 344.207L295.022 185.904L307.854 180.801Z" fill="#EAA418"/>
<path d="M323.358 192.835C331.34 192.868 337.84 186.419 337.874 178.445L337.998 147.368L309.089 147.256L308.965 178.333C308.92 186.319 315.364 192.812 323.358 192.835Z" fill="#F7A99C"/>
<path d="M308.988 169.642L327.815 159.975C327.624 161.601 326.558 169.227 319.833 174.498C315.544 177.863 311.042 178.626 308.954 178.85L308.988 169.642Z" fill="#FF7769"/>
<path d="M338.683 137.746C338.773 137.275 340.008 136.568 340.389 136.321C341.029 135.906 341.725 135.581 342.455 135.346C343.87 134.897 345.419 134.785 346.867 135.121C349.752 135.783 352.301 138.206 352.784 141.166C353.064 142.882 352.66 144.666 351.93 146.247C350.819 148.625 348.933 150.621 346.665 151.922C344.779 153.01 342.635 153.615 340.468 153.75C340.03 153.772 335.595 153.671 335.629 153.503C336.64 148.254 337.661 143.006 338.683 137.746Z" fill="#F7A99C"/>
<path d="M342.645 138.049C342.308 140.371 340.265 152.596 329.229 161.243C327.197 162.835 313.68 173.411 301.319 168.252C285.433 161.613 287.162 135.548 287.275 134.135C287.656 129.358 288.768 115.305 300.421 107.802C309.93 101.678 320.236 103.933 321.696 104.269C323.234 104.628 333.046 107.107 339.053 116.718C344.509 125.432 343.207 134.247 342.645 138.049Z" fill="#F7A99C"/>
<path d="M296.29 134.146C296.032 136.176 294.46 137.657 292.776 137.455C291.092 137.253 289.936 135.425 290.194 133.384C290.452 131.354 292.024 129.873 293.708 130.075C295.392 130.288 296.549 132.116 296.29 134.146Z" fill="#262626"/>
<path d="M314.658 136.445C314.399 138.475 312.828 139.955 311.144 139.754C309.46 139.54 308.303 137.724 308.561 135.682C308.82 133.652 310.391 132.172 312.075 132.374C313.748 132.598 314.905 134.415 314.658 136.445Z" fill="#262626"/>
<path d="M301.836 137.195L299.018 140.997C298.502 141.693 298.693 142.691 299.434 143.139L302.016 144.71" stroke="#262626" stroke-width="1.3478" stroke-miterlimit="10" stroke-linecap="round" stroke-linejoin="round"/>
<path d="M320.809 146.034C320.517 148.322 318.44 149.937 316.15 149.645C313.86 149.354 312.243 147.279 312.535 144.991C312.827 142.703 314.904 141.088 317.194 141.38C319.473 141.671 321.101 143.757 320.809 146.034Z" fill="#FF7769"/>
<path d="M340.625 148.187C340.614 147.727 340.569 144.632 343.061 142.389C345.015 140.639 347.283 140.516 347.9 140.516" stroke="#262626" stroke-width="1.3478" stroke-miterlimit="10" stroke-linecap="round" stroke-linejoin="round"/>
<path d="M342.825 143.006C342.96 142.984 344.633 142.748 345.8 144.015C346.755 145.047 346.676 146.337 346.654 146.55" stroke="#262626" stroke-width="1.3478" stroke-miterlimit="10" stroke-linecap="round" stroke-linejoin="round"/>
<path d="M289.442 139.45C288.656 139.349 287.893 139.495 287.208 139.797C287.287 142.04 287.5 144.743 287.994 147.626C288.129 147.659 288.252 147.704 288.398 147.715C290.688 148.007 292.765 146.381 293.057 144.104C293.349 141.816 291.721 139.73 289.442 139.45Z" fill="#FF7769"/>
<path d="M298.784 158.198C299.392 157.746 301.238 156.49 303.912 156.477C306.932 156.467 308.967 158.064 309.506 158.508" stroke="#262626" stroke-width="1.3478" stroke-miterlimit="10" stroke-linecap="round" stroke-linejoin="round"/>
<path d="M285.973 126.946H304.16C304.16 126.946 304.845 121.035 306.652 118.119C308.46 115.203 311.199 113.409 311.199 113.409C310.784 114.452 310.312 115.831 309.953 117.502C309.695 118.691 309.358 120.272 309.369 122.325C309.369 122.325 309.381 123.099 309.818 126.957H325.603C325.244 125.992 324.458 123.547 325.132 120.53C325.716 117.895 327.108 116.156 327.793 115.383C327.254 120.115 327.86 123.884 328.433 126.273C329.432 130.422 331.093 133.484 332.339 135.772C333.53 137.959 334.708 139.72 335.606 140.965C335.606 140.965 337.751 138.262 339.491 137.207C341.231 136.153 343.005 135.211 343.005 135.211C343.398 133.148 343.757 130.007 343.207 126.273C342.062 118.601 337.807 113.588 336.022 111.726C329.982 105.379 322.752 103.954 320.125 103.472C314.511 102.451 310.009 103.304 308.46 103.64C307.247 103.909 304.43 104.605 301.14 106.321C298.861 107.51 292.417 110.964 288.589 118.534C287.69 120.317 286.512 123.166 285.973 126.946Z" fill="#262626"/>
<path d="M305.306 182.158C305.306 182.158 287.691 254.239 285.636 278.419C283.582 302.587 282.807 344.308 282.807 344.308L228.402 343.613C227.29 335.807 226.302 325.186 226.684 312.625C227.582 283.241 235.441 261.394 238.528 253.476C245.803 234.847 254.583 212.338 277.396 195.874C287.949 188.248 298.21 184.3 305.306 182.158Z" fill="#66B8FF"/>
<path d="M269.414 227.67L246.758 343.849H260.32L269.414 227.67Z" fill="#33A0FF"/>
<path d="M273.365 206.922C272.119 213.909 270.177 225.595 268.436 240.186C266.303 258.063 266.629 262.348 263.126 308.038C262.071 321.732 260.319 343.849 260.319 343.849" stroke="#262626" stroke-miterlimit="10" stroke-linecap="round" stroke-linejoin="round"/>
<path d="M322.763 317.896C324.818 320.027 326.008 322.068 326.693 323.493C328.837 327.945 328.916 332.173 328.972 335.168C329.006 336.951 328.905 338.431 328.803 339.452C328.803 339.452 302.207 330.883 298.255 331.22C294.775 331.523 277.441 335.953 273.365 336.996C272.804 337.141 272.209 337.13 271.648 336.951L265.81 335.156L260.309 335.392C258.333 335.47 256.974 333.452 257.783 331.657C257.985 331.209 258.254 330.715 258.602 330.188C261.005 326.588 263.407 324.02 263.407 324.02L254.583 325.612C253.73 325.612 252.326 325.5 251.844 324.637C251.125 323.358 252.888 321.205 254.089 319.758C256.884 316.405 259.938 314.599 260.915 314.038C264.361 312.042 267.572 310.18 272.838 308.599C276.992 307.354 288.421 303.72 302.488 307.287C311.716 309.619 318.486 314.24 322.763 317.896Z" fill="#F7A99C"/>
<path d="M321.36 316.73C321.473 317.628 322.09 323.101 318.15 327.789C313.76 333.004 307.383 332.88 306.608 332.847L328.793 339.441C328.793 339.441 328.961 331.512 328.568 329.561C328.175 327.609 326.805 323.112 325.402 321.183C323.999 319.276 321.36 316.73 321.36 316.73Z" fill="#FF7769"/>
<path d="M265.81 335.168C268.358 332.376 272.77 328.249 279.293 324.996C285.445 321.923 291.059 320.847 294.73 320.432" stroke="#262626" stroke-miterlimit="10" stroke-linecap="round" stroke-linejoin="round"/>
<path d="M260.309 335.402C264.328 328.55 268.785 324.983 272.074 322.998C272.074 322.998 274.499 321.529 287.264 316.74" stroke="#262626" stroke-miterlimit="10" stroke-linecap="round" stroke-linejoin="round"/>
<path d="M263.015 324.098C266.248 319.332 269.627 317.111 272.086 315.967C276.442 313.937 283.066 312.883 283.066 312.883" stroke="#262626" stroke-miterlimit="10" stroke-linecap="round" stroke-linejoin="round"/>
<path d="M340.625 180.801C340.625 180.801 335.068 222.095 334.293 246.78C333.518 271.465 332.733 313.645 332.733 313.645L322.774 317.885C322.774 317.885 327.523 331.904 327.826 336.266C328.118 340.64 327.826 344.296 327.826 344.296C342.388 344.016 354.221 344.375 362.36 344.756C369.276 345.082 379.593 345.149 400.206 345.272C407.537 345.317 413.734 345.283 420.684 341.874C421.503 341.47 428.486 337.949 433.673 330.872C437.03 326.296 442.284 316.584 439.331 292.549C438.085 282.433 433.774 250.795 409.21 220.806C395.176 203.669 381.322 195.358 377.472 193.149C365.784 186.442 355.512 183.706 353.379 183.156C348.282 181.844 343.881 181.171 340.625 180.801Z" fill="#66B8FF"/>
<path d="M374.047 259.734C374.317 266.194 373.868 277.791 367.929 290.341C364.752 297.047 360.878 302.15 357.634 305.762C364.729 303.934 371.824 302.106 378.92 300.289L374.047 259.734Z" fill="#33A0FF"/>
<path d="M403.114 294.871C403.114 294.871 340.973 310.135 332.733 313.645C324.481 317.156 322.774 317.885 322.774 317.885" stroke="#262626" stroke-miterlimit="10" stroke-linecap="round" stroke-linejoin="round"/>
<path d="M407.919 230.586C407.919 230.586 438.467 288.019 429.373 311.504C427.981 315.093 424.905 322.865 417.226 328.506C410.018 333.8 402.249 334.63 388.867 334.989C377.169 335.303 361.597 335.235 343.039 333.789" stroke="white" stroke-miterlimit="10" stroke-linecap="round" stroke-linejoin="round"/>
<path d="M398.982 209.68C386.374 214.67 380.503 221.388 377.539 225.953C377.539 225.953 368.434 239.961 379.649 300.736" stroke="#262626" stroke-miterlimit="10" stroke-linecap="round" stroke-linejoin="round"/>
<path d="M325.604 345.284H242.211V335.303H329.904V340.978C329.915 343.366 327.984 345.284 325.604 345.284Z" fill="#374ACC"/>
<path d="M251.338 345.285H136.274C133.647 345.285 131.256 343.154 130.93 340.529L120.478 255.148C120.153 252.523 122.027 250.393 124.655 250.393H239.73C242.357 250.393 244.748 252.523 245.073 255.148L255.526 340.529C255.84 343.154 253.976 345.285 251.338 345.285Z" fill="#374ACC"/>
<path d="M244.602 345.285H129.538C126.911 345.285 124.52 343.154 124.194 340.529L113.742 255.148C113.416 252.523 115.291 250.393 117.918 250.393H232.993C235.62 250.393 238.012 252.523 238.337 255.148L248.789 340.529C249.104 343.154 247.24 345.285 244.602 345.285Z" fill="#4450E4"/>
<path d="M113.742 255.148C114.573 254.924 117.627 281.537 135.04 305.504C138.048 309.654 143.482 317.011 152.722 324.189C152.722 324.189 162.108 331.49 197.09 345.285C195.204 345.285 193.318 345.285 191.432 345.285C186.795 345.285 182.159 345.285 177.522 345.285C171.65 345.285 165.779 345.285 159.907 345.285C154.327 345.285 148.748 345.285 143.157 345.285C140.159 345.285 137.162 345.285 134.175 345.285C131.784 345.285 128.82 345.812 126.687 344.488C124.924 343.389 124.15 341.214 123.903 339.15C123.723 337.692 123.745 336.212 123.577 334.754C123.409 333.307 123.139 331.871 122.96 330.425C122.578 327.262 122.185 324.11 121.803 320.948C121.175 315.777 120.535 310.618 119.906 305.448C119.221 299.874 118.547 294.3 117.863 288.738C117.234 283.567 116.594 278.386 115.965 273.216C115.483 269.245 115.067 265.264 114.506 261.305C113.855 256.763 113.54 255.204 113.742 255.148Z" fill="#5D6FF4"/>
<path d="M117.919 250.393H232.994C235.621 250.393 238.012 252.523 238.338 255.148L248.79 340.529" stroke="#262626" stroke-miterlimit="10" stroke-linecap="round" stroke-linejoin="round"/>
<path d="M184.595 295.467C184.595 299.123 181.631 302.084 177.971 302.084C174.312 302.084 171.348 299.123 171.348 295.467C171.348 291.81 174.312 288.85 177.971 288.85C181.62 288.838 184.595 291.81 184.595 295.467Z" fill="#FEC02D"/>
<path d="M430.227 208.301H443.003C448.616 208.301 453.039 213.067 452.613 218.652L448.717 270.534" stroke="white" stroke-miterlimit="10" stroke-linecap="round" stroke-linejoin="round"/>
<path d="M211.584 267.881H78.7037C72.4903 267.881 67.4604 262.856 67.4604 256.65V168.049C67.4604 161.844 72.4903 156.818 78.7037 156.818H211.584C217.798 156.818 222.828 161.844 222.828 168.049V256.65C222.828 262.856 217.798 267.881 211.584 267.881Z" fill="white" stroke="#FFBE38"/>
<path opacity="0.5" d="M222.828 172.854H67.4604V168.049C67.4604 161.844 72.4903 156.818 78.7037 156.818H211.584C217.798 156.818 222.828 161.844 222.828 168.049V172.854Z" fill="#FFF7E7" stroke="#FFBE38"/>
<path d="M199.229 164.842L199.229 164.846C199.238 165.978 198.309 166.91 197.169 166.91H104.66C103.511 166.91 102.589 165.98 102.589 164.842C102.589 163.695 103.519 162.773 104.66 162.773H197.158C198.306 162.773 199.229 163.704 199.229 164.842Z" fill="white" stroke="#FFBE38"/>
<path d="M76.0877 163.244L76.0925 163.244C76.9668 163.236 77.6871 163.949 77.6871 164.841C77.6871 165.72 76.9684 166.439 76.0877 166.439C75.207 166.439 74.4883 165.72 74.4883 164.841C74.4883 163.963 75.207 163.244 76.0877 163.244Z" fill="white" stroke="#FFBE38"/>
<path d="M85.5465 164.841C85.5465 165.72 84.8278 166.439 83.9471 166.439C83.0664 166.439 82.3477 165.72 82.3477 164.841C82.3477 163.963 83.0664 163.244 83.9471 163.244C84.8295 163.244 85.5465 163.953 85.5465 164.841Z" fill="white" stroke="#FFBE38"/>
<path d="M91.659 163.244L91.6638 163.244C92.5476 163.236 93.2584 163.947 93.2584 164.841C93.2584 165.72 92.5397 166.439 91.659 166.439C90.7783 166.439 90.0596 165.72 90.0596 164.841C90.0596 163.963 90.7783 163.244 91.659 163.244Z" fill="white" stroke="#FFBE38"/>
<path d="M211.584 268.381H78.7037C72.2146 268.381 66.9604 263.132 66.9604 256.65V168.049C66.9604 161.567 72.2146 156.318 78.7037 156.318H211.584C218.074 156.318 223.328 161.567 223.328 168.049V256.65C223.328 263.132 218.074 268.381 211.584 268.381Z" stroke="#FFBE38" stroke-miterlimit="10" stroke-linecap="round" stroke-linejoin="round"/>
<path d="M266.383 95.4746L283.751 102.675" stroke="#FF7129" stroke-miterlimit="10" stroke-linecap="round" stroke-linejoin="round"/>
<path d="M265.642 76.4883L287.624 97.3374" stroke="#FF7129" stroke-miterlimit="10" stroke-linecap="round" stroke-linejoin="round"/>
<path d="M284.738 76.1738L292.822 93.1313" stroke="#FF7129" stroke-miterlimit="10" stroke-linecap="round" stroke-linejoin="round"/>
<path d="M523.219 343.848H487.394L485.014 305.75H525.599L523.219 343.848Z" fill="#FFCE6A"/>
<path d="M520.749 305.75H489.875V273.271C489.875 264.747 496.791 257.85 505.312 257.85C513.844 257.85 520.749 264.758 520.749 273.271V305.75Z" fill="#3FDA9E"/>
<mask id="mask0_2160_53616" style="mask-type:luminance" maskUnits="userSpaceOnUse" x="490" y="257" width="32" height="49">
<path d="M521.029 305.75H490.155V273.271C490.155 264.747 497.071 257.85 505.592 257.85C514.125 257.85 521.029 264.758 521.029 273.271V305.75Z" fill="white"/>
</mask>
<g mask="url(#mask0_2160_53616)">
<path d="M495.791 262.561C495.791 266.878 493.197 266.878 493.197 271.196C493.197 275.514 495.791 275.514 495.791 279.832C495.791 284.15 493.197 284.15 493.197 288.468C493.197 292.786 495.791 292.786 495.791 297.115C495.791 301.433 493.197 301.433 493.197 305.762" stroke="#262626" stroke-width="0.5" stroke-miterlimit="10" stroke-linecap="round" stroke-linejoin="round"/>
<path d="M502.583 258.5C502.583 263.222 499.742 263.222 499.742 267.943C499.742 272.665 502.583 272.665 502.583 277.398C502.583 282.119 499.742 282.119 499.742 286.841C499.742 291.563 502.583 291.563 502.583 296.295C502.583 301.017 499.742 301.017 499.742 305.75" stroke="#262626" stroke-width="0.5" stroke-miterlimit="10" stroke-linecap="round" stroke-linejoin="round"/>
<path d="M512.563 258.893C512.563 263.581 509.745 263.581 509.745 268.257C509.745 272.945 512.563 272.945 512.563 277.633C512.563 282.321 509.745 282.321 509.745 286.998C509.745 291.686 512.563 291.686 512.563 296.374C512.563 301.062 509.745 301.062 509.745 305.75" stroke="#262626" stroke-width="0.5" stroke-miterlimit="10" stroke-linecap="round" stroke-linejoin="round"/>
<path d="M519.547 264.545C519.547 268.661 517.077 268.661 517.077 272.788C517.077 276.904 519.547 276.904 519.547 281.031C519.547 285.147 517.077 285.147 517.077 289.275C517.077 293.402 519.547 293.402 519.547 297.518C519.547 301.645 517.077 301.645 517.077 305.761" stroke="#262626" stroke-width="0.5" stroke-miterlimit="10" stroke-linecap="round" stroke-linejoin="round"/>
</g>
<path d="M525.598 305.75L523.207 343.837H487.394C492.176 342.536 501.596 339.295 510.42 331.007C520.591 321.451 524.285 310.561 525.598 305.75Z" fill="#EAA418"/>
<path d="M523.555 311.807C522.107 315.418 519.648 320.386 515.517 325.523C511.385 330.648 507.052 334.114 503.841 336.301" stroke="#262626" stroke-width="0.5" stroke-miterlimit="10" stroke-linecap="round" stroke-linejoin="round"/>
<ellipse cx="143.415" cy="221.796" rx="34.4795" ry="33.9703" fill="#FFDF80"/>
</svg>
