<svg width="80" height="81" viewBox="0 0 80 81" fill="none" xmlns="http://www.w3.org/2000/svg">
<circle cx="37.6093" cy="41.8905" r="33.6093" fill="#CFE2FF"/>
<circle cx="37.6093" cy="41.8905" r="33.6093" fill="#F3F8FF"/>
<path opacity="0.9" d="M7.12589 43.6354L8.17216 44.2085L7.12589 44.7847L6.54964 45.831L5.97661 44.7847L4.92712 44.2085L5.97661 43.6354L6.54964 42.5859L7.12589 43.6354Z" fill="#FF9F1C"/>
<g clip-path="url(#clip0_10921_72289)">
<path d="M43.233 6.14031C43.233 5.79553 42.9498 5.5 42.5927 5.5H38.6523L36.6821 7.4702L34.7119 5.5H30.7715C30.4268 5.5 30.1312 5.78322 30.1312 6.14031V17.3212L33.9854 19.1067L43.2207 17.3212V6.14031H43.233Z" fill="#FFD15B"/>
<path d="M42.5927 5.5H41.3244V13.4916C41.3244 14.5506 40.4625 15.4126 39.4035 15.4126H30.1436V17.3212L33.9978 19.1067L43.2331 17.3212V6.14031C43.2331 5.78322 42.9375 5.5 42.5927 5.5Z" fill="#FFC344"/>
<path d="M36.6821 33.0829L50.4735 31.1127V17.9616C50.4735 17.6168 50.1903 17.3213 49.8332 17.3213H46.5331L44.5629 19.2915L42.5927 17.3213H38.6523L36.6821 33.0829Z" fill="#F6AB31"/>
<path d="M38.6523 33.0829L22.8907 31.1127V17.9616C22.8907 17.6168 23.174 17.3213 23.5311 17.3213H38.6523V33.0829Z" fill="#FEB237"/>
<path d="M15.01 64.6059L13.0398 66.5761L11.0696 64.6059V58.6953L13.0398 56.7251L15.01 58.6953V64.6059Z" fill="#AC5E2E"/>
<path d="M38.6524 64.6059L36.6822 66.5761L34.712 64.6059V58.6953L36.6822 56.7251L38.6524 58.6953V64.6059Z" fill="#AC5E2E"/>
<path d="M62.2948 64.6059L60.3246 66.5761L58.3544 64.6059V58.6953L60.3246 56.7251L62.2948 58.6953V64.6059Z" fill="#AC5E2E"/>
<path d="M63.6246 68.5465H9.73968C9.3949 68.5465 9.09937 68.2632 9.09937 67.9061V65.2341C9.09937 64.8893 9.38258 64.5938 9.73968 64.5938H63.6369C63.9817 64.5938 64.2772 64.877 64.2772 65.2341V67.9061C64.2649 68.2632 63.9817 68.5465 63.6246 68.5465Z" fill="#C86D36"/>
<path d="M56.3841 54.7552L32.7418 56.7254L34.712 31.1128H55.7438C56.0886 31.1128 56.3841 31.396 56.3841 31.7531V54.7552Z" fill="#FFC344"/>
<path d="M42.9129 21.2617H46.213C46.3854 21.2617 46.5332 21.1139 46.5332 20.9415V17.3213H42.5928V20.9415C42.5928 21.1139 42.7405 21.2617 42.9129 21.2617Z" fill="#FFF3BE"/>
<path d="M16.9802 54.7552L24.861 56.7254L34.712 54.7552V31.1128H28.8014L26.8312 33.083L22.8908 31.1128H17.6205C17.2757 31.1128 16.9802 31.396 16.9802 31.7531V54.7552Z" fill="#FFD15B"/>
<path d="M63.6246 58.6954H9.73968C9.3949 58.6954 9.09937 58.4122 9.09937 58.0551V55.383C9.09937 55.0382 9.38258 54.7427 9.73968 54.7427H63.6369C63.9817 54.7427 64.2772 55.0259 64.2772 55.383V58.0551C64.2649 58.4122 63.9817 58.6954 63.6246 58.6954Z" fill="#C86D36"/>
<path d="M28.4812 37.0234H23.2109C23.0385 37.0234 22.8907 36.8756 22.8907 36.7032V31.1128H28.8013V36.7032C28.8013 36.8756 28.6536 37.0234 28.4812 37.0234Z" fill="#FFF3BE"/>
<path d="M52.1236 50.8144H46.8533C46.6809 50.8144 46.5331 50.6667 46.5331 50.4943V47.1942C46.5331 47.0218 46.6809 46.874 46.8533 46.874H52.1236C52.296 46.874 52.4437 47.0218 52.4437 47.1942V50.4943C52.4437 50.6667 52.296 50.8144 52.1236 50.8144Z" fill="#EAF6FF"/>
<path d="M38.3322 9.4404H35.0321C34.8597 9.4404 34.712 9.29263 34.712 9.12024V5.5H38.6524V9.12024C38.6524 9.29263 38.5046 9.4404 38.3322 9.4404Z" fill="#FFF3BE"/>
<path d="M34.7119 28.1204H32.7417C32.2122 28.1204 31.7936 27.6895 31.7936 27.1723C31.7936 26.6551 32.2246 26.2241 32.7417 26.2241H34.7119C35.2414 26.2241 35.6601 26.6551 35.6601 27.1723C35.6601 27.6895 35.2414 28.1204 34.7119 28.1204Z" fill="#EAF6FF"/>
<path opacity="0.9" d="M65.2618 18.2604L67.51 19.4071L65.2618 20.5539L64.0332 22.6522L62.8045 20.5539L60.5563 19.4071L62.8045 18.2604L64.0332 16.1621L65.2618 18.2604Z" fill="url(#paint0_linear_10921_72289)"/>
</g>
<path d="M63.2279 41.6623C71.0115 42.753 77.0002 49.4234 77.0002 57.509C77.0002 66.3428 69.8299 73.5 61.0002 73.5C54.9213 73.5 49.627 70.1107 46.9303 65.1169C45.7037 62.8454 45.0002 60.2493 45.0002 57.491C45.0002 48.6572 52.1704 41.5 61.0002 41.5C61.7488 41.509 62.4883 41.5631 63.2279 41.6623Z" fill="#5072F1"/>
<path d="M61.0002 66.5C56.0361 66.5 52.0002 62.4641 52.0002 57.5C52.0002 56.8813 52.5064 56.375 53.1252 56.375C53.7439 56.375 54.2502 56.8813 54.2502 57.5C54.2502 61.2195 57.2807 64.25 61.0002 64.25C64.7197 64.25 67.7502 61.2195 67.7502 57.5C67.7502 53.7805 64.7197 50.75 61.0002 50.75C58.7924 50.75 56.7252 51.8328 55.4596 53.6398C55.108 54.1461 54.4049 54.2797 53.8916 53.9211C53.3853 53.5625 53.2588 52.8664 53.6103 52.3531C55.2978 49.9414 58.0611 48.5 61.0002 48.5C65.9642 48.5 70.0002 52.5359 70.0002 57.5C70.0002 62.4641 65.9642 66.5 61.0002 66.5Z" fill="white"/>
<path d="M61.8002 59.5H58.2002C57.5402 59.5 57.0002 58.96 57.0002 58.3C57.0002 57.64 57.5402 57.1 58.2002 57.1H60.6002V54.7C60.6002 54.04 61.1402 53.5 61.8002 53.5C62.4602 53.5 63.0002 54.04 63.0002 54.7V58.3C63.0002 58.96 62.4602 59.5 61.8002 59.5Z" fill="white"/>
<defs>
<linearGradient id="paint0_linear_10921_72289" x1="60.5563" y1="19.4071" x2="67.51" y2="19.4071" gradientUnits="userSpaceOnUse">
<stop stop-color="#5278FF"/>
<stop offset="1" stop-color="#30B8FC"/>
</linearGradient>
<clipPath id="clip0_10921_72289">
<rect width="63.0464" height="63.0464" fill="white" transform="translate(9.09937 5.5)"/>
</clipPath>
</defs>
</svg>
