<svg width="315" height="120" viewBox="0 0 315 120" fill="none" xmlns="http://www.w3.org/2000/svg">
<rect x="0.333984" width="314.667" height="120" rx="6" fill="#E6F4FF"/>
<g opacity="0.4" filter="url(#filter0_f_9772_38209)">
<path d="M189.707 40.5391H149.629C148.546 40.5391 147.668 41.2952 147.668 42.2287V79.8235L158.944 89.5391H189.707C190.79 89.5391 191.668 88.7829 191.668 87.8494V42.2287C191.668 41.2952 190.79 40.5391 189.707 40.5391Z" fill="#0B35CA"/>
</g>
<path fill-rule="evenodd" clip-rule="evenodd" d="M137.969 38.541H196.362C199.28 38.541 201.668 41.3801 201.668 44.8487V88.2331C201.668 91.7019 199.28 94.541 196.362 94.541H137.969C135.052 94.541 132.668 91.7019 132.668 88.2331V44.8487C132.668 41.3801 135.052 38.541 137.969 38.541Z" fill="white"/>
<path fill-rule="evenodd" clip-rule="evenodd" d="M138.969 30H197.362C200.28 30 202.668 33.2447 202.668 37.2088V86.791C202.668 90.7553 200.28 94 197.362 94H138.969C136.052 94 133.668 90.7553 133.668 86.791V37.2088C133.668 33.2447 136.052 30 138.969 30Z" fill="#F5FAFF"/>
<g filter="url(#filter1_i_9772_38209)">
<rect x="140.668" y="45" width="53" height="41" rx="2" fill="#E2EFFF"/>
</g>
<path d="M147.918 77.5C147.374 77.5 146.842 77.3387 146.39 77.0365C145.938 76.7344 145.585 76.3049 145.377 75.8024C145.169 75.2999 145.115 74.747 145.221 74.2135C145.327 73.6801 145.589 73.1901 145.973 72.8055C146.358 72.4209 146.848 72.159 147.381 72.0528C147.915 71.9467 148.468 72.0012 148.97 72.2093C149.473 72.4175 149.902 72.7699 150.205 73.2222C150.507 73.6744 150.668 74.2061 150.668 74.75C150.667 75.4791 150.377 76.178 149.862 76.6936C149.346 77.2091 148.647 77.4991 147.918 77.5ZM147.918 73.5714C147.685 73.5714 147.457 73.6406 147.263 73.7701C147.069 73.8996 146.918 74.0836 146.829 74.299C146.74 74.5143 146.717 74.7513 146.762 74.9799C146.808 75.2085 146.92 75.4186 147.085 75.5834C147.249 75.7482 147.459 75.8605 147.688 75.9059C147.917 75.9514 148.154 75.9281 148.369 75.8389C148.584 75.7497 148.768 75.5986 148.898 75.4048C149.027 75.211 149.097 74.9831 149.097 74.75C149.096 74.4375 148.972 74.138 148.751 73.917C148.53 73.6961 148.23 73.5718 147.918 73.5714Z" fill="#BFDBFE"/>
<path d="M161.276 73.964H153.419C153.21 73.964 153.01 73.8812 152.863 73.7339C152.716 73.5865 152.633 73.3867 152.633 73.1783C152.633 72.9699 152.716 72.7701 152.863 72.6227C153.01 72.4754 153.21 72.3926 153.419 72.3926H161.276C161.484 72.3926 161.684 72.4754 161.831 72.6227C161.979 72.7701 162.061 72.9699 162.061 73.1783C162.061 73.3867 161.979 73.5865 161.831 73.7339C161.684 73.8812 161.484 73.964 161.276 73.964Z" fill="#BFDBFE"/>
<path d="M157.347 77.1066H153.419C153.21 77.1066 153.01 77.0238 152.863 76.8765C152.716 76.7291 152.633 76.5293 152.633 76.3209C152.633 76.1125 152.716 75.9126 152.863 75.7653C153.01 75.6179 153.21 75.5352 153.419 75.5352H157.347C157.555 75.5352 157.755 75.6179 157.903 75.7653C158.05 75.9126 158.133 76.1125 158.133 76.3209C158.133 76.5293 158.05 76.7291 157.903 76.8765C157.755 77.0238 157.555 77.1066 157.347 77.1066Z" fill="#BFDBFE"/>
<path fill-rule="evenodd" clip-rule="evenodd" d="M136.776 52.4062C137.838 53.9258 139.088 55.3013 140.494 56.5037L130.381 66.4166L126.531 62.4484L136.776 52.4062Z" fill="#79ACF1"/>
<path fill-rule="evenodd" clip-rule="evenodd" d="M117.573 79.2869L113.229 74.8062C112.465 74.0206 112.484 72.752 113.269 71.9886L125.307 60.309C126.092 59.5456 127.361 59.5677 128.124 60.3533L132.469 64.8303C133.232 65.6159 133.214 66.8845 132.428 67.6479L120.39 79.3275C119.605 80.091 118.337 80.0725 117.573 79.2869Z" fill="#C8E0FE"/>
<g filter="url(#filter2_i_9772_38209)">
<path fill-rule="evenodd" clip-rule="evenodd" d="M152.198 19.459C140.095 19.459 130.281 29.2687 130.281 41.3762C130.281 53.4799 140.095 63.2932 152.198 63.2932C164.306 63.2932 174.115 53.4799 174.115 41.3762C174.115 29.2687 164.306 19.459 152.198 19.459Z" fill="url(#paint0_linear_9772_38209)"/>
</g>
<g filter="url(#filter3_i_9772_38209)">
<path fill-rule="evenodd" clip-rule="evenodd" d="M153.198 19.459C141.095 19.459 131.281 29.2687 131.281 41.3762C131.281 53.4799 141.095 63.2932 153.198 63.2932C165.306 63.2932 175.115 53.4799 175.115 41.3762C175.115 29.2687 165.306 19.459 153.198 19.459Z" fill="#BFDBFE"/>
</g>
<path fill-rule="evenodd" clip-rule="evenodd" d="M188.137 61.6291C188.137 61.4623 188.059 61.3024 187.921 61.1843C187.783 61.0663 187.596 61 187.401 61C186.454 61 184.819 61 183.872 61C183.677 61 183.49 61.0663 183.352 61.1843C183.214 61.3024 183.137 61.4623 183.137 61.6291V77.3709C183.137 77.5377 183.214 77.6978 183.352 77.8158C183.49 77.9338 183.677 78 183.872 78H187.401C187.596 78 187.783 77.9338 187.921 77.8158C188.059 77.6978 188.137 77.5377 188.137 77.3709C188.137 74.6984 188.137 64.3018 188.137 61.6291Z" fill="#3B82F6"/>
<path fill-rule="evenodd" clip-rule="evenodd" d="M180.137 65.6539C180.137 65.2927 179.807 65 179.401 65C178.225 65 177.049 65 175.872 65C175.466 65 175.137 65.2927 175.137 65.6539V77.3461C175.137 77.7073 175.466 78 175.872 78H179.401C179.807 78 180.137 77.7073 180.137 77.3461C180.137 73.2076 180.137 69.7924 180.137 65.6539Z" fill="#93C5FD"/>
<path fill-rule="evenodd" clip-rule="evenodd" d="M167.137 70.6131C167.137 70.2744 167.466 70 167.871 70H171.402C171.808 70 172.137 70.2744 172.137 70.6131V77.3869C172.137 77.7256 171.808 78 171.402 78H167.871C167.466 78 167.137 77.7256 167.137 77.3869V70.6131Z" fill="#BFDBFE"/>
<path fill-rule="evenodd" clip-rule="evenodd" d="M153.2 58.1694C162.45 58.1694 169.996 50.6255 169.996 41.3758C169.996 32.1259 162.45 24.5801 153.2 24.5801C143.95 24.5801 136.404 32.1259 136.404 41.3758C136.404 50.6255 143.95 58.1694 153.2 58.1694Z" fill="white"/>
<g filter="url(#filter4_i_9772_38209)">
<path fill-rule="evenodd" clip-rule="evenodd" d="M153.199 42.9941C147.149 42.9941 142.168 47.5782 141.537 53.4619C144.558 56.3759 148.669 58.169 153.199 58.169C154.015 58.169 154.818 58.1116 155.603 57.9985C159.174 57.4866 162.384 55.8503 164.859 53.4619C164.23 47.5763 159.249 42.9941 153.199 42.9941Z" fill="#6877FF"/>
</g>
<path fill-rule="evenodd" clip-rule="evenodd" d="M153.201 42.1083C156.468 42.1083 159.132 39.4442 159.132 36.1793C159.132 32.9122 156.468 30.25 153.201 30.25C149.936 30.25 147.271 32.9122 147.271 36.1793C147.271 39.4442 149.936 42.1083 153.201 42.1083Z" fill="#93C5FD"/>
<defs>
<filter id="filter0_f_9772_38209" x="117.668" y="10.5391" width="104" height="109" filterUnits="userSpaceOnUse" color-interpolation-filters="sRGB">
<feFlood flood-opacity="0" result="BackgroundImageFix"/>
<feBlend mode="normal" in="SourceGraphic" in2="BackgroundImageFix" result="shape"/>
<feGaussianBlur stdDeviation="15" result="effect1_foregroundBlur_9772_38209"/>
</filter>
<filter id="filter1_i_9772_38209" x="140.668" y="45" width="53" height="51" filterUnits="userSpaceOnUse" color-interpolation-filters="sRGB">
<feFlood flood-opacity="0" result="BackgroundImageFix"/>
<feBlend mode="normal" in="SourceGraphic" in2="BackgroundImageFix" result="shape"/>
<feColorMatrix in="SourceAlpha" type="matrix" values="0 0 0 0 0 0 0 0 0 0 0 0 0 0 0 0 0 0 127 0" result="hardAlpha"/>
<feOffset dy="10"/>
<feGaussianBlur stdDeviation="10"/>
<feComposite in2="hardAlpha" operator="arithmetic" k2="-1" k3="1"/>
<feColorMatrix type="matrix" values="0 0 0 0 1 0 0 0 0 1 0 0 0 0 1 0 0 0 0.25 0"/>
<feBlend mode="normal" in2="shape" result="effect1_innerShadow_9772_38209"/>
</filter>
<filter id="filter2_i_9772_38209" x="130.281" y="19.459" width="43.834" height="47.834" filterUnits="userSpaceOnUse" color-interpolation-filters="sRGB">
<feFlood flood-opacity="0" result="BackgroundImageFix"/>
<feBlend mode="normal" in="SourceGraphic" in2="BackgroundImageFix" result="shape"/>
<feColorMatrix in="SourceAlpha" type="matrix" values="0 0 0 0 0 0 0 0 0 0 0 0 0 0 0 0 0 0 127 0" result="hardAlpha"/>
<feOffset dy="4"/>
<feGaussianBlur stdDeviation="2"/>
<feComposite in2="hardAlpha" operator="arithmetic" k2="-1" k3="1"/>
<feColorMatrix type="matrix" values="0 0 0 0 1 0 0 0 0 1 0 0 0 0 1 0 0 0 0.25 0"/>
<feBlend mode="normal" in2="shape" result="effect1_innerShadow_9772_38209"/>
</filter>
<filter id="filter3_i_9772_38209" x="131.281" y="19.459" width="43.834" height="47.834" filterUnits="userSpaceOnUse" color-interpolation-filters="sRGB">
<feFlood flood-opacity="0" result="BackgroundImageFix"/>
<feBlend mode="normal" in="SourceGraphic" in2="BackgroundImageFix" result="shape"/>
<feColorMatrix in="SourceAlpha" type="matrix" values="0 0 0 0 0 0 0 0 0 0 0 0 0 0 0 0 0 0 127 0" result="hardAlpha"/>
<feOffset dy="4"/>
<feGaussianBlur stdDeviation="2"/>
<feComposite in2="hardAlpha" operator="arithmetic" k2="-1" k3="1"/>
<feColorMatrix type="matrix" values="0 0 0 0 1 0 0 0 0 1 0 0 0 0 1 0 0 0 0.25 0"/>
<feBlend mode="normal" in2="shape" result="effect1_innerShadow_9772_38209"/>
</filter>
<filter id="filter4_i_9772_38209" x="141.537" y="42.9941" width="23.3223" height="19.1758" filterUnits="userSpaceOnUse" color-interpolation-filters="sRGB">
<feFlood flood-opacity="0" result="BackgroundImageFix"/>
<feBlend mode="normal" in="SourceGraphic" in2="BackgroundImageFix" result="shape"/>
<feColorMatrix in="SourceAlpha" type="matrix" values="0 0 0 0 0 0 0 0 0 0 0 0 0 0 0 0 0 0 127 0" result="hardAlpha"/>
<feOffset dy="4"/>
<feGaussianBlur stdDeviation="2"/>
<feComposite in2="hardAlpha" operator="arithmetic" k2="-1" k3="1"/>
<feColorMatrix type="matrix" values="0 0 0 0 1 0 0 0 0 1 0 0 0 0 1 0 0 0 0.1 0"/>
<feBlend mode="normal" in2="shape" result="effect1_innerShadow_9772_38209"/>
</filter>
<linearGradient id="paint0_linear_9772_38209" x1="152.198" y1="19.459" x2="152.198" y2="63.2932" gradientUnits="userSpaceOnUse">
<stop stop-color="white"/>
<stop offset="1" stop-color="white" stop-opacity="0.01"/>
</linearGradient>
</defs>
</svg>
