<svg width="314" height="120" viewBox="0 0 314 120" fill="none" xmlns="http://www.w3.org/2000/svg">
<rect width="314" height="120" rx="6" fill="#E6F4FF"/>
<g filter="url(#filter0_f_9772_30930)">
<path d="M175.619 34H141.006C140.07 34 139.312 34.7407 139.312 35.6552V72.4828L149.051 82H175.619C176.555 82 177.312 81.2593 177.312 80.3448V35.6552C177.312 34.7407 176.555 34 175.619 34Z" fill="#0B33CA"/>
</g>
<path d="M121.688 28.5C121.688 24.634 124.822 21.5 128.688 21.5H183.688C187.553 21.5 190.688 24.634 190.688 28.5V85.5C190.688 89.366 187.553 92.5 183.688 92.5H126.687C123.926 92.5 121.688 90.2614 121.688 87.5V28.5Z" fill="white"/>
<path d="M122.312 87.4833C122.312 89.9784 124.333 91.9994 126.829 91.9994H187.796C190.292 91.9994 192.312 89.9784 192.312 87.4833V33.7188H122.312V87.4833Z" fill="#F5FAFF"/>
<path d="M187.796 22H126.829C124.333 22 122.312 24.021 122.312 26.5161V33.7194H192.312V26.5161C192.312 24.021 190.292 22 187.796 22Z" fill="white"/>
<path d="M129.086 40.4941H185.538V69.4087H129.086V40.4941Z" fill="#DBEAFE"/>
<path d="M130.647 29.9692C131.655 29.9692 132.473 29.1515 132.473 28.1428C132.473 27.1341 131.655 26.3164 130.647 26.3164C129.638 26.3164 128.82 27.1341 128.82 28.1428C128.82 29.1515 129.638 29.9692 130.647 29.9692Z" fill="#EE4747"/>
<path d="M137.221 29.9692C138.23 29.9692 139.047 29.1515 139.047 28.1428C139.047 27.1341 138.23 26.3164 137.221 26.3164C136.212 26.3164 135.395 27.1341 135.395 28.1428C135.395 29.1515 136.212 29.9692 137.221 29.9692Z" fill="#FFC824"/>
<path d="M143.797 29.9692C144.806 29.9692 145.623 29.1515 145.623 28.1428C145.623 27.1341 144.806 26.3164 143.797 26.3164C142.788 26.3164 141.971 27.1341 141.971 28.1428C141.971 29.1515 142.788 29.9692 143.797 29.9692Z" fill="#0FD186"/>
<path d="M142.053 79.5803H129.949C129.328 79.5803 128.82 79.0723 128.82 78.4513C128.82 77.8303 129.328 77.3223 129.949 77.3223H142.053C142.674 77.3223 143.182 77.8303 143.182 78.4513C143.182 79.0723 142.674 79.5803 142.053 79.5803Z" fill="#DBEAFE"/>
<path d="M137.164 84.096H129.949C129.328 84.096 128.82 83.5879 128.82 82.9669C128.82 82.346 129.328 81.8379 129.949 81.8379H137.164C137.785 81.8379 138.293 82.346 138.293 82.9669C138.293 83.5879 137.785 84.096 137.164 84.096Z" fill="#DBEAFE"/>
<path d="M182.617 79.5803H170.514C169.893 79.5803 169.385 79.0723 169.385 78.4513C169.385 77.8303 169.893 77.3223 170.514 77.3223H182.617C183.238 77.3223 183.746 77.8303 183.746 78.4513C183.746 79.0723 183.238 79.5803 182.617 79.5803Z" fill="#DBEAFE"/>
<path d="M177.728 84.096H170.514C169.893 84.096 169.385 83.5879 169.385 82.9669C169.385 82.346 169.893 81.8379 170.514 81.8379H177.728C178.349 81.8379 178.857 82.346 178.857 82.9669C178.857 83.5879 178.349 84.096 177.728 84.096Z" fill="#DBEAFE"/>
<path d="M171.347 69.408C167.034 66.1112 166.222 54.5273 160.509 54.5273C154.807 54.5273 153.983 66.1112 149.67 69.408H171.347Z" fill="#93C5FD"/>
<path d="M175.211 53.3464C177.027 53.3464 178.499 51.8746 178.499 50.059C178.499 48.2433 177.027 46.7715 175.211 46.7715C173.396 46.7715 171.924 48.2433 171.924 50.059C171.924 51.8746 173.396 53.3464 175.211 53.3464Z" fill="white"/>
<path d="M160.789 69.4084C154.478 64.5874 153.281 47.6406 144.938 47.6406C136.594 47.6406 135.397 64.5874 129.086 69.4084H160.789Z" fill="#BFDBFE"/>
<path d="M160.625 74.5332V77.6697C161.852 77.8411 162.819 78.8347 162.951 80.0815H166.08C165.936 77.1164 163.578 74.7241 160.625 74.5332Z" fill="#FDBA74"/>
<path d="M162.373 82.0692L164.582 84.2823C165.034 83.7835 165.389 83.2186 165.642 82.6108C165.868 82.0575 166.012 81.4691 166.063 80.8613H162.919C162.837 81.3016 162.65 81.7146 162.369 82.0653L162.373 82.0692Z" fill="#FB923C"/>
<path d="M160.239 83.1011C158.735 83.1011 157.512 81.8777 157.512 80.3698C157.512 78.9983 158.528 77.8567 159.845 77.6697V74.5332C156.802 74.7358 154.391 77.2762 154.391 80.3698C154.391 83.4634 157.013 86.222 160.239 86.222C161.642 86.222 162.966 85.7311 164.03 84.8232L161.813 82.6024C161.357 82.9258 160.812 83.1011 160.243 83.1011H160.239Z" fill="#8C69F3"/>
<defs>
<filter id="filter0_f_9772_30930" x="109.312" y="4" width="98" height="108" filterUnits="userSpaceOnUse" color-interpolation-filters="sRGB">
<feFlood flood-opacity="0" result="BackgroundImageFix"/>
<feBlend mode="normal" in="SourceGraphic" in2="BackgroundImageFix" result="shape"/>
<feGaussianBlur stdDeviation="15" result="effect1_foregroundBlur_9772_30930"/>
</filter>
</defs>
</svg>
