<svg width="316" height="120" viewBox="0 0 316 120" fill="none" xmlns="http://www.w3.org/2000/svg">
<rect x="0.666016" width="314.667" height="114" rx="6" fill="#E6F4FF"/>
<g filter="url(#filter0_f_9772_45620)">
<path d="M171.661 47H144.335C143.596 47 142.998 47.5864 142.998 48.3103V77.4655L150.686 85H171.661C172.4 85 172.998 84.4136 172.998 83.6897V48.3103C172.998 47.5864 172.4 47 171.661 47Z" fill="#0B33CA"/>
</g>
<path d="M183.371 21H132.629C131.258 21 130.146 22.111 130.146 23.4828V78.7241L144.422 93H183.371C184.742 93 185.853 91.889 185.853 90.5172V23.4828C185.853 22.111 184.742 21 183.371 21Z" fill="white"/>
<path d="M144.422 81.2074V93.0005L130.146 78.7246H141.94C143.311 78.7246 144.422 79.8356 144.422 81.2074Z" fill="#93C5FD"/>
<path d="M169.965 53.7498L164.666 49.4437C167.421 46.0593 167.237 41.1349 164.203 37.9594L169.138 33.2422C174.522 38.865 174.913 47.6703 169.965 53.7498Z" fill="#93C5FD"/>
<path d="M164.665 49.444L169.964 53.75C167.12 57.2476 162.782 59.4821 157.922 59.4821C149.351 59.4821 142.404 52.535 142.404 43.9648H149.232C149.232 48.7643 153.122 52.6545 157.922 52.6545C160.643 52.6545 163.073 51.4038 164.665 49.444Z" fill="#3B82F6"/>
<path d="M157.922 28.4492C162.332 28.4492 166.313 30.2896 169.137 33.244L164.203 37.9613C162.62 36.3071 160.392 35.2768 157.922 35.2768C153.122 35.2768 149.232 39.167 149.232 43.9665H142.404C142.404 35.3963 149.351 28.4492 157.922 28.4492Z" fill="#DBEAFE"/>
<path d="M162.111 74.8441V86.0165H154.818V74.8441C154.818 73.4724 155.929 72.3613 157.301 72.3613H159.629C161 72.3613 162.111 73.4724 162.111 74.8441Z" fill="#DDD6FE"/>
<path d="M176.697 77.6371V86.0164H169.404V77.6371C169.404 76.2653 170.515 75.1543 171.887 75.1543H174.215C175.586 75.1543 176.697 76.2653 176.697 77.6371Z" fill="#9F9DFF"/>
<g filter="url(#filter1_d_9772_45620)">
<path d="M169.404 86.0166H162.111V68.9476C162.111 67.5759 163.222 66.4648 164.594 66.4648H166.922C168.293 66.4648 169.404 67.5759 169.404 68.9476V86.0166Z" fill="#CAB8FF"/>
</g>
<path d="M146.905 65.0687H137.284C136.599 65.0687 136.043 64.5129 136.043 63.8273C136.043 63.1418 136.599 62.5859 137.284 62.5859H146.905C147.591 62.5859 148.146 63.1418 148.146 63.8273C148.146 64.5129 147.591 65.0687 146.905 65.0687Z" fill="#93C5FD"/>
<path d="M143.957 71.8968H137.284C136.599 71.8968 136.043 71.341 136.043 70.6554C136.043 69.9699 136.599 69.4141 137.284 69.4141H143.957C144.642 69.4141 145.198 69.9699 145.198 70.6554C145.198 71.341 144.642 71.8968 143.957 71.8968Z" fill="#93C5FD"/>
<defs>
<filter id="filter0_f_9772_45620" x="112.998" y="17" width="90" height="98" filterUnits="userSpaceOnUse" color-interpolation-filters="sRGB">
<feFlood flood-opacity="0" result="BackgroundImageFix"/>
<feBlend mode="normal" in="SourceGraphic" in2="BackgroundImageFix" result="shape"/>
<feGaussianBlur stdDeviation="15" result="effect1_foregroundBlur_9772_45620"/>
</filter>
<filter id="filter1_d_9772_45620" x="132.111" y="56.4648" width="67.293" height="79.5508" filterUnits="userSpaceOnUse" color-interpolation-filters="sRGB">
<feFlood flood-opacity="0" result="BackgroundImageFix"/>
<feColorMatrix in="SourceAlpha" type="matrix" values="0 0 0 0 0 0 0 0 0 0 0 0 0 0 0 0 0 0 127 0" result="hardAlpha"/>
<feOffset dy="20"/>
<feGaussianBlur stdDeviation="15"/>
<feComposite in2="hardAlpha" operator="out"/>
<feColorMatrix type="matrix" values="0 0 0 0 1 0 0 0 0 1 0 0 0 0 1 0 0 0 0.25 0"/>
<feBlend mode="normal" in2="BackgroundImageFix" result="effect1_dropShadow_9772_45620"/>
<feBlend mode="normal" in="SourceGraphic" in2="effect1_dropShadow_9772_45620" result="shape"/>
</filter>
</defs>
</svg>
