<svg width="130" height="24" viewBox="0 0 130 24" fill="none" xmlns="http://www.w3.org/2000/svg">
  <path
    d="M30.8585 11.3645V3.74094C30.8585 2.74878 30.4644 1.79727 29.7628 1.0957C29.0613 0.39414 28.1097 0 27.1176 0L15.7409 1.87412C15.2496 1.87401 14.7631 1.9707 14.3092 2.15867C13.8553 2.34663 13.4428 2.62217 13.0954 2.96957C12.748 3.31697 12.4725 3.72942 12.2845 4.18334C12.0966 4.63726 11.9999 5.12376 12 5.61506V16.9917C11.9999 17.483 12.0966 17.9695 12.2845 18.4234C12.4725 18.8773 12.748 19.2898 13.0954 19.6372C13.4428 19.9846 13.8553 20.2601 14.3092 20.4481C14.7631 20.6361 15.2496 20.7327 15.7409 20.7326H27.1176C28.1097 20.7326 29.0613 20.3385 29.7628 19.637C30.4644 18.9354 30.8585 17.9839 30.8585 16.9917V12.5392C30.8472 12.3465 30.8399 12.153 30.8399 11.9547C30.8399 11.7563 30.8464 11.5612 30.8585 11.3645ZM26.4618 18.2789C25.1439 19.1888 23.5518 19.6438 21.6855 19.6438C19.001 19.6438 16.5221 18.6772 14.2489 16.744L16.6776 14.2878C18.1812 15.9031 19.9147 16.7105 21.8781 16.71C22.6018 16.7165 23.3169 16.5531 23.966 16.2332C24.7647 15.8478 25.1639 15.3146 25.1633 14.6335C25.1633 13.6361 24.4347 13.0009 22.9775 12.7278L20.9658 12.3449C19.1686 12.0032 17.8382 11.5715 16.9747 11.0496C15.6794 10.253 15.0317 9.11556 15.0317 7.63732C15.0317 5.95453 15.7142 4.61256 17.0791 3.61141C18.2848 2.70148 19.7628 2.24651 21.513 2.24651C23.742 2.24651 25.9256 3.00857 28.0639 4.53268L26.04 7.02206C24.5796 5.79424 23.0954 5.18033 21.5875 5.18033C20.8994 5.17295 20.2202 5.33711 19.6114 5.65797C18.9038 6.04493 18.5501 6.57951 18.5501 7.26169C18.5501 8.14896 19.2787 8.72914 20.7359 9.00223L24.3157 9.68387C27.2301 10.229 28.6859 11.6959 28.6832 14.0846C28.68 15.8608 27.9395 17.2589 26.4618 18.2789Z"
    fill="white"
  />
  <path
    d="M43.7304 6.76381C43.1952 5.97719 42.4716 5.33708 41.6256 4.90184C40.7751 4.47408 39.8347 4.25591 38.8828 4.26553C37.872 4.25483 36.8709 4.46305 35.9482 4.87593C35.0528 5.28286 34.2403 5.91081 33.5106 6.75976C33.0836 7.24111 32.7178 7.77353 32.4218 8.34486C32.1499 8.88867 31.953 9.46684 31.8365 10.0635C31.7513 10.491 31.6958 10.9238 31.6705 11.3588V12.5392C31.7747 14.3493 32.3711 15.9072 33.4596 17.2127C34.1001 17.9743 34.8995 18.5866 35.8017 19.0067C36.7353 19.4368 37.7529 19.6541 38.7808 19.643C39.7338 19.6344 40.6722 19.4082 41.5244 18.9816C42.4359 18.5406 43.1551 17.951 43.6819 17.2127H43.7328V19.1775H46.9273V4.72778H43.7328L43.7304 6.76381ZM43.0876 14.1413C42.7461 14.7893 42.2283 15.3275 41.594 15.694C40.9302 16.0773 40.1747 16.2731 39.4082 16.2607C38.8508 16.2693 38.2973 16.1669 37.7799 15.9592C37.2626 15.7515 36.7918 15.4429 36.3951 15.0512C35.989 14.6729 35.6671 14.2133 35.4504 13.7024C35.2336 13.1915 35.1269 12.6407 35.137 12.0858C35.137 10.8035 35.5418 9.74458 36.3513 8.90912C37.1609 8.07366 38.1966 7.65567 39.4584 7.65513C40.0338 7.64978 40.6045 7.75989 41.1366 7.97895C41.6351 8.18265 42.0854 8.48848 42.4586 8.87674C42.8293 9.26801 43.1188 9.7289 43.3103 10.2327C43.5175 10.7753 43.6211 11.352 43.6155 11.9328C43.6265 12.7014 43.4453 13.4605 43.0884 14.1413H43.0876Z"
    fill="white"
  />
  <path
    d="M62.1485 8.11982C61.8617 7.56792 61.4972 7.06001 61.0662 6.61162C60.3451 5.78803 59.5626 5.19167 58.7185 4.82251C57.8744 4.45335 56.9091 4.26904 55.8227 4.26958C53.7859 4.26958 52.2415 5.05026 51.1896 6.61162H51.1257V4.72779H47.9555V24H51.4187V17.6094H51.4689C52.53 18.9678 53.9812 19.6468 55.8227 19.6462C56.8122 19.6525 57.7913 19.4442 58.6926 19.0358C59.5796 18.6348 60.375 18.0562 61.0298 17.3358C61.6883 16.6147 62.2025 15.7741 62.5444 14.8593C62.8927 13.9315 63.0697 12.9481 63.0666 11.9571C63.0658 11.2932 62.9912 10.6315 62.844 9.98421C62.696 9.33462 62.4621 8.70765 62.1485 8.11982ZM59.0488 14.1105C58.6884 14.7645 58.1566 15.308 57.5106 15.6827C56.8483 16.071 56.0926 16.2714 55.3248 16.2623C54.8308 16.2571 54.3422 16.1577 53.8854 15.9692C53.4019 15.7792 52.9543 15.5081 52.5618 15.1678C51.6627 14.3615 51.2131 13.292 51.2131 11.9595C51.2072 11.2025 51.3977 10.457 51.766 9.79559C52.1234 9.14635 52.6491 8.60548 53.288 8.22991C53.9435 7.84493 54.6918 7.64671 55.4519 7.65674C56.1982 7.64944 56.9312 7.855 57.5649 8.24934C58.1945 8.63636 58.7106 9.18291 59.0609 9.83363C59.4163 10.4765 59.6024 11.1991 59.6017 11.9336C59.6089 12.6944 59.4183 13.4439 59.0488 14.1089V14.1105Z"
    fill="white"
  />
  <path
    d="M78.7403 9.01114C78.369 8.09289 77.8214 7.25625 77.1285 6.54848C76.4357 5.83765 75.6107 5.26896 74.6999 4.87432C73.7654 4.46854 72.7565 4.26256 71.7377 4.26959C70.6934 4.2609 69.658 4.46215 68.693 4.86138C67.7672 5.24476 66.9236 5.80207 66.2077 6.50314C65.4937 7.20443 64.9246 8.03927 64.5327 8.96014C64.1259 9.91588 63.92 10.9451 63.928 11.9838C63.9216 13.3273 64.2806 14.6473 64.9666 15.8025C65.6415 16.9653 66.607 17.9328 67.7685 18.61C68.9232 19.2948 70.2422 19.6529 71.5847 19.6462C72.6006 19.6503 73.6072 19.4536 74.5469 19.0674C75.4807 18.6842 76.3293 18.1196 77.0435 17.4062C77.7589 16.7012 78.3283 15.8622 78.7193 14.9371C79.112 14.0023 79.3114 12.9977 79.3054 11.9838C79.3123 10.9656 79.1203 9.95583 78.7403 9.01114ZM75.273 14.1348C74.9211 14.7836 74.3973 15.3231 73.7592 15.694C73.0996 16.0761 72.3486 16.272 71.5863 16.2607C70.8453 16.2671 70.1169 16.0688 69.4815 15.6875C68.8448 15.3093 68.322 14.7661 67.9684 14.1154C67.6039 13.4642 67.4135 12.7301 67.4155 11.9838C67.4155 10.7862 67.8138 9.78453 68.6104 8.97876C68.9957 8.56291 69.4647 8.23346 69.9867 8.01215C70.4881 7.78412 71.0314 7.66257 71.5823 7.65514C72.3335 7.65019 73.0719 7.85031 73.7179 8.23396C74.364 8.61451 74.8954 9.16243 75.256 9.81989C75.6261 10.4808 75.8185 11.2264 75.8146 11.9838C75.8213 12.7354 75.6348 13.476 75.273 14.1348Z"
    fill="white"
  />
</svg>
