<svg width="80" height="81" viewBox="0 0 80 81" fill="none" xmlns="http://www.w3.org/2000/svg">
<circle cx="42.2386" cy="40.2614" r="32.7614" fill="#CFE2FF"/>
<circle cx="42.2386" cy="40.2614" r="32.7614" fill="#F3F8FF"/>
<path opacity="0.9" d="M20.9346 12.5984L22.9084 13.6051L20.9346 14.6119L19.8559 16.4542L18.7771 14.6119L16.8033 13.6051L18.7771 12.5984L19.8559 10.7561L20.9346 12.5984Z" fill="url(#paint0_linear_3865_26013)"/>
<path opacity="0.9" d="M6.93047 42.2032L7.84907 42.7063L6.93047 43.2123L6.42453 44.1309L5.92143 43.2123L5 42.7063L5.92143 42.2032L6.42453 41.2818L6.93047 42.2032Z" fill="#FF9F1C"/>
<g clip-path="url(#clip0_3865_26013)">
<path d="M29.7241 73.0286H59.6521C63.6606 73.0286 66.911 69.7905 66.911 65.7972V26.8223H29.7241V73.0286Z" fill="#FFA833"/>
<path d="M9.32928 26.8223V66.5701C9.32928 70.1364 12.2325 73.0286 15.8123 73.0286H29.7224V26.8223H9.32928Z" fill="#FD9D1A"/>
<path d="M66.9127 19.3033H29.7241V33.2296H66.9127V19.3033Z" fill="#B87E36"/>
<path d="M29.7224 19.3033H9.32928V33.2296H29.7224V19.3033Z" fill="#CC9349"/>
<path d="M69.3075 19.3033H29.7241V30.4521H69.3075V19.3033Z" fill="#FECA6F"/>
<path d="M32.142 19.3033H6.62804V30.4521H32.142V19.3033Z" fill="#FD9200"/>
<path d="M21.5637 19.3033H15.8566V28.4457H21.5637V19.3033Z" fill="#F7E8D5"/>
<path d="M54.03 19.3033H48.3229V28.4457H54.03V19.3033Z" fill="#F7E8D5"/>
<path d="M54.4126 38.6258H36.3046V47.4788H54.4126V38.6258Z" fill="#DAC4AE"/>
<path d="M45.6181 40.1716H37.7889V40.7168H45.6181V40.1716Z" fill="#998376"/>
<path d="M47.5417 43.4026H39.7125V43.9478H47.5417V43.4026Z" fill="#998376"/>
<path d="M42.6476 41.7191H37.7889V42.2644H42.6476V41.7191Z" fill="#8A766A"/>
<path d="M48.507 40.1945H46.5161V40.7397H48.507V40.1945Z" fill="#998376"/>
<path d="M50.4573 43.3831H48.4664V43.9284H50.4573V43.3831Z" fill="#7F6D62"/>
<path d="M42.6476 45.086H37.7889V45.6313H42.6476V45.086Z" fill="#7F6D62"/>
<path d="M45.5844 45.086H43.5935V45.6313H45.5844V45.086Z" fill="#7F6D62"/>
<path d="M47.3043 41.7191H46.3939V42.2644H47.3043V41.7191Z" fill="#7F6D62"/>
<path d="M38.733 43.4026H37.8225V43.9478H38.733V43.4026Z" fill="#7F6D62"/>
<path d="M56.2158 52.0862H36.8076V56.593H56.2158V52.0862Z" fill="#F7E8D5"/>
<path d="M38.191 52.7161H37.7853V55.9507H38.191V52.7161Z" fill="#474646"/>
<path d="M39.7852 52.7161H38.8517V55.9507H39.7852V52.7161Z" fill="#474646"/>
<path d="M40.6761 52.7161H40.3201V55.9507H40.6761V52.7161Z" fill="#474646"/>
<path d="M41.6309 52.7161H41.2536V55.9507H41.6309V52.7161Z" fill="#474646"/>
<path d="M43.6112 52.7161H42.4102V55.9507H43.6112V52.7161Z" fill="#474646"/>
<path d="M44.5907 52.7161H44.3232V55.9507H44.5907V52.7161Z" fill="#474646"/>
<path d="M46.6366 52.7161H45.0353V55.9507H46.6366V52.7161Z" fill="#474646"/>
<path d="M47.5258 52.7161H47.1255V55.9507H47.5258V52.7161Z" fill="#474646"/>
<path d="M49.2156 52.7161H48.415V55.9507H49.2156V52.7161Z" fill="#474646"/>
<path d="M50.0924 52.7161H49.6602V55.9507H50.0924V52.7161Z" fill="#474646"/>
<path d="M52.1506 52.7161H51.5732V55.9507H52.1506V52.7161Z" fill="#474646"/>
<path d="M52.7352 52.7161H52.5067V55.9507H52.7352V52.7161Z" fill="#474646"/>
<path d="M54.3294 52.7161H53.4402V55.9507H54.3294V52.7161Z" fill="#474646"/>
<path d="M55.2646 52.7161H54.9529V55.9507H55.2646V52.7161Z" fill="#474646"/>
</g>
<defs>
<linearGradient id="paint0_linear_3865_26013" x1="16.8033" y1="13.6051" x2="22.9084" y2="13.6051" gradientUnits="userSpaceOnUse">
<stop stop-color="#5278FF"/>
<stop offset="1" stop-color="#30B8FC"/>
</linearGradient>
<clipPath id="clip0_3865_26013">
<rect width="62.6795" height="53.7253" fill="white" transform="translate(6.62804 19.3033)"/>
</clipPath>
</defs>
</svg>
