<svg width="70" height="67" viewBox="0 0 70 67" fill="none" xmlns="http://www.w3.org/2000/svg">
<g id="Group 427319828">
<g id="Ellipse 422">
<circle cx="33.1442" cy="33.6442" r="33.1442" fill="#CFE2FF"/>
<circle cx="33.1442" cy="33.6442" r="33.1442" fill="#F3F8FF"/>
</g>
<path id="Vector" opacity="0.9" d="M16.9442 5.65774L18.9411 6.6763L16.9442 7.69485L15.8529 9.55865L14.7616 7.69485L12.7646 6.6763L14.7616 5.65774L15.8529 3.79395L16.9442 5.65774Z" fill="url(#paint0_linear_9889_6511)"/>
<path id="Vector_2" opacity="0.9" d="M66.672 31.1503L70.0002 32.8237L66.672 34.497L64.8531 37.559L63.0343 34.497L59.7061 32.8237L63.0343 31.1503L64.8531 28.0884L66.672 31.1503Z" fill="url(#paint1_linear_9889_6511)"/>
<path id="Vector_3" opacity="0.9" d="M2.77675 35.6085L3.70608 36.1174L2.77675 36.6293L2.26491 37.5586L1.75592 36.6293L0.82373 36.1174L1.75592 35.6085L2.26491 34.6763L2.77675 35.6085Z" fill="#FF9F1C"/>
<path id="Vector_4" d="M46.5295 57.2921V16.179C46.5295 14.1233 44.845 12.4414 42.7862 12.4414H9.09634C7.03752 12.4414 5.35303 14.1233 5.35303 16.179V57.2921C5.35303 59.3477 7.03752 61.0296 9.09634 61.0296H42.7862C44.8534 61.0296 46.5295 59.3562 46.5295 57.2921Z" fill="#5072F1"/>
<path id="Vector_5" d="M41.8854 16.147H9.9965C9.47851 16.147 9.05859 16.566 9.05859 17.0828V56.3876C9.05859 56.9045 9.47851 57.3234 9.9965 57.3234H41.8854C42.4034 57.3234 42.8233 56.9045 42.8233 56.3876V17.0828C42.8233 16.566 42.4034 16.147 41.8854 16.147Z" fill="#F8F8FF"/>
<path id="Vector_6" d="M33.7646 12.5785V15.4608C33.7646 16.5177 32.9076 17.3824 31.8602 17.3824H20.4337C19.3863 17.3824 18.5293 16.5177 18.5293 15.4608V12.5785C18.5293 12.0501 18.9578 11.6177 19.4815 11.6177H22.4619C22.8809 9.95555 24.3758 8.73535 26.1469 8.73535C27.918 8.73535 29.413 9.95555 29.832 11.6177H32.8124C33.3361 11.6177 33.7646 12.0501 33.7646 12.5785Z" fill="#A2C1FA"/>
<path id="Vector_7" d="M59.706 35.5V60.8048C59.706 61.8342 58.8559 62.6765 57.8168 62.6765H29.4777C28.4386 62.6765 27.5884 61.8342 27.5884 60.8048V35.5H59.706Z" fill="#FFA833"/>
<path id="Vector_8" d="M59.4172 35.1021L53.8116 29.6045C53.6284 29.4247 53.3809 29.3237 53.122 29.3237H34.1714C33.9126 29.3237 33.6642 29.4247 33.4818 29.6045L27.8763 35.1021C27.2613 35.7053 27.6968 36.7355 28.5659 36.7355H58.7285C59.5976 36.7355 60.0321 35.7053 59.4172 35.1021Z" fill="#FECA6F"/>
<path id="Vector_9" d="M48.5883 36.5521V41.0358C48.5883 41.3894 48.164 41.6763 47.6412 41.6763H40.0647C39.542 41.6763 39.1177 41.3894 39.1177 41.0358V36.5521L40.0647 35.9116H47.6412L48.5883 36.5521Z" fill="#EBD7BD"/>
<path id="Vector_10" d="M48.5883 36.7355L45.7471 29.3237H41.9589L39.1177 36.7355H48.5883Z" fill="#F7E8D5"/>
<g id="Group">
<path id="Vector_11" d="M17.5736 29.2108C17.3268 29.2108 17.0884 29.114 16.9127 28.9381L15.0432 27.0767C14.6777 26.7128 14.6777 26.1246 15.0432 25.7607C15.4087 25.3968 15.9994 25.3968 16.3649 25.7607L17.4287 26.8199L20.5349 22.1803C20.8209 21.7522 21.4005 21.6368 21.8314 21.9225C22.2614 22.2082 22.3773 22.7853 22.0904 23.2134L18.3513 28.7976C18.1961 29.0294 17.9437 29.1801 17.6661 29.2071C17.6353 29.2099 17.6044 29.2108 17.5736 29.2108Z" fill="#4DE78D"/>
<path id="Vector_12" d="M17.5736 40.3793C17.3268 40.3793 17.0884 40.2825 16.9127 40.1066L15.0432 38.2452C14.6777 37.8813 14.6777 37.2931 15.0432 36.9292C15.4087 36.5653 15.9994 36.5653 16.3649 36.9292L17.4287 37.9883L20.5349 33.3488C20.8209 32.9207 21.4005 32.8052 21.8314 33.091C22.2614 33.3767 22.3773 33.9537 22.0904 34.3819L18.3513 39.9661C18.1961 40.1978 17.9437 40.3486 17.6661 40.3756C17.6353 40.3784 17.6044 40.3793 17.5736 40.3793Z" fill="#4DE78D"/>
<path id="Vector_13" d="M17.5736 51.5478C17.3268 51.5478 17.0884 51.451 16.9127 51.2751L15.0432 49.4137C14.6777 49.0498 14.6777 48.4616 15.0432 48.0977C15.4087 47.7338 15.9994 47.7338 16.3649 48.0977L17.4287 49.1569L20.5349 44.5173C20.8209 44.0892 21.4005 43.9747 21.8314 44.2595C22.2614 44.5452 22.3773 45.1223 22.0904 45.5504L18.3513 51.1346C18.1961 51.3663 17.9437 51.5171 17.6661 51.5441C17.6353 51.5469 17.6044 51.5478 17.5736 51.5478Z" fill="#4DE78D"/>
</g>
<g id="Group 427318185">
<path id="Vector_14" d="M41.7316 49.9116H30.8818V55.2161H41.7316V49.9116Z" fill="#DAC4AE"/>
<path id="Vector_15" d="M36.4625 50.8379H31.7715V51.1646H36.4625V50.8379Z" fill="#998376"/>
<path id="Vector_16" d="M37.6148 52.7739H32.9238V53.1006H37.6148V52.7739Z" fill="#998376"/>
<path id="Vector_17" d="M34.6827 51.7651H31.7715V52.0918H34.6827V51.7651Z" fill="#8A766A"/>
<path id="Vector_18" d="M38.1929 50.8516H37V51.1783H38.1929V50.8516Z" fill="#998376"/>
<path id="Vector_19" d="M39.3619 52.7622H38.1689V53.0889H39.3619V52.7622Z" fill="#7F6D62"/>
<path id="Vector_20" d="M34.6827 53.7822H31.7715V54.1089H34.6827V53.7822Z" fill="#7F6D62"/>
<path id="Vector_21" d="M36.4419 53.7822H35.249V54.1089H36.4419V53.7822Z" fill="#7F6D62"/>
<path id="Vector_22" d="M37.4728 51.7651H36.9272V52.0918H37.4728V51.7651Z" fill="#7F6D62"/>
<path id="Vector_23" d="M32.337 52.7739H31.7915V53.1006H32.337V52.7739Z" fill="#7F6D62"/>
</g>
<g id="Group_2">
<path id="Vector_24" d="M42.8129 57.9771H31.1841V60.6774H42.8129V57.9771Z" fill="#F7E8D5"/>
<path id="Vector_25" d="M32.0131 58.3545H31.77V60.2925H32.0131V58.3545Z" fill="#474646"/>
<path id="Vector_26" d="M32.968 58.3545H32.4087V60.2925H32.968V58.3545Z" fill="#474646"/>
<path id="Vector_27" d="M33.5019 58.3545H33.2886V60.2925H33.5019V58.3545Z" fill="#474646"/>
<path id="Vector_28" d="M34.0742 58.3545H33.8481V60.2925H34.0742V58.3545Z" fill="#474646"/>
<path id="Vector_29" d="M35.2606 58.3545H34.541V60.2925H35.2606V58.3545Z" fill="#474646"/>
<path id="Vector_30" d="M35.8478 58.3545H35.6875V60.2925H35.8478V58.3545Z" fill="#474646"/>
<path id="Vector_31" d="M37.0732 58.3545H36.1138V60.2925H37.0732V58.3545Z" fill="#474646"/>
<path id="Vector_32" d="M37.6061 58.3545H37.3662V60.2925H37.6061V58.3545Z" fill="#474646"/>
<path id="Vector_33" d="M38.6184 58.3545H38.1387V60.2925H38.6184V58.3545Z" fill="#474646"/>
<path id="Vector_34" d="M39.1437 58.3545H38.8848V60.2925H39.1437V58.3545Z" fill="#474646"/>
<path id="Vector_35" d="M40.3767 58.3545H40.0308V60.2925H40.3767V58.3545Z" fill="#474646"/>
<path id="Vector_36" d="M40.7272 58.3545H40.5903V60.2925H40.7272V58.3545Z" fill="#474646"/>
<path id="Vector_37" d="M41.6827 58.3545H41.1499V60.2925H41.6827V58.3545Z" fill="#474646"/>
<path id="Vector_38" d="M42.2429 58.3545H42.0562V60.2925H42.2429V58.3545Z" fill="#474646"/>
</g>
</g>
<defs>
<linearGradient id="paint0_linear_9889_6511" x1="12.7646" y1="6.6763" x2="18.9411" y2="6.6763" gradientUnits="userSpaceOnUse">
<stop stop-color="#5278FF"/>
<stop offset="1" stop-color="#30B8FC"/>
</linearGradient>
<linearGradient id="paint1_linear_9889_6511" x1="59.7061" y1="32.8237" x2="70.0002" y2="32.8237" gradientUnits="userSpaceOnUse">
<stop stop-color="#5278FF"/>
<stop offset="1" stop-color="#30B8FC"/>
</linearGradient>
</defs>
</svg>
