<svg width="184" height="212" viewBox="0 0 184 212" fill="none" xmlns="http://www.w3.org/2000/svg">
<path d="M90.5 197C140.206 197 180.5 156.706 180.5 107C180.5 57.2944 140.206 17 90.5 17C40.7944 17 0.5 57.2944 0.5 107C0.5 156.706 40.7944 197 90.5 197Z" fill="url(#paint0_linear_9798_93459)"/>
<path d="M39.0375 124.944C37.1271 124.362 35.5167 123.062 34.5446 121.317C33.5724 119.573 33.3143 117.52 33.8244 115.589C34.3345 113.658 35.5731 112 37.28 110.964C38.9869 109.927 41.0292 109.592 42.9777 110.03C44.9261 110.467 46.6292 111.643 47.7289 113.31C48.8286 114.977 49.2394 117.005 48.875 118.969C48.5105 120.932 47.3992 122.678 45.7745 123.839C44.1498 125.001 42.1383 125.487 40.1625 125.196C39.782 125.139 39.4061 125.054 39.0375 124.944ZM42.9275 112.039C42.6594 111.957 42.3852 111.896 42.1076 111.858C41.1784 111.725 40.2308 111.823 39.3485 112.144C38.4663 112.464 37.6763 112.996 37.0484 113.694C36.4205 114.392 35.9739 115.233 35.7479 116.144C35.522 117.055 35.5237 118.008 35.7529 118.918C35.9961 119.891 36.4908 120.783 37.1875 121.504C37.8842 122.226 38.7583 122.752 39.7223 123.029C40.6862 123.306 41.7061 123.325 42.6796 123.083C43.6531 122.842 44.546 122.349 45.2689 121.654C45.9917 120.958 46.519 120.085 46.7979 119.122C47.0768 118.158 47.0975 117.138 46.8579 116.164C46.6183 115.19 46.1269 114.297 45.4328 113.572C44.7388 112.848 43.8666 112.319 42.9037 112.039H42.9275Z" fill="white"/>
<path d="M43.6052 54.7895H140.923C142.176 54.7857 143.417 55.0297 144.576 55.5076C145.734 55.9854 146.787 56.6875 147.673 57.5736C148.559 58.4597 149.261 59.5123 149.739 60.6708C150.217 61.8292 150.461 63.0708 150.457 64.3239V171.047H34.0899V64.3048C34.0875 62.4176 34.6452 60.5722 35.6925 59.0022C36.7397 57.4322 38.2293 56.2083 39.9726 55.4855C41.1322 55.0074 42.3747 54.7628 43.629 54.7657L43.6052 54.7895Z" fill="url(#paint1_linear_9798_93459)"/>
<path d="M151.247 163.949C151.128 163.944 151.011 163.915 150.904 163.863C150.796 163.813 150.7 163.742 150.622 163.653C150.541 163.567 150.479 163.465 150.441 163.353C150.4 163.243 150.382 163.126 150.389 163.009V64.2521C150.389 59.8663 147.118 56.3004 143.109 56.3004H41.3818C37.3679 56.3004 34.1023 59.8663 34.1023 64.2521V159.687C34.116 159.809 34.103 159.932 34.0642 160.049C34.0293 160.164 33.969 160.27 33.8878 160.359C33.8071 160.449 33.7079 160.52 33.597 160.569C33.4862 160.619 33.3659 160.645 33.2442 160.645C33.1225 160.645 33.0023 160.619 32.8914 160.569C32.7805 160.52 32.6813 160.449 32.6006 160.359C32.5194 160.27 32.4592 160.164 32.4243 160.049C32.3855 159.932 32.3725 159.809 32.3861 159.687V64.2521C32.3861 58.8365 36.4001 54.4316 41.3818 54.4316H143.109C148.086 54.4316 152.11 58.8365 152.11 64.2521V163.009C152.113 163.246 152.028 163.476 151.871 163.653C151.709 163.829 151.485 163.935 151.247 163.949Z" fill="#E0E9F3"/>
<path d="M26.0486 105.665L29.3809 107.491L26.0486 109.312L24.2276 112.645L22.4065 109.312L19.0742 107.491L22.4065 105.665L24.2276 102.338L26.0486 105.665Z" fill="url(#paint2_linear_9798_93459)"/>
<path d="M77.665 44.4206L79.2429 45.2835L77.665 46.1463L76.8021 47.7243L75.9393 46.1463L74.3613 45.2835L75.9393 44.4206L76.8021 42.8379L77.665 44.4206Z" fill="url(#paint3_linear_9798_93459)"/>
<path opacity="0.72" d="M159.877 175.605C159.877 176.916 129.887 177.988 92.8883 177.988C55.89 177.988 25.9043 176.921 25.9043 175.605C25.9043 174.289 55.8948 173.221 92.8883 173.221C129.882 173.221 159.877 174.289 159.877 175.605Z" fill="url(#paint4_radial_9798_93459)"/>
<path d="M120.251 157.59L122.945 159.058L120.251 160.531L118.783 163.22L117.31 160.531L114.621 159.058L117.31 157.59L118.783 154.901L120.251 157.59Z" fill="url(#paint5_linear_9798_93459)"/>
<path opacity="0.72" d="M159.247 172.678C159.247 173.993 129.252 175.061 92.2587 175.061C55.2652 175.061 25.2891 173.993 25.2891 172.678C25.2891 171.362 55.2795 170.294 92.2778 170.294C129.276 170.294 159.247 171.362 159.247 172.678Z" fill="url(#paint6_radial_9798_93459)"/>
<path d="M91.9112 211.43C137.923 211.43 175.223 197.958 175.223 181.34C175.223 164.721 137.923 151.249 91.9112 151.249C45.8995 151.249 8.59961 164.721 8.59961 181.34C8.59961 197.958 45.8995 211.43 91.9112 211.43Z" fill="url(#paint7_linear_9798_93459)"/>
<path opacity="0.72" d="M159.247 174.646C159.247 175.962 129.252 177.03 92.2587 177.03C55.2652 177.03 25.2891 175.962 25.2891 174.646C25.2891 173.331 55.2795 172.263 92.2778 172.263C129.276 172.263 159.247 173.335 159.247 174.646Z" fill="url(#paint8_radial_9798_93459)"/>
<path d="M130.645 73.2529V80.8805C130.629 82.105 130.854 83.3208 131.308 84.4584C131.761 85.596 132.434 86.6331 133.289 87.5105C134.143 88.3879 135.162 89.0884 136.287 89.572C137.412 90.0556 138.622 90.3129 139.846 90.329H142.482C143.707 90.3129 144.916 90.0556 146.041 89.572C147.167 89.0884 148.185 88.3879 149.04 87.5105C149.894 86.6331 150.567 85.596 151.021 84.4584C151.474 83.3208 151.699 82.105 151.683 80.8805V73.2529H130.645Z" fill="url(#paint9_linear_9798_93459)"/>
<path d="M161.012 99.053L164.201 100.798L161.012 102.543L159.267 105.737L157.517 102.543L154.328 100.798L157.517 99.053L159.267 95.8638L161.012 99.053Z" fill="url(#paint10_linear_9798_93459)"/>
<path d="M9.87196 73.9014V81.219C9.85558 82.3926 10.0706 83.558 10.5048 84.6485C10.939 85.7389 11.5838 86.7332 12.4024 87.5743C13.221 88.4155 14.1973 89.0871 15.2756 89.5508C16.3538 90.0145 17.5129 90.2612 18.6865 90.2767H21.2131C22.3868 90.2612 23.5458 90.0145 24.6241 89.5508C25.7024 89.0871 26.6787 88.4155 27.4973 87.5743C28.3159 86.7332 28.9607 85.7389 29.3949 84.6485C29.829 83.558 30.0441 82.3926 30.0277 81.219V73.9014H9.87196Z" fill="#BBD3F8"/>
<path d="M30.0282 73.9014V81.219C30.0118 82.3926 30.2269 83.558 30.6611 84.6485C31.0952 85.7389 31.74 86.7332 32.5586 87.5743C33.3772 88.4155 34.3535 89.0871 35.4318 89.5508C36.5101 90.0145 37.6691 90.2612 38.8428 90.2767H41.3694C42.5432 90.2612 43.7025 90.0145 44.7811 89.5509C45.8596 89.0873 46.8362 88.4157 47.6552 87.5746C48.4742 86.7335 49.1194 85.7393 49.5541 84.6488C49.9888 83.5583 50.2045 82.3929 50.1887 81.219V73.9014H30.0282Z" fill="url(#paint11_linear_9798_93459)"/>
<path d="M50.1884 73.9014V81.219C50.172 82.3926 50.387 83.558 50.8212 84.6485C51.2554 85.7389 51.9002 86.7332 52.7188 87.5743C53.5374 88.4155 54.5137 89.0871 55.592 89.5508C56.6702 90.0145 57.8293 90.2612 59.0029 90.2767H61.52C62.6936 90.2612 63.8527 90.0145 64.931 89.5508C66.0092 89.0871 66.9856 88.4155 67.8041 87.5743C68.6227 86.7332 69.2675 85.7389 69.7017 84.6485C70.1359 83.558 70.351 82.3926 70.3346 81.219V73.9014H50.1884Z" fill="#BBD3F8"/>
<path d="M70.3446 73.9014V81.219C70.3282 82.3926 70.5433 83.558 70.9775 84.6485C71.4116 85.7389 72.0565 86.7332 72.875 87.5743C73.6936 88.4155 74.67 89.0871 75.7482 89.5508C76.8265 90.0145 77.9855 90.2612 79.1592 90.2767H81.6858C82.8594 90.2612 84.0185 90.0145 85.0968 89.5508C86.175 89.0871 87.1513 88.4155 87.9699 87.5743C88.7885 86.7332 89.4333 85.7389 89.8675 84.6485C90.3017 83.558 90.5167 82.3926 90.5003 81.219V73.9014H70.3446Z" fill="url(#paint12_linear_9798_93459)"/>
<path d="M90.4989 73.9014V81.219C90.4825 82.3926 90.6976 83.558 91.1318 84.6485C91.5659 85.7389 92.2108 86.7332 93.0293 87.5743C93.8479 88.4155 94.8243 89.0871 95.9025 89.5508C96.9808 90.0145 98.1398 90.2612 99.3135 90.2767H101.845C103.018 90.2612 104.178 90.0145 105.256 89.5508C106.334 89.0871 107.31 88.4155 108.129 87.5743C108.948 86.7332 109.592 85.7389 110.027 84.6485C110.461 83.558 110.676 82.3926 110.659 81.219V73.9014H90.4989Z" fill="#C3D9F9"/>
<path d="M110.659 73.9014V81.219C110.643 82.3926 110.858 83.558 111.292 84.6485C111.726 85.7389 112.371 86.7332 113.189 87.5743C114.008 88.4155 114.984 89.0871 116.063 89.5508C117.141 90.0145 118.3 90.2612 119.474 90.2767H122C123.174 90.2612 124.333 90.0145 125.411 89.5508C126.489 89.0871 127.466 88.4155 128.284 87.5743C129.103 86.7332 129.748 85.7389 130.182 84.6485C130.616 83.558 130.831 82.3926 130.815 81.219V73.9014H110.659Z" fill="url(#paint13_linear_9798_93459)"/>
<path d="M150.972 73.9014V81.219C150.956 82.3929 151.171 83.5583 151.606 84.6488C152.041 85.7393 152.686 86.7335 153.505 87.5746C154.324 88.4157 155.301 89.0873 156.379 89.5509C157.458 90.0145 158.617 90.2612 159.791 90.2767H162.317C163.491 90.2612 164.65 90.0145 165.728 89.5508C166.807 89.0871 167.783 88.4155 168.602 87.5743C169.42 86.7332 170.065 85.7389 170.499 84.6485C170.933 83.558 171.148 82.3926 171.132 81.219V73.9014H150.972Z" fill="url(#paint14_linear_9798_93459)"/>
<path d="M79.8485 58.894L70.8242 73.9012H90.4985L91.6521 58.894H79.8485Z" fill="url(#paint15_linear_9798_93459)"/>
<path d="M140.03 58.894H127.936L150.971 73.9012H171.131L140.03 58.894Z" fill="url(#paint16_linear_9798_93459)"/>
<path d="M55.08 58.894L29.5469 73.9012H50.1889L67.4652 58.894H55.08Z" fill="url(#paint17_linear_9798_93459)"/>
<path d="M43.2768 58.894L9.87305 73.9012H29.5473L55.0804 58.894H43.2768Z" fill="url(#paint18_linear_9798_93459)"/>
<path d="M67.4658 58.894L50.1895 73.9012H70.8267L79.851 58.894H67.4658Z" fill="url(#paint19_linear_9798_93459)"/>
<path d="M91.6517 58.894L90.498 73.9012H110.659L103.746 58.894H91.6517Z" fill="url(#paint20_linear_9798_93459)"/>
<path d="M115.842 58.894L130.816 73.9012H150.971L127.936 58.894H115.842Z" fill="url(#paint21_linear_9798_93459)"/>
<path d="M103.746 58.894L110.659 73.9012H130.814L115.84 58.894H103.746Z" fill="url(#paint22_linear_9798_93459)"/>
<path d="M54.5 141L129.5 141" stroke="#D8DFEF" stroke-width="1.99415" stroke-linecap="round" stroke-linejoin="round"/>
<path d="M54.5 127L129.5 127" stroke="#D8DFEF" stroke-width="1.99415" stroke-linecap="round" stroke-linejoin="round"/>
<path d="M54.5 113L129.5 113" stroke="#D8DFEF" stroke-width="1.99415" stroke-linecap="round" stroke-linejoin="round"/>
<path d="M54.5 99L129.5 99" stroke="#D8DFEF" stroke-width="1.99415" stroke-linecap="round" stroke-linejoin="round"/>
<path d="M55.5 148H129.5" stroke="#D8DFEF" stroke-width="1.99415" stroke-linecap="round" stroke-linejoin="round"/>
<path d="M55.5 134H129.5" stroke="#D8DFEF" stroke-width="1.99415" stroke-linecap="round" stroke-linejoin="round"/>
<path d="M55.5 120H129.5" stroke="#D8DFEF" stroke-width="1.99415" stroke-linecap="round" stroke-linejoin="round"/>
<path d="M55.5 106H129.5" stroke="#D8DFEF" stroke-width="1.99415" stroke-linecap="round" stroke-linejoin="round"/>
<path d="M147.378 173.756C158.342 173.756 167.256 164.842 167.256 153.878C167.256 142.914 158.342 134 147.378 134C136.414 134 127.5 142.914 127.5 153.878C127.5 164.842 136.414 173.756 147.378 173.756Z" fill="url(#paint23_linear_9798_93459)" stroke="white" stroke-width="1.53396" stroke-miterlimit="10"/>
<path d="M148.951 153.878L155.911 146.918C156.102 146.728 156.245 146.441 156.245 146.155C156.245 145.869 156.149 145.583 155.911 145.393C155.72 145.202 155.434 145.059 155.148 145.059C154.862 145.059 154.576 145.154 154.386 145.393L147.426 152.353L140.466 145.393C140.371 145.297 140.228 145.202 140.085 145.154C139.942 145.107 139.799 145.059 139.656 145.059C139.513 145.059 139.37 145.107 139.227 145.154C139.084 145.202 138.988 145.297 138.845 145.393C138.75 145.488 138.655 145.631 138.607 145.774C138.559 145.917 138.512 146.06 138.512 146.203C138.512 146.346 138.559 146.489 138.607 146.632C138.655 146.775 138.75 146.871 138.845 147.014L145.805 153.973L138.845 160.933C138.75 161.028 138.655 161.171 138.607 161.314C138.559 161.457 138.512 161.6 138.512 161.743C138.512 161.886 138.559 162.029 138.607 162.172C138.655 162.315 138.75 162.411 138.845 162.554C138.941 162.649 139.084 162.744 139.227 162.792C139.37 162.84 139.513 162.887 139.656 162.887C139.799 162.887 139.942 162.84 140.085 162.792C140.228 162.744 140.323 162.649 140.466 162.554L147.426 155.594L154.386 162.554C154.576 162.744 154.862 162.887 155.148 162.887C155.434 162.887 155.72 162.792 155.911 162.554C156.006 162.458 156.102 162.315 156.149 162.172C156.197 162.029 156.245 161.886 156.245 161.743C156.245 161.6 156.197 161.457 156.149 161.314C156.102 161.171 156.006 161.076 155.911 160.933L148.951 153.878Z" fill="white"/>
<defs>
<linearGradient id="paint0_linear_9798_93459" x1="86.7018" y1="178.814" x2="97.5015" y2="-1.18125" gradientUnits="userSpaceOnUse">
<stop stop-color="#FEFEFD"/>
<stop offset="1" stop-color="#EBF3FF"/>
</linearGradient>
<linearGradient id="paint1_linear_9798_93459" x1="92.7264" y1="155.668" x2="89.9281" y2="-82.177" gradientUnits="userSpaceOnUse">
<stop stop-color="#FEFEFD"/>
<stop offset="1" stop-color="#C1D3FD"/>
</linearGradient>
<linearGradient id="paint2_linear_9798_93459" x1="19.0742" y1="107.491" x2="29.3809" y2="107.491" gradientUnits="userSpaceOnUse">
<stop stop-color="#FF8E00"/>
<stop offset="1" stop-color="#FFCF01"/>
</linearGradient>
<linearGradient id="paint3_linear_9798_93459" x1="74.3613" y1="45.2835" x2="79.2429" y2="45.2835" gradientUnits="userSpaceOnUse">
<stop stop-color="#5278FF"/>
<stop offset="1" stop-color="#30B8FC"/>
</linearGradient>
<radialGradient id="paint4_radial_9798_93459" cx="0" cy="0" r="1" gradientUnits="userSpaceOnUse" gradientTransform="translate(93.2474 178.187) scale(69.6249 105.138)">
<stop stop-color="#D0DFF3"/>
<stop offset="0.99" stop-color="#D0DFF3"/>
</radialGradient>
<linearGradient id="paint5_linear_9798_93459" x1="2107.19" y1="2633.81" x2="2252.44" y2="2633.81" gradientUnits="userSpaceOnUse">
<stop stop-color="#5278FF"/>
<stop offset="1" stop-color="#30B8FC"/>
</linearGradient>
<radialGradient id="paint6_radial_9798_93459" cx="0" cy="0" r="1" gradientUnits="userSpaceOnUse" gradientTransform="translate(21296.5 -13866.9) scale(13130.6 467.281)">
<stop stop-color="#D0DFF3"/>
<stop offset="0.99" stop-color="#D0DFF3"/>
</radialGradient>
<linearGradient id="paint7_linear_9798_93459" x1="92.0161" y1="173.417" x2="92.5786" y2="132.004" gradientUnits="userSpaceOnUse">
<stop stop-color="#FEFEFD"/>
<stop offset="0.41" stop-color="#F5F9FE"/>
<stop offset="0.84" stop-color="#EBF3FF"/>
</linearGradient>
<radialGradient id="paint8_radial_9798_93459" cx="0" cy="0" r="1" gradientUnits="userSpaceOnUse" gradientTransform="translate(21296.5 -13856.2) scale(13130.6 467.281)">
<stop stop-color="#D0DFF3"/>
<stop offset="0.99" stop-color="#D0DFF3"/>
</radialGradient>
<linearGradient id="paint9_linear_9798_93459" x1="141.167" y1="60.9965" x2="141.167" y2="106.137" gradientUnits="userSpaceOnUse">
<stop stop-color="#8BB4F2"/>
<stop offset="1" stop-color="white"/>
</linearGradient>
<linearGradient id="paint10_linear_9798_93459" x1="3340.11" y1="1831.32" x2="3544.58" y2="1831.32" gradientUnits="userSpaceOnUse">
<stop stop-color="#5278FF"/>
<stop offset="1" stop-color="#30B8FC"/>
</linearGradient>
<linearGradient id="paint11_linear_9798_93459" x1="1796.23" y1="1736.82" x2="1675.36" y2="2604.8" gradientUnits="userSpaceOnUse">
<stop stop-color="#5278FF"/>
<stop offset="1" stop-color="#30B8FC"/>
</linearGradient>
<linearGradient id="paint12_linear_9798_93459" x1="3492.07" y1="1967.38" x2="3371.17" y2="2835.35" gradientUnits="userSpaceOnUse">
<stop stop-color="#5278FF"/>
<stop offset="1" stop-color="#30B8FC"/>
</linearGradient>
<linearGradient id="paint13_linear_9798_93459" x1="5188.32" y1="2197.95" x2="5067.42" y2="3066.08" gradientUnits="userSpaceOnUse">
<stop stop-color="#5278FF"/>
<stop offset="1" stop-color="#30B8FC"/>
</linearGradient>
<linearGradient id="paint14_linear_9798_93459" x1="6886.34" y1="2428.68" x2="6765.47" y2="3296.65" gradientUnits="userSpaceOnUse">
<stop stop-color="#5278FF"/>
<stop offset="1" stop-color="#30B8FC"/>
</linearGradient>
<linearGradient id="paint15_linear_9798_93459" x1="3809.85" y1="801.598" x2="3645.62" y2="2203.07" gradientUnits="userSpaceOnUse">
<stop stop-color="#5278FF"/>
<stop offset="1" stop-color="#30B8FC"/>
</linearGradient>
<linearGradient id="paint16_linear_9798_93459" x1="10239.2" y1="586.696" x2="11637.6" y2="4094.68" gradientUnits="userSpaceOnUse">
<stop stop-color="#5278FF"/>
<stop offset="1" stop-color="#30B8FC"/>
</linearGradient>
<linearGradient id="paint17_linear_9798_93459" x1="4249.86" y1="635.169" x2="4158.85" y2="2049.99" gradientUnits="userSpaceOnUse">
<stop stop-color="#5278FF"/>
<stop offset="1" stop-color="#30B8FC"/>
</linearGradient>
<linearGradient id="paint18_linear_9798_93459" x1="3133.25" y1="253.687" x2="3118.3" y2="2280.24" gradientUnits="userSpaceOnUse">
<stop stop-color="#8BB4F2"/>
<stop offset="1" stop-color="white"/>
</linearGradient>
<linearGradient id="paint19_linear_9798_93459" x1="4123.31" y1="276.498" x2="4100.52" y2="2302.76" gradientUnits="userSpaceOnUse">
<stop stop-color="#8BB4F2"/>
<stop offset="1" stop-color="white"/>
</linearGradient>
<linearGradient id="paint20_linear_9798_93459" x1="4369.16" y1="301.41" x2="4335.64" y2="2327.52" gradientUnits="userSpaceOnUse">
<stop stop-color="#8BB4F2"/>
<stop offset="1" stop-color="white"/>
</linearGradient>
<linearGradient id="paint21_linear_9798_93459" x1="9977.05" y1="324.221" x2="9957.81" y2="2350.7" gradientUnits="userSpaceOnUse">
<stop stop-color="#8BB4F2"/>
<stop offset="1" stop-color="white"/>
</linearGradient>
<linearGradient id="paint22_linear_9798_93459" x1="6921.13" y1="978.082" x2="6794.06" y2="2387.34" gradientUnits="userSpaceOnUse">
<stop stop-color="#5278FF"/>
<stop offset="1" stop-color="#30B8FC"/>
</linearGradient>
<linearGradient id="paint23_linear_9798_93459" x1="147.373" y1="202.33" x2="147.373" y2="139.371" gradientUnits="userSpaceOnUse">
<stop stop-color="#FF8E00"/>
<stop offset="1" stop-color="#FFCF01"/>
</linearGradient>
</defs>
</svg>
