<svg width="80" height="80" viewBox="0 0 80 80" fill="none" xmlns="http://www.w3.org/2000/svg">
<ellipse cx="40.7795" cy="40.4777" rx="31.4777" ry="31.4777" fill="#CFE2FF"/>
<ellipse cx="40.7795" cy="40.4777" rx="31.4777" ry="31.4777" fill="#F3F8FF"/>
<path opacity="0.9" d="M20.3102 13.8986L22.2067 14.8659L20.3102 15.8333L19.2738 17.6033L18.2373 15.8333L16.3408 14.8659L18.2373 13.8986L19.2738 12.1285L20.3102 13.8986Z" fill="url(#paint0_linear_24746_11250)"/>
<path opacity="0.9" d="M6.85483 42.3434L7.73743 42.8268L6.85483 43.3129L6.36872 44.1955L5.88532 43.3129L5 42.8268L5.88532 42.3434L6.36872 41.4581L6.85483 42.3434Z" fill="#FF9F1C"/>
<g clip-path="url(#clip0_24746_11250)">
<path d="M32.6035 69.2235H58.7447C62.246 69.2235 65.0851 66.3951 65.0851 62.9071V28.8637H32.6035V69.2235Z" fill="#FFA833"/>
<path d="M14.7891 28.8637V63.5822C14.7891 66.6972 17.3249 69.2235 20.4518 69.2235H32.6018V28.8637H14.7891Z" fill="#FD9D1A"/>
<path d="M65.0866 22.2961H32.6035V34.4603H65.0866V22.2961Z" fill="#B87E36"/>
<path d="M32.6018 22.2961H14.7891V34.4603H32.6018V22.2961Z" fill="#CC9349"/>
<path d="M67.1784 22.2961H32.6035V32.0342H67.1784V22.2961Z" fill="#FECA6F"/>
<path d="M34.7153 22.2961H12.4297V32.0342H34.7153V22.2961Z" fill="#FD9200"/>
<path d="M25.4753 22.2961H20.4902V30.2817H25.4753V22.2961Z" fill="#F7E8D5"/>
<path d="M53.8337 22.2961H48.8486V30.2817H53.8337V22.2961Z" fill="#F7E8D5"/>
<path d="M54.1684 39.1737H38.3516V46.9065H54.1684V39.1737Z" fill="#DAC4AE"/>
<path d="M46.487 40.5239H39.6484V41.0002H46.487V40.5239Z" fill="#998376"/>
<path d="M48.1667 43.3461H41.3281V43.8223H48.1667V43.3461Z" fill="#998376"/>
<path d="M43.8924 41.8756H39.6484V42.3519H43.8924V41.8756Z" fill="#8A766A"/>
<path d="M49.0105 40.5439H47.2715V41.0202H49.0105V40.5439Z" fill="#998376"/>
<path d="M50.7136 43.3291H48.9746V43.8054H50.7136V43.3291Z" fill="#7F6D62"/>
<path d="M43.8924 44.8165H39.6484V45.2928H43.8924V44.8165Z" fill="#7F6D62"/>
<path d="M46.4568 44.8165H44.7178V45.2928H46.4568V44.8165Z" fill="#7F6D62"/>
<path d="M47.9593 41.8756H47.1641V42.3519H47.9593V41.8756Z" fill="#7F6D62"/>
<path d="M40.473 43.3461H39.6777V43.8223H40.473V43.3461Z" fill="#7F6D62"/>
<path d="M55.7435 50.9309H38.791V54.8675H55.7435V50.9309Z" fill="#F7E8D5"/>
<path d="M39.9998 51.4812H39.6455V54.3065H39.9998V51.4812Z" fill="#474646"/>
<path d="M41.3915 51.4812H40.5762V54.3065H41.3915V51.4812Z" fill="#474646"/>
<path d="M42.1704 51.4812H41.8594V54.3065H42.1704V51.4812Z" fill="#474646"/>
<path d="M43.0044 51.4812H42.6748V54.3065H43.0044V51.4812Z" fill="#474646"/>
<path d="M44.7336 51.4812H43.6846V54.3065H44.7336V51.4812Z" fill="#474646"/>
<path d="M45.5891 51.4812H45.3555V54.3065H45.5891V51.4812Z" fill="#474646"/>
<path d="M47.3762 51.4812H45.9775V54.3065H47.3762V51.4812Z" fill="#474646"/>
<path d="M48.1534 51.4812H47.8037V54.3065H48.1534V51.4812Z" fill="#474646"/>
<path d="M49.629 51.4812H48.9297V54.3065H49.629V51.4812Z" fill="#474646"/>
<path d="M50.3951 51.4812H50.0176V54.3065H50.3951V51.4812Z" fill="#474646"/>
<path d="M52.1929 51.4812H51.6885V54.3065H52.1929V51.4812Z" fill="#474646"/>
<path d="M52.7035 51.4812H52.5039V54.3065H52.7035V51.4812Z" fill="#474646"/>
<path d="M54.096 51.4812H53.3193V54.3065H54.096V51.4812Z" fill="#474646"/>
<path d="M54.9129 51.4812H54.6406V54.3065H54.9129V51.4812Z" fill="#474646"/>
</g>
<ellipse cx="59.7485" cy="56.7095" rx="15.2514" ry="15.2514" fill="#5072F1"/>
<g clip-path="url(#clip1_24746_11250)">
<path d="M61.4336 53.3794H57.8679L58.6207 52.6272C59.1186 52.1275 59.1169 51.3198 58.6156 50.8235C58.1143 50.3272 57.3041 50.3289 56.8062 50.8286L53.8634 53.7675C53.3655 54.2672 53.3672 55.0749 53.8685 55.5712L56.8174 58.5049C57.3187 59.0013 58.1288 58.9996 58.6267 58.4998C59.1246 58.0001 59.1229 57.1924 58.6216 56.6961L57.8593 55.9379H61.4344C62.0931 55.9379 62.692 56.2066 63.1266 56.6398C63.6074 57.1191 63.8306 57.7007 63.8306 58.4111C63.8306 59.7253 62.7527 60.7991 61.4353 60.7991H55.4469C54.7377 60.7991 54.1636 61.3713 54.1636 62.0783C54.1636 62.7853 54.7377 63.3575 55.4469 63.3575H61.4353C62.8023 63.3575 64.0437 62.8024 64.9419 61.9069C65.8864 60.9654 66.398 59.7458 66.398 58.3267C66.3962 55.6002 64.1686 53.3794 61.4336 53.3794Z" fill="white"/>
</g>
<defs>
<linearGradient id="paint0_linear_24746_11250" x1="16.3408" y1="14.8659" x2="22.2067" y2="14.8659" gradientUnits="userSpaceOnUse">
<stop stop-color="#5278FF"/>
<stop offset="1" stop-color="#30B8FC"/>
</linearGradient>
<clipPath id="clip0_24746_11250">
<rect width="54.7486" height="46.9274" fill="white" transform="translate(12.4297 22.2961)"/>
</clipPath>
<clipPath id="clip1_24746_11250">
<rect width="12.905" height="12.905" fill="white" transform="translate(53.4912 50.4525)"/>
</clipPath>
</defs>
</svg>
