<svg width="214" height="181" viewBox="0 0 214 181" fill="none" xmlns="http://www.w3.org/2000/svg">
  <path
    d="M110.433 180.5C160.225 180.5 200.588 140.206 200.588 90.5C200.588 40.7944 160.225 0.5 110.433 0.5C60.6422 0.5 20.2785 40.7944 20.2785 90.5C20.2785 140.206 60.6422 180.5 110.433 180.5Z"
    fill="url(#paint0_linear_1189_2325)"
  />
  <g clip-path="url(#clip0_1189_2325)">
    <path
      d="M32.8839 74.5874L30.0845 76.215L29.4985 79.4051L27.8059 76.6056L24.6159 76.0197L27.4153 74.327L28.0663 71.137L29.6287 74.0666L32.8839 74.5874Z"
      fill="url(#paint1_linear_1189_2325)"
    />
    <path
      opacity="0.5"
      d="M188.079 131.9V129.947L186.647 128.71H188.535L189.837 127.213V129.166L191.269 130.403L189.316 130.338L188.079 131.9Z"
      fill="url(#paint2_linear_1189_2325)"
    />
    <path
      d="M182.802 41.6194V130.16C182.802 136.93 177.333 142.399 170.562 142.399H57.2197C50.4491 142.399 44.9805 136.93 44.9805 130.16V41.6194C44.9805 35.8903 49.6678 31.2029 55.3968 31.2029H172.32C178.114 31.2029 182.802 35.8903 182.802 41.6194Z"
      fill="white"
    />
    <path
      d="M170.627 143.05H57.2197C50.1235 143.05 44.3295 137.256 44.3295 130.159V41.6193C44.3295 35.4996 49.2772 30.5518 55.3968 30.5518H172.32C178.44 30.5518 183.387 35.4996 183.387 41.6193V130.159C183.453 137.321 177.724 143.05 170.627 143.05ZM55.4619 31.8538C50.0584 31.8538 45.6966 36.2157 45.6966 41.6193V130.159C45.6966 136.54 50.9048 141.748 57.2848 141.748H170.627C177.007 141.748 182.216 136.54 182.216 130.159V41.6193C182.216 36.2157 177.854 31.8538 172.45 31.8538H55.4619Z"
      fill="#1C4A93"
    />
    <path
      d="M161.512 34.7834C160.992 34.7834 160.601 35.1741 160.601 35.6949C160.601 36.2157 160.992 36.6063 161.512 36.6063C162.033 36.6063 162.424 36.2157 162.424 35.6949C162.424 35.1741 162.033 34.7834 161.512 34.7834Z"
      fill="url(#paint3_linear_1189_2325)"
    />
    <path
      d="M165.549 34.7834C165.028 34.7834 164.637 35.1741 164.637 35.6949C164.637 36.2157 165.028 36.6063 165.549 36.6063C166.07 36.6063 166.46 36.2157 166.46 35.6949C166.46 35.1741 166.07 34.7834 165.549 34.7834Z"
      fill="url(#paint4_linear_1189_2325)"
    />
    <path
      d="M169.52 34.7834C168.999 34.7834 168.609 35.1741 168.609 35.6949C168.609 36.2157 168.999 36.6063 169.52 36.6063C170.041 36.6063 170.432 36.2157 170.432 35.6949C170.432 35.1741 170.041 34.7834 169.52 34.7834Z"
      fill="url(#paint5_linear_1189_2325)"
    />
    <path d="M182.802 41.6194H80.7866V42.9214H182.802V41.6194Z" fill="#1C4A93" />
    <path
      opacity="0.5"
      d="M38.21 64.3403V62.4523L36.7778 61.1503H38.6657L39.9678 59.718V61.606L41.4 62.9081L39.4469 62.843L38.21 64.3403Z"
      fill="url(#paint6_linear_1189_2325)"
    />
    <path d="M106.63 82.659L94.3242 82.8589L94.326 84.6167L106.632 84.4168L106.63 82.659Z" fill="#CDDCF8" />
    <path d="M106.686 76.6716L94.3242 76.7351L94.33 78.4929L106.692 78.4294L106.686 76.6716Z" fill="#CDDCF8" />
    <path d="M120.652 76.616L112.014 76.6606L112.02 78.4184L120.658 78.3738L120.652 76.616Z" fill="#CDDCF8" />
    <path d="M120.238 70.5174L94.324 70.6506L94.3298 72.4084L120.244 72.2751L120.238 70.5174Z" fill="#CDDCF8" />
    <path
      d="M23.4795 38.9268L13.7082 44.753L24.2854 62.4268L39.3721 53.3832L31.7935 40.84L23.4795 38.9268Z"
      fill="#CDDCF8"
    />
    <path d="M23.4793 38.9268L31.7934 40.8399L26.521 43.9887L23.4793 38.9268Z" fill="#E1ECFD" />
    <path
      d="M28.3796 44.9143L26.8859 44.5517L25.9408 48.1184L22.387 47.2291L21.9685 48.7356L25.5782 49.6121L24.7018 53.2218L26.1955 53.5845L27.0847 50.0306L30.6944 50.907L31.057 49.4133L27.4473 48.5369L28.3796 44.9143Z"
      fill="#ECF4FF"
    />
    <path d="M185.889 161.911H15.3216V163.213H185.889V161.911Z" fill="#002C5B" />
    <path
      d="M194.899 146.67L192.258 145.693L191.233 143.062L190.256 145.703L187.624 146.726L190.264 147.703L191.291 150.336L192.17 147.602L194.899 146.67Z"
      fill="#5379FF"
    />
    <path
      d="M95.8362 60.0032C95.8213 60.2857 95.8547 60.5237 95.9365 60.717C96.0183 60.9029 96.1373 61.0516 96.2934 61.1631C96.4496 61.2746 96.6355 61.3564 96.8511 61.4085C97.0667 61.4531 97.3009 61.4754 97.5537 61.4754C97.7322 61.4754 97.9107 61.4531 98.0891 61.4085C98.2676 61.3639 98.4274 61.2969 98.5687 61.2077C98.7174 61.1185 98.8364 61.0032 98.9256 60.862C99.0223 60.7207 99.0706 60.5497 99.0706 60.3489C99.0706 60.1556 99.0111 59.9995 98.8921 59.8805C98.7732 59.7541 98.617 59.6463 98.4237 59.5571C98.2378 59.4678 98.0222 59.3898 97.7768 59.3228C97.5389 59.2559 97.2972 59.1853 97.0519 59.1109C96.7991 59.0366 96.5537 58.9473 96.3157 58.8433C96.0778 58.7392 95.8622 58.6053 95.6689 58.4417C95.483 58.2782 95.3305 58.0774 95.2116 57.8395C95.1001 57.6015 95.0443 57.3115 95.0443 56.9695C95.0443 56.5234 95.1372 56.1442 95.3231 55.8319C95.509 55.5196 95.7507 55.2668 96.0481 55.0735C96.3455 54.8727 96.6801 54.7277 97.0519 54.6385C97.4311 54.5418 97.814 54.4935 98.2006 54.4935C98.6096 54.4935 98.9925 54.5418 99.3494 54.6385C99.7137 54.7277 100.03 54.8764 100.297 55.0846C100.573 55.2928 100.788 55.5605 100.944 55.8877C101.108 56.2074 101.19 56.5977 101.19 57.0587H99.5279C99.5353 56.8357 99.5018 56.6498 99.4275 56.5011C99.3606 56.3449 99.2602 56.2185 99.1263 56.1219C98.9999 56.0252 98.8475 55.9583 98.6691 55.9211C98.4906 55.8765 98.301 55.8542 98.1003 55.8542C97.9367 55.8542 97.7694 55.8728 97.5984 55.91C97.4348 55.9397 97.2861 55.9955 97.1522 56.0773C97.0184 56.1516 96.9106 56.252 96.8288 56.3784C96.747 56.5048 96.7061 56.6609 96.7061 56.8468C96.7061 57.0402 96.7767 57.2037 96.918 57.3376C97.0667 57.464 97.2415 57.5718 97.4422 57.661C97.6504 57.7428 97.8623 57.8097 98.0779 57.8618C98.2936 57.9064 98.4683 57.9436 98.6021 57.9733C98.9144 58.0551 99.2007 58.1518 99.4609 58.2633C99.7212 58.3674 99.9442 58.5049 100.13 58.676C100.323 58.847 100.472 59.0552 100.576 59.3005C100.68 59.5459 100.732 59.847 100.732 60.2039C100.732 60.6798 100.632 61.085 100.431 61.4196C100.238 61.7542 99.9851 62.0256 99.6729 62.2338C99.368 62.442 99.0223 62.5907 98.6356 62.6799C98.249 62.7766 97.866 62.8249 97.4868 62.8249C96.3715 62.8249 95.5387 62.5982 94.9885 62.1446C94.4457 61.691 94.1743 60.9772 94.1743 60.0032H95.8362ZM104.451 56.8803H105.589L105.344 57.9398H104.217L103.626 60.8062C103.611 60.8657 103.6 60.9215 103.592 60.9735C103.585 61.0181 103.581 61.0516 103.581 61.0739C103.581 61.178 103.596 61.2598 103.626 61.3193C103.663 61.3713 103.708 61.4122 103.76 61.4419C103.812 61.4717 103.868 61.4903 103.927 61.4977C103.994 61.4977 104.057 61.4977 104.117 61.4977C104.31 61.4977 104.5 61.4866 104.686 61.4642L104.418 62.6799C104.254 62.6948 104.091 62.706 103.927 62.7134C103.764 62.7283 103.596 62.7357 103.425 62.7357C103.239 62.7357 103.053 62.7171 102.868 62.6799C102.689 62.6502 102.526 62.5944 102.377 62.5126C102.236 62.4234 102.12 62.3045 102.031 62.1557C101.949 62.007 101.912 61.8137 101.92 61.5758C101.92 61.5014 101.927 61.4196 101.942 61.3304C101.957 61.2337 101.975 61.1334 101.998 61.0293L102.644 57.9398H101.607L101.853 56.8803H102.868L103.224 55.1292H104.808L104.451 56.8803ZM107.174 60.3155C107.174 60.4865 107.196 60.6501 107.241 60.8062C107.293 60.9624 107.367 61.0999 107.464 61.2189C107.561 61.3378 107.68 61.4345 107.821 61.5089C107.962 61.5758 108.126 61.6092 108.312 61.6092C108.609 61.6092 108.862 61.5312 109.07 61.375C109.286 61.2114 109.46 61.0107 109.594 60.7728C109.735 60.5274 109.84 60.2634 109.907 59.9809C109.973 59.6983 110.007 59.4344 110.007 59.189C110.007 58.8024 109.918 58.4938 109.739 58.2633C109.568 58.0328 109.271 57.9175 108.847 57.9175C108.557 57.9175 108.304 57.9993 108.089 58.1629C107.88 58.3191 107.709 58.5161 107.575 58.754C107.442 58.992 107.341 59.2522 107.274 59.5347C107.207 59.8099 107.174 60.0701 107.174 60.3155ZM105.59 60.3155C105.59 59.8247 105.665 59.3637 105.813 58.9325C105.969 58.4938 106.189 58.1109 106.471 57.7837C106.761 57.4565 107.111 57.2 107.52 57.0141C107.929 56.8208 108.39 56.7241 108.903 56.7241C109.297 56.7241 109.657 56.7762 109.985 56.8803C110.319 56.977 110.605 57.1257 110.843 57.3264C111.081 57.5272 111.263 57.78 111.39 58.0848C111.524 58.3897 111.591 58.7503 111.591 59.1667C111.591 59.6723 111.513 60.1482 111.356 60.5943C111.208 61.033 110.988 61.4159 110.698 61.7431C110.408 62.0702 110.055 62.3268 109.639 62.5126C109.23 62.6985 108.761 62.7915 108.234 62.7915C107.43 62.7915 106.787 62.587 106.304 62.1781C105.828 61.7617 105.59 61.1408 105.59 60.3155ZM113.094 56.8803H114.622L114.466 57.5941L114.488 57.6164C114.666 57.3041 114.908 57.0773 115.213 56.9361C115.525 56.7948 115.86 56.7241 116.217 56.7241C116.916 56.7241 117.455 56.9286 117.834 57.3376C118.213 57.7465 118.403 58.3005 118.403 58.9994C118.403 59.4753 118.34 59.94 118.213 60.3935C118.087 60.8471 117.893 61.2523 117.633 61.6092C117.373 61.9661 117.046 62.2524 116.652 62.468C116.265 62.6837 115.804 62.7915 115.269 62.7915C115.105 62.7915 114.938 62.7729 114.767 62.7357C114.603 62.6985 114.447 62.6428 114.298 62.5684C114.157 62.4941 114.027 62.4011 113.908 62.2896C113.796 62.1706 113.711 62.0331 113.651 61.8769H113.618L113.016 64.6652H111.443L113.094 56.8803ZM115.692 57.9175C115.395 57.9175 115.139 57.9993 114.923 58.1629C114.707 58.3191 114.525 58.5198 114.376 58.7652C114.235 59.0105 114.127 59.2782 114.053 59.5682C113.986 59.8508 113.953 60.1147 113.953 60.3601C113.953 60.7393 114.046 61.0441 114.231 61.2746C114.417 61.4977 114.704 61.6092 115.09 61.6092C115.395 61.6092 115.655 61.5312 115.871 61.375C116.087 61.2189 116.265 61.0218 116.406 60.7839C116.548 60.546 116.652 60.2857 116.719 60.0032C116.785 59.7206 116.819 59.453 116.819 59.2002C116.819 59.0291 116.793 58.8656 116.741 58.7094C116.696 58.5533 116.626 58.4194 116.529 58.3079C116.44 58.1889 116.324 58.096 116.183 58.0291C116.042 57.9547 115.878 57.9175 115.692 57.9175Z"
      fill="#5174F5"
    />
    <g clip-path="url(#clip1_1189_2325)">
      <path
        d="M166.721 54.0974L131.598 54.0974C129.508 54.0974 127.783 55.8267 127.783 57.9229L127.783 82.605C127.783 84.7012 129.508 86.4305 131.598 86.4305L143.933 86.4305L149.16 92.8237L154.386 86.4305L166.721 86.4305C168.812 86.4305 170.537 84.7012 170.537 82.605L170.537 57.9229C170.537 55.8267 168.812 54.0974 166.721 54.0974Z"
        fill="#F9AB43"
      />
      <path
        d="M149.16 58.709C142.731 58.709 137.504 63.9494 137.504 70.3426C137.504 76.7883 142.731 82.0286 149.16 82.0286C155.588 82.0286 160.815 76.7883 160.815 70.3426C160.763 63.897 155.588 58.709 149.16 58.709ZM149.16 60.9099C151.355 60.9099 153.393 61.696 155.013 62.9537L141.738 76.2118C140.483 74.5873 139.699 72.5436 139.699 70.3426C139.699 65.1546 143.933 60.9099 149.16 60.9099ZM149.16 79.8277C146.964 79.8277 144.926 79.0416 143.306 77.7839L156.529 64.4734C157.784 66.0979 158.568 68.1417 158.568 70.3426C158.568 75.583 154.334 79.8277 149.16 79.8277Z"
        fill="white"
      />
    </g>
    <g clip-path="url(#clip2_1189_2325)">
      <mask
        id="mask0_1189_2325"
        style="mask-type: luminance"
        maskUnits="userSpaceOnUse"
        x="13"
        y="46"
        width="131"
        height="116"
      >
        <path
          d="M26.3595 161.982H133.816L143.093 133.251C143.093 133.251 90.202 101.558 89.3645 98.4659C88.527 95.3738 82.2136 56.1435 82.2136 56.1435L67.2032 46.3521L45.2352 59.9442L34.5411 101.816L15.3433 127.647L13.1529 150.451L17.7913 159.663L26.3595 161.982Z"
          fill="white"
        />
      </mask>
      <g mask="url(#mask0_1189_2325)">
        <path
          d="M109.401 157.215C109.401 157.215 116.423 158.503 117.711 154.058C119.064 149.292 128.083 142.528 128.083 142.528C128.083 142.528 123.96 139.242 116.616 143.752C109.272 148.196 105.342 148.196 105.342 148.196L109.401 157.215Z"
          fill="#FFBFB7"
        />
        <path
          d="M127.761 142.334C127.761 142.334 133.301 147.166 137.36 151.804C137.94 152.448 136.78 153.479 135.943 153.157C132.85 151.933 127.503 145.427 127.503 145.427C127.503 145.427 131.497 152.448 130.853 153.221C130.467 153.672 128.083 155.089 126.021 156.249C124.604 157.086 124.411 156.571 123.316 155.347C121.963 153.736 120.61 152.77 120.288 152.77C119.708 152.835 116.423 155.604 115.521 155.927C115.521 155.927 114.812 147.617 116.423 145.684C118.549 143.43 127.761 142.334 127.761 142.334Z"
          fill="#FFBFB7"
        />
        <path d="M126.859 155.927L122.607 149.292C122.607 149.292 125.571 153.286 126.859 155.927Z" fill="#1E1916" />
        <path d="M128.92 154.703L124.539 146.457C124.539 146.522 127.889 151.997 128.92 154.703Z" fill="#1E1916" />
        <path
          d="M107.016 148.519L109.98 157.086C102.765 158.246 86.2081 158.503 78.0264 152.062C73.388 148.454 71.0044 142.914 72.0996 140.66C74.7409 135.184 81.5697 135.957 88.1407 137.954C89.0426 138.276 107.016 148.519 107.016 148.519Z"
          fill="#FFBFB7"
        />
        <path
          d="M61.8563 58.3338C62.8226 54.2755 72.2927 52.2141 78.2839 61.5547C86.7877 74.8891 74.6763 132.672 75.3205 136.021C75.3205 136.021 54.3833 136.601 50.9689 127.518C50.9045 127.583 55.2208 85.4536 61.8563 58.3338Z"
          fill="#002C5B"
        />
        <path
          d="M82.2137 100.334C86.0146 106.969 91.2328 128.936 94.003 141.755C89.4934 143.687 86.5944 153.736 78.5416 154.252C73.0013 148.518 66.6879 135.957 65.3351 126.874C63.7245 115.408 71.7773 81.9751 82.2137 100.334Z"
          fill="#5279FF"
        />
        <path
          d="M68.9421 94.0211C64.7547 94.1499 56.3154 93.8923 53.2231 94.7941C38.9858 98.8524 39.8877 109.03 40.5963 120.11C42.0136 143.107 34.9916 172.031 34.9916 172.031C34.9916 172.031 60.1163 187.491 84.0814 168.617C84.0814 168.617 75.3843 144.589 86.0784 128.613C94.1957 116.503 82.8573 105.616 81.5689 98.5303C80.6026 93.8923 71.1325 94.0211 68.9421 94.0211Z"
          fill="#5279FF"
        />
        <path
          d="M39.1797 173.512L39.3086 172.804C37.3115 172.353 35.8942 171.966 35.3144 171.837C35.9586 169.39 42.1431 141.046 40.8547 120.11L40.7903 119.595C40.146 109.61 39.6307 100.978 49.6805 96.4689L49.4229 95.8247C38.922 100.463 39.5018 109.803 40.146 119.595L40.2105 120.11C41.6278 142.785 34.6702 171.773 34.6057 171.902L34.4769 172.224L34.799 172.353C34.8634 172.417 36.474 172.868 39.1797 173.512Z"
          fill="#002C5B"
        />
        <path
          d="M81.6984 154.252L82.4071 154.058C80.7321 147.681 80.0879 138.147 86.2724 128.871C90.8464 122.043 89.1714 115.73 87.5609 111.543L86.9166 111.8C88.5272 115.859 90.0733 121.978 85.757 128.485C79.3148 137.954 80.0235 147.745 81.6984 154.252Z"
          fill="white"
        />
        <path
          d="M76.7379 131.834C76.7379 131.834 76.8023 131.834 76.9312 131.834C80.8609 131.834 84.0821 130.804 86.208 128.936L85.757 128.42C83.7599 130.159 80.6677 131.061 76.9312 131.126C76.8023 131.126 76.7379 131.126 76.7379 131.126V131.834Z"
          fill="white"
        />
        <path
          d="M66.7524 131.19C71.7774 125.65 69.7803 118.242 69.7803 118.178L69.1361 118.371C69.1361 118.435 71.0043 125.521 66.3015 130.739L66.7524 131.19Z"
          fill="white"
        />
        <path
          d="M15.5371 148.518C15.8593 141.368 26.4245 115.923 40.2753 102.46C53.4175 89.6406 59.0866 110.898 54.4482 119.788C51.3559 125.779 35.0571 150.58 30.4831 153.929C23.912 158.761 15.4083 152.383 15.5371 148.518Z"
          fill="#5279FF"
        />
        <path
          d="M16.052 147.616C17.9203 133.316 28.1634 119.337 28.2922 119.208L27.7124 118.822C27.5836 118.951 17.276 133.058 15.3434 147.552L16.052 147.616Z"
          fill="#002C5B"
        />
        <path
          d="M39.3721 143.558C43.0442 138.663 47.2316 128.936 47.2961 128.807L46.6518 128.549C46.5874 128.678 42.4644 138.341 38.7923 143.172L39.3721 143.558Z"
          fill="white"
        />
        <path
          d="M85.757 153.414C85.8214 152.448 82.5359 151.611 80.6032 147.166C78.735 142.721 77.511 145.04 73.3879 143.816C69.3293 142.592 68.5563 141.69 65.2063 144.847C61.8563 148.003 60.6967 148.196 58.5064 147.552C56.316 146.972 34.0259 140.595 26.4885 139.436C18.9511 138.276 11.8002 149.678 21.0126 155.927H67.4611C67.4611 155.927 71.3908 155.411 72.2928 152.126C73.1947 148.841 76.9956 150.515 77.7687 152.061C78.5417 153.672 77.7686 155.733 79.4436 155.669C81.1186 155.604 81.1186 153.092 81.1186 153.092C81.1186 153.092 85.6282 155.025 85.757 153.414Z"
          fill="#FFBFB7"
        />
        <path
          d="M53.1592 94.8585C54.0611 94.7297 54.963 94.6009 55.8005 94.472L54.8341 78.3032C54.8341 78.3032 59.9235 80.3002 68.1051 82.4259L68.8138 93.9567C71.3263 94.0211 72.9368 94.2144 73.2589 94.2144C76.8666 94.2788 77.7041 97.5641 77.2531 101.171C76.0935 109.868 57.0889 108.579 48.0698 96.9199C49.5515 96.0825 51.1621 95.1806 53.1592 94.8585Z"
          fill="#FFBFB7"
        />
        <path
          d="M68.5561 86.3554L68.7494 91.4444C61.8562 92.0241 55.9293 80.5578 55.3495 79.3339C55.3495 79.3339 54.8986 78.432 54.963 78.4965C63.0802 82.748 67.5898 86.5487 68.5561 86.3554Z"
          fill="#FFA8A1"
        />
        <path
          d="M69.2011 87.7725C65.4646 87.9658 58.3137 83.3277 56.5743 80.0424C55.9301 78.8829 56.059 75.662 55.9301 74.0516C55.5436 68.1252 58.507 64.5178 62.2435 62.9073C63.7896 62.2632 68.9434 62.0055 70.4251 62.1988C75.3212 62.9073 75.5145 67.2233 75.8366 72.1835C76.2876 77.7234 75.7722 87.386 69.2011 87.7725Z"
          fill="#FFBFB7"
        />
        <path
          d="M61.4699 56.2079C56.5093 55.4993 52.9661 59.4932 50.6469 63.5515C40.9836 80.2357 44.1403 107.549 42.1432 108.773C42.1432 108.773 43.8826 110.576 46.6527 111.929C47.0393 112.122 48.2633 105.681 48.2633 105.681C48.2633 105.681 49.4229 113.089 50.3892 113.282C52.644 113.797 55.2209 113.733 57.7978 112.509C57.7978 112.509 53.868 75.9841 59.0862 70.573C61.4699 67.9963 69.265 57.303 61.4699 56.2079Z"
          fill="#002C5B"
        />
        <path
          d="M71.1334 78.8184C71.5199 78.6896 73.2593 78.0454 73.517 77.1435C73.5814 76.9503 73.5814 76.6282 73.3237 76.3705C71.9064 74.7601 72.0353 72.5055 72.0353 72.0546C72.2285 71.7969 73.1304 70.8306 74.6766 71.2815L74.8698 70.5729C72.6151 69.9932 71.4555 71.6036 71.391 71.668L71.3266 71.7325V71.7969C71.3266 71.9257 70.9401 74.7601 72.7439 76.8215C72.8083 76.8859 72.8083 76.9503 72.8083 76.9503C72.7439 77.3368 71.6487 77.8521 70.8757 78.1098L71.1334 78.8184Z"
          fill="#1E1916"
        />
        <path
          d="M76.8667 69.4779C77.8974 67.8031 77.7042 64.1313 73.3879 61.0392C68.0408 57.303 63.789 59.9441 62.5649 63.7448C66.6235 62.6497 72.8081 69.6068 76.8667 69.4779Z"
          fill="#002C5B"
        />
        <path
          d="M59.087 74.3095C59.2159 76.242 57.7342 77.9168 55.8015 78.0457C53.8688 78.1745 52.1939 76.6929 52.065 74.7604C51.9362 72.8279 53.4179 71.153 55.3506 71.0242C57.2832 70.8953 58.9582 72.3769 59.087 74.3095Z"
          fill="#FFBFB7"
        />
        <path
          d="M56.1881 77.0147C56.317 77.0147 56.4458 77.0147 56.5747 76.9503C56.8324 76.8859 57.0256 76.6926 57.1545 76.435C57.4122 75.8552 57.0901 75.5331 56.8324 75.3399C56.6391 75.1466 56.4458 74.9534 56.5103 74.5669C56.5747 74.1804 56.7035 73.9227 56.8968 73.665C57.1545 73.2141 57.541 72.6343 56.6391 72.0546C55.4151 71.2816 53.8689 73.0853 53.6757 73.2785L54.191 73.7294C54.5132 73.3429 55.6083 72.2478 56.2526 72.6343C56.5747 72.8276 56.5747 72.8276 56.317 73.3429C56.1237 73.665 55.9305 74.0515 55.866 74.5024C55.8016 75.2755 56.1881 75.5975 56.3814 75.8552C56.5747 76.0485 56.5747 76.0485 56.5103 76.1773C56.4458 76.2417 56.4458 76.3061 56.3814 76.3061C56.1237 76.3706 55.7372 76.2417 55.5439 76.1129L55.2218 76.7571C55.2218 76.7571 55.6728 77.0147 56.1881 77.0147Z"
          fill="#1E1916"
        />
        <path
          d="M64.4342 72.3124C67.14 70.702 68.0419 71.7971 68.0419 71.7971L68.6217 71.4106C68.5573 71.3462 67.3977 69.7357 64.1121 71.7327L64.4342 72.3124Z"
          fill="#1E1916"
        />
        <path
          d="M67.203 81.5241L67.3963 81.0088C67.3963 81.0088 70.0376 82.426 72.5501 81.3953L72.6789 81.9751C70.102 83.199 67.3319 81.5241 67.203 81.5241Z"
          fill="#1E1916"
        />
        <path
          d="M66.3014 73.7294C66.3014 74.2448 66.7524 74.6313 67.2033 74.6313C67.7187 74.6313 68.1052 74.1804 68.1052 73.665C68.1052 73.1497 67.6543 72.7632 67.2033 72.7632C66.688 72.8276 66.3014 73.2141 66.3014 73.7294Z"
          fill="#1E1916"
        />
        <path
          d="M73.5814 73.1496C73.5814 73.665 74.0323 74.0515 74.4833 74.0515C74.9986 74.0515 75.3852 73.6005 75.3852 73.0852C75.3852 72.5699 74.9342 72.1833 74.4833 72.1833C73.9679 72.2478 73.5814 72.6343 73.5814 73.1496Z"
          fill="#1E1916"
        />
      </g>
      <path d="M122.929 158.632H70.8754V161.853H122.929V158.632Z" fill="#D7E4FC" />
      <path
        d="M123.057 161.982H70.7464V158.439H123.057V161.982ZM71.0041 161.66H122.735V158.825H71.0041V161.66Z"
        fill="#002C5B"
      />
      <path
        d="M167.572 102.589H95.8058C94.6462 102.589 93.1001 103.684 92.9713 104.972L89.8146 150.064C89.7501 151.353 90.5232 152.706 91.8117 152.706H163.965C165.318 152.706 166.155 151.353 166.284 150.064L169.505 104.908C169.634 103.619 168.732 102.589 167.572 102.589Z"
        fill="#002C5B"
      />
      <path
        d="M168.281 102.589H96.7076C95.548 102.589 94.5173 103.619 94.3884 104.908L91.2318 149.742C91.1673 151.031 92.0048 152.061 93.2288 152.061H164.802C165.962 152.061 166.992 151.031 167.121 149.742L170.278 104.908C170.342 103.619 169.44 102.589 168.281 102.589Z"
        fill="#D7E4FC"
      />
      <path
        d="M158.681 148.841H111.138C110.687 148.841 110.3 148.647 110.042 148.325C109.72 148.003 109.591 147.488 109.591 147.037L111.653 117.276C111.717 116.31 112.49 115.537 113.457 115.537H161C161.451 115.537 161.838 115.73 162.096 116.052C162.418 116.374 162.546 116.889 162.546 117.34L160.485 147.101C160.356 148.067 159.583 148.841 158.681 148.841ZM113.457 116.052C112.812 116.052 112.233 116.632 112.168 117.34L110.107 147.101C110.107 147.423 110.171 147.81 110.429 148.003C110.622 148.196 110.88 148.325 111.202 148.325H158.746C159.39 148.325 159.97 147.745 160.034 147.037L162.096 117.276C162.096 116.954 162.031 116.567 161.773 116.374C161.58 116.181 161.322 116.052 161 116.052H113.457Z"
        fill="#0053AD"
      />
      <path
        d="M141.932 152.255H93.229C92.6492 152.255 92.0694 151.997 91.6185 151.546C91.1675 151.031 90.9098 150.387 90.9743 149.678L94.1309 104.843C94.2598 103.426 95.355 102.331 96.6434 102.331H106.758V102.846H96.6434C95.6127 102.846 94.6463 103.748 94.5819 104.908L91.4252 149.742C91.3608 150.322 91.5541 150.837 91.9406 151.224C92.2627 151.546 92.7136 151.739 93.1646 151.739H141.868V152.255H141.932Z"
        fill="#002C5B"
      />
      <path
        d="M164.802 152.255V151.739C165.833 151.739 166.799 150.837 166.863 149.678L170.02 104.843C170.085 104.264 169.891 103.748 169.505 103.362C169.183 103.04 168.732 102.846 168.281 102.846H140.45V102.331H168.281C168.861 102.331 169.44 102.589 169.891 103.04C170.342 103.555 170.6 104.199 170.536 104.908L167.379 149.742C167.25 151.095 166.155 152.255 164.802 152.255Z"
        fill="#002C5B"
      />
      <path
        d="M125.311 155.475C125.376 154.896 126.406 149.034 126.986 145.877C127.18 144.718 128.21 143.816 129.434 143.816H132.076L138.582 161.724C137.809 161.724 122.412 161.724 115.777 161.724C115.583 161.724 115.712 161.337 115.841 161.337C124.796 161.66 125.054 156.957 125.311 155.475Z"
        fill="white"
      />
      <path
        d="M125.956 156.635C126.02 156.377 127.244 149.227 127.888 145.748C128.082 144.653 129.048 143.88 130.143 143.88L143.672 143.945C145.089 143.945 146.184 145.233 145.862 146.65C145.218 149.871 144.251 154.896 144.187 155.733C144.058 156.957 144.251 158.825 146.442 159.663C149.083 160.629 155.719 161.466 155.783 161.531C156.041 161.724 155.783 161.917 155.654 161.982L138.518 161.917C138.453 161.917 138.453 161.917 138.389 161.917C137.616 161.853 129.177 161.08 129.112 161.08C126.986 160.565 125.633 159.019 125.956 156.635Z"
        fill="#D7E4FC"
      />
      <path
        d="M155.719 162.046L138.84 161.982V161.466L155.397 161.531C155.204 161.531 155.01 161.466 154.817 161.466C152.755 161.144 148.504 160.5 146.442 159.792C144.638 159.147 143.801 157.666 143.994 155.604C144.058 154.831 144.96 150.193 145.669 146.522C145.798 145.942 145.605 145.298 145.282 144.847C144.896 144.396 144.316 144.138 143.736 144.138L130.208 144.074V143.558L143.736 143.623C144.509 143.623 145.218 143.945 145.669 144.525C146.12 145.104 146.313 145.877 146.184 146.586C145.154 151.804 144.574 155.025 144.509 155.604C144.316 157.473 145.025 158.696 146.635 159.276C148.632 159.985 153.078 160.693 154.946 160.951C156.041 161.08 156.041 161.08 156.105 161.144C156.299 161.273 156.363 161.466 156.299 161.66C156.105 161.917 155.912 162.046 155.719 162.046Z"
        fill="#002C5B"
      />
      <path d="M153.463 120.432H122.283V120.948H153.463V120.432Z" fill="#002C5B" />
      <path d="M153.657 122.687H122.476V123.202H153.657V122.687Z" fill="#002C5B" />
    </g>
  </g>
  <path
    d="M208.173 91.1513L198.523 85.2386L187.834 102.77L202.809 111.874L210.414 99.3727L208.173 91.1513Z"
    fill="#CDDCF8"
  />
  <path d="M208.173 91.1512L210.414 99.3726L205.137 96.1985L208.173 91.1512Z" fill="#E1ECFD" />
  <path
    d="M205.191 98.226L204.825 96.7563L201.218 97.6388L200.336 94.0317L198.866 94.3973L199.699 97.9868L196.159 98.8376L196.507 100.357L200.114 99.4742L200.947 103.064L202.467 102.716L201.584 99.1085L205.191 98.226Z"
    fill="#ECF4FF"
  />
  <path
    d="M181.335 153.501L177.949 152.004L174.629 153.567L176.127 150.181L174.564 146.861L177.949 148.293L181.27 146.731L179.642 150.116L181.335 153.501Z"
    fill="url(#paint7_linear_1189_2325)"
  />
  <defs>
    <linearGradient
      id="paint0_linear_1189_2325"
      x1="106.564"
      y1="162.726"
      x2="117.346"
      y2="-17.2762"
      gradientUnits="userSpaceOnUse"
    >
      <stop stop-color="#FEFEFD" />
      <stop offset="1" stop-color="#EBF3FF" />
    </linearGradient>
    <linearGradient
      id="paint1_linear_1189_2325"
      x1="27.0106"
      y1="77.7221"
      x2="30.5135"
      y2="72.8609"
      gradientUnits="userSpaceOnUse"
    >
      <stop stop-color="#FEA235" />
      <stop offset="1" stop-color="#FFB44F" />
    </linearGradient>
    <linearGradient
      id="paint2_linear_1189_2325"
      x1="188.233"
      y1="127.942"
      x2="189.685"
      y2="131.178"
      gradientUnits="userSpaceOnUse"
    >
      <stop stop-color="#FEA235" />
      <stop offset="1" stop-color="#FFB44F" />
    </linearGradient>
    <linearGradient
      id="paint3_linear_1189_2325"
      x1="160.602"
      y1="35.7032"
      x2="162.487"
      y2="35.7032"
      gradientUnits="userSpaceOnUse"
    >
      <stop stop-color="#237C8F" />
      <stop offset="1" stop-color="#2ABDD1" />
    </linearGradient>
    <linearGradient
      id="paint4_linear_1189_2325"
      x1="164.579"
      y1="35.7032"
      x2="166.464"
      y2="35.7032"
      gradientUnits="userSpaceOnUse"
    >
      <stop stop-color="#F6462E" />
      <stop offset="1" stop-color="#FB7D42" />
    </linearGradient>
    <linearGradient
      id="paint5_linear_1189_2325"
      x1="168.557"
      y1="35.7032"
      x2="170.442"
      y2="35.7032"
      gradientUnits="userSpaceOnUse"
    >
      <stop stop-color="#0E218A" />
      <stop offset="1" stop-color="#1F72D2" />
    </linearGradient>
    <linearGradient
      id="paint6_linear_1189_2325"
      x1="38.3612"
      y1="60.4006"
      x2="39.8127"
      y2="63.6372"
      gradientUnits="userSpaceOnUse"
    >
      <stop stop-color="#FEA235" />
      <stop offset="1" stop-color="#FFB44F" />
    </linearGradient>
    <linearGradient
      id="paint7_linear_1189_2325"
      x1="174.545"
      y1="150.169"
      x2="181.361"
      y2="150.169"
      gradientUnits="userSpaceOnUse"
    >
      <stop stop-color="#FEA235" />
      <stop offset="1" stop-color="#FFB44F" />
    </linearGradient>
    <clipPath id="clip0_1189_2325">
      <rect width="192.702" height="141.274" fill="white" transform="translate(0.450684 30.5518)" />
    </clipPath>
    <clipPath id="clip1_1189_2325">
      <rect width="42.7538" height="38.7263" fill="white" transform="translate(127.783 54.0974)" />
    </clipPath>
    <clipPath id="clip2_1189_2325">
      <rect width="157.384" height="131.67" fill="white" transform="translate(13.1529 46.3521)" />
    </clipPath>
  </defs>
</svg>
