<svg width="30" height="30" viewBox="0 0 30 30" fill="none" xmlns="http://www.w3.org/2000/svg">
  <rect width="30" height="30" rx="15" fill="url(#paint0_linear_1362_16723)" />
  <path
    d="M23.1362 16.9786L22.4898 15.6433C22.4201 15.4991 22.4201 15.334 22.4898 15.1901L23.1362 13.8547C23.4959 13.1113 23.211 12.2251 22.4871 11.8375L21.1874 11.1409C21.0473 11.0657 20.9512 10.9321 20.9234 10.7742L20.6693 9.31033C20.5278 8.49517 19.7813 7.94763 18.9702 8.0635L17.5134 8.27165C17.3561 8.29421 17.2007 8.24294 17.0867 8.13151L16.0292 7.0983C15.4404 6.52307 14.5179 6.52273 13.9291 7.0983L12.8717 8.13151C12.7576 8.24294 12.602 8.29386 12.4449 8.27165L10.9882 8.0635C10.1767 7.94763 9.43052 8.49517 9.28907 9.31033L9.03494 10.7742C9.00753 10.9321 8.91143 11.0657 8.77133 11.1409L7.47156 11.8375C6.74706 12.2254 6.46213 13.1117 6.82184 13.8551L7.46784 15.1901C7.53755 15.334 7.53755 15.4994 7.46784 15.6433L6.82184 16.9786C6.46213 17.722 6.74706 18.6083 7.47088 18.9959L8.77065 19.6924C8.91075 19.7676 9.00719 19.9013 9.0346 20.0592L9.28874 21.523C9.41766 22.2651 10.0474 22.7852 10.7716 22.7852C10.843 22.7852 10.9151 22.7801 10.9878 22.7699L12.4446 22.5617C12.6016 22.5392 12.7573 22.5904 12.8713 22.7019L13.9288 23.7351C14.2232 24.0229 14.6009 24.1667 14.9788 24.1667C15.3565 24.1667 15.7345 24.0229 16.0289 23.7351L17.0864 22.7019C17.2004 22.5904 17.3561 22.5395 17.5131 22.5617L18.9699 22.7699C19.7813 22.8857 20.5275 22.3382 20.6689 21.523L20.9231 20.0592C20.9505 19.9013 21.0466 19.7676 21.187 19.6924L22.4868 18.9959C23.2106 18.6083 23.4959 17.722 23.1362 16.9786ZM12.9803 10.875C13.9904 10.875 14.8123 11.7052 14.8123 12.7255C14.8123 13.7457 13.9904 14.5759 12.9803 14.5759C11.9702 14.5759 11.1482 13.7457 11.1482 12.7255C11.1482 11.7052 11.9702 10.875 12.9803 10.875ZM12.0348 19.1042C11.9373 19.2026 11.8094 19.2522 11.6815 19.2522C11.5536 19.2522 11.4257 19.203 11.3282 19.1042C11.133 18.907 11.133 18.5878 11.3282 18.3906L17.9232 11.7295C18.1185 11.5323 18.4345 11.5323 18.6298 11.7295C18.825 11.9267 18.825 12.2459 18.6298 12.4431L12.0348 19.1042ZM16.9774 19.9587C15.9673 19.9587 15.1453 19.1285 15.1453 18.1082C15.1453 17.088 15.9673 16.2578 16.9774 16.2578C17.9875 16.2578 18.8095 17.088 18.8095 18.1082C18.8095 19.1285 17.9875 19.9587 16.9774 19.9587Z"
    fill="white"
  />
  <defs>
    <linearGradient
      id="paint0_linear_1362_16723"
      x1="10"
      y1="26.4474"
      x2="36.5566"
      y2="12.3613"
      gradientUnits="userSpaceOnUse"
    >
      <stop stop-color="#0FD186" />
      <stop offset="1" stop-color="#3FDA9E" />
    </linearGradient>
  </defs>
</svg>
