<svg width="30" height="30" viewBox="0 0 30 30" fill="none" xmlns="http://www.w3.org/2000/svg">
  <rect width="30" height="30" rx="15" fill="url(#paint0_linear_1362_16664)" />
  <path
    d="M14.7625 24.1666H20.8851C21.5155 24.1666 22.0272 23.6549 22.0272 23.0245V8.17349V6.97531C22.0272 6.34491 21.5155 5.83325 20.8851 5.83325H14.7625H12.7267V6.21106C12.731 6.24992 12.7332 6.29094 12.7332 6.33196V8.82116V9.46019C12.7332 10.3475 12.0121 11.0686 11.1248 11.0686H10.4858H7.99655C7.96416 11.0686 7.92962 11.0664 7.89724 11.0643H7.5V23.0245C7.5 23.6549 8.01166 24.1666 8.64206 24.1666H9.89421H14.7625ZM14.9935 20.2849H11.0017C10.7038 20.2849 10.462 20.0431 10.462 19.7452C10.462 19.4472 10.7038 19.2054 11.0017 19.2054H14.9957C15.2936 19.2054 15.5354 19.4472 15.5354 19.7452C15.5354 20.0431 15.2915 20.2849 14.9935 20.2849ZM18.9875 17.5301H11.0017C10.7038 17.5301 10.462 17.2883 10.462 16.9904C10.462 16.6925 10.7038 16.4507 11.0017 16.4507H18.9875C19.2854 16.4507 19.5272 16.6925 19.5272 16.9904C19.5272 17.2883 19.2854 17.5301 18.9875 17.5301ZM11.0017 13.5254H18.9875C19.2854 13.5254 19.5272 13.7672 19.5272 14.0651C19.5272 14.363 19.2854 14.6048 18.9875 14.6048H11.0017C10.7038 14.6048 10.462 14.363 10.462 14.0651C10.462 13.7672 10.7038 13.5254 11.0017 13.5254Z"
    fill="white"
  />
  <path
    d="M7.99627 10.421H11.1245C11.1267 10.421 11.131 10.421 11.1331 10.421C11.6556 10.4166 12.0787 9.99349 12.0831 9.47104C12.0831 9.46888 12.0831 9.46456 12.0831 9.46241V6.33202C12.0831 6.04273 11.8456 5.85059 11.5995 5.85059C11.4807 5.85059 11.362 5.89376 11.2627 5.99307L7.65517 9.60057C7.35292 9.90282 7.56665 10.421 7.99627 10.421Z"
    fill="white"
  />
  <defs>
    <linearGradient
      id="paint0_linear_1362_16664"
      x1="12.5"
      y1="21.7105"
      x2="35.5665"
      y2="11.4449"
      gradientUnits="userSpaceOnUse"
    >
      <stop stop-color="#FFAE06" />
      <stop offset="1" stop-color="#FFBE38" />
    </linearGradient>
  </defs>
</svg>
