<svg width="30" height="30" viewBox="0 0 30 30" fill="none" xmlns="http://www.w3.org/2000/svg">
  <rect width="30" height="30" rx="15" fill="url(#paint0_linear_1362_16610)" />
  <path
    d="M14.2768 18.8542C14.2768 18.5824 14.3007 18.3186 14.3407 18.0628C12.614 18.0229 11.2231 16.6159 11.2231 14.8733C11.2231 13.1066 12.654 11.6757 14.4206 11.6757C15.8915 11.6757 17.1226 12.675 17.4903 14.0339C18.1058 13.7781 18.7853 13.6342 19.4968 13.6342C20.0483 13.6342 20.5839 13.7222 21.0875 13.882L21.9109 13.1306C22.1907 12.8748 22.2547 12.4671 22.0628 12.1394L20.6079 9.6213C20.4241 9.29355 20.0324 9.14166 19.6726 9.26157L18.2018 9.72522C18.0179 9.58932 17.826 9.46142 17.6262 9.3495C17.4184 9.2296 17.1945 9.11768 16.9707 9.01376L16.6589 7.51091C16.579 7.14319 16.2512 6.87939 15.8755 6.87939H12.9658C12.5901 6.87939 12.2703 7.14319 12.1904 7.51091L11.8626 9.01376C11.6468 9.10969 11.4389 9.21361 11.2391 9.32552C11.0312 9.44543 10.8234 9.58133 10.6316 9.72522L9.16068 9.25358C8.80895 9.14166 8.41725 9.29355 8.22539 9.6133L6.77051 12.1394C6.58665 12.4591 6.6506 12.8748 6.93038 13.1306L8.06552 14.1698C8.04153 14.4016 8.02555 14.6415 8.02555 14.8733C8.02555 15.1051 8.04153 15.3449 8.06552 15.5847L6.93038 16.6239C6.6506 16.8797 6.58665 17.2874 6.7785 17.6152L8.23339 20.1332C8.41725 20.461 8.80895 20.6129 9.16867 20.493L10.6395 20.0293C10.8394 20.1732 11.0472 20.3091 11.2551 20.429C11.4549 20.5409 11.6548 20.6449 11.8626 20.7408L12.1904 22.2436C12.2703 22.6034 12.5901 22.8672 12.9658 22.8672H15.8755C15.9555 22.8672 16.0354 22.8512 16.1074 22.8272C14.9882 21.8679 14.2768 20.445 14.2768 18.8542Z"
    fill="white"
  />
  <path
    fill-rule="evenodd"
    clip-rule="evenodd"
    d="M21.095 16.0886C20.9911 16.0247 20.8872 15.9767 20.7753 15.9287L20.6154 15.1853C20.5754 15.0014 20.4156 14.8735 20.2317 14.8735H18.8008C18.6169 14.8735 18.4571 15.0014 18.4171 15.1853L18.2572 15.9287C18.1533 15.9767 18.0494 16.0247 17.9534 16.0806C17.8495 16.1366 17.7536 16.2005 17.6577 16.2725L16.9382 16.0406C16.7624 15.9847 16.5705 16.0566 16.4826 16.2165L15.7711 17.4556C15.6752 17.6154 15.7072 17.8153 15.8431 17.9432L16.4026 18.4548C16.3866 18.5747 16.3866 18.6866 16.3866 18.8065C16.3866 18.9184 16.3946 19.0383 16.4026 19.1583L15.8431 19.6699C15.7072 19.7978 15.6752 19.9976 15.7711 20.1575L16.4826 21.3965C16.5785 21.5564 16.7624 21.6284 16.9382 21.5724L17.6577 21.3406C17.7536 21.4125 17.8575 21.4765 17.9614 21.5404C18.0574 21.5964 18.1613 21.6444 18.2652 21.6923L18.4251 22.4357C18.4651 22.6196 18.6249 22.7475 18.8088 22.7475H20.2397C20.4236 22.7475 20.5834 22.6196 20.6234 22.4357L20.7833 21.6923C20.8952 21.6444 20.9991 21.5884 21.103 21.5324C21.199 21.4765 21.2949 21.4125 21.3908 21.3486L22.1103 21.5804C22.2861 21.6364 22.478 21.5644 22.5659 21.4045L23.2774 20.1655C23.3733 20.0056 23.3413 19.8058 23.2054 19.6779L22.6459 19.1663C22.6538 19.0304 22.6538 18.9184 22.6538 18.7985C22.6538 18.6866 22.6459 18.5667 22.6379 18.4548L23.1974 17.9432C23.3333 17.8153 23.3653 17.6154 23.2694 17.4556L22.5579 16.2165C22.462 16.0566 22.2781 15.9847 22.1023 16.0406L21.3828 16.2725C21.2869 16.2005 21.191 16.1446 21.095 16.0886ZM19.5123 20.3733C20.3836 20.3733 21.087 19.6699 21.087 18.7985C21.087 17.9272 20.3836 17.2237 19.5123 17.2237C18.6409 17.2237 17.9375 17.9272 17.9375 18.7985C17.9455 19.6699 18.6489 20.3733 19.5123 20.3733Z"
    fill="white"
  />
  <defs>
    <linearGradient
      id="paint0_linear_1362_16610"
      x1="10"
      y1="24.8684"
      x2="35.0519"
      y2="13.5638"
      gradientUnits="userSpaceOnUse"
    >
      <stop stop-color="#0088FF" />
      <stop offset="1" stop-color="#33A0FF" />
    </linearGradient>
  </defs>
</svg>
