<svg width="26" height="26" viewBox="0 0 26 26" fill="none" xmlns="http://www.w3.org/2000/svg">
<path d="M7.44451 8.55522C7.14983 8.55522 6.86721 8.43816 6.65884 8.22979C6.45047 8.02141 6.3334 7.7388 6.3334 7.44412C6.3334 7.14943 6.45047 6.86682 6.65884 6.65844C6.86721 6.45007 7.14983 6.33301 7.44451 6.33301H24.1111C24.4058 6.33301 24.6884 6.45007 24.8968 6.65844C25.1052 6.86682 25.2222 7.14943 25.2222 7.44412C25.2222 7.7388 25.1052 8.02141 24.8968 8.22979C24.6884 8.43816 24.4058 8.55522 24.1111 8.55522H7.44451Z" fill="#0088FF"/>
<path d="M18.5557 14.1106C18.336 14.1106 18.1212 14.0454 17.9385 13.9233C17.7558 13.8012 17.6134 13.6277 17.5294 13.4247C17.4453 13.2217 17.4233 12.9983 17.4661 12.7828C17.509 12.5673 17.6148 12.3693 17.7701 12.214L22.5401 7.44397L17.7701 2.67399C17.664 2.57149 17.5794 2.44888 17.5211 2.31332C17.4629 2.17777 17.4322 2.03197 17.431 1.88443C17.4297 1.7369 17.4578 1.59059 17.5137 1.45404C17.5695 1.31749 17.652 1.19343 17.7564 1.08911C17.8607 0.984783 17.9847 0.90228 18.1213 0.846412C18.2578 0.790545 18.4041 0.762432 18.5517 0.763714C18.6992 0.764996 18.845 0.795647 18.9806 0.853879C19.1161 0.912111 19.2387 0.996758 19.3412 1.10288L24.8968 6.65842C25.1051 6.86678 25.2221 7.14934 25.2221 7.44397C25.2221 7.73859 25.1051 8.02116 24.8968 8.22952L19.3412 13.7851C19.2384 13.8887 19.116 13.9708 18.9811 14.0267C18.8463 14.0826 18.7017 14.1111 18.5557 14.1106Z" fill="#0088FF"/>
<path d="M1.88945 19.6666C1.59477 19.6666 1.31215 19.5495 1.10378 19.3411C0.895406 19.1327 0.778343 18.8501 0.778343 18.5554C0.778343 18.2608 0.895406 17.9781 1.10378 17.7698C1.31215 17.5614 1.59477 17.4443 1.88945 17.4443H18.5561C18.8507 17.4443 19.1334 17.5614 19.3417 17.7698C19.5501 17.9781 19.6672 18.2608 19.6672 18.5554C19.6672 18.8501 19.5501 19.1327 19.3417 19.3411C19.1334 19.5495 18.8507 19.6666 18.5561 19.6666H1.88945Z" fill="#0088FF"/>
<path d="M7.44462 25.2215C7.29864 25.222 7.15401 25.1935 7.01915 25.1376C6.88429 25.0817 6.76189 24.9995 6.65907 24.8959L1.10353 19.3404C0.89523 19.132 0.778214 18.8494 0.778214 18.5548C0.778214 18.2602 0.89523 17.9776 1.10353 17.7693L6.65907 12.2137C6.76156 12.1076 6.88417 12.023 7.01973 11.9647C7.15529 11.9065 7.30109 11.8758 7.44862 11.8746C7.59615 11.8733 7.74246 11.9014 7.87901 11.9573C8.01556 12.0131 8.13962 12.0956 8.24394 12.1999C8.34827 12.3043 8.43077 12.4283 8.48664 12.5649C8.54251 12.7014 8.57062 12.8477 8.56934 12.9953C8.56806 13.1428 8.53741 13.2886 8.47917 13.4242C8.42094 13.5597 8.33629 13.6823 8.23017 13.7848L3.46019 18.5548L8.23017 23.3248C8.38552 23.4802 8.4913 23.6781 8.53415 23.8936C8.57701 24.1091 8.555 24.3325 8.47092 24.5355C8.38685 24.7385 8.24447 24.912 8.06179 25.0341C7.87912 25.1562 7.66434 25.2214 7.44462 25.2215Z" fill="#0088FF"/>
</svg>
