<svg width="112" height="24" viewBox="0 0 112 24" fill="none" xmlns="http://www.w3.org/2000/svg">
<g style="mix-blend-mode:multiply" clip-path="url(#clip0_10074_110690)">
<path d="M68.3384 19.5898V9.44238H73.8098V10.3686H69.3456V14.0184H73.6601V14.9447H69.3456V18.6912H73.8098V19.6037L68.3384 19.5898Z" fill="#0088FF"/>
<path d="M79.499 19.5894L77.5391 16.5756L75.5792 19.5894H74.4631L76.9947 15.7738L74.4631 12.0825H75.5928L77.5391 14.9719L79.4854 12.0825H80.6287L78.0971 15.7738L80.6287 19.5894H79.499V19.5894Z" fill="#0088FF"/>
<path d="M87.9909 18.6357C87.2287 19.3961 86.2896 19.7693 85.1735 19.7693C83.935 19.7693 82.9686 19.2716 82.2881 18.2624H82.2609V22.2163H81.3218V12.0827H82.2609V13.3961H82.2881C82.9823 12.3869 83.9486 11.8892 85.1735 11.8892C86.276 11.8892 87.2015 12.2624 87.9637 13.009C88.7395 13.7693 89.1342 14.6956 89.1342 15.8154C89.1478 16.9352 88.7667 17.8753 87.9909 18.6357ZM87.3512 13.6311C86.7796 13.0366 86.0582 12.7463 85.1872 12.7463C84.3569 12.7463 83.6492 13.0505 83.0775 13.6587C82.5059 14.267 82.2337 14.9859 82.2337 15.8293C82.2337 16.6726 82.5195 17.3915 83.0775 17.9859C83.6492 18.5942 84.3569 18.8846 85.1872 18.8846C86.0582 18.8846 86.766 18.5942 87.3376 18.0136C87.9093 17.4329 88.1951 16.7002 88.1951 15.8293C88.1951 14.9721 87.9229 14.2256 87.3512 13.6311Z" fill="#0088FF"/>
<path d="M93.2733 12.9122C91.8715 13.0228 91.1637 13.797 91.1637 15.2071V19.5896H90.2246V12.0827H91.1637V13.1749H91.1909C91.3815 12.7187 91.6673 12.4007 92.0212 12.1933C92.3206 12.0274 92.7289 11.9306 93.2733 11.8892V12.9122V12.9122Z" fill="#0088FF"/>
<path d="M101.289 16.189H94.5659C94.6067 16.9217 94.9062 17.5577 95.4778 18.1107C96.0494 18.6499 96.7027 18.9125 97.4241 18.9125C98.0093 18.9125 98.5402 18.7605 99.0165 18.4425C99.5201 18.1107 99.8604 17.6821 100.065 17.1429H101.072C100.799 17.931 100.323 18.5669 99.6562 19.0508C98.9893 19.5346 98.2407 19.7835 97.4377 19.7835C96.3761 19.7835 95.4642 19.3964 94.702 18.6222C93.9534 17.8618 93.5859 16.9356 93.5859 15.8572C93.5859 14.7789 93.9534 13.8526 94.702 13.0784C95.4642 12.2904 96.3625 11.9033 97.4241 11.9033C98.4993 11.9033 99.4112 12.3042 100.173 13.1061C100.922 13.8941 101.303 14.8342 101.303 15.9264L101.289 16.189ZM100.337 15.3181C100.214 14.5715 99.8876 13.9632 99.3568 13.4794C98.826 12.9955 98.1863 12.7466 97.4513 12.7466C96.7163 12.7466 96.0903 12.9955 95.5458 13.4794C95.015 13.9632 94.6884 14.5715 94.5659 15.3181H100.337Z" fill="#0088FF"/>
<path d="M104.135 19.7693C103.481 19.7693 102.937 19.5481 102.501 19.1196C102.079 18.6772 101.862 18.1242 101.862 17.4606V17.3776H102.801C102.814 18.4007 103.263 18.9122 104.121 18.9122C105.046 18.9122 105.496 18.4698 105.496 17.5712C105.496 17.1288 105.319 16.7832 104.965 16.5205C104.829 16.4237 104.638 16.3131 104.407 16.2164L103.781 15.9675C103.522 15.8707 103.304 15.774 103.141 15.691C102.923 15.5804 102.733 15.456 102.597 15.3177C102.243 14.9859 102.066 14.5435 102.066 13.9767C102.066 13.3684 102.27 12.8707 102.665 12.4698C103.059 12.0827 103.563 11.8892 104.175 11.8892C104.747 11.8892 105.223 12.0827 105.604 12.4836C105.986 12.8707 106.19 13.3684 106.19 13.9352H105.251C105.196 13.1472 104.829 12.7601 104.148 12.7601C103.4 12.7601 103.032 13.1334 103.032 13.8799C103.032 14.2532 103.209 14.5574 103.563 14.7786C103.699 14.8615 103.89 14.9445 104.121 15.0412L104.271 15.0965C104.311 15.1104 104.352 15.1242 104.434 15.1518L104.747 15.2763C105.006 15.373 105.21 15.4836 105.373 15.5666C105.591 15.691 105.781 15.8293 105.917 15.9813C106.271 16.3546 106.448 16.8523 106.448 17.4744C106.448 19.009 105.672 19.7693 104.135 19.7693Z" fill="#0088FF"/>
<path d="M109.034 19.7693C108.381 19.7693 107.837 19.5481 107.401 19.1196C106.979 18.6772 106.761 18.1242 106.761 17.4606V17.3776H107.701C107.714 18.4007 108.163 18.9122 109.021 18.9122C109.946 18.9122 110.395 18.4698 110.395 17.5712C110.395 17.1288 110.219 16.7832 109.865 16.5205C109.729 16.4237 109.538 16.3131 109.307 16.2164L108.681 15.9675C108.422 15.8707 108.204 15.774 108.041 15.691C107.823 15.5804 107.633 15.456 107.496 15.3177C107.143 14.9859 106.966 14.5435 106.966 13.9767C106.966 13.3684 107.17 12.8707 107.564 12.4698C107.959 12.0827 108.463 11.8892 109.062 11.8892C109.633 11.8892 110.11 12.0827 110.491 12.4836C110.872 12.8707 111.076 13.3684 111.076 13.9352H110.137C110.082 13.1472 109.715 12.7601 109.034 12.7601C108.286 12.7601 107.918 13.1334 107.918 13.8799C107.918 14.2532 108.095 14.5574 108.449 14.7786C108.585 14.8615 108.776 14.9445 109.007 15.0412L109.157 15.0965C109.198 15.1104 109.239 15.1242 109.32 15.1518L109.633 15.2763C109.892 15.373 110.096 15.4836 110.259 15.5666C110.477 15.691 110.668 15.8293 110.804 15.9813C111.158 16.3546 111.335 16.8523 111.335 17.4744C111.362 19.009 110.586 19.7693 109.034 19.7693Z" fill="#0088FF"/>
<path d="M18.551 11.3641V3.73272C18.551 1.67281 16.9042 0 14.8762 0L3.67482 1.86636C1.64686 1.86636 0 3.53917 0 5.6129V16.9908C0 19.0507 1.64686 20.7373 3.67482 20.7373H14.8762C16.9042 20.7373 18.551 19.0645 18.551 16.9908V12.5392C18.5374 12.3456 18.5374 12.1521 18.5374 11.9585C18.5238 11.7512 18.5374 11.5576 18.551 11.3641ZM14.2229 18.2627C12.9299 19.1751 11.3647 19.6313 9.5273 19.6313C6.88688 19.6313 4.45061 18.6636 2.20489 16.7281L4.60033 14.2673C6.08386 15.8848 7.78517 16.6866 9.71785 16.6866C10.4528 16.6866 11.1469 16.5346 11.773 16.2166C12.5624 15.8295 12.9571 15.3041 12.9571 14.6129C12.9571 13.6175 12.2358 12.9816 10.8067 12.7051L8.83317 12.318C7.06381 11.9723 5.75721 11.5438 4.89976 11.0184C3.62038 10.2166 2.98068 9.08295 2.98068 7.60369C2.98068 5.91705 3.6476 4.57604 4.99503 3.58065C6.17914 2.6682 7.63545 2.21198 9.36398 2.21198C11.5553 2.21198 13.7057 2.97235 15.8153 4.49309L13.8282 6.98157C12.3719 5.79263 10.9156 5.17051 9.43203 5.17051C8.71068 5.17051 8.05738 5.33641 7.48574 5.65438C6.79161 6.04147 6.43773 6.58065 6.43773 7.25806C6.43773 8.14286 7.15909 8.7235 8.58818 9L12.1133 9.67742C14.9851 10.2166 16.4142 11.6959 16.4142 14.0737C16.4006 15.8433 15.6792 17.2396 14.2229 18.2627Z" fill="#0FD186"/>
<path d="M30.4194 6.76045C29.8614 5.94478 29.1672 5.32266 28.3506 4.90792C27.534 4.47935 26.6357 4.27197 25.6557 4.27197C24.6077 4.27197 23.655 4.47935 22.7703 4.88027C21.8856 5.28119 21.0962 5.91713 20.3749 6.76045C19.9257 7.2858 19.5719 7.81114 19.2997 8.35031C19.0411 8.87566 18.8505 9.4563 18.728 10.0646C18.6464 10.4932 18.5919 10.9217 18.5647 11.3641V12.5392C18.6736 14.3503 19.2588 15.9125 20.3204 17.2121C20.9601 17.9863 21.7359 18.5807 22.6206 19.0093C23.5189 19.4379 24.4852 19.6452 25.5468 19.6452C26.4451 19.6452 27.3434 19.424 28.2417 18.9816C29.14 18.5392 29.8477 17.9448 30.3649 17.2121H30.4194V19.1752H33.5634V4.72819H30.4194V6.76045V6.76045ZM29.7797 14.1291C29.4394 14.7927 28.9495 15.3042 28.3098 15.6775C27.6701 16.0508 26.9623 16.2443 26.1593 16.2443C25.0024 16.2443 24.0225 15.8434 23.1922 15.0416C22.362 14.2397 21.9537 13.2443 21.9537 12.083C21.9537 10.7973 22.3484 9.74662 23.1514 8.90331C23.9544 8.07381 24.9616 7.64524 26.2138 7.64524C26.8126 7.64524 27.357 7.75584 27.8606 7.96321C28.3642 8.18441 28.7997 8.47473 29.1672 8.86183C29.5211 9.24893 29.8069 9.69132 30.0111 10.2167C30.2152 10.742 30.3105 11.3088 30.3105 11.9171C30.3105 12.7328 30.1336 13.4793 29.7797 14.1291Z" fill="#0088FF"/>
<path d="M48.5485 8.11529C48.2354 7.52082 47.8815 7.02312 47.4868 6.60838C46.7791 5.79271 46.0033 5.18442 45.1731 4.82497C44.3428 4.4517 43.3901 4.27197 42.3285 4.27197C40.3278 4.27197 38.8034 5.04617 37.769 6.60838H37.701V4.72819H34.5706V24.0001H37.9732V17.613H38.0276C39.0756 18.9678 40.5047 19.6452 42.3149 19.6452C43.3221 19.6452 44.2612 19.4379 45.1459 19.0369C46.0305 18.636 46.7927 18.0692 47.446 17.3365C48.0993 16.6176 48.5893 15.7881 48.9432 14.8618C49.2834 13.9356 49.4604 12.9678 49.4604 11.9586C49.4604 11.295 49.3923 10.6452 49.2426 9.98165C49.0793 9.33188 48.8479 8.70976 48.5485 8.11529ZM45.4997 14.1015C45.1322 14.7651 44.6287 15.2904 43.989 15.6775C43.3357 16.0646 42.6279 16.2581 41.8385 16.2581C41.3758 16.2581 40.913 16.1614 40.423 15.9678C39.9331 15.7743 39.4975 15.5116 39.1164 15.166C38.2318 14.3641 37.7826 13.2858 37.7826 11.9586C37.7826 11.1844 37.9596 10.4517 38.327 9.80193C38.6945 9.13833 39.1845 8.61299 39.8242 8.23971C40.4639 7.85262 41.1716 7.67289 41.9474 7.67289C42.7096 7.67289 43.4037 7.86644 44.0298 8.26736C44.6559 8.66829 45.1459 9.19363 45.4997 9.85723C45.8536 10.5208 46.0305 11.2259 46.0305 11.9586C46.0441 12.719 45.8536 13.4379 45.4997 14.1015Z" fill="#0088FF"/>
<path d="M64.8678 8.99975C64.5004 8.07348 63.9696 7.25781 63.289 6.53892C62.6085 5.82002 61.8055 5.26703 60.9072 4.86611C59.9953 4.46519 59.029 4.25781 57.9946 4.25781C56.9194 4.25781 55.9258 4.45136 55.0003 4.85228C54.0748 5.2532 53.2581 5.79237 52.5504 6.49744C51.8563 7.20251 51.2982 8.01818 50.9035 8.95827C50.5088 9.89837 50.3047 10.9076 50.3047 11.9859C50.3047 13.3546 50.6449 14.6265 51.3255 15.8016C52.006 16.9767 52.9315 17.9168 54.0884 18.608C55.2453 19.2993 56.4974 19.6449 57.8449 19.6449C58.8656 19.6449 59.832 19.4514 60.7575 19.0643C61.683 18.6772 62.4996 18.1242 63.221 17.4053C63.9423 16.6864 64.4868 15.8569 64.8678 14.9306C65.2489 14.0044 65.4395 13.0228 65.4395 11.9721C65.4259 10.9214 65.2489 9.93984 64.8678 8.99975ZM61.4652 14.1288C61.1114 14.7924 60.6078 15.3039 59.9817 15.691C59.342 16.0643 58.6343 16.2578 57.8449 16.2578C57.0963 16.2578 56.4022 16.0643 55.7761 15.691C55.15 15.3039 54.6464 14.7924 54.2925 14.115C53.9251 13.4514 53.7481 12.7325 53.7481 11.9859C53.7481 10.797 54.1428 9.78777 54.9186 8.98592C55.2861 8.585 55.7352 8.2532 56.2797 8.01818C56.8105 7.78316 57.3413 7.65873 57.8449 7.65873C58.607 7.65873 59.3012 7.85228 59.9409 8.23938C60.5806 8.62648 61.0841 9.15182 61.4516 9.82924C61.8191 10.4928 61.996 11.2256 61.996 11.9859C61.996 12.7463 61.8191 13.4652 61.4652 14.1288Z" fill="#0088FF"/>
</g>
<defs>
<clipPath id="clip0_10074_110690">
<rect width="111.333" height="24" fill="white"/>
</clipPath>
</defs>
</svg>
