<svg width="80" height="40" viewBox="0 0 80 40" fill="none" xmlns="http://www.w3.org/2000/svg">
<g clip-path="url(#clip0_10063_98529)">
<path fill-rule="evenodd" clip-rule="evenodd" d="M43.0469 30.0371L41.1443 25.048L45.0553 21.009L48.4905 30.0637H43.0469V30.0371ZM53.9074 10L45.4776 18.7119L43.8649 14.4613L48.1701 10H53.9074ZM39.0296 19.4508L28.8028 30.0371H34.537L44.5791 19.662L40.9058 10H35.4622L39.0296 19.4508ZM15.2777 30.4534H20.3063L22.3888 23.5844C27.1827 23.5844 27.8901 23.3487 29.8938 22.4851C32.173 21.5432 35.12 18.2066 35.12 14.9486C35.12 11.8472 32.6052 10.3953 28.3228 10.3953H21.328L15.2777 30.4534ZM5.29895 29.5881C7.11578 29.5881 9.53837 29.3231 11.5067 27.9997C13.0566 26.9409 13.891 24.559 13.7399 23.0107C13.5126 20.7041 11.5825 19.7966 10.2578 19.0784C8.36345 18.0573 7.45676 17.8681 7.38099 16.5838C7.30521 15.4875 8.51629 14.5422 9.46259 14.2773C10.9389 13.8992 12.3394 13.8235 14.2699 15.1095C14.5712 13.7104 15.2915 12.538 16.4273 11.6305C15.5567 10.8744 12.7936 10.3071 10.6362 10.3071C8.17402 10.3036 6.35891 11.2124 4.7694 12.4597C3.29311 13.5943 2.34681 16.0897 2.68736 17.7158C3.02791 19.2642 4.58169 20.8921 6.01836 21.5725C7.68365 22.3668 9.68991 22.9715 9.34936 24.3706C9.00839 25.7319 7.04044 26.1478 5.82893 26.1099C4.50419 26.0721 2.80102 25.959 1.24896 25.6562L0 29.3623C1.77895 29.5894 3.52 29.5894 5.29895 29.5894V29.5881ZM25.2178 14.1633H26.9451C28.7533 14.1633 29.8137 14.7916 29.8137 16.0866C29.8137 17.4608 28.5561 18.8736 27.6133 19.2663C26.7488 19.6194 25.57 19.7394 23.5267 19.7394L25.2161 14.1654L25.2178 14.1633ZM54.7258 28.4346C54.7258 28.8003 54.6172 29.1579 54.4138 29.462C54.2104 29.7662 53.9213 30.0032 53.583 30.1432C53.2447 30.2831 52.8725 30.3198 52.5134 30.2484C52.1543 30.1771 51.8244 30.0009 51.5655 29.7423C51.3066 29.4836 51.1303 29.1541 51.0588 28.7954C50.9874 28.4366 51.0241 28.0648 51.1642 27.7268C51.3043 27.3889 51.5416 27.1001 51.846 26.8968C52.1505 26.6936 52.5084 26.5852 52.8745 26.5852C53.3655 26.5852 53.8364 26.78 54.1836 27.1268C54.5308 27.4737 54.7258 27.9441 54.7258 28.4346V28.4346ZM58.8417 17.7825H55.5696L58.6535 30.2001H60.9784L67.9529 17.7352H64.7266L60.7416 25.2708L58.8417 17.7825ZM71.8944 17.5576L69.1188 17.5752L67.2391 30.342H70.3704L71.3175 22.9487L74.9723 30.4375H78.2443L80 17.5933H77.2481L75.9672 25.1293L71.8944 17.5576Z" fill="#E85234"/>
</g>
<defs>
<clipPath id="clip0_10063_98529">
<rect width="80" height="40" fill="white"/>
</clipPath>
</defs>
</svg>
