<svg width="58" height="16" viewBox="0 0 58 16" fill="none" xmlns="http://www.w3.org/2000/svg">
<path fill-rule="evenodd" clip-rule="evenodd" d="M31.4866 15.4001L30.1216 11.6367L32.9276 8.59003L35.3923 15.4202H31.4866V15.4001ZM39.2788 0.285645L33.2306 6.85726L32.0735 3.65094L35.1625 0.285645H39.2788ZM28.6043 7.41463L21.2669 15.4001H25.381L32.586 7.57392L29.9505 0.285645H26.0448L28.6043 7.41463ZM11.563 15.7141H15.1708L16.665 10.5327C20.1045 10.5327 20.612 10.3549 22.0496 9.70347C23.6849 8.99297 25.7993 6.47606 25.7993 4.01851C25.7993 1.67906 23.995 0.583794 20.9225 0.583794H15.9039L11.563 15.7141ZM4.40343 15.0614C5.70696 15.0614 7.4451 14.8615 8.85737 13.8633C9.96938 13.0645 10.568 11.2679 10.4596 10.0999C10.2965 8.36001 8.91173 7.67547 7.96127 7.13367C6.60213 6.36348 5.9516 6.22073 5.89724 5.25199C5.84287 4.42502 6.71179 3.71193 7.39074 3.51208C8.44994 3.22691 9.45477 3.16981 10.8398 4.13985C11.0561 3.08449 11.5729 2.20009 12.3877 1.51555C11.7631 0.945207 9.78065 0.517286 8.23278 0.517286C6.46622 0.514691 5.16392 1.20021 4.02349 2.14105C2.96429 2.99689 2.28534 4.87922 2.52968 6.10588C2.77401 7.27383 3.88881 8.50178 4.91959 9.01503C6.11439 9.61425 7.55384 10.0704 7.3095 11.1258C7.06486 12.1526 5.6529 12.4663 4.78368 12.4377C3.83321 12.4092 2.61123 12.3239 1.49766 12.0955L0.601562 14.8911C1.87791 15.0624 3.12708 15.0624 4.40343 15.0624V15.0614ZM18.6947 3.42611H19.934C21.2313 3.42611 21.9921 3.9001 21.9921 4.87695C21.9921 5.9135 21.0899 6.97924 20.4134 7.27545C19.7931 7.5418 18.9474 7.63232 17.4814 7.63232L18.6935 3.42773L18.6947 3.42611ZM39.866 14.1913C39.866 14.4672 39.7881 14.7369 39.6421 14.9663C39.4962 15.1957 39.2887 15.3745 39.046 15.4801C38.8033 15.5857 38.5363 15.6133 38.2786 15.5595C38.021 15.5057 37.7843 15.3728 37.5985 15.1777C37.4128 14.9826 37.2863 14.7341 37.235 14.4634C37.1838 14.1928 37.2101 13.9123 37.3106 13.6574C37.4111 13.4025 37.5814 13.1846 37.7998 13.0313C38.0182 12.8781 38.275 12.7962 38.5377 12.7962C38.89 12.7962 39.2279 12.9432 39.4769 13.2048C39.726 13.4665 39.866 13.8213 39.866 14.1913ZM42.819 6.15617H40.4714L42.684 15.5231H44.352L49.3561 6.12048H47.0413L44.1822 11.8048L42.819 6.15617ZM52.184 5.98649L50.1926 5.9998L48.844 15.6301H51.0906L51.7701 10.0532L54.3923 15.7021H56.7399L57.9996 6.01342H56.0251L55.1062 11.698L52.184 5.98649Z" fill="#E85234"/>
</svg>
