<svg width="40" height="40" viewBox="0 0 40 40" fill="none" xmlns="http://www.w3.org/2000/svg">
  <rect x="0.25" y="0.25" width="39.5" height="39.5" rx="5.75" stroke="#E8EAEB" stroke-width="0.5"/>
  <g opacity="0.3">
    <path opacity="0.3" d="M26.6219 10.5664C25.893 10.5657 25.1941 10.2758 24.6787 9.76037C24.1633 9.24495 23.8734 8.54608 23.8727 7.81716V4H11.5879C10.6363 4 9.72371 4.37802 9.05086 5.05087C8.37801 5.72372 8 6.63628 8 7.58784V29.2163C8.00141 30.1669 8.38004 31.0781 9.05274 31.7498C9.72544 32.4215 10.6372 32.7988 11.5879 32.7988H26.3339C26.8052 32.799 27.2719 32.7063 27.7073 32.5261C28.1428 32.3459 28.5385 32.0816 28.8718 31.7484C29.2051 31.4152 29.4695 31.0197 29.6499 30.5843C29.8302 30.1489 29.9231 29.6822 29.9231 29.211V10.5611L26.6219 10.5664Z" fill="#0FD186"/>
  </g>
  <path d="M29.9231 10.5664H26.6219C25.893 10.5657 25.1941 10.2758 24.6787 9.76037C24.1633 9.24495 23.8734 8.54608 23.8727 7.81716V4L29.9231 10.5664Z" fill="#0FD186"/>
  <path d="M32.5243 26.7471H15.853C14.6705 26.7471 13.7118 27.7057 13.7118 28.8883V33.8588C13.7118 35.0414 14.6705 36 15.853 36H32.5243C33.7069 36 34.6656 35.0414 34.6656 33.8588V28.8883C34.6656 27.7057 33.7069 26.7471 32.5243 26.7471Z" fill="#0FD186"/>
  <path d="M18.7315 32.4148V33.3814H17.7329V32.4148H18.7315Z" fill="white"/>
  <path d="M22.3194 29.7509C22.6568 30.024 22.886 30.4083 22.966 30.8349H21.9447C21.8766 30.6578 21.7562 30.5058 21.5994 30.3989C21.4345 30.2908 21.2406 30.2354 21.0434 30.2402C20.9135 30.2363 20.7843 30.2623 20.666 30.3161C20.5476 30.37 20.4432 30.4503 20.3608 30.5509C20.1776 30.7878 20.0854 31.0825 20.1008 31.3815C20.0852 31.6794 20.1775 31.9729 20.3608 32.2082C20.4435 32.3082 20.5481 32.3879 20.6664 32.4413C20.7847 32.4947 20.9137 32.5203 21.0434 32.5161C21.2406 32.521 21.4345 32.4656 21.5994 32.3575C21.7561 32.2528 21.8774 32.1031 21.9474 31.9282H22.9687C22.887 32.3534 22.6581 32.7363 22.3221 33.0095C21.9616 33.2866 21.5151 33.4282 21.0608 33.4095C20.703 33.4173 20.3497 33.3284 20.0382 33.1521C19.7463 32.9834 19.51 32.7332 19.3582 32.4322C19.1939 32.1053 19.1115 31.7433 19.1182 31.3775C19.1113 31.0113 19.1937 30.6489 19.3582 30.3216C19.51 30.0205 19.7463 29.7704 20.0382 29.6016C20.3497 29.4253 20.703 29.3364 21.0608 29.3443C21.5149 29.3287 21.9602 29.4725 22.3194 29.7509Z" fill="white"/>
  <path d="M26.2165 32.8388C26.1016 33.0222 25.937 33.1692 25.7419 33.2628C25.5044 33.374 25.2441 33.4278 24.9819 33.4201C24.5871 33.4361 24.1981 33.3213 23.8753 33.0935C23.7327 32.9863 23.6161 32.8485 23.5339 32.6902C23.4518 32.5318 23.4062 32.3571 23.4007 32.1788H24.4286C24.4357 32.3132 24.4934 32.4398 24.5899 32.5335C24.6855 32.6229 24.8125 32.6709 24.9433 32.6668C25.0505 32.6723 25.1556 32.636 25.2366 32.5655C25.2717 32.5307 25.2993 32.4891 25.3177 32.4433C25.336 32.3974 25.3447 32.3482 25.3432 32.2988C25.3445 32.2522 25.3364 32.2057 25.3195 32.1622C25.3025 32.1187 25.2771 32.0791 25.2446 32.0455C25.1745 31.9744 25.0912 31.9178 24.9993 31.8789C24.9006 31.8349 24.7659 31.7828 24.5926 31.7228C24.381 31.6532 24.1743 31.5695 23.974 31.4722C23.8093 31.3871 23.6679 31.263 23.562 31.1109C23.4402 30.9263 23.38 30.7078 23.39 30.4869C23.3845 30.2679 23.4475 30.0526 23.57 29.8709C23.696 29.6935 23.8692 29.5549 24.07 29.471C24.3023 29.3769 24.5514 29.3316 24.8019 29.3376C25.1807 29.3176 25.5548 29.4292 25.8606 29.6536C25.9911 29.7594 26.098 29.8915 26.1742 30.0412C26.2505 30.191 26.2944 30.3551 26.3032 30.5229H25.2593C25.2464 30.4056 25.1959 30.2957 25.1153 30.2096C25.0736 30.1701 25.0243 30.1395 24.9705 30.1195C24.9166 30.0996 24.8593 30.0908 24.8019 30.0936C24.7023 30.0885 24.6043 30.1208 24.5273 30.1842C24.4912 30.2182 24.4632 30.2597 24.4452 30.3058C24.4272 30.352 24.4197 30.4015 24.4233 30.4509C24.4221 30.4951 24.4298 30.5391 24.4458 30.5803C24.4619 30.6215 24.4859 30.6591 24.5166 30.6909C24.5827 30.7605 24.6626 30.8154 24.7513 30.8522C24.8446 30.8935 24.9806 30.9469 25.1513 31.0109C25.3668 31.0802 25.5767 31.1658 25.7792 31.2669C25.9453 31.3562 26.0882 31.4831 26.1965 31.6375C26.3202 31.8244 26.3813 32.0457 26.3712 32.2695C26.3722 32.4698 26.3187 32.6666 26.2165 32.8388Z" fill="white"/>
  <path d="M27.6579 29.3896L28.6352 32.3935L29.6124 29.3896H30.6457L29.2565 33.3815H28.0085L26.6246 29.3896H27.6579Z" fill="white"/>
  <path d="M23.8514 24.1058H14.0718C13.2251 24.1058 12.5372 23.2632 12.5372 22.2259V15.1342C12.5372 14.0983 13.2251 13.2556 14.0718 13.2556H23.8514C24.698 13.2556 25.386 14.0983 25.386 15.1342V22.2259C25.386 23.2632 24.698 24.1058 23.8514 24.1058ZM14.0718 14.2156C13.6585 14.2156 13.3211 14.6276 13.3211 15.1342V22.2259C13.3211 22.7326 13.6585 23.1446 14.0718 23.1446H23.8514C24.2647 23.1446 24.6007 22.7326 24.6007 22.2259V15.1342C24.6007 14.6276 24.2647 14.2156 23.8514 14.2156H14.0718Z" fill="#0FD186"/>
  <path d="M24.994 19.8353H12.9291V20.7966H24.994V19.8353Z" fill="#0FD186"/>
  <path d="M24.994 16.5394H12.9291V17.5007H24.994V16.5394Z" fill="#0FD186"/>
  <path d="M21.9048 13.7356H20.9435V23.6245H21.9048V13.7356Z" fill="#0FD186"/>
  <path d="M16.9797 13.7356H16.0184V23.6245H16.9797V13.7356Z" fill="#0FD186"/>
</svg>
