<svg width="40" height="40" viewBox="0 0 40 40" fill="none" xmlns="http://www.w3.org/2000/svg">
  <rect x="0.25" y="0.25" width="39.5" height="39.5" rx="5.75" stroke="#E8EAEB" stroke-width="0.5"/>
  <g opacity="0.3">
    <path opacity="0.3" d="M26.6219 10.5664C25.893 10.5657 25.1941 10.2758 24.6787 9.76037C24.1633 9.24495 23.8734 8.54608 23.8727 7.81716V4H11.5892C11.1179 3.99983 10.6512 4.09248 10.2158 4.27271C9.78031 4.45294 9.38464 4.7172 9.05134 5.05038C8.71804 5.38356 8.45364 5.77914 8.27325 6.21452C8.09286 6.64991 8 7.11656 8 7.58784V29.2163C8 29.6875 8.09286 30.1542 8.27325 30.5896C8.45364 31.025 8.71804 31.4206 9.05134 31.7538C9.38464 32.0869 9.78031 32.3512 10.2158 32.5314C10.6512 32.7116 11.1179 32.8043 11.5892 32.8041H26.3352C26.8064 32.8041 27.2729 32.7113 27.7082 32.531C28.1435 32.3507 28.5391 32.0864 28.8722 31.7533C29.2054 31.4201 29.4697 31.0246 29.65 30.5893C29.8303 30.154 29.9231 29.6874 29.9231 29.2163V10.5664H26.6219Z" fill="#0088FF"/>
  </g>
  <path d="M29.9231 10.5664H26.6219C25.893 10.5657 25.1941 10.2758 24.6787 9.76037C24.1633 9.24495 23.8734 8.54608 23.8727 7.81716V4L29.9231 10.5664Z" fill="#0088FF"/>
  <path d="M25.4127 15.1635H11.6479C11.5156 15.1635 11.3888 15.111 11.2953 15.0175C11.2018 14.924 11.1492 14.7971 11.1492 14.6649C11.1491 14.5993 11.1618 14.5343 11.1868 14.4737C11.2118 14.413 11.2485 14.3579 11.2948 14.3114C11.3411 14.265 11.3962 14.2281 11.4568 14.203C11.5173 14.1779 11.5823 14.1649 11.6479 14.1649H25.4127C25.5453 14.1649 25.6724 14.2176 25.7662 14.3114C25.86 14.4051 25.9126 14.5323 25.9126 14.6649C25.9123 14.7973 25.8594 14.9241 25.7657 15.0176C25.672 15.1111 25.545 15.1635 25.4127 15.1635Z" fill="#0088FF"/>
  <path d="M25.4127 18.1461H11.6479C11.5156 18.1461 11.3888 18.0935 11.2953 18C11.2018 17.9065 11.1492 17.7797 11.1492 17.6474C11.1491 17.5818 11.1618 17.5169 11.1868 17.4562C11.2118 17.3956 11.2485 17.3404 11.2948 17.294C11.3411 17.2475 11.3962 17.2107 11.4568 17.1855C11.5173 17.1604 11.5823 17.1475 11.6479 17.1475H25.4127C25.5453 17.1475 25.6724 17.2001 25.7662 17.2939C25.86 17.3876 25.9126 17.5148 25.9126 17.6474C25.9123 17.7798 25.8594 17.9066 25.7657 18.0001C25.672 18.0936 25.545 18.1461 25.4127 18.1461Z" fill="#0088FF"/>
  <path d="M25.4127 21.1286H11.6479C11.5823 21.1286 11.5173 21.1157 11.4568 21.0905C11.3962 21.0654 11.3411 21.0286 11.2948 20.9821C11.2485 20.9357 11.2118 20.8805 11.1868 20.8199C11.1618 20.7592 11.1491 20.6942 11.1492 20.6286C11.1492 20.4964 11.2018 20.3696 11.2953 20.2761C11.3888 20.1825 11.5156 20.13 11.6479 20.13H25.4127C25.545 20.13 25.672 20.1825 25.7657 20.276C25.8594 20.3694 25.9123 20.4963 25.9126 20.6286C25.9126 20.7613 25.86 20.8884 25.7662 20.9822C25.6724 21.0759 25.5453 21.1286 25.4127 21.1286Z" fill="#0088FF"/>
  <path d="M19.9835 24.1112H11.6479C11.5823 24.1112 11.5173 24.0982 11.4568 24.0731C11.3962 24.0479 11.3411 24.0111 11.2948 23.9646C11.2485 23.9182 11.2118 23.8631 11.1868 23.8024C11.1618 23.7418 11.1491 23.6768 11.1492 23.6112C11.1492 23.4789 11.2018 23.3521 11.2953 23.2586C11.3888 23.1651 11.5156 23.1125 11.6479 23.1125H19.9835C20.1158 23.1125 20.2426 23.1651 20.3361 23.2586C20.4297 23.3521 20.4822 23.4789 20.4822 23.6112C20.4824 23.6768 20.4696 23.7418 20.4446 23.8024C20.4196 23.8631 20.3829 23.9182 20.3366 23.9646C20.2903 24.0111 20.2353 24.0479 20.1747 24.0731C20.1141 24.0982 20.0491 24.1112 19.9835 24.1112Z" fill="#0088FF"/>
  <path d="M32.5257 26.7471H15.8544C14.6718 26.7471 13.7131 27.7057 13.7131 28.8883V33.8588C13.7131 35.0414 14.6718 36 15.8544 36H32.5257C33.7083 36 34.6669 35.0414 34.6669 33.8588V28.8883C34.6669 27.7057 33.7083 26.7471 32.5257 26.7471Z" fill="#0088FF"/>
  <path d="M18.1622 32.4495V33.4188H17.1583V32.4495H18.1622Z" fill="white"/>
  <path d="M22.0207 32.4522C21.8538 32.7553 21.6016 33.0029 21.2954 33.1642C20.9508 33.3404 20.5677 33.4279 20.1808 33.4188H18.6662V29.4097H20.1808C20.568 29.4001 20.9517 29.4857 21.2981 29.659C21.6031 29.8173 21.8545 30.0622 22.0207 30.3629C22.1931 30.683 22.2799 31.0421 22.2727 31.4056C22.2796 31.7703 22.1928 32.1306 22.0207 32.4522ZM20.9781 32.2509C21.0865 32.1396 21.1705 32.007 21.2246 31.8614C21.2788 31.7159 21.302 31.5606 21.2928 31.4056C21.3021 31.2507 21.2789 31.0956 21.2247 30.9503C21.1705 30.8049 21.0865 30.6725 20.9781 30.5616C20.7352 30.3486 20.4179 30.2403 20.0955 30.2603H19.6382V32.5508H20.0968C20.4185 32.5702 20.735 32.4625 20.9781 32.2509Z" fill="white"/>
  <path d="M25.758 29.611C26.063 29.7842 26.3151 30.0373 26.4872 30.343C26.6676 30.6658 26.7596 31.0305 26.7539 31.4002C26.76 31.7709 26.668 32.1365 26.4872 32.4602C26.3146 32.767 26.0615 33.021 25.7553 33.1948C25.4436 33.3728 25.0902 33.4648 24.7313 33.4615C24.3724 33.4646 24.0191 33.3726 23.7074 33.1948C23.4012 33.0214 23.1485 32.7673 22.9767 32.4602C22.7954 32.1368 22.7033 31.771 22.7101 31.4002C22.7032 31.0303 22.7952 30.6653 22.9767 30.343C23.1494 30.0372 23.402 29.7842 23.7074 29.611C24.0191 29.4332 24.3724 29.3412 24.7313 29.3443C25.0911 29.3409 25.4453 29.433 25.758 29.611ZM23.9714 30.5576C23.7747 30.7929 23.6746 31.094 23.6914 31.4002C23.6746 31.7052 23.7747 32.0052 23.9714 32.2389C24.0672 32.343 24.1846 32.4249 24.3154 32.4788C24.4463 32.5327 24.5873 32.5573 24.7287 32.5508C24.8696 32.5569 25.0101 32.5321 25.1404 32.4782C25.2708 32.4243 25.3878 32.3426 25.4833 32.2389C25.6809 32.0055 25.782 31.7056 25.7659 31.4002C25.7819 31.0954 25.6819 30.7957 25.486 30.5616C25.3902 30.4574 25.2728 30.3755 25.1419 30.3216C25.0111 30.2677 24.87 30.2431 24.7287 30.2496C24.5877 30.2431 24.4469 30.2673 24.3162 30.3205C24.1855 30.3737 24.0678 30.4545 23.9714 30.5576Z" fill="white"/>
  <path d="M30.3964 29.7723C30.7345 30.0474 30.9645 30.4332 31.0457 30.8615H30.0191C29.9498 30.684 29.8285 30.5316 29.6711 30.4242C29.5051 30.3162 29.3104 30.2609 29.1125 30.2656C28.9817 30.2614 28.8518 30.2873 28.7327 30.3414C28.6136 30.3955 28.5086 30.4763 28.4258 30.5776C28.2401 30.815 28.1456 31.1111 28.1592 31.4122C28.1456 31.7121 28.2402 32.0069 28.4258 32.2428C28.5093 32.343 28.6145 32.4228 28.7335 32.4762C28.8525 32.5295 28.9821 32.5551 29.1125 32.5508C29.3105 32.5561 29.5054 32.5007 29.6711 32.3921C29.8276 32.2867 29.9489 32.1367 30.0191 31.9615H31.0457C30.9632 32.3885 30.7334 32.7731 30.3964 33.0481C30.0337 33.325 29.5857 33.4665 29.1298 33.4481C28.7705 33.4557 28.4159 33.3663 28.1032 33.1894C27.8104 33.0193 27.573 32.7684 27.4192 32.4668C27.2539 32.136 27.1716 31.7699 27.1792 31.4002C27.1717 31.0305 27.254 30.6644 27.4192 30.3336C27.573 30.0319 27.8104 29.7811 28.1032 29.6109C28.4159 29.4341 28.7705 29.3447 29.1298 29.3523C29.5881 29.3401 30.0361 29.4887 30.3964 29.7723Z" fill="white"/>
</svg>
