<svg width="40" height="40" viewBox="0 0 40 40" fill="none" xmlns="http://www.w3.org/2000/svg">
  <rect x="0.25" y="0.25" width="39.5" height="39.5" rx="5.75" stroke="#E8EAEB" stroke-width="0.5"/>
  <g opacity="0.3">
    <path opacity="0.3" d="M26.6219 10.5664C25.893 10.5657 25.1941 10.2758 24.6787 9.76037C24.1633 9.24495 23.8734 8.54608 23.8727 7.81716V4H11.5892C11.1179 3.99983 10.6512 4.09248 10.2158 4.27271C9.78031 4.45294 9.38463 4.7172 9.05132 5.05038C8.71802 5.38356 8.45362 5.77914 8.27323 6.21452C8.09284 6.64991 8 7.11656 8 7.58784V29.2163C8 29.6875 8.09284 30.1542 8.27323 30.5896C8.45362 31.025 8.71802 31.4206 9.05132 31.7538C9.38463 32.0869 9.78031 32.3512 10.2158 32.5314C10.6512 32.7116 11.1179 32.8043 11.5892 32.8041H26.3352C27.2868 32.8041 28.1994 32.4261 28.8722 31.7533C29.5451 31.0804 29.9231 30.1678 29.9231 29.2163V10.5664H26.6219Z" fill="#0088FF"/>
  </g>
  <path d="M29.9231 10.5664H26.6219C25.893 10.5657 25.1941 10.2758 24.6787 9.76037C24.1632 9.24495 23.8734 8.54608 23.8727 7.81716V4L29.9231 10.5664Z" fill="#0088FF"/>
  <path d="M25.4126 15.1635H11.6479C11.5156 15.1635 11.3888 15.111 11.2953 15.0175C11.2018 14.924 11.1492 14.7971 11.1492 14.6649C11.1491 14.5993 11.1618 14.5343 11.1868 14.4737C11.2118 14.413 11.2485 14.3579 11.2948 14.3114C11.3411 14.265 11.3962 14.2281 11.4567 14.203C11.5173 14.1779 11.5823 14.1649 11.6479 14.1649H25.4126C25.5452 14.1649 25.6724 14.2176 25.7662 14.3114C25.8599 14.4051 25.9126 14.5323 25.9126 14.6649C25.9123 14.7973 25.8594 14.9241 25.7657 15.0176C25.672 15.1111 25.545 15.1635 25.4126 15.1635Z" fill="#0088FF"/>
  <path d="M25.4126 18.1461H11.6479C11.5156 18.1461 11.3888 18.0935 11.2953 18C11.2018 17.9065 11.1492 17.7797 11.1492 17.6474C11.1491 17.5818 11.1618 17.5169 11.1868 17.4562C11.2118 17.3956 11.2485 17.3404 11.2948 17.294C11.3411 17.2475 11.3962 17.2107 11.4567 17.1855C11.5173 17.1604 11.5823 17.1475 11.6479 17.1475H25.4126C25.5452 17.1475 25.6724 17.2001 25.7662 17.2939C25.8599 17.3876 25.9126 17.5148 25.9126 17.6474C25.9123 17.7798 25.8594 17.9066 25.7657 18.0001C25.672 18.0936 25.545 18.1461 25.4126 18.1461Z" fill="#0088FF"/>
  <path d="M25.4126 21.1286H11.6479C11.5823 21.1286 11.5173 21.1157 11.4567 21.0905C11.3962 21.0654 11.3411 21.0286 11.2948 20.9821C11.2485 20.9357 11.2118 20.8805 11.1868 20.8199C11.1618 20.7592 11.1491 20.6942 11.1492 20.6286C11.1492 20.4964 11.2018 20.3696 11.2953 20.2761C11.3888 20.1825 11.5156 20.13 11.6479 20.13H25.4126C25.545 20.13 25.672 20.1825 25.7657 20.276C25.8594 20.3694 25.9123 20.4963 25.9126 20.6286C25.9126 20.7613 25.8599 20.8884 25.7662 20.9822C25.6724 21.0759 25.5452 21.1286 25.4126 21.1286Z" fill="#0088FF"/>
  <path d="M19.9809 24.1112H11.6479C11.5823 24.1112 11.5173 24.0982 11.4567 24.0731C11.3962 24.0479 11.3411 24.0111 11.2948 23.9646C11.2485 23.9182 11.2118 23.8631 11.1868 23.8024C11.1618 23.7418 11.1491 23.6768 11.1492 23.6112C11.1492 23.4789 11.2018 23.3521 11.2953 23.2586C11.3888 23.1651 11.5156 23.1125 11.6479 23.1125H19.9809C20.1131 23.1125 20.2399 23.1651 20.3335 23.2586C20.427 23.3521 20.4795 23.4789 20.4795 23.6112C20.4797 23.6768 20.4669 23.7418 20.4419 23.8024C20.4169 23.8631 20.3802 23.9182 20.3339 23.9646C20.2876 24.0111 20.2326 24.0479 20.172 24.0731C20.1114 24.0982 20.0465 24.1112 19.9809 24.1112Z" fill="#0088FF"/>
  <path d="M32.5257 26.7471H15.8543C14.6718 26.7471 13.7131 27.7057 13.7131 28.8883V33.8588C13.7131 35.0414 14.6718 36 15.8543 36H32.5257C33.7082 36 34.6669 35.0414 34.6669 33.8588V28.8883C34.6669 27.7057 33.7082 26.7471 32.5257 26.7471Z" fill="#0088FF"/>
  <path d="M16.157 32.4495V33.4188H15.153V32.4495H16.157Z" fill="white"/>
  <path d="M20.0155 32.4522C19.8482 32.755 19.5961 33.0025 19.2902 33.1641C18.9456 33.3404 18.5625 33.4279 18.1756 33.4188H16.661V29.4096H18.1756C18.5628 29.4002 18.9464 29.4858 19.2929 29.6589C19.5978 29.8173 19.8492 30.0622 20.0155 30.3629C20.1879 30.683 20.2747 31.0421 20.2675 31.4055C20.2744 31.7702 20.1876 32.1306 20.0155 32.4522ZM18.9729 32.2508C19.0813 32.1396 19.1652 32.0069 19.2194 31.8614C19.2736 31.7158 19.2968 31.5606 19.2875 31.4055C19.2969 31.2507 19.2737 31.0956 19.2195 30.9503C19.1653 30.8049 19.0813 30.6725 18.9729 30.5616C18.73 30.3486 18.4127 30.2403 18.0903 30.2603H17.6316V32.5508H18.0903C18.4124 32.5706 18.7295 32.4628 18.9729 32.2508Z" fill="white"/>
  <path d="M23.7527 29.611C24.0577 29.7842 24.3099 30.0373 24.482 30.343C24.6624 30.6658 24.7544 31.0305 24.7487 31.4002C24.7554 31.771 24.6634 32.1368 24.482 32.4602C24.3102 32.7673 24.0575 33.0214 23.7514 33.1948C23.4397 33.3728 23.0863 33.4648 22.7274 33.4615C22.3685 33.4648 22.0151 33.3728 21.7034 33.1948C21.3973 33.0214 21.1446 32.7673 20.9728 32.4602C20.7914 32.1368 20.6994 31.771 20.7061 31.4002C20.6992 31.0303 20.7913 30.6653 20.9728 30.343C21.1455 30.0372 21.398 29.7842 21.7034 29.611C22.0151 29.433 22.3685 29.341 22.7274 29.3443C23.0867 29.3412 23.4405 29.4332 23.7527 29.611ZM21.9661 30.5576C21.7694 30.7929 21.6694 31.094 21.6861 31.4002C21.6693 31.7052 21.7694 32.0051 21.9661 32.2389C22.0619 32.343 22.1793 32.4249 22.3102 32.4788C22.441 32.5327 22.582 32.5573 22.7234 32.5508C22.8643 32.5567 23.0048 32.5318 23.1351 32.478C23.2654 32.4241 23.3824 32.3425 23.478 32.2389C23.6757 32.0055 23.7768 31.7056 23.7607 31.4002C23.7767 31.0953 23.6767 30.7957 23.4807 30.5616C23.385 30.4574 23.2675 30.3755 23.1367 30.3216C23.0058 30.2677 22.8648 30.2431 22.7234 30.2496C22.5824 30.2431 22.4417 30.2673 22.3109 30.3205C22.1802 30.3737 22.0626 30.4545 21.9661 30.5576Z" fill="white"/>
  <path d="M28.3912 29.7723C28.7293 30.0474 28.9593 30.4332 29.0405 30.8615H28.0139C27.9446 30.684 27.8233 30.5316 27.6659 30.4242C27.4999 30.3162 27.3052 30.2609 27.1072 30.2656C26.9765 30.2614 26.8466 30.2873 26.7275 30.3414C26.6084 30.3955 26.5034 30.4763 26.4206 30.5776C26.235 30.8151 26.1405 31.1111 26.1539 31.4122C26.1404 31.7121 26.235 32.0069 26.4206 32.2428C26.5041 32.343 26.6093 32.4228 26.7283 32.4762C26.8473 32.5295 26.9769 32.5551 27.1072 32.5508C27.3053 32.5561 27.5002 32.5007 27.6659 32.3921C27.8224 32.2867 27.9437 32.1367 28.0139 31.9615H29.0405C28.958 32.3885 28.7282 32.7731 28.3912 33.0481C28.0285 33.325 27.5805 33.4665 27.1246 33.4481C26.7653 33.4557 26.4107 33.3663 26.0979 33.1894C25.8052 33.0193 25.5678 32.7684 25.414 32.4668C25.2483 32.1361 25.1655 31.77 25.1726 31.4002C25.1655 31.0303 25.2483 30.6643 25.414 30.3336C25.5678 30.0319 25.8052 29.7811 26.0979 29.6109C26.4107 29.4341 26.7653 29.3447 27.1246 29.3523C27.5828 29.3401 28.0309 29.4887 28.3912 29.7723Z" fill="white"/>
  <path d="M32.0177 33.4188L31.1724 32.1709L30.4471 33.4188H29.3351L30.6177 31.3549L29.2964 29.4097H30.4471L31.2697 30.6176L31.9777 29.4097H33.0843L31.819 31.4282L33.1683 33.4188H32.0177Z" fill="white"/>
</svg>
