<svg width="40" height="40" viewBox="0 0 40 40" fill="none" xmlns="http://www.w3.org/2000/svg">
  <rect x="0.25" y="0.25" width="39.5" height="39.5" rx="5.75" stroke="#E8EAEB" stroke-width="0.5"/>
  <g opacity="0.3">
    <path opacity="0.3" d="M26.6219 10.5664C25.8929 10.5653 25.194 10.2752 24.6786 9.75953C24.1632 9.24389 23.8734 8.54488 23.8727 7.81584V4H11.5892C11.1179 3.99983 10.6512 4.0925 10.2158 4.27273C9.78031 4.45295 9.38464 4.7172 9.05134 5.05038C8.71804 5.38356 8.45364 5.77914 8.27325 6.21452C8.09286 6.64991 8 7.11658 8 7.58786V29.2163C8 29.6876 8.09286 30.1542 8.27325 30.5896C8.45364 31.025 8.71804 31.4206 9.05134 31.7537C9.38464 32.0869 9.78031 32.3512 10.2158 32.5314C10.6512 32.7116 11.1179 32.8043 11.5892 32.8041H26.3352C26.8064 32.8041 27.2729 32.7113 27.7082 32.531C28.1435 32.3507 28.5391 32.0864 28.8722 31.7533C29.2054 31.4201 29.4697 31.0246 29.65 30.5893C29.8303 30.154 29.9231 29.6874 29.9231 29.2163V10.5664H26.6219Z" fill="#0088FF"/>
  </g>
  <path d="M29.9231 10.5664H26.6219C25.8929 10.5653 25.194 10.2752 24.6786 9.75953C24.1632 9.24389 23.8734 8.54488 23.8727 7.81584V4L29.9231 10.5664Z" fill="#0088FF"/>
  <path d="M32.5257 26.7471H15.8544C14.6718 26.7471 13.7131 27.7057 13.7131 28.8883V33.8588C13.7131 35.0414 14.6718 36 15.8544 36H32.5257C33.7083 36 34.6669 35.0414 34.6669 33.8588V28.8883C34.6669 27.7057 33.7083 26.7471 32.5257 26.7471Z" fill="#0088FF"/>
  <path d="M19.8582 32.4495V33.4188H18.8542V32.4495H19.8582Z" fill="white"/>
  <path d="M21.3315 29.4095V33.4187H20.3622V29.4095H21.3315Z" fill="white"/>
  <path d="M24.9247 29.7723C25.2628 30.0474 25.4928 30.4332 25.574 30.8615H24.5473C24.4781 30.684 24.3568 30.5316 24.1994 30.4242C24.0334 30.3162 23.8387 30.2609 23.6407 30.2656C23.51 30.2614 23.3801 30.2873 23.261 30.3414C23.1419 30.3955 23.0369 30.4763 22.9541 30.5776C22.7685 30.8151 22.674 31.1111 22.6874 31.4122C22.6738 31.7121 22.7685 32.0069 22.9541 32.2428C23.0376 32.343 23.1428 32.4228 23.2618 32.4762C23.3808 32.5295 23.5104 32.5551 23.6407 32.5508C23.8387 32.5561 24.0337 32.5007 24.1994 32.3921C24.3559 32.2867 24.4771 32.1367 24.5473 31.9615H25.574C25.4914 32.3885 25.2617 32.7731 24.9247 33.0481C24.562 33.325 24.114 33.4665 23.658 33.4481C23.2988 33.4557 22.9442 33.3663 22.6314 33.1894C22.3387 33.0193 22.1012 32.7684 21.9474 32.4668C21.7818 32.1361 21.6989 31.77 21.7061 31.4002C21.699 31.0303 21.7818 30.6643 21.9474 30.3336C22.1012 30.0319 22.3387 29.7811 22.6314 29.6109C22.9442 29.4341 23.2988 29.3447 23.658 29.3523C24.1163 29.3401 24.5644 29.4887 24.9247 29.7723Z" fill="white"/>
  <path d="M28.8885 29.611C29.1932 29.7841 29.4452 30.0366 29.6178 30.3416C29.7982 30.6649 29.8902 31.0301 29.8844 31.4002C29.8917 31.7731 29.7997 32.1413 29.6178 32.4669C29.4447 32.7734 29.1918 33.0273 28.8858 33.2015C28.5741 33.3795 28.2208 33.4715 27.8619 33.4682C27.503 33.4713 27.1497 33.3793 26.8379 33.2015C26.5321 33.0277 26.2794 32.7737 26.1073 32.4669C25.9248 32.1415 25.8327 31.7732 25.8406 31.4002C25.8337 31.0299 25.9257 30.6645 26.1073 30.3416C26.2803 30.0365 26.5328 29.7841 26.8379 29.611C27.1497 29.4332 27.503 29.3412 27.8619 29.3443C28.2216 29.3409 28.5759 29.433 28.8885 29.611ZM27.1019 30.5576C26.9051 30.7928 26.805 31.094 26.8219 31.4002C26.806 31.7051 26.9061 32.0047 27.1019 32.2389C27.1977 32.343 27.3151 32.4249 27.446 32.4788C27.5768 32.5327 27.7179 32.5573 27.8592 32.5509C28.0001 32.5567 28.1406 32.5318 28.2709 32.478C28.4012 32.4241 28.5182 32.3425 28.6138 32.2389C28.8115 32.0056 28.9126 31.7056 28.8965 31.4002C28.9126 31.095 28.8125 30.7949 28.6165 30.5603C28.5207 30.4561 28.4033 30.3742 28.2725 30.3202C28.1416 30.2663 28.0006 30.2418 27.8592 30.2483C27.7186 30.2425 27.5783 30.2671 27.4481 30.3205C27.3178 30.3739 27.2007 30.4547 27.1046 30.5576H27.1019Z" fill="white"/>
  <path d="M18.4662 23.4126C17.2092 23.4112 16.0041 22.9112 15.1152 22.0224C14.2264 21.1335 13.7264 19.9284 13.725 18.6714C13.7264 17.4144 14.2264 16.2093 15.1152 15.3205C16.0041 14.4317 17.2092 13.9317 18.4662 13.9303C19.7232 13.9317 20.9283 14.4317 21.8171 15.3205C22.7059 16.2093 23.2059 17.4144 23.2073 18.6714C23.2059 19.9284 22.7059 21.1335 21.8171 22.0224C20.9283 22.9112 19.7232 23.4112 18.4662 23.4126ZM18.4662 14.213C17.2854 14.214 16.1534 14.6835 15.3185 15.5184C14.4836 16.3533 14.0141 17.4854 14.013 18.6661C14.0144 19.8467 14.4841 20.9786 15.3189 21.8134C16.1537 22.6482 17.2855 23.1178 18.4662 23.1193C19.6468 23.1178 20.7786 22.6482 21.6135 21.8134C22.4483 20.9786 22.9179 19.8467 22.9193 18.6661C22.9168 17.4863 22.4467 16.3556 21.612 15.5219C20.7772 14.6881 19.646 14.2193 18.4662 14.2183V14.213Z" fill="#0088FF"/>
  <path d="M18.4729 14.0489V17.8194C18.2472 17.8198 18.0309 17.9097 17.8714 18.0694C17.7119 18.2292 17.6223 18.4457 17.6223 18.6714C17.6224 18.8196 17.6609 18.9653 17.7343 19.094L14.4851 20.97L14.4131 20.8366C14.0538 20.1667 13.866 19.4183 13.8665 18.6581C13.8665 18.6207 13.8665 18.5861 13.8665 18.5514C13.8827 17.7638 14.1018 16.9937 14.5024 16.3155C14.9011 15.6413 15.4639 15.079 16.1384 14.6809C16.8165 14.281 17.5859 14.062 18.3729 14.0449L18.4729 14.0489Z" fill="#0088FF"/>
  <path d="M23.086 18.666C23.0866 19.4605 22.8808 20.2416 22.4887 20.9326C22.0775 21.6609 21.4755 22.2634 20.7475 22.6752C20.0546 23.0701 19.2704 23.2769 18.4729 23.2752V19.522C18.6972 19.5199 18.9117 19.4294 19.0697 19.2701C19.2277 19.1109 19.3165 18.8957 19.3169 18.6714C19.3176 18.5209 19.2775 18.3729 19.2009 18.2434L22.4687 16.3555C22.8562 17.0256 23.0681 17.7828 23.0847 18.5567C23.086 18.5914 23.086 18.626 23.086 18.666Z" fill="#0088FF"/>
  <path d="M18.4663 19.2527C18.3121 19.2527 18.1642 19.1914 18.0552 19.0824C17.9462 18.9734 17.8849 18.8256 17.8849 18.6714C17.8849 18.5171 17.9462 18.3691 18.0551 18.2599C18.1641 18.1506 18.312 18.0891 18.4663 18.0887C18.6206 18.0891 18.7684 18.1506 18.8774 18.2599C18.9864 18.3691 19.0476 18.5171 19.0476 18.6714C19.0476 18.8256 18.9863 18.9734 18.8773 19.0824C18.7683 19.1914 18.6204 19.2527 18.4663 19.2527ZM18.4663 18.3781C18.3885 18.3781 18.3139 18.409 18.2589 18.464C18.2039 18.519 18.1729 18.5936 18.1729 18.6714C18.1733 18.7491 18.2043 18.8235 18.2592 18.8784C18.3142 18.9333 18.3886 18.9644 18.4663 18.9647C18.5439 18.9644 18.6183 18.9333 18.6733 18.8784C18.7282 18.8235 18.7592 18.7491 18.7596 18.6714C18.7596 18.6329 18.752 18.5947 18.7373 18.5591C18.7225 18.5235 18.7009 18.4912 18.6737 18.464C18.6464 18.4367 18.6141 18.4151 18.5785 18.4004C18.5429 18.3856 18.5048 18.3781 18.4663 18.3781Z" fill="#0088FF"/>
</svg>
