<svg width="40" height="40" viewBox="0 0 40 40" fill="none" xmlns="http://www.w3.org/2000/svg">
  <rect x="0.25" y="0.25" width="39.5" height="39.5" rx="5.75" stroke="#E8EAEB" stroke-width="0.5"/>
  <g opacity="0.3">
    <path opacity="0.3" d="M26.6219 10.5664C25.893 10.5657 25.1941 10.2758 24.6787 9.76037C24.1633 9.24495 23.8734 8.54608 23.8727 7.81716V4H11.5878C10.6363 4 9.72371 4.37802 9.05086 5.05087C8.37801 5.72372 8 6.63628 8 7.58784V29.2163C8.00141 30.1669 8.38004 31.0781 9.05274 31.7498C9.72544 32.4215 10.6372 32.7988 11.5878 32.7988H26.3352C27.2859 32.7988 28.1976 32.4215 28.8703 31.7498C29.543 31.0781 29.9217 30.1669 29.9231 29.2163V10.5664H26.6219Z" fill="#FF4D4D"/>
  </g>
  <path d="M29.9231 10.5664H26.6219C25.893 10.5657 25.1941 10.2758 24.6787 9.76037C24.1633 9.24495 23.8734 8.54608 23.8727 7.81716V4L29.9231 10.5664Z" fill="#FF4D4D"/>
  <path d="M25.4126 24.1112H11.6478C11.5152 24.1112 11.388 24.0585 11.2943 23.9647C11.2005 23.871 11.1478 23.7438 11.1478 23.6112C11.1482 23.4788 11.201 23.352 11.2947 23.2585C11.3885 23.165 11.5154 23.1125 11.6478 23.1125H25.4126C25.5448 23.1125 25.6716 23.1651 25.7652 23.2586C25.8587 23.3521 25.9112 23.4789 25.9112 23.6112C25.9114 23.6768 25.8986 23.7418 25.8736 23.8024C25.8487 23.8631 25.812 23.9182 25.7656 23.9646C25.7193 24.0111 25.6643 24.0479 25.6037 24.0731C25.5431 24.0982 25.4782 24.1112 25.4126 24.1112Z" fill="#FF4D4D"/>
  <path d="M25.4126 18.4795H11.6478C11.5154 18.4795 11.3885 18.4269 11.2947 18.3335C11.201 18.24 11.1482 18.1132 11.1478 17.9808C11.1478 17.8482 11.2005 17.721 11.2943 17.6272C11.388 17.5335 11.5152 17.4808 11.6478 17.4808H25.4126C25.4782 17.4808 25.5431 17.4938 25.6037 17.5189C25.6643 17.5441 25.7193 17.5809 25.7656 17.6273C25.812 17.6738 25.8487 17.7289 25.8736 17.7896C25.8986 17.8502 25.9114 17.9152 25.9112 17.9808C25.9112 18.1131 25.8587 18.2399 25.7652 18.3334C25.6716 18.4269 25.5448 18.4795 25.4126 18.4795Z" fill="#FF4D4D"/>
  <path d="M25.4126 21.2953H11.6478C11.5152 21.2953 11.388 21.2426 11.2943 21.1488C11.2005 21.055 11.1478 20.9279 11.1478 20.7953C11.1482 20.6629 11.201 20.5361 11.2947 20.4426C11.3885 20.3491 11.5154 20.2966 11.6478 20.2966H25.4126C25.5448 20.2966 25.6716 20.3492 25.7652 20.4427C25.8587 20.5362 25.9112 20.663 25.9112 20.7953C25.9114 20.8609 25.8986 20.9259 25.8736 20.9865C25.8487 21.0472 25.812 21.1023 25.7656 21.1487C25.7193 21.1952 25.6643 21.232 25.6037 21.2572C25.5431 21.2823 25.4782 21.2953 25.4126 21.2953Z" fill="#FF4D4D"/>
  <path d="M19.9835 15.6635H11.6478C11.5154 15.6635 11.3885 15.6111 11.2947 15.5176C11.201 15.4241 11.1482 15.2973 11.1478 15.1649C11.1478 15.0323 11.2005 14.9051 11.2943 14.8114C11.388 14.7176 11.5152 14.6649 11.6478 14.6649H19.9835C20.1158 14.6653 20.2427 14.7181 20.3361 14.8118C20.4296 14.9055 20.4821 15.0325 20.4821 15.1649C20.4818 15.297 20.4291 15.4237 20.3357 15.5171C20.2422 15.6105 20.1156 15.6632 19.9835 15.6635Z" fill="#FF4D4D"/>
  <path d="M19.9835 12.8476H11.6478C11.5154 12.8476 11.3885 12.7951 11.2947 12.7016C11.201 12.6082 11.1482 12.4813 11.1478 12.349C11.1478 12.2164 11.2005 12.0892 11.2943 11.9954C11.388 11.9016 11.5152 11.849 11.6478 11.849H19.9835C20.1158 11.8494 20.2427 11.9022 20.3361 11.9959C20.4296 12.0896 20.4821 12.2166 20.4821 12.349C20.4818 12.4811 20.4291 12.6077 20.3357 12.7012C20.2422 12.7946 20.1156 12.8473 19.9835 12.8476Z" fill="#FF4D4D"/>
  <path d="M32.5243 26.7471H15.853C14.6705 26.7471 13.7118 27.7057 13.7118 28.8883V33.8588C13.7118 35.0414 14.6705 36 15.853 36H32.5243C33.7069 36 34.6656 35.0414 34.6656 33.8588V28.8883C34.6656 27.7057 33.7069 26.7471 32.5243 26.7471Z" fill="#FF4D4D"/>
  <path d="M19.1809 32.4495V33.4188H18.1782V32.4495H19.1809Z" fill="white"/>
  <path d="M20.6555 32.0122V33.4188H19.6862V29.4097H21.2568C21.7327 29.4097 22.0967 29.5283 22.346 29.7643C22.4722 29.8883 22.5707 30.0375 22.635 30.2023C22.6994 30.3671 22.7281 30.5436 22.7194 30.7203C22.7242 30.9534 22.6667 31.1835 22.5527 31.3869C22.4363 31.5857 22.2638 31.7458 22.0567 31.8469C21.807 31.9649 21.5328 32.022 21.2568 32.0136L20.6555 32.0122ZM21.7327 30.7203C21.7327 30.3647 21.5381 30.1869 21.1488 30.1869H20.6555V31.2309H21.1488C21.5381 31.2345 21.7327 31.0642 21.7327 30.7203Z" fill="white"/>
  <path d="M26.5499 32.4521C26.383 32.7552 26.1308 33.0028 25.8246 33.1641C25.4801 33.3404 25.0969 33.428 24.71 33.4187H23.1967V29.4096H24.71C25.0972 29.3998 25.4809 29.4854 25.8273 29.6589C26.1326 29.8167 26.3842 30.0617 26.5499 30.3628C26.7234 30.6825 26.8107 31.0418 26.8032 31.4055C26.8105 31.7704 26.7232 32.1309 26.5499 32.4521ZM25.5073 32.2508C25.6157 32.1395 25.6996 32.0069 25.7538 31.8613C25.808 31.7158 25.8312 31.5605 25.8219 31.4055C25.8313 31.2506 25.8081 31.0955 25.7539 30.9502C25.6997 30.8048 25.6157 30.6724 25.5073 30.5615C25.2648 30.3487 24.948 30.2404 24.626 30.2602H24.166V32.5507H24.626C24.9477 32.5703 25.2643 32.4625 25.5073 32.2508Z" fill="white"/>
  <path d="M29.9671 29.4097V30.1816H28.3232V31.0603H29.5925V31.7976H28.3232V33.4188H27.3525V29.4097H29.9671Z" fill="white"/>
  <path d="M25.1686 11.849H22.8114C22.4005 11.849 22.0674 12.1821 22.0674 12.593V14.9502C22.0674 15.3611 22.4005 15.6942 22.8114 15.6942H25.1686C25.5795 15.6942 25.9126 15.3611 25.9126 14.9502V12.593C25.9126 12.1821 25.5795 11.849 25.1686 11.849Z" fill="#FF4D4D"/>
</svg>
