<svg width="92" height="92" viewBox="0 0 92 92" fill="none" xmlns="http://www.w3.org/2000/svg">
<rect x="0.5" y="0.5" width="91" height="91" rx="5.5" stroke="#D3D5D7"/>
<path d="M75.5648 20.2648V80.0209C75.5648 81.4432 74.4077 82.6 72.9849 82.6H25.5799C24.1571 82.6 23 81.4432 23 80.0209V11.5791C23 10.1568 24.1571 9 25.5799 9H64.2968L75.5648 20.2648Z" fill="white"/>
<path d="M75.5648 20.2648V80.0209C75.5648 81.4432 74.4077 82.6 72.985 82.6H69.3238C70.7466 82.6 71.9037 81.4432 71.9037 80.0209V20.2648L60.6357 9H64.3159L75.5648 20.2648Z" fill="#E2E0E1"/>
<path d="M75.5648 20.2648H66.8768C65.454 20.2648 64.2969 19.108 64.2969 17.6856V9L75.5648 20.2648Z" fill="#CCCCCC"/>
<path d="M74.3508 82.6003H24.2521C23.5692 82.6003 23.019 82.0503 23.019 81.3676V60.0898H75.5649V81.3676C75.5649 82.0503 75.0148 82.6003 74.3508 82.6003Z" fill="#AA60FA"/>
<path d="M43.108 75.2046V77.3476H39.2382L36.3738 71.791H34.9131V75.2046H36.5066V77.3476H29.8672V75.2046H31.6124V66.7845H29.8672V64.6416H37.5309C38.9726 64.6416 40.0159 65.0019 40.6419 65.7415C41.2869 66.4621 41.5904 67.2965 41.5904 68.2068C41.5904 69.6481 40.8506 70.7101 39.3899 71.3739L41.4576 75.2046H43.108ZM34.9131 69.7619H36.0513C37.455 69.7619 38.1569 69.2688 38.1569 68.2637C38.1569 67.7706 38.0051 67.4103 37.6827 67.1638C37.3602 66.9173 36.9239 66.8035 36.3548 66.8035H34.9131V69.7619Z" fill="white"/>
<path d="M56.1592 75.2043V77.3473H49.9182V75.2043H51.5496L50.9425 73.0234H47.6418L46.9589 75.2043H48.6662V77.3473H43.0322V75.2043H44.6067L47.0727 66.8032H45.3845V64.6602H53.6742V66.8032H51.9669L54.6416 75.2043H56.1592ZM50.4114 71.1459L49.3491 67.3151L48.2109 71.1459H50.4114Z" fill="white"/>
<path d="M69.7984 75.2046V77.3476H65.9286L63.0642 71.791H61.6036V75.2046H63.197V77.3476H56.5576V75.2046H58.3028V66.7845H56.5576V64.6416H64.2214C65.6631 64.6416 66.7064 65.0019 67.3324 65.7415C67.9773 66.4621 68.2808 67.2965 68.2808 68.2068C68.2808 69.6481 67.541 70.7101 66.0804 71.3739L68.1481 75.2046H69.7984ZM61.6036 69.7619H62.7417C64.1455 69.7619 64.8473 69.2688 64.8473 68.2637C64.8473 67.7706 64.6956 67.4103 64.3731 67.1638C64.0506 66.9173 63.6143 66.8035 63.0452 66.8035H61.6036V69.7619Z" fill="white"/>
<path d="M50.0888 17.7996H30.2845C29.355 17.7996 28.6152 17.06 28.6152 16.1307C28.6152 15.2015 29.355 14.4619 30.2845 14.4619H50.0888C51.0183 14.4619 51.7582 15.2015 51.7582 16.1307C51.7582 17.06 50.9994 17.7996 50.0888 17.7996Z" fill="#AA60FA"/>
<path d="M62.6277 24.3231H30.2655C29.336 24.3231 28.5962 23.5834 28.5962 22.6542C28.5962 21.7249 29.336 20.9854 30.2655 20.9854H62.6277C63.5572 20.9854 64.297 21.7249 64.297 22.6542C64.297 23.5834 63.5572 24.3231 62.6277 24.3231Z" fill="#AA60FA"/>
<path d="M62.6277 30.8465H30.2655C29.336 30.8465 28.5962 30.1069 28.5962 29.1777C28.5962 28.2484 29.336 27.5088 30.2655 27.5088H62.6277C63.5572 27.5088 64.297 28.2484 64.297 29.1777C64.297 30.1069 63.5572 30.8465 62.6277 30.8465Z" fill="#AA60FA"/>
<path d="M62.6277 37.3699H30.2655C29.336 37.3699 28.5962 36.6304 28.5962 35.7011C28.5962 34.7719 29.336 34.0322 30.2655 34.0322H62.6277C63.5572 34.0322 64.297 34.7719 64.297 35.7011C64.297 36.6304 63.5572 37.3699 62.6277 37.3699Z" fill="#AA60FA"/>
<path d="M62.6277 43.8943H30.2655C29.336 43.8943 28.5962 43.1547 28.5962 42.2255C28.5962 41.2962 29.336 40.5566 30.2655 40.5566H62.6277C63.5572 40.5566 64.297 41.2962 64.297 42.2255C64.297 43.1547 63.5572 43.8943 62.6277 43.8943Z" fill="#AA60FA"/>
<path d="M62.6277 50.4178H30.2655C29.336 50.4178 28.5962 49.6781 28.5962 48.7489C28.5962 47.8196 29.336 47.0801 30.2655 47.0801H62.6277C63.5572 47.0801 64.297 47.8196 64.297 48.7489C64.297 49.6781 63.5572 50.4178 62.6277 50.4178Z" fill="#AA60FA"/>
<path d="M62.6277 56.9608H30.2655C29.336 56.9608 28.5962 56.2211 28.5962 55.2919C28.5962 54.3626 29.336 53.623 30.2655 53.623H62.6277C63.5572 53.623 64.297 54.3626 64.297 55.2919C64.297 56.2021 63.5572 56.9608 62.6277 56.9608Z" fill="#AA60FA"/>
</svg>
