<svg width="40" height="40" viewBox="0 0 40 40" fill="none" xmlns="http://www.w3.org/2000/svg">
  <rect x="0.25" y="0.25" width="39.5" height="39.5" rx="5.75" stroke="#E8EAEB" stroke-width="0.5"/>
  <g opacity="0.3">
    <path opacity="0.3" d="M26.6227 10.5653C25.8937 10.5646 25.1948 10.2747 24.6794 9.75929C24.1639 9.24385 23.874 8.54495 23.8733 7.816V4H11.5893C10.6374 4 9.72442 4.37816 9.05129 5.05129C8.37816 5.72442 8 6.63739 8 7.58934V29.2173C8 30.1693 8.37816 31.0822 9.05129 31.7554C9.72442 32.4285 10.6374 32.8067 11.5893 32.8067H26.336C26.8073 32.8067 27.274 32.7138 27.7094 32.5334C28.1448 32.353 28.5404 32.0886 28.8736 31.7553C29.2068 31.422 29.471 31.0263 29.6513 30.5908C29.8315 30.1553 29.9242 29.6886 29.924 29.2173V10.5667L26.6227 10.5653Z" fill="#FFAE06"/>
  </g>
  <path d="M29.924 10.5653H26.6226C25.8937 10.5646 25.1948 10.2747 24.6793 9.75929C24.1639 9.24385 23.874 8.54495 23.8733 7.816V4L29.924 10.5653Z" fill="#FFAE06"/>
  <path d="M32.5266 26.7467H15.8547C14.672 26.7467 13.7133 27.7054 13.7133 28.888V33.8587C13.7133 35.0413 14.672 36 15.8547 36H32.5266C33.7093 36 34.668 35.0413 34.668 33.8587V28.888C34.668 27.7054 33.7093 26.7467 32.5266 26.7467Z" fill="#FFAE06"/>
  <path d="M18.6667 32.4493V33.42H17.6627V32.4493H18.6667Z" fill="white"/>
  <path d="M21.8906 32.8747C21.776 33.0591 21.6108 33.2068 21.4146 33.3C21.176 33.4123 20.9143 33.4666 20.6507 33.4587C20.2544 33.4749 19.8639 33.3596 19.54 33.1307C19.3964 33.0234 19.279 32.8851 19.1966 32.726C19.1141 32.5668 19.0688 32.3911 19.064 32.212H20.096C20.1033 32.3471 20.1609 32.4745 20.2573 32.5693C20.3533 32.6588 20.4808 32.7068 20.612 32.7027C20.7197 32.7088 20.8255 32.6724 20.9066 32.6013C20.9422 32.5669 20.9702 32.5253 20.9888 32.4794C21.0074 32.4335 21.0162 32.3842 21.0146 32.3347C21.0161 32.2875 21.008 32.2405 20.9908 32.1965C20.9736 32.1525 20.9477 32.1124 20.9146 32.0787C20.8444 32.0072 20.7605 31.9506 20.668 31.912C20.5693 31.8684 20.4333 31.8165 20.26 31.756C20.0475 31.686 19.8399 31.6018 19.6387 31.504C19.4732 31.4183 19.3313 31.2933 19.2253 31.14C19.1023 30.9549 19.0416 30.7354 19.052 30.5133C19.0464 30.2937 19.1098 30.0778 19.2333 29.896C19.3596 29.7177 19.5339 29.579 19.736 29.496C19.9687 29.4019 20.2183 29.3565 20.4693 29.3627C20.8509 29.3413 21.2281 29.4535 21.536 29.68C21.6644 29.7844 21.7702 29.9139 21.8468 30.0607C21.9234 30.2074 21.9691 30.3683 21.9813 30.5333H20.932C20.9199 30.4152 20.8688 30.3045 20.7867 30.2187C20.7448 30.179 20.6954 30.1482 20.6413 30.1282C20.5872 30.1083 20.5296 30.0996 20.472 30.1027C20.3723 30.0976 20.2744 30.1299 20.1973 30.1933C20.1611 30.2272 20.1329 30.2687 20.1146 30.3148C20.0964 30.3609 20.0887 30.4105 20.092 30.46C20.0911 30.5043 20.099 30.5483 20.1153 30.5895C20.1315 30.6307 20.1558 30.6683 20.1867 30.7C20.253 30.7696 20.3329 30.8249 20.4213 30.8627C20.516 30.904 20.652 30.9573 20.8293 31.0213C21.0455 31.0906 21.2559 31.1766 21.4586 31.2787C21.6259 31.368 21.7697 31.4955 21.8786 31.6507C22.0028 31.8384 22.0644 32.0605 22.0547 32.2853C22.0567 32.4933 21.9999 32.6977 21.8906 32.8747Z" fill="white"/>
  <path d="M23.34 29.4106L24.32 32.4266L25.3013 29.4106H26.34L24.944 33.42H23.6907L22.3013 29.4106H23.34Z" fill="white"/>
  <path d="M29.832 29.7333C30.1552 29.976 30.3729 30.3335 30.44 30.732H29.4133C29.3463 30.5889 29.2376 30.4695 29.1014 30.3894C28.9486 30.2986 28.7736 30.2525 28.596 30.256C28.458 30.2504 28.3203 30.2752 28.1929 30.3286C28.0655 30.3821 27.9514 30.4629 27.8587 30.5653C27.6636 30.7988 27.5645 31.0976 27.5813 31.4013C27.5813 31.7827 27.6787 32.0756 27.8733 32.28C27.9828 32.3862 28.1132 32.4683 28.2563 32.5211C28.3993 32.5739 28.5518 32.5962 28.704 32.5867C28.9216 32.5906 29.1345 32.5237 29.3107 32.396C29.4906 32.2617 29.6205 32.0712 29.68 31.8547H28.4547V31.1574H30.4907V32.116C30.4124 32.3544 30.2893 32.5757 30.128 32.768C29.9526 32.9746 29.7348 33.141 29.4894 33.256C29.2117 33.3843 28.9085 33.4481 28.6027 33.4427C28.2307 33.4524 27.8627 33.3637 27.536 33.1853C27.2372 33.0173 26.9939 32.7657 26.836 32.4613C26.6664 32.1318 26.5816 31.7652 26.5894 31.3947C26.5827 31.0264 26.6674 30.6622 26.836 30.3347C26.9936 30.031 27.2358 29.7796 27.5334 29.6107C27.8551 29.4334 28.2181 29.3447 28.5854 29.3533C29.0317 29.3373 29.4705 29.471 29.832 29.7333Z" fill="white"/>
  <path d="M24.404 21.0307H24.072C24.0702 19.6851 23.5348 18.3952 22.5832 17.4438C21.6317 16.4925 20.3416 15.9574 18.996 15.956C17.6506 15.9574 16.3606 16.4925 15.4092 17.4439C14.4579 18.3953 13.9228 19.6852 13.9213 21.0307H13.588C13.5898 19.5971 14.1601 18.2227 15.174 17.2091C16.1879 16.1955 17.5624 15.6254 18.996 15.624C20.4296 15.6254 21.8042 16.1955 22.818 17.2091C23.8319 18.2227 24.4022 19.5971 24.404 21.0307Z" fill="#FFAE06"/>
  <path d="M26.68 15.624H11.312V15.956H26.68V15.624Z" fill="#FFAE06"/>
  <path d="M14.2853 20.5H13.2227V21.5627H14.2853V20.5Z" fill="#FFAE06"/>
  <path d="M24.768 20.5H23.7053V21.5627H24.768V20.5Z" fill="#FFAE06"/>
  <path d="M19.5267 15.2413H18.464V16.304H19.5267V15.2413Z" fill="#FFAE06"/>
  <path d="M11.2946 16.3053C11.5884 16.3053 11.8266 16.0671 11.8266 15.7733C11.8266 15.4795 11.5884 15.2413 11.2946 15.2413C11.0008 15.2413 10.7626 15.4795 10.7626 15.7733C10.7626 16.0671 11.0008 16.3053 11.2946 16.3053Z" fill="#FFAE06"/>
  <path d="M26.6293 16.3053C26.9232 16.3053 27.1613 16.0671 27.1613 15.7733C27.1613 15.4795 26.9232 15.2413 26.6293 15.2413C26.3355 15.2413 26.0974 15.4795 26.0974 15.7733C26.0974 16.0671 26.3355 16.3053 26.6293 16.3053Z" fill="#FFAE06"/>
</svg>
