<svg width="40" height="40" viewBox="0 0 40 40" fill="none" xmlns="http://www.w3.org/2000/svg">
  <rect x="0.25" y="0.25" width="39.5" height="39.5" rx="5.75" stroke="#E8EAEB" stroke-width="0.5"/>
  <g opacity="0.3">
    <path opacity="0.3" d="M26.6219 10.5664C25.8928 10.5657 25.1938 10.2759 24.6782 9.76047C24.1625 9.24508 23.8724 8.5462 23.8713 7.81716V4H11.5878C10.6363 4 9.72369 4.37802 9.05084 5.05087C8.37798 5.72372 8 6.63628 8 7.58784V29.2163C8 30.1678 8.37798 31.0804 9.05084 31.7533C9.72369 32.4261 10.6363 32.8041 11.5878 32.8041H26.3339C27.2855 32.8041 28.198 32.4261 28.8709 31.7533C29.5437 31.0804 29.9217 30.1678 29.9217 29.2163V10.5664H26.6219Z" fill="#0088FF"/>
  </g>
  <path d="M29.9218 10.5664H26.6219C25.8929 10.5657 25.1938 10.2759 24.6782 9.76047C24.1626 9.24508 23.8724 8.5462 23.8713 7.81716V4L29.9218 10.5664Z" fill="#0088FF"/>
  <path d="M25.4125 15.1635H11.6464C11.5143 15.1632 11.3876 15.1105 11.2942 15.0171C11.2008 14.9237 11.1481 14.797 11.1478 14.6649C11.1478 14.5325 11.2002 14.4055 11.2937 14.3118C11.3872 14.2181 11.514 14.1653 11.6464 14.1649H25.4125C25.5449 14.1653 25.6717 14.2181 25.7652 14.3118C25.8587 14.4055 25.9112 14.5325 25.9112 14.6649C25.9108 14.797 25.8581 14.9237 25.7647 15.0171C25.6713 15.1105 25.5446 15.1632 25.4125 15.1635Z" fill="#0088FF"/>
  <path d="M25.4125 18.1461H11.6464C11.5143 18.1457 11.3876 18.0931 11.2942 17.9996C11.2008 17.9062 11.1481 17.7796 11.1478 17.6474C11.1478 17.5151 11.2002 17.3881 11.2937 17.2944C11.3872 17.2006 11.514 17.1478 11.6464 17.1475H25.4125C25.5449 17.1478 25.6717 17.2006 25.7652 17.2944C25.8587 17.3881 25.9112 17.5151 25.9112 17.6474C25.9108 17.7796 25.8581 17.9062 25.7647 17.9996C25.6713 18.0931 25.5446 18.1457 25.4125 18.1461Z" fill="#0088FF"/>
  <path d="M25.4125 21.1286H11.6464C11.514 21.1283 11.3872 21.0755 11.2937 20.9817C11.2002 20.888 11.1478 20.761 11.1478 20.6286C11.1481 20.4965 11.2008 20.3699 11.2942 20.2765C11.3876 20.183 11.5143 20.1304 11.6464 20.13H25.4125C25.5446 20.1304 25.6713 20.183 25.7647 20.2765C25.8581 20.3699 25.9108 20.4965 25.9112 20.6286C25.9112 20.761 25.8587 20.888 25.7652 20.9817C25.6717 21.0755 25.5449 21.1283 25.4125 21.1286Z" fill="#0088FF"/>
  <path d="M25.4125 24.1098H11.6464C11.5142 24.1098 11.3873 24.0573 11.2938 23.9638C11.2003 23.8703 11.1478 23.7434 11.1478 23.6112C11.1478 23.4788 11.2002 23.3518 11.2937 23.2581C11.3872 23.1644 11.514 23.1116 11.6464 23.1112H25.4125C25.5449 23.1116 25.6717 23.1644 25.7652 23.2581C25.8587 23.3518 25.9112 23.4788 25.9112 23.6112C25.9112 23.7434 25.8586 23.8703 25.7651 23.9638C25.6716 24.0573 25.5448 24.1098 25.4125 24.1098Z" fill="#0088FF"/>
  <path d="M32.5244 26.7471H15.853C14.6705 26.7471 13.7118 27.7057 13.7118 28.8883V33.8588C13.7118 35.0414 14.6705 36 15.853 36H32.5244C33.7069 36 34.6656 35.0414 34.6656 33.8588V28.8883C34.6656 27.7057 33.7069 26.7471 32.5244 26.7471Z" fill="#0088FF"/>
  <path d="M19.4076 32.4495V33.4188H18.4036V32.4495H19.4076Z" fill="white"/>
  <path d="M22.7927 29.4097V30.1816H21.7034V33.4188H20.7288V30.1816H19.6501V29.4097H22.7927Z" fill="white"/>
  <path d="M25.634 33.4188L24.7887 32.1709L24.0621 33.4188H22.9514L24.2327 31.3549L22.9114 29.4097H24.0621L24.8847 30.6176L25.594 29.4097H26.6993L25.4353 31.4282L26.7846 33.4188H25.634Z" fill="white"/>
  <path d="M30.0389 29.4097V30.1816H28.951V33.4188H27.975V30.1816H26.8978V29.4097H30.0389Z" fill="white"/>
</svg>
