<svg width="40" height="40" viewBox="0 0 40 40" fill="none" xmlns="http://www.w3.org/2000/svg">
  <rect x="0.25" y="0.25" width="39.5" height="39.5" rx="5.75" stroke="#E8EAEB" stroke-width="0.5"/>
  <g opacity="0.3">
    <path opacity="0.3" d="M26.6219 10.5664C25.893 10.5657 25.1941 10.2758 24.6787 9.76037C24.1633 9.24495 23.8734 8.54608 23.8727 7.81716V4H11.5879C10.6363 4 9.72372 4.37802 9.05087 5.05087C8.37802 5.72372 8 6.63628 8 7.58784V29.2163C8 30.1678 8.37802 31.0804 9.05087 31.7533C9.72372 32.4261 10.6363 32.8041 11.5879 32.8041H26.3339C27.2855 32.8041 28.1981 32.4261 28.8709 31.7533C29.5438 31.0804 29.9218 30.1678 29.9218 29.2163V10.5664H26.6219Z" fill="#0FD186"/>
  </g>
  <path d="M29.9218 10.5664H26.6219C25.893 10.5657 25.1941 10.2758 24.6787 9.76037C24.1633 9.24495 23.8734 8.54608 23.8727 7.81716V4L29.9218 10.5664Z" fill="#0FD186"/>
  <path d="M32.5244 26.7471H15.853C14.6705 26.7471 13.7118 27.7057 13.7118 28.8883V33.8588C13.7118 35.0414 14.6705 36 15.853 36H32.5244C33.7069 36 34.6656 35.0414 34.6656 33.8588V28.8883C34.6656 27.7057 33.7069 26.7471 32.5244 26.7471Z" fill="#0FD186"/>
  <path d="M19.6569 32.4495V33.4188H18.6529V32.4495H19.6569Z" fill="white"/>
  <path d="M22.5941 33.4188L21.7501 32.1709L21.0235 33.4188H19.9129L21.1941 31.3549L19.8729 29.4097H21.0235L21.8461 30.6176L22.5554 29.4097H23.6607L22.3967 31.4282L23.746 33.4188H22.5941Z" fill="white"/>
  <path d="M26.8392 32.8748C26.7242 33.0589 26.5591 33.2065 26.3632 33.3001C26.1249 33.4118 25.8637 33.4661 25.6006 33.4588C25.2037 33.4754 24.8125 33.3595 24.4887 33.1295C24.3454 33.0219 24.2282 32.8835 24.1458 32.7245C24.0634 32.5655 24.0179 32.3899 24.0127 32.2108H25.0446C25.052 32.3459 25.1095 32.4733 25.2059 32.5682C25.3019 32.6577 25.4294 32.7056 25.5606 32.7015C25.614 32.7046 25.6676 32.6972 25.7182 32.6795C25.7687 32.6619 25.8153 32.6345 25.8553 32.5988C25.8908 32.5643 25.9188 32.5228 25.9374 32.4769C25.956 32.431 25.9648 32.3817 25.9632 32.3322C25.9646 32.2852 25.9564 32.2384 25.9392 32.1946C25.922 32.1509 25.8962 32.1111 25.8632 32.0775C25.7927 32.0061 25.7089 31.949 25.6166 31.9095C25.5197 31.8669 25.3837 31.8148 25.2086 31.7535C24.9961 31.6835 24.7886 31.5993 24.5873 31.5015C24.4219 31.4163 24.28 31.2918 24.174 31.1389C24.051 30.9538 23.9903 30.7343 24.0007 30.5123C23.9958 30.2923 24.0592 30.0762 24.182 29.8936C24.3081 29.7152 24.4825 29.5765 24.6846 29.4936C24.9177 29.3988 25.1678 29.3534 25.4193 29.3603C25.8011 29.3392 26.1782 29.4519 26.4859 29.679C26.6169 29.7855 26.7241 29.9182 26.8008 30.0686C26.8775 30.2189 26.9219 30.3837 26.9312 30.5522H25.8819C25.8702 30.4343 25.8196 30.3236 25.7379 30.2376C25.6962 30.1976 25.6468 30.1666 25.5927 30.1464C25.5386 30.1263 25.481 30.1173 25.4233 30.1202C25.3233 30.1157 25.2251 30.148 25.1473 30.2109C25.1114 30.245 25.0834 30.2865 25.0655 30.3326C25.0475 30.3787 25.0399 30.4282 25.0433 30.4776C25.0412 30.5672 25.0748 30.654 25.1366 30.7189C25.2029 30.7882 25.2828 30.8431 25.3713 30.8802C25.4659 30.9216 25.6019 30.9749 25.7793 31.0389C25.9956 31.1094 26.2064 31.1958 26.4099 31.2975C26.5761 31.3872 26.7194 31.5141 26.8285 31.6682C26.9529 31.8563 27.0146 32.0789 27.0045 32.3042C27.0027 32.5059 26.9456 32.7033 26.8392 32.8748Z" fill="white"/>
  <path d="M28.5098 32.6762H29.8084V33.4188H27.5419V29.4097H28.5125L28.5098 32.6762Z" fill="white"/>
  <path d="M23.8513 24.1112H14.0757C13.2291 24.1112 12.5398 23.2686 12.5398 22.2313V15.1396C12.5398 14.1036 13.2291 13.261 14.0757 13.261H23.8553C24.7006 13.261 25.3899 14.1036 25.3899 15.1396V22.2313C25.3859 23.2686 24.6966 24.1112 23.8513 24.1112ZM14.0757 14.2209C13.6611 14.2209 13.3251 14.6329 13.3251 15.1396V22.2313C13.3251 22.7379 13.6611 23.1499 14.0757 23.1499H23.8553C24.2687 23.1499 24.6046 22.7379 24.6046 22.2313V15.1396C24.6046 14.6329 24.2687 14.2209 23.8553 14.2209H14.0757Z" fill="#0FD186"/>
  <path d="M24.994 19.8407H12.9291V20.802H24.994V19.8407Z" fill="#0FD186"/>
  <path d="M24.994 16.5448H12.9291V17.5061H24.994V16.5448Z" fill="#0FD186"/>
  <path d="M21.9034 13.741H20.9421V23.6299H21.9034V13.741Z" fill="#0FD186"/>
  <path d="M16.9797 13.741H16.0184V23.6299H16.9797V13.741Z" fill="#0FD186"/>
</svg>
