<svg width="40" height="40" viewBox="0 0 40 40" fill="none" xmlns="http://www.w3.org/2000/svg">
  <rect x="0.25" y="0.25" width="39.5" height="39.5" rx="5.75" stroke="#E8EAEB" stroke-width="0.5"/>
  <g opacity="0.3">
    <path opacity="0.3" d="M26.6219 10.5664C25.893 10.5657 25.1941 10.2758 24.6787 9.76037C24.1633 9.24495 23.8734 8.54608 23.8727 7.81716V4H11.5879C10.6363 4 9.72372 4.37802 9.05087 5.05087C8.37802 5.72372 8 6.63628 8 7.58784V29.2163C8 30.1678 8.37802 31.0804 9.05087 31.7533C9.72372 32.4261 10.6363 32.8041 11.5879 32.8041H26.3339C27.2855 32.8041 28.1981 32.4261 28.8709 31.7533C29.5438 31.0804 29.9218 30.1678 29.9218 29.2163V10.5664H26.6219Z" fill="#0FD186"/>
  </g>
  <path d="M29.9217 10.5664H26.6219C25.8929 10.5657 25.1941 10.2758 24.6786 9.76037C24.1632 9.24495 23.8733 8.54608 23.8726 7.81716V4L29.9217 10.5664Z" fill="#0FD186"/>
  <path d="M32.5243 26.7471H15.853C14.6704 26.7471 13.7117 27.7057 13.7117 28.8883V33.8588C13.7117 35.0414 14.6704 36 15.853 36H32.5243C33.7069 36 34.6655 35.0414 34.6655 33.8588V28.8883C34.6655 27.7057 33.7069 26.7471 32.5243 26.7471Z" fill="#0FD186"/>
  <path d="M17.5369 32.424V33.3932H16.533V32.424H17.5369Z" fill="white"/>
  <path d="M20.4741 33.3933L19.6301 32.1454L18.9035 33.3933H17.7929L19.0741 31.3294L17.7529 29.3842H18.9035L19.7261 30.5921L20.4354 29.3842H21.5407L20.2768 31.4027L21.626 33.3933H20.4741Z" fill="white"/>
  <path d="M30.7337 33.4492L29.8897 32.2013L29.1631 33.4492H28.0525L29.3337 31.3853L28.0125 29.4401H29.1631L29.9857 30.648L30.695 29.4401H31.8003L30.5363 31.4586L31.8856 33.4492H30.7337Z" fill="white"/>
  <path d="M24.7193 32.8493C24.6042 33.0334 24.4391 33.1809 24.2433 33.2746C24.0049 33.3862 23.7438 33.4406 23.4807 33.4333C23.0837 33.4499 22.6926 33.334 22.3687 33.104C22.2255 32.9964 22.1083 32.858 22.0259 32.699C21.9435 32.5399 21.8979 32.3644 21.8927 32.1853H22.9247C22.9321 32.3204 22.9896 32.4478 23.086 32.5426C23.182 32.6321 23.3095 32.6801 23.4407 32.676C23.4941 32.6791 23.5477 32.6717 23.5982 32.654C23.6488 32.6364 23.6954 32.609 23.7353 32.5733C23.7709 32.5388 23.7989 32.4973 23.8175 32.4514C23.8361 32.4055 23.8448 32.3562 23.8433 32.3067C23.8446 32.2597 23.8365 32.2129 23.8193 32.1691C23.8021 32.1254 23.7763 32.0855 23.7433 32.052C23.6727 31.9806 23.589 31.9235 23.4967 31.884C23.3998 31.8413 23.2638 31.7893 23.0887 31.728C22.8762 31.658 22.6686 31.5738 22.4674 31.476C22.302 31.3908 22.16 31.2663 22.0541 31.1134C21.931 30.9283 21.8703 30.7087 21.8807 30.4867C21.8759 30.2668 21.9393 30.0507 22.0621 29.8681C22.1882 29.6897 22.3625 29.5509 22.5647 29.4681C22.7977 29.3733 23.0479 29.3279 23.2993 29.3348C23.6811 29.3137 24.0583 29.4264 24.366 29.6534C24.4969 29.76 24.6042 29.8927 24.6809 30.043C24.7576 30.1934 24.8019 30.3582 24.8113 30.5267H23.762C23.7503 30.4087 23.6996 30.298 23.618 30.2121C23.5763 30.1721 23.5269 30.1411 23.4728 30.1209C23.4187 30.1008 23.361 30.0918 23.3034 30.0947C23.2034 30.0902 23.1052 30.1225 23.0274 30.1854C22.9915 30.2195 22.9635 30.261 22.9455 30.3071C22.9275 30.3532 22.92 30.4027 22.9234 30.4521C22.9213 30.5417 22.9549 30.6285 23.0167 30.6934C23.083 30.7627 23.1629 30.8176 23.2513 30.8547C23.346 30.8961 23.482 30.9494 23.6593 31.0134C23.8757 31.0839 24.0864 31.1703 24.29 31.272C24.4562 31.3617 24.5994 31.4885 24.7086 31.6427C24.833 31.8307 24.8946 32.0534 24.8846 32.2787C24.8828 32.4804 24.8256 32.6778 24.7193 32.8493Z" fill="white"/>
  <path d="M26.3899 32.6507H27.6885V33.3933H25.4219V29.3842H26.3926L26.3899 32.6507Z" fill="white"/>
  <path d="M23.8513 24.1112H14.0757C13.2291 24.1112 12.5398 23.2686 12.5398 22.2313V15.1396C12.5398 14.1036 13.2291 13.261 14.0757 13.261H23.8553C24.7006 13.261 25.3899 14.1036 25.3899 15.1396V22.2313C25.3859 23.2686 24.6966 24.1112 23.8513 24.1112ZM14.0757 14.2209C13.6611 14.2209 13.3251 14.6329 13.3251 15.1396V22.2313C13.3251 22.7379 13.6611 23.1499 14.0757 23.1499H23.8553C24.2687 23.1499 24.6046 22.7379 24.6046 22.2313V15.1396C24.6046 14.6329 24.2687 14.2209 23.8553 14.2209H14.0757Z" fill="#0FD186"/>
  <path d="M24.9939 19.8407H12.9291V20.802H24.9939V19.8407Z" fill="#0FD186"/>
  <path d="M24.9939 16.5448H12.9291V17.5061H24.9939V16.5448Z" fill="#0FD186"/>
  <path d="M21.9035 13.741H20.9422V23.6299H21.9035V13.741Z" fill="#0FD186"/>
  <path d="M16.9797 13.741H16.0184V23.6299H16.9797V13.741Z" fill="#0FD186"/>
</svg>
