<svg width="32" height="32" viewBox="0 0 32 32" fill="none" xmlns="http://www.w3.org/2000/svg">
<path d="M26.913 2.68341C26.8852 2.68119 26.8618 2.66675 26.833 2.66675H14.8885C13.0507 2.66675 11.5552 4.1623 11.5552 6.00008V7.11119C11.5552 7.72453 12.053 8.2223 12.6663 8.2223C13.2796 8.2223 13.7774 7.72453 13.7774 7.11119V6.00008C13.7774 5.38786 14.2763 4.88897 14.8885 4.88897H20.0652L19.7263 5.0023C18.8263 5.31341 18.2218 6.16119 18.2218 7.11119V23.7779H14.8885C14.2763 23.7779 13.7774 23.279 13.7774 22.6667V20.4445C13.7774 19.8312 13.2796 19.3334 12.6663 19.3334C12.053 19.3334 11.5552 19.8312 11.5552 20.4445V22.6667C11.5552 24.5045 13.0507 26.0001 14.8885 26.0001H18.2218V27.1112C18.2218 28.3367 19.2185 29.3334 20.4441 29.3334C20.6818 29.3334 20.9074 29.299 21.1518 29.2234L27.8274 26.9979C28.7285 26.6867 29.333 25.839 29.333 24.889V4.88897C29.333 3.59341 28.2163 2.57786 26.913 2.68341Z" fill="white"/>
<path d="M14.5632 12.9921L10.1187 8.54769C9.80095 8.22991 9.32317 8.13436 8.90762 8.30658C8.49317 8.4788 8.22206 8.88436 8.22206 9.33324V12.6666H3.77762C3.16428 12.6666 2.6665 13.1644 2.6665 13.7777C2.6665 14.391 3.16428 14.8888 3.77762 14.8888H8.22206V18.2221C8.22206 18.671 8.49317 19.0766 8.90762 19.2488C9.32317 19.421 9.80095 19.3255 10.1187 19.0077L14.5632 14.5632C14.9976 14.1288 14.9976 13.4266 14.5632 12.9921Z" fill="white"/>
</svg>
