<svg width="23" height="23" viewBox="0 0 23 23" fill="none"
  xmlns="http://www.w3.org/2000/svg">
  <path fill-rule="evenodd" clip-rule="evenodd" d="M21.8 1.99995C21.8 1.00584 20.994 0.199951 20 0.199951H1.99996C1.00584 0.199951 0.199951 1.00584 0.199951 1.99995L0.199968 20C0.199969 20.994 1.00585 21.8 1.99997 21.8H11V19.4H3.19637C2.70437 19.4 2.42837 18.848 2.71637 18.452L6.97997 13.5908C7.20797 13.3388 7.60397 13.3388 7.84397 13.5788L9.79997 15.8L13.472 10.0628C13.724 9.70275 14.252 9.71475 14.48 10.0868L15.3449 11.5882C16.2203 11.2097 17.1856 11 18.2 11H21.8V1.99995ZM7.99997 4.39995C9.31997 4.39995 10.4 5.47995 10.4 6.79995C10.4 8.11995 9.31997 9.19995 7.99997 9.19995C6.67997 9.19995 5.59997 8.11995 5.59997 6.79995C5.59997 5.47995 6.67997 4.39995 7.99997 4.39995Z" fill="#A3A8AF"/>
  <path d="M22.6484 17.3514C22.4234 17.1264 22.1181 16.9999 21.7999 16.9999H19.3999V14.5999C19.3999 14.2817 19.2734 13.9764 19.0484 13.7514C18.8234 13.5264 18.5181 13.3999 18.1999 13.3999C17.8817 13.3999 17.5764 13.5264 17.3514 13.7514C17.1264 13.9764 16.9999 14.2817 16.9999 14.5999V16.9999H14.5999C14.2817 16.9999 13.9764 17.1264 13.7514 17.3514C13.5264 17.5764 13.3999 17.8817 13.3999 18.1999C13.3999 18.5181 13.5264 18.8234 13.7514 19.0484C13.9764 19.2734 14.2817 19.3999 14.5999 19.3999H16.9999V21.7999C16.9999 22.1181 17.1264 22.4234 17.3514 22.6484C17.5764 22.8734 17.8817 22.9999 18.1999 22.9999C18.5181 22.9999 18.8234 22.8734 19.0484 22.6484C19.2734 22.4234 19.3999 22.1181 19.3999 21.7999V19.3999H21.7999C22.1181 19.3999 22.4234 19.2734 22.6484 19.0484C22.8734 18.8234 22.9999 18.5181 22.9999 18.1999C22.9999 17.8817 22.8734 17.5764 22.6484 17.3514Z" fill="#A3A8AF"/>
</svg>
