<svg width="16" height="16" viewBox="0 0 16 16" fill="none"
  xmlns="http://www.w3.org/2000/svg">
  <g clip-path="url(#clip0_482_34164)">
    <path d="M5.35109 9.80558C5.35109 10.1184 5.60491 10.3722 5.91775 10.3722C6.23059 10.3722 6.48442 10.1184 6.48442 9.80558V7.16669C6.48442 6.31833 5.79452 5.6278 4.94553 5.6278C4.09654 5.6278 3.40664 6.31833 3.40664 7.16669V9.80558C3.40664 10.1184 3.66046 10.3722 3.97331 10.3722C4.28615 10.3722 4.53997 10.1184 4.53997 9.80558V7.16669C4.53997 6.94332 4.7218 6.76113 4.94553 6.76113C5.16926 6.76113 5.35109 6.94332 5.35109 7.16669V9.80558Z" fill="white" stroke="white" stroke-width="0.3"/>
    <path d="M3.97331 8.84445H5.91775C6.23059 8.84445 6.48442 8.59062 6.48442 8.27778C6.48442 7.96494 6.23059 7.71111 5.91775 7.71111H3.97331C3.66046 7.71111 3.40664 7.96494 3.40664 8.27778C3.40664 8.59062 3.66046 8.84445 3.97331 8.84445Z" fill="white" stroke="white" stroke-width="0.3"/>
    <path d="M8.69575 10.3722H9.80686C10.1197 10.3722 10.3735 10.1184 10.3735 9.80558C10.3735 9.49274 10.1197 9.23891 9.80686 9.23891H8.69575C8.39581 9.23891 8.1513 8.9944 8.1513 8.69447V6.19447C8.1513 5.88163 7.89748 5.6278 7.58464 5.6278C7.27179 5.6278 7.01797 5.88163 7.01797 6.19447V8.69447C7.01797 9.62009 7.77013 10.3722 8.69575 10.3722Z" fill="white" stroke="white" stroke-width="0.3"/>
    <path d="M10.6293 9.80558C10.6293 10.1184 10.8831 10.3722 11.196 10.3722C11.5088 10.3722 11.7626 10.1184 11.7626 9.80558V6.19447C11.7626 5.88163 11.5088 5.6278 11.196 5.6278C10.8831 5.6278 10.6293 5.88163 10.6293 6.19447V9.80558Z" fill="white" stroke="white" stroke-width="0.3"/>
    <path d="M10.0846 6.76113H12.3069C12.6197 6.76113 12.8735 6.50731 12.8735 6.19447C12.8735 5.88163 12.6197 5.6278 12.3069 5.6278H10.0846C9.77179 5.6278 9.51797 5.88163 9.51797 6.19447C9.51797 6.50731 9.77179 6.76113 10.0846 6.76113Z" fill="white" stroke="white" stroke-width="0.3"/>
    <path d="M2.86176 14.8167H13.1395C14.0652 14.8167 14.8173 14.0645 14.8173 13.1389V2.86112C14.8173 1.9355 14.0652 1.18334 13.1395 1.18334H2.86176C1.93614 1.18334 1.18398 1.9355 1.18398 2.86112V13.1389C1.18398 14.0645 1.93614 14.8167 2.86176 14.8167ZM2.31732 2.86112C2.31732 2.56119 2.56183 2.31668 2.86176 2.31668H13.1395C13.4395 2.31668 13.684 2.56119 13.684 2.86112V13.1389C13.684 13.4388 13.4395 13.6833 13.1395 13.6833H2.86176C2.56183 13.6833 2.31732 13.4388 2.31732 13.1389V2.86112Z" fill="white" stroke="white" stroke-width="0.3"/>
  </g>
  <defs>
    <clipPath id="clip0_482_34164">
      <rect width="13.3333" height="13.3333" fill="white" transform="translate(1.33398 1.33334)"/>
    </clipPath>
  </defs>
</svg>
