<svg width="11" height="20" viewBox="0 0 11 20" fill="none" xmlns="http://www.w3.org/2000/svg">
<g id="Frame 427320953">
<path id="Vector 19" d="M1.5 1C1.5 0.723858 1.27614 0.5 1 0.5C0.723858 0.5 0.5 0.723858 0.5 1H1.5ZM10.3536 10.3536C10.5488 10.1583 10.5488 9.84171 10.3536 9.64645L7.17157 6.46447C6.97631 6.2692 6.65973 6.2692 6.46447 6.46447C6.2692 6.65973 6.2692 6.97631 6.46447 7.17157L9.29289 10L6.46447 12.8284C6.2692 13.0237 6.2692 13.3403 6.46447 13.5355C6.65973 13.7308 6.97631 13.7308 7.17157 13.5355L10.3536 10.3536ZM0.5 1V6H1.5V1H0.5ZM5 10.5H10V9.5H5V10.5ZM0.5 6C0.5 8.48528 2.51472 10.5 5 10.5V9.5C3.067 9.5 1.5 7.933 1.5 6H0.5Z" fill="#A3A8AF"/>
</g>
</svg>
