<svg width="20" height="20" viewBox="0 0 20 20" fill="none" xmlns="http://www.w3.org/2000/svg">
<path d="M4.73698 7.99933C5.10517 7.99933 5.40365 7.70086 5.40365 7.33267C5.40365 6.96448 5.10517 6.666 4.73698 6.666C4.36879 6.666 4.07031 6.96448 4.07031 7.33267C4.07031 7.70086 4.36879 7.99933 4.73698 7.99933Z" fill="#0088FF"/>
<path d="M9.77214 7.99933C10.1403 7.99933 10.4388 7.70086 10.4388 7.33267C10.4388 6.96448 10.1403 6.666 9.77214 6.666C9.40395 6.666 9.10547 6.96448 9.10547 7.33267C9.10547 7.70086 9.40395 7.99933 9.77214 7.99933Z" fill="#0088FF"/>
<path d="M12.5347 16.1193C12.1034 16.1193 11.6974 15.9513 11.3921 15.646L10.6494 14.9033C10.3894 14.6433 10.3894 14.2207 10.6494 13.9607C10.9094 13.7007 11.3321 13.7007 11.5921 13.9607L12.3347 14.7033C12.4801 14.8487 12.5921 14.848 12.7347 14.7033L15.3627 12.0753C15.6227 11.8153 16.0454 11.8153 16.3054 12.0753C16.5654 12.336 16.5654 12.758 16.3054 13.018L13.6774 15.6453C13.3721 15.9507 12.9667 16.1187 12.5347 16.1187V16.1193Z" fill="#0088FF"/>
<path d="M8.04508 19.3333C8.04508 19.7013 7.74642 20 7.37842 20H2.93575C2.11042 20 1.31842 19.65 0.763751 19.0393C0.208417 18.4287 -0.0649159 17.6073 0.0130841 16.7853L0.957751 6.86933C1.07642 5.62133 2.12508 4.66866 3.37842 4.66866H10.8344C11.7878 4.66866 12.6158 5.21 13.0138 6.01666C13.2137 6.422 12.9138 6.902 12.4631 6.94466H12.4584C12.1951 6.97 11.9338 6.84133 11.8151 6.60466C11.6344 6.24333 11.2624 6.002 10.8338 6.002H3.37842C2.81242 6.002 2.33908 6.432 2.28508 6.996L1.34042 16.9127C1.29708 17.3687 1.44242 17.8053 1.75042 18.144C2.05775 18.482 2.47908 18.668 2.93575 18.668H7.37842C7.74642 18.668 8.04508 18.9667 8.04508 19.3347V19.3333Z" fill="#0088FF"/>
<path d="M13.1077 20C9.79967 20 7.10767 17.3087 7.10767 14C7.10767 10.6913 9.79967 8 13.1077 8C16.4157 8 19.1077 10.6913 19.1077 14C19.1077 17.3087 16.4157 20 13.1077 20ZM13.1077 9.33333C10.5343 9.33333 8.441 11.4273 8.441 14C8.441 16.5727 10.5343 18.6667 13.1077 18.6667C15.681 18.6667 17.7743 16.5727 17.7743 14C17.7743 11.4273 15.681 9.33333 13.1077 9.33333Z" fill="#0088FF"/>
<path d="M11.1063 5.33467H9.77299V4C9.77299 2.52933 8.57699 1.33333 7.10632 1.33333C5.63566 1.33333 4.43966 2.52933 4.43966 4V5.33467H3.10632V4C3.10632 1.794 4.90032 0 7.10632 0C9.31232 0 11.1063 1.794 11.1063 4V5.33467Z" fill="#0088FF"/>
</svg>
