<svg width="20" height="20" viewBox="0 0 20 20" fill="none" xmlns="http://www.w3.org/2000/svg">
<path d="M8.5 3.00018C7.67173 3.00018 7 3.68046 7 4.5203V5.02733H3.5C2.67157 5.02733 2 5.70802 2 6.54769V14.6563C2 15.496 2.67157 16.1767 3.5 16.1767H16.5C17.3284 16.1767 18 15.496 18 14.6563V6.54769C18 5.70802 17.3284 5.02733 16.5 5.02733H13V4.5203C13 3.68046 12.3283 3.00018 11.5 3.00018H8.5ZM8.5 4.01376H11.5C11.7763 4.01376 12 4.24144 12 4.52117V5.02733H8V4.5203C8 4.24057 8.2237 4.01376 8.5 4.01376ZM10.3865 11.022L17 9.23448V14.6563C17 14.9362 16.7761 15.1631 16.5 15.1631H3.5C3.22386 15.1631 3 14.9362 3 14.6563V9.23448L9.61351 11.022C9.86674 11.0905 10.1333 11.0905 10.3865 11.022ZM3.5 6.04091H16.5C16.7761 6.04091 17 6.2678 17 6.54769V8.18549L10.1288 10.0427C10.0444 10.0655 9.95558 10.0655 9.87117 10.0427L3 8.18549V6.54769C3 6.2678 3.22386 6.04091 3.5 6.04091Z" fill="#A3A8AF"/>
</svg>
