<svg width="32" height="32" viewBox="0 0 32 32" fill="none" xmlns="http://www.w3.org/2000/svg">
<g clip-path="url(#clip0_2207_2200)">
<path d="M31.3789 11.0472L29.7877 9.45605C29.2519 8.92031 28.489 8.72416 27.7868 8.8948C27.9576 8.1923 27.7611 7.42952 27.2255 6.89392L23.7739 3.44226C23.4548 3.12318 23.0522 2.9225 22.6277 2.85082C22.5559 2.42599 22.355 2.02335 22.0362 1.70462L20.9527 0.621129C20.1246 -0.207043 18.7819 -0.207043 17.9537 0.621129L7.10278 11.4721C6.2746 12.3002 6.2746 13.6429 7.10278 14.4711L9.41383 16.7822C9.63048 16.9987 9.73552 17.2977 9.70209 17.6024C9.66865 17.9071 9.5007 18.1765 9.24128 18.3419C2.35294 22.7328 1.70601 23.3797 1.42969 23.656C-0.47653 25.5622 -0.4766 28.664 1.42969 30.5701C3.33592 32.4764 6.43761 32.4764 8.3439 30.5701C8.62022 30.2938 9.26722 29.6468 13.658 22.7586C13.8225 22.5005 14.0918 22.3333 14.3968 22.2998C14.703 22.2661 15.0022 22.3705 15.2178 22.5861L17.5289 24.8971C18.357 25.7253 19.6997 25.7252 20.5279 24.8971L31.3789 14.0463C32.207 13.2181 32.207 11.8754 31.3789 11.0472ZM19.0284 23.3978L16.7174 21.0867C16.0473 20.4167 15.1074 20.0886 14.1655 20.192C13.2236 20.2954 12.3792 20.8198 11.8699 21.6189C9.92376 24.672 7.47219 28.4432 6.84448 29.0708C5.76332 30.152 4.01042 30.152 2.92926 29.0708C1.84809 27.9896 1.84809 26.2368 2.92926 25.1556C3.55689 24.5279 7.32806 22.0764 10.3812 20.1301C11.1807 19.6205 11.7066 18.7763 11.81 17.8339C11.9134 16.8915 11.5836 15.9531 10.9133 15.2827L8.60226 12.9716L10.2875 11.2864L20.7136 21.7125L19.0284 23.3978ZM22.2145 20.2116L11.7884 9.78553L19.4533 2.12062L20.5368 3.20404L19.3267 5.88846C19.2854 5.97993 19.3052 6.08731 19.3759 6.15807C19.3766 6.15877 19.3774 6.15948 19.3781 6.16019C19.4507 6.23094 19.5598 6.24876 19.6511 6.20479L22.2744 4.94175L25.7261 8.39341L21.1108 15.2716C21.0466 15.3673 21.0591 15.4951 21.1406 15.5765C21.1407 15.5767 21.1409 15.5769 21.1411 15.577C21.2229 15.6584 21.3511 15.6703 21.4466 15.6054L28.2882 10.9555L29.8794 12.5466L22.2145 20.2116Z" fill="#A3A8AF"/>
<path d="M5.21995 28.0288C5.90963 28.0288 6.46872 27.4697 6.46872 26.78C6.46872 26.0903 5.90963 25.5312 5.21995 25.5312C4.53028 25.5312 3.97119 26.0903 3.97119 26.78C3.97119 27.4697 4.53028 28.0288 5.21995 28.0288Z" fill="#A3A8AF"/>
</g>
<defs>
<clipPath id="clip0_2207_2200">
<rect width="32" height="32" fill="white"/>
</clipPath>
</defs>
</svg>
