<svg width="20" height="20" viewBox="0 0 20 20" fill="none" xmlns="http://www.w3.org/2000/svg">
  <path d="M10.2639 16.25C12.8958 16.25 14.5278 14.8914 14.5278 12.7209C14.5278 11.0889 13.2974 9.86694 11.6226 9.73877V9.67041C12.9299 9.47388 13.9382 8.34595 13.9382 6.99585C13.9382 5.10742 12.4856 3.91968 10.1699 3.91968H4.80371V16.25H10.2639ZM7.38428 5.84229H9.50342C10.7083 5.84229 11.4004 6.40625 11.4004 7.39746C11.4004 8.43994 10.6143 9.04663 9.23853 9.04663H7.38428V5.84229ZM7.38428 14.3274V10.7471H9.54614C11.0671 10.7471 11.896 11.3623 11.896 12.5159C11.896 13.6951 11.0928 14.3274 9.60596 14.3274H7.38428Z" fill="#46515F"/>
</svg>
