<svg width="33" height="32" viewBox="0 0 33 32" fill="none" xmlns="http://www.w3.org/2000/svg">
<path d="M19.3334 22.5C16.9334 22.1 17.3334 17 17.8334 14.5C18.3333 14.5 21.8335 15 24.3335 15.5C26.3335 15.9 28.1668 17 28.8335 17.5C29.5002 18.8333 30.2335 21.7 27.8335 22.5C25.4335 23.3 23.8335 21.5 23.3335 20.5C23.0001 21.3333 21.7334 22.9 19.3334 22.5Z" fill="#6CBBFF"/>
<path d="M17 29.3336H5.77329C4.22663 29.3336 2.95996 28.0936 2.95996 26.5736V6.78697C2.95996 3.29364 5.55996 1.70697 8.74663 3.26697L14.6666 6.17364C15.9466 6.8003 17 8.46697 17 9.8803V29.3336Z" stroke="#0088FF" stroke-width="1.5" stroke-linecap="round" stroke-linejoin="round"/>
<path d="M29.6267 20.0802V25.1202C29.6267 28.0002 28.2933 29.3336 25.4133 29.3336H17V13.8936L17.6267 14.0269L23.6267 15.3736L26.3333 15.9736C28.0933 16.3602 29.5333 17.2669 29.6133 19.8269C29.6267 19.9069 29.6267 19.9869 29.6267 20.0802Z" stroke="#0088FF" stroke-width="1.5" stroke-linecap="round" stroke-linejoin="round"/>
<path d="M7.66699 12H12.2937" stroke="#0088FF" stroke-width="1.5" stroke-linecap="round" stroke-linejoin="round"/>
<path d="M7.66699 17.3335H12.2937" stroke="#0088FF" stroke-width="1.5" stroke-linecap="round" stroke-linejoin="round"/>
<path d="M23.627 15.3735V19.6669C23.627 21.3202 22.2803 22.6669 20.627 22.6669C18.9736 22.6669 17.627 21.3202 17.627 19.6669V14.0269L23.627 15.3735Z" stroke="#0088FF" stroke-width="1.5" stroke-linecap="round" stroke-linejoin="round"/>
<path d="M29.6136 19.8269C29.5336 21.4002 28.227 22.6669 26.627 22.6669C24.9736 22.6669 23.627 21.3202 23.627 19.6669V15.3735L26.3336 15.9735C28.0936 16.3602 29.5336 17.2669 29.6136 19.8269Z" stroke="#0088FF" stroke-width="1.5" stroke-linecap="round" stroke-linejoin="round"/>
</svg>
