<svg width="24" height="24" viewBox="0 0 24 24" fill="none" xmlns="http://www.w3.org/2000/svg">
  <g clip-path="url(#clip0_14314_65846)">
    <path
      d="M19.375 3.5625H18.3594V2.78125C18.3594 2.34977 18.0096 2 17.5781 2C17.1466 2 16.7969 2.34977 16.7969 2.78125V3.5625H13.2422V2.78125C13.2422 2.34977 12.8924 2 12.4609 2C12.0295 2 11.6797 2.34977 11.6797 2.78125V3.5625H8.16406V2.78125C8.16406 2.34977 7.8143 2 7.38281 2C6.95133 2 6.60156 2.34977 6.60156 2.78125V3.5625H5.625C3.90188 3.5625 2.5 4.96438 2.5 6.6875V18.875C2.5 20.5981 3.90188 22 5.625 22H11.6016C12.033 22 12.3828 21.6502 12.3828 21.2188C12.3828 20.7873 12.033 20.4375 11.6016 20.4375H5.625C4.76344 20.4375 4.0625 19.7366 4.0625 18.875V6.6875C4.0625 5.82594 4.76344 5.125 5.625 5.125H6.60156V5.90625C6.60156 6.33773 6.95133 6.6875 7.38281 6.6875C7.8143 6.6875 8.16406 6.33773 8.16406 5.90625V5.125H11.6797V5.90625C11.6797 6.33773 12.0295 6.6875 12.4609 6.6875C12.8924 6.6875 13.2422 6.33773 13.2422 5.90625V5.125H16.7969V5.90625C16.7969 6.33773 17.1466 6.6875 17.5781 6.6875C18.0096 6.6875 18.3594 6.33773 18.3594 5.90625V5.125H19.375C20.2366 5.125 20.9375 5.82594 20.9375 6.6875V11.1406C20.9375 11.5721 21.2873 11.9219 21.7188 11.9219C22.1502 11.9219 22.5 11.5721 22.5 11.1406V6.6875C22.5 4.96438 21.0981 3.5625 19.375 3.5625Z"
      fill="#A3A8AF"
    />
    <path
      d="M5.625 3.5625H6.64062V2.78125C6.64062 2.34977 6.99039 2 7.42188 2C7.85336 2 8.20312 2.34977 8.20312 2.78125V3.5625H11.7578V2.78125C11.7578 2.34977 12.1076 2 12.5391 2C12.9705 2 13.3203 2.34977 13.3203 2.78125V3.5625H16.8359V2.78125C16.8359 2.34977 17.1857 2 17.6172 2C18.0487 2 18.3984 2.34977 18.3984 2.78125V3.5625H19.375C21.0981 3.5625 22.5 4.96438 22.5 6.6875V18.875C22.5 20.5981 21.0981 22 19.375 22H10.5469C10.1154 22 9.76562 21.6502 9.76562 21.2188C9.76562 20.7873 10.1154 20.4375 10.5469 20.4375H19.375C20.2366 20.4375 20.9375 19.7366 20.9375 18.875V6.6875C20.9375 5.82594 20.2366 5.125 19.375 5.125H18.3984V5.90625C18.3984 6.33773 18.0487 6.6875 17.6172 6.6875C17.1857 6.6875 16.8359 6.33773 16.8359 5.90625V5.125H13.3203V5.90625C13.3203 6.33773 12.9705 6.6875 12.5391 6.6875C12.1076 6.6875 11.7578 6.33773 11.7578 5.90625V5.125H8.20312V5.90625C8.20312 6.33773 7.85336 6.6875 7.42188 6.6875C6.99039 6.6875 6.64062 6.33773 6.64062 5.90625V5.125H5.625C4.76344 5.125 4.0625 5.82594 4.0625 6.6875V11.1406C4.0625 11.5721 3.71273 11.9219 3.28125 11.9219C2.84977 11.9219 2.5 11.5721 2.5 11.1406V6.6875C2.5 4.96438 3.90187 3.5625 5.625 3.5625Z"
      fill="#A3A8AF"
    />
    <rect x="3.55469" y="9.42188" width="18.5156" height="1.5625" rx="0.78125" fill="#A3A8AF" />
  </g>
  <defs>
    <clipPath id="clip0_14314_65846">
      <rect width="20" height="20" fill="white" transform="translate(2.5 2)" />
    </clipPath>
  </defs>
</svg>
