<svg width="24" height="24" viewBox="0 0 24 24" fill="none" xmlns="http://www.w3.org/2000/svg">
  <g clip-path="url(#clip0_14314_7048)">
    <path
      d="M19.375 3.5625H18.3594V2.78125C18.3594 2.34977 18.0096 2 17.5781 2C17.1466 2 16.7969 2.34977 16.7969 2.78125V3.5625H13.2422V2.78125C13.2422 2.34977 12.8924 2 12.4609 2C12.0295 2 11.6797 2.34977 11.6797 2.78125V3.5625H8.16406V2.78125C8.16406 2.34977 7.8143 2 7.38281 2C6.95133 2 6.60156 2.34977 6.60156 2.78125V3.5625H5.625C3.90188 3.5625 2.5 4.96438 2.5 6.6875V18.875C2.5 20.5981 3.90188 22 5.625 22H11.6016C12.033 22 12.3828 21.6502 12.3828 21.2188C12.3828 20.7873 12.033 20.4375 11.6016 20.4375H5.625C4.76344 20.4375 4.0625 19.7366 4.0625 18.875V6.6875C4.0625 5.82594 4.76344 5.125 5.625 5.125H6.60156V5.90625C6.60156 6.33773 6.95133 6.6875 7.38281 6.6875C7.8143 6.6875 8.16406 6.33773 8.16406 5.90625V5.125H11.6797V5.90625C11.6797 6.33773 12.0295 6.6875 12.4609 6.6875C12.8924 6.6875 13.2422 6.33773 13.2422 5.90625V5.125H16.7969V5.90625C16.7969 6.33773 17.1466 6.6875 17.5781 6.6875C18.0096 6.6875 18.3594 6.33773 18.3594 5.90625V5.125H19.375C20.2366 5.125 20.9375 5.82594 20.9375 6.6875V11.1406C20.9375 11.5721 21.2873 11.9219 21.7188 11.9219C22.1502 11.9219 22.5 11.5721 22.5 11.1406V6.6875C22.5 4.96438 21.0981 3.5625 19.375 3.5625Z"
      fill="#A3A8AF"
    />
    <path
      d="M17.7734 12.5469C15.1672 12.5469 13.0469 14.6672 13.0469 17.2734C13.0469 19.8797 15.1672 22 17.7734 22C20.3797 22 22.5 19.8797 22.5 17.2734C22.5 14.6672 20.3797 12.5469 17.7734 12.5469ZM17.7734 20.4375C16.0288 20.4375 14.6094 19.0181 14.6094 17.2734C14.6094 15.5287 16.0288 14.1094 17.7734 14.1094C19.5181 14.1094 20.9375 15.5287 20.9375 17.2734C20.9375 19.0181 19.5181 20.4375 17.7734 20.4375Z"
      fill="#A3A8AF"
    />
    <path
      d="M18.9062 16.4922H18.5547V15.6719C18.5547 15.2404 18.2049 14.8906 17.7734 14.8906C17.342 14.8906 16.9922 15.2404 16.9922 15.6719V17.2734C16.9922 17.7049 17.342 18.0547 17.7734 18.0547H18.9062C19.3377 18.0547 19.6875 17.7049 19.6875 17.2734C19.6875 16.842 19.3377 16.4922 18.9062 16.4922Z"
      fill="#A3A8AF"
    />
    <rect x="3.24219" y="9.42188" width="18.5156" height="1.5625" rx="0.78125" fill="#A3A8AF" />
  </g>
  <defs>
    <clipPath id="clip0_14314_7048">
      <rect width="20" height="20" fill="white" transform="translate(2.5 2)" />
    </clipPath>
  </defs>
</svg>
