<svg width="24" height="24" viewBox="0 0 24 24" fill="none" xmlns="http://www.w3.org/2000/svg">
<path d="M12.5084 2.00915H11.4837C11.1738 1.98024 10.8612 2.02003 10.5683 2.12567C10.2755 2.23131 10.0095 2.40022 9.78938 2.62037C9.56923 2.84051 9.40032 3.10648 9.29468 3.39934C9.18904 3.6922 9.14925 4.00475 9.17816 4.31473V19.6853C9.14925 19.9953 9.18904 20.3078 9.29468 20.6007C9.40032 20.8935 9.56923 21.1595 9.78938 21.3796C10.0095 21.5998 10.2755 21.7687 10.5683 21.8743C10.8612 21.98 11.1738 22.0198 11.4837 21.9908H12.5084C12.8184 22.0198 13.131 21.98 13.4238 21.8743C13.7167 21.7687 13.9827 21.5998 14.2028 21.3796C14.423 21.1595 14.5919 20.8935 14.6975 20.6007C14.8032 20.3078 14.8429 19.9953 14.814 19.6853V4.31473C14.8429 4.00475 14.8032 3.6922 14.6975 3.39934C14.5919 3.10648 14.423 2.84051 14.2028 2.62037C13.9827 2.40022 13.7167 2.23131 13.4238 2.12567C13.131 2.02003 12.8184 1.98024 12.5084 2.00915ZM13.277 19.6853C13.277 20.2888 13.112 20.4538 12.5084 20.4538H11.4837C10.8802 20.4538 10.7152 20.2888 10.7152 19.6853V4.31473C10.7152 3.71118 10.8802 3.5462 11.4837 3.5462H12.5084C13.112 3.5462 13.277 3.71118 13.277 4.31473V19.6853ZM19.6814 7.13266H18.6567C18.3467 7.10375 18.0341 7.14354 17.7413 7.24918C17.4484 7.35483 17.1824 7.52373 16.9623 7.74388C16.7421 7.96402 16.5732 8.22999 16.4676 8.52285C16.362 8.81571 16.3222 9.12826 16.3511 9.43824V19.6853C16.3222 19.9953 16.362 20.3078 16.4676 20.6007C16.5732 20.8935 16.7421 21.1595 16.9623 21.3796C17.1824 21.5998 17.4484 21.7687 17.7413 21.8743C18.0341 21.98 18.3467 22.0198 18.6567 21.9908H19.6814C19.9913 22.0198 20.3039 21.98 20.5968 21.8743C20.8896 21.7687 21.1556 21.5998 21.3757 21.3796C21.5959 21.1595 21.7648 20.8935 21.8704 20.6007C21.9761 20.3078 22.0159 19.9953 21.9869 19.6853V9.43824C22.0159 9.12826 21.9761 8.81571 21.8704 8.52285C21.7648 8.22999 21.5959 7.96402 21.3757 7.74388C21.1556 7.52373 20.8896 7.35483 20.5968 7.24918C20.3039 7.14354 19.9913 7.10375 19.6814 7.13266ZM20.4499 19.6853C20.4499 20.2888 20.2849 20.4538 19.6814 20.4538H18.6567C18.0531 20.4538 17.8881 20.2888 17.8881 19.6853V9.43824C17.8881 8.83469 18.0531 8.66972 18.6567 8.66972H19.6814C20.2849 8.66972 20.4499 8.83469 20.4499 9.43824V19.6853ZM5.33553 11.2315H4.31083C4.00084 11.2026 3.68829 11.2423 3.39543 11.348C3.10257 11.4536 2.8366 11.6225 2.61646 11.8427C2.39631 12.0628 2.22741 12.3288 2.12176 12.6217C2.01612 12.9145 1.97634 13.2271 2.00524 13.5371V19.6853C1.97634 19.9953 2.01612 20.3078 2.12176 20.6007C2.22741 20.8935 2.39631 21.1595 2.61646 21.3796C2.8366 21.5998 3.10257 21.7687 3.39543 21.8743C3.68829 21.98 4.00084 22.0198 4.31083 21.9908H5.33553C5.64551 22.0198 5.95806 21.98 6.25092 21.8743C6.54378 21.7687 6.80975 21.5998 7.02989 21.3796C7.25004 21.1595 7.41894 20.8935 7.52459 20.6007C7.63023 20.3078 7.67002 19.9953 7.64111 19.6853V13.5371C7.67002 13.2271 7.63023 12.9145 7.52459 12.6217C7.41894 12.3288 7.25004 12.0628 7.02989 11.8427C6.80975 11.6225 6.54378 11.4536 6.25092 11.348C5.95806 11.2423 5.64551 11.2026 5.33553 11.2315ZM6.10405 19.6853C6.10405 20.2888 5.93908 20.4538 5.33553 20.4538H4.31083C3.70728 20.4538 3.5423 20.2888 3.5423 19.6853V13.5371C3.5423 12.9335 3.70728 12.7685 4.31083 12.7685H5.33553C5.93908 12.7685 6.10405 12.9335 6.10405 13.5371V19.6853Z" fill="#A3A8AF"/>
</svg>
