<svg width="24" height="24" viewBox="0 0 24 24" fill="none" xmlns="http://www.w3.org/2000/svg">
<path d="M16.7725 4.00928H16.5025C16.4988 3.72781 16.4368 3.45017 16.3204 3.19388C16.2039 2.93759 16.0356 2.70824 15.8261 2.52029C15.6165 2.33234 15.3702 2.1899 15.1028 2.10194C14.8354 2.01399 14.5527 1.98243 14.2725 2.00928H9.2725C8.99229 1.98243 8.70955 2.01399 8.44215 2.10194C8.17476 2.1899 7.9285 2.33234 7.71894 2.52029C7.50938 2.70824 7.34107 2.93759 7.22464 3.19388C7.10821 3.45017 7.04619 3.72781 7.0425 4.00928H6.7725C6.26584 3.95056 5.75246 4.00716 5.27076 4.17485C4.78906 4.34254 4.35152 4.61698 3.99086 4.97764C3.6302 5.3383 3.35576 5.77585 3.18807 6.25754C3.02037 6.73924 2.96377 7.25262 3.0225 7.75928V17.7593C2.96377 18.2659 3.02037 18.7793 3.18807 19.261C3.35576 19.7427 3.6302 20.1803 3.99086 20.5409C4.35152 20.9016 4.78906 21.176 5.27076 21.3437C5.75246 21.5114 6.26584 21.568 6.7725 21.5093H16.7725C17.2792 21.568 17.7925 21.5114 18.2742 21.3437C18.7559 21.176 19.1935 20.9016 19.5541 20.5409C19.9148 20.1803 20.1892 19.7427 20.3569 19.261C20.5246 18.7793 20.5812 18.2659 20.5225 17.7593V7.75928C20.5812 7.25262 20.5246 6.73924 20.3569 6.25754C20.1892 5.77585 19.9148 5.3383 19.5541 4.97764C19.1935 4.61698 18.7559 4.34254 18.2742 4.17485C17.7925 4.00716 17.2792 3.95056 16.7725 4.00928ZM8.5225 4.25928C8.5225 3.67028 8.6835 3.50928 9.2725 3.50928H14.2725C14.8615 3.50928 15.0225 3.67028 15.0225 4.25928V5.25928C15.0225 5.84828 14.8615 6.00928 14.2725 6.00928H9.2725C8.6835 6.00928 8.5225 5.84828 8.5225 5.25928V4.25928ZM19.0225 17.7593C19.0225 19.3363 18.3495 20.0093 16.7725 20.0093H6.7725C5.1955 20.0093 4.5225 19.3363 4.5225 17.7593V7.75928C4.5225 6.18228 5.1955 5.50928 6.7725 5.50928H7.0425C7.04619 5.79075 7.10821 6.0684 7.22464 6.32468C7.34107 6.58097 7.50938 6.81033 7.71894 6.99827C7.9285 7.18622 8.17476 7.32867 8.44215 7.41662C8.70955 7.50458 8.99229 7.53613 9.2725 7.50928H14.2725C14.5527 7.53613 14.8354 7.50458 15.1028 7.41662C15.3702 7.32867 15.6165 7.18622 15.8261 6.99827C16.0356 6.81033 16.2039 6.58097 16.3204 6.32468C16.4368 6.0684 16.4988 5.79075 16.5025 5.50928H16.7725C18.3495 5.50928 19.0225 6.18228 19.0225 7.75928V17.7593ZM17.0225 11.7593C17.0225 11.9582 16.9435 12.149 16.8028 12.2896C16.6622 12.4303 16.4714 12.5093 16.2725 12.5093H12.2725C12.0736 12.5093 11.8828 12.4303 11.7422 12.2896C11.6015 12.149 11.5225 11.9582 11.5225 11.7593C11.5225 11.5604 11.6015 11.3696 11.7422 11.229C11.8828 11.0883 12.0736 11.0093 12.2725 11.0093H16.2725C16.4714 11.0093 16.6622 11.0883 16.8028 11.229C16.9435 11.3696 17.0225 11.5604 17.0225 11.7593ZM17.0225 15.7593C17.0225 15.9582 16.9435 16.149 16.8028 16.2896C16.6622 16.4303 16.4714 16.5093 16.2725 16.5093H12.2725C12.0736 16.5093 11.8828 16.4303 11.7422 16.2896C11.6015 16.149 11.5225 15.9582 11.5225 15.7593C11.5225 15.5604 11.6015 15.3696 11.7422 15.229C11.8828 15.0883 12.0736 15.0093 12.2725 15.0093H16.2725C16.4714 15.0093 16.6622 15.0883 16.8028 15.229C16.9435 15.3696 17.0225 15.5604 17.0225 15.7593ZM9.8025 10.5593C9.87219 10.6289 9.92748 10.7116 9.9652 10.8027C10.0029 10.8937 10.0223 10.9912 10.0223 11.0898C10.0223 11.1883 10.0029 11.2859 9.9652 11.3769C9.92748 11.4679 9.87219 11.5506 9.8025 11.6203L8.4725 12.9593C8.403 13.0291 8.3204 13.0844 8.22945 13.1222C8.1385 13.16 8.04098 13.1795 7.9425 13.1795C7.84401 13.1795 7.74649 13.16 7.65554 13.1222C7.56459 13.0844 7.48199 13.0291 7.4125 12.9593L6.7455 12.2933C6.60467 12.1527 6.52544 11.962 6.52526 11.763C6.52507 11.564 6.60393 11.3731 6.7445 11.2323C6.88506 11.0915 7.07581 11.0122 7.27479 11.012C7.47377 11.0119 7.66467 11.0907 7.8055 11.2313L7.9425 11.3683L8.7425 10.5683C8.81147 10.498 8.89362 10.4421 8.98424 10.4036C9.07486 10.3651 9.17218 10.3449 9.27063 10.344C9.36908 10.3432 9.46673 10.3618 9.55799 10.3987C9.64926 10.4356 9.73234 10.4902 9.8025 10.5593ZM9.8025 14.5593C9.87219 14.6289 9.92748 14.7116 9.9652 14.8027C10.0029 14.8937 10.0223 14.9912 10.0223 15.0898C10.0223 15.1883 10.0029 15.2859 9.9652 15.3769C9.92748 15.4679 9.87219 15.5506 9.8025 15.6203L8.4725 16.9593C8.403 17.0291 8.3204 17.0844 8.22945 17.1222C8.1385 17.16 8.04098 17.1795 7.9425 17.1795C7.84401 17.1795 7.74649 17.16 7.65554 17.1222C7.56459 17.0844 7.48199 17.0291 7.4125 16.9593L6.7455 16.2933C6.60467 16.1527 6.52544 15.962 6.52526 15.763C6.52507 15.564 6.60393 15.3731 6.7445 15.2323C6.88506 15.0915 7.07581 15.0122 7.27479 15.012C7.47377 15.0119 7.66467 15.0907 7.8055 15.2313L7.9425 15.3683L8.7425 14.5683C8.81147 14.498 8.89362 14.4421 8.98424 14.4036C9.07486 14.3651 9.17218 14.3449 9.27063 14.344C9.36908 14.3432 9.46673 14.3618 9.55799 14.3987C9.64926 14.4356 9.73234 14.4902 9.8025 14.5593Z" fill="#A3A8AF"/>
</svg>
