<svg width="24" height="25" viewBox="0 0 24 25" fill="none" xmlns="http://www.w3.org/2000/svg">
<g clip-path="url(#clip0_23_17601)">
<circle cx="12" cy="12.77" r="12" fill="#CCE7FF"/>
<circle cx="12" cy="12.77" r="7" fill="white"/>
<path d="M12 19.77C8.13401 19.77 5 16.636 5 12.77C5 8.90403 8.13401 5.77002 12 5.77002" stroke="#007CE8" stroke-width="1.6" stroke-dasharray="2 2"/>
<path d="M12 19.77C15.866 19.77 19 16.636 19 12.77C19 8.90403 15.866 5.77002 12 5.77002" stroke="#007CE8" stroke-width="1.6"/>
<path d="M11.3408 11.2687L11.3448 9.99557C11.3448 9.90526 11.2853 9.82378 11.1927 9.78797C11.1007 9.75267 10.9931 9.77032 10.9208 9.83312L8.07636 12.2963C8.02777 12.3389 8 12.3965 8 12.4572C8 12.5179 8.02719 12.5761 8.07578 12.6186L10.9046 15.0958C10.9769 15.1592 11.0839 15.1768 11.1765 15.1425C11.2691 15.1078 11.3298 15.0263 11.3298 14.936L11.3339 13.6634L11.8071 13.6644C13.3545 13.6686 14.7782 14.4263 15.5233 15.6413L15.5302 15.6527C15.5748 15.7259 15.6592 15.77 15.7495 15.77C15.7697 15.77 15.7911 15.7679 15.8114 15.7628C15.9219 15.7384 15.9994 15.6486 16 15.5463C16.0069 13.2186 13.9249 11.3149 11.3408 11.2687Z" fill="#0088FF"/>
</g>
<defs>
<clipPath id="clip0_23_17601">
<rect width="24" height="24" fill="white" transform="translate(0 0.77002)"/>
</clipPath>
</defs>
</svg>
