<svg width="24" height="24" viewBox="0 0 24 24" fill="none" xmlns="http://www.w3.org/2000/svg">
  <g clip-path="url(#clip0_8199_101333)">
    <circle cx="12" cy="12" r="10" fill="white" stroke="#CFF6E7" stroke-width="4"/>
    <path fill-rule="evenodd" clip-rule="evenodd" d="M19 12C19 15.866 15.866 19 12 19C8.13401 19 5 15.866 5 12H19Z" fill="#CFF6E7"/>
    <path d="M19 12V11.25H19.75V12H19ZM5 12H4.25V11.25H5V12ZM12 18.25C15.4518 18.25 18.25 15.4518 18.25 12H19.75C19.75 16.2802 16.2802 19.75 12 19.75V18.25ZM5.75 12C5.75 15.4518 8.54822 18.25 12 18.25V19.75C7.71979 19.75 4.25 16.2802 4.25 12H5.75ZM5 11.25H19V12.75H5V11.25Z" fill="#0DB473"/>
    <path d="M12.064 11.2H19V12.8H12.064L14.128 14.872L13 16L9 12L13 8L14.128 9.128L12.064 11.2Z" fill="#0DB473"/>
    <path fill-rule="evenodd" clip-rule="evenodd" d="M20 12C20 16.4183 16.4183 20 12 20C7.58172 20 4 16.4183 4 12C4 7.58172 7.58172 4 12 4C16.4183 4 20 7.58172 20 12ZM18.4 12C18.4 15.5346 15.5346 18.4 12 18.4C8.46538 18.4 5.6 15.5346 5.6 12C5.6 8.46538 8.46538 5.6 12 5.6C15.5346 5.6 18.4 8.46538 18.4 12Z" fill="#0DB473"/>
  </g>
  <defs>
    <clipPath id="clip0_8199_101333">
    <rect width="24" height="24" fill="white"/>
    </clipPath>
  </defs>
</svg>
