<svg width="24" height="24" viewBox="0 0 24 24" fill="none" xmlns="http://www.w3.org/2000/svg">
  <g clip-path="url(#clip0_8194_103294)">
    <circle cx="12" cy="12" r="10" fill="white" stroke="#FFDBDB" stroke-width="4"/>
    <path fill-rule="evenodd" clip-rule="evenodd" d="M12 4C7.576 4 4 7.576 4 12C4 16.424 7.576 20 12 20C16.424 20 20 16.424 20 12C20 7.576 16.424 4 12 4ZM14.072 8.8L12 10.872L9.928 8.8L8.8 9.928L10.872 12L8.8 14.072L9.928 15.2L12 13.128L14.072 15.2L15.2 14.072L13.128 12L15.2 9.928L14.072 8.8ZM5.6 12C5.6 15.528 8.472 18.4 12 18.4C15.528 18.4 18.4 15.528 18.4 12C18.4 8.472 15.528 5.6 12 5.6C8.472 5.6 5.6 8.472 5.6 12Z" fill="#EE4747"/>
  </g>
  <defs>
    <clipPath id="clip0_8194_103294">
      <rect width="24" height="24" fill="white"/>
    </clipPath>
  </defs>
</svg>
