<svg width="24" height="24" viewBox="0 0 24 24" fill="none" xmlns="http://www.w3.org/2000/svg">
  <path
    d="M15.8124 2.49993C15.9505 2.05125 15.6987 1.5756 15.25 1.43754C14.8013 1.29949 14.3257 1.5513 14.1876 1.99998L8.1876 21.5C8.04955 21.9487 8.30136 22.4243 8.75004 22.5624C9.19873 22.7004 9.67437 22.4486 9.81243 21.9999L15.8124 2.49993ZM7.35104 7.35098C7.68299 7.01903 7.68299 6.48084 7.35104 6.1489C7.0191 5.81695 6.48091 5.81695 6.14896 6.1489L0.898959 11.3989C0.567014 11.7308 0.567014 12.269 0.898959 12.601L6.14896 17.851C6.48091 18.1829 7.0191 18.1829 7.35104 17.851C7.68299 17.519 7.68299 16.9808 7.35104 16.6489L2.70208 11.9999L7.35104 7.35098ZM16.649 6.1489C16.317 6.48084 16.317 7.01903 16.649 7.35098L21.2979 11.9999L16.649 16.6489C16.317 16.9808 16.317 17.519 16.649 17.851C16.9809 18.1829 17.5191 18.1829 17.851 17.851L23.101 12.601C23.433 12.269 23.433 11.7308 23.101 11.3989L17.851 6.1489C17.5191 5.81695 16.9809 5.81695 16.649 6.1489Z"
    fill="#A3A8AF"
    stroke="#A3A8AF"
    stroke-width="0.2"
    stroke-linecap="round"
    stroke-linejoin="round"
  />
</svg>
