<svg width="20" height="20" viewBox="0 0 20 20" fill="none" xmlns="http://www.w3.org/2000/svg">
<path d="M15.25 3.875C15.7332 3.875 16.125 4.26675 16.125 4.75V11.75C16.125 12.2332 15.7332 12.625 15.25 12.625H13.0625C12.5117 12.625 11.993 12.8843 11.6625 13.325L10 15.5417L8.3375 13.325C8.00701 12.8843 7.48833 12.625 6.9375 12.625H4.75C4.26675 12.625 3.875 12.2332 3.875 11.75V4.75C3.875 4.26675 4.26675 3.875 4.75 3.875H15.25ZM4.75 3C3.7835 3 3 3.7835 3 4.75V11.75C3 12.7165 3.7835 13.5 4.75 13.5H6.9375C7.21291 13.5 7.47225 13.6297 7.6375 13.85L9.3 16.0667C9.65 16.5333 10.35 16.5333 10.7 16.0667L12.3625 13.85C12.5277 13.6297 12.7871 13.5 13.0625 13.5H15.25C16.2165 13.5 17 12.7165 17 11.75V4.75C17 3.7835 16.2165 3 15.25 3H4.75Z" fill="#A3A8AF"/>
<path d="M5.625 6.0625C5.625 5.82088 5.82088 5.625 6.0625 5.625H13.9375C14.1791 5.625 14.375 5.82088 14.375 6.0625C14.375 6.30412 14.1791 6.5 13.9375 6.5H6.0625C5.82088 6.5 5.625 6.30412 5.625 6.0625ZM5.625 8.25C5.625 8.00838 5.82088 7.8125 6.0625 7.8125H13.9375C14.1791 7.8125 14.375 8.00838 14.375 8.25C14.375 8.49162 14.1791 8.6875 13.9375 8.6875H6.0625C5.82088 8.6875 5.625 8.49162 5.625 8.25ZM5.625 10.4375C5.625 10.1959 5.82088 10 6.0625 10H10.4375C10.6791 10 10.875 10.1959 10.875 10.4375C10.875 10.6791 10.6791 10.875 10.4375 10.875H6.0625C5.82088 10.875 5.625 10.6791 5.625 10.4375Z" fill="#A3A8AF"/>
</svg>
