<svg width="20" height="20" viewBox="0 0 20 20" fill="none" xmlns="http://www.w3.org/2000/svg">
<path d="M15.2 3.8C15.7 3.8 16.1774 4.3 16.1774 4.8V11.8C16.1774 12.3 15.7 12.7 15.2 12.7H13C12.4 12.7 11.9 13 11.6 13.4L10 15.5L8.3 13.3C8 12.9 7.5 12.6 6.9 12.6H4.8C4.3 12.6 3.9 12.2 3.9 11.7L3.94796 4.8C3.94796 4.3 4.3 3.8 4.8 3.8H15.2ZM4.8 3C3.8 3 3 3.8 3 4.8V11.8C3 12.8 3.8 13.6 4.8 13.6H7C7.3 13.6 7.5 13.7 7.7 14L9.4 16.2C9.7 16.7 10.5 16.7 10.8 16.2L12.5 14C12.7 13.8 12.9 13.6 13.2 13.6H15.4C16.4 13.6 17.2 12.8 17.2 11.8V4.8C17.2 3.8 16.2 3 15.2 3H4.8Z" fill="#A3A8AF"/>
<path d="M5.6001 7.30002C5.6001 7.10002 5.8001 6.90002 6.0001 6.90002H13.9001C14.1001 6.90002 14.3001 7.10002 14.3001 7.30002C14.3001 7.50002 14.1001 7.70002 13.9001 7.70002H6.1001C5.8001 7.80002 5.6001 7.60002 5.6001 7.30002ZM5.6001 9.60002C5.6001 9.40002 5.8001 9.20002 6.0001 9.20002H10.4001C10.6001 9.20002 10.8001 9.40002 10.8001 9.60002C10.8001 9.80002 10.7001 10 10.4001 10H6.1001C5.8001 10 5.6001 9.80002 5.6001 9.60002Z" fill="#A3A8AF"/>
</svg>
