<svg width="24" height="24" viewBox="0 0 24 24" fill="none" xmlns="http://www.w3.org/2000/svg">
<path d="M18 4.24998H6.00004C5.49338 4.19125 4.98 4.24785 4.4983 4.41554C4.0166 4.58323 3.57906 4.85768 3.2184 5.21834C2.85774 5.579 2.5833 6.01654 2.4156 6.49824C2.24791 6.97994 2.19131 7.49332 2.25004 7.99998V16C2.19131 16.5066 2.24791 17.02 2.4156 17.5017C2.5833 17.9834 2.85774 18.421 3.2184 18.7816C3.57906 19.1423 4.0166 19.4167 4.4983 19.5844C4.98 19.7521 5.49338 19.8087 6.00004 19.75H18C18.5067 19.8087 19.0201 19.7521 19.5018 19.5844C19.9835 19.4167 20.421 19.1423 20.7817 18.7816C21.1423 18.421 21.4168 17.9834 21.5845 17.5017C21.7522 17.02 21.8088 16.5066 21.75 16V7.99998C21.8088 7.49332 21.7522 6.97994 21.5845 6.49824C21.4168 6.01654 21.1423 5.579 20.7817 5.21834C20.421 4.85768 19.9835 4.58323 19.5018 4.41554C19.0201 4.24785 18.5067 4.19125 18 4.24998ZM20.25 16C20.25 17.577 19.577 18.25 18 18.25H6.00004C4.42304 18.25 3.75004 17.577 3.75004 16V10.75H20.25V16ZM20.25 9.24998H3.75004V7.99998C3.75004 6.42298 4.42304 5.74998 6.00004 5.74998H18C19.577 5.74998 20.25 6.42298 20.25 7.99998V9.24998ZM6.25004 15C6.25004 14.8011 6.32905 14.6103 6.46971 14.4696C6.61036 14.329 6.80112 14.25 7.00004 14.25H10C10.1989 14.25 10.3897 14.329 10.5304 14.4696C10.671 14.6103 10.75 14.8011 10.75 15C10.75 15.1989 10.671 15.3897 10.5304 15.5303C10.3897 15.671 10.1989 15.75 10 15.75H7.00004C6.80112 15.75 6.61036 15.671 6.46971 15.5303C6.32905 15.3897 6.25004 15.1989 6.25004 15Z" fill="#A3A8AF"/>
</svg>
