<svg width="32" height="32" viewBox="0 0 32 32" fill="none" xmlns="http://www.w3.org/2000/svg">
<g clip-path="url(#clip0_2207_2154)">
<path fill-rule="evenodd" clip-rule="evenodd" d="M6.4 0C7.28365 0 8 0.716352 8 1.6V20.48C8 21.4026 8.00125 21.9981 8.03829 22.4515C8.07379 22.8861 8.13408 23.0472 8.17438 23.1264C8.32779 23.4275 8.57256 23.6722 8.87362 23.8256C8.95272 23.8659 9.11387 23.9262 9.54854 23.9618C10.0019 23.9987 10.5975 24 11.52 24H20.8C21.6837 24 22.4 24.7163 22.4 25.6C22.4 26.4837 21.6837 27.2 20.8 27.2H11.4583C10.6149 27.2 9.88726 27.2 9.28795 27.151C8.65541 27.0994 8.02626 26.9853 7.42085 26.6768C6.51766 26.2166 5.78336 25.4824 5.32317 24.5792C5.0147 23.9738 4.90059 23.3446 4.84891 22.712C4.79995 22.1128 4.79997 21.3851 4.8 20.5416V8H1.6C0.716352 8 0 7.28365 0 6.4C0 5.51635 0.716352 4.8 1.6 4.8H4.8V1.6C4.8 0.716352 5.51635 0 6.4 0ZM22.4515 8.03829C21.9981 8.00125 21.4026 8 20.48 8H11.2C10.3164 8 9.6 7.28365 9.6 6.4C9.6 5.51635 10.3164 4.8 11.2 4.8H20.5416C21.3851 4.79997 22.1128 4.79995 22.712 4.84891C23.3446 4.90059 23.9738 5.0147 24.5792 5.32317C25.4824 5.78336 26.2166 6.51766 26.6768 7.42085C26.9853 8.02626 27.0994 8.65541 27.151 9.28795C27.2 9.88726 27.2 10.6149 27.2 11.4583V24H30.4C31.2837 24 32 24.7163 32 25.6C32 26.4837 31.2837 27.2 30.4 27.2H27.2V30.4C27.2 31.2837 26.4837 32 25.6 32C24.7163 32 24 31.2837 24 30.4V11.52C24 10.5975 23.9987 10.0019 23.9618 9.54854C23.9262 9.11387 23.8659 8.95272 23.8256 8.87362C23.6722 8.57256 23.4275 8.32779 23.1264 8.17438C23.0472 8.13408 22.8861 8.07379 22.4515 8.03829Z" fill="#A3A8AF"/>
</g>
<defs>
<clipPath id="clip0_2207_2154">
<rect width="32" height="32" fill="white"/>
</clipPath>
</defs>
</svg>
