<svg width="32" height="26" viewBox="0 0 32 26" fill="none" xmlns="http://www.w3.org/2000/svg">
<path fill-rule="evenodd" clip-rule="evenodd" d="M10.1647 6.07616C10.1647 2.72546 12.785 0 16.005 0V0.00142123C19.2264 0.00142123 21.8453 2.72688 21.8453 6.07758C21.8325 9.36859 19.3585 12.0315 16.2139 12.1409H16.194C16.1741 12.1409 16.1542 12.1395 16.1343 12.1381C16.0519 12.1282 15.951 12.1296 15.8586 12.1381C12.633 12.0301 10.1647 9.36575 10.1647 6.07616ZM9.76255 15.5526C13.217 13.1668 18.8185 13.1696 22.2502 15.5526C23.8005 16.6255 24.6559 18.0863 24.6588 19.6636C24.6616 21.2451 23.8062 22.7116 22.2516 23.7958C20.5294 24.9951 18.2686 25.5948 16.0064 25.5948C13.7442 25.5948 11.4834 24.9951 9.76113 23.7958C8.21082 22.723 7.35539 21.2622 7.35255 19.6849C7.3497 18.1033 8.20514 16.6354 9.7597 15.5526H9.76255Z" fill="url(#paint0_linear_1885_7466)"/>
<path fill-rule="evenodd" clip-rule="evenodd" d="M25.6674 11.7842C28.022 11.4829 29.7158 9.31309 29.5197 6.83062V6.83204C29.3065 4.30126 27.1651 2.43123 24.7324 2.65291C24.1739 2.70406 23.6382 2.86464 23.1679 3.10621C23.6894 3.9048 24.0332 4.85545 24.1199 5.89277C24.2691 7.80684 23.5459 9.5774 22.2812 10.7497C23.1068 11.4702 24.2038 11.868 25.3946 11.8098C25.4642 11.7899 25.5352 11.7842 25.6077 11.7899L25.6432 11.787L25.6674 11.7842ZM29.844 21.71C31.1271 20.9782 31.8845 19.9039 31.9882 18.6677C32.0906 17.4442 31.5122 16.2491 30.3825 15.2985C28.2709 13.5379 24.8606 12.9837 22.1379 13.8022C23.1795 14.1915 24.1458 14.7301 24.9657 15.4079C26.4194 16.62 27.1427 18.1504 27.0219 19.732C26.9295 20.8418 26.4109 21.8734 25.5256 22.7047C27.0659 22.7416 28.612 22.4205 29.844 21.71Z" fill="url(#paint1_linear_1885_7466)"/>
<path fill-rule="evenodd" clip-rule="evenodd" d="M6.33096 11.7842C3.97638 11.4829 2.28256 9.31309 2.47865 6.83062V6.83204C2.6918 4.30126 4.83323 2.43123 7.26597 2.65291C7.82442 2.70406 8.36013 2.86464 8.83048 3.10621C8.30898 3.9048 7.9651 4.85545 7.87842 5.89277C7.72921 7.80684 8.4525 9.5774 9.71718 10.7497C8.89158 11.4702 7.79458 11.868 6.60379 11.8098C6.53416 11.7899 6.46311 11.7842 6.39064 11.7899L6.35512 11.787L6.33096 11.7842ZM2.15586 21.71C0.87271 20.9782 0.115322 19.9039 0.0115895 18.6677C-0.0907218 17.4442 0.487621 16.2491 1.61731 15.2985C3.7289 13.5379 7.13928 12.9837 9.8619 13.8022C8.82031 14.1915 7.85404 14.7301 7.03413 15.4079C5.58045 16.62 4.85717 18.1504 4.97795 19.732C5.07032 20.8418 5.58898 21.8734 6.47426 22.7047C4.9339 22.7416 3.38786 22.4205 2.15586 21.71Z" fill="url(#paint2_linear_1885_7466)"/>
<defs>
<linearGradient id="paint0_linear_1885_7466" x1="13.1213" y1="21.2168" x2="29.0344" y2="16.3615" gradientUnits="userSpaceOnUse">
<stop stop-color="#0088FF"/>
<stop offset="1" stop-color="#33A0FF"/>
</linearGradient>
<linearGradient id="paint1_linear_1885_7466" x1="25.4252" y1="19.2741" x2="34.8731" y2="17.1794" gradientUnits="userSpaceOnUse">
<stop stop-color="#0088FF"/>
<stop offset="1" stop-color="#33A0FF"/>
</linearGradient>
<linearGradient id="paint2_linear_1885_7466" x1="3.2873" y1="19.2741" x2="12.7351" y2="17.1794" gradientUnits="userSpaceOnUse">
<stop stop-color="#0088FF"/>
<stop offset="1" stop-color="#33A0FF"/>
</linearGradient>
</defs>
</svg>
