<svg width="24" height="24" viewBox="0 0 24 24" fill="none" xmlns="http://www.w3.org/2000/svg">
<g clip-path="url(#clip0_13901_9715)">
<path d="M12 7.61719L14.1992 8.77344L13.7773 6.32422L15.5586 4.58984L13.1016 4.23438L12 2L10.9023 4.23047L8.44531 4.58594L10.2266 6.32031L9.80469 8.76953L12 7.61719Z" fill="#A3A8AF"/>
<path d="M19.4258 8.215L18.3281 5.98843L17.2305 8.215L14.7734 8.57047L16.5508 10.3048L16.1289 12.7541L18.3281 11.5978L20.5273 12.7541L20.1055 10.3048L22 8.57047L19.4258 8.215Z" fill="#A3A8AF"/>
<path d="M3.89453 10.3087L3.47266 12.758L5.67188 11.5978L7.87109 12.7541L7.44922 10.3048L9.22656 8.57046L6.76953 8.215L5.67188 5.98843L4.57422 8.215L2 8.57437L3.89453 10.3087Z" fill="#A3A8AF"/>
<path d="M14.9297 13.1719C14.9297 11.5547 13.6172 10.2422 12 10.2422C10.3828 10.2422 9.07031 11.5547 9.07031 13.1719C9.07031 14.7891 10.3828 16.1016 12 16.1016C13.6172 16.1016 14.9297 14.7891 14.9297 13.1719Z" fill="#A3A8AF"/>
<path d="M7.89844 20.2031V22H16.1016V20.2031C16.1016 17.9414 14.2617 16.1016 12 16.1016C9.73828 16.1016 7.89844 17.9414 7.89844 20.2031Z" fill="#A3A8AF"/>
<path d="M20.7889 21.375C20.7889 19.7578 19.4764 18.4453 17.8592 18.4453C17.5545 18.4453 17.2694 18.5039 16.9959 18.5898C17.16 19.1016 17.2733 19.6367 17.2733 20.2031V22H20.7889V21.375Z" fill="#A3A8AF"/>
<path d="M20.2031 16.1016C20.2031 14.8086 19.1523 13.7578 17.8594 13.7578C16.5664 13.7578 15.5156 14.8086 15.5156 16.1016C15.5156 16.1758 15.5313 16.2461 15.5391 16.3203C16.1172 16.8477 16.582 17.4883 16.8828 18.2266C17.1797 18.3633 17.5117 18.4492 17.8633 18.4492C19.1523 18.4453 20.2031 17.3945 20.2031 16.1016Z" fill="#A3A8AF"/>
<path d="M8.46094 16.3203C8.46875 16.2461 8.48438 16.1758 8.48438 16.1016C8.48438 14.8086 7.43359 13.7578 6.14062 13.7578C4.84766 13.7578 3.79688 14.8086 3.79688 16.1016C3.79688 17.3945 4.84766 18.4453 6.14062 18.4453C6.49219 18.4453 6.82031 18.3633 7.12109 18.2227C7.41797 17.4883 7.88281 16.8477 8.46094 16.3203Z" fill="#A3A8AF"/>
<path d="M3.21094 21.375V22H6.72656V20.2031C6.72656 19.6367 6.83984 19.1016 7.00391 18.5898C6.73047 18.5039 6.44141 18.4453 6.14063 18.4453C4.52344 18.4453 3.21094 19.7578 3.21094 21.375Z" fill="#A3A8AF"/>
</g>
<defs>
<clipPath id="clip0_13901_9715">
<rect width="20" height="20" fill="white" transform="translate(2 2)"/>
</clipPath>
</defs>
</svg>
