<svg width="24" height="24" viewBox="0 0 24 24" fill="none" xmlns="http://www.w3.org/2000/svg">
<g clip-path="url(#clip0_13901_9676)">
<path d="M7.66015 19.9842L4.67577 13.996C4.38671 13.4178 3.68749 13.1835 3.10546 13.4686L2.32421 13.8553C2.03515 13.9999 1.91406 14.3514 2.05859 14.6444L5.57421 21.6756C5.71874 21.9647 6.07031 22.0819 6.35937 21.9374L7.1289 21.5546C7.71484 21.2694 7.94921 20.5663 7.66015 19.9842Z" fill="#A3A8AF"/>
<path d="M21.5195 11.6756C21.0391 11.3241 20.3711 11.3944 19.9727 11.828L16.7695 15.7655C16.5469 15.9999 16.125 16.1405 15.9023 16.1405H13.1719C12.8438 16.1405 12.5859 15.8827 12.5859 15.5546C12.5859 15.2264 12.8438 14.9686 13.1719 14.9686C13.957 14.9686 14.8242 14.9686 15.5156 14.9686C16.1602 14.9686 16.6875 14.4413 16.6875 13.7967C16.6875 13.1522 16.1602 12.6249 15.5156 12.6249C12.7656 12.6249 15.3867 12.6249 12.4453 12.6249C12.1523 12.6249 12.0078 12.4413 11.7773 12.2381C10.8711 11.4217 9.51562 11.0311 8.14062 11.3475C7.37891 11.5233 6.86328 11.8319 6.33984 12.246L6.32422 12.2303L5.47656 12.9764L8.80859 19.6561H9.79297H15.5156C16.6172 19.6561 17.6719 19.1288 18.3281 18.2499L21.7656 13.328C22.1523 12.8124 22.0469 12.0624 21.5195 11.6756Z" fill="#A3A8AF"/>
<path d="M14.4 4C14.4 2.896 13.5936 2 12.6 2C11.6064 2 10.8 2.896 10.8 4C10.8 5.104 11.6064 6 12.6 6C13.5936 6 14.4 5.104 14.4 4Z" fill="#A3A8AF"/>
<path d="M10 8.50331V9.6H15.2V8.50331C15.2 7.12291 14.0337 6 12.6 6C11.1663 6 10 7.12291 10 8.50331Z" fill="#A3A8AF"/>
<path d="M18.4 9.24836C18.4 8.33847 17.5695 7.60001 16.5462 7.60001C16.3535 7.60001 16.173 7.63297 16 7.68133C16.1038 7.96924 16.1755 8.27034 16.1755 8.58902V9.60001H18.4V9.24836Z" fill="#A3A8AF"/>
<path d="M18 5.99866C18 5.11673 17.2827 4.39999 16.4 4.39999C15.5173 4.39999 14.8 5.11673 14.8 5.99866C14.8 6.04929 14.8107 6.09725 14.816 6.14787C15.2107 6.50757 15.528 6.94454 15.7333 7.44812C15.936 7.54138 16.1627 7.59999 16.4027 7.59999C17.2827 7.59733 18 6.88059 18 5.99866Z" fill="#A3A8AF"/>
<path d="M10.384 6.14933C10.3893 6.09866 10.4 6.05066 10.4 5.99999C10.4 5.11733 9.68267 4.39999 8.8 4.39999C7.91733 4.39999 7.2 5.11733 7.2 5.99999C7.2 6.88266 7.91733 7.59999 8.8 7.59999C9.04 7.59999 9.264 7.54399 9.46933 7.44799C9.672 6.94666 9.98933 6.50933 10.384 6.14933Z" fill="#A3A8AF"/>
<path d="M6.8 9.24836V9.60001H9.02451V8.58902C9.02451 8.27034 9.09619 7.96924 9.2 7.68133C9.02698 7.63297 8.84408 7.60001 8.65376 7.60001C7.63048 7.60001 6.8 8.33847 6.8 9.24836Z" fill="#A3A8AF"/>
</g>
<defs>
<clipPath id="clip0_13901_9676">
<rect width="20" height="20" fill="white" transform="translate(2 2)"/>
</clipPath>
</defs>
</svg>
