<svg width="20" height="20" viewBox="0 0 20 20" fill="none" xmlns="http://www.w3.org/2000/svg">
<g clip-path="url(#clip0_7690_3651)">
<path d="M5.41671 15.8333H3.75004C3.52004 15.8333 3.33337 15.6467 3.33337 15.4167C3.33337 15.1867 3.52004 15 3.75004 15H5.41671C5.64671 15 5.83337 15.1867 5.83337 15.4167C5.83337 15.6467 5.64671 15.8333 5.41671 15.8333Z" fill="white" stroke="white" stroke-width="0.3"/>
<path d="M18.9583 15.8333H17.9166C17.6866 15.8333 17.5 15.6466 17.5 15.4166C17.5 15.1866 17.6866 14.9999 17.9166 14.9999H18.6125L19.1741 12.0066C19.1666 10.4749 17.8583 9.16659 16.25 9.16659H13.5141L12.1883 14.9999H14.5833C14.8133 14.9999 15 15.1866 15 15.4166C15 15.6466 14.8133 15.8333 14.5833 15.8333H11.6666C11.54 15.8333 11.42 15.7758 11.3408 15.6766C11.2616 15.5783 11.2316 15.4483 11.26 15.3249L12.775 8.65825C12.8183 8.46742 12.9866 8.33325 13.1816 8.33325H16.25C18.3175 8.33325 20 10.0158 20 12.0833L19.3675 15.4933C19.3308 15.6908 19.1591 15.8333 18.9583 15.8333Z" fill="white" stroke="white" stroke-width="0.3"/>
<path d="M16.25 17.4999C15.1016 17.4999 14.1666 16.5658 14.1666 15.4166C14.1666 14.2674 15.1016 13.3333 16.25 13.3333C17.3983 13.3333 18.3333 14.2674 18.3333 15.4166C18.3333 16.5658 17.3983 17.4999 16.25 17.4999ZM16.25 14.1666C15.5608 14.1666 15 14.7274 15 15.4166C15 16.1058 15.5608 16.6666 16.25 16.6666C16.9391 16.6666 17.5 16.1058 17.5 15.4166C17.5 14.7274 16.9391 14.1666 16.25 14.1666Z" fill="white" stroke="white" stroke-width="0.3"/>
<path d="M7.08333 17.4999C5.935 17.4999 5 16.5658 5 15.4166C5 14.2674 5.935 13.3333 7.08333 13.3333C8.23167 13.3333 9.16667 14.2674 9.16667 15.4166C9.16667 16.5658 8.23167 17.4999 7.08333 17.4999ZM7.08333 14.1666C6.39417 14.1666 5.83333 14.7274 5.83333 15.4166C5.83333 16.1058 6.39417 16.6666 7.08333 16.6666C7.7725 16.6666 8.33333 16.1058 8.33333 15.4166C8.33333 14.7274 7.7725 14.1666 7.08333 14.1666Z" fill="white" stroke="white" stroke-width="0.3"/>
<path d="M5.41663 8.33333H2.08329C1.85329 8.33333 1.66663 8.14667 1.66663 7.91667C1.66663 7.68667 1.85329 7.5 2.08329 7.5H5.41663C5.64663 7.5 5.83329 7.68667 5.83329 7.91667C5.83329 8.14667 5.64663 8.33333 5.41663 8.33333Z" fill="white" stroke="white" stroke-width="0.3"/>
<path d="M5.41671 10.8333H1.25004C1.02004 10.8333 0.833374 10.6467 0.833374 10.4167C0.833374 10.1867 1.02004 10 1.25004 10H5.41671C5.64671 10 5.83337 10.1867 5.83337 10.4167C5.83337 10.6467 5.64671 10.8333 5.41671 10.8333Z" fill="white" stroke="white" stroke-width="0.3"/>
<path d="M5.41667 13.3333H0.416667C0.186667 13.3333 0 13.1467 0 12.9167C0 12.6867 0.186667 12.5 0.416667 12.5H5.41667C5.64667 12.5 5.83333 12.6867 5.83333 12.9167C5.83333 13.1467 5.64667 13.3333 5.41667 13.3333Z" fill="white" stroke="white" stroke-width="0.3"/>
<path d="M11.6667 15.8333H8.75004C8.52004 15.8333 8.33337 15.6466 8.33337 15.4166C8.33337 15.1866 8.52004 14.9999 8.75004 14.9999H11.3342L13.2275 6.66659H3.75004C3.52004 6.66659 3.33337 6.47992 3.33337 6.24992C3.33337 6.01992 3.52004 5.83325 3.75004 5.83325H13.75C13.8767 5.83325 13.9967 5.89075 14.0759 5.98992C14.155 6.08825 14.185 6.21825 14.1567 6.34159L12.0734 15.5083C12.03 15.6991 11.8609 15.8333 11.6667 15.8333Z" fill="white" stroke="white" stroke-width="0.3"/>
</g>
<defs>
<clipPath id="clip0_7690_3651">
<rect width="20" height="20" fill="white"/>
</clipPath>
</defs>
</svg>
