<svg width="24" height="24" viewBox="0 0 24 24" fill="none" xmlns="http://www.w3.org/2000/svg">
  <path
    d="M17.4868 19.6107H8.2595C7.81964 19.6107 7.46306 19.2541 7.46306 18.8143C7.46306 18.3744 7.81964 18.0178 8.2595 18.0178H17.4868L16.4571 16.9881C16.1461 16.6771 16.1461 16.1728 16.4571 15.8618C16.7682 15.5507 17.2724 15.5507 17.5835 15.8618L19.9728 18.2511C20.2838 18.5621 20.2838 19.0664 19.9728 19.3774L17.5835 21.7667C17.2724 22.0778 16.7682 22.0778 16.4571 21.7667C16.1461 21.4557 16.1461 20.9514 16.4571 20.6404L17.4868 19.6107Z"
    fill="#A3A8AF"
  />
  <path
    d="M2.8592 7.79767L3.88891 6.76797V15.9953C3.88891 16.4352 4.24549 16.7917 4.68535 16.7917C5.12521 16.7917 5.48178 16.4352 5.48178 15.9953V6.76797L6.51149 7.79767C6.82252 8.1087 7.32679 8.1087 7.63782 7.79767C7.94885 7.48664 7.94885 6.98237 7.63782 6.67134L5.24851 4.28203C4.93748 3.971 4.43321 3.971 4.12218 4.28203L1.73287 6.67134C1.42184 6.98237 1.42184 7.48664 1.73287 7.79767C2.0439 8.1087 2.54817 8.1087 2.8592 7.79767Z"
    fill="#A3A8AF"
  />
  <path
    fill-rule="evenodd"
    clip-rule="evenodd"
    d="M7.02246 2.62353C7.02246 2.27916 7.30162 2 7.64599 2H8.79654C9.14091 2 9.42007 2.27916 9.42007 2.62353C9.42007 2.96789 9.14091 3.24705 8.79654 3.24705H7.64599C7.30162 3.24705 7.02246 2.96789 7.02246 2.62353ZM10.4741 2.62353C10.4741 2.27916 10.7533 2 11.0977 2H13.3988C13.7431 2 14.0223 2.27916 14.0223 2.62353C14.0223 2.96789 13.7431 3.24705 13.3988 3.24705H11.0977C10.7533 3.24705 10.4741 2.96789 10.4741 2.62353ZM15.0763 2.62353C15.0763 2.27916 15.3555 2 15.6999 2H18.001C18.3453 2 18.6245 2.27916 18.6245 2.62353C18.6245 2.96789 18.3453 3.24705 18.001 3.24705H15.6999C15.3555 3.24705 15.0763 2.96789 15.0763 2.62353ZM19.6786 2.62353C19.6786 2.27916 19.9577 2 20.3021 2H21.4526C21.797 2 22.0762 2.27916 22.0762 2.62353V3.7815C22.0762 4.12587 21.797 4.40503 21.4526 4.40503C21.1083 4.40503 20.8291 4.12587 20.8291 3.7815V3.24705H20.3021C19.9577 3.24705 19.6786 2.96789 19.6786 2.62353ZM21.4526 5.47393C21.797 5.47393 22.0762 5.75309 22.0762 6.09746V8.41341C22.0762 8.75778 21.797 9.03694 21.4526 9.03694C21.1083 9.03694 20.8291 8.75778 20.8291 8.41341V6.09746C20.8291 5.75309 21.1083 5.47393 21.4526 5.47393ZM21.4526 10.1058C21.797 10.1058 22.0762 10.385 22.0762 10.7294V13.0453C22.0762 13.3897 21.797 13.6688 21.4526 13.6688C21.1083 13.6688 20.8291 13.3897 20.8291 13.0453V10.7294C20.8291 10.385 21.1083 10.1058 21.4526 10.1058ZM21.4526 14.7378C21.797 14.7378 22.0762 15.0169 22.0762 15.3613V16.5193C22.0762 16.8636 21.797 17.1428 21.4526 17.1428C21.1083 17.1428 20.8291 16.8636 20.8291 16.5193V15.3613C20.8291 15.0169 21.1083 14.7378 21.4526 14.7378Z"
    fill="#A3A8AF"
  />
</svg>
