<svg xmlns="http://www.w3.org/2000/svg" viewBox="0 0 24 24" fill="none">
  <path
    fill="#A3A8AF"
    d="M19.19,7.07l0,0,0,0a.54.54,0,0,1-.28-.38L18.62,5a1.78,1.78,0,0,0-2-1.46l-1.68.23a.53.53,0,0,1-.45-.14L13.24,2.46a1.77,1.77,0,0,0-2.49,0L9.53,3.64a.53.53,0,0,1-.45.14L7.4,3.55A1.78,1.78,0,0,0,5.38,5L5.09,6.69a.54.54,0,0,1-.28.38l-1.5.8a1.78,1.78,0,0,0-.77,2.37l0,0,0,0,.74,1.52a.51.51,0,0,1,0,.48l-.74,1.52,0,0,0,0a1.78,1.78,0,0,0,.77,2.37l1.5.8h0a.54.54,0,0,1,.28.38h0L5.38,19a1.78,1.78,0,0,0,1.76,1.48,1.14,1.14,0,0,0,.26,0l1.68-.23h0a.53.53,0,0,1,.45.14l1.22,1.18a1.79,1.79,0,0,0,1.25.51,1.75,1.75,0,0,0,1.24-.51l1.23-1.18a.53.53,0,0,1,.45-.14l1.68.23a1.78,1.78,0,0,0,2-1.46l.29-1.68a.54.54,0,0,1,.28-.38l1.5-.8a1.78,1.78,0,0,0,.77-2.37l-.75-1.52a.57.57,0,0,1,0-.48l.75-1.52a1.78,1.78,0,0,0-.77-2.37Zm-.59,8.75,0,0,0,0a1.81,1.81,0,0,0-.93,1.28l-.29,1.67a.54.54,0,0,1-.61.44L15.09,19a1.81,1.81,0,0,0-1.5.49l-1.22,1.18a.53.53,0,0,1-.75,0L10.4,19.46A1.76,1.76,0,0,0,9.16,19H8.9l-1.68.24a.54.54,0,0,1-.61-.44L6.32,17.1a1.8,1.8,0,0,0-.92-1.28L3.89,15l0,0,0,0a.55.55,0,0,1-.23-.72l.75-1.52,0,0,0,0a1.82,1.82,0,0,0,0-1.58l0,0,0,0L3.66,9.69A.55.55,0,0,1,3.89,9l0,0,0,0L5.4,8.18h0A1.8,1.8,0,0,0,6.32,6.9l.29-1.67h0a.54.54,0,0,1,.61-.44L8.9,5h0a1.81,1.81,0,0,0,1.5-.49l0,0,0,0,1.22-1.18a.53.53,0,0,1,.75,0h0l1.22,1.18a1.81,1.81,0,0,0,1.5.49l1.68-.24a.54.54,0,0,1,.61.44h0l.29,1.67h0a1.81,1.81,0,0,0,.93,1.28L20.1,9l0,0,0,0a.54.54,0,0,1,.23.72l-.74,1.52a1.76,1.76,0,0,0,0,1.58l.74,1.52a.54.54,0,0,1-.23.72Z"
  />
  <path
    fill="#A3A8AF"
    d="M16.28,7.71a.68.68,0,0,0-1,0L7.71,15.33a.68.68,0,0,0,0,1,.68.68,0,0,0,1,0l7.61-7.61A.67.67,0,0,0,16.28,7.71Zm-.07.08.07-.08h0Zm.07.88-.07-.07.07.07ZM8.67,16.28h0l-.07-.07Z"
  />
  <path
    fill="#A3A8AF"
    d="M9.69,6.76a2.17,2.17,0,1,0,2.17,2.16A2.16,2.16,0,0,0,9.69,6.76Zm0,3.08a.92.92,0,1,1,.91-.92A.92.92,0,0,1,9.69,9.84Z"
  />
  <path
    fill="#A3A8AF"
    d="M14.3,12.91a2.17,2.17,0,1,0,2.17,2.17A2.17,2.17,0,0,0,14.3,12.91Zm0,3.08a.92.92,0,1,1,.92-.91A.91.91,0,0,1,14.3,16Z"
  />
</svg>
