<svg width="50" height="52" viewBox="0 0 50 52" fill="none" xmlns="http://www.w3.org/2000/svg">
<path d="M47.5425 26.6735C47.3333 26.2454 47.3333 25.7544 47.5425 25.3264L49.4819 21.3589C50.5617 19.1498 49.7062 16.5169 47.5342 15.3644L43.6332 13.2946C43.2123 13.0714 42.9238 12.6741 42.8414 12.2049L42.0785 7.85515C41.6536 5.43331 39.4134 3.80588 36.9792 4.15027L32.6067 4.76879C32.1347 4.83541 31.6681 4.68368 31.3257 4.35248L28.1518 1.28206C26.3845 -0.427629 23.6159 -0.427731 21.8488 1.28206L18.6747 4.35279C18.3323 4.68408 17.8656 4.83551 17.3937 4.76909L13.0212 4.15058C10.5862 3.80598 8.34681 5.43361 7.92197 7.85545L7.15904 12.205C7.07667 12.6743 6.78814 13.0715 6.36737 13.2948L2.46637 15.3646C0.294371 16.517 -0.561187 19.1502 0.518619 21.3592L2.45794 25.3266C2.66716 25.7547 2.66716 26.2457 2.45794 26.6737L0.518517 30.6411C-0.561289 32.8501 0.294269 35.4831 2.46627 36.6356L6.36726 38.7054C6.78814 38.9286 7.07667 39.3259 7.15904 39.795L7.92197 44.1448C8.30872 46.3495 10.1992 47.8957 12.3719 47.8955C12.5859 47.8955 12.803 47.8805 13.0213 47.8496L17.3938 47.2311C17.8654 47.1642 18.3324 47.3162 18.6748 47.6474L21.8488 50.7178C22.7325 51.5728 23.8662 52.0002 25.0002 52.0001C26.134 52 27.2683 51.5726 28.1517 50.7178L31.3257 47.6474C31.6682 47.3162 32.1349 47.1649 32.6067 47.2311L36.9792 47.8496C39.4145 48.1941 41.6536 46.5666 42.0785 44.1447L42.8415 39.7952C42.9239 39.3259 43.2124 38.9287 43.6332 38.7054L47.5342 36.6356C49.7062 35.4832 50.5617 32.85 49.4819 30.641L47.5425 26.6735ZM19.0019 12.5038C22.0337 12.5038 24.5003 14.9705 24.5003 18.0023C24.5003 21.0341 22.0337 23.5008 19.0019 23.5008C15.97 23.5008 13.5034 21.0341 13.5034 18.0023C13.5034 14.9705 15.97 12.5038 19.0019 12.5038ZM16.1638 36.9569C15.871 37.2497 15.4872 37.3962 15.1035 37.3962C14.7198 37.3962 14.3359 37.2498 14.0432 36.9569C13.4576 36.3713 13.4576 35.4218 14.0432 34.8362L33.8365 15.0429C34.422 14.4573 35.3716 14.4573 35.9572 15.0429C36.5428 15.6285 36.5428 16.578 35.9572 17.1636L16.1638 36.9569ZM30.9984 39.4962C27.9665 39.4962 25.4999 37.0295 25.4999 33.9977C25.4999 30.9659 27.9665 28.4992 30.9984 28.4992C34.0302 28.4992 36.4968 30.9659 36.4968 33.9977C36.4968 37.0295 34.0302 39.4962 30.9984 39.4962Z" fill="#0088FF"/>
</svg>
