<svg width="16" height="16" viewBox="0 0 16 16" fill="none" xmlns="http://www.w3.org/2000/svg">
<mask id="path-1-inside-1_17751_33879" fill="white">
<path d="M14.509 9.58302L13.9919 8.51473C13.9361 8.39934 13.9361 8.26728 13.9919 8.15216L14.509 7.08388C14.7968 6.48917 14.5688 5.78017 13.9898 5.4701L12.9499 4.91285C12.8379 4.8527 12.761 4.74579 12.7388 4.61946L12.5355 3.44837C12.4223 2.79624 11.8251 2.3582 11.1762 2.4509L10.0108 2.61742C9.88489 2.63546 9.76064 2.59445 9.6694 2.50531L8.82342 1.67873C8.35237 1.21855 7.6144 1.21828 7.14336 1.67873L6.29737 2.50531C6.20614 2.59445 6.08161 2.63519 5.956 2.61742L4.79057 2.4509C4.1414 2.3582 3.54447 2.79624 3.43131 3.44837L3.228 4.61946C3.20607 4.74579 3.12919 4.8527 3.01711 4.91285L1.9773 5.4701C1.39769 5.78044 1.16975 6.48944 1.45752 7.08415L1.97432 8.15216C2.03009 8.26728 2.03009 8.39962 1.97432 8.51473L1.45752 9.58302C1.16975 10.1777 1.39769 10.8867 1.97675 11.1968L3.01657 11.754C3.12865 11.8142 3.2058 11.9211 3.22773 12.0474L3.43104 13.2185C3.53418 13.8121 4.03798 14.2283 4.61731 14.2283C4.67443 14.2283 4.7321 14.2242 4.7903 14.216L5.95573 14.0495C6.08134 14.0314 6.20587 14.0724 6.2971 14.1616L7.14309 14.9882C7.37861 15.2184 7.68073 15.3335 7.98312 15.3335C8.28524 15.3335 8.58763 15.2184 8.82315 14.9882L9.66913 14.1616C9.76036 14.0724 9.88489 14.0317 10.0105 14.0495L11.1759 14.216C11.8251 14.3087 12.422 13.8707 12.5352 13.2185L12.7385 12.0474C12.7604 11.9211 12.8373 11.8142 12.9497 11.754L13.9895 11.1968C14.5685 10.8867 14.7968 10.1777 14.509 9.58302Z"/>
</mask>
<path d="M14.509 9.58302L15.4091 9.14744L15.4091 9.14735L14.509 9.58302ZM13.9919 8.51473L13.0916 8.94988L13.0918 8.9504L13.9919 8.51473ZM13.9919 8.15216L14.8919 8.58815L14.892 8.58783L13.9919 8.15216ZM14.509 7.08388L15.4091 7.51954L15.4091 7.51945L14.509 7.08388ZM13.9898 5.4701L13.5174 6.35151L13.5177 6.35167L13.9898 5.4701ZM12.9499 4.91285L12.477 5.79396L12.4776 5.79426L12.9499 4.91285ZM12.7388 4.61946L11.7535 4.79051L11.7539 4.79254L12.7388 4.61946ZM12.5355 3.44837L11.5502 3.61933L11.5502 3.61941L12.5355 3.44837ZM11.1762 2.4509L11.0348 1.46095L11.0348 1.46095L11.1762 2.4509ZM10.0108 2.61742L9.86933 1.62747L9.86887 1.62754L10.0108 2.61742ZM9.6694 2.50531L8.97055 3.22057V3.22057L9.6694 2.50531ZM8.82342 1.67873L9.52227 0.963469L9.52223 0.963427L8.82342 1.67873ZM7.14336 1.67873L7.84221 2.394L7.84238 2.39383L7.14336 1.67873ZM6.29737 2.50531L6.99623 3.22057L6.99623 3.22057L6.29737 2.50531ZM5.956 2.61742L5.81456 3.60736L5.81591 3.60755L5.956 2.61742ZM4.79057 2.4509L4.93202 1.46095L4.93192 1.46094L4.79057 2.4509ZM3.43131 3.44837L4.41657 3.61941L4.41659 3.61933L3.43131 3.44837ZM3.228 4.61946L2.24274 4.44842L2.24273 4.44843L3.228 4.61946ZM3.01711 4.91285L3.48947 5.79426L3.49003 5.79396L3.01711 4.91285ZM1.9773 5.4701L2.44933 6.35168L2.44965 6.35151L1.9773 5.4701ZM1.45752 7.08415L2.35768 6.64858L2.35768 6.64858L1.45752 7.08415ZM1.97432 8.15216L1.07416 8.58773L1.07437 8.58815L1.97432 8.15216ZM1.97432 8.51473L1.07436 8.07874L1.07412 8.07925L1.97432 8.51473ZM1.45752 9.58302L2.35768 10.0186L2.35772 10.0185L1.45752 9.58302ZM1.97675 11.1968L2.44911 10.3154L2.44881 10.3152L1.97675 11.1968ZM3.01657 11.754L3.48949 10.8729L3.48893 10.8726L3.01657 11.754ZM3.22773 12.0474L2.24246 12.2185L2.24247 12.2185L3.22773 12.0474ZM3.43104 13.2185L2.44577 13.3896L2.4458 13.3897L3.43104 13.2185ZM4.7903 14.216L4.92985 15.2062L4.93175 15.2059L4.7903 14.216ZM5.95573 14.0495L6.09718 15.0394L6.09794 15.0393L5.95573 14.0495ZM6.2971 14.1616L6.99596 13.4463V13.4463L6.2971 14.1616ZM7.14309 14.9882L7.84211 14.2731L7.84194 14.2729L7.14309 14.9882ZM8.82315 14.9882L8.12429 14.2729L8.12413 14.2731L8.82315 14.9882ZM9.66913 14.1616L8.97028 13.4463L8.97028 13.4463L9.66913 14.1616ZM10.0105 14.0495L10.152 13.0595L10.1506 13.0593L10.0105 14.0495ZM11.1759 14.216L11.0345 15.2059L11.0346 15.206L11.1759 14.216ZM12.5352 13.2185L11.5499 13.0475L11.5499 13.0476L12.5352 13.2185ZM12.7385 12.0474L13.7238 12.2185L13.7238 12.2185L12.7385 12.0474ZM12.9497 11.754L13.4217 12.6356L13.422 12.6354L12.9497 11.754ZM13.9895 11.1968L13.5174 10.3152L13.5171 10.3154L13.9895 11.1968ZM15.4091 9.14735L14.892 8.07906L13.0918 8.9504L13.6089 10.0187L15.4091 9.14735ZM14.8923 8.07958C14.9692 8.23875 14.9697 8.42758 14.8919 8.58815L13.092 7.71618C12.9026 8.10697 12.9031 8.55993 13.0916 8.94988L14.8923 8.07958ZM14.892 8.58783L15.4091 7.51954L13.6089 6.64821L13.0918 7.7165L14.892 8.58783ZM15.4091 7.51945C15.9281 6.44698 15.5186 5.15443 14.4618 4.58853L13.5177 6.35167C13.619 6.4059 13.6654 6.53135 13.6088 6.6483L15.4091 7.51945ZM14.4621 4.58869L13.4223 4.03144L12.4776 5.79426L13.5174 6.35151L14.4621 4.58869ZM13.4228 4.03174C13.584 4.11825 13.6934 4.27411 13.7237 4.44639L11.7539 4.79254C11.8285 5.21746 12.0917 5.58714 12.477 5.79396L13.4228 4.03174ZM13.724 4.44841L13.5207 3.27732L11.5502 3.61941L11.7535 4.79051L13.724 4.44841ZM13.5207 3.2774C13.3166 2.10077 12.2271 1.29064 11.0348 1.46095L11.3176 3.44085C11.4231 3.42577 11.528 3.49171 11.5502 3.61933L13.5207 3.2774ZM11.0348 1.46095L9.86933 1.62747L10.1522 3.60736L11.3177 3.44084L11.0348 1.46095ZM9.86887 1.62754C10.0536 1.60105 10.2393 1.66403 10.3683 1.79004L8.97055 3.22057C9.28199 3.52487 9.71616 3.66987 10.1527 3.6073L9.86887 1.62754ZM10.3683 1.79004L9.52227 0.963469L8.12456 2.394L8.97055 3.22057L10.3683 1.79004ZM9.52223 0.963427C8.6629 0.123916 7.30425 0.123053 6.44434 0.963634L7.84238 2.39383C7.92456 2.31351 8.04185 2.31319 8.12461 2.39404L9.52223 0.963427ZM6.4445 0.96347L5.59852 1.79004L6.99623 3.22057L7.84221 2.394L6.4445 0.96347ZM5.59852 1.79004C5.72876 1.66279 5.91399 1.60151 6.0961 1.62728L5.81591 3.60755C6.24923 3.66886 6.68353 3.5261 6.99623 3.22057L5.59852 1.79004ZM6.09745 1.62747L4.93202 1.46095L4.64913 3.44084L5.81456 3.60736L6.09745 1.62747ZM4.93192 1.46094C3.73933 1.29065 2.65019 2.10086 2.44603 3.2774L4.41659 3.61933C4.43875 3.49162 4.54346 3.42576 4.64922 3.44086L4.93192 1.46094ZM2.44605 3.27732L2.24274 4.44842L4.21326 4.79051L4.41657 3.61941L2.44605 3.27732ZM2.24273 4.44843C2.27293 4.27446 2.38316 4.11818 2.5442 4.03174L3.49003 5.79396C3.87522 5.58721 4.13921 5.21711 4.21327 4.79049L2.24273 4.44843ZM2.54476 4.03144L1.50494 4.58869L2.44965 6.35151L3.48947 5.79426L2.54476 4.03144ZM1.50526 4.58852C0.448143 5.15454 0.0382814 6.44697 0.557368 7.51972L2.35768 6.64858C2.30122 6.53191 2.34725 6.40634 2.44933 6.35168L1.50526 4.58852ZM0.557368 7.51972L1.07416 8.58773L2.87447 7.71659L2.35768 6.64858L0.557368 7.51972ZM1.07437 8.58815C0.996736 8.42791 0.996736 8.23898 1.07437 8.07874L2.87427 8.95072C3.06343 8.56025 3.06343 8.10664 2.87427 7.71618L1.07437 8.58815ZM1.07412 8.07925L0.557324 9.14753L2.35772 10.0185L2.87452 8.95021L1.07412 8.07925ZM0.557368 9.14744C0.0384191 10.2199 0.447867 11.5125 1.5047 12.0784L2.44881 10.3152C2.34752 10.261 2.30108 10.1355 2.35768 10.0186L0.557368 9.14744ZM1.5044 12.0782L2.54422 12.6354L3.48893 10.8726L2.44911 10.3154L1.5044 12.0782ZM2.54366 12.6351C2.38378 12.5493 2.27289 12.3937 2.24246 12.2185L4.213 11.8764C4.13871 11.4485 3.87352 11.0791 3.48949 10.8729L2.54366 12.6351ZM2.24247 12.2185L2.44577 13.3896L4.4163 13.0475L4.21299 11.8764L2.24247 12.2185ZM2.4458 13.3897C2.63175 14.4599 3.54922 15.2283 4.61731 15.2283V13.2283C4.52674 13.2283 4.43661 13.1644 4.41628 13.0473L2.4458 13.3897ZM4.61731 15.2283C4.72244 15.2283 4.82674 15.2207 4.92985 15.2062L4.65075 13.2258C4.63745 13.2277 4.62642 13.2283 4.61731 13.2283V15.2283ZM4.93175 15.2059L6.09718 15.0394L5.81428 13.0595L4.64885 13.226L4.93175 15.2059ZM6.09794 15.0393C5.91284 15.0659 5.72732 15.003 5.59825 14.8768L6.99596 13.4463C6.68442 13.1419 6.24985 12.997 5.81352 13.0596L6.09794 15.0393ZM5.59825 14.8768L6.44423 15.7034L7.84194 14.2729L6.99596 13.4463L5.59825 14.8768ZM6.44407 15.7033C6.87032 16.1199 7.42495 16.3335 7.98312 16.3335V14.3335C7.93651 14.3335 7.8869 14.3168 7.84211 14.2731L6.44407 15.7033ZM7.98312 16.3335C8.5409 16.3335 9.09583 16.12 9.52217 15.7033L8.12413 14.2731C8.07942 14.3168 8.02957 14.3335 7.98312 14.3335V16.3335ZM9.522 15.7034L10.368 14.8768L8.97028 13.4463L8.12429 14.2729L9.522 15.7034ZM10.368 14.8768C10.2378 15.0041 10.0525 15.0654 9.87041 15.0396L10.1506 13.0593C9.71727 12.998 9.28298 13.1408 8.97028 13.4463L10.368 14.8768ZM9.86906 15.0394L11.0345 15.2059L11.3174 13.226L10.152 13.0595L9.86906 15.0394ZM11.0346 15.206C12.2272 15.3762 13.3163 14.566 13.5205 13.3895L11.5499 13.0476C11.5278 13.1753 11.423 13.2411 11.3173 13.226L11.0346 15.206ZM13.5205 13.3896L13.7238 12.2185L11.7532 11.8764L11.5499 13.0475L13.5205 13.3896ZM13.7238 12.2185C13.6935 12.3927 13.583 12.5493 13.4217 12.6356L12.4776 10.8725C12.0916 11.0791 11.8273 11.4495 11.7532 11.8764L13.7238 12.2185ZM13.422 12.6354L14.4618 12.0782L13.5171 10.3154L12.4773 10.8726L13.422 12.6354ZM14.4615 12.0784C15.518 11.5126 15.9283 10.2203 15.4091 9.14744L13.6088 10.0186C13.6653 10.1352 13.6191 10.2608 13.5174 10.3152L14.4615 12.0784Z" fill="#A3A8AF" mask="url(#path-1-inside-1_17751_33879)"/>
<path d="M9.34448 8.75707C9.24821 8.58217 9.12881 8.44853 8.98646 8.35629C8.84401 8.26402 8.68953 8.1785 8.5231 8.09968C8.35659 8.02092 8.20211 7.95551 8.05977 7.90363C7.91735 7.85172 7.79802 7.78451 7.70175 7.70178C7.60547 7.61915 7.55735 7.52211 7.55735 7.41056C7.55735 7.27217 7.61649 7.16361 7.73485 7.08475C7.85313 7.00599 8.02068 6.96653 8.23732 6.96653C8.43381 6.96653 8.61237 7.00312 8.77284 7.07609C8.93323 7.14916 9.03162 7.18565 9.06769 7.18565C9.16396 7.18565 9.24013 7.13995 9.29636 7.04854C9.35245 6.95707 9.38063 6.8685 9.38063 6.7829C9.38063 6.69206 9.33946 6.61315 9.25724 6.54601C9.17498 6.47898 9.06862 6.42959 8.93834 6.39799C8.80792 6.36645 8.68456 6.34374 8.56826 6.32986C8.54063 6.32659 8.51341 6.32375 8.48646 6.32125V5.70862C8.48646 5.50145 8.3112 5.3335 8.09503 5.3335C7.87886 5.3335 7.7036 5.50145 7.7036 5.70862V6.37334C7.54292 6.41442 7.39188 6.47786 7.25047 6.56378C7.10607 6.65153 6.99068 6.77444 6.90446 6.93249C6.81813 7.09052 6.77508 7.27297 6.77508 7.47976C6.77508 7.66429 6.81016 7.82863 6.88037 7.97281C6.95052 8.11698 7.04284 8.2323 7.15716 8.3188C7.27149 8.4053 7.39787 8.48317 7.53623 8.55235C7.67464 8.62155 7.81198 8.68409 7.94844 8.73977C8.08477 8.79555 8.21019 8.8532 8.32451 8.91275C8.43886 8.97239 8.53107 9.04736 8.60131 9.13765C8.67146 9.22805 8.70659 9.33084 8.70659 9.44617C8.70659 9.61153 8.64237 9.73649 8.51404 9.82099C8.3856 9.90559 8.22521 9.94787 8.03266 9.94787C7.89219 9.94787 7.76386 9.92391 7.64756 9.87597C7.53115 9.82803 7.44193 9.77515 7.37977 9.71722C7.31753 9.65937 7.25341 9.60639 7.18722 9.55845C7.12104 9.51051 7.0618 9.48655 7.00972 9.48655C6.92141 9.48655 6.84216 9.53179 6.77203 9.62206C6.7018 9.71245 6.66675 9.80182 6.66675 9.8902C6.66675 10.0671 6.8031 10.2304 7.07594 10.3804C7.26037 10.4817 7.46961 10.5487 7.70357 10.5815V11.1595C7.70357 11.3667 7.87883 11.5346 8.095 11.5346C8.31118 11.5346 8.48644 11.3667 8.48644 11.1595V10.5637C8.72336 10.5144 8.92625 10.4214 9.09474 10.284C9.35742 10.0698 9.48888 9.76554 9.48888 9.37122C9.48888 9.13678 9.44073 8.93206 9.34448 8.75707Z" fill="#A3A8AF" stroke="#A3A8AF" stroke-width="0.5"/>
</svg>
