<svg width="24" height="24" viewBox="0 0 24 24" fill="none" xmlns="http://www.w3.org/2000/svg">
<path d="M19.3391 2.50601L12.7731 1.34801C12.2378 1.21725 11.6818 1.1951 11.1378 1.28287C10.5939 1.37064 10.073 1.56654 9.60605 1.85901C9.17165 2.19753 8.80958 2.61976 8.54128 3.10071C8.27298 3.58166 8.1039 4.11155 8.04405 4.65901L7.93605 5.27301L4.65705 5.85001C2.06305 6.31201 0.889051 7.99401 1.35005 10.586L2.89405 19.339C2.95223 19.8859 3.11968 20.4156 3.38645 20.8966C3.65323 21.3776 4.01389 21.8001 4.44705 22.139C5.07119 22.5578 5.81076 22.7708 6.56205 22.748C6.9163 22.7457 7.26967 22.7123 7.61805 22.648L14.1891 21.491C14.8421 21.4387 15.47 21.2165 16.0107 20.8466C16.5513 20.4766 16.9858 19.9717 17.2711 19.382C17.3191 19.382 17.3711 19.396 17.4211 19.396C19.4211 19.396 20.7151 18.214 21.1081 15.988L22.6511 7.23301C23.1081 4.64301 21.9331 2.96301 19.3391 2.50601ZM13.9261 20.018L7.35705 21.174C6.66701 21.3605 5.93123 21.2667 5.31005 20.913C4.76763 20.4506 4.43009 19.7924 4.37105 19.082L2.82605 10.325C2.51005 8.54101 3.13605 7.64501 4.91805 7.32501L7.65805 6.84301L6.50005 13.415C6.04305 16.008 7.21905 17.688 9.81205 18.146L15.6621 19.177C15.2005 19.6531 14.5857 19.9509 13.9261 20.018ZM21.1751 6.97601L19.6321 15.73C19.3161 17.514 18.4221 18.141 16.6381 17.83L10.0721 16.672C8.28905 16.358 7.66205 15.462 7.97705 13.679L9.52105 4.92101C9.5825 4.20894 9.92245 3.54987 10.4671 3.08701C10.8413 2.84777 11.2803 2.73006 11.7241 2.75001C11.9891 2.75203 12.2535 2.77746 12.5141 2.82601L19.0791 3.98301C20.8621 4.30001 21.4891 5.19201 21.1751 6.97601Z" fill="#A3A8AF"/>
<path d="M17.0627 12.5417C16.9628 13.1061 16.6667 13.617 16.2268 13.9843C15.7868 14.3516 15.2312 14.5516 14.6581 14.5491L14.6076 14.8357C14.5731 15.0316 14.4622 15.2057 14.2993 15.3199C14.1364 15.434 13.9348 15.4787 13.7389 15.4442C13.543 15.4097 13.3688 15.2988 13.2547 15.1359C13.1406 14.973 13.0958 14.7714 13.1303 14.5755L13.181 14.2879C12.6941 14.1032 12.2792 13.7673 11.9972 13.3295C11.7152 12.8917 11.581 12.375 11.6141 11.8553C11.6176 11.7552 11.6411 11.6567 11.6833 11.5658C11.7255 11.4749 11.7854 11.3934 11.8596 11.326C11.9338 11.2587 12.0208 11.2069 12.1153 11.1737C12.2099 11.1405 12.3102 11.1266 12.4102 11.1328C12.5102 11.139 12.608 11.1652 12.6977 11.2099C12.7874 11.2545 12.8673 11.3167 12.9326 11.3927C12.9979 11.4687 13.0473 11.557 13.0779 11.6525C13.1085 11.7479 13.1196 11.8485 13.1107 11.9483C13.0961 12.1782 13.1667 12.4055 13.3089 12.5867C13.4512 12.7679 13.6552 12.8905 13.8819 12.931L14.5024 13.0402C14.7275 13.0803 14.9596 13.0366 15.1546 12.9172C15.3497 12.7978 15.4942 12.611 15.5609 12.3923C15.6275 12.1735 15.6117 11.9379 15.5164 11.73C15.4211 11.5222 15.2529 11.3564 15.0436 11.2642L13.6877 10.6609C13.1904 10.438 12.7818 10.0555 12.5266 9.57402C12.3323 9.2063 12.2355 8.79487 12.2456 8.37908C12.2557 7.96329 12.3723 7.55704 12.5843 7.19918C12.7962 6.84133 13.0965 6.54385 13.4563 6.33518C13.816 6.12651 14.2233 6.01365 14.6392 6.00737L14.6912 5.71192C14.7257 5.51602 14.8367 5.34185 14.9996 5.22772C15.1625 5.11359 15.3641 5.06886 15.56 5.10336C15.7559 5.13786 15.93 5.24876 16.0442 5.41168C16.1583 5.57459 16.203 5.77617 16.1685 5.97207L16.1184 6.25669C16.6135 6.43556 17.0373 6.77029 17.3259 7.21057C17.6146 7.65085 17.7526 8.17291 17.7192 8.69832C17.7018 8.89291 17.6091 9.07302 17.4609 9.20032C17.3127 9.32763 17.1207 9.39208 16.9257 9.37997C16.7307 9.36786 16.5481 9.28013 16.4168 9.13547C16.2855 8.9908 16.2158 8.80061 16.2226 8.60536C16.2372 8.37544 16.1666 8.1482 16.0244 7.96697C15.8821 7.78574 15.6782 7.6632 15.4514 7.6227L14.8309 7.51344C14.5867 7.47043 14.3354 7.5262 14.1323 7.66848C13.9292 7.81076 13.7909 8.02789 13.7479 8.27211C13.7106 8.4747 13.7428 8.68396 13.8393 8.86596C13.9373 9.05392 14.0961 9.2032 14.2897 9.28949L15.6505 9.89366C16.1476 10.1142 16.5567 10.4947 16.8125 10.9745C17.0684 11.4544 17.1565 12.006 17.0627 12.5417Z" fill="#A3A8AF"/>
</svg>
