<svg width="20" height="20" viewBox="0 0 20 20" fill="none" xmlns="http://www.w3.org/2000/svg">
<path d="M10 17C6.13401 17 3 13.866 3 10C3 6.13401 6.13401 3 10 3C13.866 3 17 6.13401 17 10C17 13.866 13.866 17 10 17ZM10 18C14.4183 18 18 14.4183 18 10C18 5.58172 14.4183 2 10 2C5.58172 2 2 5.58172 2 10C2 14.4183 5.58172 18 10 18Z" fill="#A3A8AF"/>
<path d="M14.3311 11.5004C14.5097 11.81 14.5095 12.1913 14.3305 12.5007C13.4675 13.9926 11.852 15 10 15C8.14806 15 6.53256 13.9926 5.66955 12.5007C5.49058 12.1913 5.49034 11.81 5.66892 11.5004C5.8475 11.1908 6.17774 11 6.53516 11H13.4649C13.8223 11 14.1526 11.1908 14.3311 11.5004Z" fill="#A3A8AF"/>
<path d="M9 8.5C9 9.32843 8.55228 8.5 8 8.5C7.44772 8.5 7 9.32843 7 8.5C7 7.67157 7.44772 7 8 7C8.55228 7 9 7.67157 9 8.5Z" fill="#A3A8AF"/>
<path d="M13 8.5C13 9.32843 12.5523 8.5 12 8.5C11.4477 8.5 11 9.32843 11 8.5C11 7.67157 11.4477 7 12 7C12.5523 7 13 7.67157 13 8.5Z" fill="#A3A8AF"/>
</svg>
