<svg width="20" height="20" viewBox="0 0 20 20" fill="none" xmlns="http://www.w3.org/2000/svg">
<path d="M10 17C6.13401 17 3 13.866 3 10C3 6.13401 6.13401 3 10 3C13.866 3 17 6.13401 17 10C17 13.866 13.866 17 10 17ZM10 18C14.4183 18 18 14.4183 18 10C18 5.58172 14.4183 2 10 2C5.58172 2 2 5.58172 2 10C2 14.4183 5.58172 18 10 18Z" fill="#A3A8AF"/>
<path d="M6.28479 11.5672C6.52382 11.4289 6.82969 11.5106 6.96796 11.7496C7.57388 12.7971 8.70516 13.5 10 13.5C11.2949 13.5 12.4262 12.7971 13.0321 11.7496C13.1704 11.5106 13.4762 11.4289 13.7153 11.5672C13.9543 11.7055 14.036 12.0113 13.8977 12.2504C13.1204 13.5941 11.6663 14.5 10 14.5C8.33376 14.5 6.87967 13.5941 6.10235 12.2504C5.96408 12.0113 6.04576 11.7055 6.28479 11.5672Z" fill="#A3A8AF"/>
<path d="M9 8.5C9 9.32843 8.55228 10 8 10C7.44772 10 7 9.32843 7 8.5C7 7.67157 7.44772 7 8 7C8.55228 7 9 7.67157 9 8.5Z" fill="#A3A8AF"/>
<path d="M10.7569 8.0631C10.9982 7.92882 11.3026 8.01557 11.4369 8.25686C11.6051 8.55917 11.9112 8.75 12.25 8.75C12.5888 8.75 12.8949 8.55917 13.0631 8.25686C13.1974 8.01557 13.5018 7.92882 13.7431 8.0631C13.9844 8.19738 14.0712 8.50185 13.9369 8.74314C13.6061 9.33753 12.9795 9.75 12.25 9.75C11.5205 9.75 10.8939 9.33753 10.5631 8.74314C10.4288 8.50185 10.5156 8.19738 10.7569 8.0631Z" fill="#A3A8AF"/>
</svg>
