<svg width="20" height="20" viewBox="0 0 20 20" fill="none" xmlns="http://www.w3.org/2000/svg">
<path d="M10 17C6.13401 17 3 13.866 3 10C3 6.13401 6.13401 3 10 3C13.866 3 17 6.13401 17 10C17 13.866 13.866 17 10 17ZM10 18C14.4183 18 18 14.4183 18 10C18 5.58172 14.4183 2 10 2C5.58172 2 2 5.58172 2 10C2 14.4183 5.58172 18 10 18Z" fill="#A3A8AF"/>
<path d="M6 12.5C6 12.7761 6.22386 13 6.5 13H10H13.5C13.7761 13 14 12.7761 14 12.5C14 12.2239 13.7761 12 13.5 12H6.5C6.22386 12 6 12.2239 6 12.5Z" fill="#A3A8AF"/>
<path d="M9 8.5C9 7.67157 8.55228 7 8 7C7.44772 7 7 7.67157 7 8.5C7 9.32843 7.44772 10 8 10C8.55228 10 9 9.32843 9 8.5Z" fill="#A3A8AF"/>
<path d="M13 8.5C13 7.67157 12.5523 7 12 7C11.4477 7 11 7.67157 11 8.5C11 9.32843 11.4477 10 12 10C12.5523 10 13 9.32843 13 8.5Z" fill="#A3A8AF"/>
</svg>
