<svg xmlns="http://www.w3.org/2000/svg" width="24" height="24" viewBox="0 0 24 24" fill="none" version="1.1" xmlns:xlink="http://www.w3.org/1999/xlink">
<path d="M19.002 3H5.002C3.899 3 3.002 3.897 3.002 5V9H5.002V5H19.002V19H5.002V15H3.002V19C3.002 20.103 3.899 21 5.002 21H19.002C20.105 21 21.002 20.103 21.002 19V5C21.002 3.897 20.104 3 19.002 3Z" fill="#A3A8AF"></path>
<path d="M 11 16 L 16 12 L 11 8 L 11 11.001 L 3 11.001 L 3 13.001 L 11 13.001 L 11 16 Z" fill="#A3A8AF" style="transform-box: fill-box; transform-origin: 50% 50%;" transform="matrix(-1, 0, 0, -1, 0, -0.000001)"></path>
</svg>
