<svg width="24" height="24" viewBox="0 0 24 24" fill="none" xmlns="http://www.w3.org/2000/svg">
  <path d="M12.1833 5.92417L12.2187 5.95953L5.14701 13.0304L5.14613 13.0312L5.14612 13.0312C4.80859 13.3524 4.53877 13.7379 4.35254 14.165C4.16631 14.5921 4.06745 15.0522 4.06177 15.5181C4.0561 15.984 4.14373 16.4463 4.3195 16.8778C4.49527 17.3093 4.75562 17.7013 5.08523 18.0306C5.41483 18.3599 5.80701 18.62 6.23867 18.7954C6.67032 18.9708 7.13272 19.058 7.59861 19.052C8.06451 19.0459 8.52448 18.9467 8.95142 18.7601C9.37837 18.5735 9.76365 18.3034 10.0846 17.9656L10.0855 17.9646L10.0855 17.9646L19.2182 8.83189C19.2183 8.8318 19.2184 8.83172 19.2185 8.83163C19.6277 8.40889 19.8544 7.84223 19.8497 7.25386C19.845 6.66537 19.6091 6.10232 19.193 5.68618C18.7768 5.27004 18.2138 5.03416 17.6253 5.02944C17.0369 5.02471 16.4703 5.25142 16.0475 5.66066C16.0475 5.66074 16.0474 5.66083 16.0473 5.66092L8.68285 13.0303L8.68284 13.0304C8.49684 13.2164 8.39235 13.4686 8.39235 13.7317C8.39235 13.9947 8.49684 14.247 8.68284 14.433C8.86884 14.619 9.12111 14.7235 9.38415 14.7235C9.6472 14.7235 9.89946 14.619 10.0855 14.433L14.7973 9.72028C14.7974 9.72017 14.7976 9.72006 14.7977 9.71995C14.8598 9.65561 14.9342 9.60427 15.0164 9.56891C15.0987 9.5335 15.1873 9.51484 15.2769 9.51402C15.3665 9.5132 15.4554 9.53023 15.5384 9.56413C15.6214 9.59803 15.6967 9.64812 15.7601 9.71147C15.8236 9.77481 15.8737 9.85015 15.9077 9.93309C15.9417 10.016 15.9588 10.1049 15.9581 10.1945C15.9573 10.2842 15.9387 10.3727 15.9034 10.4551C15.8681 10.5373 15.8168 10.6117 15.7525 10.674C15.7524 10.6741 15.7523 10.6742 15.7522 10.6743L11.0395 15.3879C10.6004 15.8271 10.0047 16.0739 9.38362 16.074C8.76251 16.0741 8.1668 15.8274 7.72755 15.3883C7.2883 14.9491 7.04149 14.3535 7.04141 13.7324C7.04133 13.1113 7.28799 12.5156 7.72713 12.0763L7.72714 12.0763L15.0938 4.71465C15.7673 4.04102 16.6809 3.66253 17.6334 3.66245C18.586 3.66237 19.4996 4.04071 20.1733 4.71423C20.8469 5.38775 21.2254 6.30129 21.2255 7.25387C21.2255 8.20645 20.8472 9.12005 20.1737 9.79369L20.1383 9.75834L20.1737 9.7937L11.0404 18.9236C10.5917 19.3746 10.0579 19.7322 9.47006 19.9756C8.88221 20.219 8.25193 20.3434 7.61568 20.3417M12.1833 5.92417L7.61582 20.2917M12.1833 5.92417L12.2187 5.95952C12.3453 5.8329 12.4164 5.66116 12.4164 5.48209C12.4164 5.30301 12.3453 5.13127 12.2187 5.00465C12.092 4.87802 11.9203 4.80689 11.7412 4.80689C11.5622 4.80689 11.3904 4.87802 11.2638 5.00465L11.2992 5.04L11.2638 5.00465L4.19298 12.0763L12.1833 5.92417ZM7.61568 20.3417L7.61582 20.2917M7.61568 20.3417C7.61573 20.3417 7.61578 20.3417 7.61583 20.3417L7.61582 20.2917M7.61568 20.3417C6.658 20.3419 5.72176 20.0581 4.92542 19.5261C4.12904 18.9941 3.50836 18.2378 3.14192 17.353C2.77548 16.4681 2.67975 15.4945 2.86685 14.5552C3.05394 13.6159 3.51544 12.7532 4.19296 12.0763L4.22832 12.1117C3.55779 12.7816 3.10105 13.6354 2.91588 14.5649C2.73072 15.4945 2.82546 16.4581 3.18811 17.3339C3.55077 18.2096 4.16504 18.958 4.95319 19.4846C5.74135 20.0111 6.66798 20.2919 7.61582 20.2917" fill="#A3A8AF" stroke="#A3A8AF" stroke-width="0.3"/>
</svg>
