<svg width="24" height="24" viewBox="0 0 24 24" fill="none" xmlns="http://www.w3.org/2000/svg">
<path d="M14 21.75C13.8378 21.7498 13.6799 21.6972 13.55 21.6L9.55001 18.6C9.45686 18.5301 9.38126 18.4396 9.32919 18.3354C9.27712 18.2313 9.25001 18.1164 9.25001 18V14C9.25022 13.9013 9.23088 13.8036 9.19312 13.7125C9.15536 13.6214 9.09993 13.5386 9.03001 13.469L3.90901 8.348C3.69941 8.13956 3.53324 7.89162 3.42012 7.61852C3.307 7.34542 3.24918 7.0526 3.25001 6.757V4.5C3.2508 3.90351 3.48811 3.33167 3.9099 2.90989C4.33168 2.4881 4.90352 2.25079 5.50001 2.25H18.5C19.0965 2.25079 19.6683 2.4881 20.0901 2.90989C20.5119 3.33167 20.7492 3.90351 20.75 4.5V6.757C20.7508 7.0526 20.693 7.34542 20.5799 7.61852C20.4668 7.89162 20.3006 8.13956 20.091 8.348L14.97 13.469C14.9001 13.5386 14.8447 13.6214 14.8069 13.7125C14.7691 13.8036 14.7498 13.9013 14.75 14V21C14.75 21.1989 14.671 21.3897 14.5303 21.5303C14.3897 21.671 14.1989 21.75 14 21.75ZM10.75 17.625L13.25 19.5V14C13.2492 13.7044 13.307 13.4116 13.4201 13.1385C13.5332 12.8654 13.6994 12.6174 13.909 12.409L19.03 7.288C19.1 7.21847 19.1555 7.13573 19.1933 7.04457C19.231 6.95342 19.2503 6.85567 19.25 6.757V4.5C19.2497 4.30117 19.1706 4.11056 19.03 3.96996C18.8895 3.82937 18.6988 3.75026 18.5 3.75H5.50001C5.30118 3.75026 5.11057 3.82937 4.96997 3.96996C4.82938 4.11056 4.75027 4.30117 4.75001 4.5V6.757C4.74969 6.85567 4.76897 6.95342 4.80674 7.04457C4.8445 7.13573 4.9 7.21847 4.97001 7.288L10.091 12.409C10.3006 12.6174 10.4668 12.8654 10.5799 13.1385C10.693 13.4116 10.7508 13.7044 10.75 14V17.625Z" fill="#A3A8AF"/>
</svg>
