<svg width="32" height="32" viewBox="0 0 32 32" fill="none" xmlns="http://www.w3.org/2000/svg">
<path d="M6.16667 3H24.9444C25.5191 3 26.0702 3.22827 26.4765 3.6346C26.8828 4.04093 27.1111 4.59203 27.1111 5.16667V8.42678C27.1112 8.71136 27.0553 8.99317 26.9465 9.25613C26.8377 9.51909 26.6782 9.75804 26.477 9.95933L19.0786 17.3563C18.8774 17.5576 18.7179 17.7966 18.6091 18.0595C18.5002 18.3225 18.4443 18.6043 18.4444 18.8889V29L12.6667 24.6667V18.8889C12.6668 18.6043 12.6109 18.3225 12.5021 18.0595C12.3933 17.7966 12.2337 17.5576 12.0326 17.3563L4.63411 9.95933C4.43295 9.75804 4.27341 9.51909 4.16461 9.25613C4.05581 8.99317 3.99987 8.71136 4 8.42678V5.16667C4 4.59203 4.22827 4.04093 4.6346 3.6346C5.04093 3.22827 5.59203 3 6.16667 3Z" fill="white"/>
</svg>
