<svg width="32" height="32" viewBox="0 0 32 32" fill="none" xmlns="http://www.w3.org/2000/svg">
<g clip-path="url(#clip0_2207_2206)">
<path d="M0.9375 7.13969C1.45525 7.13969 1.875 6.71994 1.875 6.20219V1.875H6.20219C6.71994 1.875 7.13969 1.45525 7.13969 0.9375C7.13969 0.41975 6.71994 0 6.20219 0H0.9375C0.41975 0 0 0.41975 0 0.9375V6.20219C0 6.72 0.41975 7.13969 0.9375 7.13969Z" fill="#A3A8AF"/>
<path d="M31.0625 0H25.7979C25.2801 0 24.8604 0.41975 24.8604 0.9375C24.8604 1.45525 25.2801 1.875 25.7979 1.875H30.125V6.20219C30.125 6.71994 30.5448 7.13969 31.0625 7.13969C31.5803 7.13969 32 6.71994 32 6.20219V0.9375C32 0.41975 31.5803 0 31.0625 0Z" fill="#A3A8AF"/>
<path d="M31.0625 24.8604C30.5448 24.8604 30.125 25.2801 30.125 25.7979V30.125H25.7979C25.2801 30.125 24.8604 30.5448 24.8604 31.0625C24.8604 31.5803 25.2801 32 25.7979 32H31.0625C31.5803 32 32 31.5803 32 31.0625V25.7979C32 25.28 31.5803 24.8604 31.0625 24.8604Z" fill="#A3A8AF"/>
<path d="M6.20219 30.125H1.875V25.7979C1.875 25.2801 1.45525 24.8604 0.9375 24.8604C0.41975 24.8604 0 25.2801 0 25.7979V31.0625C0 31.5803 0.41975 32 0.9375 32H6.20219C6.71994 32 7.13969 31.5803 7.13969 31.0625C7.13969 30.5448 6.72 30.125 6.20219 30.125Z" fill="#A3A8AF"/>
<path d="M26.2287 11.9613V6.04066C26.2287 5.74691 25.9906 5.50879 25.6962 5.50879H16H6.30374C6.00937 5.50879 5.77124 5.74691 5.77124 6.04066V11.9613C5.77124 12.2557 6.00937 12.4938 6.30374 12.4938H9.13124C9.42499 12.4938 9.66312 12.2557 9.66312 11.9613V9.93316C9.66312 9.63879 9.90187 9.40066 10.1956 9.40066H13.5212C13.8156 9.40066 14.0537 9.63879 14.0537 9.93316V24.5669C14.0537 24.8613 13.8156 25.0994 13.5212 25.0994H12.0669C11.7725 25.0994 11.5344 25.3375 11.5344 25.6319V28.4594C11.5344 28.7532 11.7725 28.9913 12.0669 28.9913H16H19.9331C20.2275 28.9913 20.4656 28.7532 20.4656 28.4594V25.6319C20.4656 25.3375 20.2275 25.0994 19.9331 25.0994H18.4787C18.1844 25.0994 17.9462 24.8613 17.9462 24.5669V9.93316C17.9462 9.63879 18.1844 9.40066 18.4787 9.40066H21.8044C22.0981 9.40066 22.3369 9.63879 22.3369 9.93316V11.9613C22.3369 12.2557 22.575 12.4938 22.8687 12.4938H25.6962C25.9906 12.4938 26.2287 12.2557 26.2287 11.9613Z" fill="#A3A8AF"/>
</g>
<defs>
<clipPath id="clip0_2207_2206">
<rect width="32" height="32" fill="white"/>
</clipPath>
</defs>
</svg>
