<svg width="24" height="24" viewBox="0 0 24 24" fill="none" xmlns="http://www.w3.org/2000/svg">
<path d="M22.4343 10.4C22.2375 10.0604 21.9544 9.77883 21.6137 9.5839C21.273 9.38896 20.8868 9.28758 20.4943 9.29004H19.7453V9.00004C19.804 8.49338 19.7474 7.98 19.5797 7.4983C19.412 7.0166 19.1376 6.57906 18.7769 6.2184C18.4163 5.85774 17.9787 5.5833 17.497 5.4156C17.0153 5.24791 16.5019 5.19131 15.9953 5.25004H10.3063L8.52528 3.47004C8.4558 3.40024 8.3732 3.34487 8.28224 3.30711C8.19129 3.26936 8.09376 3.24996 7.99528 3.25004H4.99528C4.48862 3.19131 3.97524 3.24791 3.49354 3.4156C3.01184 3.5833 2.5743 3.85774 2.21364 4.2184C1.85298 4.57906 1.57853 5.0166 1.41084 5.4983C1.24315 5.98 1.18655 6.49338 1.24528 7.00004V17.5V17.512C1.24766 18.1069 1.48586 18.6766 1.90764 19.0961C2.32943 19.5157 2.90037 19.7508 3.49528 19.75H16.2783C16.946 19.7501 17.6016 19.5722 18.1777 19.2347C18.7539 18.8973 19.2297 18.4124 19.5563 17.83L22.4563 12.63C22.6495 12.2894 22.7492 11.9037 22.7453 11.5121C22.7414 11.1205 22.6341 10.7368 22.4343 10.4ZM4.99528 4.75004H7.68428L9.46528 6.53004C9.53475 6.59983 9.61735 6.6552 9.70831 6.69296C9.79927 6.73072 9.89679 6.75011 9.99528 6.75004H15.9953C17.5723 6.75004 18.2453 7.42304 18.2453 9.00004V9.29204L7.71628 9.28604C7.04815 9.28572 6.39204 9.46367 5.81564 9.80153C5.23924 10.1394 4.76342 10.6249 4.43728 11.208L2.74528 14.238V7.00004C2.74528 5.42304 3.41828 4.75004 4.99528 4.75004ZM21.1483 11.9L18.2483 17.1C18.0526 17.4498 17.7672 17.7409 17.4214 17.9434C17.0756 18.1459 16.682 18.2525 16.2813 18.252H3.49528C3.36425 18.2535 3.23519 18.2201 3.12132 18.1553C3.00745 18.0904 2.91287 17.9965 2.84728 17.883C2.78092 17.772 2.7453 17.6453 2.74407 17.516C2.74284 17.3866 2.77604 17.2593 2.84028 17.147L5.74028 11.94C5.93609 11.5902 6.22172 11.299 6.56768 11.0965C6.91365 10.894 7.3074 10.7875 7.70828 10.788L20.4873 10.795C20.6172 10.7941 20.7451 10.8273 20.8582 10.8913C20.9713 10.9553 21.0657 11.0478 21.1318 11.1596C21.198 11.2714 21.2337 11.3986 21.2354 11.5286C21.237 11.6585 21.2046 11.7866 21.1413 11.9H21.1483Z" fill="#A3A8AF"/>
</svg>
