<svg width="20" height="20" viewBox="0 0 20 20" fill="none" xmlns="http://www.w3.org/2000/svg">
  <rect width="20" height="20" rx="4" style="fill: #f3f4f5" />
  <path
    d="M15.8585 6.61157H3.77334C3.4862 6.61157 3.25342 6.84435 3.25342 7.1315V15.9057C3.25342 16.1928 3.4862 16.4256 3.77334 16.4256H15.8585C16.1456 16.4256 16.3784 16.1928 16.3784 15.9057V7.1315C16.3784 6.84435 16.1456 6.61157 15.8585 6.61157Z"
    style="fill: #4989f5"
  />
  <path
    d="M15.7068 6.53784H3.91051C3.54509 6.53784 3.26074 9.36585 3.26074 9.73126L9.72075 16.4256H15.7068C16.0733 16.4246 16.3702 16.1277 16.3712 15.7612V7.20213C16.3701 6.83564 16.0733 6.53884 15.7068 6.53784Z"
    style="fill: #4079d8"
  />
  <path d="M6.25049 8.25506H10.0005V3.33325H6.812L6.25049 8.25506Z" style="fill: #3c4ba6" />
  <path
    d="M13.7505 8.25506H10.0005V3.33325H13.189L13.7505 8.25506ZM16.3786 4.26624L16.3832 4.28302C16.3821 4.2771 16.3799 4.2716 16.3786 4.26624Z"
    style="fill: #7babf7"
  />
  <path
    d="M16.3832 4.28302L16.3786 4.26624C16.2597 3.72183 15.7778 3.3336 15.2206 3.33325H13.189L13.7501 8.2552H17.5001L16.3832 4.28302Z"
    style="fill: #3f51b5"
  />
  <path d="M3.62233 4.26636L3.61768 4.28313C3.6188 4.27721 3.62106 4.27171 3.62233 4.26636Z" style="fill: #7babf7" />
  <path
    d="M3.61753 4.28302L3.62218 4.26624C3.74107 3.72183 4.22293 3.3336 4.78017 3.33325H6.81194L6.25 8.2552H2.5L3.61753 4.28302Z"
    style="fill: #7babf7"
  />
  <path
    fill-rule="evenodd"
    clip-rule="evenodd"
    d="M6.25692 8.25391C6.25692 9.28885 5.41792 10.1278 4.38298 10.1278C3.34803 10.1278 2.50903 9.28885 2.50903 8.25391H6.25692Z"
    style="fill: #709be0"
  />
  <path
    fill-rule="evenodd"
    clip-rule="evenodd"
    d="M10.0047 8.25391C10.0047 9.28885 9.16572 10.1278 8.13078 10.1278C7.09583 10.1278 6.25684 9.28885 6.25684 8.25391H10.0047Z"
    style="fill: #3c4ba6"
  />
  <path
    fill-rule="evenodd"
    clip-rule="evenodd"
    d="M13.7525 8.25391C13.7525 9.28885 12.9135 10.1278 11.8786 10.1278C10.8436 10.1278 10.0046 9.28885 10.0046 8.25391H13.7525Z"
    style="fill: #709be0"
  />
  <path
    fill-rule="evenodd"
    clip-rule="evenodd"
    d="M17.4998 8.25391C17.4998 9.28885 16.6608 10.1278 15.6259 10.1278C14.591 10.1278 13.752 9.28885 13.752 8.25391H17.4998Z"
    style="fill: #3c4ba6"
  />
  <path
    d="M15.6263 13.3311C15.6196 13.2418 15.6086 13.1603 15.593 13.0563H13.5488C13.5488 13.3422 13.5488 13.6542 13.5477 13.9402H14.7319C14.7067 14.0735 14.6555 14.2006 14.5811 14.314C14.5067 14.4274 14.4106 14.5251 14.2984 14.6013C14.2984 14.6013 14.2984 14.5963 14.2975 14.5962C14.1526 14.6914 13.9893 14.7551 13.8182 14.7833C13.6467 14.8146 13.4708 14.8139 13.2996 14.781C13.1257 14.745 12.961 14.6737 12.8159 14.5714C12.6016 14.4194 12.4363 14.2083 12.3404 13.9638C12.333 13.9447 12.3263 13.9256 12.3193 13.9061V13.904L12.3212 13.9026C12.228 13.6291 12.2278 13.3326 12.3205 13.059C12.3858 12.867 12.4932 12.6922 12.635 12.5472C12.9675 12.2033 13.4643 12.0739 13.9224 12.212C14.098 12.2658 14.2585 12.3603 14.3909 12.4877L14.7904 12.0882C14.8609 12.017 14.9341 11.9481 15.0019 11.8745C14.7993 11.6855 14.5615 11.5383 14.3021 11.4411C13.8299 11.2699 13.3134 11.2654 12.8383 11.4283C12.8217 11.4339 12.8053 11.4398 12.7889 11.4459C12.2764 11.6386 11.8547 12.0165 11.6073 12.5049C11.5199 12.6778 11.4562 12.8617 11.4181 13.0516C11.1918 14.1762 11.878 15.2832 12.9859 15.5808C13.3481 15.6778 13.7331 15.6754 14.0981 15.5925C14.4297 15.5176 14.7363 15.3583 14.9882 15.1299C15.251 14.8882 15.4393 14.566 15.538 14.2239C15.6205 13.9339 15.6504 13.6315 15.6263 13.3311Z"
    style="fill: white"
  />
</svg>
