<svg xmlns="http://www.w3.org/2000/svg" viewBox="0 0 20 20">
  <rect width="20" height="20" rx="4" style="fill: #f3f4f5" />
  <path
    id="path1029"
    d="M11.24,2.49a1.4,1.4,0,0,0-1,.4L7,6.18l1.3,1.3L10.37,7l2.05.48,1.32-1.31a1.09,1.09,0,0,1,.07-1.45,1.07,1.07,0,0,1,1.44-.07L17,2.82a1.43,1.43,0,0,0-.91-.33Z"
    style="fill: #ea4335; fill-rule: evenodd"
  />
  <path
    id="path1211"
    d="M17,2.83h0L15.25,4.61a1.08,1.08,0,0,1,.33,1.19,1.09,1.09,0,0,1-1,.71,1.08,1.08,0,0,1-.83-.39h0l-2,2.06-1.45-.7-1.63.86L8.15,9.86l.47,1.69,1.63.73,2.45-.35,1.11,1.12L17.1,9.76a1.38,1.38,0,0,0,.42-1V3.88a1.38,1.38,0,0,0-.49-1Z"
    style="fill: #4285f4"
  />
  <path
    id="path1433"
    d="M7,6.18,2.9,10.24a1.38,1.38,0,0,0-.42,1,1.35,1.35,0,0,0,.42,1l2.37,2.37L8,11.9,7.49,9.85l.77-2.37Z"
    style="fill: #fbbc05"
  />
  <path
    id="path1584"
    d="M5.27,14.59,7.78,17.1a1.39,1.39,0,0,0,1,.41,1.43,1.43,0,0,0,1-.41L13.81,13,12.7,11.93l-2.33.67L8,11.9Z"
    style="fill: #34a853; fill-rule: evenodd"
  />
  <path
    id="path1508"
    d="M13.27,9.27h-2.9v1.24H12a1.58,1.58,0,0,1-1.67,1.25,1.91,1.91,0,0,1,0-3.81,1.76,1.76,0,0,1,1.14.42l.91-.93a3,3,0,0,0-2.05-.81A3.15,3.15,0,0,0,7.26,9.85a3.15,3.15,0,0,0,3.11,3.22,3,3,0,0,0,3-3.22,3.83,3.83,0,0,0-.07-.58Z"
    style="fill: #fff; fill-rule: evenodd"
  />
</svg>
