<svg width="24" height="24" viewBox="0 0 24 24" fill="none" xmlns="http://www.w3.org/2000/svg">
<path d="M21.4769 9.08524L14.0639 2.98524C13.4817 2.50852 12.7524 2.24805 11.9999 2.24805C11.2474 2.24805 10.5182 2.50852 9.93594 2.98524L2.52294 9.08524C2.4469 9.14788 2.38395 9.22488 2.33767 9.31185C2.2914 9.39882 2.2627 9.49406 2.25323 9.59211C2.24376 9.69017 2.25369 9.78914 2.28247 9.88336C2.31124 9.97758 2.3583 10.0652 2.42094 10.1412C2.48358 10.2173 2.56058 10.2802 2.64755 10.3265C2.73452 10.3728 2.82975 10.4015 2.92781 10.4109C3.02587 10.4204 3.12483 10.4105 3.21905 10.3817C3.31327 10.3529 3.4009 10.3059 3.47694 10.2432L4.24994 9.60724V18.0002C4.19121 18.5069 4.24781 19.0203 4.4155 19.502C4.58319 19.9837 4.85764 20.4212 5.2183 20.7819C5.57896 21.1425 6.0165 21.417 6.4982 21.5847C6.9799 21.7524 7.49328 21.809 7.99994 21.7502H15.9999C16.5066 21.809 17.02 21.7524 17.5017 21.5847C17.9834 21.417 18.4209 21.1425 18.7816 20.7819C19.1422 20.4212 19.4167 19.9837 19.5844 19.502C19.7521 19.0203 19.8087 18.5069 19.7499 18.0002V9.60724L20.5229 10.2432C20.599 10.3059 20.6866 10.3529 20.7808 10.3817C20.875 10.4105 20.974 10.4204 21.0721 10.4109C21.1701 10.4015 21.2654 10.3728 21.3523 10.3265C21.4393 10.2802 21.5163 10.2173 21.5789 10.1412C21.6416 10.0652 21.6886 9.97758 21.7174 9.88336C21.7462 9.78914 21.7561 9.69017 21.7466 9.59211C21.7372 9.49406 21.7085 9.39882 21.6622 9.31185C21.6159 9.22488 21.553 9.14788 21.4769 9.08524ZM13.7499 20.2502H10.2499V16.5002C10.2499 16.0361 10.4343 15.591 10.7625 15.2628C11.0907 14.9346 11.5358 14.7502 11.9999 14.7502C12.4641 14.7502 12.9092 14.9346 13.2374 15.2628C13.5656 15.591 13.7499 16.0361 13.7499 16.5002V20.2502ZM18.2499 18.0002C18.2499 19.5772 17.5769 20.2502 15.9999 20.2502H15.2499V16.5002C15.2499 15.6383 14.9075 14.8116 14.298 14.2021C13.6885 13.5926 12.8619 13.2502 11.9999 13.2502C11.138 13.2502 10.3113 13.5926 9.70184 14.2021C9.09235 14.8116 8.74994 15.6383 8.74994 16.5002V20.2502H7.99994C6.42294 20.2502 5.74994 19.5772 5.74994 18.0002V8.37424L10.8889 4.14824C11.2024 3.89187 11.595 3.75181 11.9999 3.75181C12.4049 3.75181 12.7974 3.89187 13.1109 4.14824L18.2499 8.37424V18.0002Z" fill="#A3A8AF"/>
</svg>
