<svg width="24" height="24" viewBox="0 0 24 24" fill="none" xmlns="http://www.w3.org/2000/svg">
<path d="M8.77459 12.3225C8.29992 12.3225 7.8359 12.1817 7.44122 11.918C7.04654 11.6543 6.73893 11.2795 6.55728 10.8409C6.37563 10.4024 6.3281 9.91984 6.42071 9.45428C6.51331 8.98873 6.74189 8.56109 7.07753 8.22544C7.41318 7.88979 7.84082 7.66122 8.30637 7.56861C8.77193 7.47601 9.25449 7.52354 9.69303 7.70519C10.1316 7.88684 10.5064 8.19445 10.7701 8.58913C11.0338 8.98381 11.1746 9.44782 11.1746 9.9225C11.1746 10.559 10.9217 11.1695 10.4716 11.6196C10.0216 12.0696 9.41111 12.3225 8.77459 12.3225ZM8.77459 9.0225C8.59659 9.0225 8.42258 9.07528 8.27458 9.17417C8.12657 9.27307 8.01122 9.41363 7.9431 9.57808C7.87498 9.74254 7.85716 9.9235 7.89188 10.0981C7.92661 10.2727 8.01233 10.433 8.1382 10.5589C8.26406 10.6848 8.42443 10.7705 8.59901 10.8052C8.77359 10.8399 8.95455 10.8221 9.11901 10.754C9.28346 10.6859 9.42402 10.5705 9.52291 10.4225C9.62181 10.2745 9.67459 10.1005 9.67459 9.9225C9.67459 9.6838 9.57977 9.45488 9.41099 9.2861C9.2422 9.11732 9.01329 9.0225 8.77459 9.0225ZM11.7686 17.0225C11.5697 17.0225 11.3789 16.9435 11.2383 16.8028C11.0976 16.6622 11.0186 16.4714 11.0186 16.2725V15.9725C11.0201 15.7679 10.9783 15.5654 10.8959 15.3781C10.8134 15.1909 10.6923 15.0233 10.5403 14.8863C10.3884 14.7493 10.2092 14.646 10.0144 14.5833C9.81971 14.5206 9.61391 14.4999 9.41059 14.5225H8.12659C7.92327 14.4999 7.71747 14.5206 7.52274 14.5833C7.32801 14.646 7.14878 14.7493 6.99686 14.8863C6.84493 15.0233 6.72376 15.1909 6.64132 15.3781C6.55888 15.5654 6.51706 15.7679 6.51859 15.9725V16.2725C6.51859 16.4714 6.43957 16.6622 6.29892 16.8028C6.15827 16.9435 5.9675 17.0225 5.76859 17.0225C5.56968 17.0225 5.37891 16.9435 5.23826 16.8028C5.09761 16.6622 5.01859 16.4714 5.01859 16.2725V15.9725C5.01496 15.5706 5.09409 15.1722 5.25107 14.8021C5.40805 14.4321 5.63952 14.0983 5.93106 13.8216C6.2226 13.5449 6.56798 13.3311 6.9457 13.1937C7.32341 13.0562 7.72538 12.9979 8.12659 13.0225H9.41059C9.8118 12.9979 10.2138 13.0562 10.5915 13.1937C10.9692 13.3311 11.3146 13.5449 11.6061 13.8216C11.8977 14.0983 12.1291 14.4321 12.2861 14.8021C12.4431 15.1722 12.5222 15.5706 12.5186 15.9725V16.2725C12.5186 16.4714 12.4396 16.6622 12.2989 16.8028C12.1583 16.9435 11.9675 17.0225 11.7686 17.0225ZM17.7686 20.5225H5.76859C5.26193 20.5812 4.74855 20.5246 4.26685 20.3569C3.78516 20.1892 3.34761 19.9148 2.98695 19.5541C2.62629 19.1935 2.35185 18.7559 2.18416 18.2742C2.01647 17.7925 1.95987 17.2792 2.01859 16.7725V7.7725C1.95987 7.26584 2.01647 6.75246 2.18416 6.27076C2.35185 5.78906 2.62629 5.35152 2.98695 4.99086C3.34761 4.6302 3.78516 4.35576 4.26685 4.18807C4.74855 4.02037 5.26193 3.96377 5.76859 4.0225H17.7686C18.2753 3.96377 18.7886 4.02037 19.2703 4.18807C19.752 4.35576 20.1896 4.6302 20.5502 4.99086C20.9109 5.35152 21.1853 5.78906 21.353 6.27076C21.5207 6.75246 21.5773 7.26584 21.5186 7.7725V16.7725C21.5773 17.2792 21.5207 17.7925 21.353 18.2742C21.1853 18.7559 20.9109 19.1935 20.5502 19.5541C20.1896 19.9148 19.752 20.1892 19.2703 20.3569C18.7886 20.5246 18.2753 20.5812 17.7686 20.5225ZM5.76859 5.5225C4.19159 5.5225 3.51859 6.1955 3.51859 7.7725V16.7725C3.51859 18.3495 4.19159 19.0225 5.76859 19.0225H17.7686C19.3456 19.0225 20.0186 18.3495 20.0186 16.7725V7.7725C20.0186 6.1955 19.3456 5.5225 17.7686 5.5225H5.76859ZM18.5186 10.2105C18.5186 10.0116 18.4396 9.82082 18.2989 9.68017C18.1583 9.53952 17.9675 9.4605 17.7686 9.4605H13.7686C13.5697 9.4605 13.3789 9.53952 13.2383 9.68017C13.0976 9.82082 13.0186 10.0116 13.0186 10.2105C13.0186 10.4094 13.0976 10.6002 13.2383 10.7408C13.3789 10.8815 13.5697 10.9605 13.7686 10.9605H17.7686C17.9675 10.9605 18.1583 10.8815 18.2989 10.7408C18.4396 10.6002 18.5186 10.4094 18.5186 10.2105ZM18.4686 14.2725C18.4686 14.0736 18.3896 13.8828 18.2489 13.7422C18.1083 13.6015 17.9175 13.5225 17.7186 13.5225H14.7186C14.5197 13.5225 14.3289 13.6015 14.1883 13.7422C14.0476 13.8828 13.9686 14.0736 13.9686 14.2725C13.9686 14.4714 14.0476 14.6622 14.1883 14.8028C14.3289 14.9435 14.5197 15.0225 14.7186 15.0225H17.7186C17.9175 15.0225 18.1083 14.9435 18.2489 14.8028C18.3896 14.6622 18.4686 14.4714 18.4686 14.2725Z" fill="#A3A8AF"/>
</svg>
