<svg
  version="1.1"
  xmlns="http://www.w3.org/2000/svg"
  xmlns:xlink="http://www.w3.org/1999/xlink"
  x="0px"
  y="0px"
  width="24px"
  height="24px"
  viewBox="0 0 24 24"
  enable-background="new 0 0 24 24"
  xml:space="preserve"
>
  <path
    fill="none"
    stroke="#0088FF"
    stroke-width="1.5625"
    stroke-linecap="round"
    stroke-linejoin="round"
    stroke-miterlimit="10"
    d="
	M10.771,17.803l1.563,3.125l1.563-3.125h6.094c0.862,0,1.563-0.7,1.563-1.563V5.302c0-0.863-0.7-1.563-1.563-1.563H4.677
	c-0.863,0-1.563,0.7-1.563,1.563V16.24c0,0.862,0.7,1.563,1.563,1.563H10.771z"
  />
  <path
    fill="none"
    stroke="#0088FF"
    stroke-width="1.5625"
    stroke-linecap="round"
    stroke-linejoin="round"
    stroke-miterlimit="10"
    d="
	M7.646,9.99v4.688"
  />
  <path
    fill="#0088FF"
    d="M8.427,6.865c0,0.431-0.35,0.781-0.781,0.781s-0.781-0.35-0.781-0.781c0-0.432,0.35-0.781,0.781-0.781
	S8.427,6.433,8.427,6.865z"
  />
  <path
    fill="none"
    stroke="#0088FF"
    stroke-width="1.5625"
    stroke-linecap="round"
    stroke-linejoin="round"
    stroke-miterlimit="10"
    d="
	M12.333,7.646h4.688"
  />
  <path
    fill="none"
    stroke="#0088FF"
    stroke-width="1.5625"
    stroke-linecap="round"
    stroke-linejoin="round"
    stroke-miterlimit="10"
    d="
	M12.333,10.771h4.688"
  />
  <path
    fill="none"
    stroke="#0088FF"
    stroke-width="1.5625"
    stroke-linecap="round"
    stroke-linejoin="round"
    stroke-miterlimit="10"
    d="
	M12.333,13.896h4.688"
  />
</svg>
