<svg width="24" height="24" viewBox="0 0 24 24" fill="none" xmlns="http://www.w3.org/2000/svg">
<g clip-path="url(#clip0_21131_36256)">
<path d="M11.1 7.5V9.3H12.9V7.5H11.1Z" fill="#A3A8AF"/>
<path d="M11.1 12.9V16.5H13.8V14.7H12.9V11.1H10.2V12.9H11.1Z" fill="#A3A8AF"/>
<path fill-rule="evenodd" clip-rule="evenodd" d="M12 3C7 3 3 7 3 12C3 17 7 21 12 21C17 21 21 17 21 12C21 7 17 3 12 3ZM4.8 12C4.8 16 8 19.2 12 19.2C16 19.2 19.2 16 19.2 12C19.2 8 16 4.8 12 4.8C8 4.8 4.8 8 4.8 12Z" fill="#A3A8AF"/>
</g>
<defs>
<clipPath id="clip0_21131_36256">
<rect width="18" height="18" fill="white" transform="translate(3 3)"/>
</clipPath>
</defs>
</svg>
