<svg width="24" height="24" viewBox="0 0 24 24" fill="none" xmlns="http://www.w3.org/2000/svg">
<path d="M13.5225 13.7725C13.5225 13.9714 13.4435 14.1622 13.3028 14.3028C13.1622 14.4435 12.9714 14.5225 12.7725 14.5225H6.7725C6.57359 14.5225 6.38282 14.4435 6.24217 14.3028C6.10151 14.1622 6.0225 13.9714 6.0225 13.7725C6.0225 13.5736 6.10151 13.3828 6.24217 13.2422C6.38282 13.1015 6.57359 13.0225 6.7725 13.0225H12.7725C12.9714 13.0225 13.1622 13.1015 13.3028 13.2422C13.4435 13.3828 13.5225 13.5736 13.5225 13.7725ZM9.7725 16.0225H6.7725C6.57359 16.0225 6.38282 16.1015 6.24217 16.2422C6.10151 16.3828 6.0225 16.5736 6.0225 16.7725C6.0225 16.9714 6.10151 17.1622 6.24217 17.3028C6.38282 17.4435 6.57359 17.5225 6.7725 17.5225H9.7725C9.97141 17.5225 10.1622 17.4435 10.3028 17.3028C10.4435 17.1622 10.5225 16.9714 10.5225 16.7725C10.5225 16.5736 10.4435 16.3828 10.3028 16.2422C10.1622 16.1015 9.97141 16.0225 9.7725 16.0225ZM21.5225 11.2725V18.7725C21.522 19.5017 21.2321 20.2008 20.7165 20.7165C20.2008 21.2321 19.5017 21.522 18.7725 21.5225H5.7725C5.26584 21.5812 4.75246 21.5246 4.27076 21.3569C3.78906 21.1892 3.35152 20.9148 2.99086 20.5541C2.6302 20.1935 2.35576 19.7559 2.18807 19.2742C2.02037 18.7925 1.96377 18.2792 2.0225 17.7725V5.7725C1.96377 5.26584 2.02037 4.75246 2.18807 4.27076C2.35576 3.78906 2.6302 3.35152 2.99086 2.99086C3.35152 2.6302 3.78906 2.35576 4.27076 2.18807C4.75246 2.02037 5.26584 1.96377 5.7725 2.0225H13.7725C14.2792 1.96377 14.7925 2.02037 15.2742 2.18807C15.7559 2.35576 16.1935 2.6302 16.5541 2.99086C16.9148 3.35152 17.1892 3.78906 17.3569 4.27076C17.5246 4.75246 17.5812 5.26584 17.5225 5.7725V9.0225H19.2725C19.8691 9.02303 20.4411 9.26025 20.8629 9.68209C21.2847 10.1039 21.522 10.6759 21.5225 11.2725ZM16.3225 20.0225C16.1242 19.6357 16.0213 19.2071 16.0225 18.7725V5.7725C16.0225 4.1955 15.3495 3.5225 13.7725 3.5225H5.7725C4.1955 3.5225 3.5225 4.1955 3.5225 5.7725V17.7725C3.5225 19.3495 4.1955 20.0225 5.7725 20.0225H16.3225ZM20.0225 11.2725C20.0225 11.0736 19.9435 10.8828 19.8028 10.7422C19.6622 10.6015 19.4714 10.5225 19.2725 10.5225H17.5225V18.7725C17.5225 19.104 17.6542 19.422 17.8886 19.6564C18.123 19.8908 18.441 20.0225 18.7725 20.0225C19.104 20.0225 19.422 19.8908 19.6564 19.6564C19.8908 19.422 20.0225 19.104 20.0225 18.7725V11.2725ZM7.4055 8.8785L8.3345 9.1185C8.41162 9.14236 8.47875 9.19092 8.52555 9.2567C8.57235 9.32248 8.59623 9.40182 8.5935 9.4825C8.59423 9.58357 8.5559 9.68102 8.4865 9.7545C8.45755 9.78559 8.4226 9.81048 8.38375 9.82767C8.3449 9.84485 8.30297 9.85398 8.2605 9.8545H7.8605C7.77456 9.84886 7.69361 9.81218 7.63271 9.75128C7.57182 9.69039 7.53513 9.60943 7.5295 9.5235C7.50561 9.32766 7.40552 9.14911 7.25091 9.02656C7.0963 8.904 6.89963 8.8473 6.70351 8.86874C6.50738 8.89018 6.32761 8.98803 6.20313 9.1411C6.07865 9.29417 6.0195 9.49012 6.0385 9.6865C6.07516 10.0422 6.21375 10.3798 6.43762 10.6586C6.66149 10.9375 6.96111 11.1458 7.3005 11.2585V11.2725C7.3005 11.4714 7.37951 11.6622 7.52017 11.8028C7.66082 11.9435 7.85158 12.0225 8.0505 12.0225C8.24941 12.0225 8.44018 11.9435 8.58083 11.8028C8.72148 11.6622 8.8005 11.4714 8.8005 11.2725V11.2655C9.09304 11.1764 9.35828 11.0147 9.5715 10.7955C9.79805 10.5599 9.95958 10.2695 10.0403 9.95271C10.121 9.63596 10.1181 9.30367 10.032 8.98835C9.94583 8.67303 9.77932 8.38547 9.54874 8.15377C9.31816 7.92208 9.0314 7.75418 8.7165 7.6665L7.7865 7.4265C7.71239 7.406 7.64749 7.36085 7.6025 7.2985C7.55138 7.23036 7.52335 7.14768 7.5225 7.0625C7.51758 6.96897 7.54981 6.87729 7.61219 6.80742C7.67456 6.73756 7.76201 6.69517 7.8555 6.6895H8.2555C8.3418 6.69407 8.42336 6.73041 8.48447 6.79152C8.54559 6.85263 8.58193 6.93419 8.5865 7.0205C8.60811 7.21835 8.70744 7.39951 8.86263 7.52413C9.01781 7.64875 9.21615 7.70661 9.414 7.685C9.61185 7.66338 9.79301 7.56406 9.91763 7.40887C10.0422 7.25368 10.1001 7.05535 10.0785 6.8575C10.041 6.49731 9.89918 6.1559 9.67037 5.87522C9.44156 5.59453 9.13575 5.38679 8.7905 5.2775C8.7905 5.07859 8.71148 4.88782 8.57083 4.74717C8.43018 4.60652 8.23941 4.5275 8.0405 4.5275C7.84158 4.5275 7.65082 4.60652 7.51017 4.74717C7.36951 4.88782 7.2905 5.07859 7.2905 5.2775V5.2925C6.92056 5.41781 6.59923 5.656 6.37176 5.97352C6.1443 6.29104 6.02214 6.67191 6.0225 7.0625C6.02134 7.47347 6.15403 7.87364 6.4005 8.2025C6.64955 8.53485 7.00377 8.77311 7.4055 8.8785Z" fill="#A3A8AF"/>
</svg>
