<svg width="24" height="24" viewBox="0 0 20 20" fill="none" xmlns="http://www.w3.org/2000/svg">
  <rect width="20" height="20" rx="4" style="fill: #0176fc" />
  <path
    d="M11.9401 7.42529C11.229 7.42529 10.5567 7.66487 10.008 8.10539C9.45926 7.66487 8.78689 7.42529 8.07588 7.42529C6.37565 7.42529 5 8.80867 5 10.5012C5 11.2586 5.26276 12.0546 5.78056 12.8661C6.18244 13.4998 6.73888 14.149 7.43443 14.7904C8.60914 15.8801 9.76066 16.5834 9.81476 16.6143C9.93069 16.6839 10.0853 16.6839 10.2012 16.6143C10.2475 16.5834 11.4068 15.8801 12.5815 14.7904C13.2771 14.1412 13.8335 13.4998 14.2354 12.8661C14.7532 12.0468 15.0159 11.2508 15.0159 10.5012C15.0237 8.80867 13.6403 7.42529 11.9401 7.42529ZM12.2646 11.2663L11.3913 12.1164L11.6 13.3143C11.6232 13.4457 11.5691 13.5771 11.4609 13.6621C11.3527 13.7394 11.2059 13.7471 11.0899 13.6853L10.0157 13.1211L8.94146 13.6853C8.82553 13.7471 8.67869 13.7394 8.5705 13.6621C8.4623 13.5848 8.4082 13.4534 8.43139 13.3143L8.64005 12.1164L7.76675 11.2663C7.67401 11.1735 7.63537 11.0344 7.67401 10.9031C7.71265 10.7794 7.82858 10.6867 7.95996 10.6635L9.16558 10.4857L9.70656 9.39602C9.82249 9.15644 10.2166 9.15644 10.3403 9.39602L10.8813 10.4857L12.0869 10.6635C12.2183 10.6789 12.3265 10.7717 12.3728 10.9031C12.396 11.0344 12.3574 11.1735 12.2646 11.2663Z"
    style="fill: url(#paint0_linear_21885_5749)"
  />
  <path
    d="M10.3172 10.9728L10.0157 10.3545L9.71434 10.9728C9.66024 11.0732 9.5675 11.1505 9.45158 11.166L8.77148 11.2664L9.2661 11.7456C9.35111 11.8229 9.38975 11.9465 9.36657 12.0547L9.25064 12.7348L9.86118 12.418C9.91528 12.387 9.96938 12.3793 10.0235 12.3793C10.0776 12.3793 10.1394 12.3948 10.1858 12.418L10.7963 12.7348L10.6804 12.0547C10.6572 11.9388 10.6958 11.8229 10.7809 11.7456L11.2755 11.2664L10.5954 11.166C10.464 11.1505 10.3713 11.0732 10.3172 10.9728Z"
    style="fill: url(#paint1_linear_21885_5749)"
  />
  <path
    d="M6.49169 6.9849C6.97858 6.7685 7.51183 6.64485 8.08373 6.64485C8.77155 6.64485 9.43619 6.8226 10.0158 7.16265C10.5954 6.8226 11.2524 6.64485 11.9479 6.64485C12.4889 6.64485 13.0067 6.76077 13.4781 6.96171L13.795 4.61229C13.8414 4.26452 13.4472 4.0404 13.169 4.24906L11.7779 5.31557L10.3172 3.48395C10.1627 3.28302 9.86125 3.28302 9.70668 3.48395L8.25376 5.31557L6.86265 4.24906C6.58443 4.03267 6.19029 4.26452 6.23666 4.61229L6.49169 6.9849Z"
    style="fill: url(#paint2_linear_21885_5749)"
  />
  <defs>
    <linearGradient
      id="paint0_linear_21885_5749"
      x1="7.6587"
      y1="15.6137"
      x2="11.6821"
      y2="6.98559"
      gradientUnits="userSpaceOnUse"
    >
      <stop style="stop-color: #e6f8ff" />
      <stop offset="0.9804" style="stop-color: #fff" />
    </linearGradient>
    <linearGradient
      id="paint1_linear_21885_5749"
      x1="9.39447"
      y1="12.8079"
      x2="10.4449"
      y2="10.5552"
      gradientUnits="userSpaceOnUse"
    >
      <stop style="stop-color: #e6f8ff" />
      <stop offset="0.9804" style="stop-color: #fff" />
    </linearGradient>
    <linearGradient
      id="paint2_linear_21885_5749"
      x1="8.76549"
      y1="8.04703"
      x2="11.0936"
      y2="3.05441"
      gradientUnits="userSpaceOnUse"
    >
      <stop style="stop-color: #e6f8ff" />
      <stop offset="0.9804" style="stop-color: #fff" />
    </linearGradient>
  </defs>
</svg>
