<svg width="24" height="24" viewBox="0 0 24 24" fill="none" xmlns="http://www.w3.org/2000/svg">
<path d="M12 10.7508C12.4781 10.7508 12.9454 10.6091 13.3428 10.3435C13.7403 10.0779 14.0501 9.70043 14.233 9.25878C14.416 8.81713 14.4638 8.33116 14.3706 7.86231C14.2773 7.39345 14.0471 6.96278 13.7091 6.62476C13.3711 6.28674 12.9404 6.05654 12.4715 5.96328C12.0027 5.87002 11.5167 5.91788 11.0751 6.10082C10.6334 6.28376 10.2559 6.59355 9.99035 6.99102C9.72477 7.3885 9.58301 7.8558 9.58301 8.33384C9.58354 8.9747 9.83836 9.58917 10.2915 10.0423C10.7447 10.4955 11.3591 10.7503 12 10.7508ZM12 7.41684C12.1814 7.41684 12.3587 7.47062 12.5095 7.57138C12.6603 7.67214 12.7778 7.81536 12.8472 7.98292C12.9166 8.15048 12.9348 8.33486 12.8994 8.51274C12.864 8.69062 12.7767 8.85401 12.6484 8.98226C12.5202 9.1105 12.3568 9.19784 12.1789 9.23322C12.001 9.2686 11.8167 9.25044 11.6491 9.18104C11.4815 9.11163 11.3383 8.9941 11.2376 8.8433C11.1368 8.6925 11.083 8.5152 11.083 8.33384C11.0835 8.0908 11.1803 7.85786 11.3522 7.68601C11.524 7.51415 11.757 7.41737 12 7.41684ZM20.964 7.37584C20.7003 7.21989 20.4012 7.13381 20.095 7.12576C19.7887 7.11771 19.4855 7.18796 19.214 7.32984L18.062 7.90684C17.9492 6.39913 17.2787 4.98755 16.1812 3.94762C15.0837 2.90769 13.6381 2.31405 12.1265 2.28257C10.6149 2.25109 9.14585 2.78403 8.00603 3.77736C6.86621 4.77069 6.13746 6.15313 5.96201 7.65484L3.65601 8.80984C3.23236 9.0207 2.87616 9.34589 2.62769 9.74863C2.37922 10.1514 2.2484 10.6156 2.25001 11.0888V19.4998C2.24925 19.7991 2.32505 20.0935 2.47021 20.3552C2.61536 20.6168 2.82504 20.837 3.07931 20.9948C3.33357 21.1525 3.62397 21.2426 3.92287 21.2564C4.22178 21.2703 4.51926 21.2074 4.78701 21.0738L8.18702 19.3618C8.26405 19.3233 8.34886 19.3027 8.43502 19.3018C8.51952 19.2941 8.60468 19.3057 8.68401 19.3358L14.776 21.6128C14.9934 21.7002 15.2248 21.7473 15.459 21.7518C15.5051 21.7524 15.5513 21.7497 15.597 21.7438C15.8982 21.7402 16.1946 21.6684 16.464 21.5338L20.343 19.5838C20.7652 19.372 21.12 19.0466 21.3673 18.6441C21.6147 18.2417 21.7448 17.7782 21.743 17.3058V8.89084C21.7552 8.59252 21.6898 8.29613 21.5533 8.0306C21.4168 7.76508 21.2137 7.53948 20.964 7.37584ZM12 3.74984C13.2152 3.75143 14.3801 4.23492 15.2393 5.09428C16.0984 5.95363 16.5817 7.11866 16.583 8.33384C16.5817 8.52795 16.567 8.72174 16.539 8.91384C16.2 11.2998 13.81 12.9068 12 14.0998C10.046 12.8088 7.41701 11.0438 7.41701 8.33084C7.41913 7.11619 7.90273 5.95192 8.7618 5.09321C9.62088 4.23451 10.7854 3.75142 12 3.74984ZM4.11901 19.7308C4.08023 19.7511 4.03677 19.7608 3.99303 19.7589C3.9493 19.757 3.90686 19.7435 3.87001 19.7198C3.83249 19.6969 3.80166 19.6645 3.78059 19.6259C3.75953 19.5873 3.74899 19.5438 3.75001 19.4998V11.0888C3.74929 10.894 3.80314 10.7029 3.90548 10.5371C4.00781 10.3713 4.15453 10.2375 4.32901 10.1508L6.00801 9.30784C6.24232 10.5116 6.81145 11.6249 7.65001 12.5198V17.9718C7.61101 17.9878 7.57301 17.9948 7.53301 18.0138L4.11901 19.7308ZM9.21901 17.9308C9.19601 17.9218 9.17101 17.9198 9.14801 17.9118V13.9198C9.86201 14.4878 10.595 14.9738 11.23 15.3928L11.582 15.6258C11.7052 15.708 11.85 15.7518 11.998 15.7518C12.1461 15.7518 12.2908 15.708 12.414 15.6258L12.766 15.3928C13.401 14.9738 14.134 14.4878 14.848 13.9198V20.0388L9.21901 17.9308ZM20.248 17.3028C20.2485 17.4975 20.1946 17.6884 20.0925 17.8541C19.9904 18.0198 19.8441 18.1538 19.67 18.2408L16.348 19.9108V12.5198C17.104 11.7095 17.6461 10.7234 17.925 9.65084L19.879 8.67384C19.9221 8.64703 19.9709 8.63079 20.0215 8.62645C20.0721 8.6221 20.123 8.62978 20.17 8.64884C20.24 8.69284 20.248 8.83284 20.248 8.89084V17.3028Z" fill="#A3A8AF"/>
</svg>
