<svg width="24" height="24" viewBox="0 0 20 20" fill="none" xmlns="http://www.w3.org/2000/svg">
  <rect width="20" height="20" rx="4" style="fill: #0176fc" />
  <path
    d="M8.67183 14.0235C8.04801 13.9209 7.51677 14.453 7.61852 15.0768C7.68023 15.4546 7.98547 15.759 8.36242 15.8207C8.98623 15.9233 9.51747 15.3912 9.41489 14.7682C9.35318 14.3904 9.04878 14.086 8.67099 14.0243L8.67183 14.0235ZM13.267 14.0235C12.6432 13.9209 12.112 14.453 12.2137 15.0768C12.2754 15.4546 12.5807 15.759 12.9576 15.8207C13.5814 15.9233 14.1127 15.3912 14.0101 14.7682C13.9484 14.3904 13.644 14.086 13.2662 14.0243L13.267 14.0235Z"
    style="fill: url(#paint0_linear_21885_5711)"
  />
  <path
    d="M14.4045 5.90141H7.26234C7.19812 5.90141 7.14308 5.85804 7.1264 5.79633L6.88788 4.87646C6.81116 4.46948 6.44921 4.16675 6.03139 4.16675H4.74457C4.46019 4.16675 4.20416 4.37107 4.1708 4.65379C4.13077 4.98988 4.39264 5.27593 4.72122 5.27593H5.73617C5.80038 5.27593 5.85542 5.3193 5.8721 5.38101L7.33239 11.0037C7.33989 11.0337 7.33739 11.0662 7.32488 11.0946L6.75528 12.4039C6.70191 12.5265 6.68439 12.6641 6.72025 12.7925C6.79031 13.0402 7.01214 13.1995 7.25483 13.1995H14.2035C14.4879 13.1995 14.7439 12.9952 14.7773 12.7125C14.8173 12.3764 14.5554 12.0903 14.2268 12.0903H8.31648C8.21557 12.0903 8.14718 11.9869 8.18804 11.8943L8.43907 11.3181C8.44324 11.3089 8.44241 11.2989 8.44574 11.2897H13.6456C14.266 11.2897 14.8048 10.8627 14.9466 10.2589L15.6129 7.42758C15.7964 6.64782 15.2051 5.90141 14.4045 5.90141Z"
    style="fill: url(#paint1_linear_21885_5711)"
  />
  <path
    d="M12.8006 7.17729C12.6163 6.99299 12.3169 6.99299 12.1326 7.17729L10.7866 8.52332L10.2804 8.0171C10.0961 7.8328 9.79666 7.8328 9.61235 8.0171C9.42804 8.20141 9.42804 8.50081 9.61235 8.68512L10.4522 9.52493C10.5406 9.61333 10.6607 9.66336 10.7866 9.66336C10.9125 9.66336 11.0318 9.61333 11.121 9.52493L12.8015 7.84447C12.9858 7.66016 12.9858 7.36077 12.8015 7.17646L12.8006 7.17729Z"
    style="fill: #007ce8"
  />
  <defs>
    <linearGradient
      id="paint0_linear_21885_5711"
      x1="9.61421"
      y1="16.5546"
      x2="20.2032"
      y2="2.16189"
      gradientUnits="userSpaceOnUse"
    >
      <stop offset="0.98" style="stop-color: white" />
      <stop offset="1" style="stop-color: #e6f8ff" />
    </linearGradient>
    <linearGradient
      id="paint1_linear_21885_5711"
      x1="5.76619"
      y1="13.7241"
      x2="16.3551"
      y2="-0.668623"
      gradientUnits="userSpaceOnUse"
    >
      <stop style="stop-color: #e6f8ff" />
      <stop offset="0.98" style="stop-color: white" />
    </linearGradient>
  </defs>
</svg>
