<svg width="24" height="24" viewBox="0 0 24 24" fill="none" xmlns="http://www.w3.org/2000/svg">
<path d="M13.9558 12.6114C13.7777 12.2738 13.5567 12.0157 13.2933 11.8376C13.0296 11.6594 12.7438 11.4942 12.4357 11.342C12.1275 11.1899 11.8417 11.0636 11.5782 10.9634C11.3146 10.8631 11.0938 10.7333 10.9156 10.5736C10.7375 10.414 10.6484 10.2266 10.6484 10.0112C10.6484 9.74391 10.7578 9.53423 10.9769 9.38195C11.1958 9.22987 11.5059 9.15368 11.9069 9.15368C12.2705 9.15368 12.601 9.22436 12.8979 9.36528C13.1948 9.5064 13.3769 9.57689 13.4436 9.57689C13.6218 9.57689 13.7628 9.48867 13.8668 9.31209C13.9707 9.13546 14.0228 8.96439 14.0228 8.79911C14.0228 8.62369 13.9466 8.47127 13.7945 8.34164C13.6422 8.21222 13.4454 8.11685 13.2042 8.05578C12.9629 7.99486 12.7345 7.95104 12.5193 7.92423C12.4682 7.9179 12.4178 7.91244 12.3679 7.90761V6.72444C12.3679 6.32437 12.0436 6 11.6435 6C11.2434 6 10.9191 6.32437 10.9191 6.72444V8.0081C10.6217 8.08743 10.3422 8.20995 10.0805 8.37585C9.81319 8.54533 9.59965 8.78269 9.44008 9.08788C9.28031 9.39306 9.20064 9.74541 9.20064 10.1448C9.20064 10.5012 9.26557 10.8185 9.39553 11.0969C9.52535 11.3754 9.69623 11.5981 9.90779 11.7651C10.1193 11.9321 10.3533 12.0825 10.6093 12.2161C10.8655 12.3498 11.1197 12.4706 11.3722 12.578C11.6245 12.6857 11.8567 12.7971 12.0682 12.9121C12.2798 13.0273 12.4505 13.1721 12.5805 13.3465C12.7103 13.521 12.7754 13.7195 12.7754 13.9422C12.7754 14.2616 12.6565 14.5029 12.419 14.6661C12.1813 14.8295 11.8844 14.9111 11.528 14.9111C11.2681 14.9111 11.0305 14.8648 10.8153 14.7722C10.5999 14.6797 10.4348 14.5775 10.3197 14.4657C10.2045 14.354 10.0859 14.2516 9.9633 14.159C9.84083 14.0665 9.73121 14.0202 9.63478 14.0202C9.47134 14.0202 9.32466 14.1075 9.19489 14.2819C9.06493 14.4564 9 14.629 9 14.7997C9 15.1413 9.25234 15.4567 9.7573 15.7463C10.0986 15.942 10.4859 16.0714 10.9189 16.1347V17.2509C10.9189 17.651 11.2433 17.9753 11.6434 17.9753C12.0434 17.9753 12.3678 17.651 12.3678 17.2509V16.1002C12.8063 16.0051 13.1818 15.8254 13.4936 15.5601C13.9798 15.1465 14.2231 14.5588 14.2231 13.7974C14.2231 13.3447 14.134 12.9493 13.9558 12.6114Z" fill="#A3A8AF"/>
<path d="M18.75 13.001C17.8105 13.001 16.8922 13.2796 16.111 13.8015C15.3299 14.3235 14.7211 15.0653 14.3616 15.9333C14.0021 16.8012 13.908 17.7563 14.0913 18.6777C14.2746 19.5991 14.7269 20.4455 15.3912 21.1098C16.0555 21.7741 16.9019 22.2264 17.8233 22.4097C18.7447 22.593 19.6998 22.4989 20.5677 22.1394C21.4357 21.7799 22.1775 21.1711 22.6995 20.39C23.2214 19.6088 23.5 18.6905 23.5 17.751C23.4987 16.4915 22.9978 15.284 22.1074 14.3934C21.2169 13.5027 20.0095 13.0016 18.75 13V13.001ZM18.75 21.001C18.1072 21.001 17.4789 20.8104 16.9444 20.4533C16.4099 20.0962 15.9934 19.5886 15.7474 18.9947C15.5014 18.4009 15.437 17.7474 15.5624 17.117C15.6879 16.4865 15.9974 15.9074 16.4519 15.4529C16.9064 14.9984 17.4855 14.6888 18.116 14.5634C18.7464 14.438 19.3999 14.5024 19.9937 14.7484C20.5876 14.9944 21.0952 15.4109 21.4523 15.9454C21.8094 16.4799 22 17.1082 22 17.751C21.9987 18.6125 21.6558 19.4382 21.0466 20.0473C20.4373 20.6563 19.6115 20.9999 18.75 21.001Z" fill="#A3A8AF"/>
<path d="M17.9526 16.1781L17.1641 16.9667L17.9526 17.7552" stroke="#A3A8AF" stroke-miterlimit="10" stroke-linecap="round" stroke-linejoin="round"/>
<path d="M17.9524 16.9667H19.1352C19.7885 16.9667 20.3181 17.4963 20.3181 18.1495C20.3181 18.8028 19.7885 19.3324 19.1352 19.3324" stroke="#A3A8AF" stroke-miterlimit="10" stroke-linecap="round" stroke-linejoin="round"/>
<path d="M21.223 11.3915C21.6402 11.364 21.9589 11.0028 21.9 10.589C21.6599 8.90482 20.9934 7.30522 19.9583 5.94475C18.7699 4.38296 17.1483 3.20535 15.2955 2.55862C13.4427 1.91189 11.4405 1.82463 9.53839 2.30771C7.63631 2.79079 5.91841 3.82287 4.59871 5.27535C3.27902 6.72783 2.41587 8.53651 2.1168 10.4761C1.81773 12.4156 2.09596 14.4003 2.91683 16.1828C3.7377 17.9654 5.06492 19.467 6.73313 20.5006C8.18632 21.401 9.8423 21.9115 11.5417 21.9895C11.9593 22.0087 12.2883 21.6568 12.2758 21.239C12.2634 20.8211 11.9139 20.496 11.4966 20.4712C10.0947 20.3879 8.731 19.9576 7.53045 19.2138C6.11477 18.3366 4.98847 17.0623 4.29187 15.5496C3.59526 14.0369 3.35915 12.3527 3.61295 10.7068C3.86674 9.06082 4.59923 7.52594 5.71914 6.29334C6.83906 5.06074 8.29689 4.18491 9.91103 3.77496C11.5252 3.365 13.2243 3.43905 14.7966 3.98788C16.369 4.53671 17.7451 5.53605 18.7535 6.86141C19.6087 7.98537 20.1674 9.30166 20.3843 10.6893C20.4489 11.1023 20.8059 11.419 21.223 11.3915Z" fill="#A3A8AF"/>
</svg>
