<svg width="24" height="24" viewBox="0 0 24 24" fill="none" xmlns="http://www.w3.org/2000/svg">
  <path
    d="M20.87 4.94348H16.8831V2.43478C16.8831 2.13942 16.6436 1.9 16.3483 1.9H2.43525C2.0385 1.9 1.77911 2.3183 1.95693 2.67394L4.50916 7.77843V19.8261C4.50916 20.4937 4.771 21.0646 5.22243 21.4676C5.67302 21.8699 6.30667 22.1 7.04416 22.1H14.3481C15.0856 22.1 15.7192 21.8699 16.1698 21.4676C16.6212 21.0646 16.8831 20.4937 16.8831 19.8261V8.62174H18.6961C18.7848 8.62174 18.857 8.69397 18.857 8.78261V13.5217C18.857 14.4161 19.5844 15.1435 20.4787 15.1435C21.373 15.1435 22.1005 14.4161 22.1005 13.5217V6.17391C22.1005 5.49538 21.5486 4.94348 20.87 4.94348ZM3.30053 2.96957H15.8135V4.94348H13.7396C13.4443 4.94348 13.2048 5.1829 13.2048 5.47826C13.2048 5.77363 13.4443 6.01304 13.7396 6.01304H15.8135V7.11739H15.0439C14.7486 7.11739 14.5092 7.35681 14.5092 7.65217C14.5092 7.94754 14.7486 8.18696 15.0439 8.18696H15.8135V9.2913H13.7396C13.4443 9.2913 13.2048 9.53072 13.2048 9.82609C13.2048 10.1215 13.4443 10.3609 13.7396 10.3609H15.8135V11.4652H5.57872V7.65217C5.57872 7.56919 5.55942 7.48731 5.52225 7.41302C5.52225 7.41301 5.52225 7.413 5.52224 7.41299L3.30053 2.96957ZM14.3481 21.0304H7.04416C6.69652 21.0304 6.32675 20.9479 6.04706 20.7567C5.77209 20.5688 5.57872 20.2731 5.57872 19.8261V12.5348H15.8135V13.6391H13.7396C13.4443 13.6391 13.2048 13.8786 13.2048 14.1739C13.2048 14.4692 13.4443 14.7087 13.7396 14.7087H15.8135V15.813H15.0439C14.7486 15.813 14.5092 16.0525 14.5092 16.3478C14.5092 16.6431 14.7486 16.8826 15.0439 16.8826H15.8135V17.987H13.7396C13.4443 17.987 13.2048 18.2264 13.2048 18.5217C13.2048 18.8171 13.4443 19.0565 13.7396 19.0565H15.8135V19.8261C15.8135 20.2731 15.6201 20.5688 15.3452 20.7567C15.0655 20.9479 14.6957 21.0304 14.3481 21.0304ZM21.0309 13.5217C21.0309 13.8261 20.7831 14.0739 20.4787 14.0739C20.1743 14.0739 19.9266 13.8261 19.9266 13.5217V8.78261C19.9266 8.10408 19.3747 7.55217 18.6961 7.55217H16.8831V6.01304H20.87C20.9587 6.01304 21.0309 6.08527 21.0309 6.17391V13.5217Z"
    fill="#A3A8AF"
    stroke="#A3A8AF"
    stroke-width="0.2"
  />
</svg>
