<svg width="24" height="24" viewBox="0 0 24 24" fill="none" xmlns="http://www.w3.org/2000/svg">
	<path d="M17.583 4.61595L17.5831 4.61592L17.5809 4.61187C17.3267 4.147 16.9207 3.77747 16.4357 3.56022L16.4355 3.56015L12.9967 2.026L12.9967 2.026L12.9958 2.02561C12.3658 1.75033 11.6347 1.7501 11.0108 2.02583L11.0104 2.026L7.5723 3.55987C7.08587 3.77066 6.68045 4.14753 6.42686 4.61084L6.39992 4.65799L6.3998 4.65792L6.3971 4.6632C6.21645 5.01739 6.12248 5.40066 6.11526 5.79089L6.11523 5.79089V5.79321V9.61824C6.11523 10.0897 6.25296 10.5536 6.51375 10.9523C6.7681 11.3447 7.1378 11.656 7.5713 11.8511L7.57188 11.8514L11.0106 13.3786L11.0108 13.3787C11.3224 13.5164 11.6559 13.5889 12.0105 13.5889C12.3658 13.5889 12.6855 13.5161 12.9963 13.3787L12.9965 13.3786L16.4353 11.8514L16.4359 11.8511C16.8704 11.6555 17.2324 11.344 17.4927 10.9534L17.4927 10.9534L17.4941 10.9512C17.7473 10.5532 17.8851 10.0897 17.8851 9.61824V5.79321C17.8851 5.40189 17.7909 5.01781 17.6101 4.67006L17.583 4.61595ZM7.5688 9.61824V5.95521L11.0105 7.48967C11.0244 7.49586 11.0392 7.49946 11.0544 7.50031C11.1276 7.53307 11.2004 7.55954 11.2734 7.58367V11.9092L8.16206 10.5224C8.16203 10.5223 8.162 10.5223 8.16197 10.5223C7.98344 10.4422 7.83813 10.3205 7.73528 10.1571L7.73538 10.157L7.73227 10.1525C7.62383 9.99581 7.5688 9.80768 7.5688 9.61824ZM11.6022 6.15449L11.6022 6.15447L11.6005 6.15368L8.45351 4.75462L9.5164 4.28392L9.5164 4.28393L9.5179 4.28325L9.46579 4.16963L9.51791 4.28324L9.51796 4.28322L9.51815 4.28313L9.51891 4.28278L9.52192 4.2814L9.5337 4.27601L9.57847 4.25551L9.7387 4.18232C9.87154 4.12173 10.0491 4.04098 10.2281 3.96024C10.4073 3.87946 10.5875 3.79888 10.7257 3.73856C10.7949 3.70836 10.8529 3.68355 10.8947 3.66641C10.9158 3.65777 10.9317 3.65154 10.9424 3.64763L10.9486 3.64546C10.9578 3.64361 10.9667 3.64075 10.9752 3.63691L11.5999 3.35534C11.6001 3.35526 11.6003 3.35519 11.6004 3.35511C11.8496 3.24586 12.15 3.24534 12.4074 3.35542C12.4077 3.35554 12.408 3.35566 12.4082 3.35578L15.5547 4.76101L14.6589 5.15927C14.6434 5.16005 14.6281 5.16373 14.6138 5.17014L13.1868 5.81285C13.1714 5.81367 13.1563 5.81731 13.1422 5.82363L12.4063 6.15385L12.4063 6.15384L12.4049 6.15449C12.1563 6.26974 11.8509 6.26974 11.6022 6.15449ZM10.9513 3.64454C10.9539 3.64375 10.9534 3.64407 10.9507 3.64475L10.9513 3.64454ZM16.273 10.1553L16.273 10.1552L16.2719 10.1571C16.1691 10.3204 16.0239 10.4421 15.8454 10.5222C15.8453 10.5223 15.8452 10.5223 15.8451 10.5224L12.7269 11.9094V7.58418C12.8087 7.55814 12.8919 7.53034 12.9716 7.49844L12.9716 7.49852L12.9758 7.49666L14.0625 7.0151L14.0625 7.01522L14.0677 7.01261L14.1065 6.99321L15.3068 6.45809L15.3075 6.45774L15.4168 6.40993L15.4175 6.40961L16.4315 5.95817V9.61824C16.4315 9.80783 16.3763 9.99722 16.273 10.1553Z" fill="#A3A8AF" stroke="#A3A8AF" stroke-width="0.25" stroke-linejoin="round" />
	<path d="M12.543 12.9678L12.5431 12.9677L12.5408 12.9637C12.2867 12.4988 11.8807 12.1293 11.3956 11.912L11.3954 11.912L7.95669 10.3778L7.95669 10.3778L7.95581 10.3774C7.32575 10.1021 6.59463 10.1019 5.97079 10.3776L5.9704 10.3778L2.53226 11.9117C2.04583 12.1225 1.64041 12.4993 1.38682 12.9626L1.35988 13.0098L1.35976 13.0097L1.35707 13.015C1.17641 13.3692 1.08244 13.7525 1.07522 14.1427L1.0752 14.1427V14.145V17.97C1.0752 18.4415 1.21292 18.9055 1.47371 19.3041C1.72806 19.6965 2.09776 20.0078 2.53127 20.2029L2.53184 20.2032L5.97059 21.7305L5.97079 21.7305C6.28231 21.8682 6.61588 21.9407 6.97042 21.9407C7.32572 21.9407 7.64549 21.8679 7.9563 21.7305L7.9565 21.7305L11.3953 20.2032L11.3958 20.2029C11.8303 20.0073 12.1923 19.6958 12.4526 19.3052L12.4527 19.3052L12.4541 19.303C12.7073 18.905 12.845 18.4415 12.845 17.97V14.145C12.845 13.7537 12.7509 13.3696 12.57 13.0219L12.543 12.9678ZM2.52876 17.97V14.307L5.97043 15.8415C5.98431 15.8477 5.9992 15.8513 6.01434 15.8521C6.0876 15.8849 6.16036 15.9113 6.23333 15.9355V20.261L3.12202 18.8742C3.12199 18.8742 3.12196 18.8741 3.12193 18.8741C2.94341 18.7941 2.79809 18.6723 2.69524 18.5089L2.69534 18.5088L2.69224 18.5043C2.58379 18.3476 2.52876 18.1595 2.52876 17.97ZM6.5622 14.5063L6.56221 14.5063L6.56041 14.5055L3.41347 13.1064L4.47636 12.6357L4.47636 12.6357L4.47786 12.6351L4.42575 12.5214L4.47787 12.635L4.47792 12.635L4.47811 12.6349L4.47887 12.6346L4.48188 12.6332L4.49366 12.6278L4.53843 12.6073L4.69866 12.5341C4.8315 12.4735 5.00907 12.3928 5.1881 12.312C5.36722 12.2313 5.54741 12.1507 5.68564 12.0904C5.75487 12.0602 5.81286 12.0354 5.85469 12.0182C5.87577 12.0096 5.89164 12.0033 5.90234 11.9994L5.9086 11.9973C5.91771 11.9954 5.92661 11.9926 5.93514 11.9887L6.55989 11.7071C6.56006 11.7071 6.56024 11.707 6.56041 11.7069C6.80961 11.5977 7.10995 11.5971 7.36738 11.7072C7.36766 11.7073 7.36793 11.7075 7.36821 11.7076L10.5147 13.1128L9.61889 13.5111C9.60333 13.5119 9.58804 13.5155 9.57381 13.522L8.14675 14.1647C8.13137 14.1655 8.11626 14.1691 8.10218 14.1754L7.36629 14.5057L7.36628 14.5056L7.36489 14.5063C7.11626 14.6216 6.81084 14.6215 6.5622 14.5063ZM5.91127 11.9963C5.91388 11.9956 5.91337 11.9959 5.91065 11.9966L5.91127 11.9963ZM11.233 18.5071L11.233 18.507L11.2319 18.5089C11.129 18.6722 10.9838 18.7939 10.8054 18.874C10.8053 18.8741 10.8052 18.8741 10.8051 18.8742L7.68689 20.2612V15.936C7.7687 15.9099 7.85184 15.8821 7.93157 15.8502L7.9316 15.8503L7.93578 15.8485L9.02242 15.3669L9.02248 15.367L9.02769 15.3644L9.06649 15.345L10.2667 14.8099L10.2675 14.8095L10.3768 14.7617L10.3775 14.7614L11.3915 14.31V17.97C11.3915 18.1596 11.3363 18.349 11.233 18.5071Z" fill="#A3A8AF" stroke="#A3A8AF" stroke-width="0.25" stroke-linejoin="round" />
	<path d="M22.6231 12.9678L22.6231 12.9677L22.6209 12.9637C22.3668 12.4988 21.9607 12.1293 21.4757 11.912L21.4755 11.912L18.0368 10.3778L18.0368 10.3778L18.0359 10.3774C17.4058 10.1021 16.6747 10.1019 16.0509 10.3776L16.0505 10.3778L12.6123 11.9117C12.1259 12.1225 11.7205 12.4993 11.4669 12.9626L11.44 13.0098L11.4398 13.0097L11.4371 13.015C11.2565 13.3692 11.1625 13.7525 11.1553 14.1427L11.1553 14.1427V14.145V17.97C11.1553 18.4415 11.293 18.9055 11.5538 19.3041C11.8081 19.6965 12.1778 20.0078 12.6113 20.2029L12.6119 20.2032L16.0507 21.7305L16.0509 21.7305C16.3624 21.8682 16.696 21.9407 17.0505 21.9407C17.4058 21.9407 17.7256 21.8679 18.0364 21.7305L18.0366 21.7305L21.4753 20.2032L21.4759 20.2029C21.9104 20.0073 22.2724 19.6958 22.5327 19.3052L22.5328 19.3052L22.5342 19.303C22.7874 18.905 22.9251 18.4415 22.9251 17.97V14.145C22.9251 13.7537 22.831 13.3696 22.6501 13.0219L22.6231 12.9678ZM12.6088 17.97V14.307L16.0505 15.8415C16.0644 15.8477 16.0793 15.8513 16.0944 15.8521C16.1677 15.8849 16.2404 15.9113 16.3134 15.9355V20.261L13.2021 18.8742C13.2021 18.8742 13.202 18.8741 13.202 18.8741C13.0235 18.7941 12.8782 18.6723 12.7753 18.5089L12.7754 18.5088L12.7723 18.5043C12.6639 18.3476 12.6088 18.1595 12.6088 17.97ZM16.6423 14.5063L16.6423 14.5063L16.6405 14.5055L13.4935 13.1064L14.5564 12.6357L14.5564 12.6357L14.5579 12.6351L14.5058 12.5214L14.558 12.635L14.558 12.635L14.5582 12.6349L14.5589 12.6346L14.562 12.6332L14.5737 12.6278L14.6185 12.6073L14.7787 12.5341C14.9116 12.4735 15.0891 12.3928 15.2682 12.312C15.4473 12.2313 15.6275 12.1507 15.7657 12.0904C15.8349 12.0602 15.8929 12.0354 15.9348 12.0182C15.9558 12.0096 15.9717 12.0033 15.9824 11.9994L15.9887 11.9973C15.9978 11.9954 16.0067 11.9926 16.0152 11.9887L16.64 11.7071C16.6401 11.7071 16.6403 11.707 16.6405 11.7069C16.8897 11.5977 17.19 11.5971 17.4475 11.7072C17.4477 11.7073 17.448 11.7075 17.4483 11.7076L20.5948 13.1128L19.699 13.5111C19.6834 13.5119 19.6681 13.5155 19.6539 13.522L18.2268 14.1647C18.2115 14.1655 18.1963 14.1691 18.1823 14.1754L17.4464 14.5057L17.4464 14.5056L17.445 14.5063C17.1963 14.6216 16.8909 14.6215 16.6423 14.5063ZM15.9913 11.9963C15.994 11.9956 15.9935 11.9959 15.9907 11.9966L15.9913 11.9963ZM21.3131 18.5071L21.3131 18.507L21.3119 18.5089C21.2091 18.6722 21.0639 18.7939 20.8855 18.874C20.8854 18.8741 20.8853 18.8741 20.8851 18.8742L17.767 20.2612V15.936C17.8488 15.9099 17.9319 15.8821 18.0116 15.8502L18.0117 15.8503L18.0159 15.8485L19.1025 15.3669L19.1026 15.367L19.1078 15.3644L19.1466 15.345L20.3468 14.8099L20.3476 14.8095L20.4568 14.7617L20.4576 14.7614L21.4715 14.31V17.97C21.4715 18.1596 21.4164 18.349 21.3131 18.5071Z" fill="#A3A8AF" stroke="#A3A8AF" stroke-width="0.25" stroke-linejoin="round" />
</svg>
