<svg width="24" height="24" viewBox="0 0 24 24" fill="none" xmlns="http://www.w3.org/2000/svg">
<path d="M9.99363 20.2515H5.99519C4.42019 20.2515 3.74519 19.5765 3.74519 18.0015V6.00154C3.74519 4.42654 4.42019 3.75154 5.99519 3.75154H11.2452V6.00154C11.0296 7.85779 12.3608 9.53592 14.2171 9.75154C14.4749 9.77966 14.7374 9.77966 14.9952 9.75154H17.2452V11.0031C17.2452 11.4156 17.5827 11.7531 17.9952 11.7531C18.4077 11.7531 18.7452 11.4156 18.7452 11.0031V9.00154C18.7452 8.80467 18.6655 8.61248 18.5249 8.47185L12.5249 2.47185C12.3843 2.33123 12.1921 2.25154 11.9952 2.25154H5.99519C4.13894 2.03592 2.46082 3.36717 2.24519 5.21873C2.21707 5.47654 2.21707 5.73904 2.24519 5.99685V17.9969C2.02957 19.8531 3.36082 21.5312 5.21707 21.7469C5.47488 21.775 5.73738 21.775 5.99519 21.7469H9.99363C10.4061 21.7469 10.7436 21.4094 10.7436 20.9969C10.7436 20.5844 10.4108 20.2515 9.99363 20.2515ZM12.7452 6.00154V4.81092L16.1858 8.25154H14.9952C13.4202 8.25154 12.7452 7.57654 12.7452 6.00154ZM6.82019 15.6531C6.82019 16.0656 6.48269 16.4031 6.07019 16.4031C5.65769 16.4031 5.32019 16.0656 5.32019 15.6531C5.32019 15.2406 5.65769 14.9031 6.07019 14.9031C6.48269 14.9031 6.82019 15.2359 6.82019 15.6531ZM13.1202 15.6531C13.1202 16.0656 12.7827 16.4031 12.3702 16.4031H8.57332C8.16082 16.4031 7.82332 16.0656 7.82332 15.6531C7.82332 15.2406 8.16082 14.9031 8.57332 14.9031H12.3702C12.7827 14.9031 13.1202 15.2359 13.1202 15.6531ZM6.82019 17.8469C6.82019 18.2594 6.48269 18.5969 6.07019 18.5969C5.65769 18.5969 5.32019 18.2594 5.32019 17.8469C5.32019 17.4344 5.65769 17.0969 6.07019 17.0969C6.48269 17.0969 6.82019 17.4344 6.82019 17.8469ZM11.4468 17.8469C11.4468 18.2594 11.1093 18.5969 10.6968 18.5969H8.57332C8.16082 18.5969 7.82332 18.2594 7.82332 17.8469C7.82332 17.4344 8.16082 17.0969 8.57332 17.0969H10.6968C11.1093 17.0969 11.4468 17.4344 11.4468 17.8469ZM21.2671 14.7203L20.278 13.7312C19.9733 13.4219 19.5561 13.2484 19.1202 13.2531C18.6843 13.2531 18.2671 13.4265 17.9624 13.7359L12.4639 19.2484C12.3233 19.389 12.2436 19.5812 12.2436 19.7781V22C12.2436 22.4125 12.5811 22.75 12.9936 22.75H15.2155C15.4124 22.75 15.6046 22.6703 15.7452 22.5297L21.2624 17.0406C21.9046 16.4031 21.9046 15.3625 21.2671 14.7203ZM19.1155 14.7484C19.153 14.7484 19.1905 14.7625 19.2139 14.7906L20.203 15.7797C20.2311 15.8078 20.2452 15.8406 20.2452 15.8781C20.2452 15.9156 20.2311 15.9531 20.203 15.9765L19.5655 16.6094L18.3796 15.4234L19.0124 14.7859C19.0452 14.7672 19.078 14.7531 19.1155 14.7484ZM14.9061 21.25H13.7436V20.0875L17.3249 16.4875L18.5061 17.6687L14.9061 21.25Z" fill="#A3A8AF"/>
<path d="M5.73744 9.18905C5.46557 8.82811 5.32026 8.38749 5.32026 7.9328C5.31557 7.01405 5.92494 6.2078 6.80619 5.95468V5.84686C6.80619 5.43436 7.14369 5.09686 7.55619 5.09686C7.96869 5.09686 8.30619 5.43436 8.30619 5.84686V5.9453C9.12182 6.16561 9.72182 6.86405 9.80619 7.7078C9.85776 8.1203 9.56713 8.4953 9.15463 8.54686C8.74213 8.59843 8.36713 8.3078 8.31557 7.8953C8.31557 7.88593 8.31557 7.87655 8.31088 7.86718C8.29213 7.5953 8.07182 7.37968 7.79994 7.36561H7.32651C7.03119 7.37968 6.80151 7.62811 6.81088 7.92343C6.81088 8.04999 6.84838 8.17186 6.92338 8.27499C6.99369 8.36874 7.09213 8.43905 7.20463 8.46718L8.28744 8.74843C9.39369 9.0578 10.0406 10.2016 9.73119 11.3078C9.63744 11.6406 9.46401 11.9406 9.22494 12.1891C8.97182 12.4516 8.64838 12.6391 8.29213 12.7328V12.8359C8.29213 13.2484 7.95463 13.5859 7.54213 13.5859C7.12963 13.5859 6.79213 13.2484 6.79213 12.8359V12.7281C5.99057 12.4984 5.40932 11.8047 5.32026 10.975C5.26869 10.5625 5.55932 10.1875 5.97182 10.1359C6.38432 10.0844 6.75932 10.375 6.81088 10.7875C6.81088 10.7969 6.81088 10.8062 6.81557 10.8156C6.83432 11.0875 7.05463 11.3031 7.32651 11.3172H7.79994C7.93588 11.3172 8.06244 11.2609 8.15619 11.1625C8.25932 11.0547 8.31557 10.9094 8.31557 10.7641C8.32026 10.5109 8.15619 10.2859 7.91713 10.2203L6.83432 9.93905C6.39369 9.82186 6.00932 9.55468 5.73744 9.18905Z" fill="#A3A8AF"/>
</svg>
