<svg width="24" height="24" viewBox="0 0 24 24" fill="none" xmlns="http://www.w3.org/2000/svg">
<path d="M9.994 20.2515H5.99556C4.42056 20.2515 3.74556 19.5765 3.74556 18.0015V6.00154C3.74556 4.42654 4.42056 3.75154 5.99556 3.75154H11.2456V6.00154C11.0299 7.85779 12.3612 9.53592 14.2174 9.75154C14.4752 9.77966 14.7377 9.77966 14.9956 9.75154H17.2456V11.0031C17.2456 11.4156 17.5831 11.7531 17.9956 11.7531C18.4081 11.7531 18.7456 11.4156 18.7456 11.0031V9.00154C18.7456 8.80467 18.6659 8.61248 18.5252 8.47185L12.5252 2.47185C12.3846 2.33123 12.1924 2.25154 11.9956 2.25154H5.99556C4.13931 2.03592 2.46118 3.36717 2.24556 5.21873C2.21743 5.47654 2.21743 5.73904 2.24556 5.99685V17.9969C2.02993 19.8531 3.36118 21.5312 5.21743 21.7469C5.47525 21.775 5.73775 21.775 5.99556 21.7469H9.994C10.4065 21.7469 10.744 21.4094 10.744 20.9969C10.744 20.5844 10.4112 20.2515 9.994 20.2515ZM12.7456 6.00154V4.81092L16.1862 8.25154H14.9956C13.4206 8.25154 12.7456 7.57654 12.7456 6.00154ZM6.82056 15.6531C6.82056 16.0656 6.48306 16.4031 6.07056 16.4031C5.65806 16.4031 5.32056 16.0656 5.32056 15.6531C5.32056 15.2406 5.65806 14.9031 6.07056 14.9031C6.48306 14.9031 6.82056 15.2359 6.82056 15.6531ZM13.1206 15.6531C13.1206 16.0656 12.7831 16.4031 12.3706 16.4031H8.57368C8.16118 16.4031 7.82368 16.0656 7.82368 15.6531C7.82368 15.2406 8.16118 14.9031 8.57368 14.9031H12.3706C12.7831 14.9031 13.1206 15.2359 13.1206 15.6531ZM6.82056 17.8469C6.82056 18.2594 6.48306 18.5969 6.07056 18.5969C5.65806 18.5969 5.32056 18.2594 5.32056 17.8469C5.32056 17.4344 5.65806 17.0969 6.07056 17.0969C6.48306 17.0969 6.82056 17.4344 6.82056 17.8469ZM11.4471 17.8469C11.4471 18.2594 11.1096 18.5969 10.6971 18.5969H8.57368C8.16118 18.5969 7.82368 18.2594 7.82368 17.8469C7.82368 17.4344 8.16118 17.0969 8.57368 17.0969H10.6971C11.1096 17.0969 11.4471 17.4344 11.4471 17.8469Z" fill="#A3A8AF"/>
<path d="M17.6582 13.5913C16.7187 13.5913 15.8004 13.8699 15.0192 14.3918C14.2381 14.9137 13.6293 15.6556 13.2698 16.5235C12.9103 17.3915 12.8162 18.3465 12.9995 19.268C13.1828 20.1894 13.6351 21.0357 14.2994 21.7C14.9637 22.3643 15.8101 22.8167 16.7315 23C17.6529 23.1833 18.608 23.0892 19.476 22.7297C20.3439 22.3702 21.0857 21.7614 21.6077 20.9802C22.1296 20.1991 22.4082 19.2807 22.4082 18.3413C22.4069 17.0818 21.906 15.8743 21.0156 14.9836C20.1251 14.093 18.9177 13.5919 17.6582 13.5903V13.5913ZM17.6582 21.5913C17.0154 21.5913 16.3871 21.4007 15.8526 21.0435C15.3181 20.6864 14.9016 20.1789 14.6556 19.585C14.4096 18.9911 14.3453 18.3377 14.4707 17.7072C14.5961 17.0768 14.9056 16.4977 15.3601 16.0432C15.8146 15.5887 16.3937 15.2791 17.0242 15.1537C17.6546 15.0283 18.3081 15.0927 18.9019 15.3387C19.4958 15.5846 20.0034 16.0012 20.3605 16.5357C20.7176 17.0701 20.9082 17.6985 20.9082 18.3413C20.9069 19.2027 20.564 20.0285 19.9548 20.6376C19.3455 21.2466 18.5197 21.5902 17.6582 21.5913Z" fill="#A3A8AF"/>
<path d="M8.78276 9.99996L10.0927 8.69003C10.3649 8.41783 10.3649 7.97639 10.0927 7.70415C9.82049 7.43195 9.37905 7.43195 9.10681 7.70415L7.79688 9.01408L6.48694 7.70415C6.21475 7.43195 5.7733 7.43195 5.50106 7.70415C5.22881 7.97634 5.22881 8.41779 5.50106 8.69003L6.81099 9.99996L5.50106 11.3099C5.22891 11.5821 5.22891 12.0235 5.50115 12.2958C5.63727 12.4319 5.81567 12.5 5.99407 12.5C6.17247 12.5 6.35091 12.4319 6.48699 12.2958L7.79692 10.9858L9.10685 12.2958C9.24297 12.4319 9.42137 12.5 9.59977 12.5C9.77812 12.5 9.95662 12.4319 10.0927 12.2958C10.3649 12.0236 10.3649 11.5821 10.0927 11.3099L8.78276 9.99996Z" fill="#A3A8AF"/>
<path d="M16.75 17L16 17.75L16.75 18.5001" stroke="#A3A8AF" stroke-width="0.951133" stroke-miterlimit="10" stroke-linecap="round" stroke-linejoin="round"/>
<path d="M16.75 17.75H17.8751C18.4964 17.75 19.0001 18.2537 19.0001 18.8751C19.0001 19.4964 18.4964 20.0001 17.8751 20.0001" stroke="#A3A8AF" stroke-width="0.951133" stroke-miterlimit="10" stroke-linecap="round" stroke-linejoin="round"/>
</svg>
