<svg width="80" height="81" viewBox="0 0 80 81" fill="none" xmlns="http://www.w3.org/2000/svg">
<circle cx="41.9275" cy="40.5725" r="33.0725" fill="#CFE2FF"/>
<circle cx="41.9275" cy="40.5725" r="33.0725" fill="#F3F8FF"/>
<path d="M63.1695 63.161L44.5967 44.8086L40.919 48.5305L59.4918 66.8829L63.1695 63.161Z" fill="#A5C3FF"/>
<path opacity="0.9" d="M70.2648 68.0921L55.8151 53.8139C55.7347 53.7344 55.605 53.7351 55.5255 53.8156L50.0564 59.3504C49.9769 59.4308 49.9777 59.5605 50.0581 59.64L64.5078 73.9183C64.5883 73.9977 64.718 73.997 64.7974 73.9165L70.2666 68.3817C70.3461 68.3013 70.3453 68.1716 70.2648 68.0921Z" fill="#5072F1"/>
<path opacity="0.9" d="M28.1358 54.0382C40.9133 54.0382 51.2716 43.68 51.2716 30.9024C51.2716 18.1249 40.9133 7.7666 28.1358 7.7666C15.3582 7.7666 5 18.1249 5 30.9024C5 43.68 15.3582 54.0382 28.1358 54.0382Z" fill="#5072F1"/>
<path d="M28.1357 50.2625C38.8283 50.2625 47.4964 41.5944 47.4964 30.9018C47.4964 20.2091 38.8283 11.541 28.1357 11.541C17.443 11.541 8.7749 20.2091 8.7749 30.9018C8.7749 41.5944 17.443 50.2625 28.1357 50.2625Z" fill="#F8FCFF"/>
<path opacity="0.9" d="M36.4116 35.4353L31.8906 30.9143L36.3726 26.4323C37.308 25.497 37.308 23.938 36.3726 23.0027L36.0998 22.7298C35.1644 21.7945 33.6055 21.7945 32.6701 22.7298L28.1881 27.2118L23.7062 22.7298C22.7708 21.7945 21.2119 21.7945 20.2765 22.7298L20.0037 23.0027C19.0683 23.938 19.0683 25.497 20.0037 26.4323L24.4856 30.9143L19.9647 35.3963C19.0293 36.3317 19.0293 37.8906 19.9647 38.826L20.2375 39.0988C21.1729 40.0341 22.7318 40.0341 23.6672 39.0988L28.1492 34.6168L32.6311 39.0988C33.5665 40.0341 35.1254 40.0341 36.0608 39.0988L36.3336 38.826C37.3469 37.8906 37.3469 36.3706 36.4116 35.4353Z" fill="#FF9F1C"/>
<path opacity="0.9" d="M62.5841 32.7797L64.5767 33.796L62.5841 34.8124L61.4951 36.6722L60.4062 34.8124L58.4136 33.796L60.4062 32.7797L61.4951 30.9199L62.5841 32.7797Z" fill="url(#paint0_linear_12126_171805)"/>
<path opacity="0.9" d="M63.6495 16.2368L64.5768 16.7447L63.6495 17.2554L63.1387 18.1828L62.6309 17.2554L61.7007 16.7447L62.6309 16.2368L63.1387 15.3066L63.6495 16.2368Z" fill="#FF9F1C"/>
<defs>
<linearGradient id="paint0_linear_12126_171805" x1="58.4136" y1="33.796" x2="64.5767" y2="33.796" gradientUnits="userSpaceOnUse">
<stop stop-color="#5278FF"/>
<stop offset="1" stop-color="#30B8FC"/>
</linearGradient>
</defs>
</svg>
