<svg width="24" height="24" viewBox="0 0 24 24" fill="none" xmlns="http://www.w3.org/2000/svg">
  <g clip-path="url(#clip0_3441_4047)">
    <path
      d="M18.6651 14.7094C18.5666 14.7094 18.5666 14.7094 18.5666 14.6108V10.867C18.5666 8.10837 16.8917 5.64532 14.3301 4.6601C14.3301 4.56158 14.3301 4.46305 14.3301 4.26601C14.3301 2.98522 13.2464 2 12.0641 2C10.7833 2 9.69956 3.08374 9.69956 4.26601C9.69956 4.36453 9.69956 4.46305 9.69956 4.56158C8.91138 4.95567 8.1232 5.44828 7.53207 6.03941C6.25128 7.3202 5.56163 8.89655 5.56163 10.67V14.5123C5.56163 14.6108 5.46311 14.6108 5.46311 14.6108C4.18232 14.6108 3.1971 15.5961 3.00005 16.7783C2.90153 17.468 3.1971 18.0591 3.59119 18.5517C3.98527 19.0443 4.67493 19.3399 5.36458 19.3399H9.10843C9.30547 20.8177 10.5863 21.9015 12.0641 21.9015C13.5419 21.9015 14.8227 20.8177 15.0198 19.3399H18.7636C19.4533 19.3399 20.0444 19.0443 20.537 18.5517C21.0296 18.0591 21.2267 17.3695 21.1281 16.7783C20.9311 15.6946 19.8473 14.7094 18.6651 14.7094ZM12.0641 20.4236C11.473 20.4236 10.8818 20.0296 10.6848 19.4384H13.4434C13.2464 20.0296 12.6552 20.4236 12.0641 20.4236ZM7.13798 14.6108V10.7685C7.13798 9.38916 7.63059 8.10837 8.61582 7.22168C9.50252 6.33498 10.7833 5.84236 12.0641 5.84236H12.2611C14.8227 5.84236 16.9902 8.10837 16.9902 10.867V14.6108C16.9902 15.4975 17.7784 16.2857 18.6651 16.2857C19.1577 16.2857 19.5518 16.5813 19.5518 16.9754C19.5518 17.1724 19.4533 17.468 19.3547 17.5665C19.1577 17.7635 18.9606 17.8621 18.7636 17.8621H5.36458C5.16754 17.8621 4.87197 17.7635 4.77345 17.5665C4.57641 17.3695 4.57641 17.1724 4.57641 16.9754C4.57641 16.5813 4.9705 16.2857 5.46311 16.2857C6.34981 16.2857 7.13798 15.4975 7.13798 14.6108ZM12.2611 4.26601H12.0641C11.7685 4.26601 11.5715 4.26601 11.2759 4.36453C11.2759 3.97044 11.67 3.67488 12.0641 3.67488C12.4582 3.67488 12.8523 3.97044 12.8523 4.36453C12.6552 4.26601 12.4582 4.26601 12.2611 4.26601Z"
      fill="#A3A8AF"
    />
    <path
      d="M3.68977 9.88177C3.78829 9.88177 3.78829 9.88177 3.88681 9.88177C4.2809 9.88177 4.57647 9.58621 4.67499 9.29064C4.97055 7.91133 5.66021 6.63054 6.64543 5.64532C6.941 5.34975 6.941 4.85714 6.64543 4.56158C6.44839 4.46305 6.25134 4.36453 5.95578 4.36453C5.75873 4.36453 5.56169 4.46305 5.36464 4.56158C4.2809 5.74384 3.3942 7.3202 3.09863 8.99507C3.09863 9.19212 3.09863 9.38916 3.19715 9.58621C3.29568 9.68473 3.3942 9.88177 3.68977 9.88177Z"
      fill="#A3A8AF"
    />
    <path
      d="M19.5517 9.29064C19.5517 9.68473 19.9457 9.88178 20.2413 9.88178C20.3398 9.88178 20.3398 9.88178 20.4384 9.88178C20.6354 9.88178 20.8324 9.68473 20.931 9.58621C21.0295 9.38917 21.0295 9.19212 21.0295 8.99508C20.6354 7.3202 19.8472 5.84237 18.665 4.6601C18.5664 4.56158 18.3694 4.46306 18.0738 4.46306C17.7783 4.46306 17.6797 4.56158 17.4827 4.6601C17.2856 4.75863 17.2856 4.95567 17.2856 5.15271C17.2856 5.34976 17.3842 5.5468 17.4827 5.74385C18.5664 6.63055 19.2561 7.91133 19.5517 9.29064Z"
      fill="#A3A8AF"
    />
  </g>
  <defs>
    <clipPath id="clip0_3441_4047">
      <rect width="18.0296" height="20" fill="white" transform="translate(3 2)" />
    </clipPath>
  </defs>
</svg>
