<svg width="24" height="24" viewBox="0 0 24 24" fill="none" xmlns="http://www.w3.org/2000/svg">
  <g clip-path="url(#clip0_14314_18098)">
    <path
      d="M19.0693 15.7667C19.0229 15.7202 18.9637 15.6885 18.8992 15.6756C18.8348 15.6627 18.768 15.6691 18.7072 15.694C18.6464 15.7189 18.5943 15.7613 18.5575 15.8157C18.5207 15.8702 18.5008 15.9343 18.5003 16V17H14.8337C14.6568 17 14.4873 17.0702 14.3623 17.1953C14.2372 17.3203 14.167 17.4899 14.167 17.6667V19C14.167 19.1768 14.2372 19.3464 14.3623 19.4714C14.4873 19.5964 14.6568 19.6667 14.8337 19.6667H18.5003V20.6667C18.5003 20.7326 18.5199 20.797 18.5565 20.8518C18.5932 20.9066 18.6452 20.9493 18.7061 20.9746C18.767 20.9998 18.834 21.0064 18.8987 20.9935C18.9633 20.9807 19.0227 20.9489 19.0693 20.9023L22.0693 18.569C22.1318 18.5065 22.1669 18.4217 22.1669 18.3333C22.1669 18.245 22.1318 18.1602 22.0693 18.0977L19.0693 15.7667Z"
      fill="#A3A8AF"
    />
    <path
      d="M3.5 14.3334C4.05228 14.3334 4.5 13.8857 4.5 13.3334C4.5 12.7811 4.05228 12.3334 3.5 12.3334C2.94772 12.3334 2.5 12.7811 2.5 13.3334C2.5 13.8857 2.94772 14.3334 3.5 14.3334Z"
      fill="#A3A8AF"
    />
    <path
      d="M5.16699 6.33337V10.3334C5.16699 11.3942 5.58842 12.4117 6.33857 13.1618C7.08871 13.9119 8.10613 14.3334 9.16699 14.3334C10.2279 14.3334 11.2453 13.9119 11.9954 13.1618C12.7456 12.4117 13.167 11.3942 13.167 10.3334V6.33337C13.167 5.27251 12.7456 4.25509 11.9954 3.50495C11.2453 2.7548 10.2279 2.33337 9.16699 2.33337C8.10613 2.33337 7.08871 2.7548 6.33857 3.50495C5.58842 4.25509 5.16699 5.27251 5.16699 6.33337ZM11.167 6.33337V10.3334C11.167 10.8638 10.9563 11.3725 10.5812 11.7476C10.2061 12.1227 9.69743 12.3334 9.16699 12.3334C8.63656 12.3334 8.12785 12.1227 7.75278 11.7476C7.37771 11.3725 7.16699 10.8638 7.16699 10.3334V6.33337C7.16699 5.80294 7.37771 5.29423 7.75278 4.91916C8.12785 4.54409 8.63656 4.33337 9.16699 4.33337C9.69743 4.33337 10.2061 4.54409 10.5812 4.91916C10.9563 5.29423 11.167 5.80294 11.167 6.33337Z"
      fill="#A3A8AF"
    />
    <path
      d="M13.833 6.33337V10.3334C13.833 11.3942 14.2544 12.4117 15.0046 13.1618C15.7547 13.9119 16.7721 14.3334 17.833 14.3334C18.8939 14.3334 19.9113 13.9119 20.6614 13.1618C21.4116 12.4117 21.833 11.3942 21.833 10.3334V6.33337C21.833 5.27251 21.4116 4.25509 20.6614 3.50495C19.9113 2.7548 18.8939 2.33337 17.833 2.33337C16.7721 2.33337 15.7547 2.7548 15.0046 3.50495C14.2544 4.25509 13.833 5.27251 13.833 6.33337ZM15.833 6.33337C15.833 5.80294 16.0437 5.29423 16.4188 4.91916C16.7939 4.54409 17.3026 4.33337 17.833 4.33337C18.3634 4.33337 18.8721 4.54409 19.2472 4.91916C19.6223 5.29423 19.833 5.80294 19.833 6.33337V10.3334C19.833 10.8638 19.6223 11.3725 19.2472 11.7476C18.8721 12.1227 18.3634 12.3334 17.833 12.3334C17.3026 12.3334 16.7939 12.1227 16.4188 11.7476C16.0437 11.3725 15.833 10.8638 15.833 10.3334V6.33337Z"
      fill="#A3A8AF"
    />
  </g>
  <defs>
    <clipPath id="clip0_14314_18098">
      <rect width="20" height="20" fill="white" transform="translate(2.5 2)" />
    </clipPath>
  </defs>
</svg>
