<svg width="24" height="24" viewBox="0 0 24 24" fill="none" xmlns="http://www.w3.org/2000/svg">
  <g clip-path="url(#clip0_14380_40817)">
    <path
      d="M21.7 8.5C21.5 8.3 21.3 8.2 21 8.2H16.7L17.4 4.1C17.4 3.8 17.4 3.6 17.2 3.4C17 3.2 16.8 3 16.6 3C16.5 3 16.5 3 16.4 3C16.2 3 16 3.1 15.8 3.2C15.6 3.3 15.4 3.6 15.4 3.8L14.6 8.2H10.6L11.3 4.1C11.3 3.8 11.3 3.6 11.1 3.4C11.2 3.2 10.9 3.1 10.7 3C10.6 3 10.6 3 10.5 3C10.3 3 10.1 3.1 9.9 3.2C9.7 3.3 9.6 3.5 9.5 3.8L8.7 8.2H4.5C4.2 8.2 4 8.3 3.8 8.5C3.6 8.7 3.5 9 3.5 9.2C3.5 9.4 3.6 9.7 3.8 9.9C4 10.1 4.2 10.2 4.5 10.2H8.3L7.6 14.2H3C2.7 14.2 2.5 14.3 2.3 14.5C2.1 14.7 2 15 2 15.2C2 15.5 2.1 15.7 2.3 15.9C2.5 16.1 2.7 16.2 3 16.2H7.3L6.6 20.3C6.6 20.6 6.6 20.8 6.8 21C7 21.2 7.2 21.4 7.4 21.4C7.5 21.4 7.5 21.4 7.6 21.4C7.8 21.4 8.1 21.3 8.2 21.2C8.4 21.1 8.5 20.8 8.5 20.6L9.3 16.2H13.3L12.6 20.3C12.6 20.6 12.6 20.8 12.8 21C13 21.2 13.2 21.4 13.4 21.4C13.5 21.4 13.5 21.4 13.6 21.4C13.8 21.4 14.1 21.3 14.2 21.2C14.4 21.1 14.5 20.8 14.5 20.6L15.3 16.2H19.5C19.8 16.2 20 16.1 20.2 15.9C20.4 15.7 20.5 15.5 20.5 15.2C20.5 14.9 20.4 14.7 20.2 14.5C20 14.3 19.8 14.2 19.5 14.2H15.7L16.4 10.2H21C21.3 10.2 21.5 10.1 21.7 9.9C21.9 9.8 22 9.5 22 9.2C22 8.9 21.9 8.7 21.7 8.5ZM14.3 10.2L13.6 14.2H9.6L10.3 10.2H14.3Z"
      fill="#A2A5AC"
    />
  </g>
  <defs>
    <clipPath id="clip0_14380_40817">
      <rect width="20" height="18.5" fill="white" transform="translate(2 3)" />
    </clipPath>
  </defs>
</svg>
