<svg width="24" height="24" viewBox="0 0 24 24" fill="none" xmlns="http://www.w3.org/2000/svg">
<path d="M21.8191 12.6359L20.1233 8.90842C19.777 8.14328 19.0066 7.64697 18.164 7.64697H15.4343V6.71123C15.4343 5.77031 14.664 5.00517 13.723 5H2.71123C1.77031 5 1 5.77031 1 6.71123V10.8575C1 10.8626 1 10.8678 1 10.8678V15.5259C1 16.4668 1.77031 17.2371 2.71123 17.2371H2.90251C3.25923 18.2917 4.25702 19 5.3582 19C5.5288 19 5.70458 18.9845 5.87519 18.9483C6.79025 18.7622 7.5192 18.1056 7.81389 17.2371H14.3641C14.7208 18.2917 15.7186 19 16.8198 19C16.9904 19 17.1662 18.9845 17.3368 18.9483C18.2519 18.7622 18.9808 18.1056 19.2755 17.2371H20.3456C21.2866 17.2371 22.0569 16.4668 22.0569 15.5259V13.7112C22.0517 13.339 21.9742 12.9771 21.8191 12.6359ZM20.3973 13.7112V15.531C20.3973 15.562 20.3715 15.5827 20.3456 15.5827H19.2755C19.0945 15.0399 18.7378 14.5694 18.2467 14.2489C17.6677 13.8663 16.9749 13.7319 16.2976 13.8715C15.3826 14.0576 14.6536 14.7142 14.3589 15.5827H7.80872C7.62777 15.0399 7.27105 14.5694 6.77991 14.2489C6.20089 13.8663 5.51329 13.7319 4.83087 13.8715C3.91581 14.0576 3.18685 14.7142 2.89217 15.5827H2.70606C2.67504 15.5827 2.65436 15.5569 2.65436 15.531V6.7164C2.65436 6.68538 2.68021 6.6647 2.70606 6.6647H13.723C13.7541 6.6647 13.7747 6.69055 13.7747 6.7164V12C13.7747 12.031 13.7489 12.0517 13.723 12.0517H8.43427C8.21197 12.0517 8.00517 12.1396 7.85007 12.2999C7.69498 12.4601 7.61226 12.6669 7.61226 12.8892C7.61743 13.339 7.98449 13.7061 8.43427 13.7112H13.723C14.664 13.7112 15.4343 12.9409 15.4343 12V9.31167H18.164C18.3552 9.31167 18.5362 9.42541 18.6137 9.60118L18.7792 9.96824L20.3456 13.4527C20.3767 13.5355 20.3922 13.6233 20.3973 13.7112ZM16.8146 15.4793C17.3316 15.4793 17.7504 15.8981 17.7504 16.4151C17.7504 16.9321 17.3316 17.3508 16.8146 17.3508C16.2976 17.3508 15.8789 16.9321 15.8789 16.4151C15.8789 15.8981 16.2976 15.4793 16.8146 15.4793ZM5.35303 15.4793C5.87002 15.4793 6.28877 15.8981 6.28877 16.4151C6.28877 16.9321 5.87002 17.3508 5.35303 17.3508C4.83604 17.3508 4.41728 16.9321 4.41728 16.4151C4.42245 15.8981 4.84121 15.4793 5.35303 15.4793Z" fill="#A3A8AF"/>
</svg>
