<svg width="24" height="24" viewBox="0 0 24 24" fill="none" xmlns="http://www.w3.org/2000/svg">
<path d="M11.7515 20.1189V11.3861C12.0187 11.3346 12.2765 11.2549 12.5249 11.1471L19.1812 8.18926C19.2233 8.34863 19.2468 8.50801 19.2515 8.67207V11.0018C19.2515 11.4143 19.589 11.7518 20.0015 11.7518C20.414 11.7518 20.7515 11.4143 20.7515 11.0018V8.67207C20.7468 8.04863 20.5921 7.43457 20.2874 6.89082V6.87676C20.2874 6.86738 20.2733 6.8627 20.2687 6.85332C19.8749 6.14551 19.2655 5.58301 18.5249 5.25488L12.5249 2.5877C11.5546 2.15176 10.4437 2.15176 9.47334 2.5877L3.47803 5.2502C2.7374 5.58301 2.12803 6.14082 1.73428 6.84863C1.72959 6.85801 1.72021 6.8627 1.71553 6.87207V6.88613C1.41553 7.42988 1.25615 8.04394 1.25146 8.66738V15.3236C1.25146 16.8049 2.12334 18.1455 3.47803 18.7502L9.47803 21.4174C10.3546 21.8158 11.353 21.858 12.2577 21.5299C12.6421 21.3799 12.839 20.9486 12.689 20.5596C12.5437 20.1893 12.1312 19.9924 11.7515 20.1189ZM10.0874 3.94707C10.6687 3.68457 11.3343 3.68457 11.9155 3.94707L17.9155 6.61426C18.0796 6.69395 18.2343 6.7877 18.3702 6.90488L15.6421 8.11895L8.39053 4.70176L10.0874 3.94707ZM6.57647 5.50801L13.8327 8.92051L11.9202 9.76894C11.3343 10.0221 10.6687 10.0221 10.0874 9.76894L3.62803 6.90488C3.76865 6.79238 3.92334 6.69395 4.08271 6.61895L6.57647 5.50801ZM4.08271 17.3814C3.27178 17.0205 2.74678 16.2143 2.74678 15.3283V8.67207C2.75146 8.50801 2.7749 8.34863 2.81709 8.18926L9.47803 11.1471C9.72647 11.2549 9.98428 11.3346 10.2468 11.3861V20.1049C10.1905 20.0861 10.1343 20.0721 10.0827 20.0486L4.08271 17.3814Z" fill="#A3A8AF"/>
<path d="M17.9999 12.248C15.3749 12.248 13.2515 14.3762 13.2515 16.9965C13.2515 19.6168 15.3749 21.7496 17.9999 21.7496C20.6249 21.7496 22.7483 19.6215 22.7483 17.0012C22.7483 14.3762 20.6202 12.2527 17.9999 12.248ZM17.9999 20.2496C16.2046 20.2496 14.7515 18.7965 14.7515 17.0012C14.7515 15.2059 16.2046 13.7527 17.9999 13.7527C19.7952 13.7527 21.2483 15.2059 21.2483 17.0012C21.2483 18.7918 19.7952 20.2496 17.9999 20.2496Z" fill="#A3A8AF"/>
<path d="M19.5984 17.54C19.8984 17.826 19.9031 18.3041 19.6172 18.5994C19.3312 18.8994 18.8531 18.9041 18.5578 18.6182C18.5531 18.6135 18.5438 18.6041 18.5391 18.5994L17.4703 17.5307C17.3297 17.39 17.25 17.1979 17.25 17.001V15.501C17.25 15.0885 17.5875 14.751 18 14.751C18.4125 14.751 18.75 15.0885 18.75 15.501V16.6869L19.5984 17.54Z" fill="#A3A8AF"/>
</svg>
