<svg width="24" height="24" viewBox="0 0 24 24" fill="none" xmlns="http://www.w3.org/2000/svg">
<path d="M11.75 20.1191V11.3861C12.0158 11.3335 12.2753 11.2527 12.524 11.1451L19.179 8.18805C19.2203 8.34562 19.2441 8.50726 19.25 8.67005V11.0001C19.25 11.199 19.329 11.3897 19.4697 11.5304C19.6103 11.671 19.8011 11.7501 20 11.7501C20.1989 11.7501 20.3897 11.671 20.5303 11.5304C20.671 11.3897 20.75 11.199 20.75 11.0001V8.67005C20.7473 8.04679 20.5884 7.43414 20.288 6.88805V6.87605C20.288 6.86605 20.275 6.86005 20.27 6.85105C19.8776 6.14301 19.266 5.58153 18.527 5.25105L12.527 2.58305C12.0472 2.36801 11.5273 2.25684 11.0015 2.25684C10.4757 2.25684 9.95582 2.36801 9.476 2.58305L3.476 5.25205C2.73704 5.58253 2.12537 6.14402 1.733 6.85205C1.728 6.86105 1.719 6.86705 1.715 6.87705V6.88905C1.41381 7.43461 1.25395 8.04688 1.25 8.67005V15.3271C1.25039 16.052 1.46084 16.7613 1.85589 17.3691C2.25095 17.977 2.81367 18.4573 3.476 18.7521L9.476 21.4191C10.3534 21.8172 11.3515 21.8574 12.258 21.5311C12.4408 21.4608 12.5889 21.3218 12.6706 21.1438C12.7523 20.9657 12.7611 20.7628 12.6952 20.5784C12.6292 20.394 12.4937 20.2426 12.3176 20.1568C12.1416 20.071 11.9389 20.0574 11.753 20.1191H11.75ZM10.088 3.94705C10.3753 3.81799 10.6866 3.75127 11.0015 3.75127C11.3164 3.75127 11.6277 3.81799 11.915 3.94705L17.915 6.61605C18.0784 6.69366 18.2318 6.7907 18.372 6.90505L15.644 8.11805L8.389 4.70005L10.088 3.94705ZM6.578 5.50805L13.832 8.92205L11.92 9.77205C11.6304 9.89746 11.3181 9.96217 11.0025 9.96217C10.6869 9.96217 10.3746 9.89746 10.085 9.77205L3.628 6.90505C3.76803 6.79079 3.9215 6.69407 4.085 6.61705L6.578 5.50805ZM4.085 17.3811C3.68775 17.2044 3.35023 16.9163 3.1133 16.5518C2.87636 16.1872 2.75017 15.7618 2.75 15.3271V8.67005C2.75589 8.50726 2.7797 8.34562 2.821 8.18805L9.48 11.1471C9.72755 11.2536 9.98565 11.3337 10.25 11.3861V20.1061C10.195 20.0871 10.139 20.0741 10.085 20.0501L4.085 17.3811ZM18 12.2501C17.0605 12.2501 16.1422 12.5286 15.361 13.0506C14.5799 13.5725 13.9711 14.3144 13.6116 15.1823C13.2521 16.0503 13.158 17.0053 13.3413 17.9267C13.5245 18.8481 13.9769 19.6945 14.6412 20.3588C15.3055 21.0231 16.1519 21.4755 17.0733 21.6588C17.9947 21.8421 18.9498 21.748 19.8177 21.3885C20.6857 21.029 21.4275 20.4201 21.9495 19.639C22.4714 18.8579 22.75 17.9395 22.75 17.0001C22.7487 15.7406 22.2478 14.5331 21.3574 13.6424C20.4669 12.7517 19.2595 12.2506 18 12.2491V12.2501ZM18 20.2501C17.3572 20.2501 16.7289 20.0594 16.1944 19.7023C15.6599 19.3452 15.2434 18.8376 14.9974 18.2438C14.7514 17.6499 14.687 16.9964 14.8124 16.366C14.9378 15.7356 15.2474 15.1565 15.7019 14.702C16.1564 14.2474 16.7355 13.9379 17.366 13.8125C17.9964 13.6871 18.6499 13.7515 19.2437 13.9974C19.8376 14.2434 20.3452 14.66 20.7023 15.1944C21.0594 15.7289 21.25 16.3573 21.25 17.0001C21.2487 17.8615 20.9058 18.6873 20.2966 19.2963C19.6873 19.9054 18.8615 20.249 18 20.2501Z" fill="#A3A8AF"/>
<path d="M17.2026 15.4271L16.4141 16.2157L17.2026 17.0043" stroke="#A3A8AF" stroke-miterlimit="10" stroke-linecap="round" stroke-linejoin="round"/>
<path d="M17.2024 16.2157H18.3852C19.0385 16.2157 19.5681 16.7453 19.5681 17.3986C19.5681 18.0518 19.0385 18.5814 18.3852 18.5814" stroke="#A3A8AF" stroke-miterlimit="10" stroke-linecap="round" stroke-linejoin="round"/>
</svg>
