<svg width="32" height="32" viewBox="0 0 32 32" fill="none" xmlns="http://www.w3.org/2000/svg">
<path fill-rule="evenodd" clip-rule="evenodd" d="M22.0862 5.02191L25.004 10.2454L15.4097 10.2677L14.8306 4.02235L20.349 4C21.076 4 21.7339 4.39706 22.0862 5.02191ZM7.60926 4.04699L13.1276 4.02464L12.5719 10.27L3 10.2924L5.88371 5.0689C6.22435 4.44405 6.89392 4.04699 7.60926 4.04699Z" fill="white"/>
<path d="M24 19C21.2727 19 18.9436 20.6964 18 23.0909C18.9436 25.4855 21.2727 27.1818 24 27.1818C26.7273 27.1818 29.0564 25.4855 30 23.0909C29.0564 20.6964 26.7273 19 24 19ZM24 25.8182C22.4945 25.8182 21.2727 24.5964 21.2727 23.0909C21.2727 21.5855 22.4945 20.3636 24 20.3636C25.5055 20.3636 26.7273 21.5855 26.7273 23.0909C26.7273 24.5964 25.5055 25.8182 24 25.8182ZM24 21.4545C23.0945 21.4545 22.3636 22.1855 22.3636 23.0909C22.3636 23.9964 23.0945 24.7273 24 24.7273C24.9055 24.7273 25.6364 23.9964 25.6364 23.0909C25.6364 22.1855 24.9055 21.4545 24 21.4545Z" fill="white"/>
<path fill-rule="evenodd" clip-rule="evenodd" d="M25.0091 12.1819H3V24.4231C3 25.5276 3.89543 26.4231 5 26.4231H17.6986C17.0202 25.6713 16.4742 24.798 16.097 23.8408C15.9071 23.3589 15.9071 22.8229 16.097 22.341C17.337 19.1942 20.4013 16.9545 24 16.9545C24.3415 16.9545 24.6783 16.9747 25.0091 17.0139V12.1819ZM20.966 26.4231C19.8336 25.8166 18.9032 24.8814 18.3011 23.7451C18.9032 24.8814 19.8335 25.8166 20.9659 26.4231H20.966Z" fill="white"/>
</svg>
