<svg width="24" height="24" viewBox="0 0 24 24" fill="none" xmlns="http://www.w3.org/2000/svg">
  <path
    fill-rule="evenodd"
    clip-rule="evenodd"
    d="M15.2 1.6L19 5.2C19.5 5.7 19.7 6.3 19.7 7V13.15C19.7 13.6194 19.3194 14 18.85 14C18.3806 14 18 13.6194 18 13.15V7.4H14.7C13.8 7.4 13.1 6.7 13.1 5.8V2.7H6.4C6 2.7 5.7 3 5.7 3.4V19.1C5.7 19.5 6 19.8 6.4 19.8H11.15C11.6194 19.8 12 20.1806 12 20.65C12 21.1194 11.6194 21.5 11.15 21.5H6.4C5.1 21.5 4 20.4 4 19.1V3.4C4 2.1 5.1 1 6.4 1H13.6C14.2 1 14.8 1.2 15.2 1.6ZM14.8 3.6V5.7H17L14.8 3.6Z"
    fill="#A2A5AC"
  />
  <path
    fill-rule="evenodd"
    clip-rule="evenodd"
    d="M18.0492 21.2879C18.1664 21.405 18.3563 21.405 18.4735 21.2879L19.2879 20.4735C19.405 20.3563 19.405 20.1664 19.2879 20.0492L15.9897 16.751L17.3405 16.7483C17.506 16.7479 17.6399 16.6137 17.6399 16.4483L17.6399 15.3C17.6399 15.1343 17.5056 15 17.3399 15H13.3C13.1343 15 13 15.1343 13 15.3V19.3399C13 19.5056 13.1343 19.6399 13.3 19.6399H14.4483C14.6137 19.6399 14.7479 19.506 14.7483 19.3405L14.751 17.9897L18.0492 21.2879Z"
    fill="#A3A8AF"
  />
</svg>
