<svg width="24" height="24" viewBox="0 0 24 24" fill="none" xmlns="http://www.w3.org/2000/svg">
<path d="M20.8947 7.31883C20.896 6.98492 20.831 6.65409 20.7032 6.34557C20.5755 6.03705 20.3877 5.75702 20.1508 5.52177L18.8024 4.17247C18.5666 3.93609 18.2865 3.74856 17.9781 3.6206C17.6698 3.49264 17.3392 3.42677 17.0053 3.42677C16.6715 3.42677 16.3409 3.49264 16.0325 3.6206C15.7241 3.74856 15.444 3.93609 15.2083 4.17247L3.80568 15.6313C3.74145 15.6954 3.69053 15.7715 3.65584 15.8553C3.62115 15.9391 3.60337 16.0289 3.60355 16.1196L3.24999 20.381C3.24999 20.5646 3.32292 20.7406 3.45274 20.8705C3.58256 21.0003 3.75863 21.0732 3.94223 21.0732L8.20361 20.7197C8.3865 20.7194 8.56193 20.6471 8.69187 20.5184L20.1471 9.11496C20.3845 8.88006 20.5729 8.60031 20.7012 8.29196C20.8296 7.98361 20.8953 7.65282 20.8947 7.31883ZM7.91748 19.3352L4.63447 19.6887L4.98803 16.4057L13.2885 8.06655L16.2567 11.0348L7.91748 19.3352ZM19.1705 8.13382L17.2378 10.0592L14.264 7.08541L16.1885 5.15268C16.2953 5.0447 16.4225 4.95905 16.5628 4.90074C16.703 4.84242 16.8534 4.8126 17.0053 4.81302C17.157 4.81257 17.3074 4.84219 17.4476 4.90017C17.5878 4.95815 17.7151 5.04335 17.8222 5.15083L19.1715 6.50014C19.2788 6.60737 19.364 6.73471 19.422 6.87487C19.4801 7.01503 19.51 7.16526 19.51 7.31698C19.51 7.4687 19.4801 7.61894 19.422 7.7591C19.364 7.89926 19.2779 8.02659 19.1705 8.13382ZM21.2482 20.381C21.2482 20.5646 21.1753 20.7406 21.0455 20.8705C20.9157 21.0003 20.7396 21.0732 20.556 21.0732H13.0951C12.9115 21.0732 12.7354 21.0003 12.6056 20.8705C12.4758 20.7406 12.4028 20.5646 12.4028 20.381C12.4028 20.1974 12.4758 20.0213 12.6056 19.8915C12.7354 19.7617 12.9115 19.6887 13.0951 19.6887H20.556C20.7396 19.6887 20.9157 19.7617 21.0455 19.8915C21.1753 20.0213 21.2482 20.1974 21.2482 20.381Z" fill="#A3A8AF"/>
</svg>
