<svg xmlns="http://www.w3.org/2000/svg" width="24" height="24" viewBox="0 0 24 24" fill="none">
  <path
    d="M17.2051 15.2304C16.5517 14.5853 15.736 14.5853 15.0867 15.2304C14.5915 15.7215 14.0962 16.2126 13.6093 16.712C13.4761 16.8493 13.3637 16.8785 13.2014 16.7869C12.881 16.6121 12.5397 16.4706 12.2317 16.2792C10.7959 15.3761 9.59315 14.2149 8.52773 12.9081C7.99918 12.2589 7.52889 11.5638 7.20011 10.7814C7.13352 10.6233 7.146 10.5192 7.27502 10.3902C7.77028 9.91161 8.25305 9.42052 8.73998 8.92942C9.41835 8.24689 9.41835 7.44782 8.73582 6.76112C8.34877 6.36991 7.96172 5.98703 7.57467 5.59582C7.17514 5.19628 6.77977 4.79259 6.37607 4.39721C5.72267 3.76046 4.90695 3.76046 4.25771 4.40138C3.75829 4.89247 3.27968 5.39605 2.77194 5.87882C2.30166 6.32413 2.06444 6.86933 2.01449 7.50609C1.93542 8.54238 2.18929 9.5204 2.54721 10.4735C3.27968 12.4462 4.39505 14.1983 5.74764 15.8047C7.57467 17.9772 9.75546 19.696 12.3066 20.9362C13.4553 21.4939 14.6456 21.9226 15.9399 21.9933C16.8305 22.0433 17.6046 21.8185 18.2247 21.1235C18.6492 20.6491 19.1279 20.2162 19.5773 19.7626C20.2432 19.0884 20.2474 18.2727 19.5857 17.6068C18.7949 16.8119 18 16.0211 17.2051 15.2304Z"
    fill="white"
  />
  <path
    d="M16.4101 11.9135L17.9458 11.6513C17.7044 10.2404 17.0385 8.96273 16.0272 7.94725C14.9576 6.87766 13.605 6.20345 12.1151 5.99536L11.8987 7.53939C13.0515 7.7017 14.1003 8.22193 14.9285 9.05013C15.7109 9.83255 16.2228 10.8231 16.4101 11.9135Z"
    fill="white"
  />
  <path
    d="M18.8116 5.23789C17.0387 3.46496 14.7955 2.34543 12.3192 2L12.1028 3.54403C14.242 3.84368 16.1814 4.81338 17.7129 6.34077C19.1654 7.79324 20.1184 9.6286 20.4639 11.6471L21.9996 11.3849C21.5959 9.04594 20.493 6.92342 18.8116 5.23789Z"
    fill="white"
  />
</svg>
