<svg xmlns="http://www.w3.org/2000/svg" width="24" height="24" viewBox="0 0 24 24" fill="none">
  <path
    d="M19.374 3.74416L2.59846 8.46902C2.45566 8.50807 2.32837 8.59018 2.23392 8.70418C2.13947 8.81818 2.08246 8.95853 2.07065 9.1061C2.05885 9.25367 2.09282 9.40129 2.16794 9.52886C2.24307 9.65643 2.35569 9.75774 2.49047 9.81898L10.1942 13.4639C10.3451 13.5338 10.4663 13.655 10.5362 13.8059L14.1811 21.5096C14.2424 21.6444 14.3437 21.757 14.4712 21.8322C14.5988 21.9073 14.7464 21.9413 14.894 21.9295C15.0416 21.9176 15.1819 21.8606 15.2959 21.7662C15.4099 21.6717 15.492 21.5444 15.5311 21.4016L20.2559 4.62614C20.2917 4.50372 20.294 4.37393 20.2624 4.25036C20.2307 4.12679 20.1665 4.01401 20.0763 3.92382C19.9861 3.83363 19.8733 3.76936 19.7497 3.73775C19.6262 3.70615 19.4964 3.70836 19.374 3.74416V3.74416Z"
    stroke="#A3A8AF"
    stroke-width="2"
    stroke-linecap="round"
    stroke-linejoin="round"
  />
  <path
    d="M10.428 13.572L14.4959 9.50415"
    stroke="#A3A8AF"
    stroke-width="2"
    stroke-linecap="round"
    stroke-linejoin="round"
  />
</svg>
