<svg width="24" height="24" viewBox="0 0 20 20" fill="none" xmlns="http://www.w3.org/2000/svg">
  <rect width="20" height="20" rx="4" style="fill: #0176fc"></rect>
  <path
    d="M7.08352 4.16675C5.46329 4.16675 5.21541 4.69862 4.94783 5.48821L4.27397 7.47944C3.98998 8.31829 4.27725 9.28846 5.05125 9.73579C5.34263 9.90405 5.68244 10.0001 6.04605 10.0001C6.90787 10.0001 7.75657 9.46246 8.02661 8.70406C8.29008 9.46246 9.13877 10.0001 10.0006 10.0001C10.8624 10.0001 11.7111 9.46246 11.9746 8.70406C12.2446 9.46246 13.0933 10.0001 13.9552 10.0001C14.3196 10.0001 14.6586 9.90405 14.9499 9.73579C15.7239 9.28846 16.0104 8.31829 15.7272 7.47944L15.0534 5.48821C14.7858 4.69862 14.5379 4.16675 12.9177 4.16675H7.08352Z"
    style="fill: url(#paint0_linear_21852_5689)"
  ></path>
  <path
    d="M15.1846 10.7001V13.8889C15.1846 15.1849 14.5362 15.8333 13.2402 15.8333H11.5099C11.4024 15.8333 11.3154 15.7463 11.3154 15.6388V13.6435C11.3154 12.9975 10.8779 12.3942 10.2402 12.2867C9.43089 12.1505 8.72255 12.7792 8.72255 13.5647V15.6388C8.72255 15.7463 8.63555 15.8333 8.52803 15.8333H6.75841C5.46239 15.8333 4.81396 15.1849 4.81396 13.8889V10.7001C5.19645 10.8815 5.61752 10.9726 6.04515 10.9726C6.78385 10.9726 7.49055 10.7133 8.03473 10.2856C8.57891 10.7133 9.27905 10.9726 9.99888 10.9726C10.7187 10.9726 11.4246 10.7133 11.9696 10.2856C12.5138 10.7133 13.2205 10.9726 13.9592 10.9726C14.3802 10.9726 14.8021 10.8815 15.1838 10.7001H15.1846Z"
    style="fill: url(#paint1_linear_21852_5689)"
  ></path>
  <defs>
    <linearGradient
      id="paint0_linear_21852_5689"
      x1="7.86081"
      y1="12.4116"
      x2="11.4509"
      y2="4.71914"
      gradientUnits="userSpaceOnUse"
    >
      <stop style="stop-color: #e6f8ff"></stop>
      <stop offset="0.98" style="stop-color: white"></stop>
    </linearGradient>
    <linearGradient
      id="paint1_linear_21852_5689"
      x1="8.27604"
      y1="16.6615"
      x2="11.3532"
      y2="9.3795"
      gradientUnits="userSpaceOnUse"
    >
      <stop style="stop-color: #e6f8ff"></stop>
      <stop offset="0.98" style="stop-color: white"></stop>
    </linearGradient>
  </defs>
</svg>
