<svg width="32" height="32" viewBox="0 0 32 32" fill="none" xmlns="http://www.w3.org/2000/svg">
<path d="M23.15 21.5249C20.491 21.5249 18.2201 23.1789 17.3 25.5135C18.2201 27.8482 20.491 29.5022 23.15 29.5022C25.8091 29.5022 28.08 27.8482 29 25.5135C28.08 23.1789 25.8091 21.5249 23.15 21.5249ZM23.15 28.1726C21.6822 28.1726 20.491 26.9814 20.491 25.5135C20.491 24.0457 21.6822 22.8544 23.15 22.8544C24.6179 22.8544 25.8091 24.0457 25.8091 25.5135C25.8091 26.9814 24.6179 28.1726 23.15 28.1726ZM23.15 23.9181C22.2672 23.9181 21.5546 24.6307 21.5546 25.5135C21.5546 26.3964 22.2672 27.109 23.15 27.109C24.0329 27.109 24.7455 26.3964 24.7455 25.5135C24.7455 24.6307 24.0329 23.9181 23.15 23.9181Z" fill="white"/>
<path fill-rule="evenodd" clip-rule="evenodd" d="M3 5.67857C3 4.19924 4.19924 3 5.67857 3H21.3884C22.8677 3 24.067 4.19924 24.067 5.67857V19.6255C23.766 19.5921 23.46 19.575 23.15 19.575C19.6601 19.575 16.6884 21.7469 15.4858 24.7987C15.3047 25.2581 15.3047 25.7691 15.4858 26.2286C15.8972 27.2726 16.5157 28.2137 17.2911 29H5.67857C4.19924 29 3 27.8008 3 26.3214V5.67857ZM24.067 21.5915C23.7677 21.5477 23.4615 21.525 23.15 21.525C22.5287 21.525 21.9286 21.6153 21.362 21.7835C21.9286 21.6153 22.5286 21.525 23.1499 21.525C23.4614 21.525 23.7676 21.5478 24.067 21.5916V21.5915ZM20.6863 29H20.6862C20.048 28.7273 19.4642 28.3518 18.9552 27.8944C19.4642 28.3518 20.0481 28.7273 20.6863 29ZM6.71401 9.15179C6.71401 8.44664 7.28565 7.875 7.9908 7.875H12.9238C13.629 7.875 14.2006 8.44664 14.2006 9.15179C14.2006 9.85694 13.629 10.4286 12.9238 10.4286H7.9908C7.28565 10.4286 6.71401 9.85694 6.71401 9.15179ZM7.9908 12.8662C7.28565 12.8662 6.71401 13.4378 6.71401 14.1429C6.71401 14.8481 7.28565 15.4197 7.9908 15.4197H19.0756C19.7808 15.4197 20.3524 14.8481 20.3524 14.1429C20.3524 13.4378 19.7808 12.8662 19.0756 12.8662H7.9908ZM6.71401 19.1338C6.71401 18.4286 7.28565 17.857 7.9908 17.857H14.2006C14.9058 17.857 15.4774 18.4286 15.4774 19.1338C15.4774 19.8389 14.9058 20.4106 14.2006 20.4106H7.9908C7.28565 20.4106 6.71401 19.8389 6.71401 19.1338Z" fill="white"/>
</svg>
