<svg width="51" height="36" viewBox="0 0 51 36" fill="none" xmlns="http://www.w3.org/2000/svg">
<path d="M51.7574 14.616C52.234 14.616 52.624 14.226 52.624 13.7493V4.2164C52.624 2.30115 51.0728 0.749878 49.1575 0.749878H39.6246C39.6268 1.8466 39.623 4.81438 39.6246 5.94966C39.6246 6.42631 39.2346 6.81629 38.7579 6.81629C38.2813 6.81629 37.8913 6.42631 37.8913 5.94966C37.894 4.80242 37.8894 1.85934 37.8913 0.749878H1.49282C1.15483 0.749878 0.851514 0.949203 0.704187 1.25252C0.565526 1.55584 0.608857 1.91983 0.825515 2.17124L3.82406 5.73309L0.825515 9.30361C0.55686 9.62426 0.55686 10.0922 0.825515 10.4129L3.82406 13.9747L0.825515 17.5366C0.55686 17.8573 0.55686 18.3252 0.825515 18.6459L3.82406 22.2077L0.834181 25.7609C0.556946 26.0816 0.556946 26.5496 0.825602 26.8702L3.82414 30.4321L0.825602 33.9939C0.348608 34.5215 0.783137 35.4383 1.49291 35.4152C1.49282 35.4153 37.8913 35.4153 37.8913 35.4153C37.889 34.3186 37.8929 31.3508 37.8913 30.2154C37.8913 29.7388 38.2813 29.3489 38.7579 29.3489C39.2346 29.3489 39.6246 29.7388 39.6246 30.2155C39.6219 31.3627 39.6266 34.3057 39.6246 35.4153H49.1575C51.0728 35.4153 52.624 33.864 52.624 31.9487V22.4158C52.624 21.9392 52.234 21.5492 51.7574 21.5492C47.1759 21.4107 47.1764 14.7544 51.7574 14.616ZM12.759 13.1166C12.9196 8.22275 20.011 8.23263 20.1687 13.1167C20.0128 18.0139 12.9164 18.0216 12.759 13.1166ZM14.3104 23.9669L27.3098 10.9675C28.1135 10.1733 29.3426 11.3845 28.5404 12.1981C28.5404 12.198 15.541 25.1974 15.541 25.1974C14.7313 25.9849 13.5106 24.7808 14.3104 23.9669ZM26.3911 26.7488C21.4851 26.5907 21.4951 19.4943 26.3912 19.3391C31.2762 19.4975 31.2839 26.5889 26.3911 26.7488ZM39.6246 25.0155C39.6246 25.4922 39.2346 25.8822 38.7579 25.8822C38.2813 25.8822 37.8913 25.4922 37.8913 25.0155V20.6824C37.8913 20.2057 38.2813 19.8158 38.7579 19.8158C39.2346 19.8158 39.6246 20.2057 39.6246 20.6824V25.0155ZM39.6246 15.4826C39.6246 15.9592 39.2346 16.3492 38.7579 16.3492C38.2813 16.3492 37.8913 15.9592 37.8913 15.4826V11.1494C37.8913 10.6728 38.2813 10.2828 38.7579 10.2828C39.2346 10.2828 39.6246 10.6728 39.6246 11.1494V15.4826Z" fill="#0088FF"/>
</svg>
