<svg width="24" height="24" viewBox="0 0 24 24" fill="none" xmlns="http://www.w3.org/2000/svg">
<path d="M12 21.749C11.7046 21.7496 11.4119 21.6918 11.1389 21.5788C10.8658 21.4659 10.6178 21.3001 10.409 21.091L8.39004 19.072C8.26194 18.9447 8.09249 18.8675 7.91236 18.8542C7.73224 18.841 7.55333 18.8928 7.40804 19L6.05004 20.021C5.79004 20.216 5.48088 20.3348 5.1572 20.364C4.83351 20.3932 4.5081 20.3316 4.21741 20.1863C3.92673 20.0409 3.68226 19.8175 3.5114 19.5411C3.34054 19.2646 3.25004 18.946 3.25004 18.621V6.00004C3.19131 5.49338 3.24791 4.98 3.4156 4.4983C3.5833 4.0166 3.85774 3.57906 4.2184 3.2184C4.57906 2.85774 5.0166 2.5833 5.4983 2.4156C5.98 2.24791 6.49338 2.19131 7.00004 2.25004H17C17.5067 2.19131 18.0201 2.24791 18.5018 2.4156C18.9835 2.5833 19.421 2.85774 19.7817 3.2184C20.1423 3.57906 20.4168 4.0166 20.5845 4.4983C20.7522 4.98 20.8088 5.49338 20.75 6.00004V18.621C20.75 18.946 20.6595 19.2646 20.4887 19.5411C20.3178 19.8175 20.0733 20.0409 19.7827 20.1863C19.492 20.3316 19.1666 20.3932 18.8429 20.364C18.5192 20.3348 18.21 20.216 17.95 20.021L16.591 19C16.4462 18.8924 16.2676 18.8402 16.0876 18.8531C15.9075 18.8659 15.7381 18.9429 15.61 19.07L13.591 21.089C13.3824 21.2985 13.1345 21.4647 12.8614 21.5779C12.5884 21.6912 12.2956 21.7493 12 21.749ZM7.85604 17.356C8.15176 17.355 8.44479 17.4122 8.71833 17.5246C8.99186 17.637 9.24052 17.8023 9.45004 18.011L11.47 20.03C11.6129 20.1662 11.8027 20.2422 12 20.2422C12.1974 20.2422 12.3872 20.1662 12.53 20.03L14.55 18.011C14.934 17.6302 15.4418 17.3997 15.9813 17.3613C16.5207 17.323 17.056 17.4793 17.49 17.802L18.851 18.821C18.8873 18.8504 18.9314 18.8683 18.9779 18.8726C19.0244 18.8769 19.071 18.8673 19.112 18.845C19.1543 18.8251 19.1898 18.7933 19.2143 18.7535C19.2388 18.7138 19.2512 18.6677 19.25 18.621V6.00004C19.25 4.42304 18.577 3.75004 17 3.75004H7.00004C5.42304 3.75004 4.75004 4.42304 4.75004 6.00004V18.621C4.74886 18.6677 4.76127 18.7138 4.78577 18.7535C4.81027 18.7933 4.8458 18.8251 4.88804 18.845C4.92904 18.8673 4.97572 18.8769 5.02217 18.8726C5.06863 18.8683 5.11278 18.8504 5.14904 18.821L6.50904 17.8C6.89819 17.5102 7.37083 17.3544 7.85604 17.356ZM16.75 9.00004C16.75 8.80112 16.671 8.61036 16.5304 8.46971C16.3897 8.32905 16.1989 8.25004 16 8.25004H11C10.8011 8.25004 10.6104 8.32905 10.4697 8.46971C10.3291 8.61036 10.25 8.80112 10.25 9.00004C10.25 9.19895 10.3291 9.38971 10.4697 9.53037C10.6104 9.67102 10.8011 9.75004 11 9.75004H16C16.1989 9.75004 16.3897 9.67102 16.5304 9.53037C16.671 9.38971 16.75 9.19895 16.75 9.00004ZM16.75 13C16.75 12.8011 16.671 12.6104 16.5304 12.4697C16.3897 12.3291 16.1989 12.25 16 12.25H11C10.8011 12.25 10.6104 12.3291 10.4697 12.4697C10.3291 12.6104 10.25 12.8011 10.25 13C10.25 13.1989 10.3291 13.3897 10.4697 13.5304C10.6104 13.671 10.8011 13.75 11 13.75H16C16.1989 13.75 16.3897 13.671 16.5304 13.5304C16.671 13.3897 16.75 13.1989 16.75 13ZM8.00004 8.25004C7.8517 8.25004 7.7067 8.29402 7.58336 8.37643C7.46002 8.45885 7.36389 8.57598 7.30713 8.71302C7.25036 8.85007 7.23551 9.00087 7.26445 9.14635C7.29339 9.29184 7.36482 9.42548 7.46971 9.53037C7.5746 9.63526 7.70823 9.70669 7.85372 9.73563C7.9992 9.76456 8.15 9.74971 8.28705 9.69295C8.42409 9.63618 8.54123 9.54005 8.62364 9.41671C8.70605 9.29338 8.75004 9.14837 8.75004 9.00004C8.75004 8.80112 8.67102 8.61036 8.53037 8.46971C8.38971 8.32905 8.19895 8.25004 8.00004 8.25004ZM8.00004 12.25C7.8517 12.25 7.7067 12.294 7.58336 12.3764C7.46002 12.4588 7.36389 12.576 7.30713 12.713C7.25036 12.8501 7.23551 13.0009 7.26445 13.1464C7.29339 13.2918 7.36482 13.4255 7.46971 13.5304C7.5746 13.6353 7.70823 13.7067 7.85372 13.7356C7.9992 13.7646 8.15 13.7497 8.28705 13.6929C8.42409 13.6362 8.54123 13.5401 8.62364 13.4167C8.70605 13.2934 8.75004 13.1484 8.75004 13C8.75004 12.8011 8.67102 12.6104 8.53037 12.4697C8.38971 12.3291 8.19895 12.25 8.00004 12.25Z" fill="white"/>
</svg>
