<svg width="24" height="25" viewBox="0 0 24 25" fill="none" xmlns="http://www.w3.org/2000/svg">
<g clip-path="url(#clip0_267_229)">
<path d="M11.7725 22.5215C11.477 22.5221 11.1844 22.4642 10.9113 22.3513C10.6383 22.2384 10.3903 22.0726 10.1815 21.8635L8.1625 19.8445C8.0344 19.7172 7.86495 19.6399 7.68483 19.6267C7.5047 19.6135 7.3258 19.6652 7.1805 19.7725L5.8225 20.7935C5.5625 20.9885 5.25334 21.1072 4.92966 21.1364C4.60597 21.1656 4.28056 21.1041 3.98987 20.9587C3.69919 20.8134 3.45472 20.59 3.28386 20.3135C3.113 20.0371 3.0225 19.7185 3.0225 19.3935V6.7725C2.96377 6.26584 3.02037 5.75246 3.18807 5.27076C3.35576 4.78906 3.6302 4.35152 3.99086 3.99086C4.35152 3.6302 4.78906 3.35576 5.27076 3.18807C5.75246 3.02037 6.26584 2.96377 6.7725 3.0225H16.7725C17.2792 2.96377 17.7925 3.02037 18.2742 3.18807C18.7559 3.35576 19.1935 3.6302 19.5541 3.99086C19.9148 4.35152 20.1892 4.78906 20.3569 5.27076C20.5246 5.75246 20.5812 6.26584 20.5225 6.7725V19.3935C20.5225 19.7185 20.432 20.0371 20.2611 20.3135C20.0903 20.59 19.8458 20.8134 19.5551 20.9587C19.2644 21.1041 18.939 21.1656 18.6153 21.1364C18.2917 21.1072 17.9825 20.9885 17.7225 20.7935L16.3635 19.7725C16.2187 19.6648 16.04 19.6127 15.86 19.6255C15.68 19.6384 15.5106 19.7154 15.3825 19.8425L13.3635 21.8615C13.1549 22.071 12.907 22.2371 12.6339 22.3504C12.3609 22.4637 12.0681 22.5218 11.7725 22.5215ZM7.6285 18.1285C7.92422 18.1274 8.21725 18.1847 8.49079 18.2971C8.76432 18.4095 9.01298 18.5748 9.2225 18.7835L11.2425 20.8025C11.3853 20.9387 11.5751 21.0147 11.7725 21.0147C11.9699 21.0147 12.1597 20.9387 12.3025 20.8025L14.3225 18.7835C14.7065 18.4027 15.2143 18.1721 15.7537 18.1338C16.2932 18.0954 16.8285 18.2518 17.2625 18.5745L18.6235 19.5935C18.6598 19.6228 18.7039 19.6408 18.7504 19.6451C18.7968 19.6493 18.8435 19.6397 18.8845 19.6175C18.9267 19.5975 18.9623 19.5658 18.9868 19.526C19.0113 19.4862 19.0237 19.4402 19.0225 19.3935V6.7725C19.0225 5.1955 18.3495 4.5225 16.7725 4.5225H6.7725C5.1955 4.5225 4.5225 5.1955 4.5225 6.7725V19.3935C4.52132 19.4402 4.53373 19.4862 4.55823 19.526C4.58273 19.5658 4.61826 19.5975 4.6605 19.6175C4.7015 19.6397 4.74818 19.6493 4.79464 19.6451C4.84109 19.6408 4.88524 19.6228 4.9215 19.5935L6.2815 18.5725C6.67066 18.2827 7.14329 18.1269 7.6285 18.1285ZM16.5225 9.7725C16.5225 9.57359 16.4435 9.38282 16.3028 9.24217C16.1622 9.10152 15.9714 9.0225 15.7725 9.0225H7.7725C7.57359 9.0225 7.38282 9.10152 7.24217 9.24217C7.10151 9.38282 7.0225 9.57359 7.0225 9.7725C7.0225 9.97141 7.10151 10.1622 7.24217 10.3028C7.38282 10.4435 7.57359 10.5225 7.7725 10.5225H15.7725C15.9714 10.5225 16.1622 10.4435 16.3028 10.3028C16.4435 10.1622 16.5225 9.97141 16.5225 9.7725ZM13.5225 13.7725C13.5225 13.5736 13.4435 13.3828 13.3028 13.2422C13.1622 13.1015 12.9714 13.0225 12.7725 13.0225H7.7725C7.57359 13.0225 7.38282 13.1015 7.24217 13.2422C7.10151 13.3828 7.0225 13.5736 7.0225 13.7725C7.0225 13.9714 7.10151 14.1622 7.24217 14.3028C7.38282 14.4435 7.57359 14.5225 7.7725 14.5225H12.7725C12.9714 14.5225 13.1622 14.4435 13.3028 14.3028C13.4435 14.1622 13.5225 13.9714 13.5225 13.7725Z" fill="#A3A8AF"/>
</g>
<defs>
<clipPath id="clip0_267_229">
<rect width="24" height="24" fill="white" transform="translate(0 0.5)"/>
</clipPath>
</defs>
</svg>
