<svg width="24" height="24" viewBox="0 0 24 24" fill="none" xmlns="http://www.w3.org/2000/svg">
  <path d="M9.63773 11.5029L1.20023 3.06541C0.99975 2.86422 0.699 2.80516 0.433922 2.91297C0.170953 3.02144 0 3.27827 0 3.56252V20.4375C0 20.7218 0.170953 20.9786 0.433969 21.0871C0.521156 21.1235 0.612469 21.1406 0.703125 21.1406C0.88575 21.1406 1.06566 21.0693 1.20023 20.9346L9.63773 12.4971C9.91237 12.2225 9.91237 11.7775 9.63773 11.5029ZM1.40625 18.7401V5.25991L8.14636 12L1.40625 18.7401Z" fill="#A3A8AF"/>
  <path d="M23.566 2.91309C23.3024 2.80391 23.0016 2.86434 22.7997 3.06552L14.3622 11.503C14.0876 11.7777 14.0876 12.2226 14.3622 12.4973L22.7997 20.9348C22.9344 21.0694 23.1143 21.1408 23.2969 21.1408C23.3875 21.1408 23.4789 21.1236 23.566 21.0872C23.829 20.9787 24 20.7219 24 20.4376V3.56263C24 3.27838 23.8291 3.02155 23.566 2.91309Z" fill="#A3A8AF"/>
  <path d="M12.0469 18.3281C11.6582 18.3281 11.3438 18.6426 11.3438 19.0312V21.8438C11.3438 22.2324 11.6582 22.5469 12.0469 22.5469C12.4355 22.5469 12.75 22.2324 12.75 21.8438V19.0312C12.75 18.6426 12.4355 18.3281 12.0469 18.3281Z" fill="#A3A8AF"/>
  <path d="M12.0469 12.7031C11.6582 12.7031 11.3438 13.0176 11.3438 13.4062V16.2188C11.3438 16.6074 11.6582 16.9219 12.0469 16.9219C12.4355 16.9219 12.75 16.6074 12.75 16.2188V13.4062C12.75 13.0176 12.4355 12.7031 12.0469 12.7031Z" fill="#A3A8AF"/>
  <path d="M12.0469 7.07812C11.6582 7.07812 11.3438 7.39261 11.3438 7.78125V10.5938C11.3438 10.9824 11.6582 11.2969 12.0469 11.2969C12.4355 11.2969 12.75 10.9824 12.75 10.5938V7.78125C12.75 7.39261 12.4355 7.07812 12.0469 7.07812Z" fill="#A3A8AF"/>
  <path d="M12.0469 1.45312C11.6582 1.45312 11.3438 1.76761 11.3438 2.15625V4.96875C11.3438 5.35739 11.6582 5.67188 12.0469 5.67188C12.4355 5.67188 12.75 5.35739 12.75 4.96875V2.15625C12.75 1.76761 12.4355 1.45312 12.0469 1.45312Z" fill="#A3A8AF"/>
</svg>
