<svg width="24" height="24" viewBox="0 0 24 24" fill="none" xmlns="http://www.w3.org/2000/svg">
  <path d="M11.5029 9.63773L3.06541 1.20023C2.86422 0.99975 2.80516 0.699 2.91297 0.433922C3.02144 0.170953 3.27827 0 3.56252 0L20.4375 0C20.7218 0 20.9786 0.170953 21.0871 0.433969C21.1235 0.521156 21.1406 0.612469 21.1406 0.703125C21.1406 0.88575 21.0693 1.06566 20.9346 1.20023L12.4971 9.63773C12.2225 9.91237 11.7775 9.91237 11.5029 9.63773ZM18.7401 1.40625L5.25991 1.40625L12 8.14636L18.7401 1.40625Z" fill="#A3A8AF"/>
  <path d="M2.91296 23.566C2.80379 23.3024 2.86421 23.0016 3.0654 22.7997L11.5029 14.3622C11.7775 14.0876 12.2225 14.0876 12.4972 14.3622L20.9347 22.7997C21.0692 22.9344 21.1406 23.1143 21.1406 23.2969C21.1406 23.3875 21.1235 23.4789 21.0871 23.566C20.9786 23.829 20.7218 24 20.4375 24H3.56251C3.27826 24 3.02143 23.8291 2.91296 23.566Z" fill="#A3A8AF"/>
  <path d="M18.3281 12.0469C18.3281 11.6582 18.6426 11.3438 19.0312 11.3438H21.8438C22.2324 11.3438 22.5469 11.6582 22.5469 12.0469C22.5469 12.4355 22.2324 12.75 21.8438 12.75H19.0312C18.6426 12.75 18.3281 12.4355 18.3281 12.0469Z" fill="#A3A8AF"/>
  <path d="M12.7031 12.0469C12.7031 11.6582 13.0176 11.3438 13.4062 11.3438H16.2188C16.6074 11.3438 16.9219 11.6582 16.9219 12.0469C16.9219 12.4355 16.6074 12.75 16.2188 12.75H13.4062C13.0176 12.75 12.7031 12.4355 12.7031 12.0469Z" fill="#A3A8AF"/>
  <path d="M7.07812 12.0469C7.07812 11.6582 7.39261 11.3438 7.78125 11.3438H10.5938C10.9824 11.3438 11.2969 11.6582 11.2969 12.0469C11.2969 12.4355 10.9824 12.75 10.5938 12.75H7.78125C7.39261 12.75 7.07812 12.4355 7.07812 12.0469Z" fill="#A3A8AF"/>
  <path d="M1.45312 12.0469C1.45312 11.6582 1.76761 11.3438 2.15625 11.3438H4.96875C5.35739 11.3438 5.67188 11.6582 5.67188 12.0469C5.67188 12.4355 5.35739 12.75 4.96875 12.75H2.15625C1.76761 12.75 1.45312 12.4355 1.45312 12.0469Z" fill="#A3A8AF"/>
</svg>
