<svg width="32" height="32" viewBox="0 0 32 32" fill="none" xmlns="http://www.w3.org/2000/svg">
<g clip-path="url(#clip0_2207_2158)">
<path d="M23.3304 29.4736H17.7168V31.9686H23.3304V29.4736Z" fill="#A3A8AF"/>
<path d="M29.4428 26.9141V28.1615C29.4428 28.8853 28.854 29.474 28.1303 29.474H26.8828V31.969H28.1303C30.2298 31.969 31.9377 30.261 31.9377 28.1615V26.9141H29.4428Z" fill="#A3A8AF"/>
<path d="M14.2269 0.03125H8.61328V2.5262H14.2269V0.03125Z" fill="#A3A8AF"/>
<path d="M23.3304 0.03125H17.7168V2.5262H23.3304V0.03125Z" fill="#A3A8AF"/>
<path d="M3.80941 0.03125C1.7099 0.03125 0.00195312 1.73926 0.00195312 3.83871V5.08615H2.49691V3.83871C2.49691 3.11496 3.08572 2.5262 3.80941 2.5262H5.05686V0.03125H3.80941Z" fill="#A3A8AF"/>
<path d="M28.1303 0.03125H26.8828V2.5262H28.1303C28.854 2.5262 29.4428 3.11502 29.4428 3.83871V5.08615H31.9377V3.83871C31.9377 1.73926 30.2298 0.03125 28.1303 0.03125Z" fill="#A3A8AF"/>
<path d="M2.49495 8.95312H0V14.5667H2.49495V8.95312Z" fill="#A3A8AF"/>
<path d="M32.0008 18.0571H29.5059V23.6707H32.0008V18.0571Z" fill="#A3A8AF"/>
<path d="M32.0008 8.95312H29.5059V14.5667H32.0008V8.95312Z" fill="#A3A8AF"/>
<path d="M16.5309 6.4585V8.95339H21.4047L13.1782 17.5485C12.6102 17.2005 11.9427 16.9996 11.2291 16.9996H3.74435C1.68078 16.9996 0.00195312 18.6784 0.00195312 20.742V28.2267C0.00195312 30.2903 1.68078 31.9691 3.74435 31.9691H11.2291C13.2927 31.9691 14.9715 30.2903 14.9715 28.2267V20.742C14.9715 20.3081 14.8965 19.8918 14.7602 19.5039L23.0801 10.8112V15.5025H25.575V6.4585H16.5309ZM12.4766 28.2267C12.4766 28.9146 11.917 29.4741 11.2291 29.4741H3.74435C3.05647 29.4741 2.49691 28.9145 2.49691 28.2267V20.7419C2.49691 20.054 3.05653 19.4944 3.74435 19.4944H11.2291C11.917 19.4944 12.4766 20.0541 12.4766 20.7419V28.2267Z" fill="#A3A8AF"/>
</g>
<defs>
<clipPath id="clip0_2207_2158">
<rect width="32" height="32" fill="white"/>
</clipPath>
</defs>
</svg>
