<svg width="32" height="32" viewBox="0 0 32 32" fill="none" xmlns="http://www.w3.org/2000/svg">
<g clip-path="url(#clip0_2207_2191)">
<path d="M27.5 3.5L28 7L24.5 6.5L27.5 3.5Z" stroke="#A3A8AF" stroke-width="1.875" stroke-miterlimit="10" stroke-linecap="round" stroke-linejoin="round"/>
<path d="M22.125 22.5H9.875C8.83944 22.5 8 21.6606 8 20.625V11.375C8 10.3394 8.83944 9.5 9.875 9.5H22.125C23.1606 9.5 24 10.3394 24 11.375V20.625C24 21.6606 23.1606 22.5 22.125 22.5Z" stroke="#A3A8AF" stroke-width="1.875" stroke-miterlimit="10" stroke-linecap="round" stroke-linejoin="round"/>
<path d="M8 19.5L13 15.5L16 18L20.5 14L24 17" stroke="#A3A8AF" stroke-width="1.875" stroke-miterlimit="10" stroke-linecap="round" stroke-linejoin="round"/>
<path d="M27.6571 6.46044C24.8948 3.08894 20.6986 0.9375 16 0.9375C7.68119 0.9375 0.9375 7.68119 0.9375 16C0.9375 24.3188 7.68119 31.0625 16 31.0625C24.3188 31.0625 31.0625 24.3188 31.0625 16" stroke="#A3A8AF" stroke-width="1.875" stroke-miterlimit="10" stroke-linecap="round" stroke-linejoin="round"/>
</g>
<defs>
<clipPath id="clip0_2207_2191">
<rect width="32" height="32" fill="white"/>
</clipPath>
</defs>
</svg>
