<svg width="24" height="24" viewBox="0 0 24 24" fill="none" xmlns="http://www.w3.org/2000/svg">
  <path d="M14.1 22H4.9C3.3 22 2 20.7 2 19.1V14.4C2 12.8 3.3 11.5 4.9 11.5H14.2C15.8 11.5 17.1 12.8 17.1 14.4V19.1C17 20.7 15.7 22 14.1 22ZM4.9 13.5C4.4 13.5 4 13.9 4 14.4V19.1C4 19.6 4.4 20 4.9 20H14.2C14.7 20 15.1 19.6 15.1 19.1V14.4C15.1 13.9 14.7 13.5 14.2 13.5H4.9Z" fill="#A3A8AF"/>
  <path d="M8.49999 2.70019L4.49999 5.20019C3.89999 5.60019 3.89999 6.50019 4.49999 6.90019L8.49999 9.40019C9.09999 9.80019 9.99999 9.30019 9.99999 8.50019V3.50019C9.99999 2.70019 9.09999 2.20019 8.49999 2.70019Z" fill="#A3A8AF"/>
  <path d="M20.4 17C19.8 17 19.4 16.6 19.4 16V14C19.4 10.1 16.3 7 12.4 7H9C8.4 7 8 6.6 8 6C8 5.4 8.4 5 9 5H12.4C17.4 5 21.4 9 21.4 14V16C21.4 16.6 21 17 20.4 17Z" fill="#A3A8AF"/>
</svg>
