<svg width="24" height="24" viewBox="0 0 24 24" fill="none" xmlns="http://www.w3.org/2000/svg">
  <path d="M9.9 22H19.1C20.7 22 22 20.7 22 19.1V14.4C22 12.8 20.7 11.5 19.1 11.5H9.8C8.2 11.5 6.9 12.8 6.9 14.4V19.1C7 20.7 8.3 22 9.9 22ZM19.1 13.5C19.6 13.5 20 13.9 20 14.4V19.1C20 19.6 19.6 20 19.1 20H9.8C9.3 20 8.9 19.6 8.9 19.1V14.4C8.9 13.9 9.3 13.5 9.8 13.5H19.1Z" fill="#A3A8AF"/>
  <path d="M15.5 2.70019L19.5 5.20019C20.1 5.60019 20.1 6.50019 19.5 6.90019L15.5 9.40019C14.9 9.80019 14 9.30019 14 8.50019V3.50019C14 2.70019 14.9 2.20019 15.5 2.70019Z" fill="#A3A8AF"/>
  <path d="M3.6 17C4.2 17 4.6 16.6 4.6 16V14C4.6 10.1 7.7 7 11.6 7H15C15.6 7 16 6.6 16 6C16 5.4 15.6 5 15 5H11.6C6.6 5 2.6 9 2.6 14V16C2.6 16.6 3 17 3.6 17Z" fill="#A3A8AF"/>
</svg>
