<svg width="24" height="24" viewBox="0 0 20 20" fill="none" xmlns="http://www.w3.org/2000/svg">
  <rect width="20" height="20" rx="4" style="fill: #0176fc" />
  <path
    d="M4.16675 8.54688V12.3517C4.16675 13.0514 4.73508 13.6189 5.43476 13.6197H14.5654C15.2651 13.6197 15.8326 13.0514 15.8334 12.3517V8.54688H4.16675ZM14.5662 11.9707C14.5662 12.1806 14.396 12.3509 14.186 12.3509H12.6642C12.4542 12.3509 12.284 12.1806 12.284 11.9707V11.2094C12.284 10.9994 12.4542 10.8291 12.6642 10.8291H14.186C14.396 10.8291 14.5662 10.9994 14.5662 11.2094V11.9707Z"
    style="fill: url(#paint0_linear_21885_5740)"
  />
  <path
    d="M15.8334 7.73527V7.10126C15.8334 6.40159 15.2651 5.83406 14.5654 5.83325H5.43476C4.73508 5.83325 4.16756 6.40159 4.16675 7.10126V7.73527H15.8334Z"
    style="fill: url(#paint1_linear_21885_5740)"
  />
  <defs>
    <linearGradient
      id="paint0_linear_21885_5740"
      x1="6.68007"
      y1="15.6215"
      x2="14.6043"
      y2="3.73427"
      gradientUnits="userSpaceOnUse"
    >
      <stop style="stop-color: #e6f8ff" />
      <stop offset="0.98" style="stop-color: white" />
    </linearGradient>
    <linearGradient
      id="paint1_linear_21885_5740"
      x1="4.95155"
      y1="14.7993"
      x2="12.8766"
      y2="2.91213"
      gradientUnits="userSpaceOnUse"
    >
      <stop style="stop-color: #e6f8ff" />
      <stop offset="0.98" style="stop-color: white" />
    </linearGradient>
  </defs>
</svg>
