<svg width="24" height="24" viewBox="0 0 20 20" fill="none" xmlns="http://www.w3.org/2000/svg">
  <rect width="20" height="20" rx="4" style="fill: #0176fc" />
  <path d="M10.6792 5H12.0455V7.39715H10.6792V5Z" style="fill: url(#paint0_linear_21885_5730)" />
  <path
    d="M15.4899 5H12.7327V7.73258C12.7327 7.92076 12.5773 8.0762 12.3891 8.0762H10.3356C10.1474 8.0762 9.99198 7.92076 9.99198 7.73258V5H7.25939C7.07122 5 6.91577 5.15545 6.91577 5.34362V9.46704C7.03031 9.45068 7.14485 9.44249 7.25939 9.44249C7.88936 9.44249 8.49478 9.69612 8.93658 10.1297H10.3356C11.0883 10.1297 11.7019 10.7433 11.7019 11.496C11.7019 12.2487 11.0883 12.8623 10.3356 12.8623H12.7327C13.3709 12.8623 13.9027 13.2959 14.0581 13.885H15.4899C15.678 13.885 15.8335 13.7295 15.8335 13.5414V5.34362C15.8335 5.15545 15.678 5 15.4899 5Z"
    style="fill: url(#paint1_linear_21885_5730)"
  />
  <path
    d="M12.7327 13.5576H9.65646C8.90377 13.5576 8.29017 12.944 8.29017 12.1913H10.3437C10.72 12.1913 11.0309 11.8886 11.0309 11.5041C11.0309 11.1278 10.7282 10.8169 10.3437 10.8169H8.63379C8.31471 10.3833 7.80747 10.1296 7.2675 10.1296C6.72753 10.1296 6.22028 10.3833 5.9012 10.8169H5.55758V10.5878C5.55758 10.3996 5.40214 10.2442 5.21397 10.2442H4.51037C4.3222 10.2442 4.16675 10.3996 4.16675 10.5878V14.9239C4.16675 15.1121 4.3222 15.2676 4.51037 15.2676H5.21397C5.40214 15.2676 5.55758 15.1121 5.55758 14.9239V14.2367H5.9012L8.04473 14.9239H12.7408C13.1172 14.9239 13.4281 14.6212 13.4281 14.2367C13.4117 13.8604 13.109 13.5576 12.7327 13.5576Z"
    style="fill: url(#paint2_linear_21885_5730)"
  />
  <defs>
    <linearGradient
      id="paint0_linear_21885_5730"
      x1="10.6769"
      y1="6.20097"
      x2="12.0452"
      y2="6.20097"
      gradientUnits="userSpaceOnUse"
    >
      <stop style="stop-color: #e6f8ff" />
      <stop offset="0.9804" style="stop-color: white" />
    </linearGradient>
    <linearGradient
      id="paint1_linear_21885_5730"
      x1="6.91407"
      y1="9.45071"
      x2="15.8309"
      y2="9.45071"
      gradientUnits="userSpaceOnUse"
    >
      <stop style="stop-color: #e6f8ff" />
      <stop offset="0.9804" style="stop-color: white" />
    </linearGradient>
    <linearGradient
      id="paint2_linear_21885_5730"
      x1="4.15457"
      y1="12.6969"
      x2="13.4135"
      y2="12.6969"
      gradientUnits="userSpaceOnUse"
    >
      <stop style="stop-color: #e6f8ff" />
      <stop offset="0.9804" style="stop-color: white" />
    </linearGradient>
  </defs>
</svg>
