<svg width="24" height="24" viewBox="0 0 24 24" xmlns="http://www.w3.org/2000/svg">
  <g clip-path="url(#clip0_14385_32331)">
    <path
      d="M18.4004 5.7C19.6004 5.1 20.6004 4.1 21.3004 3C21.4004 2.8 21.4004 2.5 21.3004 2.3C21.1004 2.1 20.9004 2 20.6004 2H4.70039C4.40039 2 4.20039 2.1 4.10039 2.4C4.00039 2.6 4.00039 2.8 4.10039 3.1C4.80039 4.2 5.70039 5.1 7.00039 5.8C8.00039 6.3 9.20039 6.7 10.3004 6.7V8H7.60039C6.50039 8 5.60039 8.8 5.40039 9.9L4.20039 19.7C4.10039 20.3 4.30039 20.9 4.70039 21.4C5.10039 21.9 5.70039 22.1 6.30039 22.1H19.0004C19.6004 22.1 20.2004 21.8 20.6004 21.4C21.0004 20.9 21.2004 20.3 21.1004 19.7L19.9004 9.9C19.8004 8.8 18.9004 8 17.8004 8H15.0004V6.7C16.2004 6.6 17.4004 6.2 18.4004 5.7ZM13.6004 6.7V8H11.6004V6.7H13.6004ZM6.10039 3.4H19.2004C18.0004 4.6 16.2004 5.3 14.4004 5.3H11.0004C9.10039 5.3 7.30039 4.6 6.10039 3.4ZM7.60039 9.4H17.8004C18.2004 9.4 18.5004 9.7 18.6004 10.1L19.8004 19.9C19.8004 20.1 19.8004 20.4 19.6004 20.5C19.4004 20.6 19.2004 20.8 19.0004 20.8H6.40039C6.20039 20.8 6.00039 20.7 5.80039 20.5C5.60039 20.3 5.60039 20.1 5.60039 19.9L6.80039 10.1C6.80039 9.7 7.20039 9.4 7.60039 9.4Z"
    />
    <path
      d="M12.7002 20.1001C15.4002 20.1001 17.7002 17.9001 17.7002 15.1001C17.7002 12.4001 15.5002 10.1001 12.7002 10.1001C10.0002 10.1001 7.7002 12.3001 7.7002 15.1001C7.7002 17.8001 9.9002 20.1001 12.7002 20.1001ZM9.1002 15.1001C9.1002 13.1001 10.7002 11.5001 12.7002 11.5001C14.7002 11.5001 16.3002 13.1001 16.3002 15.1001C16.3002 17.1001 14.7002 18.7001 12.7002 18.7001C10.7002 18.7001 9.1002 17.1001 9.1002 15.1001Z"
    />
    <path
      d="M11.2 17.1999C11.4 17.1999 11.6 17.0999 11.7 16.9999L13.1 15.5999C13.4 15.2999 13.4 14.8999 13.1 14.5999C13 14.4999 12.8 14.3999 12.6 14.3999C12.4 14.3999 12.2 14.4999 12.1 14.5999L10.7 15.9999C10.6 16.0999 10.5 16.2999 10.5 16.4999C10.5 16.6999 10.6 16.8999 10.7 16.9999C10.9 17.1999 11 17.1999 11.2 17.1999Z"
    />
  </g>
  <defs>
    <clipPath id="clip0_14385_32331">
      <rect width="17.3" height="20.2" fill="white" transform="translate(4 2)" />
    </clipPath>
  </defs>
</svg>
