<svg width="24" height="24" viewBox="0 0 24 24" fill="none" xmlns="http://www.w3.org/2000/svg">
<path d="M11.7444 8C11.0027 8 10.2777 8.21993 9.661 8.63199C9.04432 9.04404 8.56367 9.62971 8.27984 10.3149C7.99601 11.0002 7.92175 11.7542 8.06645 12.4816C8.21114 13.209 8.56829 13.8772 9.09274 14.4017C9.61719 14.9261 10.2854 15.2833 11.0128 15.4279C11.7402 15.5726 12.4942 15.4984 13.1795 15.2145C13.8647 14.9307 14.4503 14.4501 14.8624 13.8334C15.2745 13.2167 15.4944 12.4917 15.4944 11.75C15.4931 10.7558 15.0976 9.80279 14.3946 9.09981C13.6916 8.39684 12.7385 8.00132 11.7444 8ZM11.7444 14C11.2994 14 10.8644 13.868 10.4944 13.6208C10.1243 13.3736 9.83596 13.0222 9.66566 12.611C9.49536 12.1999 9.45081 11.7475 9.53762 11.311C9.62444 10.8746 9.83873 10.4737 10.1534 10.159C10.4681 9.84434 10.869 9.63005 11.3054 9.54323C11.7419 9.45642 12.1943 9.50097 12.6054 9.67127C13.0166 9.84157 13.368 10.13 13.6152 10.5C13.8624 10.87 13.9944 11.305 13.9944 11.75C13.9936 12.3465 13.7563 12.9183 13.3345 13.3401C12.9127 13.7619 12.3409 13.9992 11.7444 14ZM20.9524 13.7C20.6091 13.5022 20.3239 13.2175 20.1256 12.8745C19.9274 12.5314 19.823 12.1422 19.823 11.746C19.823 11.3498 19.9274 10.9606 20.1256 10.6175C20.3239 10.2745 20.6091 9.98977 20.9524 9.792C21.1988 9.6473 21.3782 9.41124 21.4516 9.13507C21.525 8.85891 21.4864 8.56494 21.3444 8.317L19.6754 5.431C19.5324 5.18256 19.2967 5.00095 19.0201 4.92597C18.7434 4.85099 18.4483 4.88876 18.1994 5.031C17.8563 5.22898 17.4672 5.33334 17.071 5.33364C16.6749 5.33393 16.2857 5.23014 15.9423 5.03267C15.5989 4.83519 15.3134 4.55097 15.1144 4.20844C14.9154 3.86592 14.8099 3.47713 14.8084 3.081C14.8068 2.79392 14.6917 2.51913 14.4883 2.3166C14.2848 2.11408 14.0095 2.00026 13.7224 2H9.76639C9.47835 2.00026 9.20218 2.11473 8.99841 2.31831C8.79464 2.52189 8.67992 2.79796 8.67939 3.086C8.67833 3.48207 8.57315 3.8709 8.3744 4.2135C8.17565 4.5561 7.89032 4.84042 7.54702 5.03795C7.20372 5.23548 6.81452 5.33928 6.41844 5.33894C6.02237 5.3386 5.63335 5.23413 5.29039 5.036C5.04209 4.89321 4.74737 4.85451 4.47062 4.92833C4.19387 5.00216 3.95758 5.18251 3.81339 5.43L2.14439 8.319C2.00147 8.56821 1.96332 8.86396 2.03833 9.14128C2.11333 9.41859 2.29534 9.6548 2.54439 9.798C2.8875 9.9957 3.17247 10.2803 3.37062 10.6232C3.56876 10.966 3.67309 11.355 3.67309 11.751C3.67309 12.147 3.56876 12.536 3.37062 12.8788C3.17247 13.2217 2.8875 13.5063 2.54439 13.704C2.42088 13.7747 2.31253 13.8691 2.22555 13.9818C2.13858 14.0944 2.07468 14.2231 2.03752 14.3605C2.00037 14.4979 1.99068 14.6413 2.00902 14.7824C2.02736 14.9235 2.07336 15.0597 2.14439 15.183L3.81639 18.067C3.95959 18.3158 4.19561 18.4976 4.47269 18.5726C4.74977 18.6476 5.04527 18.6096 5.29439 18.467C5.63739 18.2697 6.02618 18.1658 6.42189 18.1658C6.8176 18.1658 7.20639 18.2697 7.54939 18.467L7.55839 18.473C7.89906 18.671 8.1818 18.9549 8.37834 19.2964C8.57489 19.6379 8.67835 20.025 8.67839 20.419C8.67866 20.7069 8.79316 20.983 8.99677 21.1866C9.20037 21.3902 9.47645 21.5047 9.76439 21.505H13.7244C14.012 21.5045 14.2877 21.39 14.491 21.1866C14.6944 20.9833 14.8089 20.7076 14.8094 20.42C14.8105 20.0238 14.9157 19.6349 15.1145 19.2922C15.3133 18.9495 15.5987 18.6651 15.9421 18.4674C16.2855 18.2698 16.6748 18.1659 17.0709 18.1662C17.4671 18.1665 17.8563 18.2709 18.1994 18.469C18.4476 18.6121 18.7424 18.6509 19.0193 18.5771C19.2961 18.5032 19.5324 18.3227 19.6764 18.075L21.3504 15.186C21.422 15.0626 21.4685 14.9262 21.4873 14.7848C21.506 14.6433 21.4966 14.4996 21.4596 14.3618C21.4226 14.224 21.3588 14.0948 21.2717 13.9818C21.1847 13.8687 21.0762 13.774 20.9524 13.703V13.7ZM18.5754 16.974C18.0359 16.7376 17.4484 16.6313 16.8602 16.6637C16.2721 16.6961 15.6998 16.8662 15.1895 17.1604C14.6792 17.4546 14.2452 17.8645 13.9224 18.3573C13.5997 18.85 13.3972 19.4117 13.3314 19.997H10.1544C10.0888 19.4119 9.88657 18.8504 9.5641 18.3577C9.24163 17.8651 8.80792 17.4551 8.29792 17.1608C7.78793 16.8666 7.21593 16.6963 6.62804 16.6636C6.04014 16.631 5.45281 16.737 4.91339 16.973L3.63739 14.773C4.11122 14.424 4.4964 13.9686 4.76186 13.4434C5.02732 12.9182 5.16563 12.338 5.16563 11.7495C5.16563 11.161 5.02732 10.5808 4.76186 10.0556C4.4964 9.53042 4.11122 9.07497 3.63739 8.726L4.91439 6.526C5.45402 6.76202 6.04157 6.86793 6.62965 6.83519C7.21773 6.80245 7.78988 6.63198 8.29998 6.33752C8.81008 6.04306 9.24385 5.63285 9.56631 5.13997C9.88877 4.64709 10.0909 4.08534 10.1564 3.5H13.3314C13.3972 4.08533 13.5997 4.64701 13.9224 5.13973C14.2452 5.63246 14.6792 6.04244 15.1895 6.33661C15.6998 6.63079 16.2721 6.80092 16.8602 6.8333C17.4484 6.86567 18.0359 6.75938 18.5754 6.523L19.8514 8.723C19.3778 9.07199 18.9927 9.52739 18.7274 10.0525C18.4621 10.5776 18.3238 11.1577 18.3238 11.746C18.3238 12.3343 18.4621 12.9144 18.7274 13.4395C18.9927 13.9646 19.3778 14.42 19.8514 14.769L18.5754 16.974Z" fill="#A3A8AF"/>
</svg>
