<svg width="24" height="24" viewBox="0 0 24 24" fill="none" xmlns="http://www.w3.org/2000/svg">
  <path
    d="M18 3.25H6C3.582 3.25 2.25 4.664 2.25 7.231V14.769C2.25 17.336 3.582 18.75 6 18.75H18C20.418 18.75 21.75 17.336 21.75 14.769V7.231C21.75 4.664 20.418 3.25 18 3.25ZM20.25 14.769C20.25 16.508 19.577 17.25 18 17.25H6C4.423 17.25 3.75 16.508 3.75 14.769V7.231C3.75 5.492 4.423 4.75 6 4.75H18C19.577 4.75 20.25 5.492 20.25 7.231V14.769ZM17.75 21C17.75 21.1989 17.671 21.3897 17.5303 21.5303C17.3897 21.671 17.1989 21.75 17 21.75H7C6.80109 21.75 6.61032 21.671 6.46967 21.5303C6.32902 21.3897 6.25 21.1989 6.25 21C6.25 20.8011 6.32902 20.6103 6.46967 20.4697C6.61032 20.329 6.80109 20.25 7 20.25H17C17.1989 20.25 17.3897 20.329 17.5303 20.4697C17.671 20.6103 17.75 20.8011 17.75 21Z"
    fill="#A3A8AF"
  />
  <path
    d="M11.2089 14.9211C11.2091 15.0344 11.1758 15.1453 11.1132 15.2396C11.0505 15.334 10.9612 15.4077 10.8567 15.4514C10.7522 15.4951 10.6371 15.5068 10.5259 15.4851C10.4147 15.4634 10.3124 15.4092 10.232 15.3294C10.1516 15.2496 10.0966 15.1478 10.074 15.0368C10.0514 14.9258 10.0622 14.8106 10.1051 14.7057C10.1479 14.6008 10.2209 14.511 10.3148 14.4476C10.4086 14.3841 10.5192 14.35 10.6325 14.3493H10.6371C10.7887 14.3493 10.9342 14.4096 11.0414 14.5168C11.1486 14.624 11.2089 14.7695 11.2089 14.9211ZM14.2967 14.3493H14.2922C14.1401 14.3499 13.9945 14.4108 13.8873 14.5187C13.7801 14.6265 13.72 14.7725 13.7203 14.9246C13.7206 15.0766 13.7813 15.2224 13.8889 15.3298C13.9965 15.4372 14.1424 15.4975 14.2945 15.4975C14.4465 15.4975 14.5924 15.4372 14.7 15.3298C14.8076 15.2224 14.8683 15.0766 14.8686 14.9246C14.8689 14.7725 14.8088 14.6265 14.7016 14.5187C14.5944 14.4108 14.4488 14.3499 14.2967 14.3493ZM16.4399 9.19922L15.9761 12.0199C15.9646 12.226 15.9109 12.4276 15.8184 12.6122C15.7259 12.7967 15.5965 12.9603 15.4382 13.0929C15.28 13.2255 15.0962 13.3242 14.8983 13.3829C14.7004 13.4417 14.4925 13.4592 14.2876 13.4344H10.5062C10.2038 13.4331 9.91192 13.3234 9.68352 13.1252C9.45512 12.927 9.30537 12.6535 9.26147 12.3543L8.56933 7.5208C8.54934 7.38506 8.48144 7.26095 8.3779 7.17092C8.27436 7.08089 8.14202 7.03088 8.00482 7.02994H7.88313C7.79214 7.02994 7.70487 6.99379 7.64053 6.92945C7.57619 6.86511 7.54004 6.77784 7.54004 6.68685C7.54004 6.59585 7.57619 6.50858 7.64053 6.44424C7.70487 6.3799 7.79214 6.34375 7.88313 6.34375H8.00482C8.30721 6.34504 8.59912 6.45473 8.82752 6.65291C9.05592 6.8511 9.20567 7.12462 9.24957 7.42382L9.29166 7.71613H15.2025C15.3868 7.71611 15.5688 7.75657 15.7358 7.83466C15.9027 7.91274 16.0504 8.02655 16.1685 8.16803C16.2866 8.3095 16.3721 8.47519 16.4191 8.65338C16.4661 8.83158 16.4729 9.01791 16.4399 9.19922ZM15.3 11.9019L15.3489 11.6032H12.4577C12.3668 11.6032 12.2795 11.567 12.2151 11.5027C12.1508 11.4383 12.1146 11.3511 12.1146 11.2601C12.1146 11.1691 12.1508 11.0818 12.2151 11.0175C12.2795 10.9531 12.3668 10.917 12.4577 10.917H15.4619L15.7638 9.08074C15.7795 8.99813 15.7768 8.91308 15.7558 8.83165C15.7348 8.75022 15.6962 8.67441 15.6426 8.60963C15.589 8.54484 15.5218 8.49268 15.4457 8.45685C15.3696 8.42101 15.2866 8.4024 15.2025 8.40232H9.38955L9.93851 12.2573C9.95858 12.3936 10.0269 12.5182 10.1312 12.6083C10.2354 12.6984 10.3685 12.748 10.5062 12.7482H14.2876C15.0195 12.7482 15.1961 12.4756 15.3 11.9019Z"
    fill="#A3A8AF"
    stroke="#A3A8AF"
    stroke-width="0.6"
  />
</svg>
