<svg width="20" height="20" viewBox="0 0 20 20" fill="none" xmlns="http://www.w3.org/2000/svg">
<path d="M9 3.41418V5.99997H4C3.44772 5.99997 3 6.44769 3 6.99997V11C3 11.5523 3.44772 12 4 12H9V18H11V12H14.5316C14.8284 12 15.1099 11.8681 15.2998 11.6402L17.2333 9.32006C17.3878 9.13464 17.3878 8.8653 17.2333 8.67988L15.2998 6.35979C15.1099 6.13179 14.8284 5.99997 14.5316 5.99997H11V3.41418C11 3.14897 10.8946 2.89461 10.7071 2.70708C10.3166 2.31655 9.68342 2.31655 9.29289 2.70708C9.10536 2.89461 9 3.14897 9 3.41418ZM14.5316 6.99997L16.1983 8.99997L14.5316 11H4L4 6.99997H14.5316Z" fill="#A6AAAE"/>
</svg>
