<svg width="24" height="24" viewBox="0 0 20 20" fill="none" xmlns="http://www.w3.org/2000/svg">
  <rect width="20" height="20" rx="4" style="fill: #0176fc"></rect>
  <path
    d="M13.3432 12.5944C13.0271 12.5944 12.7363 12.6989 12.5003 12.873L12.5029 12.8695L7.01136 10.098C7.01136 9.99268 6.99917 9.88994 6.97741 9.79067L12.0981 6.71532C12.3384 6.89991 12.6379 7.01136 12.9635 7.01136C13.7489 7.01136 14.3854 6.37487 14.3854 5.58862C14.3854 4.80237 13.7489 4.16675 12.9635 4.16675C12.1782 4.16675 11.5417 4.80324 11.5417 5.58862C11.5417 5.74099 11.5661 5.88815 11.6105 6.02572L6.59952 9.09759C6.34179 8.83725 5.98392 8.67529 5.58862 8.67529C4.80324 8.67529 4.16675 9.31178 4.16675 10.0972C4.16675 10.8825 4.80324 11.519 5.58862 11.519C6.05271 11.519 6.46369 11.2953 6.72316 10.9513L11.9857 13.5887C11.9431 13.7237 11.9204 13.8665 11.9204 14.0154C11.9204 14.8008 12.5569 15.4372 13.3423 15.4372C14.1277 15.4372 14.7651 14.8008 14.7651 14.0154C14.7651 13.23 14.1286 12.5935 13.3423 12.5935L13.3432 12.5944Z"
    style="fill: url(#paint0_linear_21852_5698)"
  ></path>
  <path
    d="M12.8894 15.8333C14.0883 15.8333 15.0601 14.8615 15.0601 13.6626C15.0601 12.4638 14.0883 11.4919 12.8894 11.4919C11.6906 11.4919 10.7188 12.4638 10.7188 13.6626C10.7188 14.8615 11.6906 15.8333 12.8894 15.8333Z"
    style="fill: url(#paint1_linear_21852_5698)"
  ></path>
  <defs>
    <linearGradient
      id="paint0_linear_21852_5698"
      x1="8.02226"
      y1="14.1233"
      x2="13.2918"
      y2="6.5821"
      gradientUnits="userSpaceOnUse"
    >
      <stop style="stop-color: #e6f8ff"></stop>
      <stop offset="0.98" style="stop-color: white"></stop>
    </linearGradient>
    <linearGradient
      id="paint1_linear_21852_5698"
      x1="11.0766"
      y1="16.2573"
      x2="16.3462"
      y2="8.71611"
      gradientUnits="userSpaceOnUse"
    >
      <stop style="stop-color: #e6f8ff"></stop>
      <stop offset="0.98" style="stop-color: white"></stop>
    </linearGradient>
  </defs>
</svg>
