<svg width="24" height="24" viewBox="0 0 24 24" fill="none" xmlns="http://www.w3.org/2000/svg">
<path d="M19.478 13.9131L16.6954 12.7826L15.5649 10C15.478 9.65218 15.1302 9.47827 14.7823 9.47827C14.4345 9.47827 14.0867 9.65218 13.9997 10L12.8693 12.7826L10.0867 13.9131C9.73885 14 9.56494 14.3478 9.56494 14.6957C9.56494 15.0435 9.73885 15.3913 10.0867 15.4783L12.8693 16.6087L13.9997 19.3913C14.1736 19.7391 14.4345 19.9131 14.7823 19.9131C15.1302 19.9131 15.478 19.7391 15.5649 19.3913L16.6954 16.6087L19.478 15.4783C19.8258 15.3044 19.9997 15.0435 19.9997 14.6957C19.9997 14.3478 19.8258 14 19.478 13.9131Z" fill="#0088FF"/>
<path d="M10.4348 10.9565C10.4348 10.6087 10.2609 10.2609 9.91304 10.1739L8.6087 9.56522L8 8.26087C7.91304 7.91305 7.56522 7.73914 7.21739 7.73914C6.86957 7.73914 6.52174 7.91305 6.43478 8.26087L5.82609 9.56522L4.52174 10.1739C4.17391 10.3478 4 10.6087 4 10.9565C4 11.3044 4.17391 11.6522 4.52174 11.7391L5.82609 12.3478L6.43478 13.6522C6.6087 14 6.86957 14.1739 7.21739 14.1739C7.56522 14.1739 7.91304 14 8 13.6522L8.6087 12.3478L9.91304 11.7391C10.2609 11.6522 10.4348 11.3044 10.4348 10.9565ZM7.21739 11.1304C7.13044 11.0435 7.13043 10.9565 7.04348 10.9565C7.13043 10.8696 7.21739 10.8696 7.21739 10.7826C7.30435 10.8696 7.30435 10.9565 7.3913 10.9565C7.30435 11.0435 7.30435 11.0435 7.21739 11.1304Z" fill="#0088FF"/>
<path d="M14.0872 7.21739L14.8698 7.56522L15.2176 8.34783C15.3915 8.69565 15.6524 8.86957 16.0002 8.86957C16.348 8.86957 16.6959 8.69565 16.7828 8.34783L17.1306 7.56522L17.9133 7.21739C18.2611 7.04348 18.435 6.78261 18.435 6.43478C18.435 6.08696 18.2611 5.73913 17.9133 5.65217L17.1306 5.30435L16.7828 4.52174C16.6089 4.17391 16.348 4 16.0002 4C15.6524 4 15.3046 4.17391 15.2176 4.52174L14.8698 5.30435L14.0872 5.65217C13.7393 5.82609 13.5654 6.08696 13.5654 6.43478C13.5654 6.78261 13.8263 7.13043 14.0872 7.21739Z" fill="#0088FF"/>
</svg>
