<svg width="24" height="24" viewBox="0 0 24 24" fill="none" xmlns="http://www.w3.org/2000/svg">
<g clip-path="url(#clip0_827_6070)">
<path d="M18.3633 5.63648C14.7984 2.17358 9.09961 2.25796 5.63672 5.8228C2.24414 9.31382 2.24414 14.872 5.63672 18.363C9.20156 21.8259 14.9004 21.7416 18.3633 18.1767C21.7559 14.6857 21.7559 9.12749 18.3633 5.63648ZM7.25391 7.25366C9.56367 4.94741 13.1988 4.63452 15.8672 6.51538L6.51562 15.8669C4.66992 13.2478 4.91602 9.59507 7.25391 7.25366ZM16.7461 16.7459C14.4047 19.0837 10.752 19.3298 8.13281 17.4841L17.4844 8.13257C19.3301 10.7517 19.084 14.4044 16.7461 16.7459Z" fill="#A3A8AF"/>
</g>
<defs>
<clipPath id="clip0_827_6070">
<rect width="18" height="18" fill="white" transform="translate(3 3)"/>
</clipPath>
</defs>
</svg>
