<svg width="24" height="24" viewBox="0 0 24 24" fill="none" xmlns="http://www.w3.org/2000/svg">
<path d="M21.5449 7.871L20.5059 4.8C20.0169 3.354 19.4119 2.25 16.4999 2.25H7.49986C4.58786 2.25 3.98286 3.35 3.49986 4.798L2.45386 7.871C2.23139 8.51302 2.18833 9.20357 2.3293 9.86825C2.47027 10.5329 2.78994 11.1466 3.25386 11.643V18C3.19525 18.5063 3.25179 19.0193 3.41926 19.5006C3.58673 19.982 3.8608 20.4193 4.22099 20.7799C4.58119 21.1405 5.0182 21.415 5.49939 21.583C5.98058 21.751 6.49351 21.8081 6.99986 21.75H16.9999C17.5065 21.8087 18.0199 21.7521 18.5016 21.5844C18.9833 21.4167 19.4208 21.1423 19.7815 20.7816C20.1422 20.421 20.4166 19.9834 20.5843 19.5017C20.752 19.02 20.8086 18.5067 20.7499 18V11.643C21.2132 11.1462 21.5321 10.5324 21.6722 9.86763C21.8123 9.2029 21.7683 8.51253 21.5449 7.871ZM3.87486 8.352L4.91585 5.279C5.25986 4.261 5.43286 3.75 7.49986 3.75H16.4999C18.5669 3.75 18.7399 4.261 19.0849 5.279L20.1239 8.352C20.2998 8.81711 20.3101 9.32866 20.1529 9.80044C19.9957 10.2722 19.6806 10.6754 19.2609 10.942C18.9524 11.0958 18.6166 11.1869 18.2728 11.2101C17.9289 11.2334 17.5839 11.1882 17.2576 11.0773C16.9313 10.9663 16.6302 10.7918 16.3718 10.5638C16.1133 10.3359 15.9026 10.0589 15.7519 9.749C15.7 9.60287 15.6043 9.47637 15.4777 9.38684C15.3511 9.29732 15.1999 9.24917 15.0449 9.249C14.8899 9.24923 14.7389 9.29742 14.6125 9.38695C14.4861 9.47648 14.3905 9.60295 14.3389 9.749C14.1331 10.1955 13.8038 10.5737 13.3898 10.8388C12.9758 11.1039 12.4945 11.2448 12.0029 11.2448C11.5112 11.2448 11.0299 11.1039 10.6159 10.8388C10.2019 10.5737 9.87256 10.1955 9.66685 9.749C9.61522 9.60295 9.51963 9.47648 9.39321 9.38695C9.2668 9.29742 9.11576 9.24923 8.96086 9.249C8.80828 9.26008 8.6616 9.31246 8.53652 9.40055C8.41145 9.48863 8.3127 9.60908 8.25086 9.749C8.04933 10.2021 7.71901 10.586 7.301 10.8529C6.88299 11.1198 6.39573 11.2579 5.89986 11.25C5.49283 11.2511 5.0927 11.1449 4.73985 10.942C4.32002 10.6754 4.00481 10.2724 3.84727 9.80066C3.68973 9.32895 3.69947 8.81737 3.87486 8.352ZM13.2749 20.252H10.7749V17.5C10.7749 17.1685 10.9066 16.8505 11.141 16.6161C11.3754 16.3817 11.6933 16.25 12.0249 16.25C12.3564 16.25 12.6743 16.3817 12.9087 16.6161C13.1432 16.8505 13.2749 17.1685 13.2749 17.5V20.252ZM16.9949 20.252H14.7799V17.5C14.7799 16.7707 14.4901 16.0712 13.9744 15.5555C13.4587 15.0397 12.7592 14.75 12.0299 14.75C11.3005 14.75 10.601 15.0397 10.0853 15.5555C9.56959 16.0712 9.27985 16.7707 9.27985 17.5V20.25H6.99986C5.42285 20.25 4.74986 19.577 4.74986 18V12.554C5.48782 12.7581 6.2671 12.7599 7.00603 12.5594C7.74496 12.3588 8.41635 11.9632 8.94985 11.414C9.33823 11.8356 9.80977 12.172 10.3347 12.4022C10.8597 12.6323 11.4267 12.7512 11.9999 12.7512C12.573 12.7512 13.14 12.6323 13.665 12.4022C14.1899 12.172 14.6615 11.8356 15.0499 11.414C15.4403 11.8328 15.9123 12.1674 16.4368 12.3972C16.9613 12.6269 17.5272 12.747 18.0999 12.75C18.4899 12.7477 18.8774 12.686 19.2489 12.567V18C19.2499 19.577 18.5769 20.25 16.9999 20.25L16.9949 20.252Z" fill="#A3A8AF"/>
</svg>
