<svg width="24" height="24" viewBox="0 0 24 24" fill="none" xmlns="http://www.w3.org/2000/svg">
  <path
    d="M8.37813 15.5614C6.53908 15.5614 5.00073 14.157 4.80888 12.3344C4.78246 12.0834 4.78246 11.8268 4.80888 11.5758C5.00073 9.75318 6.53907 8.34875 8.37813 8.34875C10.2172 8.34875 11.7555 9.75318 11.9474 11.5758C11.9737 11.8268 11.9737 12.0834 11.9474 12.3344C11.7555 14.157 10.2172 15.5614 8.37813 15.5614Z"
    fill="#A3A8AF"
  />
  <path
    fill-rule="evenodd"
    clip-rule="evenodd"
    d="M8.45507 18.9101H16.545C19.9674 18.9101 22.8811 16.4203 23.4149 13.0398C23.5284 12.3211 23.5284 11.5891 23.4149 10.8704C22.8811 7.48981 19.9674 5 16.545 5H8.45507C5.03266 5 2.11887 7.48981 1.58511 10.8704C1.47163 11.5891 1.47163 12.3211 1.58511 13.0398C2.11887 16.4203 5.03266 18.9101 8.45507 18.9101ZM8.45507 17.3646C5.79319 17.3646 3.52692 15.4281 3.11177 12.7987C3.02351 12.2398 3.02351 11.6704 3.11177 11.1114C3.52692 8.48209 5.79319 6.54557 8.45507 6.54557H16.545C19.2068 6.54557 21.4731 8.48209 21.8882 11.1114C21.9765 11.6704 21.9765 12.2398 21.8882 12.7987C21.4731 15.4281 19.2068 17.3646 16.545 17.3646H8.45507Z"
    fill="#A3A8AF"
  />
</svg>
