<svg width="24" height="24" viewBox="0 0 24 24" fill="none" xmlns="http://www.w3.org/2000/svg">
<path d="M20.238 10.286L18.738 8.786C18.733 8.781 18.732 8.774 18.726 8.769C18.7207 8.76477 18.715 8.76108 18.709 8.758L13.038 3.078C12.3472 2.39019 11.4128 2.00279 10.438 2H4.70001C3.98441 2.00158 3.29857 2.28656 2.79257 2.79256C2.28656 3.29857 2.00159 3.9844 2.00001 4.7V10.45C1.99903 10.933 2.0937 11.4114 2.27855 11.8577C2.46339 12.3039 2.73477 12.7092 3.07701 13.05L8.74901 18.73L8.75601 18.74L8.76901 18.75L10.276 20.259C10.6037 20.6302 11.0028 20.9317 11.4495 21.1454C11.8962 21.3592 12.3813 21.4808 12.876 21.503C13.3707 21.4808 13.8558 21.3592 14.3025 21.1454C14.7492 20.9317 15.1483 20.6302 15.476 20.259L20.237 15.493C20.6299 15.1823 20.9473 14.7867 21.1656 14.3358C21.3838 13.885 21.4973 13.3906 21.4974 12.8897C21.4975 12.3889 21.3842 11.8944 21.1661 11.4435C20.948 10.9926 20.6307 10.5969 20.238 10.286ZM3.49901 10.45V4.703C3.49901 4.38474 3.62544 4.07952 3.85048 3.85447C4.07552 3.62943 4.38075 3.503 4.69901 3.503H10.436C11.0135 3.50517 11.567 3.73432 11.977 4.141L17.135 9.305L9.29101 17.15L4.13701 11.99C3.73057 11.5802 3.50144 11.0271 3.49901 10.45ZM19.178 14.43L14.416 19.196C14.2425 19.4432 14.012 19.6449 13.744 19.7842C13.4761 19.9235 13.1785 19.9962 12.8765 19.9962C12.5745 19.9962 12.2769 19.9235 12.009 19.7842C11.741 19.6449 11.5105 19.4432 11.337 19.196L10.351 18.209L18.196 10.364L19.178 11.346C20.271 12.441 20.271 13.334 19.178 14.43ZM7.74901 6.75C7.749 6.94748 7.69053 7.14054 7.58095 7.30484C7.47138 7.46913 7.31561 7.5973 7.13329 7.67319C6.95097 7.74908 6.75027 7.76929 6.55648 7.73127C6.36269 7.69325 6.1845 7.5987 6.04437 7.45954C5.90424 7.32039 5.80846 7.14286 5.76908 6.94935C5.72971 6.75583 5.74852 6.55499 5.82313 6.37214C5.89775 6.1893 6.02483 6.03264 6.18836 5.92192C6.35188 5.8112 6.54453 5.75138 6.74201 5.75H6.74901C7.01422 5.75 7.26858 5.85536 7.45611 6.04289C7.64365 6.23043 7.74901 6.48478 7.74901 6.75Z" fill="#A3A8AF"/>
</svg>
