<svg width="24" height="24" viewBox="0 0 24 24" fill="none" xmlns="http://www.w3.org/2000/svg">
  <path
    d="M17 2.24998H7.00004C6.49338 2.19125 5.98 2.24785 5.4983 2.41554C5.0166 2.58323 4.57906 2.85768 4.2184 3.21834C3.85774 3.579 3.5833 4.01654 3.4156 4.49824C3.24791 4.97994 3.19131 5.49332 3.25004 5.99998V18.621C3.25004 18.946 3.34054 19.2645 3.5114 19.541C3.68226 19.8175 3.92673 20.0409 4.21741 20.1862C4.5081 20.3316 4.83351 20.3931 5.1572 20.3639C5.48088 20.3347 5.79004 20.216 6.05004 20.021L7.40804 19C7.5531 18.8924 7.73187 18.8404 7.91199 18.8532C8.09211 18.8661 8.26169 18.9429 8.39004 19.07L10.409 21.089C10.8313 21.5104 11.4035 21.7472 12 21.7472C12.5966 21.7472 13.1688 21.5104 13.591 21.089L15.61 19.07C15.7381 18.9428 15.9075 18.8659 16.0876 18.853C16.2676 18.8402 16.4462 18.8923 16.591 19L17.95 20.019C18.21 20.214 18.5192 20.3327 18.8429 20.3619C19.1666 20.3911 19.492 20.3296 19.7827 20.1842C20.0733 20.0389 20.3178 19.8155 20.4887 19.539C20.6595 19.2625 20.75 18.944 20.75 18.619V5.99998C20.8088 5.49332 20.7522 4.97994 20.5845 4.49824C20.4168 4.01654 20.1423 3.579 19.7817 3.21834C19.421 2.85768 18.9835 2.58323 18.5018 2.41554C18.0201 2.24785 17.5067 2.19125 17 2.24998ZM19.25 18.621C19.2512 18.6677 19.2388 18.7137 19.2143 18.7535C19.1898 18.7932 19.1543 18.825 19.112 18.845C19.071 18.8672 19.0244 18.8768 18.9779 18.8725C18.9314 18.8683 18.8873 18.8503 18.851 18.821L17.49 17.8C17.056 17.4773 16.5207 17.3209 15.9813 17.3593C15.4418 17.3976 14.934 17.6281 14.55 18.009L12.53 20.03C12.3872 20.1662 12.1974 20.2422 12 20.2422C11.8027 20.2422 11.6129 20.1662 11.47 20.03L9.45004 18.011C9.06594 17.6301 8.55813 17.3995 8.01862 17.3608C7.4791 17.322 6.94357 17.4779 6.50904 17.8L5.14904 18.819C5.11278 18.8483 5.06863 18.8663 5.02217 18.8705C4.97572 18.8748 4.92904 18.8652 4.88804 18.843C4.8458 18.823 4.81027 18.7912 4.78577 18.7515C4.76127 18.7117 4.74886 18.6657 4.75004 18.619V5.99998C4.75004 4.42298 5.42304 3.74998 7.00004 3.74998H17C18.577 3.74998 19.25 4.42298 19.25 5.99998V18.621ZM15.03 9.02997L10.03 14.03C9.88786 14.1625 9.69982 14.2346 9.50551 14.2312C9.31121 14.2277 9.12583 14.149 8.98841 14.0116C8.851 13.8742 8.77229 13.6888 8.76886 13.4945C8.76543 13.3002 8.83756 13.1122 8.97004 12.97L13.97 7.96997C14.1122 7.83749 14.3003 7.76537 14.4946 7.7688C14.6889 7.77223 14.8742 7.85094 15.0117 7.98835C15.1491 8.12577 15.2278 8.31115 15.2312 8.50545C15.2346 8.69975 15.1625 8.8878 15.03 9.02997ZM8.51504 8.49998C8.51503 8.23562 8.6197 7.98202 8.80616 7.79463C8.99262 7.60724 9.24569 7.5013 9.51004 7.49998H9.52004C9.71782 7.49998 9.91116 7.55862 10.0756 7.66851C10.2401 7.77839 10.3682 7.93457 10.4439 8.11729C10.5196 8.30002 10.5394 8.50108 10.5008 8.69507C10.4622 8.88905 10.367 9.06723 10.2271 9.20708C10.0873 9.34693 9.90911 9.44218 9.71513 9.48076C9.52115 9.51935 9.32008 9.49954 9.13735 9.42385C8.95463 9.34817 8.79845 9.21999 8.68857 9.05555C8.57868 8.8911 8.52004 8.69776 8.52004 8.49998H8.51504ZM15.515 13.5C15.515 13.6973 15.4566 13.8903 15.3472 14.0545C15.2377 14.2187 15.0821 14.3469 14.9 14.4229C14.7178 14.4988 14.5173 14.5192 14.3236 14.4814C14.1299 14.4436 13.9517 14.3494 13.8115 14.2105C13.6712 14.0717 13.5752 13.8944 13.5355 13.7011C13.4958 13.5078 13.5142 13.3071 13.5883 13.1242C13.6625 12.9413 13.7891 12.7844 13.9522 12.6733C14.1153 12.5623 14.3077 12.5019 14.505 12.5H14.515C14.6468 12.4993 14.7774 12.5247 14.8993 12.5747C15.0212 12.6246 15.132 12.6982 15.2254 12.7911C15.3188 12.884 15.3929 12.9945 15.4434 13.1161C15.494 13.2378 15.52 13.3682 15.52 13.5H15.515Z"
    fill="#A3A8AF"
  />
</svg>
