<svg width="20" height="20" viewBox="0 0 20 20" fill="none" xmlns="http://www.w3.org/2000/svg">
<path d="M12.6667 11.245C12.6667 11.245 9.66667 14.495 9.66667 16.495C9.6612 16.8945 9.73445 17.2911 9.88225 17.6622C10.0301 18.0333 10.2495 18.3717 10.5281 18.658C11.0907 19.2362 11.86 19.5673 12.6667 19.5784C13.4734 19.5894 14.2514 19.2795 14.8297 18.7169C15.116 18.4384 15.3446 18.1061 15.5025 17.7392C15.6604 17.3722 15.7445 16.9778 15.75 16.5784V16.495C15.75 14.495 12.6667 11.245 12.6667 11.245ZM11.4417 10.1142L11.9992 9.51085L10.0833 4.16669H8.41667L4.25 15.8334H5.91667L7.10833 12.5H9.56083C10.1264 11.6591 10.754 10.8616 11.4383 10.1142H11.4417ZM9.25 6.50002L10.8 10.8334H7.70333L9.25 6.50002Z" fill="#46515F"/>
</svg>
