<svg width="24" height="24" viewBox="0 0 24 24" fill="none" xmlns="http://www.w3.org/2000/svg">
  <g clip-path="url(#clip0_14335_30300)">
    <path
      fill-rule="evenodd"
      clip-rule="evenodd"
      d="M7.5 2.625C7.20822 2.625 6.95525 2.8269 6.89056 3.11142L6.54475 4.63217C6.38481 5.33556 5.83556 5.88481 5.13216 6.04475L3.61141 6.39056C3.32691 6.45525 3.125 6.70822 3.125 7C3.125 7.29178 3.32691 7.54475 3.61141 7.60944L5.13216 7.95525C5.83556 8.11519 6.38481 8.66444 6.54475 9.36784L6.89056 10.8886C6.95525 11.1731 7.20822 11.375 7.5 11.375C7.79178 11.375 8.04475 11.1731 8.10944 10.8886L8.45525 9.36784C8.61519 8.66444 9.16444 8.11519 9.86784 7.95525L11.3886 7.60944C11.6731 7.54475 11.875 7.29178 11.875 7C11.875 6.70822 11.6731 6.45525 11.3886 6.39056L9.86784 6.04475C9.16444 5.88481 8.61519 5.33556 8.45525 4.63217L8.10944 3.11142C8.04475 2.8269 7.79178 2.625 7.5 2.625Z"
      fill="#A3A8AF"
    />
    <path
      d="M21.875 9.5C21.875 9.15481 21.5952 8.875 21.25 8.875H14.375C14.0298 8.875 13.75 9.15481 13.75 9.5C13.75 9.84519 14.0298 10.125 14.375 10.125H21.25C21.5952 10.125 21.875 9.84519 21.875 9.5Z"
      fill="#A3A8AF"
    />
    <path
      fill-rule="evenodd"
      clip-rule="evenodd"
      d="M22.2754 9.49998C22.2754 8.93387 21.8165 8.47498 21.2504 8.47498H14.3754C13.8093 8.47498 13.3504 8.93387 13.3504 9.49998C13.3504 10.0661 13.8093 10.525 14.3754 10.525H21.2504C21.8165 10.525 22.2754 10.0661 22.2754 9.49998ZM21.2504 8.87498C21.5956 8.87498 21.8754 9.15479 21.8754 9.49998C21.8754 9.84516 21.5956 10.125 21.2504 10.125H14.3754C14.0302 10.125 13.7504 9.84516 13.7504 9.49998C13.7504 9.15479 14.0302 8.87498 14.3754 8.87498H21.2504Z"
      fill="#A3A8AF"
    />
    <path
      d="M21.25 12.625C21.5952 12.625 21.875 12.9048 21.875 13.25C21.875 13.5952 21.5952 13.875 21.25 13.875H3.75C3.40481 13.875 3.125 13.5952 3.125 13.25C3.125 12.9048 3.40481 12.625 3.75 12.625H21.25Z"
      fill="#A3A8AF"
    />
    <path
      fill-rule="evenodd"
      clip-rule="evenodd"
      d="M22.2754 13.25C22.2754 12.6839 21.8165 12.225 21.2504 12.225H3.75039C3.18429 12.225 2.72539 12.6839 2.72539 13.25C2.72539 13.8161 3.18429 14.275 3.75039 14.275H21.2504C21.8165 14.275 22.2754 13.8161 22.2754 13.25ZM21.8754 13.25C21.8754 12.9048 21.5956 12.625 21.2504 12.625H3.75039C3.4052 12.625 3.12539 12.9048 3.12539 13.25C3.12539 13.5952 3.4052 13.875 3.75039 13.875H21.2504C21.5956 13.875 21.8754 13.5952 21.8754 13.25Z"
      fill="#A3A8AF"
    />
    <path
      d="M21.875 17C21.875 16.6548 21.5952 16.375 21.25 16.375H3.75C3.40481 16.375 3.125 16.6548 3.125 17C3.125 17.3452 3.40481 17.625 3.75 17.625H21.25C21.5952 17.625 21.875 17.3452 21.875 17Z"
      fill="#A3A8AF"
    />
    <path
      fill-rule="evenodd"
      clip-rule="evenodd"
      d="M22.2754 17C22.2754 16.4339 21.8165 15.975 21.2504 15.975H3.75039C3.18429 15.975 2.72539 16.4339 2.72539 17C2.72539 17.5661 3.18429 18.025 3.75039 18.025H21.2504C21.8165 18.025 22.2754 17.5661 22.2754 17ZM21.2504 16.375C21.5956 16.375 21.8754 16.6548 21.8754 17C21.8754 17.3452 21.5956 17.625 21.2504 17.625H3.75039C3.4052 17.625 3.12539 17.3452 3.12539 17C3.12539 16.6548 3.4052 16.375 3.75039 16.375H21.2504Z"
      fill="#A3A8AF"
    />
    <path
      d="M21.25 20.125C21.5952 20.125 21.875 20.4048 21.875 20.75C21.875 21.0952 21.5952 21.375 21.25 21.375H3.75C3.40481 21.375 3.125 21.0952 3.125 20.75C3.125 20.4048 3.40481 20.125 3.75 20.125H21.25Z"
      fill="#A3A8AF"
    />
    <path
      fill-rule="evenodd"
      clip-rule="evenodd"
      d="M22.2754 20.75C22.2754 20.1839 21.8165 19.725 21.2504 19.725H3.75039C3.18429 19.725 2.72539 20.1839 2.72539 20.75C2.72539 21.3161 3.18429 21.775 3.75039 21.775H21.2504C21.8165 21.775 22.2754 21.3161 22.2754 20.75ZM21.8754 20.75C21.8754 20.4048 21.5956 20.125 21.2504 20.125H3.75039C3.4052 20.125 3.12539 20.4048 3.12539 20.75C3.12539 21.0952 3.4052 21.375 3.75039 21.375H21.2504C21.5956 21.375 21.8754 21.0952 21.8754 20.75Z"
      fill="#A3A8AF"
    />
  </g>
  <defs>
    <clipPath id="clip0_14335_30300">
      <rect width="20" height="20" fill="white" transform="matrix(-1 0 0 1 22.5 2)" />
    </clipPath>
  </defs>
</svg>
