<svg width="24" height="24" viewBox="0 0 24 24" fill="none" xmlns="http://www.w3.org/2000/svg">
  <g clip-path="url(#clip0_14385_31118)">
    <path
      d="M5.5002 16.4C5.6002 16.5 5.7002 16.6 5.8002 16.6C5.9002 16.6 6.0002 16.7 6.2002 16.7C6.4002 16.7 6.5002 16.7 6.6002 16.6C6.7002 16.6 6.8002 16.5 6.9002 16.4C7.0002 16.3 7.1002 16.2 7.1002 16.1L8.6002 13H15.8002L17.3002 16.2C17.4002 16.3 17.4002 16.4 17.5002 16.5C17.6002 16.6 17.7002 16.7 17.8002 16.7C17.9002 16.7 18.0002 16.8 18.1002 16.8C18.3002 16.8 18.4002 16.8 18.5002 16.7C18.6002 16.6 18.7002 16.6 18.8002 16.5C18.9002 16.4 19.0002 16.3 19.0002 16.2C19.0002 16.1 19.1002 15.9 19.1002 15.8C19.1002 15.7 19.1002 15.5 19.0002 15.4L13.0002 2.6C12.9002 2.4 12.8002 2.3 12.6002 2.2C12.4002 2.1 12.4002 2 12.3002 2C12.2002 2 11.9002 2.1 11.7002 2.2C11.6002 2.3 11.4002 2.4 11.3002 2.6L5.3002 15.3C5.2002 15.4 5.2002 15.5 5.2002 15.7C5.2002 15.8 5.2002 16 5.3002 16.1C5.4002 16.2 5.4002 16.3 5.5002 16.4ZM9.60019 11L12.3002 5.3L14.9002 11H9.60019Z"
      fill="#A2A5AC"
    />
    <path
      d="M21.2 19.5C21 19.3 20.8 19.2 20.5 19.2H4C3.7 19.2 3.5 19.3 3.3 19.5C3.1 19.7 3 19.9999 3 20.2999C3 20.5999 3.1 20.8 3.3 21C3.5 21.2 3.7 21.2999 4 21.2999H20.5C20.8 21.2999 21 21.2 21.2 21C21.4 20.8 21.5 20.5999 21.5 20.2999C21.5 19.9999 21.4 19.7 21.2 19.5Z"
      fill="#A2A5AC"
    />
  </g>
  <defs>
    <clipPath id="clip0_14385_31118">
      <rect width="18.5" height="19.3" fill="white" transform="translate(3 2)" />
    </clipPath>
  </defs>
</svg>
