<svg width="24" height="23" viewBox="0 0 24 23" fill="none" xmlns="http://www.w3.org/2000/svg">
<path d="M12.7401 10.432C12.5777 10.3173 12.4675 10.1427 12.4338 9.94677C12.4 9.75081 12.4455 9.54946 12.5601 9.387L13.7861 7.647C13.8062 7.6254 13.8276 7.60503 13.8501 7.586C13.8933 7.53305 13.9438 7.48658 14.0001 7.448C14.1264 7.36692 14.2742 7.32575 14.4242 7.32985C14.5742 7.33395 14.7195 7.38314 14.8411 7.471L16.5641 8.685C16.7151 8.80397 16.8147 8.97632 16.8425 9.16654C16.8702 9.35676 16.824 9.55038 16.7132 9.70752C16.6025 9.86465 16.4357 9.97334 16.2472 10.0112C16.0588 10.0491 15.8629 10.0132 15.7001 9.911L15.4591 9.74L15.8381 11.888C15.8727 12.0839 15.8281 12.2854 15.7141 12.4484C15.6001 12.6114 15.426 12.7224 15.2301 12.757C15.1869 12.7649 15.1431 12.7689 15.0991 12.769C14.9229 12.7689 14.7523 12.7066 14.6173 12.5933C14.4824 12.4799 14.3917 12.3226 14.3611 12.149L13.9791 9.984L13.7911 10.251C13.6758 10.413 13.5013 10.5229 13.3054 10.5568C13.1095 10.5907 12.9081 10.5458 12.7451 10.432H12.7401ZM8.83412 9.218C8.70677 8.71603 8.6824 8.19346 8.76249 7.68182C8.84258 7.17017 9.02547 6.68005 9.30012 6.241C9.61913 5.83273 10.0177 5.49344 10.4716 5.24368C10.9256 4.99393 11.4255 4.83891 11.9411 4.788L15.5741 4.146C18.0361 3.712 19.5741 4.785 20.0041 7.246L20.6451 10.88C20.773 11.3818 20.798 11.9042 20.7184 12.4159C20.6388 12.9276 20.4564 13.4178 20.1821 13.857C19.8633 14.2652 19.4649 14.6045 19.0111 14.8542C18.5573 15.104 18.0576 15.259 17.5421 15.31L13.9081 15.951C13.5746 16.0125 13.2363 16.0443 12.8971 16.046C11.0241 16.046 9.85012 14.956 9.47912 12.846L8.83412 9.218ZM10.3111 8.958L10.9511 12.592C11.2421 14.238 11.9951 14.767 13.6451 14.478L17.2781 13.836C17.9236 13.7888 18.5243 13.4883 18.9491 13C19.2629 12.434 19.3402 11.7668 19.1641 11.144L18.5231 7.51C18.2821 6.146 17.7231 5.548 16.6031 5.548C16.3437 5.5509 16.0851 5.57633 15.8301 5.624L12.2001 6.265C11.5545 6.31247 10.9538 6.61335 10.5291 7.102C10.2143 7.66764 10.1359 8.33481 10.3111 8.958ZM21.7381 16.65C21.7554 16.747 21.7533 16.8464 21.7321 16.9426C21.7109 17.0389 21.6709 17.1299 21.6144 17.2106C21.5579 17.2914 21.4861 17.3602 21.403 17.4131C21.3199 17.466 21.2272 17.502 21.1301 17.519L10.7141 19.352C10.6523 19.8425 10.4592 20.3071 10.155 20.6969C9.85085 21.0866 9.44703 21.3868 8.98625 21.5659C8.52547 21.745 8.02485 21.7962 7.53736 21.7142C7.04986 21.6321 6.5936 21.4198 6.21682 21.0998C5.84005 20.7798 5.55677 20.3638 5.39694 19.896C5.23711 19.4282 5.20668 18.9259 5.30886 18.4422C5.41104 17.9586 5.64204 17.5115 5.97742 17.1483C6.3128 16.7851 6.7401 16.5193 7.21412 16.379L5.17212 4.78C5.11245 4.4538 4.92619 4.16444 4.65399 3.97504C4.38178 3.78564 4.04572 3.71157 3.71912 3.769L3.12512 3.869C2.92948 3.90104 2.72911 3.85432 2.56782 3.73905C2.40653 3.62378 2.29744 3.44934 2.2644 3.25386C2.23136 3.05839 2.27705 2.85778 2.3915 2.6959C2.50594 2.53403 2.67982 2.42404 2.87512 2.39L3.46512 2.29C4.18242 2.16768 4.91902 2.33326 5.51497 2.75078C6.11092 3.1683 6.51811 3.80406 6.64812 4.52L8.72912 16.36C9.1163 16.4667 9.4754 16.6569 9.78119 16.9173C10.087 17.1776 10.332 17.5018 10.4991 17.867L20.8701 16.042C20.9671 16.0246 21.0665 16.0266 21.1627 16.0477C21.2589 16.0689 21.3499 16.1089 21.4306 16.1654C21.5113 16.2219 21.58 16.2938 21.6328 16.377C21.6855 16.4602 21.7213 16.5529 21.7381 16.65ZM9.25012 19C9.25012 18.7528 9.17681 18.5111 9.03946 18.3055C8.90211 18.1 8.70688 17.9398 8.47848 17.8452C8.25007 17.7505 7.99874 17.7258 7.75626 17.774C7.51378 17.8223 7.29105 17.9413 7.11624 18.1161C6.94142 18.2909 6.82237 18.5137 6.77414 18.7561C6.72591 18.9986 6.75066 19.2499 6.84527 19.4784C6.93988 19.7068 7.1001 19.902 7.30566 20.0393C7.51122 20.1767 7.7529 20.25 8.00012 20.25C8.33148 20.2495 8.64912 20.1176 8.88342 19.8833C9.11773 19.649 9.24959 19.3314 9.25012 19Z" fill="#A3A8AF"/>
</svg>
