<svg width="24" height="24" viewBox="0 0 24 24" fill="none" xmlns="http://www.w3.org/2000/svg">
<path d="M18 2.25H6C3.582 2.25 2.25 3.664 2.25 6.231V13.769C2.25 16.336 3.582 17.75 6 17.75H18C20.418 17.75 21.75 16.336 21.75 13.769V6.231C21.75 3.664 20.418 2.25 18 2.25ZM20.25 13.769C20.25 15.508 19.577 16.25 18 16.25H6C4.423 16.25 3.75 15.508 3.75 13.769V6.231C3.75 4.492 4.423 3.75 6 3.75H18C19.577 3.75 20.25 4.492 20.25 6.231V13.769ZM17.75 20C17.75 20.1989 17.671 20.3897 17.5303 20.5303C17.3897 20.671 17.1989 20.75 17 20.75H7C6.80109 20.75 6.61032 20.671 6.46967 20.5303C6.32902 20.3897 6.25 20.1989 6.25 20C6.25 19.8011 6.32902 19.6103 6.46967 19.4697C6.61032 19.329 6.80109 19.25 7 19.25H17C17.1989 19.25 17.3897 19.329 17.5303 19.4697C17.671 19.6103 17.75 19.8011 17.75 20Z" fill="#A3A8AF"/>
<path d="M11.2089 13.9211C11.2091 14.0344 11.1758 14.1453 11.1132 14.2396C11.0505 14.334 10.9612 14.4077 10.8567 14.4514C10.7522 14.4951 10.6371 14.5068 10.5259 14.4851C10.4147 14.4634 10.3124 14.4092 10.232 14.3294C10.1516 14.2496 10.0966 14.1478 10.074 14.0368C10.0514 13.9258 10.0622 13.8106 10.1051 13.7057C10.1479 13.6008 10.2209 13.511 10.3148 13.4476C10.4086 13.3841 10.5192 13.35 10.6325 13.3493H10.6371C10.7887 13.3493 10.9342 13.4096 11.0414 13.5168C11.1486 13.624 11.2089 13.7695 11.2089 13.9211ZM14.2967 13.3493H14.2922C14.1401 13.3499 13.9945 13.4108 13.8873 13.5187C13.7801 13.6265 13.72 13.7725 13.7203 13.9246C13.7206 14.0766 13.7813 14.2224 13.8889 14.3298C13.9965 14.4372 14.1424 14.4975 14.2945 14.4975C14.4465 14.4975 14.5924 14.4372 14.7 14.3298C14.8076 14.2224 14.8683 14.0766 14.8686 13.9246C14.8689 13.7725 14.8088 13.6265 14.7016 13.5187C14.5944 13.4108 14.4488 13.3499 14.2967 13.3493ZM16.4399 8.19922L15.9761 11.0199C15.9646 11.226 15.9109 11.4276 15.8184 11.6122C15.7259 11.7967 15.5965 11.9603 15.4382 12.0929C15.28 12.2255 15.0962 12.3242 14.8983 12.3829C14.7004 12.4417 14.4925 12.4592 14.2876 12.4344H10.5062C10.2038 12.4331 9.91192 12.3234 9.68352 12.1252C9.45512 11.927 9.30537 11.6535 9.26147 11.3543L8.56933 6.5208C8.54934 6.38506 8.48144 6.26095 8.3779 6.17092C8.27436 6.08089 8.14202 6.03088 8.00482 6.02994H7.88313C7.79214 6.02994 7.70487 5.99379 7.64053 5.92945C7.57619 5.86511 7.54004 5.77784 7.54004 5.68685C7.54004 5.59585 7.57619 5.50858 7.64053 5.44424C7.70487 5.3799 7.79214 5.34375 7.88313 5.34375H8.00482C8.30721 5.34504 8.59912 5.45473 8.82752 5.65291C9.05592 5.8511 9.20567 6.12462 9.24957 6.42382L9.29166 6.71613H15.2025C15.3868 6.71611 15.5688 6.75657 15.7358 6.83466C15.9027 6.91274 16.0504 7.02655 16.1685 7.16803C16.2866 7.3095 16.3721 7.47519 16.4191 7.65338C16.4661 7.83158 16.4729 8.01791 16.4399 8.19922ZM15.3 10.9019L15.3489 10.6032H12.4577C12.3668 10.6032 12.2795 10.567 12.2151 10.5027C12.1508 10.4383 12.1146 10.3511 12.1146 10.2601C12.1146 10.1691 12.1508 10.0818 12.2151 10.0175C12.2795 9.95314 12.3668 9.91699 12.4577 9.91699H15.4619L15.7638 8.08074C15.7795 7.99813 15.7768 7.91308 15.7558 7.83165C15.7348 7.75022 15.6962 7.67441 15.6426 7.60963C15.589 7.54484 15.5218 7.49268 15.4457 7.45685C15.3696 7.42101 15.2866 7.4024 15.2025 7.40232H9.38955L9.93851 11.2573C9.95858 11.3936 10.0269 11.5182 10.1312 11.6083C10.2354 11.6984 10.3685 11.748 10.5062 11.7482H14.2876C15.0195 11.7482 15.1961 11.4756 15.3 10.9019Z" fill="#A3A8AF" stroke="#A3A8AF" stroke-width="0.6"/>
</svg>
