<svg width="24" height="24" viewBox="0 0 24 24" fill="none" xmlns="http://www.w3.org/2000/svg">
<path d="M21 4.5H3C2.60218 4.5 2.22064 4.65804 1.93934 4.93934C1.65804 5.22064 1.5 5.60218 1.5 6V8.25C1.5 8.64782 1.65804 9.02936 1.93934 9.31066C2.22064 9.59196 2.60218 9.75 3 9.75V18C3 18.3978 3.15804 18.7794 3.43934 19.0607C3.72064 19.342 4.10218 19.5 4.5 19.5H19.5C19.8978 19.5 20.2794 19.342 20.5607 19.0607C20.842 18.7794 21 18.3978 21 18V9.75C21.3978 9.75 21.7794 9.59196 22.0607 9.31066C22.342 9.02936 22.5 8.64782 22.5 8.25V6C22.5 5.60218 22.342 5.22064 22.0607 4.93934C21.7794 4.65804 21.3978 4.5 21 4.5ZM19.5 18H4.5V9.75H19.5V18ZM21 8.25H3V6H21V8.25Z" fill="#A3A8AF"/>
<path d="M13.2644 13.602L14.6871 12.2386C14.9828 11.9553 14.9828 11.4958 14.6871 11.2125C14.3915 10.9292 13.912 10.9292 13.6164 11.2125L12.1937 12.5759L10.771 11.2125C10.4754 10.9292 9.99595 10.9292 9.70027 11.2125C9.4046 11.4958 9.4046 11.9553 9.70027 12.2386L11.1229 13.602L9.70027 14.9654C9.4047 15.2487 9.4047 15.7082 9.70037 15.9915C9.84821 16.1332 10.042 16.2041 10.2357 16.2041C10.4295 16.2041 10.6233 16.1332 10.7711 15.9915L12.1937 14.6281L13.6164 15.9915C13.7643 16.1332 13.958 16.2041 14.1518 16.2041C14.3455 16.2041 14.5393 16.1332 14.6871 15.9915C14.9828 15.7082 14.9828 15.2488 14.6871 14.9654L13.2644 13.602Z" fill="#A3A8AF"/>
</svg>
