<svg width="32" height="32" viewBox="0 0 32 32" fill="none" xmlns="http://www.w3.org/2000/svg">
<path d="M16.2134 14.4932C16.0801 14.4798 15.9201 14.4798 15.7734 14.4932C12.6001 14.3865 10.0801 11.7865 10.0801 8.5865C10.0801 5.31984 12.7201 2.6665 16.0001 2.6665C19.2667 2.6665 21.9201 5.31984 21.9201 8.5865C21.9067 11.7865 19.3867 14.3865 16.2134 14.4932Z" stroke="#0088FF" stroke-width="1.5" stroke-linecap="round" stroke-linejoin="round"/>
<ellipse cx="16" cy="24" rx="9" ry="6" fill="#6CBBFF"/>
<path d="M9.54695 19.4135C6.32029 21.5735 6.32029 25.0935 9.54695 27.2402C13.2136 29.6935 19.227 29.6935 22.8936 27.2402C26.1203 25.0802 26.1203 21.5602 22.8936 19.4135C19.2403 16.9735 13.227 16.9735 9.54695 19.4135Z" stroke="#0088FF" stroke-width="1.5" stroke-linecap="round" stroke-linejoin="round"/>
</svg>
