<svg width="33" height="32" viewBox="0 0 33 32" fill="none" xmlns="http://www.w3.org/2000/svg">
<ellipse cx="12.6665" cy="23" rx="9" ry="6" fill="#6CBBFF"/>
<path d="M12.8799 14.4932C12.7466 14.4798 12.5866 14.4798 12.4399 14.4932C9.26658 14.3865 6.74658 11.7865 6.74658 8.5865C6.74658 5.31984 9.38658 2.6665 12.6666 2.6665C15.9332 2.6665 18.5866 5.31984 18.5866 8.5865C18.5732 11.7865 16.0532 14.3865 12.8799 14.4932Z" stroke="#0088FF" stroke-width="1.5" stroke-linecap="round" stroke-linejoin="round"/>
<path d="M22.5464 5.3335C25.133 5.3335 27.213 7.42683 27.213 10.0002C27.213 12.5202 25.213 14.5735 22.7197 14.6668C22.613 14.6535 22.493 14.6535 22.373 14.6668" stroke="#0088FF" stroke-width="1.5" stroke-linecap="round" stroke-linejoin="round"/>
<path d="M6.21346 19.4135C2.98679 21.5735 2.98679 25.0935 6.21346 27.2402C9.88012 29.6935 15.8935 29.6935 19.5601 27.2402C22.7868 25.0802 22.7868 21.5602 19.5601 19.4135C15.9068 16.9735 9.89346 16.9735 6.21346 19.4135Z" stroke="#0088FF" stroke-width="1.5" stroke-linecap="round" stroke-linejoin="round"/>
<path d="M25.1196 26.6665C26.0796 26.4665 26.9863 26.0798 27.733 25.5065C29.813 23.9465 29.813 21.3732 27.733 19.8132C26.9996 19.2532 26.1063 18.8798 25.1596 18.6665" stroke="#0088FF" stroke-width="1.5" stroke-linecap="round" stroke-linejoin="round"/>
</svg>
