<svg width="24" height="24" viewBox="0 0 24 24" fill="none" xmlns="http://www.w3.org/2000/svg">
<path d="M18.75 3H5.25C4.00912 3 3 4.00912 3 5.25V18.75C3 19.9909 4.00912 21 5.25 21H18.75C19.9909 21 21 19.9909 21 18.75V5.25C21 4.00912 19.9909 3 18.75 3ZM14.25 4.5V19.5H9.75V4.5H14.25ZM4.5 18.75V5.25C4.5 4.83637 4.83637 4.5 5.25 4.5H8.25V19.5H5.25C4.83637 19.5 4.5 19.1636 4.5 18.75ZM19.5 18.75C19.5 19.1636 19.1636 19.5 18.75 19.5H15.75V4.5H18.75C19.1636 4.5 19.5 4.83637 19.5 5.25V18.75Z" fill="#A3A8AF"/>
</svg>
