<svg viewBox="0 0 24 24" fill="none" xmlns="http://www.w3.org/2000/svg">
<path d="M3.74012 6.32915L3.59927 6.38075C3.45975 5.9999 3.47715 5.58682 3.64817 5.21907C3.81918 4.85131 4.12384 4.57182 4.50495 4.43312L3.74012 6.32915ZM3.74012 6.32915L3.59927 6.38075L3.80756 6.94928C2.70124 7.11447 1.85 8.07025 1.85 9.222V19.847C1.85 21.1145 2.88095 22.1454 4.14844 22.1454H18.6797C19.9472 22.1454 20.9781 21.1145 20.9781 19.847V17.5352C21.6489 17.3785 22.15 16.7761 22.15 16.0579V12.9329C22.15 12.2148 21.6489 11.6124 20.9781 11.4557V9.222C20.9781 8.03146 20.0685 7.05031 18.9078 6.9354V5.62825C18.9078 4.79154 18.2273 4.11106 17.3906 4.11106H13.7321L13.2817 2.85923C13.1443 2.47718 12.8655 2.17126 12.4979 1.99898V1.99898C12.1302 1.82667 11.7167 1.80827 11.3352 1.94714L4.50495 4.43312L3.74012 6.32915ZM4.98131 5.87442L4.84047 5.92602L11.8386 3.33026C11.8469 3.32725 11.8535 3.32708 11.8589 3.32773C11.8651 3.32847 11.8704 3.33042 11.8734 3.33184C11.8764 3.33324 11.8812 3.33602 11.8858 3.34028C11.8897 3.34401 11.8937 3.34913 11.8967 3.35746L11.8967 3.35751L12.1679 4.1111H12.1172C11.2805 4.1111 10.6 4.79158 10.6 5.62829V6.9236H5.36569L4.98131 5.87442ZM20.6781 16.0579C20.6781 16.0828 20.6577 16.1033 20.6328 16.1033H17.5078C16.6214 16.1033 15.9 15.3819 15.9 14.4954C15.9 13.609 16.6214 12.8876 17.5078 12.8876H20.6328C20.6577 12.8876 20.6781 12.9081 20.6781 12.9329V16.0579ZM17.4359 5.62825V6.92356H12.0719V5.62825C12.0719 5.6034 12.0923 5.58294 12.1172 5.58294H17.3906C17.4155 5.58294 17.4359 5.6034 17.4359 5.62825ZM18.6797 20.6736H4.14844C3.6928 20.6736 3.32187 20.3026 3.32187 19.847V9.222C3.32187 8.76637 3.6928 8.39544 4.14844 8.39544H18.6797C19.1353 8.39544 19.5063 8.76637 19.5063 9.222V11.4158H17.5078C15.8095 11.4158 14.4281 12.7972 14.4281 14.4954C14.4281 16.1937 15.8095 17.5751 17.5078 17.5751H19.5063V19.847C19.5063 20.3026 19.1353 20.6736 18.6797 20.6736Z" fill="#A3A8AF" stroke="#A3A8AF" stroke-width="0.3"/>
<path d="M17.5078 15.2311C17.9143 15.2311 18.2437 14.9016 18.2437 14.4951C18.2437 14.0887 17.9143 13.7592 17.5078 13.7592C17.1014 13.7592 16.7719 14.0887 16.7719 14.4951C16.7719 14.9016 17.1014 15.2311 17.5078 15.2311Z" fill="#A3A8AF" stroke="#A3A8AF" stroke-width="0.3"/>
</svg>

