<svg width="24" height="24" viewBox="0 0 24 24" fill="none" xmlns="http://www.w3.org/2000/svg">
<path d="M20.591 6.61889L13.336 2.59989C12.9279 2.37174 12.4681 2.25195 12.0005 2.25195C11.5329 2.25195 11.0731 2.37174 10.665 2.59989L3.409 6.61889C3.0579 6.81355 2.76528 7.0986 2.56148 7.44447C2.35769 7.79035 2.25014 8.18445 2.25 8.58589V19.4999C2.25079 20.0964 2.4881 20.6682 2.90989 21.09C3.33167 21.5118 3.90351 21.7491 4.5 21.7499H19.5C20.0965 21.7491 20.6683 21.5118 21.0901 21.09C21.5119 20.6682 21.7492 20.0964 21.75 19.4999V8.58589C21.7499 8.18445 21.6423 7.79035 21.4385 7.44447C21.2347 7.0986 20.9421 6.81355 20.591 6.61889ZM7.25 15.7499H16.75V17.2499H7.25V15.7499ZM16.75 14.2499H7.25V13.4999C7.25 12.9109 7.411 12.7499 8 12.7499H16C16.589 12.7499 16.75 12.9109 16.75 13.4999V14.2499ZM7.25 18.7499H16.75V20.2499H7.25V18.7499ZM20.25 19.4999C20.2497 19.6987 20.1706 19.8893 20.03 20.0299C19.8894 20.1705 19.6988 20.2496 19.5 20.2499H18.25V13.4999C18.2782 13.1974 18.2394 12.8924 18.1363 12.6066C18.0332 12.3208 17.8684 12.0612 17.6535 11.8464C17.4387 11.6315 17.1791 11.4667 16.8933 11.3636C16.6075 11.2605 16.3025 11.2217 16 11.2499H8C7.69749 11.2217 7.39247 11.2605 7.10667 11.3636C6.82088 11.4667 6.56132 11.6315 6.34648 11.8464C6.13164 12.0612 5.96681 12.3208 5.86371 12.6066C5.76061 12.8924 5.72179 13.1974 5.75 13.4999V20.2499H4.5C4.30117 20.2496 4.11056 20.1705 3.96996 20.0299C3.82937 19.8893 3.75026 19.6987 3.75 19.4999V8.58589C3.74992 8.45218 3.78569 8.32089 3.85358 8.2057C3.92146 8.0905 4.01899 7.9956 4.136 7.93089L11.393 3.90689C11.5787 3.80329 11.7878 3.74891 12.0005 3.74891C12.2132 3.74891 12.4223 3.80329 12.608 3.90689L19.864 7.93089C19.981 7.9956 20.0785 8.0905 20.1464 8.2057C20.2143 8.32089 20.2501 8.45218 20.25 8.58589V19.4999ZM14.25 7.99989C14.25 8.19881 14.171 8.38957 14.0303 8.53022C13.8897 8.67088 13.6989 8.74989 13.5 8.74989H10.5C10.3011 8.74989 10.1103 8.67088 9.96967 8.53022C9.82902 8.38957 9.75 8.19881 9.75 7.99989C9.75 7.80098 9.82902 7.61021 9.96967 7.46956C10.1103 7.32891 10.3011 7.24989 10.5 7.24989H13.5C13.6989 7.24989 13.8897 7.32891 14.0303 7.46956C14.171 7.61021 14.25 7.80098 14.25 7.99989Z" fill="#A3A8AF"/>
</svg>
