<svg width="32" height="32" viewBox="0 0 32 32" fill="none" xmlns="http://www.w3.org/2000/svg">
<path fill-rule="evenodd" clip-rule="evenodd" d="M14.8237 3.85552C15.525 3.34549 16.475 3.34549 17.1763 3.85552L28.1763 11.8555C28.6938 12.2319 29 12.8331 29 13.473V27C29 28.1046 28.1046 29 27 29H25.0606V19.2521C25.0606 19.0544 25.0041 18.862 24.8996 18.6951C24.8523 18.6195 24.7952 18.5491 24.729 18.4856C24.6357 18.3963 24.5274 18.3242 24.4101 18.2715C24.2606 18.2044 24.0961 18.1684 23.928 18.1684H8.07197C7.77171 18.1684 7.48337 18.2827 7.27101 18.4856C7.1783 18.5745 7.10328 18.677 7.04827 18.7884C6.97729 18.932 6.93939 19.0902 6.93939 19.2521V29H5C3.89543 29 3 28.1046 3 27V13.473C3 12.8331 3.30617 12.2319 3.82366 11.8555L14.8237 3.85552ZM9.20474 27.377C9.20474 28.2734 9.93137 29 10.8277 29H21.1727C22.069 29 22.7956 28.2734 22.7956 27.377C22.7956 26.4807 22.069 25.754 21.1727 25.754H10.8277C9.93137 25.754 9.20474 26.4807 9.20474 27.377ZM13.735 13.8339H18.2653C18.6702 13.8339 19.044 13.6275 19.2463 13.2921C19.4485 12.957 19.4485 12.5438 19.2463 12.2085C19.044 11.8733 18.6702 11.6667 18.2653 11.6667H13.735C13.3305 11.6667 12.9564 11.8733 12.7542 12.2085C12.5521 12.5438 12.5521 12.957 12.7542 13.2921C12.9564 13.6275 13.3305 13.8339 13.735 13.8339ZM22.7956 21.9613C22.7956 21.0636 22.0679 20.3358 21.1702 20.3358H10.8302C9.93249 20.3358 9.20474 21.0636 9.20474 21.9613C9.20474 22.859 9.93249 23.5868 10.8302 23.5868H21.1702C22.0679 23.5868 22.7956 22.859 22.7956 21.9613Z" fill="white"/>
</svg>
