<svg xmlns="http://www.w3.org/2000/svg" width="24" height="24" viewBox="0 0 24 24" fill="none">
  <path
    d="M22.3244 13.6757C23.2498 7.97367 19.3776 2.60108 13.6756 1.67568C7.97357 0.750282 2.60099 4.6225 1.67559 10.3245C0.750185 16.0265 4.6224 21.3991 10.3244 22.3245C16.0264 23.2499 21.399 19.3777 22.3244 13.6757Z"
    fill="#FFD05D"
  />
  <path
    d="M17.4698 3.07373C18.5116 4.69957 19.1153 6.63339 19.1153 8.7071C19.1153 14.4828 14.4329 19.1664 8.65597 19.1664C6.64975 19.1664 4.77605 18.6008 3.18457 17.6216C5.04354 20.5235 8.29645 22.4463 11.9984 22.4463C17.7741 22.4463 22.4578 17.7639 22.4578 11.987C22.4566 8.2175 20.4614 4.9143 17.4698 3.07373Z"
    fill="#FDC453"
  />
  <path
    d="M2.95955 13.1039C2.95955 7.74045 7.30697 3.39303 12.6704 3.39303C15.8055 3.39303 18.5921 4.87898 20.3676 7.1846C18.6903 4.27405 15.5478 2.31445 11.9477 2.31445C6.58424 2.31445 2.23682 6.66188 2.23682 12.0253C2.23682 14.2536 2.98777 16.3065 4.2504 17.9446C3.4295 16.5187 2.95955 14.8659 2.95955 13.1039Z"
    fill="#FFD77F"
  />
  <path
    d="M7.55225 14.1406C7.80379 16.3726 9.69835 18.1089 11.9978 18.1089C14.2973 18.1089 16.1907 16.3738 16.4434 14.1406H7.55225Z"
    fill="#695342"
  />
  <path
    d="M8.92676 16.8867C9.72802 17.6437 10.8078 18.1088 11.9968 18.1088C13.1355 18.1088 14.1736 17.683 14.9626 16.9836L14.9221 16.8879C11.9367 15.4314 8.96725 16.867 8.92676 16.8867Z"
    fill="#F06669"
  />
  <path
    d="M10.5549 8.95862C10.5549 8.95371 10.5549 8.9488 10.5549 8.94267C10.5549 7.97698 9.85669 7.09229 8.80634 7.09229C7.97195 7.09229 7.48727 7.69231 7.32285 8.25307C7.1572 7.69108 6.67374 7.09229 5.83934 7.09229C4.78899 7.09229 4.0908 7.97698 4.0908 8.94267C4.0908 8.94758 4.0908 8.95249 4.0908 8.95862C4.08467 9.16845 4.09081 11.3072 7.32162 13.0496C10.5549 11.3072 10.561 9.16967 10.5549 8.95862Z"
    fill="#E62728"
  />
  <path
    d="M19.904 8.95862C19.904 8.95371 19.904 8.9488 19.904 8.94267C19.904 7.97698 19.2058 7.09229 18.1555 7.09229C17.3211 7.09229 16.8364 7.69231 16.672 8.25307C16.5063 7.69108 16.0228 7.09229 15.1885 7.09229C14.1381 7.09229 13.4399 7.97698 13.4399 8.94267C13.4399 8.94758 13.4399 8.95249 13.4399 8.95862C13.4338 9.16845 13.4399 11.3072 16.6707 13.0496C19.904 11.3072 19.9101 9.16967 19.904 8.95862Z"
    fill="#E62728"
  />
</svg>
