<svg xmlns="http://www.w3.org/2000/svg" width="24" height="24" viewBox="0 0 24 24" fill="none">
  <path
    d="M22.3234 13.6757C23.2488 7.97367 19.3766 2.60109 13.6746 1.67569C7.9726 0.750286 2.60001 4.6225 1.67461 10.3245C0.749209 16.0265 4.62142 21.3991 10.3234 22.3245C16.0255 23.2499 21.398 19.3777 22.3234 13.6757Z"
    fill="#E8EAEB"
  />
  <path
    d="M17.4708 3.07324C18.5126 4.69908 19.1163 6.6329 19.1163 8.70661C19.1163 14.4823 14.4339 19.1659 8.65695 19.1659C6.65072 19.1659 4.77703 18.6003 3.18555 17.6211C5.04452 20.5231 8.29742 22.4458 11.9994 22.4458C17.7751 22.4458 22.4588 17.7634 22.4588 11.9865C22.4575 8.21702 20.4624 4.91381 17.4708 3.07324Z"
    fill="#D3D5D7"
  />
  <path
    d="M2.96101 13.1034C2.96101 7.73996 7.30844 3.39254 12.6719 3.39254C15.807 3.39254 18.5936 4.87849 20.3691 7.18411C18.6917 4.27356 15.5493 2.31396 11.9491 2.31396C6.58571 2.31396 2.23828 6.66139 2.23828 12.0248C2.23828 14.2531 2.98923 16.306 4.25186 17.9441C3.43097 16.5182 2.96101 14.8654 2.96101 13.1034Z"
    fill="#F3F4F5"
  />
  <path
    d="M16.4439 17.0134C16.1924 14.7814 14.2978 13.0464 11.9983 13.0464C9.69884 13.0464 7.80551 14.7814 7.55273 17.0134H16.4439Z"
    fill="#747C87"
  />
  <path d="M7.55273 17.0137C7.55273 17.0137 11.3038 14.2479 16.4439 17.0137H7.55273Z" fill="#A3A8AF" />
  <path
    d="M6.35623 12.1685C6.22371 12.1685 6.09364 12.1096 6.00652 11.9979C5.85559 11.8053 5.89118 11.5268 6.08382 11.3758L7.59186 10.2003L6.03229 9.28372C5.82124 9.15979 5.7513 8.88738 5.87523 8.67633C5.99916 8.46528 6.27156 8.39534 6.48261 8.51927L8.60418 9.76717C8.73056 9.84202 8.81277 9.97332 8.82136 10.1206C8.83118 10.2666 8.76738 10.4089 8.65203 10.4997L6.62863 12.0765C6.54765 12.1391 6.45194 12.1685 6.35623 12.1685Z"
    fill="#747C87"
  />
  <path
    d="M17.6404 12.1683C17.5447 12.1683 17.449 12.1376 17.368 12.075L15.3446 10.4983C15.2293 10.4075 15.1655 10.2663 15.1753 10.1191C15.1851 9.97308 15.2661 9.84056 15.3925 9.76571L17.5141 8.51781C17.7251 8.39387 17.9963 8.46382 18.1214 8.67487C18.2454 8.88592 18.1754 9.1571 17.9644 9.28226L16.4048 10.1989L17.9128 11.3744C18.1055 11.5253 18.1411 11.8038 17.9901 11.9965C17.903 12.1106 17.7717 12.1683 17.6404 12.1683Z"
    fill="#747C87"
  />
</svg>
