<svg xmlns="http://www.w3.org/2000/svg" width="24" height="24" viewBox="0 0 24 24" fill="none">
  <path
    d="M19.1783 19.1788C23.1729 15.1843 23.1729 8.70782 19.1783 4.71326C15.1838 0.718704 8.70732 0.718704 4.71277 4.71326C0.718209 8.70782 0.718209 15.1843 4.71277 19.1788C8.70732 23.1734 15.1838 23.1734 19.1783 19.1788Z"
    fill="#FFD05D"
  />
  <path
    d="M17.2961 3.21631C18.3149 4.80631 18.9053 6.69751 18.9053 8.72551C18.9053 14.3739 14.3261 18.9543 8.67648 18.9543C6.71448 18.9543 4.88208 18.4011 3.32568 17.4435C5.14368 20.2815 8.32488 22.1619 11.9453 22.1619C17.5937 22.1619 22.1741 17.5827 22.1741 11.9331C22.1729 8.24671 20.2217 5.01631 17.2961 3.21631Z"
    fill="#FDC453"
  />
  <path
    d="M3.10621 13.0255C3.10621 7.78026 7.35782 3.52866 12.603 3.52866C15.669 3.52866 18.3942 4.98186 20.1306 7.23666C18.4914 4.38906 15.417 2.47266 11.8962 2.47266C6.65102 2.47266 2.39941 6.72426 2.39941 11.9695C2.39941 14.1487 3.13381 16.1563 4.36861 17.7583C3.56581 16.3651 3.10621 14.7487 3.10621 13.0255Z"
    fill="#FFD77F"
  />
  <path
    d="M8.93005 9.46465C8.93005 10.1666 8.59285 10.7354 8.17645 10.7354C7.76005 10.7354 7.42285 10.1666 7.42285 9.46465C7.42285 8.76265 7.76005 8.19385 8.17645 8.19385C8.59285 8.19385 8.93005 8.76265 8.93005 9.46465Z"
    fill="#303030"
  />
  <path
    d="M16.4672 9.46465C16.4672 10.1666 16.13 10.7354 15.7136 10.7354C15.2972 10.7354 14.96 10.1666 14.96 9.46465C14.96 8.76265 15.2972 8.19385 15.7136 8.19385C16.13 8.19385 16.4672 8.76265 16.4672 9.46465Z"
    fill="#303030"
  />
  <path
    d="M5.07178 12.9131C5.46178 16.3643 8.38858 19.0475 11.9442 19.0475C15.4998 19.0475 18.4278 16.3643 18.8166 12.9131H5.07178Z"
    fill="#695342"
  />
  <path
    d="M7.19727 17.1593C8.43567 18.3293 10.1061 19.0481 11.9445 19.0481C13.7037 19.0481 15.3093 18.3905 16.5297 17.3081L16.4661 17.1593C11.8521 14.9093 7.26087 17.1281 7.19727 17.1593Z"
    fill="#F06669"
  />
</svg>
