<svg width="125" height="36" viewBox="0 0 125 36" fill="none" xmlns="http://www.w3.org/2000/svg">
<path d="M123.923 31.8483C123.923 33.7668 122.337 35.3208 120.375 35.3208H4.2456C2.28434 35.3208 0.692383 33.7668 0.692383 31.8483V4.15635C0.692383 2.23877 2.28434 0.679321 4.2456 0.679321H120.374C122.337 0.679321 123.922 2.23877 123.922 4.15635L123.923 31.8483Z" fill="#212B35"/>
<path d="M120 0.721125C122.137 0.721125 123.876 2.4165 123.876 4.5V31.5C123.876 33.5835 122.137 35.2789 120 35.2789H4.61538C2.47846 35.2789 0.739615 33.5835 0.739615 31.5V4.5C0.739615 2.4165 2.47846 0.721125 4.61538 0.721125H120ZM120 1.90258e-06H4.61538C2.07808 1.90258e-06 0 2.02613 0 4.5V31.5C0 33.9739 2.07808 36 4.61538 36H120C122.537 36 124.615 33.9739 124.615 31.5V4.5C124.615 2.02613 122.537 1.90258e-06 120 1.90258e-06Z" fill="#A6A6A6"/>
<path d="M27.8104 17.8056C27.7836 14.9049 30.2464 13.4937 30.359 13.428C28.9643 11.4453 26.8024 11.1744 26.0427 11.1528C24.227 10.9665 22.4658 12.2121 21.5409 12.2121C20.5975 12.2121 19.1732 11.1708 17.6381 11.2014C15.6627 11.2311 13.8147 12.3462 12.8012 14.0778C10.7095 17.6085 12.2695 22.797 14.2735 25.6509C15.2759 27.0486 16.4473 28.6092 17.9806 28.5543C19.4806 28.494 20.0409 27.6219 21.851 27.6219C23.6446 27.6219 24.1707 28.5543 25.7344 28.5192C27.3443 28.494 28.3578 27.1152 29.3252 25.7049C30.4836 24.1029 30.9489 22.5252 30.9673 22.4442C30.9295 22.4316 27.8409 21.2823 27.8104 17.8056Z" fill="white"/>
<path d="M24.8566 9.27538C25.6633 8.29168 26.2153 6.95338 26.0621 5.59528C24.8944 5.64568 23.4341 6.38278 22.5932 7.34488C21.8492 8.19268 21.1846 9.58228 21.3563 10.8891C22.6679 10.9845 24.0147 10.2438 24.8566 9.27538Z" fill="white"/>
<path d="M49.5187 28.3536H47.4224L46.2741 24.8355H42.2827L41.1889 28.3536H39.1479L43.1024 16.3764H45.5449L49.5187 28.3536ZM45.9279 23.3595L44.8895 20.232C44.7796 19.9125 44.5738 19.1601 44.2701 17.9757H44.2332C44.1123 18.4851 43.9175 19.2375 43.6498 20.232L42.6298 23.3595H45.9279Z" fill="white"/>
<path d="M59.6884 23.9292C59.6884 25.398 59.2813 26.559 58.4671 27.4113C57.7379 28.17 56.8324 28.5489 55.7514 28.5489C54.5847 28.5489 53.7465 28.1403 53.236 27.3231H53.1991V31.8726H51.2311V22.5603C51.2311 21.6369 51.2062 20.6892 51.1582 19.7172H52.889L52.9988 21.0861H53.0357C53.692 20.0547 54.688 19.5399 56.0247 19.5399C57.0696 19.5399 57.9419 19.9422 58.6397 20.7477C59.3394 21.5541 59.6884 22.6143 59.6884 23.9292ZM57.6834 23.9994C57.6834 23.1588 57.4896 22.4658 57.1 21.9204C56.6745 21.3516 56.1031 21.0672 55.3868 21.0672C54.9013 21.0672 54.46 21.2256 54.0659 21.5379C53.6708 21.8529 53.4124 22.2642 53.2914 22.7736C53.2305 23.0112 53.2 23.2056 53.2 23.3586V24.7986C53.2 25.4268 53.3976 25.9569 53.7927 26.3898C54.1877 26.8227 54.701 27.0387 55.3324 27.0387C56.0736 27.0387 56.6505 26.7597 57.0631 26.2035C57.4767 25.6464 57.6834 24.912 57.6834 23.9994Z" fill="white"/>
<path d="M69.8762 23.9292C69.8762 25.398 69.4691 26.559 68.654 27.4113C67.9257 28.17 67.0202 28.5489 65.9392 28.5489C64.7725 28.5489 63.9343 28.1403 63.4248 27.3231H63.3878V31.8726H61.4198V22.5603C61.4198 21.6369 61.3949 20.6892 61.3469 19.7172H63.0777L63.1875 21.0861H63.2245C63.8798 20.0547 64.8759 19.5399 66.2134 19.5399C67.2574 19.5399 68.1297 19.9422 68.8294 20.7477C69.5263 21.5541 69.8762 22.6143 69.8762 23.9292ZM67.8712 23.9994C67.8712 23.1588 67.6765 22.4658 67.2869 21.9204C66.8614 21.3516 66.2918 21.0672 65.5746 21.0672C65.0882 21.0672 64.6478 21.2256 64.2528 21.5379C63.8577 21.8529 63.6002 22.2642 63.4792 22.7736C63.4192 23.0112 63.3878 23.2056 63.3878 23.3586V24.7986C63.3878 25.4268 63.5854 25.9569 63.9786 26.3898C64.3737 26.8218 64.8869 27.0387 65.5202 27.0387C66.2614 27.0387 66.8383 26.7597 67.2509 26.2035C67.6645 25.6464 67.8712 24.912 67.8712 23.9994Z" fill="white"/>
<path d="M81.2669 24.9948C81.2669 26.0136 80.9042 26.8425 80.1758 27.4824C79.3755 28.1817 78.2614 28.5309 76.8297 28.5309C75.5078 28.5309 74.4481 28.2825 73.646 27.7848L74.102 26.1855C74.966 26.6949 75.914 26.9505 76.9469 26.9505C77.6882 26.9505 78.2651 26.7867 78.6795 26.4609C79.0922 26.1351 79.298 25.6977 79.298 25.1523C79.298 24.6663 79.1281 24.2568 78.7875 23.9247C78.4488 23.5926 77.8829 23.2839 77.0928 22.9986C74.942 22.2165 73.8675 21.0708 73.8675 19.5642C73.8675 18.5796 74.2442 17.7723 74.9983 17.1441C75.7497 16.515 76.7521 16.2009 78.0057 16.2009C79.1235 16.2009 80.0522 16.3908 80.7934 16.7697L80.3014 18.3339C79.6091 17.9667 78.8263 17.7831 77.9503 17.7831C77.258 17.7831 76.7171 17.9496 76.3294 18.2808C76.0017 18.5769 75.8374 18.9378 75.8374 19.3653C75.8374 19.8387 76.0248 20.2302 76.4014 20.538C76.7291 20.8224 77.3245 21.1302 78.1885 21.4623C79.2454 21.8772 80.0217 22.3623 80.5211 22.9185C81.0186 23.4729 81.2669 24.1668 81.2669 24.9948Z" fill="white"/>
<path d="M87.7736 21.1572H85.6044V25.3503C85.6044 26.4168 85.9865 26.9496 86.7527 26.9496C87.1044 26.9496 87.3961 26.9199 87.6268 26.8605L87.6813 28.3176C87.2936 28.4589 86.7831 28.53 86.1508 28.53C85.3736 28.53 84.7662 28.2987 84.3278 27.837C83.8912 27.3744 83.6715 26.5986 83.6715 25.5087V21.1554H82.3792V19.7154H83.6715V18.1341L85.6044 17.5653V19.7154H87.7736V21.1572Z" fill="white"/>
<path d="M97.5613 23.9643C97.5613 25.2918 97.1717 26.3817 96.3945 27.234C95.5794 28.1115 94.4976 28.5489 93.1489 28.5489C91.8493 28.5489 90.8145 28.1286 90.0428 27.288C89.2711 26.4474 88.8853 25.3863 88.8853 24.1074C88.8853 22.7691 89.2822 21.6729 90.0788 20.8206C90.8736 19.9674 91.9462 19.5408 93.2948 19.5408C94.5945 19.5408 95.6403 19.9611 96.4296 20.8026C97.1846 21.6189 97.5613 22.6728 97.5613 23.9643ZM95.5194 24.0264C95.5194 23.2299 95.3449 22.5468 94.9914 21.9771C94.5788 21.2877 93.9889 20.9439 93.2246 20.9439C92.4336 20.9439 91.8326 21.2886 91.42 21.9771C91.0665 22.5477 90.892 23.2416 90.892 24.0624C90.892 24.8589 91.0665 25.542 91.42 26.1108C91.8456 26.8002 92.44 27.144 93.2071 27.144C93.9585 27.144 94.5483 26.793 94.9739 26.0928C95.3366 25.5123 95.5194 24.822 95.5194 24.0264Z" fill="white"/>
<path d="M103.958 21.4047C103.763 21.3696 103.556 21.3516 103.338 21.3516C102.645 21.3516 102.11 21.6063 101.733 22.1166C101.406 22.5666 101.241 23.1354 101.241 23.8221V28.3536H99.2744L99.2928 22.437C99.2928 21.4416 99.2679 20.5353 99.219 19.7181H100.933L101.005 21.3705H101.06C101.267 20.8026 101.595 20.3454 102.044 20.0025C102.482 19.6938 102.956 19.5399 103.466 19.5399C103.648 19.5399 103.812 19.5525 103.958 19.575V21.4047Z" fill="white"/>
<path d="M112.76 23.6268C112.76 23.9706 112.737 24.2604 112.688 24.4971H106.784C106.807 25.3503 107.092 26.0028 107.64 26.4528C108.138 26.8551 108.781 27.0567 109.571 27.0567C110.446 27.0567 111.243 26.9208 111.96 26.6481L112.269 27.9801C111.43 28.3365 110.441 28.5138 109.299 28.5138C107.926 28.5138 106.847 28.1196 106.063 27.3321C105.28 26.5446 104.888 25.4871 104.888 24.1605C104.888 22.8582 105.252 21.7737 105.982 20.9088C106.747 19.9854 107.78 19.5237 109.079 19.5237C110.356 19.5237 111.322 19.9854 111.979 20.9088C112.498 21.6423 112.76 22.5495 112.76 23.6268ZM110.883 23.1291C110.896 22.5603 110.768 22.0689 110.501 21.654C110.16 21.1203 109.637 20.8539 108.933 20.8539C108.289 20.8539 107.766 21.114 107.366 21.636C107.038 22.0509 106.844 22.5486 106.784 23.1282L110.883 23.1291Z" fill="white"/>
<path d="M45.277 9.00795C45.277 10.0673 44.9512 10.8647 44.3004 11.4002C43.6976 11.8943 42.841 12.1418 41.7315 12.1418C41.1813 12.1418 40.7106 12.1184 40.3164 12.0716V6.28365C40.8306 6.20265 41.3844 6.16125 41.9826 6.16125C43.0395 6.16125 43.8361 6.38535 44.3733 6.83355C44.9752 7.34025 45.277 8.06475 45.277 9.00795ZM44.257 9.03405C44.257 8.34736 44.0706 7.82085 43.6976 7.45365C43.3247 7.08735 42.7801 6.90375 42.0629 6.90375C41.7583 6.90375 41.4989 6.92355 41.2838 6.96495V11.3651C41.4029 11.3831 41.6207 11.3912 41.9373 11.3912C42.6776 11.3912 43.249 11.1905 43.6515 10.7891C44.054 10.3877 44.257 9.80266 44.257 9.03405Z" fill="white"/>
<path d="M50.6854 9.9331C50.6854 10.5856 50.4944 11.1202 50.1122 11.5396C49.7116 11.9707 49.1808 12.1858 48.518 12.1858C47.8793 12.1858 47.3707 11.9797 46.9913 11.5657C46.6128 11.1526 46.4236 10.6315 46.4236 10.0033C46.4236 9.3463 46.6184 8.8072 47.0097 8.3887C47.4011 7.9702 47.9273 7.7605 48.59 7.7605C49.2288 7.7605 49.742 7.9666 50.1307 8.3797C50.4999 8.7811 50.6854 9.2995 50.6854 9.9331ZM49.682 9.9637C49.682 9.5722 49.5953 9.2365 49.4227 8.9566C49.2196 8.6182 48.9307 8.449 48.555 8.449C48.1664 8.449 47.871 8.6182 47.6679 8.9566C47.4944 9.2365 47.4085 9.5776 47.4085 9.9808C47.4085 10.3723 47.4953 10.708 47.6679 10.9879C47.8774 11.3263 48.1691 11.4955 48.5457 11.4955C48.915 11.4955 49.2048 11.3236 49.4134 10.9789C49.5925 10.6936 49.682 10.3552 49.682 9.9637Z" fill="white"/>
<path d="M57.9369 7.84705L56.5754 12.0896H55.6892L55.1252 10.2473C54.9822 9.78745 54.8659 9.33025 54.7754 8.87665H54.7579C54.6739 9.34285 54.5576 9.79915 54.408 10.2473L53.8089 12.0896H52.9126L51.6323 7.84705H52.6265L53.1185 9.86395C53.2376 10.3409 53.3354 10.7954 53.4139 11.2256H53.4314C53.5034 10.871 53.6225 10.4192 53.7905 9.87295L54.408 7.84795H55.1963L55.788 9.82975C55.9311 10.313 56.0474 10.7783 56.1369 11.2265H56.1637C56.2292 10.79 56.328 10.3247 56.4591 9.82975L56.9871 7.84795H57.9369V7.84705Z" fill="white"/>
<path d="M62.9521 12.0895H61.9847V9.65951C61.9847 8.91071 61.693 8.53631 61.1078 8.53631C60.8207 8.53631 60.589 8.63891 60.409 8.84501C60.2309 9.05111 60.1404 9.29411 60.1404 9.57221V12.0886H59.173V9.05921C59.173 8.68661 59.161 8.28251 59.1379 7.84511H59.9881L60.0333 8.50841H60.0601C60.1727 8.30231 60.3407 8.13221 60.5613 7.99631C60.8235 7.83791 61.117 7.75781 61.4382 7.75781C61.8444 7.75781 62.1822 7.88561 62.4509 8.14211C62.785 8.45621 62.9521 8.92511 62.9521 9.54791V12.0895Z" fill="white"/>
<path d="M65.6198 12.0896H64.6533V5.90027H65.6198V12.0896Z" fill="white"/>
<path d="M71.3153 9.9331C71.3153 10.5856 71.1242 11.1202 70.7421 11.5396C70.3415 11.9707 69.8098 12.1858 69.1479 12.1858C68.5082 12.1858 67.9996 11.9797 67.6212 11.5657C67.2427 11.1526 67.0535 10.6315 67.0535 10.0033C67.0535 9.3463 67.2482 8.8072 67.6396 8.3887C68.031 7.9702 68.5572 7.7605 69.219 7.7605C69.8587 7.7605 70.371 7.9666 70.7605 8.3797C71.1298 8.7811 71.3153 9.2995 71.3153 9.9331ZM70.311 9.9637C70.311 9.5722 70.2242 9.2365 70.0516 8.9566C69.8495 8.6182 69.5596 8.449 69.1848 8.449C68.7953 8.449 68.4999 8.6182 68.2978 8.9566C68.1242 9.2365 68.0384 9.5776 68.0384 9.9808C68.0384 10.3723 68.1252 10.708 68.2978 10.9879C68.5073 11.3263 68.799 11.4955 69.1756 11.4955C69.5449 11.4955 69.8338 11.3236 70.0424 10.9789C70.2224 10.6936 70.311 10.3552 70.311 9.9637Z" fill="white"/>
<path d="M75.9971 12.0895H75.1285L75.0565 11.6008H75.0297C74.7325 11.9905 74.3088 12.1858 73.7586 12.1858C73.3479 12.1858 73.0156 12.0571 72.7654 11.8015C72.5383 11.5693 72.4248 11.2804 72.4248 10.9375C72.4248 10.4191 72.6463 10.024 73.0922 9.7504C73.5371 9.4768 74.163 9.3427 74.9688 9.349V9.2698C74.9688 8.7109 74.6679 8.4319 74.0651 8.4319C73.6359 8.4319 73.2574 8.5372 72.9307 8.746L72.734 8.1268C73.1383 7.8829 73.6377 7.7605 74.2267 7.7605C75.3639 7.7605 75.9343 8.3455 75.9343 9.5155V11.0779C75.9343 11.5018 75.9556 11.8393 75.9971 12.0895ZM74.9928 10.6315V9.9772C73.9257 9.9592 73.3922 10.2445 73.3922 10.8322C73.3922 11.0536 73.4531 11.2192 73.5777 11.3299C73.7023 11.4406 73.8611 11.4955 74.0503 11.4955C74.2626 11.4955 74.4611 11.4298 74.642 11.2993C74.8239 11.1679 74.9356 11.0014 74.9771 10.7971C74.9873 10.7512 74.9928 10.6954 74.9928 10.6315Z" fill="white"/>
<path d="M81.4939 12.0896H80.6355L80.5902 11.4083H80.5635C80.2893 11.9267 79.8222 12.1859 79.1659 12.1859C78.6416 12.1859 78.205 11.9852 77.8589 11.5838C77.5127 11.1824 77.3401 10.6613 77.3401 10.0214C77.3401 9.33467 77.5275 8.77847 77.9041 8.35367C78.2687 7.95767 78.7155 7.75967 79.2472 7.75967C79.8315 7.75967 80.2404 7.95137 80.473 8.33567H80.4915V5.90027H81.4598V10.9466C81.4598 11.3597 81.4709 11.7404 81.4939 12.0896ZM80.4915 10.3004V9.59297C80.4915 9.47057 80.4822 9.37157 80.4647 9.29597C80.4102 9.06917 80.293 8.87837 80.1149 8.72447C79.9349 8.57057 79.7179 8.49317 79.4678 8.49317C79.1068 8.49317 78.8244 8.63267 78.6167 8.91257C78.4109 9.19247 78.3065 9.54977 78.3065 9.98627C78.3065 10.4057 78.4053 10.7459 78.6038 11.0078C78.8133 11.2868 79.0958 11.4263 79.4493 11.4263C79.7669 11.4263 80.0207 11.3102 80.2136 11.0771C80.4001 10.862 80.4915 10.6028 80.4915 10.3004Z" fill="white"/>
<path d="M89.7677 9.9331C89.7677 10.5856 89.5766 11.1202 89.1945 11.5396C88.7939 11.9707 88.264 12.1858 87.6003 12.1858C86.9625 12.1858 86.4539 11.9797 86.0736 11.5657C85.6951 11.1526 85.5059 10.6315 85.5059 10.0033C85.5059 9.3463 85.7006 8.8072 86.092 8.3887C86.4834 7.9702 87.0095 7.7605 87.6732 7.7605C88.3111 7.7605 88.8252 7.9666 89.2129 8.3797C89.5822 8.7811 89.7677 9.2995 89.7677 9.9331ZM88.7652 9.9637C88.7652 9.5722 88.6785 9.2365 88.5059 8.9566C88.3019 8.6182 88.0139 8.449 87.6372 8.449C87.2496 8.449 86.9542 8.6182 86.7502 8.9566C86.5766 9.2365 86.4908 9.5776 86.4908 9.9808C86.4908 10.3723 86.5775 10.708 86.7502 10.9879C86.9597 11.3263 87.2514 11.4955 87.628 11.4955C87.9972 11.4955 88.288 11.3236 88.4966 10.9789C88.6748 10.6936 88.7652 10.3552 88.7652 9.9637Z" fill="white"/>
<path d="M94.969 12.0895H94.0025V9.65951C94.0025 8.91071 93.7108 8.53631 93.1247 8.53631C92.8376 8.53631 92.6059 8.63891 92.4268 8.84501C92.2478 9.05111 92.1582 9.29411 92.1582 9.57221V12.0886H91.1899V9.05921C91.1899 8.68661 91.1788 8.28251 91.1558 7.84511H92.005L92.0502 8.50841H92.077C92.1905 8.30231 92.3585 8.13221 92.5782 7.99631C92.8413 7.83791 93.1339 7.75781 93.4561 7.75781C93.8613 7.75781 94.1991 7.88561 94.4678 8.14211C94.8028 8.45621 94.969 8.92511 94.969 9.54791V12.0895Z" fill="white"/>
<path d="M101.479 8.55344H100.414V10.6144C100.414 11.1382 100.603 11.4001 100.978 11.4001C101.152 11.4001 101.296 11.3857 101.409 11.356L101.434 12.0715C101.243 12.1417 100.992 12.1768 100.683 12.1768C100.301 12.1768 100.003 12.0634 99.7884 11.8366C99.5724 11.6098 99.4653 11.2282 99.4653 10.6927V8.55344H98.8293V7.84694H99.4653V7.06934L100.413 6.79034V7.84604H101.479V8.55344H101.479Z" fill="white"/>
<path d="M106.601 12.0896H105.632V9.67757C105.632 8.91707 105.341 8.53637 104.756 8.53637C104.308 8.53637 104.001 8.75687 103.833 9.19787C103.805 9.29057 103.788 9.40397 103.788 9.53717V12.0887H102.822V5.90027H103.788V8.45717H103.806C104.111 7.99187 104.548 7.75967 105.114 7.75967C105.514 7.75967 105.846 7.88747 106.109 8.14397C106.436 8.46347 106.601 8.93867 106.601 9.56687V12.0896Z" fill="white"/>
<path d="M111.884 9.76748C111.884 9.93668 111.871 10.0789 111.848 10.195H108.946C108.959 10.6144 109.098 10.9339 109.366 11.1553C109.612 11.3533 109.928 11.4523 110.316 11.4523C110.745 11.4523 111.137 11.3857 111.489 11.2516L111.641 11.9068C111.228 12.0814 110.743 12.1687 110.18 12.1687C109.507 12.1687 108.976 11.9752 108.592 11.5882C108.206 11.2012 108.015 10.6819 108.015 10.0303C108.015 9.39038 108.193 8.85758 108.552 8.43278C108.927 7.97918 109.434 7.75238 110.073 7.75238C110.699 7.75238 111.175 7.97918 111.496 8.43278C111.755 8.79278 111.884 9.23828 111.884 9.76748ZM110.96 9.52358C110.968 9.24368 110.904 9.00248 110.773 8.79908C110.605 8.53718 110.349 8.40578 110.003 8.40578C109.688 8.40578 109.43 8.53358 109.233 8.79008C109.073 8.99438 108.978 9.23828 108.946 9.52358H110.96Z" fill="white"/>
</svg>
