<svg width="126" height="36" viewBox="0 0 126 36" fill="none" xmlns="http://www.w3.org/2000/svg">
<path d="M120.45 36H5.22428C2.69046 36 0.615234 33.9739 0.615234 31.5V4.5C0.615234 2.02613 2.69046 1.90258e-06 5.22428 1.90258e-06H120.45C122.984 1.90258e-06 125.059 2.02613 125.059 4.5V31.5C125.059 33.9739 122.984 36 120.45 36Z" fill="#212B35"/>
<path d="M120.45 0.721125C122.584 0.721125 124.321 2.4165 124.321 4.5V31.5C124.321 33.5835 122.584 35.2789 120.45 35.2789H5.22428C3.09029 35.2789 1.35383 33.5835 1.35383 31.5V4.5C1.35383 2.4165 3.09029 0.721125 5.22428 0.721125H120.45ZM120.45 1.90258e-06H5.22428C2.69046 1.90258e-06 0.615234 2.02613 0.615234 4.5V31.5C0.615234 33.9739 2.69046 36 5.22428 36H120.45C122.984 36 125.059 33.9739 125.059 31.5V4.5C125.059 2.02613 122.984 1.90258e-06 120.45 1.90258e-06Z" fill="#A6A6A6"/>
<path d="M44.3251 9.2194C44.3251 9.9709 44.0947 10.5728 43.6407 11.0217C43.1187 11.5538 42.4389 11.8215 41.6058 11.8215C40.8096 11.8215 40.1298 11.5493 39.5721 11.0127C39.0132 10.4682 38.7344 9.7999 38.7344 9.00003C38.7344 8.20015 39.0132 7.5319 39.5721 6.9919C40.1298 6.45078 40.8096 6.17853 41.6058 6.17853C42.0022 6.17853 42.3801 6.2584 42.7408 6.4069C43.1003 6.55653 43.393 6.75903 43.605 7.00878L43.1233 7.48353C42.7535 7.05715 42.2499 6.84678 41.6058 6.84678C41.0251 6.84678 40.5215 7.04478 40.094 7.44415C39.6712 7.84465 39.4591 8.36328 39.4591 9.00003C39.4591 9.63678 39.6712 10.1599 40.094 10.5604C40.5215 10.9553 41.0251 11.1578 41.6058 11.1578C42.2223 11.1578 42.7408 10.9553 43.1498 10.5559C43.4195 10.2915 43.5727 9.92703 43.613 9.46128H41.6058V8.81103H44.2837C44.3159 8.95165 44.3251 9.08778 44.3251 9.2194Z" fill="white" stroke="white" stroke-width="0.16" stroke-miterlimit="10"/>
<path d="M48.5732 6.96487H46.0578V8.67487H48.3254V9.32512H46.0578V11.0351H48.5732V11.6977H45.3457V6.30225H48.5732V6.96487Z" fill="white" stroke="white" stroke-width="0.16" stroke-miterlimit="10"/>
<path d="M51.5719 11.6977H50.8598V6.96487H49.3169V6.30225H53.1159V6.96487H51.5719V11.6977Z" fill="white" stroke="white" stroke-width="0.16" stroke-miterlimit="10"/>
<path d="M55.8647 11.6977V6.30225H56.5757V11.6977H55.8647Z" fill="white" stroke="white" stroke-width="0.16" stroke-miterlimit="10"/>
<path d="M59.7271 11.6977H59.0208V6.96487H57.4722V6.30225H61.2758V6.96487H59.7271V11.6977Z" fill="white" stroke="white" stroke-width="0.16" stroke-miterlimit="10"/>
<path d="M68.4683 11.0037C67.9232 11.5493 67.248 11.8215 66.4426 11.8215C65.6325 11.8215 64.9573 11.5493 64.4123 11.0037C63.8684 10.4592 63.5977 9.7909 63.5977 9.00003C63.5977 8.20915 63.8684 7.5409 64.4123 6.9964C64.9573 6.45078 65.6325 6.17853 66.4426 6.17853C67.2434 6.17853 67.9186 6.45078 68.4637 7.0009C69.0121 7.5499 69.2829 8.21365 69.2829 9.00003C69.2829 9.7909 69.0121 10.4592 68.4683 11.0037ZM64.9389 10.5514C65.3491 10.9553 65.848 11.1578 66.4426 11.1578C67.0325 11.1578 67.5361 10.9553 67.9417 10.5514C68.3507 10.1475 68.5581 9.6289 68.5581 9.00003C68.5581 8.37115 68.3507 7.85253 67.9417 7.44865C67.5361 7.04478 67.0325 6.84228 66.4426 6.84228C65.848 6.84228 65.3491 7.04478 64.9389 7.44865C64.5298 7.85253 64.3224 8.37115 64.3224 9.00003C64.3224 9.6289 64.5298 10.1475 64.9389 10.5514Z" fill="white" stroke="white" stroke-width="0.16" stroke-miterlimit="10"/>
<path d="M70.2822 11.6977V6.30225H71.1464L73.8335 10.4985H73.8646L73.8335 9.46124V6.30225H74.5444V11.6977H73.8024L70.9886 7.2945H70.9574L70.9886 8.33625V11.6977H70.2822Z" fill="white" stroke="white" stroke-width="0.16" stroke-miterlimit="10"/>
<path d="M63.4227 19.5773C61.2576 19.5773 59.4889 21.1861 59.4889 23.4057C59.4889 25.6073 61.2576 27.2329 63.4227 27.2329C65.5924 27.2329 67.3611 25.6073 67.3611 23.4057C67.3611 21.1861 65.5924 19.5773 63.4227 19.5773ZM63.4227 25.7254C62.2347 25.7254 61.2126 24.7681 61.2126 23.4057C61.2126 22.0253 62.2347 21.0848 63.4227 21.0848C64.6106 21.0848 65.6373 22.0253 65.6373 23.4057C65.6373 24.7681 64.6106 25.7254 63.4227 25.7254ZM54.8395 19.5773C52.6698 19.5773 50.9057 21.1861 50.9057 23.4057C50.9057 25.6073 52.6698 27.2329 54.8395 27.2329C57.008 27.2329 58.7733 25.6073 58.7733 23.4057C58.7733 21.1861 57.008 19.5773 54.8395 19.5773ZM54.8395 25.7254C53.6504 25.7254 52.6248 24.7681 52.6248 23.4057C52.6248 22.0253 53.6504 21.0848 54.8395 21.0848C56.0275 21.0848 57.0495 22.0253 57.0495 23.4057C57.0495 24.7681 56.0275 25.7254 54.8395 25.7254ZM44.6259 20.7507V22.3774H48.6046C48.4882 23.2864 48.1771 23.9547 47.7001 24.4204C47.1193 24.9829 46.2148 25.6073 44.6259 25.6073C42.1773 25.6073 40.2599 23.6779 40.2599 21.2873C40.2599 18.8967 42.1773 16.9673 44.6259 16.9673C45.9498 16.9673 46.9131 17.4724 47.624 18.1272L48.7982 16.9808C47.8038 16.0538 46.481 15.3417 44.6259 15.3417C41.2682 15.3417 38.4463 18.0091 38.4463 21.2873C38.4463 24.5656 41.2682 27.2329 44.6259 27.2329C46.4407 27.2329 47.8038 26.6524 48.8754 25.5634C49.9735 24.4913 50.3157 22.9838 50.3157 21.7666C50.3157 21.3886 50.2835 21.0409 50.2258 20.7507H44.6259ZM86.3907 22.0118C86.0669 21.1557 85.0679 19.5773 83.033 19.5773C81.0165 19.5773 79.3377 21.1287 79.3377 23.4057C79.3377 25.5499 80.9992 27.2329 83.2266 27.2329C85.0275 27.2329 86.0669 26.1608 86.4944 25.5364L85.1577 24.6668C84.7118 25.3036 84.1046 25.7254 83.2266 25.7254C82.3543 25.7254 81.7286 25.3351 81.3276 24.5656L86.5716 22.4472L86.3907 22.0118ZM81.0442 23.2864C80.9992 21.8104 82.2183 21.0544 83.0917 21.0544C83.7762 21.0544 84.3569 21.3886 84.5505 21.8667L81.0442 23.2864ZM76.782 27.0001H78.5058V15.7501H76.782V27.0001ZM73.9589 20.4301H73.9013C73.5142 19.9823 72.7756 19.5773 71.8399 19.5773C69.8765 19.5773 68.0813 21.2603 68.0813 23.4181C68.0813 25.5634 69.8765 27.2329 71.8399 27.2329C72.7756 27.2329 73.5142 26.8246 73.9013 26.3633H73.9589V26.9123C73.9589 28.3759 73.1581 29.1623 71.8664 29.1623C70.8133 29.1623 70.1599 28.4198 69.8903 27.7954L68.3912 28.4063C68.8233 29.4211 69.9675 30.6698 71.8664 30.6698C73.8875 30.6698 75.5928 29.5088 75.5928 26.6839V19.8102H73.9589V20.4301ZM71.9874 25.7254C70.7994 25.7254 69.805 24.7546 69.805 23.4181C69.805 22.0692 70.7994 21.0848 71.9874 21.0848C73.1581 21.0848 74.0811 22.0692 74.0811 23.4181C74.0811 24.7546 73.1581 25.7254 71.9874 25.7254ZM94.4611 15.7501H90.3383V27.0001H92.0575V22.7374H94.4611C96.3704 22.7374 98.2428 21.3886 98.2428 19.2432C98.2428 17.0989 96.3658 15.7501 94.4611 15.7501ZM94.506 21.1726H92.0575V17.3149H94.506C95.7896 17.3149 96.5225 18.3556 96.5225 19.2432C96.5225 20.1139 95.7896 21.1726 94.506 21.1726ZM105.133 19.5559C103.891 19.5559 102.599 20.0914 102.068 21.2783L103.594 21.9027C103.922 21.2783 104.526 21.0758 105.164 21.0758C106.056 21.0758 106.961 21.5989 106.975 22.5226V22.6407C106.664 22.4652 105.998 22.2053 105.178 22.2053C103.535 22.2053 101.861 23.0884 101.861 24.7366C101.861 26.2441 103.207 27.2149 104.72 27.2149C105.877 27.2149 106.515 26.7053 106.916 26.1124H106.975V26.982H108.635V22.6666C108.635 20.6719 107.109 19.5559 105.133 19.5559ZM104.926 25.7209C104.364 25.7209 103.58 25.4487 103.58 24.7681C103.58 23.8973 104.557 23.5632 105.403 23.5632C106.16 23.5632 106.515 23.7263 106.975 23.9412C106.84 24.9829 105.921 25.7209 104.926 25.7209ZM114.684 19.8023L112.708 24.6792H112.65L110.607 19.8023H108.753L111.822 26.6176L110.071 30.4099H111.867L116.597 19.8023H114.684ZM99.1877 27.0001H100.911V15.7501H99.1877V27.0001Z" fill="white"/>
<path d="M10.2346 6.7849C9.96384 7.06164 9.80713 7.49252 9.80713 8.05052V27.954C9.80713 28.512 9.96384 28.9429 10.2346 29.2196L10.3014 29.2804L21.7249 18.1316V17.8684L10.3014 6.71965L10.2346 6.7849Z" fill="url(#paint0_linear_11003_4404)"/>
<path d="M25.5282 21.8498L21.7246 18.1317V17.8684L25.5328 14.1503L25.6181 14.1987L30.128 16.704C31.4151 17.415 31.4151 18.585 30.128 19.3005L25.6181 21.8014L25.5282 21.8498Z" fill="url(#paint1_linear_11003_4404)"/>
<path d="M25.6182 21.8014L21.7247 18L10.2344 29.2197C10.6619 29.6584 11.359 29.7113 12.1517 29.2725L25.6182 21.8014Z" fill="url(#paint2_linear_11003_4404)"/>
<path d="M25.6182 14.1986L12.1517 6.7275C11.359 6.29325 10.6619 6.34613 10.2344 6.78488L21.7247 18L25.6182 14.1986Z" fill="url(#paint3_linear_11003_4404)"/>
<defs>
<linearGradient id="paint0_linear_11003_4404" x1="20.7107" y1="28.1613" x2="5.61085" y2="12.6956" gradientUnits="userSpaceOnUse">
<stop stop-color="#00A0FF"/>
<stop offset="0.0066" stop-color="#00A1FF"/>
<stop offset="0.2601" stop-color="#00BEFF"/>
<stop offset="0.5122" stop-color="#00D2FF"/>
<stop offset="0.7604" stop-color="#00DFFF"/>
<stop offset="1" stop-color="#00E3FF"/>
</linearGradient>
<linearGradient id="paint1_linear_11003_4404" x1="31.804" y1="17.9988" x2="9.49913" y2="17.9988" gradientUnits="userSpaceOnUse">
<stop stop-color="#FFE000"/>
<stop offset="0.4087" stop-color="#FFBD00"/>
<stop offset="0.7754" stop-color="#FFA500"/>
<stop offset="1" stop-color="#FF9C00"/>
</linearGradient>
<linearGradient id="paint2_linear_11003_4404" x1="23.501" y1="15.9335" x2="3.02444" y2="-5.03922" gradientUnits="userSpaceOnUse">
<stop stop-color="#FF3A44"/>
<stop offset="1" stop-color="#C31162"/>
</linearGradient>
<linearGradient id="paint3_linear_11003_4404" x1="7.34202" y1="35.8414" x2="16.4857" y2="26.4762" gradientUnits="userSpaceOnUse">
<stop stop-color="#32A071"/>
<stop offset="0.0685" stop-color="#2DA771"/>
<stop offset="0.4762" stop-color="#15CF74"/>
<stop offset="0.8009" stop-color="#06E775"/>
<stop offset="1" stop-color="#00F076"/>
</linearGradient>
</defs>
</svg>
