<svg width="80" height="81" viewBox="0 0 80 81" fill="none" xmlns="http://www.w3.org/2000/svg">
<g clip-path="url(#clip0_3750_6428)">
<path d="M38.8439 73.9865C57.5354 73.9865 72.6878 58.8791 72.6878 40.2432C72.6878 21.6074 57.5354 6.5 38.8439 6.5C20.1524 6.5 5 21.6074 5 40.2432C5 58.8791 20.1524 73.9865 38.8439 73.9865Z" fill="#F3F8FF"/>
<path d="M67.2724 47.7742L61.012 65.7325C58.6693 67.7623 56.056 69.4602 53.2479 70.781L13.8809 57.1622C12.8586 56.7983 12.0734 55.9675 11.7694 54.9279L7.78198 41.4309C7.3559 40.0405 7.87069 38.5341 9.06169 37.6917L20.5689 29.539C21.4618 28.9097 22.6033 28.7488 23.6358 29.1069L65.1754 43.4753C66.9437 44.0799 67.8846 45.9995 67.2782 47.7626C67.2753 47.7669 67.2738 47.7698 67.2724 47.7742Z" fill="#3E479B"/>
<path d="M74.9999 28.7704V51.7148C74.9999 53.5779 73.4933 55.0887 71.6349 55.0887H19.1872C18.1038 55.0873 17.0859 54.5624 16.4547 53.678L8.28642 42.2065C7.4488 41.0321 7.4488 39.4531 8.28642 38.2787L16.4562 26.8058C17.0873 25.9213 18.1038 25.3965 19.1887 25.395H71.6363C73.4933 25.3965 74.9999 26.9073 74.9999 28.7704Z" fill="#5072F1"/>
<path d="M18.5374 40.2432C18.5374 41.7337 17.3246 42.9429 15.8296 42.9429C15.6595 42.9444 15.4893 42.9284 15.3221 42.8951C13.8534 42.6167 12.8878 41.2045 13.167 39.7401C13.3749 38.6498 14.23 37.7973 15.3221 37.5914C15.4893 37.558 15.6595 37.5421 15.8296 37.5435C17.326 37.5435 18.5374 38.7513 18.5374 40.2432Z" fill="#323FD4"/>
<path d="M15.322 37.5901C14.8465 37.6814 14.4058 37.8989 14.0423 38.2179C14.6836 38.7065 15.0864 39.4416 15.1518 40.2419C15.0864 41.0422 14.6821 41.7788 14.0423 42.2659C12.7946 43.249 11.3418 43.9406 9.79161 44.29C8.33304 44.6728 6.83811 44.8989 5.33154 44.9642C5.39262 45.4093 5.45951 45.8544 5.54095 46.314C7.25983 46.2488 8.96417 45.9748 10.6176 45.4978C12.3932 45.0628 14.0248 44.1769 15.3554 42.9271C16.8242 41.6077 16.942 39.3502 15.6186 37.8858C15.5358 37.7945 15.447 37.7061 15.3554 37.6234L15.322 37.5901ZM10.6176 35.0194C8.96562 34.5424 7.25983 34.2684 5.54095 34.2031C5.45951 34.6482 5.39262 35.0934 5.33154 35.553C6.83665 35.6081 8.33158 35.8226 9.79161 36.1938L10.6176 35.0194Z" fill="#FFA100"/>
<path d="M46.72 44.0622C45.2949 45.4672 45.2804 47.7566 46.6895 49.1789C48.0986 50.5998 50.3948 50.6143 51.8214 49.2094C53.248 47.8044 53.2611 45.515 51.8519 44.0927C50.4908 42.7211 48.0972 42.7066 46.72 44.0622ZM50.1316 45.7891C50.6057 46.2675 50.6013 47.0229 50.1214 47.4941C49.6415 47.9668 48.8839 47.9624 48.4113 47.484C47.9503 47.0186 47.9416 46.2385 48.4215 45.7789C48.8868 45.3179 49.6575 45.3106 50.1316 45.7891Z" fill="white"/>
<path d="M40.6224 37.9235C42.0476 36.5186 42.0621 34.2292 40.653 32.8069C39.2438 31.386 36.9476 31.3845 35.5211 32.7764C34.0959 34.1814 34.0814 36.4707 35.4905 37.8931C36.8996 39.3024 39.1973 39.327 40.6224 37.9235ZM37.2225 34.4916C37.7024 34.019 38.46 34.0233 38.9326 34.5018C39.4067 34.9803 39.4024 35.7356 38.9225 36.2069C38.4426 36.6781 37.6733 36.6752 37.2123 36.1967C36.7499 35.7197 36.7542 34.9513 37.2225 34.4916Z" fill="white"/>
<path d="M35.8178 48.7251C36.2918 49.2035 37.0495 49.2079 37.5279 48.7352L51.516 34.954C51.9959 34.4814 52.0002 33.726 51.5262 33.249C51.0521 32.7705 50.2944 32.7662 49.816 33.2388L35.8279 47.02C35.348 47.4912 35.3437 48.2597 35.8178 48.7251Z" fill="white"/>
<path opacity="0.9" d="M54.7227 66.3265L58.6528 68.3262L54.7227 70.3258L52.5749 73.9848L50.4271 70.3258L46.4971 68.3262L50.4271 66.3265L52.5749 62.6675L54.7227 66.3265Z" fill="url(#paint0_linear_3750_6428)"/>
<path opacity="0.9" d="M17.5149 16.0653L20.0898 17.3984L17.5149 18.7315L16.1078 21.1709L14.7006 18.7315L12.1257 17.3984L14.7006 16.0653L16.1078 13.626L17.5149 16.0653Z" fill="#FFC55F"/>
<path opacity="0.9" d="M52.1069 15.9798L52.7845 16.3502L52.1069 16.7205L51.7366 17.3981L51.3663 16.7205L50.6887 16.3502L51.3663 15.9798L51.7366 15.3022L52.1069 15.9798Z" fill="white"/>
<path opacity="0.9" d="M40.5211 65.7126L41.4671 66.2307L40.5211 66.7518L40 67.6978L39.4819 66.7518L38.533 66.2307L39.4819 65.7126L40 64.7637L40.5211 65.7126Z" fill="white"/>
</g>
<defs>
<linearGradient id="paint0_linear_3750_6428" x1="46.4971" y1="68.3262" x2="58.6528" y2="68.3262" gradientUnits="userSpaceOnUse">
<stop stop-color="#5278FF"/>
<stop offset="1" stop-color="#30B8FC"/>
</linearGradient>
<clipPath id="clip0_3750_6428">
<rect width="70" height="67.485" fill="white" transform="translate(5 6.5)"/>
</clipPath>
</defs>
</svg>
