<svg width="80" height="80" viewBox="0 0 80 80" fill="none" xmlns="http://www.w3.org/2000/svg">
  <path d="M73.0068 42.1336L65.7805 31.496L73.0068 20.8583C73.3454 20.3505 73.4235 19.7125 73.2282 19.1396C73.0329 18.5667 72.5772 18.111 72.0043 17.9157L48.4373 10.1034C47.591 9.81696 46.6796 10.1425 46.1978 10.8716L40.0001 20.1682L33.8154 10.8846C33.3206 10.1425 32.4092 9.82998 31.5759 10.1164L8.00892 17.9287C7.43602 18.124 6.9803 18.5667 6.785 19.1526C6.58969 19.7255 6.66781 20.3635 7.00634 20.8713L14.2197 31.496L6.99332 42.1336C6.65479 42.6414 6.57667 43.2794 6.77198 43.8523C6.96728 44.4252 7.423 44.8809 7.9959 45.0762L31.5629 52.8885C32.3962 53.1619 33.3206 52.8625 33.8024 52.1203L39.9871 42.8367L46.1718 52.1203C46.6665 52.8625 47.591 53.1619 48.4113 52.8885L71.9782 45.0762C72.5511 44.8809 73.0068 44.4382 73.2021 43.8523C73.4235 43.2794 73.3454 42.6414 73.0068 42.1336ZM40.0001 37.251L22.735 31.496L40.0001 25.7409L57.2652 31.496L40.0001 37.251Z" fill="#E8EAEB"/>
  <path d="M49.6603 56.5867C47.1995 57.407 44.4261 56.5216 42.9288 54.2821L39.9992 49.8682L37.0566 54.2821C35.5722 56.5216 32.7859 57.42 30.312 56.5867L14.6094 51.3525V62.7453C14.6094 63.5917 15.1432 64.3338 15.9505 64.5942L39.3742 72.4065C39.4393 72.4325 39.5174 72.4455 39.5825 72.4716C39.7258 72.4976 39.856 72.5106 39.9992 72.5106C40.1424 72.5106 40.2856 72.4976 40.4419 72.4585C40.507 72.4455 40.5721 72.4325 40.6372 72.4065L64.0609 64.5942C64.8552 64.3338 65.402 63.5786 65.402 62.7453V51.3395L49.6603 56.5867Z" fill="#E8EAEB"/>
</svg>
