<svg width="80" height="81" viewBox="0 0 80 81" fill="none" xmlns="http://www.w3.org/2000/svg">
<ellipse cx="40.4808" cy="37.3959" rx="31.8959" ry="31.8959" fill="#CFE2FF"/>
<ellipse cx="40.4808" cy="37.3959" rx="31.8959" ry="31.8959" fill="#F3F8FF"/>
<path d="M54.947 14.3579V19.7652C54.5921 19.6136 54.1878 19.5327 53.778 19.5327H11.6773C9.09401 19.5327 7 17.9873 7 16.0821C7 14.1769 9.09401 12.6326 11.6773 12.6326H52.6077C53.8973 12.6356 54.9429 13.4058 54.947 14.3579Z" fill="#A2C1FA"/>
<path d="M56.0678 21.9374V48.0485C47.9108 49.9775 42.863 58.155 44.792 66.312C45.4177 68.9557 46.7416 71.3844 48.6255 73.3422H11.6727C9.09606 73.345 7.00274 71.2585 7 68.6805C7 68.6764 7 68.6723 7 68.6682V14.9277C7 17.5084 9.09195 19.6004 11.6727 19.6004H53.7308C55.0218 19.6018 56.0678 20.6477 56.0678 21.9374Z" fill="#5072F1"/>
<path d="M8.16782 19.6018H11.6727C9.09195 19.6018 7 17.5084 7 14.9277V19.4361C7.3806 19.5415 7.77353 19.5963 8.16782 19.6018Z" fill="#5072F1"/>
<path d="M18.682 26.6113H44.3837C45.0285 26.6113 45.5515 27.1343 45.5515 27.7792V37.1259C45.5515 37.7707 45.0285 38.2937 44.3837 38.2937H18.682C18.0371 38.2937 17.5142 37.7707 17.5142 37.1259V27.7792C17.5142 27.1343 18.0371 26.6113 18.682 26.6113Z" fill="#F5F5F5"/>
<path d="M66.6971 60.3127C66.6971 68.701 59.8969 75.4999 51.5099 75.4999C43.123 75.4999 36.3228 68.701 36.3228 60.3127C36.3228 51.9243 43.1216 45.1255 51.5099 45.1255C51.907 45.1255 52.2931 45.1378 52.6778 45.172C60.5883 45.7826 66.6971 52.3789 66.6971 60.3127Z" fill="#FD9D1A"/>
<path d="M51.5106 54.6082C52.8016 54.6082 53.8476 55.6542 53.8476 56.9452C53.8476 57.5901 54.3706 58.1131 55.0154 58.1131C55.6602 58.1131 56.1832 57.5901 56.1832 56.9452C56.175 54.8204 54.7347 52.9694 52.6784 52.4382V51.1034C52.6784 50.4585 52.1554 49.9355 51.5106 49.9355C50.8657 49.9355 50.3427 50.4585 50.3427 51.1034V52.4382C47.8483 53.0803 46.3464 55.6227 46.9885 58.1172C47.5197 60.1804 49.3803 61.6206 51.5106 61.6179C52.8016 61.6179 53.8476 62.6639 53.8476 63.9549C53.8476 65.246 52.8016 66.2919 51.5106 66.2919C50.2195 66.2919 49.1735 65.246 49.1735 63.9549C49.1735 63.3101 48.6506 62.7871 48.0057 62.7871C47.3609 62.7871 46.8379 63.3101 46.8379 63.9549C46.8461 66.0797 48.2864 67.9307 50.3427 68.4619V69.7968C50.3427 70.4416 50.8657 70.9646 51.5106 70.9646C52.1554 70.9646 52.6784 70.4416 52.6784 69.7968V68.4619C55.1728 67.8198 56.6747 65.2774 56.0326 62.783C55.5014 60.7198 53.6408 59.2795 51.5106 59.2822C50.2195 59.2822 49.1735 58.2363 49.1735 56.9452C49.1735 55.6542 50.2195 54.6082 51.5106 54.6082Z" fill="white"/>
<path opacity="0.9" d="M70.8566 34.6354L72.7783 35.6156L70.8566 36.5958L69.8064 38.3894L68.7562 36.5958L66.8345 35.6156L68.7562 34.6354L69.8064 32.8418L70.8566 34.6354Z" fill="url(#paint0_linear_2596_27002)"/>
<path opacity="0.9" d="M65.9405 19.0773L66.8348 19.5671L65.9405 20.0596L65.4479 20.954L64.9581 20.0596L64.061 19.5671L64.9581 19.0773L65.4479 18.1802L65.9405 19.0773Z" fill="#FF9F1C"/>
<defs>
<linearGradient id="paint0_linear_2596_27002" x1="66.8345" y1="35.6156" x2="72.7783" y2="35.6156" gradientUnits="userSpaceOnUse">
<stop stop-color="#5278FF"/>
<stop offset="1" stop-color="#30B8FC"/>
</linearGradient>
</defs>
</svg>
