<svg width="80" height="80" viewBox="0 0 80 80" fill="none" xmlns="http://www.w3.org/2000/svg">
<g clip-path="url(#clip0_13179_136910)">
<circle cx="46.5" cy="43.5" r="33.5" fill="#CFE2FF"/>
<circle cx="46.5" cy="43.5" r="33.5" fill="#F3F8FF"/>
<mask id="mask0_13179_136910" style="mask-type:alpha" maskUnits="userSpaceOnUse" x="13" y="10" width="67" height="67">
<circle cx="46.5" cy="43.5" r="33.5" fill="#CFE2FF"/>
<circle cx="46.5" cy="43.5" r="33.5" fill="#F3F8FF"/>
</mask>
<g mask="url(#mask0_13179_136910)">
<g filter="url(#filter0_d_13179_136910)">
<path d="M51.1402 79.1727C47.6646 79.1727 44.3132 78.5934 41.21 77.5177V40.2793C41.21 39.8404 41.3843 39.4194 41.6947 39.109C42.0051 38.7986 42.4261 38.6243 42.865 38.6243H80.1034C81.1791 41.7275 81.7584 45.0789 81.7584 48.5545C81.7584 65.4773 68.063 79.1727 51.1402 79.1727Z" fill="white"/>
</g>
<path d="M82.9997 38.2104H42.865C42.4261 38.2104 42.0051 38.3848 41.6947 38.6952C41.3843 39.0056 41.21 39.4265 41.21 39.8655V44.8306H82.9997V38.2104Z" fill="#828A91"/>
<path d="M44.9344 43.1757C45.6199 43.1757 46.1757 42.6199 46.1757 41.9344C46.1757 41.2489 45.6199 40.6931 44.9344 40.6931C44.2489 40.6931 43.6931 41.2489 43.6931 41.9344C43.6931 42.6199 44.2489 43.1757 44.9344 43.1757Z" fill="#EC856F"/>
<path d="M49.0721 43.1757C49.7576 43.1757 50.3134 42.6199 50.3134 41.9344C50.3134 41.2489 49.7576 40.6931 49.0721 40.6931C48.3865 40.6931 47.8308 41.2489 47.8308 41.9344C47.8308 42.6199 48.3865 43.1757 49.0721 43.1757Z" fill="#E9AF58"/>
<path d="M47.8308 73.3799H76.794V79.1725H47.8308V73.3799Z" fill="#E8E9EB"/>
<path d="M73.4838 49.7957H48.6583C47.9727 49.7957 47.417 50.3514 47.417 51.0369C47.417 51.7225 47.9727 52.2782 48.6583 52.2782H73.4838C74.1694 52.2782 74.7251 51.7225 74.7251 51.0369C74.7251 50.3514 74.1694 49.7957 73.4838 49.7957Z" fill="#B6BABF"/>
<path d="M68.5187 55.1746H48.6583C47.9727 55.1746 47.417 55.7303 47.417 56.4158C47.417 57.1014 47.9727 57.6571 48.6583 57.6571H68.5187C69.2043 57.6571 69.76 57.1014 69.76 56.4158C69.76 55.7303 69.2043 55.1746 68.5187 55.1746Z" fill="#B6BABF"/>
</g>
<path opacity="0.9" d="M68.854 17.6207L70.9627 18.6963L68.854 19.7719L67.7016 21.7401L66.5492 19.7719L64.4404 18.6963L66.5492 17.6207L67.7016 15.6526L68.854 17.6207Z" fill="url(#paint0_linear_13179_136910)"/>
<path opacity="0.9" d="M51.4136 66.9682L53.5223 68.0437L51.4136 69.1193L50.2612 71.0875L49.1087 69.1193L47 68.0437L49.1087 66.9682L50.2612 65L51.4136 66.9682Z" fill="url(#paint1_linear_13179_136910)"/>
<path opacity="0.9" d="M6.06238 47.0745L7.04374 47.612L6.06238 48.1525L5.52187 49.1338L4.98439 48.1525L4 47.612L4.98439 47.0745L5.52187 46.0901L6.06238 47.0745Z" fill="#FF9F1C"/>
<path opacity="0.9" d="M63.0624 10.9844L64.0437 11.5219L63.0624 12.0624L62.5219 13.0437L61.9844 12.0624L61 11.5219L61.9844 10.9844L62.5219 10L63.0624 10.9844Z" fill="#FF9F1C"/>
<g filter="url(#filter1_d_13179_136910)">
<path d="M4.01818 56.5143H61.5305C62.6455 56.5143 63.5486 55.779 63.5436 54.8713V6.82351C63.5436 6.33989 63.3515 5.87607 63.0095 5.5341C62.6676 5.19212 62.2037 5 61.7201 5H3.82351C3.33989 5 2.87607 5.19212 2.5341 5.5341C2.19212 5.87607 2 6.33989 2 6.82351V54.8713C2 55.779 2.90264 56.5143 4.01818 56.5143Z" fill="white"/>
</g>
<path d="M7.927 38.7351H58.5295V48.7644C58.5295 49.2481 58.3374 49.7119 57.9954 50.0539C57.6535 50.3958 57.1897 50.588 56.706 50.588H9.75052C9.26689 50.588 8.80307 50.3958 8.4611 50.0539C8.11912 49.7119 7.927 49.2481 7.927 48.7644V38.7351Z" fill="#4EE88D"/>
<path d="M7.927 24.147H58.5295V36.9116H7.927V24.147Z" fill="#FFC344"/>
<path d="M7.927 12.294C7.927 11.8103 8.11912 11.3465 8.4611 11.0046C8.80307 10.6626 9.26689 10.4705 9.75052 10.4705H56.706C57.1897 10.4705 57.6535 10.6626 57.9954 11.0046C58.3374 11.3465 58.5295 11.8103 58.5295 12.294V22.3233H7.927V12.294Z" fill="#5072F1"/>
<path d="M53.5147 15.4851H22.059C21.3037 15.4851 20.6914 16.0974 20.6914 16.8527C20.6914 17.6081 21.3037 18.2204 22.059 18.2204H53.5147C54.27 18.2204 54.8823 17.6081 54.8823 16.8527C54.8823 16.0974 54.27 15.4851 53.5147 15.4851Z" fill="#3D44D1"/>
<path d="M53.5147 29.1616H22.059C21.3037 29.1616 20.6914 29.7739 20.6914 30.5293C20.6914 31.2846 21.3037 31.8969 22.059 31.8969H53.5147C54.27 31.8969 54.8823 31.2846 54.8823 30.5293C54.8823 29.7739 54.27 29.1616 53.5147 29.1616Z" fill="#C79324"/>
<path d="M53.5147 43.2937H22.059C21.3037 43.2937 20.6914 43.906 20.6914 44.6613C20.6914 45.4167 21.3037 46.029 22.059 46.029H53.5147C54.27 46.029 54.8823 45.4167 54.8823 44.6613C54.8823 43.906 54.27 43.2937 53.5147 43.2937Z" fill="#32B567"/>
<path d="M57.6171 63.8085H34.3672C32.3614 63.8085 30.7202 62.1673 30.7202 60.1614V56.5144H32.5437V60.1614C32.5437 61.1644 33.3643 61.9849 34.3672 61.9849H57.6171V63.8085Z" fill="#828A91"/>
<path d="M60.3531 61.073C61.356 61.073 62.1766 61.8936 62.1766 62.8965C62.1766 63.8995 61.356 64.7201 60.3531 64.7201C59.3502 64.7201 58.5296 63.8995 58.5296 62.8965C58.5296 61.8936 59.3502 61.073 60.3531 61.073ZM60.3531 59.2495C58.3472 59.2495 56.7061 60.8907 56.7061 62.8965C56.7061 64.9024 58.3472 66.5436 60.3531 66.5436C62.359 66.5436 64.0001 64.9024 64.0001 62.8965C64.0001 60.8907 62.359 59.2495 60.3531 59.2495Z" fill="#828A91"/>
<path fill-rule="evenodd" clip-rule="evenodd" d="M15.3953 27.1656L17.3228 32.5632C17.3545 32.6517 17.4128 32.7283 17.4896 32.7824C17.5665 32.8365 17.6582 32.8655 17.7522 32.8655H17.9847C18.0981 32.8655 18.2068 32.9105 18.2869 32.9907C18.3671 33.0708 18.4121 33.1795 18.4121 33.2929C18.4121 33.4062 18.3671 33.5149 18.2869 33.5951C18.2068 33.6752 18.0981 33.7203 17.9847 33.7203H15.8476C15.7342 33.7203 15.6255 33.6752 15.5454 33.5951C15.4652 33.5149 15.4202 33.4062 15.4202 33.2929C15.4202 33.1795 15.4652 33.0708 15.5454 32.9907C15.6255 32.9105 15.7342 32.8655 15.8476 32.8655C15.9684 32.8655 16.0527 32.7456 16.0121 32.6316L15.6383 31.5831H13.493L13.1182 32.6316C13.1088 32.6581 13.1059 32.6864 13.1097 32.7142C13.1135 32.742 13.1239 32.7684 13.1401 32.7914C13.1563 32.8143 13.1777 32.833 13.2026 32.8459C13.2275 32.8588 13.2552 32.8655 13.2833 32.8655C13.3966 32.8655 13.5053 32.9105 13.5855 32.9907C13.6656 33.0708 13.7106 33.1795 13.7106 33.2929C13.7106 33.4062 13.6656 33.5149 13.5855 33.5951C13.5053 33.6752 13.3966 33.7203 13.2833 33.7203H12.0009C11.8875 33.7203 11.7788 33.6752 11.6987 33.5951C11.6185 33.5149 11.5735 33.4062 11.5735 33.2929C11.5735 33.1795 11.6185 33.0708 11.6987 32.9907C11.7788 32.9105 11.8875 32.8655 12.0009 32.8655C12.0378 32.8655 12.0738 32.8541 12.104 32.8329C12.1342 32.8117 12.1571 32.7817 12.1695 32.747L14.1631 27.1656C14.1928 27.0826 14.2474 27.0109 14.3195 26.9601C14.3915 26.9093 14.4775 26.8821 14.5656 26.8821H14.9928C15.1733 26.8821 15.3347 26.9961 15.3953 27.1656ZM13.7979 30.7288L14.5656 28.5802L15.3329 30.7288H13.7979Z" fill="#C79324"/>
<path fill-rule="evenodd" clip-rule="evenodd" d="M14.0468 41.9991C14.0521 41.9352 14.0448 41.8708 14.0252 41.8097C14.0056 41.7486 13.9742 41.692 13.9328 41.643C13.8913 41.5941 13.8406 41.5537 13.7836 41.5244C13.7265 41.495 13.6642 41.4772 13.6003 41.4719C13.5364 41.4666 13.472 41.4739 13.4109 41.4935C13.3498 41.5131 13.2932 41.5445 13.2442 41.586C13.1453 41.6697 13.0838 41.7893 13.0731 41.9184L12.9883 42.9355H11.6061C11.4791 42.9394 11.3586 42.9925 11.2702 43.0837C11.1818 43.1749 11.1323 43.2969 11.1323 43.424C11.1323 43.551 11.1818 43.673 11.2702 43.7642C11.3586 43.8554 11.4791 43.9086 11.6061 43.9124H12.9071L12.7444 45.8663H11.6056C11.4786 45.8702 11.3582 45.9234 11.2697 46.0146C11.1813 46.1057 11.1318 46.2278 11.1318 46.3548C11.1318 46.4818 11.1813 46.6039 11.2697 46.695C11.3582 46.7862 11.4786 46.8394 11.6056 46.8433H12.6623L12.5844 47.7796C12.5791 47.8436 12.5864 47.9079 12.606 47.969C12.6256 48.03 12.6569 48.0866 12.6984 48.1356C12.7398 48.1845 12.7905 48.2248 12.8475 48.2542C12.9045 48.2835 12.9668 48.3013 13.0307 48.3066C13.0946 48.3119 13.1589 48.3046 13.22 48.285C13.2811 48.2655 13.3377 48.2341 13.3866 48.1926C13.4356 48.1512 13.4759 48.1005 13.5052 48.0435C13.5346 47.9865 13.5524 47.9242 13.5577 47.8603L13.6425 46.8433H15.1045L15.027 47.7796C15.0217 47.8436 15.029 47.9079 15.0486 47.969C15.0681 48.03 15.0995 48.0866 15.141 48.1356C15.1824 48.1845 15.2331 48.2248 15.2901 48.2542C15.3471 48.2835 15.4094 48.3013 15.4733 48.3066C15.5372 48.3119 15.6015 48.3046 15.6626 48.285C15.7237 48.2655 15.7803 48.2341 15.8292 48.1926C15.8782 48.1512 15.9184 48.1005 15.9478 48.0435C15.9772 47.9865 15.995 47.9242 16.0003 47.8603L16.0851 46.8433H17.4673C17.5943 46.8394 17.7147 46.7862 17.8032 46.695C17.8916 46.6039 17.9411 46.4818 17.9411 46.3548C17.9411 46.2278 17.8916 46.1057 17.8032 46.0146C17.7147 45.9234 17.5943 45.8702 17.4673 45.8663H16.1662L16.329 43.9124H17.4673C17.5943 43.9086 17.7147 43.8554 17.8032 43.7642C17.8916 43.673 17.9411 43.551 17.9411 43.424C17.9411 43.2969 17.8916 43.1749 17.8032 43.0837C17.7147 42.9925 17.5943 42.9394 17.4673 42.9355H16.4106L16.4885 41.9991C16.4992 41.87 16.4582 41.742 16.3745 41.6432C16.2908 41.5443 16.1713 41.4828 16.0422 41.4721C15.9132 41.4614 15.7851 41.5024 15.6863 41.5861C15.5875 41.6698 15.5259 41.7893 15.5152 41.9184L15.4304 42.9355H13.9684L14.0459 41.9991H14.0468ZM15.1865 45.8663L15.3493 43.9124H13.8873L13.7245 45.8663H15.1865Z" fill="#32B567"/>
<path fill-rule="evenodd" clip-rule="evenodd" d="M14.3602 15.4442L13.9846 15.069C13.9044 14.9888 13.7957 14.9438 13.6823 14.9438C13.569 14.9438 13.4602 14.9888 13.3801 15.069C13.2999 15.1492 13.2549 15.2579 13.2549 15.3713C13.2549 15.4846 13.2999 15.5933 13.3801 15.6735L13.7557 16.0491L11.4937 18.3112C11.2532 18.5516 11.1182 18.8777 11.1182 19.2177C11.1182 19.5577 11.2532 19.8838 11.4937 20.1242C11.7341 20.3647 12.0602 20.4997 12.4002 20.4997C12.7402 20.4997 13.0663 20.3647 13.3067 20.1242L15.5688 17.8622L15.9444 18.2378C16.0246 18.318 16.1333 18.363 16.2466 18.363C16.36 18.363 16.4687 18.318 16.5489 18.2378C16.6291 18.1577 16.6741 18.0489 16.6741 17.9356C16.6741 17.8222 16.6291 17.7135 16.5489 17.6333L16.1733 17.2577L17.5805 15.8504C17.821 15.61 17.956 15.2839 17.956 14.9439C17.956 14.6039 17.821 14.2778 17.5805 14.0374C17.3401 13.7969 17.014 13.6619 16.674 13.6619C16.334 13.6619 16.0079 13.7969 15.7675 14.0374L14.3602 15.4442ZM14.3602 16.6536L14.9643 17.2577L12.7022 19.5198C12.6217 19.5981 12.5136 19.6416 12.4014 19.6408C12.2891 19.6401 12.1816 19.5952 12.1022 19.5157C12.0227 19.4363 11.9778 19.3289 11.9771 19.2166C11.9763 19.1043 12.0198 18.9962 12.0982 18.9157L14.3602 16.6536Z" fill="#3D44D1"/>
</g>
<defs>
<filter id="filter0_d_13179_136910" x="31.21" y="30.6243" width="60.5483" height="60.5483" filterUnits="userSpaceOnUse" color-interpolation-filters="sRGB">
<feFlood flood-opacity="0" result="BackgroundImageFix"/>
<feColorMatrix in="SourceAlpha" type="matrix" values="0 0 0 0 0 0 0 0 0 0 0 0 0 0 0 0 0 0 127 0" result="hardAlpha"/>
<feOffset dy="2"/>
<feGaussianBlur stdDeviation="5"/>
<feColorMatrix type="matrix" values="0 0 0 0 0 0 0 0 0 0 0 0 0 0 0 0 0 0 0.3 0"/>
<feBlend mode="normal" in2="BackgroundImageFix" result="effect1_dropShadow_13179_136910"/>
<feBlend mode="normal" in="SourceGraphic" in2="effect1_dropShadow_13179_136910" result="shape"/>
</filter>
<filter id="filter1_d_13179_136910" x="-3" y="1" width="71.5437" height="61.5144" filterUnits="userSpaceOnUse" color-interpolation-filters="sRGB">
<feFlood flood-opacity="0" result="BackgroundImageFix"/>
<feColorMatrix in="SourceAlpha" type="matrix" values="0 0 0 0 0 0 0 0 0 0 0 0 0 0 0 0 0 0 127 0" result="hardAlpha"/>
<feOffset dy="1"/>
<feGaussianBlur stdDeviation="2.5"/>
<feColorMatrix type="matrix" values="0 0 0 0 0 0 0 0 0 0 0 0 0 0 0 0 0 0 0.3 0"/>
<feBlend mode="normal" in2="BackgroundImageFix" result="effect1_dropShadow_13179_136910"/>
<feBlend mode="normal" in="SourceGraphic" in2="effect1_dropShadow_13179_136910" result="shape"/>
</filter>
<linearGradient id="paint0_linear_13179_136910" x1="64.4404" y1="18.6963" x2="70.9627" y2="18.6963" gradientUnits="userSpaceOnUse">
<stop stop-color="#5278FF"/>
<stop offset="1" stop-color="#30B8FC"/>
</linearGradient>
<linearGradient id="paint1_linear_13179_136910" x1="47" y1="68.0437" x2="53.5223" y2="68.0437" gradientUnits="userSpaceOnUse">
<stop stop-color="#5278FF"/>
<stop offset="1" stop-color="#30B8FC"/>
</linearGradient>
<clipPath id="clip0_13179_136910">
<rect width="80" height="80" fill="white"/>
</clipPath>
</defs>
</svg>
