<svg width="40" height="40" viewBox="0 0 40 40" fill="none" xmlns="http://www.w3.org/2000/svg">
<g clip-path="url(#clip0_18780_1099)">
<path d="M0 8C0 3.58172 3.58172 0 8 0H32C36.4183 0 40 3.58172 40 8V32C40 36.4183 36.4183 40 32 40H8C3.58172 40 0 36.4183 0 32V8Z" fill="#0866FF"/>
<path d="M15.1683 39.9999V26.1116H11.0442V20H15.1683V17.3664C15.1683 10.5591 18.2491 7.40381 24.9322 7.40381C26.1992 7.40381 28.3855 7.65229 29.2799 7.90077V13.441C28.8079 13.3913 27.988 13.3665 26.9694 13.3665C23.6899 13.3665 22.4229 14.6087 22.4229 17.8384V20H28.9556L27.8333 26.1116H22.4229V39.9999H15.1683Z" fill="white"/>
</g>
<defs>
<clipPath id="clip0_18780_1099">
<rect width="40" height="40" rx="4" fill="white"/>
</clipPath>
</defs>
</svg>
