<svg width="32" height="32" viewBox="0 0 32 32" fill="none" xmlns="http://www.w3.org/2000/svg">
<g clip-path="url(#clip0_2115_27719)">
<path d="M9.18067 11.3333H8.51398V11.9999H9.18067C9.26907 11.9999 9.35386 11.9648 9.41637 11.9023C9.47889 11.8398 9.51401 11.755 9.51401 11.6666C9.51401 11.5782 9.47889 11.4934 9.41637 11.4309C9.35386 11.3684 9.26907 11.3333 9.18067 11.3333Z" fill="url(#paint0_linear_2115_27719)"/>
<path d="M18.6667 6H3.33339C2.80296 6 2.29425 6.21071 1.91918 6.58579C1.5441 6.96086 1.33339 7.46957 1.33339 8V16H0.702139C0.370326 16 0.0625138 16.2269 0.00913878 16.5547C-0.00707717 16.6504 -0.00223085 16.7484 0.0233398 16.842C0.0489105 16.9356 0.0945901 17.0225 0.157194 17.0966C0.219797 17.1708 0.297817 17.2304 0.385815 17.2713C0.473813 17.3121 0.569669 17.3333 0.666701 17.3334H2.29795C2.63008 17.3334 2.93783 17.5603 2.9912 17.8881C3.00742 17.9837 3.00257 18.0818 2.977 18.1754C2.95143 18.269 2.90575 18.3559 2.84315 18.43C2.78054 18.5042 2.70252 18.5637 2.61453 18.6046C2.52653 18.6455 2.43067 18.6667 2.33364 18.6667H0.702389C0.370326 18.6667 0.0625138 18.8937 0.00913878 19.2213C-0.00707717 19.317 -0.00223085 19.415 0.0233398 19.5086C0.0489105 19.6022 0.0945901 19.6891 0.157194 19.7633C0.219797 19.8374 0.297817 19.897 0.385815 19.9379C0.473813 19.9788 0.569669 20 0.666701 20H20C20.1768 20 20.3464 19.9298 20.4714 19.8047C20.5965 19.6797 20.6667 19.5101 20.6667 19.3333V8C20.6667 7.46957 20.456 6.96086 20.0809 6.58579C19.7058 6.21071 19.1971 6 18.6667 6ZM6.00001 11.3333H4.6667V12H5.6667C5.75479 11.9991 5.84218 12.0158 5.92381 12.0489C6.00544 12.082 6.0797 12.131 6.14229 12.193C6.20488 12.255 6.25457 12.3287 6.28848 12.41C6.32238 12.4913 6.33984 12.5786 6.33984 12.6667C6.33984 12.7548 6.32238 12.842 6.28848 12.9233C6.25457 13.0046 6.20488 13.0784 6.14229 13.1404C6.0797 13.2023 6.00544 13.2513 5.92381 13.2844C5.84218 13.3176 5.75479 13.3342 5.6667 13.3333H4.6667V14.6666C4.665 14.8423 4.59401 15.0102 4.46918 15.1339C4.34434 15.2575 4.17574 15.3269 4.00005 15.3269C3.82435 15.3269 3.65575 15.2575 3.53091 15.1339C3.40608 15.0102 3.33509 14.8423 3.33339 14.6666V10.6666C3.33341 10.4898 3.40364 10.3203 3.52866 10.1953C3.65367 10.0703 3.82322 10 4.00001 10H6.00001C6.1757 10.0017 6.34362 10.0727 6.46725 10.1975C6.59089 10.3224 6.66025 10.491 6.66025 10.6667C6.66025 10.8424 6.59089 11.011 6.46725 11.1358C6.34362 11.2606 6.1757 11.3316 6.00001 11.3333ZM10.599 14.2277C10.6566 14.2936 10.7007 14.3701 10.7288 14.4531C10.7568 14.536 10.7682 14.6236 10.7624 14.711C10.7566 14.7983 10.7336 14.8836 10.6948 14.9621C10.656 15.0406 10.6022 15.1106 10.5363 15.1683C10.4704 15.2259 10.3938 15.27 10.3109 15.2981C10.228 15.3261 10.1404 15.3376 10.053 15.3318C9.96568 15.3259 9.88034 15.303 9.80187 15.2642C9.7234 15.2254 9.65335 15.1715 9.5957 15.1056L8.51401 13.8694V14.6666C8.51231 14.8423 8.44133 15.0102 8.31649 15.1339C8.19165 15.2575 8.02306 15.3269 7.84736 15.3269C7.67166 15.3269 7.50306 15.2575 7.37823 15.1339C7.25339 15.0102 7.1824 14.8423 7.1807 14.6666V10.6666C7.18072 10.4898 7.25096 10.3203 7.37597 10.1953C7.50098 10.0703 7.67053 10 7.84733 10H9.18064C9.57401 10 9.9547 10.1392 10.2554 10.3928C10.556 10.6465 10.7573 10.9983 10.8235 11.3861C10.8898 11.7738 10.8167 12.1725 10.6174 12.5116C10.418 12.8507 10.1051 13.1083 9.73401 13.2389L10.599 14.2277ZM13.8188 12C13.9069 11.9991 13.9942 12.0158 14.0759 12.0489C14.1575 12.082 14.2318 12.131 14.2943 12.193C14.3569 12.255 14.4066 12.3287 14.4405 12.41C14.4744 12.4913 14.4919 12.5786 14.4919 12.6667C14.4919 12.7548 14.4744 12.842 14.4405 12.9233C14.4066 13.0046 14.3569 13.0784 14.2943 13.1404C14.2318 13.2023 14.1575 13.2513 14.0759 13.2844C13.9942 13.3176 13.9069 13.3342 13.8188 13.3333H12.8333V14H14.1666C14.2547 13.9991 14.3421 14.0158 14.4237 14.0489C14.5054 14.082 14.5796 14.131 14.6422 14.193C14.7048 14.255 14.7545 14.3287 14.7884 14.41C14.8223 14.4913 14.8398 14.5786 14.8398 14.6667C14.8398 14.7548 14.8223 14.842 14.7884 14.9233C14.7545 15.0046 14.7048 15.0784 14.6422 15.1404C14.5796 15.2023 14.5054 15.2513 14.4237 15.2844C14.3421 15.3176 14.2547 15.3342 14.1666 15.3333H12.1666C11.9898 15.3333 11.8203 15.2631 11.6953 15.138C11.5703 15.013 11.5 14.8435 11.5 14.6667V10.6667C11.5 10.4899 11.5703 10.3203 11.6953 10.1953C11.8203 10.0702 11.9899 10 12.1667 10H14.1667C14.3424 10.0017 14.5103 10.0727 14.6339 10.1975C14.7576 10.3224 14.8269 10.491 14.8269 10.6667C14.8269 10.8424 14.7576 11.011 14.6339 11.1358C14.5103 11.2606 14.3424 11.3316 14.1667 11.3333H12.8333V12H13.8188ZM17.6518 12C17.7399 11.9991 17.8272 12.0158 17.9089 12.0489C17.9905 12.082 18.0648 12.131 18.1273 12.193C18.1899 12.255 18.2396 12.3287 18.2735 12.41C18.3074 12.4913 18.3249 12.5786 18.3249 12.6667C18.3249 12.7548 18.3074 12.842 18.2735 12.9233C18.2396 13.0046 18.1899 13.0784 18.1273 13.1404C18.0648 13.2023 17.9905 13.2513 17.9089 13.2844C17.8272 13.3176 17.7399 13.3342 17.6518 13.3333H16.6668V14H18C18.0881 13.9991 18.1755 14.0158 18.2571 14.0489C18.3387 14.082 18.413 14.131 18.4756 14.193C18.5382 14.255 18.5879 14.3287 18.6218 14.41C18.6557 14.4913 18.6732 14.5786 18.6732 14.6667C18.6732 14.7548 18.6557 14.842 18.6218 14.9233C18.5879 15.0046 18.5382 15.0784 18.4756 15.1404C18.413 15.2023 18.3387 15.2513 18.2571 15.2844C18.1755 15.3176 18.0881 15.3342 18 15.3333H16C15.8232 15.3333 15.6536 15.2631 15.5286 15.138C15.4036 15.013 15.3333 14.8434 15.3333 14.6666V10.6666C15.3333 10.4898 15.4036 10.3203 15.5286 10.1952C15.6536 10.0702 15.8232 10 16 10H18C18.1757 10.0017 18.3436 10.0727 18.4673 10.1975C18.5909 10.3224 18.6602 10.491 18.6602 10.6667C18.6602 10.8424 18.5909 11.011 18.4673 11.1358C18.3436 11.2606 18.1757 11.3316 18 11.3333H16.6667V12H17.6518Z" fill="url(#paint1_linear_2115_27719)"/>
<path d="M4.50487 21.3333H1.33337C1.33337 21.8637 1.54409 22.3724 1.91916 22.7475C2.29423 23.1225 2.80294 23.3333 3.33337 23.3333H3.68337C3.74884 22.5989 4.03525 21.9016 4.50487 21.3333Z" fill="url(#paint2_linear_2115_27719)"/>
<path d="M20 21.3333H10.1618C10.6314 21.9016 10.9178 22.5989 10.9832 23.3333H20C20.1768 23.3333 20.3464 23.263 20.4714 23.138C20.5964 23.013 20.6667 22.8434 20.6667 22.6666V21.9999C20.6667 21.8231 20.5964 21.6535 20.4714 21.5285C20.3464 21.4035 20.1768 21.3333 20 21.3333Z" fill="url(#paint3_linear_2115_27719)"/>
<path d="M7.33331 26.0001C8.62197 26.0001 9.66663 24.9555 9.66663 23.6668C9.66663 22.3782 8.62197 21.3335 7.33331 21.3335C6.04466 21.3335 5 22.3782 5 23.6668C5 24.9555 6.04466 26.0001 7.33331 26.0001Z" fill="url(#paint4_linear_2115_27719)"/>
<path d="M31.7012 17.1983L29.1396 11.5631C28.9273 11.0975 28.5856 10.7026 28.1554 10.4255C27.7251 10.1484 27.2243 10.0007 26.7125 10H22.6667C22.4899 10 22.3203 10.0702 22.1953 10.1953C22.0702 10.3203 22 10.4899 22 10.6667V21.1553C22.4833 20.6405 23.1051 20.2765 23.7905 20.107C24.4759 19.9375 25.1957 19.9698 25.8632 20.1999C26.5307 20.4301 27.1174 20.8483 27.5526 21.4043C27.9879 21.9602 28.2532 22.6301 28.3165 23.3333H30C30.5304 23.3333 31.0391 23.1226 31.4142 22.7475C31.7893 22.3725 32 21.8637 32 21.3333V18.5776C32 18.1018 31.8981 17.6315 31.7012 17.1983ZM28.6616 16.6666H24.3333C24.1565 16.6666 23.987 16.5964 23.862 16.4714C23.7369 16.3463 23.6667 16.1768 23.6667 16V13.3333C23.6667 13.1565 23.7369 12.9869 23.862 12.8619C23.987 12.7369 24.1566 12.6666 24.3334 12.6666H27.0203C27.2763 12.6666 27.5268 12.7402 27.7421 12.8788C27.9573 13.0173 28.1281 13.2149 28.2341 13.4479L29.2687 15.7241C29.3149 15.8257 29.3349 15.9372 29.3267 16.0485C29.3186 16.1598 29.2827 16.2672 29.2223 16.361C29.1619 16.4548 29.0789 16.5319 28.9809 16.5853C28.883 16.6388 28.7732 16.6667 28.6616 16.6667V16.6666Z" fill="url(#paint5_linear_2115_27719)"/>
<path d="M24.6667 26.0001C25.9553 26.0001 27 24.9555 27 23.6668C27 22.3782 25.9553 21.3335 24.6667 21.3335C23.378 21.3335 22.3334 22.3782 22.3334 23.6668C22.3334 24.9555 23.378 26.0001 24.6667 26.0001Z" fill="url(#paint6_linear_2115_27719)"/>
</g>
<defs>
<linearGradient id="paint0_linear_2115_27719" x1="8.84732" y1="11.8859" x2="9.53664" y2="11.4193" gradientUnits="userSpaceOnUse">
<stop stop-color="#0088FF"/>
<stop offset="1" stop-color="#33A0FF"/>
</linearGradient>
<linearGradient id="paint1_linear_2115_27719" x1="6.88874" y1="17.6053" x2="21.2766" y2="8.0209" gradientUnits="userSpaceOnUse">
<stop stop-color="#0088FF"/>
<stop offset="1" stop-color="#33A0FF"/>
</linearGradient>
<linearGradient id="paint2_linear_2115_27719" x1="2.39054" y1="22.9911" x2="4.49874" y2="21.4826" gradientUnits="userSpaceOnUse">
<stop stop-color="#0088FF"/>
<stop offset="1" stop-color="#33A0FF"/>
</linearGradient>
<linearGradient id="paint3_linear_2115_27719" x1="13.6634" y1="22.9911" x2="15.2589" y2="19.2096" gradientUnits="userSpaceOnUse">
<stop stop-color="#0088FF"/>
<stop offset="1" stop-color="#33A0FF"/>
</linearGradient>
<linearGradient id="paint4_linear_2115_27719" x1="6.55554" y1="25.2019" x2="10.4525" y2="23.4434" gradientUnits="userSpaceOnUse">
<stop stop-color="#0088FF"/>
<stop offset="1" stop-color="#33A0FF"/>
</linearGradient>
<linearGradient id="paint5_linear_2115_27719" x1="25.3333" y1="21.0526" x2="34.3514" y2="18.0005" gradientUnits="userSpaceOnUse">
<stop stop-color="#0088FF"/>
<stop offset="1" stop-color="#33A0FF"/>
</linearGradient>
<linearGradient id="paint6_linear_2115_27719" x1="23.8889" y1="25.2019" x2="27.7858" y2="23.4434" gradientUnits="userSpaceOnUse">
<stop stop-color="#0088FF"/>
<stop offset="1" stop-color="#33A0FF"/>
</linearGradient>
<clipPath id="clip0_2115_27719">
<rect width="32" height="32" fill="white"/>
</clipPath>
</defs>
</svg>
