<svg width="80" height="81" viewBox="0 0 80 81" fill="none" xmlns="http://www.w3.org/2000/svg">
  <circle cx="46.5" cy="44" r="33.5" fill="#CFE2FF" />
  <circle cx="46.5" cy="44" r="33.5" fill="#F3F8FF" />
  <path
    opacity="0.9"
    d="M76.4136 15.4682L78.5223 16.5438L76.4136 17.6193L75.2612 19.5875L74.1087 17.6193L72 16.5438L74.1087 15.4682L75.2612 13.5L76.4136 15.4682Z"
    fill="url(#paint0_linear_5168_6220)"
  />
  <path
    opacity="0.9"
    d="M57.4136 70.4682L59.5223 71.5438L57.4136 72.6193L56.2612 74.5875L55.1087 72.6193L53 71.5438L55.1087 70.4682L56.2612 68.5L57.4136 70.4682Z"
    fill="url(#paint1_linear_5168_6220)"
  />
  <path
    opacity="0.9"
    d="M2.06238 41.4844L3.04374 42.0219L2.06238 42.5624L1.52187 43.5438L0.984386 42.5624L0 42.0219L0.984386 41.4844L1.52187 40.5L2.06238 41.4844Z"
    fill="#FF9F1C"
  />
  <path
    opacity="0.9"
    d="M55.0624 6.4844L56.0437 7.02189L55.0624 7.56239L54.5219 8.54376L53.9844 7.56239L53 7.02189L53.9844 6.4844L54.5219 5.50002L55.0624 6.4844Z"
    fill="#FF9F1C"
  />
  <path
    fill-rule="evenodd"
    clip-rule="evenodd"
    d="M8.8727 26.5H71.1273C73.2553 26.5 75 28.2421 75 30.3756V53.1819C75 55.3155 73.2553 57.0616 71.1273 57.0616H8.8727C6.7407 57.0616 5 55.3155 5 53.1819V30.3756C5 28.2421 6.7407 26.5 8.8727 26.5Z"
    fill="#5072F1"
  />
  <path
    d="M45.8823 36.4816H42.2772C41.683 36.4816 40.9891 36.8298 40.9891 37.8131L41.0012 44.965C41.0021 45.5486 41.4749 46.0211 42.0575 46.0211H42.0592C42.6426 46.0202 43.1147 45.5458 43.1137 44.9614L43.1101 42.7049H45.8823C46.6646 42.7049 47.3554 42.2746 47.7774 41.5244C48.0746 40.996 48.2381 40.3102 48.2381 39.5933C48.2382 37.7611 47.2694 36.4816 45.8823 36.4816ZM45.8638 40.589H43.1065L43.1032 38.5973H45.8638C45.9434 38.6733 46.1254 39.0092 46.1254 39.593C46.1255 40.1772 45.9435 40.513 45.8638 40.589Z"
    fill="#F8F6F6"
  />
  <path
    d="M18.7857 36.4816C18.2022 36.4816 17.7294 36.9552 17.7294 37.5395V40.1935H14.4322V37.5395C14.4322 36.9552 13.9592 36.4816 13.3759 36.4816C12.7925 36.4816 12.3196 36.9552 12.3196 37.5395V44.9632C12.3196 45.5475 12.7925 46.0211 13.3759 46.0211C13.9592 46.0211 14.4322 45.5475 14.4322 44.9632V42.3092H17.7294V44.9632C17.7294 45.5475 18.2023 46.0211 18.7857 46.0211C19.3692 46.0211 19.842 45.5475 19.842 44.9632V37.5395C19.842 36.9552 19.3692 36.4816 18.7857 36.4816Z"
    fill="#F8F6F6"
  />
  <path
    d="M28.6991 36.4816H23.2894C22.7059 36.4816 22.2332 36.9552 22.2332 37.5395C22.2332 38.1238 22.7061 38.5974 23.2894 38.5974H24.9359V44.9632C24.9359 45.5475 25.4089 46.0211 25.9922 46.0211C26.5756 46.0211 27.0485 45.5475 27.0485 44.9632V38.5974H28.699C29.2825 38.5974 29.7553 38.1238 29.7553 37.5395C29.7554 36.9552 29.2826 36.4816 28.6991 36.4816Z"
    fill="#F8F6F6"
  />
  <path
    d="M37.6584 36.4816H32.2485C31.665 36.4816 31.1923 36.9552 31.1923 37.5395C31.1923 38.1238 31.6652 38.5974 32.2485 38.5974H33.8992V44.9632C33.8992 45.5475 34.3721 46.0211 34.9554 46.0211C35.5388 46.0211 36.0117 45.5475 36.0117 44.9632V38.5974H37.6582C38.2418 38.5974 38.7145 38.1238 38.7145 37.5395C38.7148 36.9552 38.2419 36.4816 37.6584 36.4816Z"
    fill="#F8F6F6"
  />
  <path
    d="M53.0206 44.2471C52.4371 44.2471 51.9644 43.7735 51.9644 43.1892C51.9644 42.6048 52.4373 42.1254 53.0206 42.1254C53.604 42.1254 54.0769 42.5928 54.0769 43.1771V43.1892C54.0771 43.7735 53.6042 44.2471 53.0206 44.2471Z"
    fill="#F8F6F6"
  />
  <path
    d="M53.0206 39.816C52.4371 39.816 51.9644 39.3424 51.9644 38.7581C51.9644 38.1738 52.4373 37.6943 53.0206 37.6943C53.604 37.6943 54.0769 38.1617 54.0769 38.7461V38.7581C54.0771 39.3424 53.6042 39.816 53.0206 39.816Z"
    fill="#F8F6F6"
  />
  <path
    d="M58.3951 46.0213C58.2529 46.0213 58.1082 45.9923 57.9697 45.9312C57.4359 45.6956 57.1937 45.0712 57.4289 44.5366L60.6947 37.1129C60.9298 36.5782 61.5535 36.3357 62.0872 36.5713C62.621 36.8068 62.8632 37.4312 62.628 37.9658L59.3622 45.3895C59.1882 45.7855 58.801 46.0213 58.3951 46.0213Z"
    fill="#F8F6F6"
  />
  <path
    d="M63.8643 46.0213C63.7221 46.0213 63.5775 45.9923 63.439 45.9312C62.9051 45.6956 62.663 45.0712 62.8981 44.5366L66.1639 37.1129C66.3989 36.5782 67.0228 36.3357 67.5564 36.5713C68.0903 36.8068 68.3324 37.4312 68.0973 37.9658L64.8315 45.3895C64.6574 45.7855 64.2702 46.0213 63.8643 46.0213Z"
    fill="#F8F6F6"
  />
  <path
    fill-rule="evenodd"
    clip-rule="evenodd"
    d="M70.9398 30.3756V53.1819C70.9398 55.3155 69.1991 57.0616 67.0671 57.0616H71.1275C73.2556 57.0616 75.0002 55.3155 75.0002 53.1819V30.3756C75.0002 28.2419 73.2556 26.5 71.1275 26.5H67.0671C69.1991 26.5 70.9398 28.2421 70.9398 30.3756Z"
    fill="#A2C1FA"
  />
  <path
    d="M56.4076 66.471L50.3509 60.1301L48.1152 62.1478C47.9276 62.3155 47.6521 62.2317 47.5642 61.9321L46.7258 50.9125C46.7258 50.7606 46.7258 50.6887 46.7618 50.6528C46.7977 50.6208 46.8736 50.6288 47.0213 50.6407L57.8927 52.5786C58.1842 52.6985 58.2401 52.9781 58.0524 53.1499L55.8246 55.1757L61.8812 61.5166C61.997 61.6444 61.9611 61.8003 61.8293 61.9202L59.322 64.1896L56.8148 66.4629C56.6831 66.5788 56.5234 66.5988 56.4076 66.471Z"
    fill="#FEB237"
  />
  <path
    fill-rule="evenodd"
    clip-rule="evenodd"
    d="M52.498 51.6196C53.6678 53.1019 54.5542 54.9678 55.0373 57.0614C55.3088 58.2241 55.4525 59.4547 55.4525 60.7293C55.4525 62.1917 55.2609 63.5981 54.9136 64.9046L56.4068 66.4708C56.5226 66.5986 56.6823 66.5787 56.8141 66.4629L59.3214 64.1894L61.8287 61.92C61.9605 61.8001 61.9963 61.6444 61.8806 61.5164L57.6247 57.0614L55.8241 55.1755L58.052 53.1498C58.2396 52.9779 58.1838 52.6983 57.8923 52.5784L52.498 51.6196Z"
    fill="#F6AB31"
  />
  <defs>
    <linearGradient
      id="paint0_linear_5168_6220"
      x1="72"
      y1="16.5438"
      x2="78.5223"
      y2="16.5438"
      gradientUnits="userSpaceOnUse"
    >
      <stop stop-color="#5278FF" />
      <stop offset="1" stop-color="#30B8FC" />
    </linearGradient>
    <linearGradient
      id="paint1_linear_5168_6220"
      x1="53"
      y1="71.5438"
      x2="59.5223"
      y2="71.5438"
      gradientUnits="userSpaceOnUse"
    >
      <stop stop-color="#5278FF" />
      <stop offset="1" stop-color="#30B8FC" />
    </linearGradient>
  </defs>
</svg>
