<?xml version="1.0" encoding="UTF-8"?>
<svg id="Layer_1" data-name="Layer 1" xmlns="http://www.w3.org/2000/svg" version="1.1" viewBox="0 0 40 40">
  <defs>
    <style>
      .cls-1 {
        fill: #ee4e2c;
      }

      .cls-1, .cls-2 {
        stroke-width: 0px;
      }

      .cls-2 {
        fill: #fff;
      }
    </style>
  </defs>
  <rect class="cls-1" width="40" height="40" rx="5.7" ry="5.7"/>
  <path class="cls-2" d="M24.8,27c.3-2.2-1.2-3.7-5-4.9-1.9-.6-2.7-1.4-2.7-2.6,0-1.3,1.3-2.2,2.8-2.2,1.1,0,2.3.3,3.5,1.1.1,0,.2,0,.3,0,.1-.2.4-.6.5-.7,0,0,0-.2,0-.3-.2-.2-.8-.5-1.2-.6-.9-.4-1.9-.6-3-.6-2.3,0-4.1,1.4-4.3,3.4,0,1.4.6,2.5,2.1,3.4.3.2,2,.8,2.7,1.1,2.1.7,3.2,1.8,3,3.2-.2,1.2-1.6,2-3.4,2.1-1.4,0-2.8-.6-3.8-1.4,0,0-.2-.1-.2-.1-.1,0-.3,0-.3,0,0,0-.5.6-.6.8,0,.1,0,.2,0,.3.4.3,1,.7,1.4.9,1,.5,2.2.8,3.4.9.8,0,1.8-.1,2.5-.4,1.3-.6,2.2-1.7,2.3-3ZM20.1,7.4c-2.5,0-4.5,2.3-4.6,5.2h9.2c0-2.9-2.1-5.2-4.6-5.2ZM29.5,34.2h0s-19,0-19,0h0c-1.3,0-2.2-1.1-2.4-2.4v-.2s-.9-18.4-.9-18.4h0s0,0,0,0c0-.3.2-.5.5-.5h6c.1-3.8,2.9-6.9,6.3-6.9s6.2,3,6.3,6.9h6c.3,0,.6.2.6.5s0,0,0,0h0s-.9,18.5-.9,18.5v.2c-.1,1.3-1.2,2.3-2.5,2.4Z"/>
</svg>