<?xml version="1.0" encoding="UTF-8"?>
<svg id="Layer_2" data-name="Layer 2" xmlns="http://www.w3.org/2000/svg" xmlns:xlink="http://www.w3.org/1999/xlink" viewBox="0 0 40 40">
  <defs>
    <linearGradient id="linear-gradient" x1="35.88" y1="2009.86" x2="5.18" y2="2033.42" gradientTransform="translate(0 -2004.34)" gradientUnits="userSpaceOnUse">
      <stop offset="0" stop-color="#fa00f0"/>
      <stop offset=".53" stop-color="#f01d46"/>
      <stop offset="1" stop-color="#f57700"/>
    </linearGradient>
  </defs>
  <g id="Layer_2-2" data-name="Layer 2">
    <rect width="40" height="40" rx="5.71" ry="5.71" style="fill: #061682; stroke-width: 0px;"/>
    <rect x="10" y="12.85" width="19.99" height="11.42" style="fill: #fff; stroke-width: 0px;"/>
    <path d="M28.43,8.71c.66.37,5.15,3.11,5.34,3.23.32.19.51.53.51.9v9.84c-.04.36-.26.67-.58.81-.08.04-.56.33-1.28.78-.16.1-.33.2-.51.32-.56.35-1.22.76-1.93,1.21-2.77,1.73-6.37,3.98-8.27,5.12-.52.32-.91.56-1.12.68-.17.1-.37.15-.58.15h-.06c-.18,0-.36-.06-.52-.15-.8-.46-4.34-2.66-7.54-4.65-2.82-1.76-5.39-3.35-5.59-3.45-.3-.14-.5-.41-.56-.72v-.09h0v-9.9c.02-.34.19-.65.48-.84l.08-.05c1.08-.68,4.7-2.88,5.28-3.2.13-.08.28-.12.43-.12.14,0,.28.04.41.11,0,0,5.07,3.3,5.84,3.59.54.25,1.13.37,1.73.37.68.02,1.35-.14,1.95-.47.45-.24,2.37-1.44,3.85-2.36.99-.62,1.78-1.11,1.8-1.11.12-.07.26-.11.4-.11.15,0,.3.05.43.12h.01ZM10.96,23.36h4.38v-1.53h-2.78v-7.75h-1.61v9.28h0ZM21.26,23.37h1.51v-6.83h-1.51v.91c-.52-.67-1.33-1.06-2.18-1.05-1.87,0-3.29,1.6-3.29,3.55s1.42,3.55,3.29,3.55c.85.02,1.66-.38,2.18-1.05v.91h0ZM23.93,23.37h5.61v-1.36h-3.65l3.57-4.26v-1.2h-5.47v1.36h3.53l-3.58,4.28v1.19h-.01ZM17.32,19.96c0-1.22.81-2.18,2.02-2.18s2.02.95,2.02,2.18-.82,2.18-2.02,2.18-2.02-.96-2.02-2.18Z" style="fill: url(#linear-gradient); fill-rule: evenodd; stroke-width: 0px;"/>
  </g>
</svg>