<svg width="24" height="24" viewBox="0 0 24 24" fill="none" xmlns="http://www.w3.org/2000/svg">
  <rect width="24" height="24" rx="4" fill="#E49C06"/>
  <path d="M12.0036 7.94737C14.0118 7.94737 15.6417 9.59789 15.6417 11.6316C15.6417 12.1105 15.5471 12.56 15.3797 12.98L17.5043 15.1316C18.603 14.2032 19.4688 13.0021 20 11.6316C18.7412 8.39684 15.6344 6.10526 11.9964 6.10526C10.9777 6.10526 10.0027 6.28947 9.1005 6.62105L10.6721 8.21263C11.0869 8.04316 11.5307 7.94737 12.0036 7.94737ZM4.7276 5.93579L6.38654 7.61579L6.72124 7.95474C5.51341 8.90526 4.56753 10.1726 4 11.6316C5.25875 14.8663 8.36562 17.1579 12.0036 17.1579C13.1314 17.1579 14.2083 16.9368 15.1905 16.5389L15.4961 16.8484L17.628 19L18.5521 18.0642L5.65166 5L4.7276 5.93579ZM8.75125 10.0105L9.87904 11.1526C9.84266 11.3074 9.82083 11.4695 9.82083 11.6316C9.82083 12.8547 10.7958 13.8421 12.0036 13.8421C12.1637 13.8421 12.3238 13.82 12.4766 13.7832L13.6044 14.9253C13.1169 15.1684 12.5784 15.3158 12.0036 15.3158C9.99545 15.3158 8.36562 13.6653 8.36562 11.6316C8.36562 11.0495 8.51114 10.5042 8.75125 10.0105ZM11.8872 9.43579L14.1792 11.7568L14.1937 11.6389C14.1937 10.4158 13.2187 9.42842 12.0109 9.42842L11.8872 9.43579Z" fill="white"/>
</svg>
