<svg width="20" height="20" viewBox="0 0 20 20" fill="none" xmlns="http://www.w3.org/2000/svg">
<path d="M18.1692 10.332C18.0379 10.1303 18.0379 9.86973 18.1692 9.66801L18.8996 8.54536C19.5649 7.52278 19.1166 6.14896 17.9795 5.71369L16.7287 5.23479C16.504 5.1487 16.3507 4.93788 16.3384 4.69753L16.2694 3.36003C16.2066 2.14192 15.0365 1.29356 13.8606 1.60997L12.5673 1.9577C12.3349 2.02012 12.087 1.93961 11.9358 1.75247L11.0938 0.71087C10.3269 -0.237718 8.88187 -0.236195 8.11633 0.71087L7.2743 1.7525C7.12305 1.93969 6.8752 2.02012 6.64278 1.95774L5.34939 1.61001C4.17116 1.29313 3.00319 2.1443 2.94054 3.36007L2.87159 4.69757C2.85917 4.93788 2.70601 5.14874 2.48128 5.23479L1.23059 5.71369C0.0911006 6.14986 -0.353584 7.52482 0.310435 8.5454L1.04086 9.66801C1.17207 9.86969 1.17207 10.1303 1.04086 10.332L0.310553 11.4546C-0.354834 12.4773 0.0936007 13.8511 1.23063 14.2863L2.4814 14.7652C2.70613 14.8513 2.85933 15.0621 2.87171 15.3025L2.94066 16.64C3.00347 17.8583 4.17377 18.7063 5.34951 18.39L6.64282 18.0423C6.87528 17.98 7.12309 18.0604 7.27438 18.2475L8.11637 19.2891C8.88336 20.2379 10.3284 20.236 11.0938 19.2891L11.9358 18.2475C12.0871 18.0604 12.3351 17.98 12.5673 18.0423L13.8607 18.39C15.0386 18.707 16.2069 17.8559 16.2696 16.64L16.3385 15.3025C16.3509 15.0622 16.5041 14.8513 16.7288 14.7652L17.9795 14.2863C19.1189 13.8502 19.5637 12.4753 18.8997 11.4546L18.1692 10.332ZM17.5127 13.0671L16.2619 13.546C15.5553 13.8166 15.0736 14.4796 15.0347 15.2352L14.9657 16.5727C14.9457 16.9602 14.5737 17.2298 14.1996 17.1293L12.9062 16.7816C12.1756 16.585 11.396 16.8384 10.9205 17.4268L10.0785 18.4683C9.8346 18.7701 9.37507 18.7695 9.1316 18.4683L8.28969 17.4268C7.92102 16.9707 7.36977 16.7159 6.80017 16.7159C6.63497 16.7159 6.46817 16.7373 6.30384 16.7816L5.01045 17.1293C4.63561 17.2299 4.26436 16.9595 4.24436 16.5727L4.17541 15.2352C4.13647 14.4796 3.65471 13.8165 2.94816 13.546L1.69738 13.0671C1.335 12.9283 1.19363 12.4912 1.4048 12.1666L2.13519 11.044C2.54781 10.4098 2.54781 9.59016 2.13519 8.95602L1.4048 7.83341C1.19316 7.50818 1.33574 7.07134 1.69742 6.93287L2.94819 6.45396C3.65479 6.18342 4.13651 5.52037 4.17545 4.76479L4.2444 3.4273C4.26436 3.03976 4.63643 2.77023 5.01049 2.8707L6.30388 3.21843C7.03454 3.41496 7.81403 3.1616 8.28965 2.5732L9.13164 1.53161C9.37558 1.22989 9.83515 1.23052 10.0785 1.53161L10.9205 2.57324C11.3962 3.16164 12.1756 3.415 12.9063 3.21843L14.1997 2.8707C14.5745 2.77004 14.9458 3.04054 14.9658 3.4273L15.0347 4.76479C15.0736 5.52037 15.5554 6.18346 16.2619 6.45396L17.5127 6.93291C17.8751 7.07158 18.0164 7.50884 17.8053 7.83341L17.075 8.95598C16.6623 9.59016 16.6623 10.4098 17.0749 11.044L17.8053 12.1665C18.0169 12.4919 17.8744 12.9287 17.5127 13.0671Z" fill="#0088FF"/>
<path d="M12.8664 6.67358C12.6115 6.4187 12.1982 6.4187 11.9433 6.67358L5.85088 12.766C5.596 13.0209 5.596 13.4342 5.85092 13.6891C5.97838 13.8166 6.14545 13.8803 6.31248 13.8803C6.47951 13.8803 6.64662 13.8166 6.77404 13.6891L12.8664 7.59666C13.1213 7.34182 13.1213 6.9285 12.8664 6.67358Z" fill="#0088FF"/>
<path d="M6.96468 6.48242C6.2448 6.48242 5.65918 7.06808 5.65918 7.78792C5.65918 8.5078 6.24488 9.09342 6.96468 9.09342C7.68456 9.09342 8.27018 8.50776 8.27018 7.78792C8.27022 7.06808 7.68456 6.48242 6.96468 6.48242Z" fill="#0088FF"/>
<path d="M11.752 11.2693C11.0321 11.2693 10.4465 11.8549 10.4465 12.5748C10.4465 13.2947 11.0322 13.8803 11.752 13.8803C12.4718 13.8803 13.0575 13.2946 13.0575 12.5748C13.0575 11.8549 12.4719 11.2693 11.752 11.2693Z" fill="#0088FF"/>
</svg>
