<svg width="24" height="24" viewBox="0 0 24 24" fill="none" xmlns="http://www.w3.org/2000/svg">
<g clip-path="url(#clip0_4195_52420)">
<circle cx="12" cy="12" r="10" fill="white" stroke="#CFF6E7" stroke-width="4"/>
<path d="M12.064 11.2H19V12.8H12.064L14.128 14.872L13 16L9 12L13 8L14.128 9.128L12.064 11.2Z" fill="#0DB473"/>
<path fill-rule="evenodd" clip-rule="evenodd" d="M20 12C20 16.4183 16.4183 20 12 20C7.58172 20 4 16.4183 4 12C4 7.58172 7.58172 4 12 4C16.4183 4 20 7.58172 20 12ZM18.4 12C18.4 15.5346 15.5346 18.4 12 18.4C8.46538 18.4 5.6 15.5346 5.6 12C5.6 8.46538 8.46538 5.6 12 5.6C15.5346 5.6 18.4 8.46538 18.4 12Z" fill="#0DB473"/>
</g>
<defs>
<clipPath id="clip0_4195_52420">
<rect width="24" height="24" fill="white"/>
</clipPath>
</defs>
</svg>
