<svg width="24" height="24" viewBox="0 0 24 24" fill="none" xmlns="http://www.w3.org/2000/svg">
<rect x="4" y="4" width="16" height="16" rx="2" stroke="#A3A8AF" stroke-width="1.5"/>
<path d="M9.34943 7.61932V16.3466H8.16051V8.83381H8.10938L6 10.223V9.0554L8.17756 7.61932H9.34943Z" fill="#A3A8AF"/>
<path d="M14.5273 16.4787C13.871 16.4787 13.3099 16.3026 12.844 15.9503C12.381 15.598 12.0259 15.0866 11.7787 14.4162C11.5315 13.7457 11.4094 12.9347 11.4122 11.983C11.4122 11.0398 11.5358 10.2344 11.783 9.56676C12.0301 8.89631 12.3852 8.38494 12.8483 8.03267C13.3142 7.67756 13.8739 7.5 14.5273 7.5C15.1778 7.5 15.7361 7.67756 16.202 8.03267C16.6679 8.38494 17.0244 8.89631 17.2716 9.56676C17.5188 10.2344 17.6423 11.0398 17.6423 11.983C17.6423 12.9347 17.5188 13.7457 17.2716 14.4162C17.0273 15.0866 16.6722 15.598 16.2063 15.9503C15.7432 16.3026 15.1835 16.4787 14.5273 16.4787ZM14.5273 15.4432C15.1409 15.4432 15.6196 15.1463 15.9634 14.5526C16.3071 13.956 16.4776 13.0994 16.4747 11.983C16.4747 11.2443 16.3966 10.6179 16.2403 10.1037C16.0841 9.58665 15.8611 9.19318 15.5713 8.9233C15.2815 8.65341 14.9335 8.51847 14.5273 8.51847C13.9193 8.51847 13.442 8.8196 13.0955 9.42188C12.7489 10.0213 12.5756 10.875 12.5756 11.983C12.5756 12.7244 12.6523 13.3537 12.8057 13.8707C12.9619 14.3849 13.1849 14.7756 13.4747 15.0426C13.7673 15.3097 14.1182 15.4432 14.5273 15.4432Z" fill="#A3A8AF"/>
<path d="M9.34943 7.61932V16.3466H8.16051V8.83381H8.10938L6 10.223V9.0554L8.17756 7.61932H9.34943Z" stroke="#A3A8AF" stroke-width="0.5"/>
<path d="M14.5273 16.4787C13.871 16.4787 13.3099 16.3026 12.844 15.9503C12.381 15.598 12.0259 15.0866 11.7787 14.4162C11.5315 13.7457 11.4094 12.9347 11.4122 11.983C11.4122 11.0398 11.5358 10.2344 11.783 9.56676C12.0301 8.89631 12.3852 8.38494 12.8483 8.03267C13.3142 7.67756 13.8739 7.5 14.5273 7.5C15.1778 7.5 15.7361 7.67756 16.202 8.03267C16.6679 8.38494 17.0244 8.89631 17.2716 9.56676C17.5188 10.2344 17.6423 11.0398 17.6423 11.983C17.6423 12.9347 17.5188 13.7457 17.2716 14.4162C17.0273 15.0866 16.6722 15.598 16.2063 15.9503C15.7432 16.3026 15.1835 16.4787 14.5273 16.4787ZM14.5273 15.4432C15.1409 15.4432 15.6196 15.1463 15.9634 14.5526C16.3071 13.956 16.4776 13.0994 16.4747 11.983C16.4747 11.2443 16.3966 10.6179 16.2403 10.1037C16.0841 9.58665 15.8611 9.19318 15.5713 8.9233C15.2815 8.65341 14.9335 8.51847 14.5273 8.51847C13.9193 8.51847 13.442 8.8196 13.0955 9.42188C12.7489 10.0213 12.5756 10.875 12.5756 11.983C12.5756 12.7244 12.6523 13.3537 12.8057 13.8707C12.9619 14.3849 13.1849 14.7756 13.4747 15.0426C13.7673 15.3097 14.1182 15.4432 14.5273 15.4432Z" stroke="#A3A8AF" stroke-width="0.5"/>
</svg>
