<svg width="36" height="36" viewBox="0 0 36 36" fill="none" xmlns="http://www.w3.org/2000/svg">
  <rect width="36" height="36" rx="5.14286" fill="#ED2A24" />
  <g clip-path="url(#clip0_720_1709)">
    <path
      fill-rule="evenodd"
      clip-rule="evenodd"
      d="M19.2302 16.6819C19.1328 16.9255 19.0393 17.163 18.9477 17.3956C18.6817 18.0713 18.432 18.7052 18.1516 19.326C18.0926 19.4577 17.7884 19.5383 17.5965 19.5405C16.3666 19.5534 15.136 19.552 13.9058 19.5505C13.5144 19.5501 13.123 19.5496 12.7318 19.5496H12.0506L11.4421 21.5216H13.8818C14.3774 21.5187 14.8731 21.5159 15.3687 21.5132C17.5501 21.5011 19.7315 21.489 21.9129 21.4603C22.3434 21.4529 22.7708 21.3845 23.1821 21.2571C23.9609 21.0153 24.557 20.5578 24.6978 19.6836C24.8465 18.7594 24.3946 18.1123 23.676 17.64C23.2582 17.3634 22.8211 17.1153 22.3838 16.867L22.3837 16.867L22.3837 16.867C22.1175 16.7159 21.8513 16.5647 21.5893 16.4071C20.4461 15.7191 19.3687 14.9312 18.8192 13.6733C17.9269 11.6219 18.4786 9.73954 19.7513 8.06385C21.6177 5.61616 24.1562 4.79421 27.1534 5.2733C27.4739 5.32383 27.7928 5.38479 28.1383 5.45084C28.2896 5.47976 28.4461 5.50966 28.61 5.54009C28.5029 5.78241 28.3982 6.02118 28.2948 6.257L28.2941 6.25846L28.2941 6.25849C27.9593 7.02205 27.6381 7.75463 27.293 8.47596C27.2374 8.58949 26.9638 8.66442 26.7924 8.66215C26.5511 8.65877 26.3113 8.63899 26.0723 8.61927C25.7489 8.5926 25.4271 8.56605 25.1053 8.58041C23.9076 8.63263 22.7916 9.75544 22.6633 10.9464C22.5793 11.724 22.963 12.2644 23.55 12.6561C24.0573 12.9953 24.5824 13.3074 25.1072 13.6194C25.4221 13.8065 25.7368 13.9936 26.0476 14.1865C27.41 15.0311 28.5384 16.0688 28.9006 17.7252C29.4569 20.2626 28.0923 22.8999 25.5946 24.0885C24.4721 24.6296 23.243 24.9135 21.9969 24.9195C20.9601 24.9252 19.9232 24.9318 18.8864 24.9384H18.8864C15.776 24.9582 12.6656 24.978 9.55521 24.9729C9.11698 24.9729 8.63903 24.7879 8.25189 24.5642C7.74668 24.2736 7.61613 23.7695 7.78415 23.1882C8.10244 22.0783 8.41216 20.9659 8.72194 19.8533L8.72198 19.8532C8.89063 19.2475 9.0593 18.6417 9.22938 18.0363C9.52342 16.9895 9.88785 16.7034 11.0027 16.6921C11.883 16.683 12.7633 16.686 13.6433 16.6891H13.6436C14.0833 16.6906 14.523 16.6921 14.9626 16.6921H19.2256L19.2302 16.6819ZM21.8149 30.8573C20.5854 30.8686 19.4909 29.7833 19.4966 28.5572C19.4932 27.9444 19.7332 27.3554 20.1641 26.9197C20.5949 26.484 21.1812 26.2373 21.7939 26.2338C22.4066 26.2303 22.9956 26.4704 23.4314 26.9012C23.8671 27.3321 24.1138 27.9183 24.1173 28.5311C24.1456 29.747 23.0592 30.8459 21.8149 30.8573ZM12.9946 29.8262C13.2486 29.4578 13.388 29.0226 13.3954 28.5751C13.3991 28.2742 13.3432 27.9754 13.2309 27.6961C13.1186 27.4169 12.9521 27.1626 12.741 26.948C12.5299 26.7334 12.2784 26.5628 12.001 26.4459C11.7236 26.329 11.4258 26.2683 11.1248 26.2671C10.6773 26.2672 10.2398 26.3994 9.86728 26.6473C9.49474 26.8952 9.20375 27.2476 9.03084 27.6603C8.85794 28.073 8.81084 28.5277 8.89546 28.967C8.98008 29.4064 9.19264 29.811 9.50645 30.13C9.82026 30.449 10.2213 30.6682 10.6593 30.76C11.0972 30.8518 11.5526 30.8121 11.968 30.646C12.3835 30.4799 12.7407 30.1947 12.9946 29.8262Z"
      fill="white"
    />
  </g>
  <defs>
    <clipPath id="clip0_720_1709">
      <rect width="23.2258" height="25.7143" fill="white" transform="translate(6.42871 5.14294)" />
    </clipPath>
  </defs>
</svg>
