<svg width="24" height="24" viewBox="0 0 24 24" fill="none" xmlns="http://www.w3.org/2000/svg">
  <path d="M6.5 2.5C6.22386 2.5 6 2.72386 6 3V12.2195C6 12.4957 6.22386 12.7195 6.5 12.7195H9.25V21C9.25 21.2209 9.39496 21.4156 9.60657 21.479C9.81819 21.5424 10.0463 21.4593 10.1677 21.2748L17.9177 9.49431C18.0188 9.34072 18.0274 9.14406 17.9401 8.98224C17.8529 8.82041 17.6838 8.71951 17.5 8.71951H13.4623L15.9556 3.20602C16.0256 3.05128 16.0122 2.8716 15.9201 2.7289C15.828 2.5862 15.6698 2.5 15.5 2.5H6.5Z" fill="#A3A8AF"/>
  </svg>
