<svg width="19" height="20" viewBox="0 0 19 20" fill="none" xmlns="http://www.w3.org/2000/svg">
<path d="M8.84544 2.07886L5.0368 10.202L1.44679 13.7921C0.851071 14.3878 0.851071 15.3536 1.44679 15.9493L2.52545 17.028C3.12117 17.6237 4.08703 17.6237 4.68275 17.028L8.27275 13.438L16.3959 9.62936" stroke="#0DB473" stroke-width="1.25" stroke-miterlimit="10" stroke-linecap="round" stroke-linejoin="round"/>
<path d="M17.4749 10.7077L7.76714 1" stroke="#0DB473" stroke-width="1.25" stroke-miterlimit="10" stroke-linecap="round" stroke-linejoin="round"/>
<path d="M15.9221 4.84061L17.4746 4.05078" stroke="#0DB473" stroke-width="1.25" stroke-miterlimit="10" stroke-linecap="round" stroke-linejoin="round"/>
<path d="M13.6338 2.55254L14.4237 1" stroke="#0DB473" stroke-width="1.25" stroke-miterlimit="10" stroke-linecap="round" stroke-linejoin="round"/>
<path d="M6.11527 15.5946L9.05774 18.5371C9.33494 18.8225 9.72278 18.9998 10.1521 18.9998C10.9946 18.9998 11.6775 18.3168 11.6775 17.4744C11.6775 17.0451 11.5002 16.6573 11.2148 16.3801L5.03638 10.2017" stroke="#0DB473" stroke-width="1.25" stroke-miterlimit="10" stroke-linecap="round" stroke-linejoin="round"/>
</svg>
