<svg width="24" height="24" viewBox="0 0 24 24" fill="none" xmlns="http://www.w3.org/2000/svg">
<g clip-path="url(#clip0_4195_52373)">
<circle cx="12" cy="12" r="12" fill="#FFDF9B"/>
<path fill-rule="evenodd" clip-rule="evenodd" d="M19 12C19 8.13401 15.866 5 12 5C8.13401 5 5 8.13401 5 12H19Z" fill="white"/>
<path d="M19 12V12.75H19.75V12H19ZM5 12H4.25V12.75H5V12ZM12 5.75C15.4518 5.75 18.25 8.54822 18.25 12H19.75C19.75 7.71979 16.2802 4.25 12 4.25V5.75ZM5.75 12C5.75 8.54822 8.54822 5.75 12 5.75V4.25C7.71979 4.25 4.25 7.71979 4.25 12H5.75ZM5 12.75H19V11.25H5V12.75Z" fill="#E49C06"/>
<path d="M19 12V11.25H19.75V12H19ZM5 12H4.25V11.25H5V12ZM12 19.75C11.7441 19.75 11.4909 19.7376 11.241 19.7132L11.3863 18.2203C11.588 18.2399 11.7927 18.25 12 18.25V19.75ZM9.74985 19.4181C9.2593 19.2695 8.78941 19.0736 8.34552 18.8358L9.05375 17.5136C9.4115 17.7052 9.78993 17.8629 10.1848 17.9825L9.74985 19.4181ZM7.08306 17.9908C6.69107 17.6687 6.33129 17.3089 6.00923 16.9169L7.16821 15.9647C7.42826 16.2812 7.71879 16.5717 8.0353 16.8318L7.08306 17.9908ZM5.16417 15.6545C4.92641 15.2106 4.73054 14.7407 4.58191 14.2501L6.01747 13.8152C6.1371 14.2101 6.29483 14.5885 6.48644 14.9462L5.16417 15.6545ZM4.28675 12.759C4.26243 12.5091 4.25 12.2559 4.25 12H5.75C5.75 12.2073 5.76007 12.412 5.7797 12.6137L4.28675 12.759ZM5 11.25H5.7V12.75H5V11.25ZM7.1 11.25H8.5V12.75H7.1V11.25ZM9.9 11.25H11.3V12.75H9.9V11.25ZM12.7 11.25H14.1V12.75H12.7V11.25ZM15.5 11.25H16.9V12.75H15.5V11.25ZM18.3 11.25H19V12.75H18.3V11.25ZM19.75 12C19.75 12.2559 19.7376 12.5091 19.7132 12.759L18.2203 12.6137C18.2399 12.412 18.25 12.2073 18.25 12H19.75ZM19.4181 14.2501C19.2695 14.7407 19.0736 15.2106 18.8358 15.6545L17.5136 14.9462C17.7052 14.5885 17.8629 14.2101 17.9825 13.8152L19.4181 14.2501ZM17.9908 16.9169C17.6687 17.3089 17.3089 17.6687 16.9169 17.9908L15.9647 16.8318C16.2812 16.5717 16.5717 16.2812 16.8318 15.9647L17.9908 16.9169ZM15.6545 18.8358C15.2106 19.0736 14.7407 19.2695 14.2501 19.4181L13.8152 17.9825C14.2101 17.8629 14.5885 17.7052 14.9462 17.5136L15.6545 18.8358ZM12.759 19.7132C12.5091 19.7376 12.2559 19.75 12 19.75V18.25C12.2073 18.25 12.412 18.2399 12.6137 18.2203L12.759 19.7132Z" fill="#E49C06"/>
</g>
<defs>
<clipPath id="clip0_4195_52373">
<rect width="24" height="24" fill="white"/>
</clipPath>
</defs>
</svg>
