<svg width="12" height="20" viewBox="0 0 12 20" fill="none" xmlns="http://www.w3.org/2000/svg">
  <mask id="path-1-inside-1_5075_73973" fill="white">
  <path d="M0.5 0.5C0.223858 0.5 0 0.723858 0 1V10.2195C0 10.4957 0.223858 10.7195 0.5 10.7195H3.25V19C3.25 19.2209 3.39496 19.4156 3.60657 19.479C3.81819 19.5424 4.04631 19.4593 4.16771 19.2748L11.9177 7.49431C12.0188 7.34072 12.0274 7.14406 11.9401 6.98224C11.8529 6.82041 11.6838 6.71951 11.5 6.71951H7.46235L9.95558 1.20602C10.0256 1.05128 10.0122 0.871596 9.92012 0.728899C9.82804 0.586202 9.66983 0.5 9.5 0.5H0.5Z"/>
  </mask>
  <path d="M3.25 10.7195H4.25V9.71951H3.25V10.7195ZM4.16771 19.2748L5.00314 19.8244L5.00314 19.8244L4.16771 19.2748ZM11.9177 7.49431L12.7531 8.04391L12.7531 8.04391L11.9177 7.49431ZM7.46235 6.71951L6.55118 6.30748L5.91265 7.71951H7.46235V6.71951ZM9.95558 1.20602L9.04442 0.793982L9.04442 0.793982L9.95558 1.20602ZM9.92012 0.728899L9.07987 1.2711L9.07988 1.2711L9.92012 0.728899ZM1 1C1 1.27614 0.776142 1.5 0.5 1.5V-0.5C-0.328427 -0.5 -1 0.171573 -1 1H1ZM1 10.2195V1H-1V10.2195H1ZM0.5 9.71951C0.776143 9.71951 1 9.94337 1 10.2195H-1C-1 11.0479 -0.328427 11.7195 0.5 11.7195V9.71951ZM3.25 9.71951H0.5V11.7195H3.25V9.71951ZM4.25 19V10.7195H2.25V19H4.25ZM3.89343 18.521C4.10504 18.5844 4.25 18.7791 4.25 19H2.25C2.25 19.6627 2.68487 20.2469 3.31972 20.437L3.89343 18.521ZM3.33229 18.7252C3.4537 18.5407 3.68181 18.4576 3.89343 18.521L3.31972 20.437C3.95456 20.6271 4.63892 20.378 5.00314 19.8244L3.33229 18.7252ZM11.0823 6.94471L3.33229 18.7252L5.00314 19.8244L12.7531 8.04391L11.0823 6.94471ZM11.0599 7.45679C10.9726 7.29496 10.9812 7.0983 11.0823 6.94472L12.7531 8.04391C13.0563 7.58314 13.0821 6.99317 12.8203 6.50768L11.0599 7.45679ZM11.5 7.71951C11.3162 7.71951 11.1471 7.61862 11.0599 7.45679L12.8203 6.50768C12.5586 6.0222 12.0515 5.71951 11.5 5.71951V7.71951ZM7.46235 7.71951H11.5V5.71951H7.46235V7.71951ZM9.04442 0.793982L6.55118 6.30748L8.37352 7.13155L10.8668 1.61805L9.04442 0.793982ZM9.07988 1.2711C8.98779 1.1284 8.97444 0.948721 9.04442 0.793982L10.8668 1.61805C11.0767 1.15383 11.0366 0.61479 10.7604 0.186695L9.07988 1.2711ZM9.5 1.5C9.33017 1.5 9.17196 1.4138 9.07987 1.2711L10.7604 0.186699C10.4841 -0.241393 10.0095 -0.5 9.5 -0.5V1.5ZM0.5 1.5H9.5V-0.5H0.5V1.5Z" fill="#A3A8AF" mask="url(#path-1-inside-1_5075_73973)"/>
  </svg>
