<svg width="24" height="24" viewBox="0 0 24 24" fill="currentColor" xmlns="http://www.w3.org/2000/svg">
<path d="M11.7515 20.1187V11.3859C12.0187 11.3343 12.2765 11.2546 12.5249 11.1468L19.1812 8.18901C19.2233 8.34839 19.2468 8.50776 19.2515 8.67183V11.0015C19.2515 11.414 19.589 11.7515 20.0015 11.7515C20.414 11.7515 20.7515 11.414 20.7515 11.0015V8.67183C20.7468 8.04839 20.5921 7.43433 20.2874 6.89058V6.87651C20.2874 6.86714 20.2733 6.86245 20.2687 6.85308C19.8749 6.14526 19.2655 5.58276 18.5249 5.25464L12.5249 2.58745C11.5546 2.15151 10.4437 2.15151 9.47334 2.58745L3.47803 5.24995C2.7374 5.58276 2.12803 6.14058 1.73428 6.84839C1.72959 6.85776 1.72021 6.86245 1.71553 6.87183V6.88589C1.41553 7.42964 1.25615 8.0437 1.25146 8.66714V15.3234C1.25146 16.8046 2.12334 18.1453 3.47803 18.75L9.47803 21.4171C10.3546 21.8156 11.353 21.8578 12.2577 21.5296C12.6421 21.3796 12.839 20.9484 12.689 20.5593C12.5437 20.189 12.1312 19.9921 11.7515 20.1187ZM10.0874 3.94683C10.6687 3.68433 11.3343 3.68433 11.9155 3.94683L17.9155 6.61401C18.0796 6.6937 18.2343 6.78745 18.3702 6.90464L15.6421 8.1187L8.39053 4.70151L10.0874 3.94683ZM6.57647 5.50776L13.8327 8.92026L11.9202 9.7687C11.3343 10.0218 10.6687 10.0218 10.0874 9.7687L3.62803 6.90464C3.76865 6.79214 3.92334 6.6937 4.08271 6.6187L6.57647 5.50776ZM4.08271 17.3812C3.27178 17.0203 2.74678 16.214 2.74678 15.3281V8.67183C2.75146 8.50776 2.7749 8.34839 2.81709 8.18901L9.47803 11.1468C9.72647 11.2546 9.98428 11.3343 10.2468 11.3859V20.1046C10.1905 20.0859 10.1343 20.0718 10.0827 20.0484L4.08271 17.3812Z" fill="currentColor"/>
<path d="M17.9999 12.2484C15.3749 12.2484 13.2515 14.3765 13.2515 16.9969C13.2515 19.6172 15.3749 21.75 17.9999 21.75C20.6249 21.75 22.7483 19.6219 22.7483 17.0015C22.7483 14.3765 20.6202 12.2531 17.9999 12.2484ZM17.9999 20.25C16.2046 20.25 14.7515 18.7969 14.7515 17.0015C14.7515 15.2062 16.2046 13.7531 17.9999 13.7531C19.7952 13.7531 21.2483 15.2062 21.2483 17.0015C21.2483 18.7922 19.7952 20.25 17.9999 20.25Z" fill="currentColor"/>
<path d="M19.5984 17.5406C19.8984 17.8266 19.9031 18.3047 19.6172 18.6C19.3312 18.9 18.8531 18.9047 18.5578 18.6188C18.5531 18.6141 18.5438 18.6047 18.5391 18.6L17.4703 17.5313C17.3297 17.3906 17.25 17.1985 17.25 17.0016V15.5016C17.25 15.0891 17.5875 14.7516 18 14.7516C18.4125 14.7516 18.75 15.0891 18.75 15.5016V16.6875L19.5984 17.5406Z" fill="currentColor"/>
</svg>
