<svg width="24" height="24" viewBox="0 0 24 24" fill="none" xmlns="http://www.w3.org/2000/svg">
<path d="M20.8947 7.31881C20.896 6.98491 20.831 6.65407 20.7032 6.34556C20.5755 6.03704 20.3877 5.75701 20.1508 5.52176L18.8024 4.17245C18.5666 3.93608 18.2865 3.74854 17.9781 3.62058C17.6698 3.49262 17.3392 3.42676 17.0053 3.42676C16.6715 3.42676 16.3409 3.49262 16.0325 3.62058C15.7241 3.74854 15.444 3.93608 15.2083 4.17245L3.80568 15.6313C3.74145 15.6954 3.69053 15.7715 3.65584 15.8553C3.62115 15.9391 3.60337 16.0289 3.60355 16.1196L3.24999 20.381C3.24999 20.5646 3.32292 20.7406 3.45274 20.8704C3.58256 21.0003 3.75863 21.0732 3.94223 21.0732L8.20361 20.7196C8.3865 20.7194 8.56193 20.6471 8.69187 20.5184L20.1471 9.11494C20.3845 8.88005 20.5729 8.60029 20.7012 8.29194C20.8296 7.98359 20.8953 7.65281 20.8947 7.31881ZM7.91748 19.3352L4.63447 19.6887L4.98803 16.4057L13.2885 8.06653L16.2567 11.0348L7.91748 19.3352ZM19.1705 8.13381L17.2378 10.0592L14.264 7.0854L16.1885 5.15266C16.2953 5.04468 16.4225 4.95904 16.5628 4.90072C16.703 4.84241 16.8534 4.81259 17.0053 4.813C17.157 4.81255 17.3074 4.84217 17.4476 4.90016C17.5878 4.95814 17.7151 5.04333 17.8222 5.15082L19.1715 6.50012C19.2788 6.60736 19.364 6.73469 19.422 6.87485C19.4801 7.01501 19.51 7.16525 19.51 7.31697C19.51 7.46869 19.4801 7.61892 19.422 7.75908C19.3639 7.89924 19.2779 8.02658 19.1705 8.13381ZM21.2482 20.381C21.2482 20.5646 21.1753 20.7406 21.0455 20.8704C20.9157 21.0003 20.7396 21.0732 20.556 21.0732H13.0951C12.9115 21.0732 12.7354 21.0003 12.6056 20.8704C12.4758 20.7406 12.4028 20.5646 12.4028 20.381C12.4028 20.1974 12.4758 20.0213 12.6056 19.8915C12.7354 19.7617 12.9115 19.6887 13.0951 19.6887H20.556C20.7396 19.6887 20.9157 19.7617 21.0455 19.8915C21.1753 20.0213 21.2482 20.1974 21.2482 20.381Z" fill="#A3A8AF"/>
</svg>
