<svg width="40" height="40" viewBox="0 0 40 40" fill="none" xmlns="http://www.w3.org/2000/svg">
<rect width="40" height="40" rx="5.7143" fill="#1DA8FF" />
<path
    fill-rule="evenodd"
    clip-rule="evenodd"
    d="M15.5285 14.4233C14.1583 14.4233 13.0473 13.3175 13.0473 11.9535C13.0473 11.7289 13.078 11.5116 13.1344 11.3048H17.9225C17.9789 11.5116 18.0096 11.7289 18.0096 11.9535C18.0097 13.3175 16.8988 14.4233 15.5285 14.4233ZM15.5285 8.57139C13.7608 8.57139 12.3277 9.99791 12.3277 11.7576C12.3277 13.5172 13.7608 14.9438 15.5285 14.9438C17.2963 14.9438 18.7293 13.5172 18.7293 11.7576C18.7293 9.99791 17.2963 8.57139 15.5285 8.57139ZM14.2383 28.0276C14.2383 28.7749 14.847 29.3807 15.5977 29.3807C16.3484 29.3807 16.957 28.7749 16.957 28.0277V17.5019C16.957 16.7545 16.3484 16.1487 15.5977 16.1487C14.8469 16.1487 14.2383 16.7546 14.2383 17.5019V28.0276ZM29.8511 28.0276C29.8511 28.7749 30.4596 29.3807 31.2104 29.3807C31.9611 29.3807 32.5698 28.7749 32.5697 28.0277V17.5019C32.5697 16.7545 31.9611 16.1487 31.2104 16.1487C30.4596 16.1487 29.8511 16.7546 29.8511 17.5019V28.0276ZM12.3206 16.2542H5.57278C4.86195 16.2542 4.28571 16.8278 4.28571 17.5354C4.28571 18.243 4.86195 18.8166 5.57278 18.8166H7.618V28.0576C7.618 28.7652 8.19425 29.3388 8.90508 29.3388H9.02882C9.73965 29.3388 10.3159 28.7651 10.3159 28.0576V18.8166H12.3206C13.0314 18.8166 13.6077 18.243 13.6077 17.5354C13.6078 16.8278 13.0315 16.2542 12.3206 16.2542ZM21.3779 24.8398V24.8337V24.8276C21.3777 24.3979 21.3775 23.9661 21.3775 23.5313C21.5461 23.5434 21.616 23.6307 21.6797 23.7101C21.6952 23.7295 21.7104 23.7483 21.7265 23.7656C22.2006 24.2737 22.673 24.7833 23.1454 25.293L23.1461 25.2938L23.1473 25.295C23.7515 25.9469 24.3557 26.5988 24.9635 27.2474L25.1169 27.4112C25.6323 27.9619 26.1485 28.5135 26.6983 29.0285C27.1194 29.4227 27.8533 29.446 28.3608 29.1653C28.8704 28.8836 28.9873 28.4248 28.9283 27.8943C28.8833 27.488 28.6357 27.1903 28.3648 26.9089L24.7984 23.2045C23.9383 22.3111 23.9385 22.3109 24.8032 21.4749L24.8179 21.4607C25.7722 20.5381 26.7215 19.6102 27.6619 18.6736C28.0161 18.3207 28.3457 17.9344 28.309 17.3866C28.2723 16.8419 27.9916 16.4577 27.475 16.2592C26.8935 16.0358 26.3822 16.1639 25.9602 16.6069C25.2354 17.3676 24.5142 18.1317 23.793 18.8958L23.7925 18.8964C23.4007 19.3115 23.0089 19.7266 22.6166 20.1411C22.3608 20.4115 22.1033 20.6803 21.8184 20.9777L21.8176 20.9786C21.6784 21.1239 21.5327 21.276 21.3775 21.4385L21.3777 20.2274L21.3777 20.2137V20.2134V20.2131C21.3781 19.3392 21.3784 18.5182 21.377 17.6972C21.3752 16.6826 20.8974 16.1559 19.9897 16.1613C19.1425 16.1663 18.6232 16.732 18.6219 17.6836C18.6172 21.0853 18.6167 24.4872 18.6222 27.889C18.6238 28.8357 19.1021 29.3331 19.9786 29.3388C20.8724 29.3446 21.3746 28.8196 21.3766 27.8665C21.3788 26.8621 21.3783 25.8576 21.3779 24.8415V24.8398ZM28.7505 11.9535C28.7505 13.3175 29.8613 14.4233 31.2317 14.4233C32.602 14.4233 33.7127 13.3175 33.7127 11.9535C33.7127 11.7289 33.6821 11.5116 33.6256 11.3048H28.8376C28.7812 11.5116 28.7505 11.7289 28.7505 11.9535ZM28.0309 11.7576C28.0309 9.99791 29.4639 8.57139 31.2317 8.57139C32.9994 8.57139 34.4324 9.99791 34.4323 11.7576C34.4323 13.5172 32.9994 14.9438 31.2317 14.9438C29.4639 14.9438 28.0309 13.5172 28.0309 11.7576Z"
    fill="white"
  />
</svg>
