<svg width="24" height="24" viewBox="0 0 24 24" fill="none" xmlns="http://www.w3.org/2000/svg">
  <g clip-path="url(#clip0_5594_12500)">
    <path
      d="M0 4.8C0 2.14903 2.14903 0 4.8 0H19.2C21.851 0 24 2.14903 24 4.8V19.2C24 21.851 21.851 24 19.2 24H4.8C2.14903 24 0 21.851 0 19.2V4.8Z"
      fill="#0866FF"
    />
    <path
      d="M9.10096 23.9991V15.6661H6.62646V11.9991H9.10096V10.419C9.10096 6.33457 10.9494 4.44141 14.9593 4.44141C15.7195 4.44141 17.0313 4.5905 17.5679 4.73958V8.06372C17.2847 8.03392 16.7928 8.01904 16.1816 8.01904C14.2139 8.01904 13.4537 8.76433 13.4537 10.7022V11.9991H17.3733L16.6999 15.6661H13.4537V23.9991H9.10096Z"
      fill="white"
    />
  </g>
  <defs>
    <clipPath id="clip0_5594_12500">
      <rect width="24" height="24" rx="4" fill="white" />
    </clipPath>
  </defs>
</svg>
