<svg width="24" height="24" viewBox="0 0 24 24" fill="none" xmlns="http://www.w3.org/2000/svg">
<path d="M14.558 15.1429H9.44564C9.15502 15.1417 8.8684 15.2108 8.60992 15.3443C8.35145 15.4778 8.1287 15.6717 7.96045 15.9098C7.79221 16.1479 7.68339 16.4231 7.64319 16.7123C7.60299 17.0015 7.63257 17.2961 7.72945 17.5714L8.13432 18.7857C8.25968 19.142 8.49222 19.4502 8.79971 19.6678C9.1072 19.8853 9.47443 20.0014 9.85052 20H14.1531C14.5292 20.0014 14.8964 19.8853 15.2039 19.6678C15.5114 19.4502 15.7439 19.142 15.8693 18.7857L16.2742 17.5714C16.371 17.2961 16.4006 17.0015 16.3604 16.7123C16.3202 16.4231 16.2114 16.1479 16.0432 15.9098C15.8749 15.6717 15.6522 15.4778 15.3937 15.3443C15.1352 15.2108 14.8486 15.1417 14.558 15.1429ZM15.126 17.1586L14.7272 18.3728C14.6851 18.4985 14.6033 18.6069 14.4942 18.6814C14.3851 18.756 14.2546 18.7926 14.1229 18.7857H9.85052C9.72383 18.786 9.60025 18.7463 9.49723 18.6723C9.39421 18.5982 9.31698 18.4934 9.27644 18.3728L8.8776 17.1586C8.84678 17.0677 8.83783 16.9708 8.85149 16.8759C8.86514 16.7809 8.90102 16.6905 8.95616 16.6121C9.01177 16.5337 9.08516 16.4696 9.17027 16.4253C9.25538 16.3809 9.34977 16.3576 9.44564 16.3571H14.558C14.6538 16.3576 14.7482 16.3809 14.8333 16.4253C14.9184 16.4696 14.9918 16.5337 15.0474 16.6121C15.1026 16.6905 15.1385 16.7809 15.1521 16.8759C15.1658 16.9708 15.1568 17.0677 15.126 17.1586ZM16.3708 9.07143H7.63276C7.34214 9.07031 7.05552 9.13939 6.79704 9.27287C6.53856 9.40634 6.31581 9.6003 6.14757 9.83838C5.97932 10.0765 5.87051 10.3517 5.83031 10.6409C5.79011 10.9301 5.81969 11.2247 5.91657 11.5L6.32144 12.7143C6.4468 13.0705 6.67934 13.3788 6.98683 13.5964C7.29432 13.8139 7.66155 13.93 8.03764 13.9286H15.966C16.3421 13.93 16.7093 13.8139 17.0168 13.5964C17.3243 13.3788 17.5568 13.0705 17.6822 12.7143L18.087 11.5C18.1839 11.2247 18.2135 10.9301 18.1733 10.6409C18.1331 10.3517 18.0243 10.0765 17.856 9.83838C17.6878 9.6003 17.465 9.40634 17.2066 9.27287C16.9481 9.13939 16.6615 9.07031 16.3708 9.07143ZM16.9389 11.0871L16.54 12.3014C16.498 12.4271 16.4162 12.5355 16.3071 12.61C16.1979 12.6846 16.0675 12.7212 15.9358 12.7143H8.03764C7.91095 12.7146 7.78737 12.6749 7.68435 12.6008C7.58133 12.5268 7.5041 12.422 7.46356 12.3014L7.06472 11.0871C7.0339 10.9963 7.02495 10.8994 7.03861 10.8044C7.05226 10.7095 7.08814 10.6191 7.14328 10.5407C7.19889 10.4622 7.27228 10.3982 7.35739 10.3539C7.4425 10.3095 7.53689 10.2862 7.63276 10.2857H16.3708C16.4667 10.2862 16.5611 10.3095 16.6462 10.3539C16.7313 10.3982 16.8047 10.4622 16.8603 10.5407C16.9155 10.6191 16.9513 10.7095 16.965 10.8044C16.9787 10.8994 16.9697 10.9963 16.9389 11.0871ZM19.6522 3.75894C19.4847 3.52466 19.2642 3.33368 19.0089 3.20174C18.7536 3.0698 18.4708 3.00066 18.1837 3.00001H5.81988C5.52926 2.99889 5.24264 3.06797 4.98416 3.20145C4.72568 3.33493 4.50293 3.52888 4.33469 3.76696C4.16644 4.00504 4.05763 4.28028 4.01743 4.56946C3.97723 4.85864 4.00681 5.15329 4.10369 5.42858L4.50856 6.64287C4.63392 6.99912 4.86646 7.30738 5.17395 7.52494C5.48144 7.74251 5.84867 7.85861 6.22476 7.85715H17.7788C18.1549 7.85861 18.5222 7.74251 18.8297 7.52494C19.1371 7.30738 19.3697 6.99912 19.495 6.64287L19.8999 5.42858C19.9958 5.15085 20.0233 4.85393 19.9802 4.56318C19.937 4.27244 19.8245 3.9965 19.6522 3.75894ZM18.7518 5.01572L18.3529 6.23001C18.3109 6.35568 18.229 6.46406 18.1199 6.53861C18.0108 6.61316 17.8804 6.64978 17.7486 6.64287H6.22476C6.09298 6.64978 5.96257 6.61316 5.85346 6.53861C5.74434 6.46406 5.66251 6.35568 5.62046 6.23001L5.22163 5.01572C5.19827 4.92062 5.19817 4.82126 5.22132 4.72611C5.24447 4.63096 5.29019 4.54285 5.35457 4.4693C5.40775 4.39406 5.47729 4.33199 5.55792 4.28781C5.63854 4.24362 5.72813 4.21848 5.81988 4.2143H18.1837C18.2796 4.21474 18.374 4.2381 18.4591 4.28244C18.5442 4.32678 18.6176 4.39083 18.6732 4.4693C18.7284 4.54766 18.7642 4.63804 18.7779 4.73302C18.7915 4.828 18.7826 4.92489 18.7518 5.01572Z" fill="#A3A8AF"/>
</svg>
