<?xml version="1.0" encoding="UTF-8"?>
<svg id="Layer_1" data-name="Layer 1" xmlns="http://www.w3.org/2000/svg" version="1.1" viewBox="0 0 40 40">
  <defs>
    <style>
      .cls-1 {
        fill: #fff;
      }

      .cls-1, .cls-2, .cls-3, .cls-4 {
        stroke-width: 0px;
      }

      .cls-1, .cls-3, .cls-4 {
        fill-rule: evenodd;
      }

      .cls-2 {
        fill: #000;
      }

      .cls-3 {
        fill: #00f7ef;
      }

      .cls-4 {
        fill: #ff004f;
      }
    </style>
  </defs>
  <rect class="cls-2" width="40" height="40" rx="5.7" ry="5.7"/>
  <path class="cls-3" d="M9.9,31.1c-5.9-4.9-2.1-15.7,6.9-14.3v1c-7.6-.3-11,8.3-6.9,13.3ZM26.4,12.3c.9.7,2.2,1.2,4,1.3v1c-1.9-.3-3.2-1.3-4-2.3ZM23.9,7.1c0,.4,0,.8.1,1.1h-3.6v17.1c0,.8,0,1.5-.3,2.1-1.5,3.1-5.6,2.7-6.7.6,1.7,1,4.5.7,5.7-1.7.2-.6.3-1.3.3-2.1V7.1h4.6Z"/>
  <path class="cls-1" d="M25,8.3h0c0,.4.1,6.1,6.4,6.5,0,5.3,0,0,0,4.4-.5,0-4.1-.2-6.4-2.2v8.6c0,3.9-2.2,7.7-6.5,8.5-1.2.2-2.3.2-4.1-.1-10.4-3-6.9-17.7,3.5-16.1,0,4.8,0,0,0,4.8-4.3-.6-5.7,2.8-4.6,5.3,1,2.2,5.3,2.7,6.8-.4.2-.6.3-1.3.3-2.1V8.3h4.6Z"/>
  <path class="cls-4" d="M16.9,17.8c.4,0,.7,0,1.1.1,0,4.8,0,0,0,4.8-4.3-.6-5.7,2.8-4.6,5.3,0,0,0,0,0,.1-.5-.3-.9-.7-1.2-1.2-1.1-2.5.3-5.9,4.6-5.3,0-4.4,0-.7,0-3.7ZM30.3,14.6c.3,0,.7.1,1.1.1,0,5.3,0,0,0,4.4-.5,0-4.1-.2-6.4-2.2v8.6c0,3.9-2.2,7.7-6.5,8.5-1.2.2-2.3.2-4.1-.1-2-.6-3.5-1.6-4.5-2.9.9.8,2.1,1.4,3.4,1.8,1.8.4,2.9.4,4.1.1,4.2-.8,6.5-4.6,6.5-8.5v-8.6c2.3,1.9,5.9,2.2,6.4,2.2,0-4.1,0,.2,0-3.4ZM25,8.3h0c0,.3,0,2.3,1.3,4.1-1.6-1.2-2.1-2.9-2.3-4.1h1Z"/>
</svg>