<svg width="24" height="24" viewBox="0 0 24 24" fill="none" xmlns="http://www.w3.org/2000/svg">
<path d="M12 3C7.0275 3 3 7.0275 3 12C3 13.98 3.63 15.8025 4.71 17.2875L3.4725 20.55L7.05 19.515C8.4675 20.46 10.1775 21 12 21C16.9725 21 21 16.9725 21 12C21 7.0275 16.9725 3 12 3ZM16.7925 15.735L15.825 16.68C14.8125 17.6925 12.135 16.59 9.7725 14.205C7.41 11.8425 6.3525 9.165 7.2975 8.175L8.265 7.2075C8.625 6.8475 9.2325 6.8475 9.615 7.2075L11.0325 8.625C11.5275 9.12 11.325 9.975 10.6725 10.1775C10.2225 10.335 9.9075 10.83 10.065 11.28C10.3125 12.3375 11.685 13.6425 12.6975 13.89C13.1475 14.0025 13.665 13.7325 13.8 13.2825C14.0025 12.63 14.8575 12.4275 15.3525 12.9225L16.77 14.34C17.13 14.7225 17.13 15.33 16.7925 15.735Z" fill="#0FD186"/>
</svg>
