<svg width="24" height="24" viewBox="0 0 24 24" fill="none" xmlns="http://www.w3.org/2000/svg">
  <rect width="24" height="24" rx="4" fill="#0088FF"/>
  <path d="M12 7C8.36364 7 5.25818 9.07333 4 12C5.25818 14.9267 8.36364 17 12 17C15.6364 17 18.7418 14.9267 20 12C18.7418 9.07333 15.6364 7 12 7ZM12 15.3333C9.99273 15.3333 8.36364 13.84 8.36364 12C8.36364 10.16 9.99273 8.66667 12 8.66667C14.0073 8.66667 15.6364 10.16 15.6364 12C15.6364 13.84 14.0073 15.3333 12 15.3333ZM12 10C10.7927 10 9.81818 10.8933 9.81818 12C9.81818 13.1067 10.7927 14 12 14C13.2073 14 14.1818 13.1067 14.1818 12C14.1818 10.8933 13.2073 10 12 10Z" fill="white"/>
</svg>
