<svg width="20" height="20" viewBox="0 0 20 20" fill="none" xmlns="http://www.w3.org/2000/svg">
<g clip-path="url(#clip0_5721_1000)">
<path d="M14.1155 2H5.88482C3.74265 2 2 3.70009 2 5.78993V11.8538C2 13.6835 3.33694 15.2145 5.10764 15.5669V17.2422C5.10764 17.5218 5.26534 17.7787 5.51772 17.9108C5.6328 17.9709 5.75845 18.0004 5.88446 18.0004C6.03524 18.0004 6.18528 17.957 6.31566 17.8732L10.7817 15.6433H14.1155C16.2577 15.6433 18.0004 13.9432 18.0004 11.8534V5.78993C18 3.70009 16.2573 2 14.1155 2ZM10.1153 14.2548L6.66164 15.8967V14.8855C6.66164 14.4669 6.31348 14.1276 5.88482 14.1276C4.5996 14.1276 3.554 13.1076 3.554 11.8538V5.78993C3.554 4.5361 4.5996 3.51604 5.88482 3.51604H14.1155C15.4008 3.51604 16.4464 4.5361 16.4464 5.78993V11.8538C16.4464 13.1076 15.4008 14.1276 14.1155 14.1276H10.5465C10.4922 14.1269 10.4143 14.1323 10.3258 14.1578C10.2325 14.1841 10.1619 14.2236 10.1153 14.2548Z" fill="#A3A8AF"/>
<path fill-rule="evenodd" clip-rule="evenodd" d="M9.30514 6C9.45879 6 9.56241 6.0664 9.61243 6.20584L11.4026 10.7842C11.4061 10.7975 11.4097 10.8174 11.4097 10.8473C11.4097 10.8838 11.3919 10.9203 11.3597 10.9502C11.3275 10.9801 11.2882 10.9967 11.2489 10.9967H10.2485C10.127 10.9967 10.0376 10.9469 9.98761 10.8406L9.71248 10.1467H7.69724L7.4221 10.8406C7.37208 10.9436 7.28275 10.9967 7.16127 10.9967H6.16079C6.12149 10.9967 6.08218 10.9801 6.05002 10.9502C6.01787 10.9203 6 10.8838 6 10.8473C6 10.8207 6.00357 10.7975 6.00715 10.7842L7.79728 6.20584C7.84731 6.06972 7.95093 6 8.10457 6H9.30514ZM8.70129 7.25498L8.01882 9.07769H9.38375L8.70129 7.25498Z" fill="#A3A8AF"/>
<path d="M12.185 6H13.2855C13.3391 6 13.3856 6.0166 13.4249 6.0498C13.4606 6.083 13.4785 6.12616 13.4785 6.17928V10.8207C13.4785 10.8705 13.4606 10.9104 13.4249 10.9469C13.3891 10.9834 13.3427 11 13.2855 11H12.185C12.1314 11 12.0885 10.9834 12.0492 10.9469C12.0099 10.9104 11.9921 10.8672 11.9921 10.8207V6.17928C11.9921 6.12616 12.0099 6.083 12.0492 6.0498C12.0885 6.0166 12.135 6 12.185 6Z" fill="#A3A8AF"/>
</g>
<defs>
<clipPath id="clip0_5721_1000">
<rect width="16" height="16" fill="white" transform="translate(2 2)"/>
</clipPath>
</defs>
</svg>
