<svg width="80" height="81" viewBox="0 0 80 81" fill="none" xmlns="http://www.w3.org/2000/svg">

<g opacity="0.9" clip-path="url(#clip0_12126_171630)">
<path d="M18.1668 22.8158C17.77 21.3203 17.9684 19.7638 18.7469 18.4209C19.5254 17.078 20.7771 16.1166 22.273 15.7046C25.3717 14.8653 28.562 16.7118 29.4015 19.8096L29.5542 20.4047L28.1147 21.8437L30.4777 21.2059L33.294 18.3904V20.4459L34.4999 20.1209V17.3985L40.4378 15.8267V16.9254C40.4378 17.458 40.5293 17.9707 40.6957 18.4484L41.6574 18.1889L41.781 17.7754C41.7108 17.5038 41.6742 17.2199 41.6742 16.9269L41.6589 15.6451H42.416L42.79 14.3938H41.0483C41.0025 14.3938 40.9415 14.3938 40.8957 14.409L33.7366 16.3318C33.6298 16.3623 33.5382 16.4234 33.4619 16.4997L30.5311 19.4143C29.4778 15.7214 25.6617 13.5392 21.9372 14.5464C20.1512 15.0194 18.64 16.1792 17.6936 17.812C16.7472 19.4448 16.503 21.3371 16.9915 23.1378L17.4128 24.734L18.6034 24.412L18.1668 22.8158Z" fill="#3E479B"/>
<path fill-rule="evenodd" clip-rule="evenodd" d="M15.9439 22.8093L28.9723 19.311C30.1432 18.9881 31.3545 19.607 31.8121 20.7238L37.5322 35.0669C37.7879 35.7262 37.761 36.399 37.4515 37.0179C37.1284 37.6638 36.617 38.0674 35.944 38.2558L19.3894 42.696C18.7165 42.8843 18.057 42.7767 17.4648 42.373C16.8726 41.9963 16.5226 41.4312 16.415 40.7315L14.1942 25.4465C14.0327 24.2356 14.7595 23.1053 15.9439 22.8093Z" fill="#3AE580"/>
<path fill-rule="evenodd" clip-rule="evenodd" d="M52.0323 16.3359L67.3083 20.4397L61.9247 51.0097L53.5935 49.5296L57.9273 24.8934L49.3674 48.4129L41.4131 45.5066L52.0323 16.3359Z" fill="#002C5B"/>
<path fill-rule="evenodd" clip-rule="evenodd" d="M59.6904 18.3809L61.5612 18.8787L60.4576 22.9825C60.323 23.5072 59.7846 23.8033 59.2732 23.6687L58.3311 23.4131L59.6904 18.3809Z" fill="#013E80"/>
<path fill-rule="evenodd" clip-rule="evenodd" d="M51.8306 16.9006L67.2143 21.0179L67.8334 18.7305L52.4497 14.6133L51.8306 16.9006Z" fill="#3E479B"/>
<path fill-rule="evenodd" clip-rule="evenodd" d="M44.666 20.3742L49.8208 15.2344L56.9272 22.3521L51.7859 27.5054L44.666 20.3742Z" fill="#5072F1"/>
<path fill-rule="evenodd" clip-rule="evenodd" d="M36.0251 20.3742L30.8703 15.2344L23.7505 22.3521L28.8918 27.5054L36.0251 20.3742Z" fill="#5072F1"/>
<path fill-rule="evenodd" clip-rule="evenodd" d="M30.8701 15.2341L37.1689 13.5791H44.3157L49.8204 15.2341V37.8117H30.8701V15.2341Z" fill="#5072F1"/>
<path fill-rule="evenodd" clip-rule="evenodd" d="M37.1689 13.5791H44.3157V15.2475C44.3157 17.1985 42.7141 18.8131 40.749 18.8131C38.784 18.8131 37.1824 17.1985 37.1824 15.2475L37.1689 13.5791Z" fill="#F3F8FF"/>
<path fill-rule="evenodd" clip-rule="evenodd" d="M12.877 35.292H39.8489L45.0979 54.3309L39.8489 69.441H17.2915C14.8554 69.441 12.877 67.4631 12.877 65.0277V35.292Z" fill="#FD9200"/>
<path fill-rule="evenodd" clip-rule="evenodd" d="M66.9419 35.292H39.8623V69.441H62.5273C64.9499 69.441 66.9419 67.4631 66.9419 65.0277V35.292Z" fill="#FF9F1C"/>
<path fill-rule="evenodd" clip-rule="evenodd" d="M12.8771 35.292H39.8625L35.8517 47.1863C35.246 49.0027 33.5905 50.1733 31.6659 50.1733H11.9484C10.9659 50.1733 10.1314 49.7428 9.5527 48.9489C8.98742 48.1551 8.85283 47.2267 9.16239 46.2983L12.8771 35.292Z" fill="#FFC55F"/>
<path fill-rule="evenodd" clip-rule="evenodd" d="M66.8477 35.292H39.8623L43.8731 47.1863C44.4788 49.0027 46.1208 50.1733 48.0454 50.1733H67.7763C68.7589 50.1733 69.5933 49.7428 70.1586 48.9489C70.7373 48.1551 70.8719 47.2267 70.5489 46.2983L66.8477 35.292Z" fill="#FFC55F"/>
</g>
<defs>
<clipPath id="clip0_12126_171630">
<rect width="70" height="64.1379" fill="white" transform="translate(5 8.5)"/>
</clipPath>
</defs>
</svg>
