<svg width="28" height="28" viewBox="0 0 28 28" fill="none" xmlns="http://www.w3.org/2000/svg">
<path d="M14.0001 19.6262C14.4929 19.6262 14.8924 19.2267 14.8924 18.7339C14.8924 18.2411 14.4929 17.8416 14.0001 17.8416C13.5072 17.8416 13.1077 18.2411 13.1077 18.7339C13.1077 19.2267 13.5072 19.6262 14.0001 19.6262Z" fill="url(#paint0_linear_2115_32233)"/>
<path d="M14.0001 10.1585C14.4929 10.1585 14.8924 9.75895 14.8924 9.26612C14.8924 8.77329 14.4929 8.37378 14.0001 8.37378C13.5072 8.37378 13.1077 8.77329 13.1077 9.26612C13.1077 9.75895 13.5072 10.1585 14.0001 10.1585Z" fill="url(#paint1_linear_2115_32233)"/>
<path d="M26.6145 1.38628C26.1511 0.922269 25.5346 0.666748 24.8785 0.666748H15.5302C14.8744 0.666748 14.2578 0.922165 13.7941 1.38597L1.38601 13.794C0.922104 14.2579 0.666687 14.8744 0.666687 15.53C0.666687 16.1858 0.922208 16.8023 1.38601 17.2658L10.7341 26.6139C11.1978 27.0779 11.8143 27.3334 12.47 27.3334C13.1257 27.3334 13.7422 27.078 14.2061 26.6141L26.6141 14.206C27.0779 13.7423 27.3334 13.1257 27.3334 12.4699V3.12159C27.3334 2.4655 27.0778 1.84894 26.6145 1.38628ZM14.0001 6.81138C15.3537 6.81138 16.4549 7.91263 16.4549 9.26623C16.4549 10.6198 15.3537 11.7211 14.0001 11.7211C12.6465 11.7211 11.5452 10.6198 11.5452 9.26623C11.5452 7.91263 12.6465 6.81138 14.0001 6.81138ZM14.0001 21.1887C12.6465 21.1887 11.5452 20.0874 11.5452 18.7338C11.5452 17.3802 12.6465 16.279 14.0001 16.279C15.3537 16.279 16.4549 17.3802 16.4549 18.7338C16.4549 20.0874 15.3537 21.1887 14.0001 21.1887ZM19.0209 14.7813H8.97929C8.54783 14.7813 8.19804 14.4315 8.19804 14C8.19804 13.5686 8.54783 13.2188 8.97929 13.2188H19.0209C19.4523 13.2188 19.8021 13.5686 19.8021 14C19.8021 14.4315 19.4524 14.7813 19.0209 14.7813ZM22.3681 6.41326C21.9368 6.41326 21.5868 6.06326 21.5868 5.63201C21.5868 5.20076 21.9368 4.85076 22.3681 4.85076C22.7993 4.85076 23.1493 5.20076 23.1493 5.63201C23.1493 6.06326 22.7993 6.41326 22.3681 6.41326Z" fill="url(#paint2_linear_2115_32233)"/>
<defs>
<linearGradient id="paint0_linear_2115_32233" x1="13.7026" y1="19.321" x2="15.1929" y2="18.6485" gradientUnits="userSpaceOnUse">
<stop stop-color="#0088FF"/>
<stop offset="1" stop-color="#33A0FF"/>
</linearGradient>
<linearGradient id="paint1_linear_2115_32233" x1="13.7026" y1="9.85319" x2="15.1929" y2="9.18068" gradientUnits="userSpaceOnUse">
<stop stop-color="#0088FF"/>
<stop offset="1" stop-color="#33A0FF"/>
</linearGradient>
<linearGradient id="paint2_linear_2115_32233" x1="9.55557" y1="22.772" x2="31.8239" y2="12.7234" gradientUnits="userSpaceOnUse">
<stop stop-color="#0088FF"/>
<stop offset="1" stop-color="#33A0FF"/>
</linearGradient>
</defs>
</svg>
