<svg width="28" height="28" viewBox="0 0 28 28" fill="none" xmlns="http://www.w3.org/2000/svg">
<path d="M26.5522 16.3439H22.5939V1.448C22.5939 1.01618 22.2444 0.666748 21.8126 0.666748H6.18758C5.75576 0.666748 5.40633 1.01618 5.40633 1.448V16.3439H1.44796C0.699622 16.3439 0.380244 17.3017 0.97952 17.75L13.5316 27.1771C13.8068 27.3843 14.1898 27.3868 14.4685 27.1771L27.0206 17.75C27.6198 17.3017 27.3005 16.3439 26.5522 16.3439ZM8.5313 7.75009C8.5313 6.45768 9.58261 5.40632 10.8751 5.40632C12.1675 5.40632 13.2188 6.45768 13.2188 7.75009C13.2188 9.04249 12.1675 10.0939 10.8751 10.0939C9.58266 10.0939 8.5313 9.04249 8.5313 7.75009ZM11.5251 15.996C11.2894 16.35 10.8067 16.4546 10.4417 16.2127C10.0824 15.9731 9.98542 15.4886 10.225 15.1293L16.475 5.75424C16.7131 5.39491 17.1975 5.29798 17.5584 5.53757C17.9177 5.77715 18.0147 6.26158 17.7751 6.62096L11.5251 15.996ZM17.1251 16.3439C15.8327 16.3439 14.7813 15.2925 14.7813 14.0001C14.7813 12.7077 15.8327 11.6563 17.1251 11.6563C18.4175 11.6563 19.4688 12.7077 19.4688 14.0001C19.4688 15.2925 18.4175 16.3439 17.1251 16.3439Z" fill="url(#paint0_linear_2115_23944)"/>
<defs>
<linearGradient id="paint0_linear_2115_23944" x1="9.55557" y1="22.772" x2="31.824" y2="12.7233" gradientUnits="userSpaceOnUse">
<stop stop-color="#0088FF"/>
<stop offset="1" stop-color="#33A0FF"/>
</linearGradient>
</defs>
</svg>
