<svg width="47" height="46" viewBox="0 0 47 46" fill="none" xmlns="http://www.w3.org/2000/svg">
<g opacity="0.9" clip-path="url(#clip0_1486_10711)">
<path
      d="M45.7678 19.3586L39.664 14.0428C39.3464 13.7665 38.8648 13.7988 38.5873 14.1149C38.4662 14.2535 38.3984 14.431 38.3984 14.6142V23.6967C38.3984 24.1163 38.7408 24.4562 39.1624 24.4562C39.3045 24.4562 39.4437 24.4163 39.5639 24.3422L45.6676 20.5756C46.0253 20.3553 46.1359 19.8874 45.9146 19.5304C45.8746 19.4659 45.825 19.408 45.7678 19.3586Z"
      fill="#5072F1"
    />
<path
      d="M7.43239 13.9222C7.15962 13.7988 6.84013 13.8453 6.61505 14.0427L0.511295 19.3586C0.193709 19.6339 0.161283 20.1132 0.437859 20.4293C0.487452 20.4863 0.546582 20.5357 0.610481 20.5755L6.71424 24.3422C7.07284 24.5634 7.54302 24.4533 7.76523 24.0963C7.83962 23.9767 7.87968 23.8381 7.87968 23.6967V14.6142C7.87968 14.3161 7.70515 14.0456 7.43239 13.9222Z"
      fill="#5072F1"
    />
<path
      d="M36.1038 30.372H10.1924C8.08183 30.372 6.37183 28.669 6.37183 26.5692V4.05274C6.37183 1.95298 8.08279 0.25 10.1924 0.25H36.1028C38.2144 0.25 39.9244 1.95298 39.9244 4.05274V26.5683C39.9244 28.669 38.2144 30.372 36.1038 30.372Z"
      fill="#F8FCFF"
    />
<path
      d="M18.3372 29.7349L20.6871 27.7984C19.2832 28.9556 17.2938 29.0904 15.744 28.1345L7.59931 23.1081C7.57356 23.0873 7.54781 23.0683 7.51919 23.0512L1.41544 19.2845C1.05684 19.0633 0.58666 19.1735 0.364445 19.5304C0.290056 19.65 0.25 19.7886 0.25 19.93V40.7663C0.25 41.9016 0.632439 42.9487 1.27524 43.7869L18.3372 29.7349Z"
      fill="#409CFE"
    />
<path
      d="M46.028 19.9302C46.028 19.6549 45.8783 19.4005 45.636 19.2666C45.3938 19.1318 45.0981 19.1394 44.8626 19.2847L38.7588 23.0513C38.7312 23.0684 38.7054 23.0874 38.6806 23.1073L30.533 28.1356C28.9842 29.0915 26.9948 28.9567 25.5909 27.7995L23.6253 26.1801L27.9409 29.7351L27.9418 29.7341L45.0028 43.786C45.6456 42.9479 46.028 41.9018 46.028 40.7655V19.9302Z"
      fill="#409CFE"
    />
<path
      d="M22.6526 26.1801C22.7938 26.0643 22.9664 26.0064 23.139 26.0064C22.9664 26.0054 22.7938 26.0633 22.6526 26.1801Z"
      fill="#376CFB"
    />
<path
      d="M27.9412 29.735L23.6256 26.1801C23.4845 26.0643 23.3119 26.0063 23.1392 26.0063C22.9666 26.0063 22.794 26.0643 22.6528 26.1801L20.6872 27.7995L18.3373 29.736L18.3363 29.735L1.27539 43.786C2.19 44.9792 3.63297 45.7491 5.25714 45.7491H41.0213C42.6455 45.7491 44.0885 44.9783 45.0031 43.786L27.9412 29.735Z"
      fill="#5072F1"
    />
<path
      d="M43.4451 11.7684L44.0751 12.1135L43.4451 12.4605L43.0981 13.0905L42.753 12.4605L42.1211 12.1135L42.753 11.7684L43.0981 11.1365L43.4451 11.7684Z"
      fill="url(#paint0_linear_1486_10711)"
    />
<path
      d="M40.3817 5.06011L41.2838 5.55366L40.3817 6.04722L39.8881 6.94937L39.3946 6.04722L38.4924 5.55366L39.3946 5.06011L39.8881 4.15796L40.3817 5.06011Z"
      fill="url(#paint1_linear_1486_10711)"
    />
<g clip-path="url(#clip1_1486_10711)">
<path
        d="M25.542 17.1644C24.3672 18.3399 24.3672 20.245 25.542 21.4206C26.7167 22.5961 28.6206 22.5961 29.7954 21.4206C30.9701 20.245 30.9701 18.3399 29.7954 17.1644C28.6611 16.0294 26.6762 16.0294 25.542 17.1644ZM28.3776 18.5831C28.7725 18.9783 28.7725 19.6066 28.3776 20.0018C27.9826 20.397 27.3547 20.397 26.9598 20.0018C26.5749 19.6167 26.5648 18.9682 26.9598 18.5831C27.3446 18.198 27.9826 18.1879 28.3776 18.5831Z"
        fill="#F2994A"
      />
<path
        d="M20.4582 12.0873C21.6329 10.9118 21.6329 9.00662 20.4582 7.83109C19.2834 6.65557 17.3795 6.6657 16.2048 7.83109C15.03 9.00662 15.03 10.9118 16.2048 12.0873C17.3795 13.2527 19.2834 13.2628 20.4582 12.0873ZM17.6226 9.24983C18.0176 8.85461 18.6454 8.85461 19.0404 9.24983C19.4354 9.64505 19.4354 10.2733 19.0404 10.6686C18.6454 11.0638 18.0074 11.0638 17.6226 10.6686C17.2378 10.2733 17.2378 9.63492 17.6226 9.24983Z"
        fill="#F2994A"
      />
<path
        d="M16.5289 21.0962C16.9238 21.4914 17.5517 21.4914 17.9467 21.0962L29.4714 9.56391C29.8663 9.16869 29.8663 8.54039 29.4714 8.14517C29.0764 7.74995 28.4485 7.74995 28.0536 8.14517L16.5289 19.6775C16.1339 20.0727 16.1339 20.7111 16.5289 21.0962Z"
        fill="#F2994A"
      />
</g>
</g>
<defs>
<linearGradient
      id="paint0_linear_1486_10711"
      x1="692.604"
      y1="329.578"
      x2="712.3"
      y2="329.578"
      gradientUnits="userSpaceOnUse"
    >
<stop stop-color="#5278FF" />
<stop offset="1" stop-color="#30B8FC" />
</linearGradient>
<linearGradient
      id="paint1_linear_1486_10711"
      x1="38.4924"
      y1="5.55366"
      x2="41.2838"
      y2="5.55366"
      gradientUnits="userSpaceOnUse"
    >
<stop stop-color="#FF8E00" />
<stop offset="1" stop-color="#FFCF01" />
</linearGradient>
<clipPath id="clip0_1486_10711">
<rect width="45.7791" height="45.5" fill="white" transform="translate(0.25 0.25)" />
</clipPath>
<clipPath id="clip1_1486_10711">
<rect width="15.3528" height="15.3528" fill="white" transform="translate(15.3237 6.94934)" />
</clipPath>
</defs>
</svg>
