<svg xmlns="http://www.w3.org/2000/svg" width="84" height="30" viewBox="0 0 84 30" fill="none">
<path d="M18.409 0.0587142L4.04808 2.31081C1.71765 2.67664 0 4.69106 0 7.05849V21.4169C0 24.0709 2.14358 26.2228 4.78737 26.2228H19.1483C21.7921 26.2228 23.9357 24.0709 23.9357 21.4169V4.80523C23.9345 1.85643 21.3116 -0.39683 18.409 0.0587142ZM20.4365 17.9601C20.375 19.0261 20.0547 19.8056 19.963 20.0176C18.9742 22.3012 16.6972 23.1994 16.0554 23.4534C15.301 23.7529 14.6093 23.8845 14.2843 23.9451C14.0546 23.9882 13.1725 24.1443 11.9644 24.1175C10.0831 24.0744 8.61726 23.6154 7.87449 23.3404C7.66559 23.2635 6.71508 22.9059 5.56727 22.2161C4.72122 21.707 4.02835 21.1745 3.48172 20.6969C4.43339 19.731 5.38506 18.7652 6.3379 17.7982C7.01915 18.5659 8.19133 19.6378 9.91943 20.2367C11.167 20.6689 12.1559 20.6642 12.475 20.6549C13.1458 20.6363 15.1246 20.5804 15.9846 19.2568C16.1181 19.0506 16.1912 18.8595 16.2364 18.7256C16.2608 18.6463 16.3478 18.3481 16.3026 17.9589C16.255 17.564 16.1006 17.2902 16.0554 17.2133C15.8407 16.8486 15.5552 16.6564 15.402 16.555C15.2128 16.4304 15.0283 16.3511 14.8797 16.2871C14.8252 16.2626 14.6639 16.195 14.4433 16.1251C14.2507 16.0645 14.0998 16.0296 14.0104 16.0074C13.6019 15.9154 13.2677 15.8618 12.9427 15.8059C12.7408 15.7709 12.4831 15.7232 11.9655 15.6241C11.586 15.5507 11.3237 15.5006 11.0127 15.4354C10.8119 15.3923 10.6251 15.3515 10.4312 15.3061C10.0831 15.2245 9.55268 15.1022 8.9457 14.9181C8.55807 14.8004 8.25981 14.7084 7.87566 14.5523C7.44624 14.3775 6.89033 14.1503 6.30888 13.7169C6.0582 13.5305 5.54754 13.1437 5.12858 12.5076C4.40902 11.4194 4.40322 10.2823 4.40786 9.74399C4.41831 8.43095 4.89298 7.45578 5.14831 7.00723C5.78314 5.89225 6.62223 5.30971 7.17583 4.93572C8.31899 4.16211 9.3844 3.91512 9.92291 3.79395C10.8049 3.59822 11.5199 3.58773 11.9678 3.58423C12.2626 3.5819 13.0309 3.58773 14.0128 3.759C15.4182 4.00483 16.4302 4.44289 16.9931 4.68989C17.7394 5.01961 18.7003 5.51942 19.7274 6.28138L17.3529 9.22087C17.0802 8.9797 16.6438 8.62319 16.0589 8.269C15.3706 7.85191 13.8897 6.9781 11.9678 7.04567C10.8978 7.08296 10.2212 7.38471 9.92291 7.53967C9.09658 7.96725 8.82384 8.46008 8.76233 8.58008C8.61494 8.86436 8.56968 9.13233 8.56272 9.1766C8.54647 9.27563 8.49656 9.617 8.60101 9.96303C8.84125 10.7646 9.68383 11.1269 9.92291 11.2283C10.2943 11.3879 10.7632 11.4858 10.9547 11.5254C11.2169 11.5802 11.5024 11.6337 11.5024 11.6337C11.5825 11.6489 11.6823 11.6675 11.7972 11.6897C11.8367 11.6967 11.8959 11.7071 11.9678 11.7223C12.0955 11.7468 12.2034 11.7677 12.3717 11.8004C12.4495 11.8155 12.6038 11.8458 12.7257 11.8691C12.7257 11.8691 13.0124 11.9238 13.3408 11.9868C13.523 12.0217 13.6808 12.0508 13.7992 12.073C13.9118 12.0939 13.9942 12.1091 14.0128 12.1126C14.7555 12.2501 15.1339 12.3188 15.4646 12.391C15.5645 12.4132 16.378 12.5914 17.0802 12.8489C17.4121 12.9713 17.6488 13.0843 17.8032 13.1647C17.8984 13.2136 17.9993 13.2683 18.1038 13.3313C18.2744 13.4315 18.5402 13.5899 18.8489 13.852C19.3061 14.24 19.5708 14.6128 19.6392 14.7095C19.6984 14.7946 19.9062 15.101 20.0872 15.5379C20.5085 16.562 20.4609 17.5302 20.4365 17.9601Z" fill="#3AE780"/>
<path d="M38.7585 5.51827V8.53349C38.2049 7.61075 37.5005 6.8651 36.6463 6.29887C35.4845 5.52992 34.1127 5.14545 32.532 5.14545C30.9502 5.14545 29.4983 5.5672 28.1776 6.41072C26.8557 7.25423 25.8181 8.40766 25.0637 9.87099C24.3094 11.3343 23.9333 12.9223 23.9333 14.6338C23.9333 16.3453 24.3094 17.9333 25.0637 19.3967C25.817 20.86 26.8545 22.0134 28.1776 22.8569C29.4995 23.7004 30.9513 24.1222 32.532 24.1222C34.1127 24.1222 35.4845 23.7377 36.6463 22.9688C37.5016 22.4025 38.2049 21.6581 38.7585 20.7353V23.7505H43.2058V5.51827H38.7585ZM38.0738 17.2937C37.6165 18.0999 36.9863 18.7267 36.1832 19.173C35.3801 19.6192 34.4841 19.8429 33.4965 19.8429C32.5332 19.8429 31.6558 19.6134 30.8655 19.1543C30.0739 18.6953 29.4438 18.0696 28.9749 17.2751C28.5048 16.4816 28.2704 15.6008 28.2704 14.6338C28.2704 13.6913 28.5048 12.8175 28.9749 12.0112C29.4438 11.205 30.0739 10.5735 30.8655 10.1133C31.6558 9.65429 32.5332 9.42477 33.4965 9.42477C34.4841 9.42477 35.3801 9.65429 36.1832 10.1133C36.9863 10.5724 37.6154 11.1922 38.0738 11.974C38.531 12.7557 38.7597 13.6423 38.7597 14.6338C38.7585 15.6008 38.5299 16.4875 38.0738 17.2937Z" fill="#007AFF"/>
<path d="M62.5991 9.87099C61.8332 8.40766 60.7886 7.25423 59.4679 6.41072C58.146 5.5672 56.6941 5.14545 55.1134 5.14545C53.5316 5.14545 52.1667 5.52992 51.0178 6.29887C50.1589 6.87326 49.4487 7.63172 48.887 8.57427V5.51827H44.4385V30H48.8858V20.6934C49.4475 21.6359 50.1578 22.3932 51.0166 22.9676C52.1656 23.7366 53.5304 24.121 55.1123 24.121C56.693 24.121 58.1449 23.6993 59.4667 22.8558C60.7886 22.0134 61.832 20.86 62.598 19.3955C63.364 17.9322 63.7469 16.3442 63.7469 14.6327C63.7481 12.9223 63.3651 11.3343 62.5991 9.87099ZM58.6706 17.2751C58.2006 18.0696 57.5704 18.6953 56.78 19.1543C55.9885 19.6134 55.1123 19.8429 54.149 19.8429C53.1602 19.8429 52.2642 19.6192 51.4623 19.173C50.6592 18.7267 50.029 18.1069 49.5717 17.3123C49.1144 16.5189 48.8858 15.6253 48.8858 14.6338C48.8858 13.6668 49.1144 12.786 49.5717 11.9926C50.029 11.1992 50.6592 10.5735 51.4623 10.1133C52.2654 9.65429 53.1613 9.42477 54.149 9.42477C55.1123 9.42477 55.9955 9.65429 56.7986 10.1133C57.6017 10.5724 58.2307 11.205 58.6892 12.0112C59.1464 12.8175 59.3751 13.6913 59.3751 14.6338C59.3751 15.6008 59.1395 16.4816 58.6706 17.2751Z" fill="#007AFF"/>
<path d="M78.6169 6.51238C80.0491 7.34424 81.1795 8.48485 82.0081 9.93537C82.8356 11.3859 83.2499 12.9809 83.2499 14.7168C83.2499 16.4784 82.8356 18.0839 82.0081 19.5356C81.1795 20.9861 80.0491 22.1279 78.6169 22.9586C77.1836 23.7905 75.6017 24.2052 73.8725 24.2052C72.0933 24.2052 70.4871 23.7905 69.0538 22.9586C67.6205 22.1279 66.4901 20.9861 65.6626 19.5356C64.8339 18.0851 64.4208 16.4784 64.4208 14.7168C64.4208 12.9809 64.8339 11.3871 65.6626 9.93537C66.4901 8.48485 67.6205 7.34424 69.0538 6.51238C70.4859 5.68168 72.0933 5.26575 73.8725 5.26575C75.6017 5.26575 77.1836 5.68168 78.6169 6.51238ZM71.26 10.1963C70.4813 10.6554 69.8697 11.2822 69.4252 12.0756C68.9807 12.8702 68.7578 13.7626 68.7578 14.7541C68.7578 15.7211 68.9807 16.5961 69.4252 17.3767C69.8697 18.1585 70.4813 18.7725 71.26 19.2187C72.0388 19.6649 72.8964 19.8886 73.8354 19.8886C74.7743 19.8886 75.6261 19.6649 76.3933 19.2187C77.1592 18.7725 77.7767 18.1585 78.2467 17.3767C78.7156 16.5949 78.9512 15.7211 78.9512 14.7541C78.9512 13.7626 78.7156 12.869 78.2467 12.0756C77.7767 11.2822 77.1534 10.6566 76.3747 10.1963C75.5959 9.73731 74.7371 9.50779 73.7994 9.50779C72.8837 9.50779 72.0376 9.73731 71.26 10.1963Z" fill="#007AFF"/>
</svg>