<svg width="72" height="14" viewBox="0 0 72 14" fill="none" xmlns="http://www.w3.org/2000/svg">
    <path d="M9.93359 10.9869C10.8003 9.35461 11.6669 7.65955 12.5336 6.02726C13.0003 5.14834 13.4669 4.26941 13.9336 3.39049C14.0003 3.26493 14.0669 3.20215 14.2003 3.20215C15.7336 3.20215 17.2669 3.20215 18.8669 3.20215C19.0003 3.20215 19.0669 3.20215 19.1336 3.39049C19.4669 4.39497 20.2003 5.08556 21.2669 5.46224C21.4669 5.52502 21.5336 5.65058 21.5336 5.83892C21.5336 6.78062 21.5336 7.65955 21.5336 8.60125C21.5336 8.72681 21.5336 8.78959 21.4003 8.85237C20.2003 9.22905 19.4669 9.91964 19.1336 11.0497C19.1336 11.0497 19.1336 11.1125 19.0669 11.1125C19.0669 11.0497 19.0003 11.1125 19.0003 11.1125C18.9336 11.1125 18.8669 11.1125 18.8003 11.1125C15.9336 11.1125 13.1336 11.1125 10.2669 11.1125C10.2003 11.1125 10.1336 11.1125 10.0669 11.1125C10.0003 11.0497 10.0003 10.9869 9.93359 10.9869ZM15.8003 9.98242C16.2669 9.98242 16.2669 9.98242 16.2669 9.54295V9.48017C16.2669 9.35461 16.3336 9.22905 16.4669 9.16627C16.8669 9.04071 17.1336 8.78959 17.2669 8.41291C17.4669 7.72233 17.2003 7.1573 16.4669 6.78062C16.2003 6.65506 15.9336 6.5295 15.6003 6.40394C15.4669 6.34116 15.3336 6.2156 15.4003 6.02726C15.4003 5.83892 15.5336 5.77614 15.7336 5.71336C16.0003 5.65058 16.2669 5.71336 16.5336 5.83892C16.8669 5.96448 16.8669 5.96448 17.0003 5.65058C17.2003 5.2739 17.1336 5.14834 16.7336 5.02278C16.6669 5.02278 16.6003 5.02278 16.5336 5.02278C16.3336 5.02278 16.2669 4.89722 16.2669 4.70887C16.2669 4.33219 16.2669 4.33219 15.8669 4.33219C15.4003 4.33219 15.4003 4.33219 15.4003 4.77165C15.4003 4.89722 15.4003 5.02278 15.2003 5.08556C14.4669 5.33668 14.1336 6.09004 14.4669 6.71784C14.6669 7.09452 15.0669 7.28287 15.4669 7.47121C15.6669 7.53399 15.8669 7.59677 16.0669 7.72233C16.2669 7.84789 16.3336 7.97345 16.2669 8.22457C16.2003 8.41291 16.0669 8.53847 15.8669 8.53847C15.6003 8.60125 15.3336 8.53847 15.0669 8.47569C14.8669 8.41291 14.7336 8.22457 14.6003 8.28735C14.4669 8.35013 14.4669 8.60125 14.4003 8.78959C14.3336 8.91515 14.4003 9.04071 14.5336 9.10349C14.7336 9.22905 14.9336 9.29183 15.1336 9.29183C15.3336 9.29183 15.4003 9.41739 15.4003 9.60573C15.3336 9.91964 15.3336 9.91964 15.8003 9.98242Z" fill="#FF6102"/>
    <path d="M15.5329 13.4352C13.3329 13.4352 11.1996 13.4352 8.99958 13.4352C8.79958 13.4352 8.73291 13.4352 8.86624 13.1841C8.99958 12.8702 9.19958 12.6191 9.33291 12.3052C9.39958 12.1796 9.46624 12.1169 9.59958 12.1169C12.0662 12.1169 14.5329 12.1169 16.9996 12.1169C18.5996 12.1169 20.1996 12.1169 21.7996 12.1169C22.4662 12.1169 22.8662 11.7402 22.8662 11.1752C22.8662 8.4756 22.8662 5.77605 22.8662 3.01372C22.8662 2.38591 22.3996 2.07201 21.8662 2.07201C19.5996 2.07201 17.3329 2.07201 15.0662 2.07201C14.9996 2.07201 14.8662 2.07201 14.7996 2.07201C14.6662 2.07201 14.6662 2.07201 14.6662 1.94645C14.8662 1.56977 14.9996 1.25587 15.1996 0.879187C15.2662 0.816406 15.3329 0.816406 15.3996 0.816406C17.6662 0.816406 19.8662 0.816406 22.1329 0.816406C23.3329 0.816406 24.2663 1.75811 24.2663 2.88816C24.2663 3.95542 24.2663 4.9599 24.2663 6.02717C24.2663 7.78502 24.2663 9.54286 24.2663 11.3007C24.2663 12.5563 23.3329 13.4352 21.9996 13.4352C19.7996 13.4352 17.6662 13.4352 15.5329 13.4352Z" fill="#FF6102"/>
    <path d="M8.33304 2.57422C9.3997 2.57422 10.4664 2.57422 11.533 2.57422C11.9997 2.57422 12.2664 2.82534 12.2664 3.20202C12.2664 3.5787 11.9997 3.82982 11.533 3.82982C9.3997 3.82982 7.26637 3.82982 5.1997 3.82982C4.7997 3.82982 4.53304 3.70426 4.46637 3.39036C4.33304 3.07646 4.46637 2.82534 4.73304 2.637C4.86637 2.57422 4.9997 2.57422 5.1997 2.57422C6.1997 2.57422 7.26637 2.57422 8.33304 2.57422Z" fill="#FF6102"/>
    <path d="M4.33294 7.7224C3.33294 7.7224 2.33294 7.7224 1.33294 7.7224C0.866276 7.7224 0.599609 7.47128 0.599609 7.0946C0.599609 6.71792 0.932943 6.4668 1.39961 6.4668C3.39961 6.4668 5.39961 6.4668 7.33294 6.4668C7.79961 6.4668 8.06628 6.71792 8.06628 7.0946C8.06628 7.47128 7.79961 7.7224 7.33294 7.7224C6.33294 7.7224 5.33294 7.7224 4.33294 7.7224Z" fill="#FF6102"/>
    <path d="M5.3332 10.4219C5.99987 10.4219 6.66654 10.4219 7.39987 10.4219C7.86654 10.4219 8.1332 10.673 8.1332 11.0497C8.1332 11.4264 7.79987 11.6775 7.39987 11.6775C5.99987 11.6775 4.66654 11.6775 3.26654 11.6775C2.79987 11.6775 2.5332 11.4264 2.5332 11.0497C2.5332 10.673 2.79987 10.4219 3.26654 10.4219C3.9332 10.4219 4.59987 10.4219 5.3332 10.4219Z" fill="#FF6102"/>
    <path d="M9.93583 11.0491C9.86514 11.0491 9.86514 10.9863 9.93583 10.9863C9.93583 10.9863 9.93583 10.9863 9.93583 11.0491C9.93583 11.0491 9.93583 10.9863 9.93583 11.0491Z" fill="#FF6102"/>
    <path d="M9.93359 11.0494C9.93359 10.9866 9.93359 11.0494 9.93359 11.0494C10.0043 10.9866 10.0043 11.0494 9.93359 11.0494C10.0043 11.0494 10.0043 11.0494 9.93359 11.0494Z" fill="#FF6102"/>
    <path d="M29.9993 7.8472L29.1993 11.5512H27.666L29.5327 2.69922H32.7993C33.7327 2.69922 34.3993 2.95034 34.866 3.3898C35.3327 3.76648 35.5327 4.45707 35.3327 5.21043C35.1993 5.71267 34.9993 6.08935 34.7327 6.40325C34.3993 6.71716 33.9993 6.96828 33.5327 7.15662C33.9993 7.34496 34.266 7.59608 34.3993 7.97276C34.5327 8.34944 34.5993 8.7889 34.466 9.29115L34.3327 10.0445C34.266 10.2956 34.266 10.6095 34.266 10.7979C34.266 11.049 34.3327 11.2373 34.466 11.3629V11.4885H32.866C32.7327 11.3629 32.666 11.1118 32.666 10.8607C32.666 10.5468 32.7327 10.2956 32.7993 10.0445L32.9327 9.35393C32.9993 8.85168 32.9993 8.475 32.7993 8.22388C32.5993 7.97276 32.3327 7.8472 31.866 7.8472H29.9993ZM30.1993 6.65438H31.866C32.3993 6.65438 32.7993 6.52882 33.1327 6.27769C33.466 6.02657 33.666 5.71267 33.7993 5.27321C33.866 4.77097 33.866 4.45707 33.666 4.20594C33.466 3.95482 33.1327 3.82926 32.5993 3.82926H30.866L30.1993 6.65438Z" fill="#FF6102"/>
    <path d="M38.5999 11.6771C37.7333 11.6771 36.9999 11.3632 36.5332 10.7354C36.0666 10.1076 35.9332 9.35424 36.0666 8.41253L36.1333 8.16141C36.3333 7.15693 36.7332 6.34078 37.3332 5.77576C37.9999 5.14796 38.7332 4.83406 39.5332 4.83406C40.3999 4.83406 40.9999 5.08518 41.3999 5.6502C41.7999 6.21522 41.9332 6.9058 41.7332 7.78473L41.5999 8.66365H37.5332C37.4666 9.22868 37.5332 9.66814 37.7332 9.98204C37.9332 10.2959 38.2666 10.4843 38.7999 10.4843C39.1332 10.4843 39.5332 10.4215 39.7999 10.3587C40.1332 10.2332 40.3999 10.1076 40.6666 9.91926L40.9999 10.861C40.7332 11.1121 40.3333 11.2376 39.9333 11.426C39.5333 11.6143 39.1333 11.6771 38.5999 11.6771ZM39.3999 6.02688C39.0666 6.02688 38.7999 6.15244 38.4666 6.46634C38.1332 6.78024 37.9999 7.09415 37.8666 7.53361H40.3332V7.40805C40.3999 6.96859 40.3332 6.65468 40.1999 6.34078C40.0666 6.15244 39.7999 6.02688 39.3999 6.02688ZM39.1332 3.82957L39.2666 2.95065C39.5999 2.95065 39.7999 2.88787 39.9333 2.82509C40.0666 2.76231 40.1332 2.63675 40.1999 2.51118C40.2666 2.38562 40.1999 2.26006 39.9999 2.19728C39.8666 2.1345 39.6666 2.07172 39.3999 2.07172L39.5999 1.31836C40.2666 1.31836 40.7999 1.44392 41.0666 1.63226C41.3332 1.8206 41.4666 2.1345 41.3999 2.51118C41.3332 2.76231 41.1999 3.01343 40.9999 3.13899C40.7999 3.26455 40.5999 3.39011 40.3332 3.39011L40.2666 3.82957H39.1332Z" fill="#FF6102"/>
    <path d="M48.1337 5.83847C48.4004 5.52457 48.7337 5.27345 49.0671 5.08511C49.4004 4.89676 49.8004 4.83398 50.2004 4.83398C50.8671 4.83398 51.3337 5.02233 51.6004 5.46179C51.9337 5.90125 52.0004 6.52905 51.8004 7.40797L50.9337 11.5515H49.4004L50.2671 7.40797C50.4004 6.90573 50.3337 6.52905 50.2004 6.34071C50.0671 6.15237 49.8004 6.02681 49.3337 6.02681C49.0671 6.02681 48.8004 6.08959 48.6004 6.21515C48.3337 6.34071 48.1337 6.52905 47.9337 6.78017L46.9337 11.5515H45.4004L46.8004 4.95955H48.2004L48.1337 5.83847Z" fill="#FF6102"/>
    <path d="M55.2665 5.71255C55.5332 5.39864 55.8665 5.2103 56.1999 5.08474C56.5332 4.95918 56.8665 4.83362 57.2665 4.83362C57.9332 4.83362 58.3999 5.08474 58.7332 5.5242C59.0665 5.96367 59.1332 6.65425 58.9332 7.53317L58.0665 11.5511H56.5332L57.3999 7.53317C57.5332 6.96815 57.5332 6.59147 57.3332 6.40313C57.1332 6.21479 56.9332 6.08923 56.4665 6.08923C56.1999 6.08923 55.9999 6.15201 55.7332 6.27757C55.4665 6.40313 55.2665 6.59147 55.0665 6.77981L54.0665 11.6139H52.5332L54.5332 2.07129H56.0665L55.2665 5.71255Z" fill="#FF6102"/>
    <path d="M63.5318 11.5514C63.5318 11.4258 63.5318 11.3003 63.5318 11.1119C63.5318 10.9864 63.5318 10.8608 63.5318 10.7353C63.2652 10.9864 62.9318 11.2375 62.5985 11.4258C62.2652 11.6142 61.8652 11.677 61.5318 11.677C60.9318 11.677 60.4652 11.4886 60.1318 11.1119C59.7985 10.7353 59.7318 10.2958 59.8652 9.668C59.9985 8.97742 60.3318 8.47517 60.9318 8.16127C61.4652 7.84737 62.1985 7.65903 63.1318 7.65903H64.1318L64.2652 7.09401C64.3318 6.71733 64.3318 6.46621 64.1318 6.27786C63.9985 6.02674 63.7318 5.96396 63.3318 5.96396C62.9985 5.96396 62.7318 6.02674 62.5318 6.21508C62.2652 6.40343 62.1318 6.59177 62.0652 6.84289H60.5985V6.78011C60.6652 6.21509 60.9985 5.77562 61.5985 5.39894C62.1985 5.02226 62.8652 4.83392 63.6652 4.83392C64.3985 4.83392 64.9318 5.02226 65.3318 5.46172C65.7318 5.8384 65.8652 6.40343 65.7318 7.15679L65.1318 10.0447C65.0652 10.3586 64.9985 10.6097 64.9985 10.8608C64.9985 11.1119 64.9985 11.3631 64.9985 11.5514H63.5318ZM62.0652 10.4841C62.3318 10.4841 62.6652 10.4214 62.9318 10.2958C63.1985 10.1702 63.4652 9.9819 63.6652 9.79356L63.9318 8.66352H62.8652C62.4652 8.66352 62.1985 8.78908 61.8652 8.97742C61.5318 9.16576 61.3985 9.41688 61.3318 9.73078C61.2652 9.9819 61.3318 10.233 61.3985 10.3586C61.5985 10.4214 61.7985 10.4841 62.0652 10.4841ZM66.1985 3.76665L64.8652 3.82943L63.9985 2.82495L62.7318 3.76665H61.3985V3.70387L63.4652 2.19715H64.7318L66.1985 3.76665ZM67.1318 1.12988H68.5985V1.19266L66.9985 2.76217H65.8652L67.1318 1.12988Z" fill="#FF6102"/>
    <path d="M70.0667 3.32715L69.7333 4.95944H70.8667L70.6667 6.0267H69.5333L68.7333 9.66796C68.6667 9.98186 68.6667 10.1702 68.8 10.2958C68.9333 10.4213 69 10.4841 69.2 10.4841C69.3333 10.4841 69.4 10.4841 69.5333 10.4841C69.6667 10.4841 69.7333 10.4213 69.8667 10.4213L69.8 11.4886C69.6667 11.5514 69.4667 11.6141 69.2 11.6769C68.9333 11.7397 68.7333 11.7397 68.5333 11.7397C68 11.7397 67.6 11.5514 67.4 11.2375C67.1333 10.9236 67.0667 10.4213 67.2 9.73074L68 6.08948H67L67.2 5.02222H68.2L68.5333 3.38993H70.0667V3.32715Z" fill="#FF6102"/>
    </svg>
    