<svg width="70" height="64" viewBox="0 0 70 64" fill="none"
  xmlns="http://www.w3.org/2000/svg">
  <g clip-path="url(#clip0_1831_7520)">
    <path d="M65.3333 32.3848L69.9583 58.948C70.2973 61.2006 68.5512 63.2258 66.272 63.2258H62.4277L65.3333 32.3848Z" fill="#3E479B"/>
    <path d="M46.9883 30.3848H62.8054C64.3404 30.3848 65.5399 31.7078 65.3904 33.235L62.43 63.2261H39.6504L40.285 30.3864H46.9883V30.3848Z" fill="#5072F1"/>
    <path d="M40.2845 30.3844L44.8796 57.0206C45.4395 60.2609 42.9409 63.224 39.6499 63.224H32.8037L37.7344 15.6055L40.2845 30.3844Z" fill="#FFA833"/>
    <path d="M11.4433 15.6074H37.7349L32.8042 63.226H6.19201C2.58204 63.226 -0.262086 60.1533 0.0203329 56.5578L2.89104 19.8769C3.08042 17.4666 5.09224 15.6074 7.51274 15.6074H11.4433ZM27.1608 34.626C27.1608 32.3617 25.3217 30.5241 23.0508 30.5241C20.9974 30.5241 19.9707 31.55 18.9457 33.6017C17.919 31.55 16.8924 30.5241 14.8407 30.5241C12.573 30.5241 10.734 32.3617 10.734 34.626C10.734 38.7278 14.8407 41.0634 18.9457 45.1653C23.0508 41.0634 27.1608 38.7295 27.1608 34.626Z" fill="#FECA6F"/>
    <path d="M56.4619 37.0909C56.0034 37.0909 55.6313 36.719 55.6313 36.2609V26.7109C55.6313 25.2784 55.0864 23.9321 54.0946 22.9228C53.1095 21.9169 51.7987 21.3624 50.4065 21.3624C47.5259 21.3624 45.1818 23.7628 45.1818 26.7126V36.2625C45.1818 36.7207 44.8097 37.0925 44.3512 37.0925C43.8926 37.0925 43.5205 36.7207 43.5205 36.2625V26.7126C43.5205 22.8481 46.6088 19.7041 50.4049 19.7041C52.2473 19.7041 53.9783 20.4362 55.2791 21.7625C56.5749 23.0855 57.2893 24.8418 57.2893 26.7109V36.2609C57.2909 36.7207 56.9205 37.0909 56.4619 37.0909Z" fill="#19416C"/>
    <path d="M25.162 56.076H5.60701C5.1485 56.076 4.77637 55.7042 4.77637 55.246C4.77637 54.7879 5.1485 54.416 5.60701 54.416H25.162C25.6205 54.416 25.9927 54.7879 25.9927 55.246C25.9927 55.7042 25.6205 56.076 25.162 56.076Z" fill="white"/>
    <path d="M29.5177 56.076H28.0142C27.5557 56.076 27.1836 55.7042 27.1836 55.246C27.1836 54.7879 27.5557 54.416 28.0142 54.416H29.5177C29.9762 54.416 30.3483 54.7879 30.3483 55.246C30.3483 55.7042 29.9762 56.076 29.5177 56.076Z" fill="white"/>
    <path d="M56.5532 58.408H46.024C45.5655 58.408 45.1934 58.0362 45.1934 57.578C45.1934 57.1199 45.5655 56.748 46.024 56.748H56.5532C57.0118 56.748 57.3839 57.1199 57.3839 57.578C57.3822 58.0362 57.0101 58.408 56.5532 58.408Z" fill="white"/>
    <path d="M30.3467 28.3975H5.97559V47.1388H30.3467V28.3975Z" fill="#FECA6F"/>
    <g clip-path="url(#clip1_1831_7520)">
      <path d="M27.3511 24.168H23.0512C22.5865 24.168 22.141 24.3524 21.8121 24.6813L14.1815 32.3134C13.8392 32.6556 13.8392 33.2103 14.1815 33.5525L19.1363 38.5073C19.4785 38.8495 20.0331 38.8495 20.3754 38.5073L28.006 30.8767C28.3349 30.5477 28.5193 30.1022 28.5193 29.6376V25.3362C28.5193 24.6916 27.9971 24.168 27.3511 24.168ZM26.1887 27.3763C25.7049 27.3763 25.3125 26.9839 25.3125 26.5001C25.3125 26.0163 25.7049 25.6239 26.1887 25.6239C26.6725 25.6239 27.0649 26.0163 27.0649 26.5001C27.0634 26.9839 26.6725 27.3763 26.1887 27.3763Z" fill="#6280F2"/>
      <path d="M30.2619 22.427C29.8754 22.0405 29.3635 21.8281 28.8163 21.8281C28.269 21.8281 27.7572 22.0405 27.3707 22.427C26.9591 22.8386 26.5004 23.4876 26.1641 24.1691H26.819C27.0801 23.6867 27.4135 23.2103 27.7837 22.84C28.0596 22.5642 28.4269 22.4123 28.8163 22.4123C29.2057 22.4123 29.573 22.5642 29.8488 22.84C30.1247 23.1159 30.2766 23.4817 30.2766 23.8726C30.2766 24.2635 30.1247 24.6293 29.8488 24.9052C28.7853 25.9687 26.8485 26.7475 26.3957 26.2947C26.2717 26.1708 26.2422 25.9333 26.2835 25.6353C26.2526 25.6324 26.2216 25.625 26.1891 25.625C25.9989 25.625 25.8248 25.687 25.6817 25.7902C25.6699 26.159 25.7569 26.4806 25.9826 26.7077C26.195 26.9201 26.4915 27.0101 26.8338 27.0101C27.9327 27.0101 29.5007 26.0808 30.2619 25.3182C30.6483 24.9317 30.8607 24.4199 30.8607 23.8726C30.8607 23.3253 30.6469 22.812 30.2619 22.427Z" fill="white"/>
      <path d="M26.1641 24.1677H26.819C26.9282 23.967 27.0506 23.7709 27.1819 23.5791H26.4901C26.3735 23.7694 26.2629 23.967 26.1641 24.1677Z" fill="white"/>
      <path d="M26.314 26.9177C26.494 26.8631 26.6253 26.6979 26.6253 26.5002C26.6253 26.4663 26.6209 26.4338 26.612 26.4029C26.522 26.3822 26.4468 26.3468 26.3937 26.2937C26.2698 26.1698 26.2403 25.9323 26.2816 25.6343C26.2506 25.6314 26.2196 25.624 26.1872 25.624C25.9969 25.624 25.8228 25.686 25.6798 25.7892C25.668 26.158 25.755 26.4796 25.9807 26.7067C26.0766 26.8011 26.1901 26.869 26.314 26.9177Z" fill="white"/>
    </g>
    <path d="M29.0682 24.6476C28.6097 24.6476 28.2376 24.2757 28.2376 23.8176V9.86036C28.2376 7.66917 27.3837 5.61078 25.8337 4.062C24.2821 2.51323 22.2204 1.65999 20.0292 1.65999C15.5038 1.65999 11.8224 5.33854 11.8224 9.86036V23.8192C11.8224 24.2774 11.4503 24.6492 10.9918 24.6492C10.5333 24.6492 10.1611 24.2774 10.1611 23.8192V9.86036C10.1628 4.42222 14.5901 0 20.0308 0C22.6656 0 25.1426 1.02588 27.0082 2.88839C28.8722 4.7509 29.8972 7.22595 29.8972 9.86036V23.8192C29.8972 24.2757 29.5268 24.6476 29.0682 24.6476Z" fill="#19416C"/>
    <path opacity="0.9" d="M40.3259 5.09019L42.151 6.02113L40.3259 6.95206L39.3284 8.65554L38.331 6.95206L36.5059 6.02113L38.331 5.09019L39.3284 3.38672L40.3259 5.09019Z" fill="url(#paint0_linear_1831_7520)"/>
    <path opacity="0.9" d="M54.4735 11.7661L55.3229 12.2313L54.4735 12.6991L54.0057 13.5485L53.5405 12.6991L52.6885 12.2313L53.5405 11.7661L54.0057 10.9141L54.4735 11.7661Z" fill="#FF9F1C"/>
  </g>
  <defs>
    <linearGradient id="paint0_linear_1831_7520" x1="36.5059" y1="6.02113" x2="42.151" y2="6.02113" gradientUnits="userSpaceOnUse">
      <stop stop-color="#5278FF"/>
      <stop offset="1" stop-color="#30B8FC"/>
    </linearGradient>
    <clipPath id="clip0_1831_7520">
      <rect width="70" height="63.2258" fill="white"/>
    </clipPath>
    <clipPath id="clip1_1831_7520">
      <rect width="16.9355" height="16.9355" fill="white" transform="translate(13.9248 21.8281)"/>
    </clipPath>
  </defs>
</svg>
