<svg width="120" height="60" viewBox="0 0 120 60" fill="none" xmlns="http://www.w3.org/2000/svg">
<g clip-path="url(#clip0_13056_218187)">
<path d="M72.541 37.1381V28.252H77.308V29.0631H73.4185V32.2592H77.1776V33.0703H73.4185V36.3511H77.308V37.1502L72.541 37.1381Z" fill="#0089FF"/>
<path d="M82.2645 37.138L80.5569 34.4988L78.8493 37.138H77.877L80.0826 33.7966L77.877 30.5642H78.8612L80.5569 33.0944L82.2526 30.5642H83.2487L81.0431 33.7966L83.2487 37.138H82.2645Z" fill="#0089FF"/>
<path d="M89.6641 36.3023C89 36.9682 88.1818 37.295 87.2094 37.295C86.1303 37.295 85.2884 36.8592 84.6954 35.9754H84.6717V39.4379H83.8535V30.5639H84.6717V31.714H84.6954C85.3002 30.8302 86.1422 30.3944 87.2094 30.3944C88.1699 30.3944 88.9763 30.7213 89.6403 31.375C90.3163 32.0409 90.6601 32.852 90.6601 33.8326C90.672 34.8132 90.34 35.6365 89.6641 36.3023ZM89.1067 31.9198C88.6087 31.3992 87.9802 31.145 87.2213 31.145C86.4979 31.145 85.8813 31.4113 85.3832 31.944C84.8852 32.4767 84.648 33.1062 84.648 33.8447C84.648 34.5832 84.897 35.2127 85.3832 35.7333C85.8813 36.266 86.4979 36.5202 87.2213 36.5202C87.9802 36.5202 88.5968 36.266 89.0949 35.7575C89.5929 35.2491 89.8419 34.6074 89.8419 33.8447C89.8419 33.0941 89.6048 32.4404 89.1067 31.9198Z" fill="#0089FF"/>
<path d="M94.2656 31.2908C93.0442 31.3876 92.4276 32.0656 92.4276 33.3004V37.1381H91.6094V30.5644H92.4276V31.5208H92.4513C92.6173 31.1213 92.8663 30.8428 93.1746 30.6612C93.4355 30.516 93.7913 30.4312 94.2656 30.3949V31.2908Z" fill="#0089FF"/>
<path d="M101.249 34.16H95.3909C95.4265 34.8016 95.6874 35.3585 96.1854 35.8428C96.6835 36.3149 97.2526 36.5449 97.8811 36.5449C98.391 36.5449 98.8535 36.4118 99.2685 36.1333C99.7073 35.8428 100.004 35.4675 100.182 34.9953H101.059C100.822 35.6854 100.407 36.2423 99.8259 36.666C99.2448 37.0897 98.5926 37.3076 97.893 37.3076C96.9681 37.3076 96.1735 36.9687 95.5095 36.2907C94.8573 35.6249 94.5371 34.8137 94.5371 33.8694C94.5371 32.9251 94.8573 32.114 95.5095 31.4361C96.1735 30.746 96.9562 30.407 97.8811 30.407C98.8179 30.407 99.6124 30.7581 100.276 31.4603C100.929 32.1503 101.261 32.9736 101.261 33.93L101.249 34.16ZM100.419 33.3973C100.312 32.7435 100.027 32.2109 99.565 31.7871C99.1025 31.3634 98.5452 31.1455 97.9048 31.1455C97.2645 31.1455 96.719 31.3634 96.2447 31.7871C95.7822 32.2109 95.4976 32.7435 95.3909 33.3973H100.419Z" fill="#0089FF"/>
<path d="M103.729 37.2955C103.16 37.2955 102.686 37.1018 102.306 36.7265C101.939 36.3391 101.749 35.8549 101.749 35.2738V35.2011H102.567C102.579 36.097 102.97 36.5449 103.717 36.5449C104.524 36.5449 104.915 36.1575 104.915 35.3706C104.915 34.9832 104.761 34.6806 104.453 34.4505C104.334 34.3658 104.168 34.2689 103.966 34.1842L103.421 33.9663C103.196 33.8815 103.006 33.7968 102.864 33.7242C102.674 33.6273 102.508 33.5183 102.389 33.3973C102.081 33.1067 101.927 32.7193 101.927 32.223C101.927 31.6903 102.105 31.2544 102.449 30.9034C102.793 30.5644 103.231 30.3949 103.765 30.3949C104.263 30.3949 104.678 30.5644 105.01 30.9155C105.342 31.2545 105.52 31.6903 105.52 32.1866H104.702C104.654 31.4966 104.334 31.1576 103.741 31.1576C103.089 31.1576 102.769 31.4845 102.769 32.1382C102.769 32.4651 102.923 32.7314 103.231 32.9251C103.35 32.9978 103.516 33.0704 103.717 33.1552L103.848 33.2036C103.883 33.2157 103.919 33.2278 103.99 33.252L104.263 33.361C104.488 33.4457 104.666 33.5426 104.808 33.6152C104.998 33.7242 105.164 33.8452 105.283 33.9784C105.591 34.3053 105.745 34.7411 105.745 35.2859C105.745 36.6297 105.069 37.2955 103.729 37.2955Z" fill="#0089FF"/>
<path d="M107.998 37.2955C107.429 37.2955 106.954 37.1018 106.575 36.7265C106.207 36.3391 106.018 35.8549 106.018 35.2738V35.2011H106.836C106.848 36.097 107.239 36.5449 107.986 36.5449C108.792 36.5449 109.184 36.1575 109.184 35.3706C109.184 34.9832 109.03 34.6806 108.721 34.4505C108.603 34.3658 108.437 34.2689 108.235 34.1842L107.69 33.9663C107.464 33.8815 107.275 33.7968 107.132 33.7242C106.943 33.6273 106.777 33.5183 106.658 33.3973C106.35 33.1067 106.195 32.7193 106.195 32.223C106.195 31.6903 106.373 31.2544 106.717 30.9034C107.061 30.5644 107.5 30.3949 108.022 30.3949C108.52 30.3949 108.935 30.5644 109.267 30.9155C109.599 31.2545 109.777 31.6903 109.777 32.1866H108.958C108.911 31.4966 108.591 31.1576 107.998 31.1576C107.346 31.1576 107.026 31.4845 107.026 32.1382C107.026 32.4651 107.18 32.7314 107.488 32.9251C107.607 32.9978 107.773 33.0704 107.974 33.1552L108.105 33.2036C108.14 33.2157 108.176 33.2278 108.247 33.252L108.52 33.361C108.745 33.4457 108.923 33.5426 109.065 33.6152C109.255 33.7242 109.421 33.8452 109.539 33.9784C109.848 34.3053 110.002 34.7411 110.002 35.2859C110.026 36.6297 109.35 37.2955 107.998 37.2955Z" fill="#0089FF"/>
<path d="M29.1627 29.9348V23.2521C29.1627 21.4483 27.7279 19.9834 25.961 19.9834L16.2017 21.6178C14.4348 21.6178 13 23.0826 13 24.8986V34.8621C13 36.666 14.4348 38.143 16.2017 38.143H25.961C27.7279 38.143 29.1627 36.6781 29.1627 34.8621V30.9639C29.1509 30.7944 29.1509 30.6249 29.1509 30.4554C29.139 30.2738 29.1509 30.1043 29.1627 29.9348ZM25.3918 35.9759C24.2653 36.7749 22.9016 37.1744 21.3007 37.1744C19.0002 37.1744 16.8776 36.327 14.921 34.6321L17.0081 32.4772C18.3006 33.8936 19.7829 34.5958 21.4667 34.5958C22.1071 34.5958 22.7119 34.4626 23.2573 34.1842C23.9451 33.8452 24.289 33.3852 24.289 32.7798C24.289 31.9082 23.6605 31.3513 22.4154 31.1092L20.696 30.7702C19.1544 30.4675 18.016 30.0922 17.2689 29.6322C16.1543 28.93 15.5969 27.9373 15.5969 26.6419C15.5969 25.1649 16.178 23.9906 17.352 23.1189C18.3836 22.3199 19.6524 21.9204 21.1584 21.9204C23.0676 21.9204 24.9412 22.5863 26.7792 23.918L25.0479 26.0971C23.7791 25.056 22.5103 24.5112 21.2177 24.5112C20.5892 24.5112 20.02 24.6565 19.522 24.9349C18.9172 25.2739 18.6089 25.746 18.6089 26.3392C18.6089 27.1141 19.2374 27.6225 20.4825 27.8646L23.5538 28.4579C26.0559 28.93 27.301 30.2254 27.301 32.3077C27.2891 33.8573 26.6606 35.08 25.3918 35.9759Z" fill="#0FD186"/>
<path d="M39.5033 25.9035C39.0171 25.1892 38.4123 24.6444 37.7008 24.2812C36.9894 23.9059 36.2067 23.7243 35.3529 23.7243C34.4398 23.7243 33.6098 23.9059 32.839 24.257C32.0682 24.6081 31.3804 25.165 30.7519 25.9035C30.3606 26.3635 30.0523 26.8235 29.8151 27.2957C29.5898 27.7557 29.4238 28.2642 29.3171 28.7969C29.246 29.1722 29.1985 29.5475 29.1748 29.9349V30.9639C29.2697 32.5498 29.7796 33.9179 30.7045 35.0559C31.2618 35.7338 31.9378 36.2544 32.7085 36.6297C33.4912 37.005 34.3331 37.1866 35.2581 37.1866C36.0407 37.1866 36.8233 36.9929 37.606 36.6055C38.3886 36.2181 39.0052 35.6975 39.4559 35.0559H39.5033V36.775H42.2425V24.1238H39.5033V25.9035ZM38.946 32.3561C38.6495 32.9372 38.2226 33.3852 37.6653 33.7121C37.1079 34.0389 36.4913 34.2084 35.7917 34.2084C34.7837 34.2084 33.9299 33.8573 33.2066 33.1552C32.4832 32.453 32.1275 31.5813 32.1275 30.5644C32.1275 29.4385 32.4714 28.5184 33.171 27.7799C33.8706 27.0536 34.7482 26.6783 35.8391 26.6783C36.3609 26.6783 36.8352 26.7751 37.2739 26.9567C37.7127 27.1504 38.0922 27.4046 38.4123 27.7436C38.7206 28.0826 38.9697 28.47 39.1475 28.93C39.3254 29.3901 39.4084 29.8864 39.4084 30.4191C39.4084 31.1334 39.2543 31.7871 38.946 32.3561Z" fill="#0089FF"/>
<path d="M55.2985 27.0899C55.0257 26.5693 54.7174 26.1335 54.3735 25.7703C53.7569 25.056 53.081 24.5233 52.3576 24.2086C51.6343 23.8817 50.8042 23.7243 49.8793 23.7243C48.1361 23.7243 46.808 24.4023 45.9068 25.7703H45.8475V24.1238H43.1201V41.0001H46.0847V35.407H46.1321C47.0452 36.5934 48.2903 37.1866 49.8674 37.1866C50.7449 37.1866 51.5631 37.005 52.3339 36.6539C53.1047 36.3028 53.7688 35.8065 54.338 35.1648C54.9071 34.5353 55.334 33.8089 55.6424 32.9978C55.9388 32.1867 56.093 31.3392 56.093 30.4554C56.093 29.8743 56.0337 29.3053 55.9032 28.7242C55.7609 28.1552 55.5594 27.6104 55.2985 27.0899ZM52.6422 32.3319C52.3221 32.913 51.8833 33.3731 51.326 33.7121C50.7568 34.051 50.1402 34.2205 49.4524 34.2205C49.0492 34.2205 48.646 34.1358 48.2191 33.9663C47.7922 33.7968 47.4128 33.5668 47.0807 33.2641C46.31 32.562 45.9186 31.6177 45.9186 30.4554C45.9186 29.7775 46.0728 29.1359 46.393 28.5669C46.7131 27.9857 47.14 27.5257 47.6974 27.1988C48.2547 26.8599 48.8713 26.7025 49.5473 26.7025C50.2113 26.7025 50.8161 26.872 51.3616 27.223C51.907 27.5741 52.3339 28.0342 52.6422 28.6153C52.9505 29.1964 53.1047 29.8138 53.1047 30.4554C53.1166 31.1213 52.9505 31.7508 52.6422 32.3319Z" fill="#0089FF"/>
<path d="M69.5164 27.8647C69.1962 27.0535 68.7337 26.3393 68.1408 25.7097C67.5479 25.0802 66.8483 24.596 66.0657 24.2449C65.2712 23.8938 64.4292 23.7122 63.528 23.7122C62.5912 23.7122 61.7256 23.8817 60.9192 24.2328C60.1128 24.5838 59.4014 25.056 58.7847 25.6734C58.18 26.2908 57.6938 27.0051 57.3499 27.8284C57.006 28.6516 56.8281 29.5354 56.8281 30.4797C56.8281 31.6782 57.1246 32.792 57.7175 33.821C58.3104 34.8501 59.1168 35.6733 60.1247 36.2786C61.1326 36.8839 62.2236 37.1866 63.3976 37.1866C64.2869 37.1866 65.1289 37.0171 65.9352 36.6781C66.7416 36.3391 67.4531 35.8549 68.0815 35.2253C68.71 34.5958 69.1844 33.8694 69.5164 33.0583C69.8484 32.2472 70.0144 31.3876 70.0144 30.4675C70.0026 29.5475 69.8484 28.6879 69.5164 27.8647ZM66.5518 32.3561C66.2435 32.9372 65.8048 33.3852 65.2593 33.7242C64.702 34.051 64.0853 34.2205 63.3976 34.2205C62.7454 34.2205 62.1406 34.051 61.5951 33.7242C61.0496 33.3852 60.6109 32.9372 60.3026 32.344C59.9824 31.7629 59.8282 31.1334 59.8282 30.4797C59.8282 29.4385 60.1721 28.5547 60.848 27.8526C61.1682 27.5015 61.5595 27.2109 62.0339 27.0051C62.4963 26.7993 62.9588 26.6904 63.3976 26.6904C64.0616 26.6904 64.6664 26.8598 65.2237 27.1988C65.7811 27.5378 66.2198 27.9978 66.54 28.5911C66.8602 29.1722 67.0143 29.8138 67.0143 30.4797C67.0143 31.1455 66.8602 31.775 66.5518 32.3561Z" fill="#0089FF"/>
</g>
<defs>
<clipPath id="clip0_13056_218187">
<rect width="97" height="21.0167" fill="white" transform="translate(13 19.9834)"/>
</clipPath>
</defs>
</svg>
