<svg width="120" height="60" viewBox="0 0 120 60" fill="none" xmlns="http://www.w3.org/2000/svg">
<path fill-rule="evenodd" clip-rule="evenodd" d="M64.9001 39.6133L63.1328 34.9787L66.7658 31.2267L69.9569 39.638H64.9001V39.6133ZM74.9889 21L67.1581 29.0929L65.66 25.1443L69.6593 21H74.9889ZM61.1683 29.7793L51.6682 39.6133H56.995L66.3235 29.9754L62.9112 21H57.8544L61.1683 29.7793ZM39.1042 40H43.7755L45.71 33.6191C50.1632 33.6191 50.8203 33.4002 52.6816 32.5979C54.7989 31.723 57.5365 28.6234 57.5365 25.597C57.5365 22.716 55.2004 21.3672 51.2223 21.3672H44.7245L39.1042 40ZM29.8345 39.1961C31.5222 39.1961 33.7727 38.95 35.6012 37.7207C37.041 36.737 37.816 34.5245 37.6757 33.0862C37.4645 30.9435 35.6716 30.1005 34.441 29.4333C32.6813 28.4848 31.839 28.309 31.7686 27.116C31.6982 26.0976 32.8232 25.2194 33.7023 24.9733C35.0737 24.6221 36.3747 24.5518 38.168 25.7464C38.4479 24.4467 39.117 23.3576 40.1721 22.5146C39.3634 21.8122 36.7966 21.2853 34.7925 21.2853C32.5053 21.2821 30.8192 22.1263 29.3426 23.2849C27.9712 24.3389 27.0922 26.6569 27.4085 28.1676C27.7249 29.6059 29.1682 31.1181 30.5028 31.7501C32.0498 32.4881 33.9135 33.0498 33.5971 34.3495C33.2804 35.614 31.4523 36.0003 30.3268 35.9652C29.0962 35.93 27.5141 35.8249 26.0723 35.5437L24.9121 38.9864C26.5646 39.1973 28.182 39.1973 29.8345 39.1973V39.1961ZM48.3379 24.8674H49.9425C51.6222 24.8674 52.6073 25.4512 52.6073 26.6541C52.6073 27.9306 51.439 29.2431 50.5632 29.6079C49.7601 29.9359 48.6651 30.0473 46.767 30.0473L48.3363 24.8694L48.3379 24.8674ZM75.7491 38.1246C75.7491 38.4644 75.6483 38.7965 75.4593 39.0791C75.2703 39.3616 75.0018 39.5818 74.6875 39.7118C74.3733 39.8418 74.0275 39.8759 73.6939 39.8096C73.3603 39.7433 73.0539 39.5797 72.8134 39.3394C72.5729 39.0991 72.4091 38.793 72.3427 38.4598C72.2764 38.1265 72.3104 37.7811 72.4406 37.4672C72.5708 37.1533 72.7912 36.8849 73.074 36.6962C73.3568 36.5074 73.6893 36.4066 74.0294 36.4066C74.4855 36.4066 74.9229 36.5876 75.2454 36.9098C75.568 37.232 75.7491 37.669 75.7491 38.1246ZM79.5725 28.2295H76.533L79.3978 39.7647H81.5574L88.0364 28.1855H85.0392L81.3374 35.1857L79.5725 28.2295ZM91.6978 28.0205L89.1194 28.0369L87.3733 39.8965H90.282L91.1619 33.0286L94.5569 39.9852H97.5964L99.2274 28.0537H96.671L95.4812 35.0542L91.6978 28.0205Z" fill="#E85234"/>
</svg>
