<svg width="40" height="40" viewBox="0 0 40 40" fill="none" xmlns="http://www.w3.org/2000/svg">
<circle cx="20" cy="20" r="20" fill="#F3F4F5"/>
<path d="M27.7778 10H12.2222C10.9967 10 10 10.9967 10 12.2222V27.7778C10 29.0033 10.9967 30 12.2222 30H27.7778C29.0033 30 30 29.0033 30 27.7778V12.2222C30 10.9967 29.0033 10 27.7778 10ZM12.2222 27.7778V12.2222H27.7778L27.78 27.7778H12.2222Z" fill="#D3D5D7"/>
<path d="M17.7778 22.2222L16.6667 21.1111L13.3333 25.5556H26.6667L21.1111 17.7778L17.7778 22.2222Z" fill="#D3D5D7"/>
<path d="M16.1111 18.8889C17.0316 18.8889 17.7778 18.1427 17.7778 17.2222C17.7778 16.3017 17.0316 15.5556 16.1111 15.5556C15.1906 15.5556 14.4444 16.3017 14.4444 17.2222C14.4444 18.1427 15.1906 18.8889 16.1111 18.8889Z" fill="#D3D5D7"/>
</svg>
