<svg width="40" height="40" viewBox="0 0 40 40" fill="none" xmlns="http://www.w3.org/2000/svg">
<circle cx="20" cy="20" r="20" fill="#F3F4F5"/>
<g clip-path="url(#clip0_4720_67952)">
<path d="M27.6456 22.9939C27.4872 22.8828 27.3182 22.7877 27.141 22.7099C27.141 22.7099 27.6998 22.085 27.8385 21.7983C27.9946 21.4645 28.0724 21.0994 28.0657 20.7309C28.0657 20.649 28.0657 20.5671 28.0565 20.4892C28.0361 20.0034 27.8538 19.5383 27.5386 19.1681C27.0181 18.5749 26.2545 18.0914 25.0286 18.0914C24.7565 18.0769 24.5173 18.0809 24.302 18.0914H23.9968H20.5621C20.4205 18.085 20.282 18.1348 20.1771 18.2302C20.0721 18.3255 20.0091 18.4585 20.002 18.6V19.0017C20.0115 19.1432 20.0765 19.2752 20.1829 19.369C20.2893 19.4627 20.4284 19.5107 20.57 19.5023H20.932C20.967 19.5023 21.0006 19.5163 21.0254 19.541C21.0502 19.5658 21.0641 19.5994 21.0641 19.6344V27.6189C21.0668 27.6888 21.0833 27.7575 21.1128 27.8209C21.1422 27.8843 21.1839 27.9413 21.2356 27.9885C21.2872 28.0357 21.3476 28.0721 21.4134 28.0958C21.4792 28.1194 21.5491 28.1298 21.6189 28.1262H24.1778C24.5741 28.1262 25.0061 28.1038 25.4685 28.0575C25.9556 28.0118 26.433 27.8929 26.8847 27.7048C27.3523 27.5106 27.7487 27.0932 28.0618 26.71C28.396 26.3058 28.5638 25.7655 28.5638 25.105C28.575 24.6765 28.4877 24.2513 28.3088 23.8618C28.152 23.532 27.9268 23.2393 27.6483 23.0031M23.5662 19.6463C23.6974 19.6273 23.83 19.6194 23.9625 19.6226C24.2033 19.6216 24.4436 19.6446 24.6798 19.6912C24.8525 19.7219 25.0173 19.7865 25.1647 19.8815C25.2869 19.9621 25.3854 20.0738 25.45 20.2051C25.4599 20.224 25.4687 20.2434 25.4764 20.2633C25.5403 20.441 25.5699 20.6293 25.5636 20.8181C25.5636 21.1312 25.5055 21.3716 25.3945 21.5117C25.2812 21.6614 25.1304 21.7785 24.9573 21.8512C24.7563 21.9338 24.5428 21.9821 24.3258 21.9939C24.0523 22.0124 23.7736 21.9939 23.5688 21.9939L23.5662 19.6463ZM25.915 25.7523C25.8222 25.9137 25.6911 26.0498 25.5332 26.1486C25.3499 26.2597 25.1488 26.3384 24.9388 26.3811C24.6883 26.435 24.4327 26.4616 24.1765 26.4604C23.9727 26.4633 23.7689 26.4545 23.5662 26.4339C23.5728 26.4339 23.5556 26.4339 23.5662 26.4339C23.5662 26.4009 23.5662 23.5699 23.5662 23.5699C23.8581 23.5699 24.2188 23.5857 24.553 23.6148C24.8224 23.6358 25.0861 23.7033 25.3324 23.8143C25.5441 23.9121 25.7263 24.0638 25.8609 24.2542C25.993 24.4405 26.063 24.7258 26.063 25.1023C26.073 25.3316 26.0224 25.5594 25.9163 25.7628" fill="#0E70B8"/>
<path d="M7.97107 18.0769H5.57202C5.47578 18.0767 5.38082 18.0989 5.2946 18.1416L5.2761 18.1508L5.251 18.1641C5.17671 18.2068 5.11463 18.2678 5.07068 18.3414C5.02673 18.4149 5.0024 18.4985 5 18.5842V19.0016C5.00269 19.072 5.0194 19.1411 5.04916 19.2049C5.07893 19.2687 5.12114 19.3259 5.17332 19.3731C5.2255 19.4204 5.2866 19.4567 5.35302 19.48C5.41945 19.5034 5.48986 19.5132 5.56013 19.5089H5.92474C5.95872 19.5081 5.99191 19.5191 6.01866 19.5401C6.04541 19.561 6.06404 19.5907 6.07138 19.6238C6.07138 19.7203 6.06346 19.8418 6.06346 19.9713V27.6017C6.06386 27.6382 6.06829 27.6745 6.07667 27.7101C6.10862 27.8291 6.17967 27.9339 6.27838 28.0077C6.37709 28.0815 6.49774 28.12 6.62094 28.1169H6.83231H7.97107C8.11516 28.1241 8.25624 28.074 8.36344 27.9774C8.47064 27.8809 8.53523 27.7458 8.54309 27.6017V18.5868C8.5339 18.4437 8.46872 18.3099 8.36167 18.2145C8.25462 18.1191 8.1143 18.0696 7.97107 18.0769Z" fill="#0E70B8"/>
<path d="M19.4461 18.0769H19.3787H18.5451H17.5279C17.4163 18.075 17.3066 18.106 17.2126 18.1662C17.1186 18.2264 17.0445 18.3129 16.9995 18.4151C16.8978 18.6793 16.7141 19.1219 16.4711 19.7177L16.0774 20.6662L15.5569 21.9569C15.3605 22.4527 15.1333 23.0159 14.8752 23.6465C14.7871 23.8579 14.6991 24.078 14.611 24.307L14.3468 23.6465C14.0843 23.0159 13.8536 22.4527 13.6546 21.9569C13.4577 21.4628 13.2833 21.0321 13.1354 20.6662L12.7483 19.7163C12.5026 19.1205 12.319 18.6714 12.2199 18.4138C12.1753 18.3113 12.1013 18.2244 12.0072 18.1642C11.9131 18.104 11.8032 18.0731 11.6915 18.0756H9.48396C9.34233 18.0691 9.2039 18.119 9.09893 18.2143C8.99397 18.3096 8.93101 18.4426 8.92383 18.5842V19.0016C8.93102 19.1397 8.99203 19.2695 9.09378 19.3631C9.19554 19.4567 9.32992 19.5067 9.46811 19.5023H9.81026C10.1009 19.5023 10.1722 19.752 10.3691 20.2342L13.4722 27.7933C13.5177 27.8946 13.5921 27.9802 13.6862 28.0392C13.7802 28.0983 13.8897 28.1281 14.0007 28.1249H15.2121C15.3429 28.1258 15.4704 28.0841 15.5754 28.006C15.6488 27.9515 15.7059 27.878 15.7405 27.7933L18.4857 21.1048L18.8437 20.2342C18.8805 20.144 18.922 20.0559 18.9679 19.97L19.5808 18.5168L19.6324 18.3953C19.6528 18.3631 19.664 18.3259 19.6647 18.2878C19.6654 18.2497 19.6556 18.2122 19.6363 18.1793C19.6171 18.1464 19.5892 18.1194 19.5556 18.1013C19.522 18.0833 19.4841 18.0748 19.4461 18.0769Z" fill="#0E70B8"/>
<path d="M32.0819 17.6066C32.65 17.3292 32.8547 17.0782 32.9261 16.8483C32.9486 16.7756 32.9522 16.6983 32.9366 16.6237C32.9217 16.5687 32.8946 16.5177 32.8574 16.4745C32.8059 16.4071 32.7055 16.3225 32.4386 16.3648C32.3111 16.3865 32.1866 16.4229 32.0674 16.4731L32.0053 16.5022L32.0753 16.4731L31.9115 16.5498C31.8085 16.6 31.7054 16.6515 31.6011 16.7056L31.6949 16.6541L31.5865 16.7083C31.2379 16.8818 30.9069 17.0889 30.5984 17.3265C30.3124 17.5475 30.0515 17.7991 29.8203 18.0769C29.6422 18.2897 29.5035 18.5327 29.4107 18.7942L29.4002 18.8286C29.3541 18.9742 29.3236 19.1244 29.309 19.2764C29.2993 19.5421 29.3405 19.8071 29.4305 20.0572C29.4411 20.0876 29.4504 20.1179 29.4609 20.1457C29.4609 20.0466 29.527 18.851 32.0859 17.6053" fill="#0E70B8"/>
<path d="M31.2696 19.7612C31.2315 19.7297 31.1853 19.7095 31.1362 19.703C31.0872 19.6965 31.0373 19.7038 30.9922 19.7243C30.7292 19.8335 30.4893 19.9917 30.2854 20.1906H30.2788C30.1161 20.3415 29.9818 20.5205 29.8825 20.719C29.8241 20.8335 29.7951 20.9606 29.7981 21.0891C29.8011 21.2176 29.836 21.3433 29.8997 21.4548C29.9077 21.4707 29.9165 21.4861 29.9261 21.5011C29.9555 21.5478 29.9886 21.592 30.0252 21.6332C30.0239 21.6077 30.0239 21.5821 30.0252 21.5566C30.0251 21.4906 30.0335 21.4249 30.0503 21.3611C30.0857 21.2351 30.1434 21.1165 30.2207 21.011C30.2812 20.9302 30.3513 20.857 30.4294 20.793C30.5096 20.7265 30.5939 20.6652 30.6818 20.6094C30.828 20.5212 30.9695 20.4255 31.1058 20.3227C31.1907 20.2605 31.2584 20.1778 31.3027 20.0823C31.3242 20.0419 31.3365 19.9973 31.3388 19.9516C31.3411 19.906 31.3333 19.8603 31.3159 19.8181C31.3035 19.7944 31.288 19.7727 31.2696 19.7533" fill="#0E70B8"/>
<path d="M33.9084 14.4466C33.8741 14.3806 33.8014 14.2749 33.4672 14.2934C33.1585 14.326 32.8565 14.4053 32.5715 14.5285L32.4751 14.5708L32.5781 14.5285C32.3483 14.625 32.0946 14.7452 31.8172 14.8945L31.9718 14.8113L31.8066 14.8984C31.3962 15.1226 30.9992 15.3705 30.6177 15.6409C30.2374 15.9115 29.8976 16.2349 29.6084 16.6013C29.3916 16.8746 29.2195 17.1804 29.0985 17.5075C28.9871 17.8147 28.9456 18.1428 28.9769 18.468C29.0011 18.6691 29.0454 18.8674 29.109 19.0598C29.1249 19.1126 29.1407 19.1549 29.15 19.1919C29.1587 19.0371 29.1917 18.8846 29.2477 18.7401C29.2623 18.7018 29.2794 18.6661 29.2966 18.6278C29.3138 18.5895 29.3296 18.5512 29.3468 18.5142C29.364 18.4772 29.3851 18.4336 29.4063 18.3953C29.4274 18.357 29.4499 18.3107 29.4736 18.2632C29.4974 18.2156 29.5265 18.176 29.5529 18.1311C29.5793 18.0862 29.615 18.0373 29.6467 17.9924C29.6784 17.9475 29.718 17.8946 29.755 17.8471C29.792 17.7995 29.8356 17.744 29.8792 17.6951C29.9228 17.6463 29.9704 17.5894 30.0192 17.5379C30.0681 17.4864 30.1223 17.4283 30.1764 17.3754C30.2306 17.3226 30.2927 17.2658 30.3535 17.2116C30.4142 17.1575 30.4856 17.1007 30.5503 17.0465C30.615 16.9923 30.6943 16.9316 30.7683 16.8787C30.8423 16.8259 30.9295 16.7638 31.0114 16.7096C31.0933 16.6555 31.1897 16.5947 31.2756 16.5405C31.3614 16.4864 31.4684 16.4256 31.5675 16.3701C31.6666 16.3146 31.7763 16.2552 31.8833 16.1997C31.9903 16.1442 32.1052 16.0848 32.2162 16.0293L32.5676 15.8575C32.9143 15.7095 33.2435 15.5234 33.5491 15.3027C33.6625 15.2177 33.7638 15.1177 33.8503 15.0055C33.8867 14.9582 33.9173 14.9068 33.9415 14.8522C33.9673 14.7863 33.9776 14.7153 33.9717 14.6448C33.9657 14.5742 33.9436 14.506 33.9071 14.4453" fill="#F7901E"/>
<path d="M28.849 17.6C28.8564 17.5313 28.8711 17.4635 28.8926 17.3978C28.9058 17.3582 28.9217 17.3186 28.9362 17.2789C29.0921 16.8496 29.4408 16.2723 30.211 15.6197L30.396 15.4664C30.6488 15.2649 30.9135 15.0787 31.1886 14.909C31.8914 14.4638 32.8386 14.0542 33.976 13.5324C34.6234 13.2339 34.8189 12.9406 34.9193 12.7464C34.9647 12.6716 34.9903 12.5865 34.9935 12.4991C34.9967 12.4117 34.9776 12.3249 34.9378 12.247C34.9021 12.181 34.7581 12.0026 34.3922 12.0026C34.2291 12.0065 34.0672 12.0305 33.91 12.074C31.7686 12.6248 29.9389 14.0873 29.3153 14.9314C29.0697 15.2584 28.8709 15.6181 28.7248 16.0002C28.6412 16.2349 28.5888 16.4796 28.5689 16.7281C28.5201 17.3595 28.7631 17.8774 28.8332 18.0703C28.8332 18.0703 28.8332 18.0584 28.8332 18.0359C28.8136 17.8916 28.8194 17.7449 28.8503 17.6026" fill="#0E70B8"/>
<path d="M32.0122 18.4521C31.9976 18.4061 31.9728 18.3641 31.9396 18.3292C31.8942 18.2833 31.8367 18.2512 31.7738 18.2367C31.7109 18.2222 31.6451 18.2259 31.5842 18.2473C31.302 18.3264 31.0365 18.4562 30.8008 18.6304C30.7229 18.6819 30.6449 18.7361 30.5643 18.7969C30.2486 19.0545 29.843 19.4363 29.6832 19.9118V19.929C29.6446 20.0441 29.6202 20.1634 29.6105 20.2844C29.6041 20.4508 29.6246 20.6172 29.6713 20.7771C29.6779 20.8009 29.6845 20.8234 29.6911 20.8485C29.703 20.8102 29.7175 20.7719 29.7334 20.7322C29.7392 20.7161 29.7458 20.7002 29.7532 20.6847C29.9804 20.1562 30.5208 19.7097 31.4706 19.1998C31.8379 19.003 31.9832 18.7731 32.0188 18.6331C32.0347 18.5715 32.0347 18.507 32.0188 18.4455" fill="#F79121"/>
<path d="M30.667 21.4245C30.6202 21.3877 30.5713 21.3537 30.5204 21.3228C30.5204 21.3228 30.5204 21.3228 30.5138 21.3228H30.5046L30.494 21.3148L30.3302 21.2144L30.28 21.184L30.2615 21.1708C30.2016 21.25 30.1568 21.3396 30.1294 21.435C30.1062 21.4944 30.1031 21.5597 30.1205 21.621C30.1379 21.6823 30.1749 21.7363 30.2258 21.7746C30.2998 21.8234 30.3672 21.8657 30.4134 21.8908C30.4588 21.9164 30.5066 21.9377 30.5561 21.9542C30.599 21.9678 30.6433 21.9762 30.6882 21.9793C30.7026 21.9815 30.7173 21.9815 30.7318 21.9793C30.7431 21.9764 30.7542 21.9724 30.7648 21.9674C30.776 21.9604 30.7858 21.9514 30.7939 21.941C30.8368 21.8759 30.8568 21.7984 30.8508 21.7207C30.8448 21.643 30.8132 21.5694 30.7608 21.5117C30.731 21.4776 30.6978 21.4466 30.6618 21.4192" fill="#F79121"/>
</g>
<defs>
<clipPath id="clip0_4720_67952">
<rect width="30" height="16.1209" fill="white" transform="translate(5 12)"/>
</clipPath>
</defs>
</svg>
